 0
SECTION
 2
HEADER
 9
$ACADVER
 1
AC1009
 0
ENDSEC
 0
SECTION
 2
ENTITIES
 0
POLYLINE
 8
TITLE
 66
1
 70
1
 10
0.0
 20
0.0
 30
0.0
 0
VERTEX
 8
TITLE
 10
 -0.1000
 20
  0.1000
 30
0.0
 0
VERTEX
 8
TITLE
 10
  9.6000
 20
  0.1000
 30
0.0
 0
VERTEX
 8
TITLE
 10
  9.6000
 20
  7.3000
 30
0.0
 0
VERTEX
 8
TITLE
 10
 -0.1000
 20
  7.3000
 30
0.0
 0
SEQEND
 8
TITLE
 0
POLYLINE
 8
TITLE
 66
1
 70
1
 10
0.0
 20
0.0
 30
0.0
 0
VERTEX
 8
TITLE
 10
  0.0000
 20
  0.2000
 30
0.0
 0
VERTEX
 8
TITLE
 10
  9.5000
 20
  0.2000
 30
0.0
 0
VERTEX
 8
TITLE
 10
  9.5000
 20
  7.2000
 30
0.0
 0
VERTEX
 8
TITLE
 10
  0.0000
 20
  7.2000
 30
0.0
 0
SEQEND
 8
TITLE
 0
POLYLINE
 8
TITLE
 66
1
 10
0.0
 20
0.0
 30
0.0
 0
VERTEX
 8
TITLE
 10
  2.0600
 20
  0.2000
 30
0.0
 0
VERTEX
 8
TITLE
 10
  2.0600
 20
  0.1000
 30
0.0
 0
SEQEND
 8
TITLE
 0
POLYLINE
 8
TITLE
 66
1
 10
0.0
 20
0.0
 30
0.0
 0
VERTEX
 8
TITLE
 10
  2.0600
 20
  7.2000
 30
0.0
 0
VERTEX
 8
TITLE
 10
  2.0600
 20
  7.3000
 30
0.0
 0
SEQEND
 8
TITLE
 0
POLYLINE
 8
TITLE
 66
1
 10
0.0
 20
0.0
 30
0.0
 0
VERTEX
 8
TITLE
 10
  3.9200
 20
  0.2000
 30
0.0
 0
VERTEX
 8
TITLE
 10
  3.9200
 20
  0.1000
 30
0.0
 0
SEQEND
 8
TITLE
 0
POLYLINE
 8
TITLE
 66
1
 10
0.0
 20
0.0
 30
0.0
 0
VERTEX
 8
TITLE
 10
  3.9200
 20
  7.2000
 30
0.0
 0
VERTEX
 8
TITLE
 10
  3.9200
 20
  7.3000
 30
0.0
 0
SEQEND
 8
TITLE
 0
POLYLINE
 8
TITLE
 66
1
 10
0.0
 20
0.0
 30
0.0
 0
VERTEX
 8
TITLE
 10
  5.7800
 20
  0.2000
 30
0.0
 0
VERTEX
 8
TITLE
 10
  5.7800
 20
  0.1000
 30
0.0
 0
SEQEND
 8
TITLE
 0
POLYLINE
 8
TITLE
 66
1
 10
0.0
 20
0.0
 30
0.0
 0
VERTEX
 8
TITLE
 10
  5.7800
 20
  7.2000
 30
0.0
 0
VERTEX
 8
TITLE
 10
  5.7800
 20
  7.3000
 30
0.0
 0
SEQEND
 8
TITLE
 0
POLYLINE
 8
TITLE
 66
1
 10
0.0
 20
0.0
 30
0.0
 0
VERTEX
 8
TITLE
 10
  7.6400
 20
  0.2000
 30
0.0
 0
VERTEX
 8
TITLE
 10
  7.6400
 20
  0.1000
 30
0.0
 0
SEQEND
 8
TITLE
 0
POLYLINE
 8
TITLE
 66
1
 10
0.0
 20
0.0
 30
0.0
 0
VERTEX
 8
TITLE
 10
  7.6400
 20
  7.2000
 30
0.0
 0
VERTEX
 8
TITLE
 10
  7.6400
 20
  7.3000
 30
0.0
 0
SEQEND
 8
TITLE
 0
TEXT
 8
TITLE
 10
  1.1300
 20
  0.1200
 30
0.0
 40
  0.0500
 1
5
 0
TEXT
 8
TITLE
 10
  1.1300
 20
  7.2200
 30
0.0
 40
  0.0500
 1
5
 0
TEXT
 8
TITLE
 10
  2.9900
 20
  0.1200
 30
0.0
 40
  0.0500
 1
4
 0
TEXT
 8
TITLE
 10
  2.9900
 20
  7.2200
 30
0.0
 40
  0.0500
 1
4
 0
TEXT
 8
TITLE
 10
  4.8500
 20
  0.1200
 30
0.0
 40
  0.0500
 1
3
 0
TEXT
 8
TITLE
 10
  4.8500
 20
  7.2200
 30
0.0
 40
  0.0500
 1
3
 0
TEXT
 8
TITLE
 10
  6.7100
 20
  0.1200
 30
0.0
 40
  0.0500
 1
2
 0
TEXT
 8
TITLE
 10
  6.7100
 20
  7.2200
 30
0.0
 40
  0.0500
 1
2
 0
TEXT
 8
TITLE
 10
  8.5700
 20
  0.1200
 30
0.0
 40
  0.0500
 1
1
 0
TEXT
 8
TITLE
 10
  8.5700
 20
  7.2200
 30
0.0
 40
  0.0500
 1
1
 0
POLYLINE
 8
TITLE
 66
1
 10
0.0
 20
0.0
 30
0.0
 0
VERTEX
 8
TITLE
 10
 -0.1000
 20
  5.3000
 30
0.0
 0
VERTEX
 8
TITLE
 10
  0.0000
 20
  5.3000
 30
0.0
 0
SEQEND
 8
TITLE
 0
POLYLINE
 8
TITLE
 66
1
 10
0.0
 20
0.0
 30
0.0
 0
VERTEX
 8
TITLE
 10
  9.5000
 20
  5.3000
 30
0.0
 0
VERTEX
 8
TITLE
 10
  9.6000
 20
  5.3000
 30
0.0
 0
SEQEND
 8
TITLE
 0
SOLID
 8
TITLE
 10
  0.0000
 20
  3.6000
 30
0.0
 11
 -0.0500
 21
  3.6200
 31
0.0
 12
 -0.0500
 22
  3.5800
 32
0.0
 13
 -0.0500
 23
  3.6000
 33
0.0
 0
SOLID
 8
TITLE
 10
  9.5000
 20
  3.6000
 30
0.0
 11
  9.5500
 21
  3.6200
 31
0.0
 12
  9.5500
 22
  3.5800
 32
0.0
 13
  9.5500
 23
  3.6000
 33
0.0
 0
POLYLINE
 8
TITLE
 66
1
 10
0.0
 20
0.0
 30
0.0
 0
VERTEX
 8
TITLE
 10
 -0.1000
 20
  3.6000
 30
0.0
 0
VERTEX
 8
TITLE
 10
  0.0000
 20
  3.6000
 30
0.0
 0
SEQEND
 8
TITLE
 0
POLYLINE
 8
TITLE
 66
1
 10
0.0
 20
0.0
 30
0.0
 0
VERTEX
 8
TITLE
 10
  9.5000
 20
  3.6000
 30
0.0
 0
VERTEX
 8
TITLE
 10
  9.6000
 20
  3.6000
 30
0.0
 0
SEQEND
 8
TITLE
 0
SOLID
 8
TITLE
 10
  0.0000
 20
  3.6000
 30
0.0
 11
 -0.0500
 21
  3.6200
 31
0.0
 12
 -0.0500
 22
  3.5800
 32
0.0
 13
 -0.0500
 23
  3.6000
 33
0.0
 0
SOLID
 8
TITLE
 10
  9.5000
 20
  3.6000
 30
0.0
 11
  9.5500
 21
  3.6200
 31
0.0
 12
  9.5500
 22
  3.5800
 32
0.0
 13
  9.5500
 23
  3.6000
 33
0.0
 0
POLYLINE
 8
TITLE
 66
1
 10
0.0
 20
0.0
 30
0.0
 0
VERTEX
 8
TITLE
 10
 -0.1000
 20
  1.9000
 30
0.0
 0
VERTEX
 8
TITLE
 10
  0.0000
 20
  1.9000
 30
0.0
 0
SEQEND
 8
TITLE
 0
POLYLINE
 8
TITLE
 66
1
 10
0.0
 20
0.0
 30
0.0
 0
VERTEX
 8
TITLE
 10
  9.5000
 20
  1.9000
 30
0.0
 0
VERTEX
 8
TITLE
 10
  9.6000
 20
  1.9000
 30
0.0
 0
SEQEND
 8
TITLE
 0
SOLID
 8
TITLE
 10
  0.0000
 20
  3.6000
 30
0.0
 11
 -0.0500
 21
  3.6200
 31
0.0
 12
 -0.0500
 22
  3.5800
 32
0.0
 13
 -0.0500
 23
  3.6000
 33
0.0
 0
SOLID
 8
TITLE
 10
  9.5000
 20
  3.6000
 30
0.0
 11
  9.5500
 21
  3.6200
 31
0.0
 12
  9.5500
 22
  3.5800
 32
0.0
 13
  9.5500
 23
  3.6000
 33
0.0
 0
TEXT
 8
TITLE
 10
 -0.0800
 20
  6.1500
 30
0.0
 40
  0.0500
 1
D
 0
TEXT
 8
TITLE
 10
  9.5200
 20
  6.1500
 30
0.0
 40
  0.0500
 1
D
 0
TEXT
 8
TITLE
 10
 -0.0800
 20
  4.4500
 30
0.0
 40
  0.0500
 1
C
 0
TEXT
 8
TITLE
 10
  9.5200
 20
  4.4500
 30
0.0
 40
  0.0500
 1
C
 0
TEXT
 8
TITLE
 10
 -0.0800
 20
  2.7500
 30
0.0
 40
  0.0500
 1
B
 0
TEXT
 8
TITLE
 10
  9.5200
 20
  2.7500
 30
0.0
 40
  0.0500
 1
B
 0
TEXT
 8
TITLE
 10
 -0.0800
 20
  1.0500
 30
0.0
 40
  0.0500
 1
A
 0
TEXT
 8
TITLE
 10
  9.5200
 20
  1.0500
 30
0.0
 40
  0.0500
 1
A
 0
TEXT
 8
TITLE
 10
  6.3000
 20
  0.4186
 30
0.0
 40
  0.0514
 1
<Doc>
 0
TEXT
 8
TITLE
 10
  9.3000
 20
  0.4186
 30
0.0
 40
  0.0514
 1
<RevCode>
 0
TEXT
 8
TITLE
 10
  6.3000
 20
  0.7186
 30
0.0
 40
  0.0514
 1
<Title>
 0
TEXT
 8
TITLE
 10
  6.0000
 20
  0.4186
 30
0.0
 40
  0.0514
 1
A
 0
TEXT
 8
TITLE
 10
  8.4000
 20
  0.2186
 30
0.0
 40
  0.0514
 1
1
 0
TEXT
 8
TITLE
 10
  9.0000
 20
  0.2186
 30
0.0
 40
  0.0514
 1
1
 0
TEXT
 8
TITLE
 10
  6.4200
 20
  0.2186
 30
0.0
 40
  0.0514
 1
Saturday, October 18, 2014
 0
TEXT
 8
PARTTEXT
 10
  5.9000
 20
  0.8186
 30
0.0
 40
  0.0514
 1
Title
 0
TEXT
 8
PARTTEXT
 10
  5.9000
 20
  0.5186
 30
0.0
 40
  0.0514
 1
Size
 0
TEXT
 8
PARTTEXT
 10
  6.3000
 20
  0.5186
 30
0.0
 40
  0.0514
 1
Document Number
 0
TEXT
 8
PARTTEXT
 10
  9.2000
 20
  0.5186
 30
0.0
 40
  0.0514
 1
Rev
 0
TEXT
 8
PARTTEXT
 10
  5.9000
 20
  0.2186
 30
0.0
 40
  0.0514
 1
Date:
 0
TEXT
 8
PARTTEXT
 10
  7.9000
 20
  0.2186
 30
0.0
 40
  0.0514
 1
Sheet
 0
POLYLINE
 8
TITLE
 66
1
 70
1
 10
0.0
 20
0.0
 30
0.0
 0
VERTEX
 8
TITLE
 10
  5.9000
 20
  1.1000
 30
0.0
 0
VERTEX
 8
TITLE
 10
  9.5000
 20
  1.1000
 30
0.0
 0
VERTEX
 8
TITLE
 10
  9.5000
 20
  0.9000
 30
0.0
 0
VERTEX
 8
TITLE
 10
  5.9000
 20
  0.9000
 30
0.0
 0
SEQEND
 8
TITLE
 0
POLYLINE
 8
TITLE
 66
1
 70
1
 10
0.0
 20
0.0
 30
0.0
 0
VERTEX
 8
TITLE
 10
  5.9000
 20
  0.9000
 30
0.0
 0
VERTEX
 8
TITLE
 10
  9.5000
 20
  0.9000
 30
0.0
 0
VERTEX
 8
TITLE
 10
  9.5000
 20
  0.6000
 30
0.0
 0
VERTEX
 8
TITLE
 10
  5.9000
 20
  0.6000
 30
0.0
 0
SEQEND
 8
TITLE
 0
POLYLINE
 8
TITLE
 66
1
 70
1
 10
0.0
 20
0.0
 30
0.0
 0
VERTEX
 8
TITLE
 10
  5.9000
 20
  0.6000
 30
0.0
 0
VERTEX
 8
TITLE
 10
  6.2000
 20
  0.6000
 30
0.0
 0
VERTEX
 8
TITLE
 10
  6.2000
 20
  0.3000
 30
0.0
 0
VERTEX
 8
TITLE
 10
  5.9000
 20
  0.3000
 30
0.0
 0
SEQEND
 8
TITLE
 0
POLYLINE
 8
TITLE
 66
1
 70
1
 10
0.0
 20
0.0
 30
0.0
 0
VERTEX
 8
TITLE
 10
  6.2000
 20
  0.6000
 30
0.0
 0
VERTEX
 8
TITLE
 10
  9.2000
 20
  0.6000
 30
0.0
 0
VERTEX
 8
TITLE
 10
  9.2000
 20
  0.3000
 30
0.0
 0
VERTEX
 8
TITLE
 10
  6.2000
 20
  0.3000
 30
0.0
 0
SEQEND
 8
TITLE
 0
POLYLINE
 8
TITLE
 66
1
 70
1
 10
0.0
 20
0.0
 30
0.0
 0
VERTEX
 8
TITLE
 10
  9.2000
 20
  0.6000
 30
0.0
 0
VERTEX
 8
TITLE
 10
  9.5000
 20
  0.6000
 30
0.0
 0
VERTEX
 8
TITLE
 10
  9.5000
 20
  0.3000
 30
0.0
 0
VERTEX
 8
TITLE
 10
  9.2000
 20
  0.3000
 30
0.0
 0
SEQEND
 8
TITLE
 0
POLYLINE
 8
TITLE
 66
1
 70
1
 10
0.0
 20
0.0
 30
0.0
 0
VERTEX
 8
TITLE
 10
  5.9000
 20
  0.3000
 30
0.0
 0
VERTEX
 8
TITLE
 10
  7.9000
 20
  0.3000
 30
0.0
 0
VERTEX
 8
TITLE
 10
  7.9000
 20
  0.2000
 30
0.0
 0
VERTEX
 8
TITLE
 10
  5.9000
 20
  0.2000
 30
0.0
 0
SEQEND
 8
TITLE
 0
POLYLINE
 8
TITLE
 66
1
 70
1
 10
0.0
 20
0.0
 30
0.0
 0
VERTEX
 8
TITLE
 10
  7.9000
 20
  0.3000
 30
0.0
 0
VERTEX
 8
TITLE
 10
  9.5000
 20
  0.3000
 30
0.0
 0
VERTEX
 8
TITLE
 10
  9.5000
 20
  0.2000
 30
0.0
 0
VERTEX
 8
TITLE
 10
  7.9000
 20
  0.2000
 30
0.0
 0
SEQEND
 8
TITLE
 0
TEXT
 8
PARTTEXT
 10
  8.7000
 20
  0.2186
 30
0.0
 40
  0.0514
 1
of
 0
TEXT
 8
PARTTEXT
 10
  4.8000
 20
  5.5586
 30
0.0
 40
  0.0514
 1
TP1
 0
TEXT
 8
PARTTEXT
 10
  4.8000
 20
  5.4386
 30
0.0
 40
  0.0514
 1
AGND
 0
LINE
 8
PARTS
 10
  4.9000
 20
  5.0000
 30
0.0
 11
  4.9000
 21
  5.3000
 31
0.0
 0
TEXT
 8
PARTS
 10
  4.8700
 20
  5.1800
 30
0.0
 40
  0.0500
 50
 90.0000
 1
1
 0
POLYLINE
 8
PARTS
 66
1
 70
1
 10
0.0
 20
0.0
 30
0.0
 0
VERTEX
 8
PARTS
 10
  4.8000
 20
  5.3000
 30
0.0
 0
VERTEX
 8
PARTS
 10
  4.8000
 20
  5.4000
 30
0.0
 0
VERTEX
 8
PARTS
 10
  5.0000
 20
  5.4000
 30
0.0
 0
VERTEX
 8
PARTS
 10
  5.0000
 20
  5.3000
 30
0.0
 0
SEQEND
 8
PARTS
 0
TEXT
 8
PARTTEXT
 10
  6.8000
 20
  5.5586
 30
0.0
 40
  0.0514
 1
TP5
 0
TEXT
 8
PARTTEXT
 10
  6.8000
 20
  5.4386
 30
0.0
 40
  0.0514
 1
AGND
 0
LINE
 8
PARTS
 10
  6.9000
 20
  5.0000
 30
0.0
 11
  6.9000
 21
  5.3000
 31
0.0
 0
TEXT
 8
PARTS
 10
  6.8700
 20
  5.1800
 30
0.0
 40
  0.0500
 50
 90.0000
 1
1
 0
POLYLINE
 8
PARTS
 66
1
 70
1
 10
0.0
 20
0.0
 30
0.0
 0
VERTEX
 8
PARTS
 10
  6.8000
 20
  5.3000
 30
0.0
 0
VERTEX
 8
PARTS
 10
  6.8000
 20
  5.4000
 30
0.0
 0
VERTEX
 8
PARTS
 10
  7.0000
 20
  5.4000
 30
0.0
 0
VERTEX
 8
PARTS
 10
  7.0000
 20
  5.3000
 30
0.0
 0
SEQEND
 8
PARTS
 0
TEXT
 8
PARTTEXT
 10
  1.3000
 20
  3.4586
 30
0.0
 40
  0.0514
 1
J2
 0
TEXT
 8
PARTTEXT
 10
  1.3000
 20
  3.3386
 30
0.0
 40
  0.0514
 1
HEADER 3
 0
LINE
 8
PARTS
 10
  1.5000
 20
  4.2000
 30
0.0
 11
  1.5000
 21
  3.9000
 31
0.0
 0
TEXT
 8
PARTS
 10
  1.4700
 20
  3.9600
 30
0.0
 40
  0.0500
 50
 90.0000
 1
1
 0
LINE
 8
PARTS
 10
  1.6000
 20
  4.2000
 30
0.0
 11
  1.6000
 21
  3.9000
 31
0.0
 0
TEXT
 8
PARTS
 10
  1.5700
 20
  3.9600
 30
0.0
 40
  0.0500
 50
 90.0000
 1
2
 0
LINE
 8
PARTS
 10
  1.7000
 20
  4.2000
 30
0.0
 11
  1.7000
 21
  3.9000
 31
0.0
 0
TEXT
 8
PARTS
 10
  1.6700
 20
  3.9600
 30
0.0
 40
  0.0500
 50
 90.0000
 1
3
 0
POLYLINE
 8
PARTS
 66
1
 70
1
 10
0.0
 20
0.0
 30
0.0
 0
VERTEX
 8
PARTS
 10
  1.4000
 20
  3.6000
 30
0.0
 0
VERTEX
 8
PARTS
 10
  1.4000
 20
  3.9000
 30
0.0
 0
VERTEX
 8
PARTS
 10
  1.8000
 20
  3.9000
 30
0.0
 0
VERTEX
 8
PARTS
 10
  1.8000
 20
  3.6000
 30
0.0
 0
SEQEND
 8
PARTS
 0
POLYLINE
 8
PARTS
 66
1
 10
0.0
 20
0.0
 30
0.0
 0
VERTEX
 8
PARTS
 10
  1.4000
 20
  3.8000
 30
0.0
 0
VERTEX
 8
PARTS
 10
  1.4000
 20
  3.8100
 30
0.0
 0
VERTEX
 8
PARTS
 10
  1.3500
 20
  3.8100
 30
0.0
 0
VERTEX
 8
PARTS
 10
  1.3500
 20
  3.6900
 30
0.0
 0
VERTEX
 8
PARTS
 10
  1.4000
 20
  3.6900
 30
0.0
 0
SEQEND
 8
PARTS
 0
POLYLINE
 8
PARTS
 66
1
 10
0.0
 20
0.0
 30
0.0
 0
VERTEX
 8
PARTS
 10
  1.8000
 20
  3.7000
 30
0.0
 0
VERTEX
 8
PARTS
 10
  1.8000
 20
  3.6900
 30
0.0
 0
VERTEX
 8
PARTS
 10
  1.8500
 20
  3.6900
 30
0.0
 0
VERTEX
 8
PARTS
 10
  1.8500
 20
  3.8100
 30
0.0
 0
VERTEX
 8
PARTS
 10
  1.8000
 20
  3.8100
 30
0.0
 0
SEQEND
 8
PARTS
 0
TEXT
 8
PARTTEXT
 10
  3.2000
 20
  4.8586
 30
0.0
 40
  0.0514
 1
J3
 0
TEXT
 8
PARTTEXT
 10
  3.2000
 20
  4.7386
 30
0.0
 40
  0.0514
 1
HEADER 3
 0
LINE
 8
PARTS
 10
  3.4000
 20
  5.6000
 30
0.0
 11
  3.4000
 21
  5.3000
 31
0.0
 0
TEXT
 8
PARTS
 10
  3.3700
 20
  5.3600
 30
0.0
 40
  0.0500
 50
 90.0000
 1
1
 0
LINE
 8
PARTS
 10
  3.5000
 20
  5.6000
 30
0.0
 11
  3.5000
 21
  5.3000
 31
0.0
 0
TEXT
 8
PARTS
 10
  3.4700
 20
  5.3600
 30
0.0
 40
  0.0500
 50
 90.0000
 1
2
 0
LINE
 8
PARTS
 10
  3.6000
 20
  5.6000
 30
0.0
 11
  3.6000
 21
  5.3000
 31
0.0
 0
TEXT
 8
PARTS
 10
  3.5700
 20
  5.3600
 30
0.0
 40
  0.0500
 50
 90.0000
 1
3
 0
POLYLINE
 8
PARTS
 66
1
 70
1
 10
0.0
 20
0.0
 30
0.0
 0
VERTEX
 8
PARTS
 10
  3.3000
 20
  5.0000
 30
0.0
 0
VERTEX
 8
PARTS
 10
  3.3000
 20
  5.3000
 30
0.0
 0
VERTEX
 8
PARTS
 10
  3.7000
 20
  5.3000
 30
0.0
 0
VERTEX
 8
PARTS
 10
  3.7000
 20
  5.0000
 30
0.0
 0
SEQEND
 8
PARTS
 0
POLYLINE
 8
PARTS
 66
1
 10
0.0
 20
0.0
 30
0.0
 0
VERTEX
 8
PARTS
 10
  3.3000
 20
  5.2000
 30
0.0
 0
VERTEX
 8
PARTS
 10
  3.3000
 20
  5.2100
 30
0.0
 0
VERTEX
 8
PARTS
 10
  3.2500
 20
  5.2100
 30
0.0
 0
VERTEX
 8
PARTS
 10
  3.2500
 20
  5.0900
 30
0.0
 0
VERTEX
 8
PARTS
 10
  3.3000
 20
  5.0900
 30
0.0
 0
SEQEND
 8
PARTS
 0
POLYLINE
 8
PARTS
 66
1
 10
0.0
 20
0.0
 30
0.0
 0
VERTEX
 8
PARTS
 10
  3.7000
 20
  5.1000
 30
0.0
 0
VERTEX
 8
PARTS
 10
  3.7000
 20
  5.0900
 30
0.0
 0
VERTEX
 8
PARTS
 10
  3.7500
 20
  5.0900
 30
0.0
 0
VERTEX
 8
PARTS
 10
  3.7500
 20
  5.2100
 30
0.0
 0
VERTEX
 8
PARTS
 10
  3.7000
 20
  5.2100
 30
0.0
 0
SEQEND
 8
PARTS
 0
TEXT
 8
PARTTEXT
 10
  5.3000
 20
  5.5586
 30
0.0
 40
  0.0514
 1
TP2
 0
TEXT
 8
PARTTEXT
 10
  5.3000
 20
  5.4386
 30
0.0
 40
  0.0514
 1
AGND
 0
LINE
 8
PARTS
 10
  5.4000
 20
  5.0000
 30
0.0
 11
  5.4000
 21
  5.3000
 31
0.0
 0
TEXT
 8
PARTS
 10
  5.3700
 20
  5.1800
 30
0.0
 40
  0.0500
 50
 90.0000
 1
1
 0
POLYLINE
 8
PARTS
 66
1
 70
1
 10
0.0
 20
0.0
 30
0.0
 0
VERTEX
 8
PARTS
 10
  5.3000
 20
  5.3000
 30
0.0
 0
VERTEX
 8
PARTS
 10
  5.3000
 20
  5.4000
 30
0.0
 0
VERTEX
 8
PARTS
 10
  5.5000
 20
  5.4000
 30
0.0
 0
VERTEX
 8
PARTS
 10
  5.5000
 20
  5.3000
 30
0.0
 0
SEQEND
 8
PARTS
 0
TEXT
 8
PARTTEXT
 10
  4.8000
 20
  4.3586
 30
0.0
 40
  0.0514
 1
TP6
 0
TEXT
 8
PARTTEXT
 10
  4.8000
 20
  4.2386
 30
0.0
 40
  0.0514
 1
AGND
 0
LINE
 8
PARTS
 10
  4.9000
 20
  3.8000
 30
0.0
 11
  4.9000
 21
  4.1000
 31
0.0
 0
TEXT
 8
PARTS
 10
  4.8700
 20
  3.9800
 30
0.0
 40
  0.0500
 50
 90.0000
 1
1
 0
POLYLINE
 8
PARTS
 66
1
 70
1
 10
0.0
 20
0.0
 30
0.0
 0
VERTEX
 8
PARTS
 10
  4.8000
 20
  4.1000
 30
0.0
 0
VERTEX
 8
PARTS
 10
  4.8000
 20
  4.2000
 30
0.0
 0
VERTEX
 8
PARTS
 10
  5.0000
 20
  4.2000
 30
0.0
 0
VERTEX
 8
PARTS
 10
  5.0000
 20
  4.1000
 30
0.0
 0
SEQEND
 8
PARTS
 0
TEXT
 8
PARTTEXT
 10
  3.2000
 20
  3.4586
 30
0.0
 40
  0.0514
 1
J4
 0
TEXT
 8
PARTTEXT
 10
  3.2000
 20
  3.3386
 30
0.0
 40
  0.0514
 1
HEADER 3
 0
LINE
 8
PARTS
 10
  3.4000
 20
  4.2000
 30
0.0
 11
  3.4000
 21
  3.9000
 31
0.0
 0
TEXT
 8
PARTS
 10
  3.3700
 20
  3.9600
 30
0.0
 40
  0.0500
 50
 90.0000
 1
1
 0
LINE
 8
PARTS
 10
  3.5000
 20
  4.2000
 30
0.0
 11
  3.5000
 21
  3.9000
 31
0.0
 0
TEXT
 8
PARTS
 10
  3.4700
 20
  3.9600
 30
0.0
 40
  0.0500
 50
 90.0000
 1
2
 0
LINE
 8
PARTS
 10
  3.6000
 20
  4.2000
 30
0.0
 11
  3.6000
 21
  3.9000
 31
0.0
 0
TEXT
 8
PARTS
 10
  3.5700
 20
  3.9600
 30
0.0
 40
  0.0500
 50
 90.0000
 1
3
 0
POLYLINE
 8
PARTS
 66
1
 70
1
 10
0.0
 20
0.0
 30
0.0
 0
VERTEX
 8
PARTS
 10
  3.3000
 20
  3.6000
 30
0.0
 0
VERTEX
 8
PARTS
 10
  3.3000
 20
  3.9000
 30
0.0
 0
VERTEX
 8
PARTS
 10
  3.7000
 20
  3.9000
 30
0.0
 0
VERTEX
 8
PARTS
 10
  3.7000
 20
  3.6000
 30
0.0
 0
SEQEND
 8
PARTS
 0
POLYLINE
 8
PARTS
 66
1
 10
0.0
 20
0.0
 30
0.0
 0
VERTEX
 8
PARTS
 10
  3.3000
 20
  3.8000
 30
0.0
 0
VERTEX
 8
PARTS
 10
  3.3000
 20
  3.8100
 30
0.0
 0
VERTEX
 8
PARTS
 10
  3.2500
 20
  3.8100
 30
0.0
 0
VERTEX
 8
PARTS
 10
  3.2500
 20
  3.6900
 30
0.0
 0
VERTEX
 8
PARTS
 10
  3.3000
 20
  3.6900
 30
0.0
 0
SEQEND
 8
PARTS
 0
POLYLINE
 8
PARTS
 66
1
 10
0.0
 20
0.0
 30
0.0
 0
VERTEX
 8
PARTS
 10
  3.7000
 20
  3.7000
 30
0.0
 0
VERTEX
 8
PARTS
 10
  3.7000
 20
  3.6900
 30
0.0
 0
VERTEX
 8
PARTS
 10
  3.7500
 20
  3.6900
 30
0.0
 0
VERTEX
 8
PARTS
 10
  3.7500
 20
  3.8100
 30
0.0
 0
VERTEX
 8
PARTS
 10
  3.7000
 20
  3.8100
 30
0.0
 0
SEQEND
 8
PARTS
 0
TEXT
 8
PARTTEXT
 10
  5.3000
 20
  4.3586
 30
0.0
 40
  0.0514
 1
TP7
 0
TEXT
 8
PARTTEXT
 10
  5.3000
 20
  4.2386
 30
0.0
 40
  0.0514
 1
AGND
 0
LINE
 8
PARTS
 10
  5.4000
 20
  3.8000
 30
0.0
 11
  5.4000
 21
  4.1000
 31
0.0
 0
TEXT
 8
PARTS
 10
  5.3700
 20
  3.9800
 30
0.0
 40
  0.0500
 50
 90.0000
 1
1
 0
POLYLINE
 8
PARTS
 66
1
 70
1
 10
0.0
 20
0.0
 30
0.0
 0
VERTEX
 8
PARTS
 10
  5.3000
 20
  4.1000
 30
0.0
 0
VERTEX
 8
PARTS
 10
  5.3000
 20
  4.2000
 30
0.0
 0
VERTEX
 8
PARTS
 10
  5.5000
 20
  4.2000
 30
0.0
 0
VERTEX
 8
PARTS
 10
  5.5000
 20
  4.1000
 30
0.0
 0
SEQEND
 8
PARTS
 0
TEXT
 8
PARTTEXT
 10
  5.8000
 20
  5.5586
 30
0.0
 40
  0.0514
 1
TP3
 0
TEXT
 8
PARTTEXT
 10
  5.8000
 20
  5.4386
 30
0.0
 40
  0.0514
 1
AGND
 0
LINE
 8
PARTS
 10
  5.9000
 20
  5.0000
 30
0.0
 11
  5.9000
 21
  5.3000
 31
0.0
 0
TEXT
 8
PARTS
 10
  5.8700
 20
  5.1800
 30
0.0
 40
  0.0500
 50
 90.0000
 1
1
 0
POLYLINE
 8
PARTS
 66
1
 70
1
 10
0.0
 20
0.0
 30
0.0
 0
VERTEX
 8
PARTS
 10
  5.8000
 20
  5.3000
 30
0.0
 0
VERTEX
 8
PARTS
 10
  5.8000
 20
  5.4000
 30
0.0
 0
VERTEX
 8
PARTS
 10
  6.0000
 20
  5.4000
 30
0.0
 0
VERTEX
 8
PARTS
 10
  6.0000
 20
  5.3000
 30
0.0
 0
SEQEND
 8
PARTS
 0
TEXT
 8
PARTTEXT
 10
  5.8000
 20
  4.3586
 30
0.0
 40
  0.0514
 1
TP8
 0
TEXT
 8
PARTTEXT
 10
  5.8000
 20
  4.2386
 30
0.0
 40
  0.0514
 1
AGND
 0
LINE
 8
PARTS
 10
  5.9000
 20
  3.8000
 30
0.0
 11
  5.9000
 21
  4.1000
 31
0.0
 0
TEXT
 8
PARTS
 10
  5.8700
 20
  3.9800
 30
0.0
 40
  0.0500
 50
 90.0000
 1
1
 0
POLYLINE
 8
PARTS
 66
1
 70
1
 10
0.0
 20
0.0
 30
0.0
 0
VERTEX
 8
PARTS
 10
  5.8000
 20
  4.1000
 30
0.0
 0
VERTEX
 8
PARTS
 10
  5.8000
 20
  4.2000
 30
0.0
 0
VERTEX
 8
PARTS
 10
  6.0000
 20
  4.2000
 30
0.0
 0
VERTEX
 8
PARTS
 10
  6.0000
 20
  4.1000
 30
0.0
 0
SEQEND
 8
PARTS
 0
TEXT
 8
PARTTEXT
 10
  6.3000
 20
  4.3586
 30
0.0
 40
  0.0514
 1
TP9
 0
TEXT
 8
PARTTEXT
 10
  6.3000
 20
  4.2386
 30
0.0
 40
  0.0514
 1
AGND
 0
LINE
 8
PARTS
 10
  6.4000
 20
  3.8000
 30
0.0
 11
  6.4000
 21
  4.1000
 31
0.0
 0
TEXT
 8
PARTS
 10
  6.3700
 20
  3.9800
 30
0.0
 40
  0.0500
 50
 90.0000
 1
1
 0
POLYLINE
 8
PARTS
 66
1
 70
1
 10
0.0
 20
0.0
 30
0.0
 0
VERTEX
 8
PARTS
 10
  6.3000
 20
  4.1000
 30
0.0
 0
VERTEX
 8
PARTS
 10
  6.3000
 20
  4.2000
 30
0.0
 0
VERTEX
 8
PARTS
 10
  6.5000
 20
  4.2000
 30
0.0
 0
VERTEX
 8
PARTS
 10
  6.5000
 20
  4.1000
 30
0.0
 0
SEQEND
 8
PARTS
 0
TEXT
 8
PARTTEXT
 10
  6.3000
 20
  5.5586
 30
0.0
 40
  0.0514
 1
TP4
 0
TEXT
 8
PARTTEXT
 10
  6.3000
 20
  5.4386
 30
0.0
 40
  0.0514
 1
AGND
 0
LINE
 8
PARTS
 10
  6.4000
 20
  5.0000
 30
0.0
 11
  6.4000
 21
  5.3000
 31
0.0
 0
TEXT
 8
PARTS
 10
  6.3700
 20
  5.1800
 30
0.0
 40
  0.0500
 50
 90.0000
 1
1
 0
POLYLINE
 8
PARTS
 66
1
 70
1
 10
0.0
 20
0.0
 30
0.0
 0
VERTEX
 8
PARTS
 10
  6.3000
 20
  5.3000
 30
0.0
 0
VERTEX
 8
PARTS
 10
  6.3000
 20
  5.4000
 30
0.0
 0
VERTEX
 8
PARTS
 10
  6.5000
 20
  5.4000
 30
0.0
 0
VERTEX
 8
PARTS
 10
  6.5000
 20
  5.3000
 30
0.0
 0
SEQEND
 8
PARTS
 0
TEXT
 8
PARTTEXT
 10
  1.3000
 20
  4.8586
 30
0.0
 40
  0.0514
 1
J1
 0
TEXT
 8
PARTTEXT
 10
  1.3000
 20
  4.7386
 30
0.0
 40
  0.0514
 1
HEADER 3
 0
LINE
 8
PARTS
 10
  1.5000
 20
  5.6000
 30
0.0
 11
  1.5000
 21
  5.3000
 31
0.0
 0
TEXT
 8
PARTS
 10
  1.4700
 20
  5.3600
 30
0.0
 40
  0.0500
 50
 90.0000
 1
1
 0
LINE
 8
PARTS
 10
  1.6000
 20
  5.6000
 30
0.0
 11
  1.6000
 21
  5.3000
 31
0.0
 0
TEXT
 8
PARTS
 10
  1.5700
 20
  5.3600
 30
0.0
 40
  0.0500
 50
 90.0000
 1
2
 0
LINE
 8
PARTS
 10
  1.7000
 20
  5.6000
 30
0.0
 11
  1.7000
 21
  5.3000
 31
0.0
 0
TEXT
 8
PARTS
 10
  1.6700
 20
  5.3600
 30
0.0
 40
  0.0500
 50
 90.0000
 1
3
 0
POLYLINE
 8
PARTS
 66
1
 70
1
 10
0.0
 20
0.0
 30
0.0
 0
VERTEX
 8
PARTS
 10
  1.4000
 20
  5.0000
 30
0.0
 0
VERTEX
 8
PARTS
 10
  1.4000
 20
  5.3000
 30
0.0
 0
VERTEX
 8
PARTS
 10
  1.8000
 20
  5.3000
 30
0.0
 0
VERTEX
 8
PARTS
 10
  1.8000
 20
  5.0000
 30
0.0
 0
SEQEND
 8
PARTS
 0
POLYLINE
 8
PARTS
 66
1
 10
0.0
 20
0.0
 30
0.0
 0
VERTEX
 8
PARTS
 10
  1.4000
 20
  5.2000
 30
0.0
 0
VERTEX
 8
PARTS
 10
  1.4000
 20
  5.2100
 30
0.0
 0
VERTEX
 8
PARTS
 10
  1.3500
 20
  5.2100
 30
0.0
 0
VERTEX
 8
PARTS
 10
  1.3500
 20
  5.0900
 30
0.0
 0
VERTEX
 8
PARTS
 10
  1.4000
 20
  5.0900
 30
0.0
 0
SEQEND
 8
PARTS
 0
POLYLINE
 8
PARTS
 66
1
 10
0.0
 20
0.0
 30
0.0
 0
VERTEX
 8
PARTS
 10
  1.8000
 20
  5.1000
 30
0.0
 0
VERTEX
 8
PARTS
 10
  1.8000
 20
  5.0900
 30
0.0
 0
VERTEX
 8
PARTS
 10
  1.8500
 20
  5.0900
 30
0.0
 0
VERTEX
 8
PARTS
 10
  1.8500
 20
  5.2100
 30
0.0
 0
VERTEX
 8
PARTS
 10
  1.8000
 20
  5.2100
 30
0.0
 0
SEQEND
 8
PARTS
 0
TEXT
 8
PARTTEXT
 10
  6.8000
 20
  4.3586
 30
0.0
 40
  0.0514
 1
TP10
 0
TEXT
 8
PARTTEXT
 10
  6.8000
 20
  4.2386
 30
0.0
 40
  0.0514
 1
AGND
 0
LINE
 8
PARTS
 10
  6.9000
 20
  3.8000
 30
0.0
 11
  6.9000
 21
  4.1000
 31
0.0
 0
TEXT
 8
PARTS
 10
  6.8700
 20
  3.9800
 30
0.0
 40
  0.0500
 50
 90.0000
 1
1
 0
POLYLINE
 8
PARTS
 66
1
 70
1
 10
0.0
 20
0.0
 30
0.0
 0
VERTEX
 8
PARTS
 10
  6.8000
 20
  4.1000
 30
0.0
 0
VERTEX
 8
PARTS
 10
  6.8000
 20
  4.2000
 30
0.0
 0
VERTEX
 8
PARTS
 10
  7.0000
 20
  4.2000
 30
0.0
 0
VERTEX
 8
PARTS
 10
  7.0000
 20
  4.1000
 30
0.0
 0
SEQEND
 8
PARTS
 0
POLYLINE
 8
WIRE
 66
1
 10
0.0
 20
0.0
 30
0.0
 0
VERTEX
 8
WIRE
 10
  1.7000
 20
  5.6000
 30
0.0
 0
VERTEX
 8
WIRE
 10
  2.1000
 20
  5.6000
 30
0.0
 0
SEQEND
 8
WIRE
 0
TEXT
 8
WIRETEXT
 10
  1.7000
 20
  5.6300
 30
0.0
 40
  0.0514
 1
MISO_ISO
 0
POLYLINE
 8
WIRE
 66
1
 10
0.0
 20
0.0
 30
0.0
 0
VERTEX
 8
WIRE
 10
  1.6000
 20
  5.6000
 30
0.0
 0
VERTEX
 8
WIRE
 10
  1.6000
 20
  5.9000
 30
0.0
 0
SEQEND
 8
WIRE
 0
TEXT
 8
WIRETEXT
 10
  1.5700
 20
  5.6000
 30
0.0
 40
  0.0514
 50
 90.0000
 1
MISO_HSD_ISO
 0
POLYLINE
 8
WIRE
 66
1
 10
0.0
 20
0.0
 30
0.0
 0
VERTEX
 8
WIRE
 10
  1.5000
 20
  5.6000
 30
0.0
 0
VERTEX
 8
WIRE
 10
  1.0000
 20
  5.6000
 30
0.0
 0
SEQEND
 8
WIRE
 0
TEXT
 8
WIRETEXT
 10
  1.0000
 20
  5.6300
 30
0.0
 40
  0.0514
 1
HSD_ISO
 0
POLYLINE
 8
WIRE
 66
1
 10
0.0
 20
0.0
 30
0.0
 0
VERTEX
 8
WIRE
 10
  3.6000
 20
  5.6000
 30
0.0
 0
VERTEX
 8
WIRE
 10
  4.0000
 20
  5.6000
 30
0.0
 0
SEQEND
 8
WIRE
 0
TEXT
 8
WIRETEXT
 10
  3.7000
 20
  5.6300
 30
0.0
 40
  0.0514
 1
SCLK
 0
POLYLINE
 8
WIRE
 66
1
 10
0.0
 20
0.0
 30
0.0
 0
VERTEX
 8
WIRE
 10
  3.5000
 20
  5.6000
 30
0.0
 0
VERTEX
 8
WIRE
 10
  3.5000
 20
  5.9000
 30
0.0
 0
SEQEND
 8
WIRE
 0
TEXT
 8
WIRETEXT
 10
  3.4700
 20
  5.6000
 30
0.0
 40
  0.0514
 50
 90.0000
 1
SCLK/SCL
 0
POLYLINE
 8
WIRE
 66
1
 10
0.0
 20
0.0
 30
0.0
 0
VERTEX
 8
WIRE
 10
  3.4000
 20
  5.6000
 30
0.0
 0
VERTEX
 8
WIRE
 10
  3.0000
 20
  5.6000
 30
0.0
 0
SEQEND
 8
WIRE
 0
TEXT
 8
WIRETEXT
 10
  3.1000
 20
  5.6300
 30
0.0
 40
  0.0514
 1
SCL
 0
POLYLINE
 8
WIRE
 66
1
 10
0.0
 20
0.0
 30
0.0
 0
VERTEX
 8
WIRE
 10
  3.6000
 20
  4.2000
 30
0.0
 0
VERTEX
 8
WIRE
 10
  4.0000
 20
  4.2000
 30
0.0
 0
SEQEND
 8
WIRE
 0
TEXT
 8
WIRETEXT
 10
  3.7000
 20
  4.2300
 30
0.0
 40
  0.0514
 1
~SS
 0
POLYLINE
 8
WIRE
 66
1
 10
0.0
 20
0.0
 30
0.0
 0
VERTEX
 8
WIRE
 10
  3.5000
 20
  4.2000
 30
0.0
 0
VERTEX
 8
WIRE
 10
  3.5000
 20
  4.5000
 30
0.0
 0
SEQEND
 8
WIRE
 0
TEXT
 8
WIRETEXT
 10
  3.4700
 20
  4.2000
 30
0.0
 40
  0.0514
 50
 90.0000
 1
~SS/HSA
 0
POLYLINE
 8
WIRE
 66
1
 10
0.0
 20
0.0
 30
0.0
 0
VERTEX
 8
WIRE
 10
  3.4000
 20
  4.2000
 30
0.0
 0
VERTEX
 8
WIRE
 10
  2.9000
 20
  4.2000
 30
0.0
 0
SEQEND
 8
WIRE
 0
TEXT
 8
WIRETEXT
 10
  2.9000
 20
  4.2300
 30
0.0
 40
  0.0514
 1
HSACTIVE
 0
POLYLINE
 8
WIRE
 66
1
 10
0.0
 20
0.0
 30
0.0
 0
VERTEX
 8
WIRE
 10
  1.7000
 20
  4.2000
 30
0.0
 0
VERTEX
 8
WIRE
 10
  2.1000
 20
  4.2000
 30
0.0
 0
SEQEND
 8
WIRE
 0
TEXT
 8
WIRETEXT
 10
  1.8000
 20
  4.2300
 30
0.0
 40
  0.0514
 1
MOSI
 0
POLYLINE
 8
WIRE
 66
1
 10
0.0
 20
0.0
 30
0.0
 0
VERTEX
 8
WIRE
 10
  1.6000
 20
  4.2000
 30
0.0
 0
VERTEX
 8
WIRE
 10
  1.6000
 20
  4.5000
 30
0.0
 0
SEQEND
 8
WIRE
 0
TEXT
 8
WIRETEXT
 10
  1.5700
 20
  4.2000
 30
0.0
 40
  0.0514
 50
 90.0000
 1
MOSI/SDA
 0
POLYLINE
 8
WIRE
 66
1
 10
0.0
 20
0.0
 30
0.0
 0
VERTEX
 8
WIRE
 10
  1.5000
 20
  4.2000
 30
0.0
 0
VERTEX
 8
WIRE
 10
  1.0000
 20
  4.2000
 30
0.0
 0
SEQEND
 8
WIRE
 0
TEXT
 8
WIRETEXT
 10
  1.1000
 20
  4.2300
 30
0.0
 40
  0.0514
 1
SDA
 0
POLYLINE
 8
WIRE
 66
1
 10
0.0
 20
0.0
 30
0.0
 0
VERTEX
 8
WIRE
 10
  4.9000
 20
  5.0000
 30
0.0
 0
VERTEX
 8
WIRE
 10
  4.9000
 20
  4.9000
 30
0.0
 0
SEQEND
 8
WIRE
 0
POLYLINE
 8
WIRE
 66
1
 10
0.0
 20
0.0
 30
0.0
 0
VERTEX
 8
WIRE
 10
  4.9000
 20
  4.9000
 30
0.0
 0
VERTEX
 8
WIRE
 10
  5.4000
 20
  4.9000
 30
0.0
 0
SEQEND
 8
WIRE
 0
POLYLINE
 8
WIRE
 66
1
 70
1
 10
0.0
 20
0.0
 30
0.0
 40
  0.0200
 41
  0.0200
 0
VERTEX
 8
WIRE
 10
  5.3900
 20
  4.9000
 30
0.0
 42
1.0
 0
VERTEX
 8
WIRE
 10
  5.4100
 20
  4.9000
 30
0.0
 42
1.0
 0
SEQEND
 8
WIRE
 0
POLYLINE
 8
WIRE
 66
1
 10
0.0
 20
0.0
 30
0.0
 0
VERTEX
 8
WIRE
 10
  5.9000
 20
  4.9000
 30
0.0
 0
VERTEX
 8
WIRE
 10
  5.9000
 20
  4.8000
 30
0.0
 0
SEQEND
 8
WIRE
 0
POLYLINE
 8
WIRE
 66
1
 10
0.0
 20
0.0
 30
0.0
 0
VERTEX
 8
WIRE
 10
  5.9000
 20
  5.0000
 30
0.0
 0
VERTEX
 8
WIRE
 10
  5.9000
 20
  4.9000
 30
0.0
 0
SEQEND
 8
WIRE
 0
POLYLINE
 8
WIRE
 66
1
 10
0.0
 20
0.0
 30
0.0
 0
VERTEX
 8
WIRE
 10
  5.4000
 20
  5.0000
 30
0.0
 0
VERTEX
 8
WIRE
 10
  5.4000
 20
  4.9000
 30
0.0
 0
SEQEND
 8
WIRE
 0
POLYLINE
 8
WIRE
 66
1
 10
0.0
 20
0.0
 30
0.0
 0
VERTEX
 8
WIRE
 10
  5.4000
 20
  4.9000
 30
0.0
 0
VERTEX
 8
WIRE
 10
  5.9000
 20
  4.9000
 30
0.0
 0
SEQEND
 8
WIRE
 0
POLYLINE
 8
WIRE
 66
1
 70
1
 10
0.0
 20
0.0
 30
0.0
 40
  0.0200
 41
  0.0200
 0
VERTEX
 8
WIRE
 10
  5.8900
 20
  4.9000
 30
0.0
 42
1.0
 0
VERTEX
 8
WIRE
 10
  5.9100
 20
  4.9000
 30
0.0
 42
1.0
 0
SEQEND
 8
WIRE
 0
POLYLINE
 8
WIRE
 66
1
 10
0.0
 20
0.0
 30
0.0
 0
VERTEX
 8
WIRE
 10
  6.4000
 20
  5.0000
 30
0.0
 0
VERTEX
 8
WIRE
 10
  6.4000
 20
  4.9000
 30
0.0
 0
SEQEND
 8
WIRE
 0
POLYLINE
 8
WIRE
 66
1
 10
0.0
 20
0.0
 30
0.0
 0
VERTEX
 8
WIRE
 10
  6.4000
 20
  4.9000
 30
0.0
 0
VERTEX
 8
WIRE
 10
  5.9000
 20
  4.9000
 30
0.0
 0
SEQEND
 8
WIRE
 0
POLYLINE
 8
WIRE
 66
1
 70
1
 10
0.0
 20
0.0
 30
0.0
 40
  0.0200
 41
  0.0200
 0
VERTEX
 8
WIRE
 10
  6.3900
 20
  4.9000
 30
0.0
 42
1.0
 0
VERTEX
 8
WIRE
 10
  6.4100
 20
  4.9000
 30
0.0
 42
1.0
 0
SEQEND
 8
WIRE
 0
POLYLINE
 8
WIRE
 66
1
 10
0.0
 20
0.0
 30
0.0
 0
VERTEX
 8
WIRE
 10
  6.9000
 20
  5.0000
 30
0.0
 0
VERTEX
 8
WIRE
 10
  6.9000
 20
  4.9000
 30
0.0
 0
SEQEND
 8
WIRE
 0
POLYLINE
 8
WIRE
 66
1
 10
0.0
 20
0.0
 30
0.0
 0
VERTEX
 8
WIRE
 10
  6.9000
 20
  4.9000
 30
0.0
 0
VERTEX
 8
WIRE
 10
  6.4000
 20
  4.9000
 30
0.0
 0
SEQEND
 8
WIRE
 0
POLYLINE
 8
WIRE
 66
1
 10
0.0
 20
0.0
 30
0.0
 0
VERTEX
 8
WIRE
 10
  5.4000
 20
  3.8000
 30
0.0
 0
VERTEX
 8
WIRE
 10
  5.4000
 20
  3.7000
 30
0.0
 0
SEQEND
 8
WIRE
 0
POLYLINE
 8
WIRE
 66
1
 10
0.0
 20
0.0
 30
0.0
 0
VERTEX
 8
WIRE
 10
  5.4000
 20
  3.7000
 30
0.0
 0
VERTEX
 8
WIRE
 10
  5.9000
 20
  3.7000
 30
0.0
 0
SEQEND
 8
WIRE
 0
POLYLINE
 8
WIRE
 66
1
 70
1
 10
0.0
 20
0.0
 30
0.0
 40
  0.0200
 41
  0.0200
 0
VERTEX
 8
WIRE
 10
  5.8900
 20
  3.7000
 30
0.0
 42
1.0
 0
VERTEX
 8
WIRE
 10
  5.9100
 20
  3.7000
 30
0.0
 42
1.0
 0
SEQEND
 8
WIRE
 0
POLYLINE
 8
WIRE
 66
1
 10
0.0
 20
0.0
 30
0.0
 0
VERTEX
 8
WIRE
 10
  6.4000
 20
  3.8000
 30
0.0
 0
VERTEX
 8
WIRE
 10
  6.4000
 20
  3.7000
 30
0.0
 0
SEQEND
 8
WIRE
 0
POLYLINE
 8
WIRE
 66
1
 10
0.0
 20
0.0
 30
0.0
 0
VERTEX
 8
WIRE
 10
  6.4000
 20
  3.7000
 30
0.0
 0
VERTEX
 8
WIRE
 10
  5.9000
 20
  3.7000
 30
0.0
 0
SEQEND
 8
WIRE
 0
POLYLINE
 8
WIRE
 66
1
 70
1
 10
0.0
 20
0.0
 30
0.0
 40
  0.0200
 41
  0.0200
 0
VERTEX
 8
WIRE
 10
  6.3900
 20
  3.7000
 30
0.0
 42
1.0
 0
VERTEX
 8
WIRE
 10
  6.4100
 20
  3.7000
 30
0.0
 42
1.0
 0
SEQEND
 8
WIRE
 0
POLYLINE
 8
WIRE
 66
1
 10
0.0
 20
0.0
 30
0.0
 0
VERTEX
 8
WIRE
 10
  6.9000
 20
  3.8000
 30
0.0
 0
VERTEX
 8
WIRE
 10
  6.9000
 20
  3.7000
 30
0.0
 0
SEQEND
 8
WIRE
 0
POLYLINE
 8
WIRE
 66
1
 10
0.0
 20
0.0
 30
0.0
 0
VERTEX
 8
WIRE
 10
  6.9000
 20
  3.7000
 30
0.0
 0
VERTEX
 8
WIRE
 10
  6.4000
 20
  3.7000
 30
0.0
 0
SEQEND
 8
WIRE
 0
POLYLINE
 8
WIRE
 66
1
 10
0.0
 20
0.0
 30
0.0
 0
VERTEX
 8
WIRE
 10
  4.9000
 20
  3.8000
 30
0.0
 0
VERTEX
 8
WIRE
 10
  4.9000
 20
  3.7000
 30
0.0
 0
SEQEND
 8
WIRE
 0
POLYLINE
 8
WIRE
 66
1
 10
0.0
 20
0.0
 30
0.0
 0
VERTEX
 8
WIRE
 10
  4.9000
 20
  3.7000
 30
0.0
 0
VERTEX
 8
WIRE
 10
  5.4000
 20
  3.7000
 30
0.0
 0
SEQEND
 8
WIRE
 0
POLYLINE
 8
WIRE
 66
1
 70
1
 10
0.0
 20
0.0
 30
0.0
 40
  0.0200
 41
  0.0200
 0
VERTEX
 8
WIRE
 10
  5.3900
 20
  3.7000
 30
0.0
 42
1.0
 0
VERTEX
 8
WIRE
 10
  5.4100
 20
  3.7000
 30
0.0
 42
1.0
 0
SEQEND
 8
WIRE
 0
POLYLINE
 8
WIRE
 66
1
 10
0.0
 20
0.0
 30
0.0
 0
VERTEX
 8
WIRE
 10
  5.9000
 20
  3.7000
 30
0.0
 0
VERTEX
 8
WIRE
 10
  5.9000
 20
  3.6000
 30
0.0
 0
SEQEND
 8
WIRE
 0
POLYLINE
 8
WIRE
 66
1
 10
0.0
 20
0.0
 30
0.0
 0
VERTEX
 8
WIRE
 10
  5.9000
 20
  3.8000
 30
0.0
 0
VERTEX
 8
WIRE
 10
  5.9000
 20
  3.7000
 30
0.0
 0
SEQEND
 8
WIRE
 0
POLYLINE
 8
PARTS
 66
1
 10
0.0
 20
0.0
 30
0.0
 0
VERTEX
 8
PARTS
 10
  5.8000
 20
  4.8000
 30
0.0
 0
VERTEX
 8
PARTS
 10
  6.0000
 20
  4.8000
 30
0.0
 0
SEQEND
 8
PARTS
 0
POLYLINE
 8
PARTS
 66
1
 10
0.0
 20
0.0
 30
0.0
 0
VERTEX
 8
PARTS
 10
  6.0000
 20
  4.8000
 30
0.0
 0
VERTEX
 8
PARTS
 10
  5.9000
 20
  4.7000
 30
0.0
 0
SEQEND
 8
PARTS
 0
POLYLINE
 8
PARTS
 66
1
 10
0.0
 20
0.0
 30
0.0
 0
VERTEX
 8
PARTS
 10
  5.9000
 20
  4.7000
 30
0.0
 0
VERTEX
 8
PARTS
 10
  5.8000
 20
  4.8000
 30
0.0
 0
SEQEND
 8
PARTS
 0
POLYLINE
 8
PARTS
 66
1
 10
0.0
 20
0.0
 30
0.0
 0
VERTEX
 8
PARTS
 10
  5.8000
 20
  3.6000
 30
0.0
 0
VERTEX
 8
PARTS
 10
  6.0000
 20
  3.6000
 30
0.0
 0
SEQEND
 8
PARTS
 0
POLYLINE
 8
PARTS
 66
1
 10
0.0
 20
0.0
 30
0.0
 0
VERTEX
 8
PARTS
 10
  6.0000
 20
  3.6000
 30
0.0
 0
VERTEX
 8
PARTS
 10
  5.9000
 20
  3.5000
 30
0.0
 0
SEQEND
 8
PARTS
 0
POLYLINE
 8
PARTS
 66
1
 10
0.0
 20
0.0
 30
0.0
 0
VERTEX
 8
PARTS
 10
  5.9000
 20
  3.5000
 30
0.0
 0
VERTEX
 8
PARTS
 10
  5.8000
 20
  3.6000
 30
0.0
 0
SEQEND
 8
PARTS
 0
ENDSEC
 0
EOF
