 0
SECTION
 2
HEADER
 9
$ACADVER
 1
AC1009
 0
ENDSEC
 0
SECTION
 2
ENTITIES
 0
POLYLINE
 8
TITLE
 66
1
 70
1
 10
0.0
 20
0.0
 30
0.0
 0
VERTEX
 8
TITLE
 10
 -0.1000
 20
  0.1000
 30
0.0
 0
VERTEX
 8
TITLE
 10
  9.6000
 20
  0.1000
 30
0.0
 0
VERTEX
 8
TITLE
 10
  9.6000
 20
  7.3000
 30
0.0
 0
VERTEX
 8
TITLE
 10
 -0.1000
 20
  7.3000
 30
0.0
 0
SEQEND
 8
TITLE
 0
POLYLINE
 8
TITLE
 66
1
 70
1
 10
0.0
 20
0.0
 30
0.0
 0
VERTEX
 8
TITLE
 10
  0.0000
 20
  0.2000
 30
0.0
 0
VERTEX
 8
TITLE
 10
  9.5000
 20
  0.2000
 30
0.0
 0
VERTEX
 8
TITLE
 10
  9.5000
 20
  7.2000
 30
0.0
 0
VERTEX
 8
TITLE
 10
  0.0000
 20
  7.2000
 30
0.0
 0
SEQEND
 8
TITLE
 0
POLYLINE
 8
TITLE
 66
1
 10
0.0
 20
0.0
 30
0.0
 0
VERTEX
 8
TITLE
 10
  2.0600
 20
  0.2000
 30
0.0
 0
VERTEX
 8
TITLE
 10
  2.0600
 20
  0.1000
 30
0.0
 0
SEQEND
 8
TITLE
 0
POLYLINE
 8
TITLE
 66
1
 10
0.0
 20
0.0
 30
0.0
 0
VERTEX
 8
TITLE
 10
  2.0600
 20
  7.2000
 30
0.0
 0
VERTEX
 8
TITLE
 10
  2.0600
 20
  7.3000
 30
0.0
 0
SEQEND
 8
TITLE
 0
POLYLINE
 8
TITLE
 66
1
 10
0.0
 20
0.0
 30
0.0
 0
VERTEX
 8
TITLE
 10
  3.9200
 20
  0.2000
 30
0.0
 0
VERTEX
 8
TITLE
 10
  3.9200
 20
  0.1000
 30
0.0
 0
SEQEND
 8
TITLE
 0
POLYLINE
 8
TITLE
 66
1
 10
0.0
 20
0.0
 30
0.0
 0
VERTEX
 8
TITLE
 10
  3.9200
 20
  7.2000
 30
0.0
 0
VERTEX
 8
TITLE
 10
  3.9200
 20
  7.3000
 30
0.0
 0
SEQEND
 8
TITLE
 0
POLYLINE
 8
TITLE
 66
1
 10
0.0
 20
0.0
 30
0.0
 0
VERTEX
 8
TITLE
 10
  5.7800
 20
  0.2000
 30
0.0
 0
VERTEX
 8
TITLE
 10
  5.7800
 20
  0.1000
 30
0.0
 0
SEQEND
 8
TITLE
 0
POLYLINE
 8
TITLE
 66
1
 10
0.0
 20
0.0
 30
0.0
 0
VERTEX
 8
TITLE
 10
  5.7800
 20
  7.2000
 30
0.0
 0
VERTEX
 8
TITLE
 10
  5.7800
 20
  7.3000
 30
0.0
 0
SEQEND
 8
TITLE
 0
POLYLINE
 8
TITLE
 66
1
 10
0.0
 20
0.0
 30
0.0
 0
VERTEX
 8
TITLE
 10
  7.6400
 20
  0.2000
 30
0.0
 0
VERTEX
 8
TITLE
 10
  7.6400
 20
  0.1000
 30
0.0
 0
SEQEND
 8
TITLE
 0
POLYLINE
 8
TITLE
 66
1
 10
0.0
 20
0.0
 30
0.0
 0
VERTEX
 8
TITLE
 10
  7.6400
 20
  7.2000
 30
0.0
 0
VERTEX
 8
TITLE
 10
  7.6400
 20
  7.3000
 30
0.0
 0
SEQEND
 8
TITLE
 0
TEXT
 8
TITLE
 10
  1.1300
 20
  0.1200
 30
0.0
 40
  0.0500
 1
5
 0
TEXT
 8
TITLE
 10
  1.1300
 20
  7.2200
 30
0.0
 40
  0.0500
 1
5
 0
TEXT
 8
TITLE
 10
  2.9900
 20
  0.1200
 30
0.0
 40
  0.0500
 1
4
 0
TEXT
 8
TITLE
 10
  2.9900
 20
  7.2200
 30
0.0
 40
  0.0500
 1
4
 0
TEXT
 8
TITLE
 10
  4.8500
 20
  0.1200
 30
0.0
 40
  0.0500
 1
3
 0
TEXT
 8
TITLE
 10
  4.8500
 20
  7.2200
 30
0.0
 40
  0.0500
 1
3
 0
TEXT
 8
TITLE
 10
  6.7100
 20
  0.1200
 30
0.0
 40
  0.0500
 1
2
 0
TEXT
 8
TITLE
 10
  6.7100
 20
  7.2200
 30
0.0
 40
  0.0500
 1
2
 0
TEXT
 8
TITLE
 10
  8.5700
 20
  0.1200
 30
0.0
 40
  0.0500
 1
1
 0
TEXT
 8
TITLE
 10
  8.5700
 20
  7.2200
 30
0.0
 40
  0.0500
 1
1
 0
POLYLINE
 8
TITLE
 66
1
 10
0.0
 20
0.0
 30
0.0
 0
VERTEX
 8
TITLE
 10
 -0.1000
 20
  5.3000
 30
0.0
 0
VERTEX
 8
TITLE
 10
  0.0000
 20
  5.3000
 30
0.0
 0
SEQEND
 8
TITLE
 0
POLYLINE
 8
TITLE
 66
1
 10
0.0
 20
0.0
 30
0.0
 0
VERTEX
 8
TITLE
 10
  9.5000
 20
  5.3000
 30
0.0
 0
VERTEX
 8
TITLE
 10
  9.6000
 20
  5.3000
 30
0.0
 0
SEQEND
 8
TITLE
 0
SOLID
 8
TITLE
 10
  0.0000
 20
  3.6000
 30
0.0
 11
 -0.0500
 21
  3.6200
 31
0.0
 12
 -0.0500
 22
  3.5800
 32
0.0
 13
 -0.0500
 23
  3.6000
 33
0.0
 0
SOLID
 8
TITLE
 10
  9.5000
 20
  3.6000
 30
0.0
 11
  9.5500
 21
  3.6200
 31
0.0
 12
  9.5500
 22
  3.5800
 32
0.0
 13
  9.5500
 23
  3.6000
 33
0.0
 0
POLYLINE
 8
TITLE
 66
1
 10
0.0
 20
0.0
 30
0.0
 0
VERTEX
 8
TITLE
 10
 -0.1000
 20
  3.6000
 30
0.0
 0
VERTEX
 8
TITLE
 10
  0.0000
 20
  3.6000
 30
0.0
 0
SEQEND
 8
TITLE
 0
POLYLINE
 8
TITLE
 66
1
 10
0.0
 20
0.0
 30
0.0
 0
VERTEX
 8
TITLE
 10
  9.5000
 20
  3.6000
 30
0.0
 0
VERTEX
 8
TITLE
 10
  9.6000
 20
  3.6000
 30
0.0
 0
SEQEND
 8
TITLE
 0
SOLID
 8
TITLE
 10
  0.0000
 20
  3.6000
 30
0.0
 11
 -0.0500
 21
  3.6200
 31
0.0
 12
 -0.0500
 22
  3.5800
 32
0.0
 13
 -0.0500
 23
  3.6000
 33
0.0
 0
SOLID
 8
TITLE
 10
  9.5000
 20
  3.6000
 30
0.0
 11
  9.5500
 21
  3.6200
 31
0.0
 12
  9.5500
 22
  3.5800
 32
0.0
 13
  9.5500
 23
  3.6000
 33
0.0
 0
POLYLINE
 8
TITLE
 66
1
 10
0.0
 20
0.0
 30
0.0
 0
VERTEX
 8
TITLE
 10
 -0.1000
 20
  1.9000
 30
0.0
 0
VERTEX
 8
TITLE
 10
  0.0000
 20
  1.9000
 30
0.0
 0
SEQEND
 8
TITLE
 0
POLYLINE
 8
TITLE
 66
1
 10
0.0
 20
0.0
 30
0.0
 0
VERTEX
 8
TITLE
 10
  9.5000
 20
  1.9000
 30
0.0
 0
VERTEX
 8
TITLE
 10
  9.6000
 20
  1.9000
 30
0.0
 0
SEQEND
 8
TITLE
 0
SOLID
 8
TITLE
 10
  0.0000
 20
  3.6000
 30
0.0
 11
 -0.0500
 21
  3.6200
 31
0.0
 12
 -0.0500
 22
  3.5800
 32
0.0
 13
 -0.0500
 23
  3.6000
 33
0.0
 0
SOLID
 8
TITLE
 10
  9.5000
 20
  3.6000
 30
0.0
 11
  9.5500
 21
  3.6200
 31
0.0
 12
  9.5500
 22
  3.5800
 32
0.0
 13
  9.5500
 23
  3.6000
 33
0.0
 0
TEXT
 8
TITLE
 10
 -0.0800
 20
  6.1500
 30
0.0
 40
  0.0500
 1
D
 0
TEXT
 8
TITLE
 10
  9.5200
 20
  6.1500
 30
0.0
 40
  0.0500
 1
D
 0
TEXT
 8
TITLE
 10
 -0.0800
 20
  4.4500
 30
0.0
 40
  0.0500
 1
C
 0
TEXT
 8
TITLE
 10
  9.5200
 20
  4.4500
 30
0.0
 40
  0.0500
 1
C
 0
TEXT
 8
TITLE
 10
 -0.0800
 20
  2.7500
 30
0.0
 40
  0.0500
 1
B
 0
TEXT
 8
TITLE
 10
  9.5200
 20
  2.7500
 30
0.0
 40
  0.0500
 1
B
 0
TEXT
 8
TITLE
 10
 -0.0800
 20
  1.0500
 30
0.0
 40
  0.0500
 1
A
 0
TEXT
 8
TITLE
 10
  9.5200
 20
  1.0500
 30
0.0
 40
  0.0500
 1
A
 0
TEXT
 8
TITLE
 10
  6.3000
 20
  0.4186
 30
0.0
 40
  0.0514
 1
<Doc>
 0
TEXT
 8
TITLE
 10
  9.3000
 20
  0.4186
 30
0.0
 40
  0.0514
 1
<RevCode>
 0
TEXT
 8
TITLE
 10
  6.3000
 20
  0.7186
 30
0.0
 40
  0.0514
 1
<Title>
 0
TEXT
 8
TITLE
 10
  6.0000
 20
  0.4186
 30
0.0
 40
  0.0514
 1
A
 0
TEXT
 8
TITLE
 10
  8.4000
 20
  0.2186
 30
0.0
 40
  0.0514
 1
1
 0
TEXT
 8
TITLE
 10
  9.0000
 20
  0.2186
 30
0.0
 40
  0.0514
 1
1
 0
TEXT
 8
TITLE
 10
  6.4200
 20
  0.2186
 30
0.0
 40
  0.0514
 1
Saturday, October 18, 2014
 0
TEXT
 8
PARTTEXT
 10
  5.9000
 20
  0.8186
 30
0.0
 40
  0.0514
 1
Title
 0
TEXT
 8
PARTTEXT
 10
  5.9000
 20
  0.5186
 30
0.0
 40
  0.0514
 1
Size
 0
TEXT
 8
PARTTEXT
 10
  6.3000
 20
  0.5186
 30
0.0
 40
  0.0514
 1
Document Number
 0
TEXT
 8
PARTTEXT
 10
  9.2000
 20
  0.5186
 30
0.0
 40
  0.0514
 1
Rev
 0
TEXT
 8
PARTTEXT
 10
  5.9000
 20
  0.2186
 30
0.0
 40
  0.0514
 1
Date:
 0
TEXT
 8
PARTTEXT
 10
  7.9000
 20
  0.2186
 30
0.0
 40
  0.0514
 1
Sheet
 0
POLYLINE
 8
TITLE
 66
1
 70
1
 10
0.0
 20
0.0
 30
0.0
 0
VERTEX
 8
TITLE
 10
  5.9000
 20
  1.1000
 30
0.0
 0
VERTEX
 8
TITLE
 10
  9.5000
 20
  1.1000
 30
0.0
 0
VERTEX
 8
TITLE
 10
  9.5000
 20
  0.9000
 30
0.0
 0
VERTEX
 8
TITLE
 10
  5.9000
 20
  0.9000
 30
0.0
 0
SEQEND
 8
TITLE
 0
POLYLINE
 8
TITLE
 66
1
 70
1
 10
0.0
 20
0.0
 30
0.0
 0
VERTEX
 8
TITLE
 10
  5.9000
 20
  0.9000
 30
0.0
 0
VERTEX
 8
TITLE
 10
  9.5000
 20
  0.9000
 30
0.0
 0
VERTEX
 8
TITLE
 10
  9.5000
 20
  0.6000
 30
0.0
 0
VERTEX
 8
TITLE
 10
  5.9000
 20
  0.6000
 30
0.0
 0
SEQEND
 8
TITLE
 0
POLYLINE
 8
TITLE
 66
1
 70
1
 10
0.0
 20
0.0
 30
0.0
 0
VERTEX
 8
TITLE
 10
  5.9000
 20
  0.6000
 30
0.0
 0
VERTEX
 8
TITLE
 10
  6.2000
 20
  0.6000
 30
0.0
 0
VERTEX
 8
TITLE
 10
  6.2000
 20
  0.3000
 30
0.0
 0
VERTEX
 8
TITLE
 10
  5.9000
 20
  0.3000
 30
0.0
 0
SEQEND
 8
TITLE
 0
POLYLINE
 8
TITLE
 66
1
 70
1
 10
0.0
 20
0.0
 30
0.0
 0
VERTEX
 8
TITLE
 10
  6.2000
 20
  0.6000
 30
0.0
 0
VERTEX
 8
TITLE
 10
  9.2000
 20
  0.6000
 30
0.0
 0
VERTEX
 8
TITLE
 10
  9.2000
 20
  0.3000
 30
0.0
 0
VERTEX
 8
TITLE
 10
  6.2000
 20
  0.3000
 30
0.0
 0
SEQEND
 8
TITLE
 0
POLYLINE
 8
TITLE
 66
1
 70
1
 10
0.0
 20
0.0
 30
0.0
 0
VERTEX
 8
TITLE
 10
  9.2000
 20
  0.6000
 30
0.0
 0
VERTEX
 8
TITLE
 10
  9.5000
 20
  0.6000
 30
0.0
 0
VERTEX
 8
TITLE
 10
  9.5000
 20
  0.3000
 30
0.0
 0
VERTEX
 8
TITLE
 10
  9.2000
 20
  0.3000
 30
0.0
 0
SEQEND
 8
TITLE
 0
POLYLINE
 8
TITLE
 66
1
 70
1
 10
0.0
 20
0.0
 30
0.0
 0
VERTEX
 8
TITLE
 10
  5.9000
 20
  0.3000
 30
0.0
 0
VERTEX
 8
TITLE
 10
  7.9000
 20
  0.3000
 30
0.0
 0
VERTEX
 8
TITLE
 10
  7.9000
 20
  0.2000
 30
0.0
 0
VERTEX
 8
TITLE
 10
  5.9000
 20
  0.2000
 30
0.0
 0
SEQEND
 8
TITLE
 0
POLYLINE
 8
TITLE
 66
1
 70
1
 10
0.0
 20
0.0
 30
0.0
 0
VERTEX
 8
TITLE
 10
  7.9000
 20
  0.3000
 30
0.0
 0
VERTEX
 8
TITLE
 10
  9.5000
 20
  0.3000
 30
0.0
 0
VERTEX
 8
TITLE
 10
  9.5000
 20
  0.2000
 30
0.0
 0
VERTEX
 8
TITLE
 10
  7.9000
 20
  0.2000
 30
0.0
 0
SEQEND
 8
TITLE
 0
TEXT
 8
PARTTEXT
 10
  8.7000
 20
  0.2186
 30
0.0
 40
  0.0514
 1
of
 0
TEXT
 8
PARTTEXT
 10
  1.8000
 20
  5.5686
 30
0.0
 40
  0.0514
 1
J15
 0
TEXT
 8
PARTTEXT
 10
  1.8000
 20
  4.7586
 30
0.0
 40
  0.0514
 1
HEADER 3
 0
LINE
 8
PARTS
 10
  2.4000
 20
  5.3000
 30
0.0
 11
  2.1000
 21
  5.3000
 31
0.0
 0
TEXT
 8
PARTS
 10
  2.1600
 20
  5.3300
 30
0.0
 40
  0.0500
 1
1
 0
LINE
 8
PARTS
 10
  2.4000
 20
  5.2000
 30
0.0
 11
  2.1000
 21
  5.2000
 31
0.0
 0
TEXT
 8
PARTS
 10
  2.1600
 20
  5.2300
 30
0.0
 40
  0.0500
 1
2
 0
LINE
 8
PARTS
 10
  2.4000
 20
  5.1000
 30
0.0
 11
  2.1000
 21
  5.1000
 31
0.0
 0
TEXT
 8
PARTS
 10
  2.1600
 20
  5.1300
 30
0.0
 40
  0.0500
 1
3
 0
POLYLINE
 8
PARTS
 66
1
 70
1
 10
0.0
 20
0.0
 30
0.0
 0
VERTEX
 8
PARTS
 10
  1.8000
 20
  5.4000
 30
0.0
 0
VERTEX
 8
PARTS
 10
  2.1000
 20
  5.4000
 30
0.0
 0
VERTEX
 8
PARTS
 10
  2.1000
 20
  5.0000
 30
0.0
 0
VERTEX
 8
PARTS
 10
  1.8000
 20
  5.0000
 30
0.0
 0
SEQEND
 8
PARTS
 0
POLYLINE
 8
PARTS
 66
1
 10
0.0
 20
0.0
 30
0.0
 0
VERTEX
 8
PARTS
 10
  2.0000
 20
  5.4000
 30
0.0
 0
VERTEX
 8
PARTS
 10
  2.0100
 20
  5.4000
 30
0.0
 0
VERTEX
 8
PARTS
 10
  2.0100
 20
  5.4500
 30
0.0
 0
VERTEX
 8
PARTS
 10
  1.8900
 20
  5.4500
 30
0.0
 0
VERTEX
 8
PARTS
 10
  1.8900
 20
  5.4000
 30
0.0
 0
SEQEND
 8
PARTS
 0
POLYLINE
 8
PARTS
 66
1
 10
0.0
 20
0.0
 30
0.0
 0
VERTEX
 8
PARTS
 10
  1.9000
 20
  5.0000
 30
0.0
 0
VERTEX
 8
PARTS
 10
  1.8900
 20
  5.0000
 30
0.0
 0
VERTEX
 8
PARTS
 10
  1.8900
 20
  4.9500
 30
0.0
 0
VERTEX
 8
PARTS
 10
  2.0100
 20
  4.9500
 30
0.0
 0
VERTEX
 8
PARTS
 10
  2.0100
 20
  5.0000
 30
0.0
 0
SEQEND
 8
PARTS
 0
TEXT
 8
PARTTEXT
 10
  1.9000
 20
  2.8186
 30
0.0
 40
  0.0514
 1
R38
 0
TEXT
 8
PARTTEXT
 10
  1.9000
 20
  2.7186
 30
0.0
 40
  0.0514
 1
10K
 0
LINE
 8
PARTS
 10
  1.8000
 20
  3.0000
 30
0.0
 11
  1.8000
 21
  2.9000
 31
0.0
 0
LINE
 8
PARTS
 10
  1.8000
 20
  2.5000
 30
0.0
 11
  1.8000
 21
  2.6000
 31
0.0
 0
POLYLINE
 8
PARTS
 66
1
 10
0.0
 20
0.0
 30
0.0
 0
VERTEX
 8
PARTS
 10
  1.8000
 20
  2.9000
 30
0.0
 0
VERTEX
 8
PARTS
 10
  1.8300
 20
  2.8700
 30
0.0
 0
SEQEND
 8
PARTS
 0
POLYLINE
 8
PARTS
 66
1
 10
0.0
 20
0.0
 30
0.0
 0
VERTEX
 8
PARTS
 10
  1.8300
 20
  2.8700
 30
0.0
 0
VERTEX
 8
PARTS
 10
  1.7700
 20
  2.8100
 30
0.0
 0
SEQEND
 8
PARTS
 0
POLYLINE
 8
PARTS
 66
1
 10
0.0
 20
0.0
 30
0.0
 0
VERTEX
 8
PARTS
 10
  1.7700
 20
  2.8100
 30
0.0
 0
VERTEX
 8
PARTS
 10
  1.8300
 20
  2.7500
 30
0.0
 0
SEQEND
 8
PARTS
 0
POLYLINE
 8
PARTS
 66
1
 10
0.0
 20
0.0
 30
0.0
 0
VERTEX
 8
PARTS
 10
  1.8300
 20
  2.7500
 30
0.0
 0
VERTEX
 8
PARTS
 10
  1.7700
 20
  2.6900
 30
0.0
 0
SEQEND
 8
PARTS
 0
POLYLINE
 8
PARTS
 66
1
 10
0.0
 20
0.0
 30
0.0
 0
VERTEX
 8
PARTS
 10
  1.7700
 20
  2.6900
 30
0.0
 0
VERTEX
 8
PARTS
 10
  1.8300
 20
  2.6300
 30
0.0
 0
SEQEND
 8
PARTS
 0
POLYLINE
 8
PARTS
 66
1
 10
0.0
 20
0.0
 30
0.0
 0
VERTEX
 8
PARTS
 10
  1.8300
 20
  2.6300
 30
0.0
 0
VERTEX
 8
PARTS
 10
  1.8000
 20
  2.6000
 30
0.0
 0
SEQEND
 8
PARTS
 0
TEXT
 8
PARTTEXT
 10
  4.1700
 20
  4.0686
 30
0.0
 40
  0.0514
 1
U3
 0
TEXT
 8
PARTTEXT
 10
  3.8800
 20
  3.9686
 30
0.0
 40
  0.0514
 1
ADUM3401CRWZ
 0
LINE
 8
PARTS
 10
  3.0000
 20
  3.7000
 30
0.0
 11
  3.3000
 21
  3.7000
 31
0.0
 0
TEXT
 8
PARTS
 10
  3.3900
 20
  3.6750
 30
0.0
 40
  0.0500
 1
VDD1
 0
TEXT
 8
PARTS
 10
  3.2000
 20
  3.7300
 30
0.0
 40
  0.0500
 1
1
 0
LINE
 8
PARTS
 10
  5.4000
 20
  3.3000
 30
0.0
 11
  5.1000
 21
  3.3000
 31
0.0
 0
TEXT
 8
PARTS
 10
  4.8500
 20
  3.2750
 30
0.0
 40
  0.0500
 1
GND1
 0
TEXT
 8
PARTS
 10
  5.1600
 20
  3.3300
 30
0.0
 40
  0.0500
 1
2
 0
LINE
 8
PARTS
 10
  3.0000
 20
  3.4000
 30
0.0
 11
  3.3000
 21
  3.4000
 31
0.0
 0
TEXT
 8
PARTS
 10
  3.3900
 20
  3.3750
 30
0.0
 40
  0.0500
 1
VIA
 0
TEXT
 8
PARTS
 10
  3.2000
 20
  3.4300
 30
0.0
 40
  0.0500
 1
3
 0
LINE
 8
PARTS
 10
  3.0000
 20
  3.3000
 30
0.0
 11
  3.3000
 21
  3.3000
 31
0.0
 0
TEXT
 8
PARTS
 10
  3.3900
 20
  3.2750
 30
0.0
 40
  0.0500
 1
VIB
 0
TEXT
 8
PARTS
 10
  3.2000
 20
  3.3300
 30
0.0
 40
  0.0500
 1
4
 0
LINE
 8
PARTS
 10
  3.0000
 20
  3.2000
 30
0.0
 11
  3.3000
 21
  3.2000
 31
0.0
 0
TEXT
 8
PARTS
 10
  3.3900
 20
  3.1750
 30
0.0
 40
  0.0500
 1
VIC
 0
TEXT
 8
PARTS
 10
  3.2000
 20
  3.2300
 30
0.0
 40
  0.0500
 1
5
 0
LINE
 8
PARTS
 10
  5.4000
 20
  3.1000
 30
0.0
 11
  5.1000
 21
  3.1000
 31
0.0
 0
TEXT
 8
PARTS
 10
  4.8900
 20
  3.0750
 30
0.0
 40
  0.0500
 1
VOD
 0
TEXT
 8
PARTS
 10
  5.1600
 20
  3.1300
 30
0.0
 40
  0.0500
 1
6
 0
LINE
 8
PARTS
 10
  3.0000
 20
  2.9000
 30
0.0
 11
  3.3000
 21
  2.9000
 31
0.0
 0
TEXT
 8
PARTS
 10
  3.3900
 20
  2.8750
 30
0.0
 40
  0.0500
 1
VE1
 0
TEXT
 8
PARTS
 10
  3.2000
 20
  2.9300
 30
0.0
 40
  0.0500
 1
7
 0
LINE
 8
PARTS
 10
  5.4000
 20
  3.4000
 30
0.0
 11
  5.1000
 21
  3.4000
 31
0.0
 0
TEXT
 8
PARTS
 10
  4.7700
 20
  3.3750
 30
0.0
 40
  0.0500
 1
GND1_1
 0
TEXT
 8
PARTS
 10
  5.1600
 20
  3.4300
 30
0.0
 40
  0.0500
 1
8
 0
LINE
 8
PARTS
 10
  5.4000
 20
  3.5000
 30
0.0
 11
  5.1000
 21
  3.5000
 31
0.0
 0
TEXT
 8
PARTS
 10
  4.8500
 20
  3.4750
 30
0.0
 40
  0.0500
 1
GND2
 0
TEXT
 8
PARTS
 10
  5.1600
 20
  3.5300
 30
0.0
 40
  0.0500
 1
9
 0
LINE
 8
PARTS
 10
  3.0000
 20
  2.8000
 30
0.0
 11
  3.3000
 21
  2.8000
 31
0.0
 0
TEXT
 8
PARTS
 10
  3.3900
 20
  2.7750
 30
0.0
 40
  0.0500
 1
VE2
 0
TEXT
 8
PARTS
 10
  3.1600
 20
  2.8300
 30
0.0
 40
  0.0500
 1
10
 0
LINE
 8
PARTS
 10
  3.0000
 20
  3.1000
 30
0.0
 11
  3.3000
 21
  3.1000
 31
0.0
 0
TEXT
 8
PARTS
 10
  3.3900
 20
  3.0750
 30
0.0
 40
  0.0500
 1
VID
 0
TEXT
 8
PARTS
 10
  3.1600
 20
  3.1300
 30
0.0
 40
  0.0500
 1
11
 0
LINE
 8
PARTS
 10
  5.4000
 20
  3.0000
 30
0.0
 11
  5.1000
 21
  3.0000
 31
0.0
 0
TEXT
 8
PARTS
 10
  4.8900
 20
  2.9750
 30
0.0
 40
  0.0500
 1
VOC
 0
TEXT
 8
PARTS
 10
  5.1600
 20
  3.0300
 30
0.0
 40
  0.0500
 1
12
 0
LINE
 8
PARTS
 10
  5.4000
 20
  2.9000
 30
0.0
 11
  5.1000
 21
  2.9000
 31
0.0
 0
TEXT
 8
PARTS
 10
  4.8900
 20
  2.8750
 30
0.0
 40
  0.0500
 1
VOB
 0
TEXT
 8
PARTS
 10
  5.1600
 20
  2.9300
 30
0.0
 40
  0.0500
 1
13
 0
LINE
 8
PARTS
 10
  5.4000
 20
  2.8000
 30
0.0
 11
  5.1000
 21
  2.8000
 31
0.0
 0
TEXT
 8
PARTS
 10
  4.8900
 20
  2.7750
 30
0.0
 40
  0.0500
 1
VOA
 0
TEXT
 8
PARTS
 10
  5.1600
 20
  2.8300
 30
0.0
 40
  0.0500
 1
14
 0
LINE
 8
PARTS
 10
  5.4000
 20
  3.6000
 30
0.0
 11
  5.1000
 21
  3.6000
 31
0.0
 0
TEXT
 8
PARTS
 10
  4.7700
 20
  3.5750
 30
0.0
 40
  0.0500
 1
GND2_1
 0
TEXT
 8
PARTS
 10
  5.1600
 20
  3.6300
 30
0.0
 40
  0.0500
 1
15
 0
LINE
 8
PARTS
 10
  3.0000
 20
  3.6000
 30
0.0
 11
  3.3000
 21
  3.6000
 31
0.0
 0
TEXT
 8
PARTS
 10
  3.3900
 20
  3.5750
 30
0.0
 40
  0.0500
 1
VDD2
 0
TEXT
 8
PARTS
 10
  3.1600
 20
  3.6300
 30
0.0
 40
  0.0500
 1
16
 0
POLYLINE
 8
PARTS
 66
1
 10
0.0
 20
0.0
 30
0.0
 0
VERTEX
 8
PARTS
 10
  3.3000
 20
  3.9000
 30
0.0
 0
VERTEX
 8
PARTS
 10
  3.3000
 20
  2.6000
 30
0.0
 0
SEQEND
 8
PARTS
 0
POLYLINE
 8
PARTS
 66
1
 10
0.0
 20
0.0
 30
0.0
 0
VERTEX
 8
PARTS
 10
  3.3000
 20
  2.6000
 30
0.0
 0
VERTEX
 8
PARTS
 10
  5.1000
 20
  2.6000
 30
0.0
 0
SEQEND
 8
PARTS
 0
POLYLINE
 8
PARTS
 66
1
 10
0.0
 20
0.0
 30
0.0
 0
VERTEX
 8
PARTS
 10
  5.1000
 20
  2.6000
 30
0.0
 0
VERTEX
 8
PARTS
 10
  5.1000
 20
  3.9000
 30
0.0
 0
SEQEND
 8
PARTS
 0
POLYLINE
 8
PARTS
 66
1
 10
0.0
 20
0.0
 30
0.0
 0
VERTEX
 8
PARTS
 10
  5.1000
 20
  3.9000
 30
0.0
 0
VERTEX
 8
PARTS
 10
  3.3000
 20
  3.9000
 30
0.0
 0
SEQEND
 8
PARTS
 0
POLYLINE
 8
PARTS
 66
1
 10
0.0
 20
0.0
 30
0.0
 0
VERTEX
 8
PARTS
 10
  3.3000
 20
  3.7000
 30
0.0
 0
VERTEX
 8
PARTS
 10
  3.3000
 20
  3.7000
 30
0.0
 0
SEQEND
 8
PARTS
 0
POLYLINE
 8
PARTS
 66
1
 10
0.0
 20
0.0
 30
0.0
 0
VERTEX
 8
PARTS
 10
  3.3000
 20
  3.6000
 30
0.0
 0
VERTEX
 8
PARTS
 10
  3.3000
 20
  3.6000
 30
0.0
 0
SEQEND
 8
PARTS
 0
POLYLINE
 8
PARTS
 66
1
 10
0.0
 20
0.0
 30
0.0
 0
VERTEX
 8
PARTS
 10
  3.3000
 20
  3.4000
 30
0.0
 0
VERTEX
 8
PARTS
 10
  3.3000
 20
  3.4000
 30
0.0
 0
SEQEND
 8
PARTS
 0
POLYLINE
 8
PARTS
 66
1
 10
0.0
 20
0.0
 30
0.0
 0
VERTEX
 8
PARTS
 10
  3.3000
 20
  3.3000
 30
0.0
 0
VERTEX
 8
PARTS
 10
  3.3000
 20
  3.3000
 30
0.0
 0
SEQEND
 8
PARTS
 0
POLYLINE
 8
PARTS
 66
1
 10
0.0
 20
0.0
 30
0.0
 0
VERTEX
 8
PARTS
 10
  3.3000
 20
  3.2000
 30
0.0
 0
VERTEX
 8
PARTS
 10
  3.3000
 20
  3.2000
 30
0.0
 0
SEQEND
 8
PARTS
 0
POLYLINE
 8
PARTS
 66
1
 10
0.0
 20
0.0
 30
0.0
 0
VERTEX
 8
PARTS
 10
  3.3000
 20
  3.1000
 30
0.0
 0
VERTEX
 8
PARTS
 10
  3.3000
 20
  3.1000
 30
0.0
 0
SEQEND
 8
PARTS
 0
POLYLINE
 8
PARTS
 66
1
 10
0.0
 20
0.0
 30
0.0
 0
VERTEX
 8
PARTS
 10
  3.3000
 20
  2.9000
 30
0.0
 0
VERTEX
 8
PARTS
 10
  3.3000
 20
  2.9000
 30
0.0
 0
SEQEND
 8
PARTS
 0
POLYLINE
 8
PARTS
 66
1
 10
0.0
 20
0.0
 30
0.0
 0
VERTEX
 8
PARTS
 10
  3.3000
 20
  2.8000
 30
0.0
 0
VERTEX
 8
PARTS
 10
  3.3000
 20
  2.8000
 30
0.0
 0
SEQEND
 8
PARTS
 0
POLYLINE
 8
PARTS
 66
1
 10
0.0
 20
0.0
 30
0.0
 0
VERTEX
 8
PARTS
 10
  5.1000
 20
  2.8000
 30
0.0
 0
VERTEX
 8
PARTS
 10
  5.1000
 20
  2.8000
 30
0.0
 0
SEQEND
 8
PARTS
 0
POLYLINE
 8
PARTS
 66
1
 10
0.0
 20
0.0
 30
0.0
 0
VERTEX
 8
PARTS
 10
  5.1000
 20
  2.9000
 30
0.0
 0
VERTEX
 8
PARTS
 10
  5.1000
 20
  2.9000
 30
0.0
 0
SEQEND
 8
PARTS
 0
POLYLINE
 8
PARTS
 66
1
 10
0.0
 20
0.0
 30
0.0
 0
VERTEX
 8
PARTS
 10
  5.1000
 20
  3.0000
 30
0.0
 0
VERTEX
 8
PARTS
 10
  5.1000
 20
  3.0000
 30
0.0
 0
SEQEND
 8
PARTS
 0
POLYLINE
 8
PARTS
 66
1
 10
0.0
 20
0.0
 30
0.0
 0
VERTEX
 8
PARTS
 10
  5.1000
 20
  3.1000
 30
0.0
 0
VERTEX
 8
PARTS
 10
  5.1000
 20
  3.1000
 30
0.0
 0
SEQEND
 8
PARTS
 0
POLYLINE
 8
PARTS
 66
1
 10
0.0
 20
0.0
 30
0.0
 0
VERTEX
 8
PARTS
 10
  5.1000
 20
  3.3000
 30
0.0
 0
VERTEX
 8
PARTS
 10
  5.1000
 20
  3.3000
 30
0.0
 0
SEQEND
 8
PARTS
 0
POLYLINE
 8
PARTS
 66
1
 10
0.0
 20
0.0
 30
0.0
 0
VERTEX
 8
PARTS
 10
  5.1000
 20
  3.4000
 30
0.0
 0
VERTEX
 8
PARTS
 10
  5.1000
 20
  3.4000
 30
0.0
 0
SEQEND
 8
PARTS
 0
POLYLINE
 8
PARTS
 66
1
 10
0.0
 20
0.0
 30
0.0
 0
VERTEX
 8
PARTS
 10
  5.1000
 20
  3.5000
 30
0.0
 0
VERTEX
 8
PARTS
 10
  5.1000
 20
  3.5000
 30
0.0
 0
SEQEND
 8
PARTS
 0
POLYLINE
 8
PARTS
 66
1
 10
0.0
 20
0.0
 30
0.0
 0
VERTEX
 8
PARTS
 10
  5.1000
 20
  3.6000
 30
0.0
 0
VERTEX
 8
PARTS
 10
  5.1000
 20
  3.6000
 30
0.0
 0
SEQEND
 8
PARTS
 0
TEXT
 8
PARTTEXT
 10
  6.0000
 20
  2.5186
 30
0.0
 40
  0.0514
 1
R40
 0
TEXT
 8
PARTTEXT
 10
  6.0000
 20
  2.4186
 30
0.0
 40
  0.0514
 1
10K
 0
LINE
 8
PARTS
 10
  5.9000
 20
  2.7000
 30
0.0
 11
  5.9000
 21
  2.6000
 31
0.0
 0
LINE
 8
PARTS
 10
  5.9000
 20
  2.2000
 30
0.0
 11
  5.9000
 21
  2.3000
 31
0.0
 0
POLYLINE
 8
PARTS
 66
1
 10
0.0
 20
0.0
 30
0.0
 0
VERTEX
 8
PARTS
 10
  5.9000
 20
  2.6000
 30
0.0
 0
VERTEX
 8
PARTS
 10
  5.9300
 20
  2.5700
 30
0.0
 0
SEQEND
 8
PARTS
 0
POLYLINE
 8
PARTS
 66
1
 10
0.0
 20
0.0
 30
0.0
 0
VERTEX
 8
PARTS
 10
  5.9300
 20
  2.5700
 30
0.0
 0
VERTEX
 8
PARTS
 10
  5.8700
 20
  2.5100
 30
0.0
 0
SEQEND
 8
PARTS
 0
POLYLINE
 8
PARTS
 66
1
 10
0.0
 20
0.0
 30
0.0
 0
VERTEX
 8
PARTS
 10
  5.8700
 20
  2.5100
 30
0.0
 0
VERTEX
 8
PARTS
 10
  5.9300
 20
  2.4500
 30
0.0
 0
SEQEND
 8
PARTS
 0
POLYLINE
 8
PARTS
 66
1
 10
0.0
 20
0.0
 30
0.0
 0
VERTEX
 8
PARTS
 10
  5.9300
 20
  2.4500
 30
0.0
 0
VERTEX
 8
PARTS
 10
  5.8700
 20
  2.3900
 30
0.0
 0
SEQEND
 8
PARTS
 0
POLYLINE
 8
PARTS
 66
1
 10
0.0
 20
0.0
 30
0.0
 0
VERTEX
 8
PARTS
 10
  5.8700
 20
  2.3900
 30
0.0
 0
VERTEX
 8
PARTS
 10
  5.9300
 20
  2.3300
 30
0.0
 0
SEQEND
 8
PARTS
 0
POLYLINE
 8
PARTS
 66
1
 10
0.0
 20
0.0
 30
0.0
 0
VERTEX
 8
PARTS
 10
  5.9300
 20
  2.3300
 30
0.0
 0
VERTEX
 8
PARTS
 10
  5.9000
 20
  2.3000
 30
0.0
 0
SEQEND
 8
PARTS
 0
TEXT
 8
PARTTEXT
 10
  2.7000
 20
  4.9186
 30
0.0
 40
  0.0514
 1
R36
 0
TEXT
 8
PARTTEXT
 10
  2.7000
 20
  4.8186
 30
0.0
 40
  0.0514
 1
10K
 0
LINE
 8
PARTS
 10
  2.6000
 20
  5.1000
 30
0.0
 11
  2.6000
 21
  5.0000
 31
0.0
 0
LINE
 8
PARTS
 10
  2.6000
 20
  4.6000
 30
0.0
 11
  2.6000
 21
  4.7000
 31
0.0
 0
POLYLINE
 8
PARTS
 66
1
 10
0.0
 20
0.0
 30
0.0
 0
VERTEX
 8
PARTS
 10
  2.6000
 20
  5.0000
 30
0.0
 0
VERTEX
 8
PARTS
 10
  2.6300
 20
  4.9700
 30
0.0
 0
SEQEND
 8
PARTS
 0
POLYLINE
 8
PARTS
 66
1
 10
0.0
 20
0.0
 30
0.0
 0
VERTEX
 8
PARTS
 10
  2.6300
 20
  4.9700
 30
0.0
 0
VERTEX
 8
PARTS
 10
  2.5700
 20
  4.9100
 30
0.0
 0
SEQEND
 8
PARTS
 0
POLYLINE
 8
PARTS
 66
1
 10
0.0
 20
0.0
 30
0.0
 0
VERTEX
 8
PARTS
 10
  2.5700
 20
  4.9100
 30
0.0
 0
VERTEX
 8
PARTS
 10
  2.6300
 20
  4.8500
 30
0.0
 0
SEQEND
 8
PARTS
 0
POLYLINE
 8
PARTS
 66
1
 10
0.0
 20
0.0
 30
0.0
 0
VERTEX
 8
PARTS
 10
  2.6300
 20
  4.8500
 30
0.0
 0
VERTEX
 8
PARTS
 10
  2.5700
 20
  4.7900
 30
0.0
 0
SEQEND
 8
PARTS
 0
POLYLINE
 8
PARTS
 66
1
 10
0.0
 20
0.0
 30
0.0
 0
VERTEX
 8
PARTS
 10
  2.5700
 20
  4.7900
 30
0.0
 0
VERTEX
 8
PARTS
 10
  2.6300
 20
  4.7300
 30
0.0
 0
SEQEND
 8
PARTS
 0
POLYLINE
 8
PARTS
 66
1
 10
0.0
 20
0.0
 30
0.0
 0
VERTEX
 8
PARTS
 10
  2.6300
 20
  4.7300
 30
0.0
 0
VERTEX
 8
PARTS
 10
  2.6000
 20
  4.7000
 30
0.0
 0
SEQEND
 8
PARTS
 0
TEXT
 8
PARTTEXT
 10
  6.4000
 20
  2.5186
 30
0.0
 40
  0.0514
 1
R41
 0
TEXT
 8
PARTTEXT
 10
  6.4000
 20
  2.4186
 30
0.0
 40
  0.0514
 1
10K
 0
LINE
 8
PARTS
 10
  6.3000
 20
  2.7000
 30
0.0
 11
  6.3000
 21
  2.6000
 31
0.0
 0
LINE
 8
PARTS
 10
  6.3000
 20
  2.2000
 30
0.0
 11
  6.3000
 21
  2.3000
 31
0.0
 0
POLYLINE
 8
PARTS
 66
1
 10
0.0
 20
0.0
 30
0.0
 0
VERTEX
 8
PARTS
 10
  6.3000
 20
  2.6000
 30
0.0
 0
VERTEX
 8
PARTS
 10
  6.3300
 20
  2.5700
 30
0.0
 0
SEQEND
 8
PARTS
 0
POLYLINE
 8
PARTS
 66
1
 10
0.0
 20
0.0
 30
0.0
 0
VERTEX
 8
PARTS
 10
  6.3300
 20
  2.5700
 30
0.0
 0
VERTEX
 8
PARTS
 10
  6.2700
 20
  2.5100
 30
0.0
 0
SEQEND
 8
PARTS
 0
POLYLINE
 8
PARTS
 66
1
 10
0.0
 20
0.0
 30
0.0
 0
VERTEX
 8
PARTS
 10
  6.2700
 20
  2.5100
 30
0.0
 0
VERTEX
 8
PARTS
 10
  6.3300
 20
  2.4500
 30
0.0
 0
SEQEND
 8
PARTS
 0
POLYLINE
 8
PARTS
 66
1
 10
0.0
 20
0.0
 30
0.0
 0
VERTEX
 8
PARTS
 10
  6.3300
 20
  2.4500
 30
0.0
 0
VERTEX
 8
PARTS
 10
  6.2700
 20
  2.3900
 30
0.0
 0
SEQEND
 8
PARTS
 0
POLYLINE
 8
PARTS
 66
1
 10
0.0
 20
0.0
 30
0.0
 0
VERTEX
 8
PARTS
 10
  6.2700
 20
  2.3900
 30
0.0
 0
VERTEX
 8
PARTS
 10
  6.3300
 20
  2.3300
 30
0.0
 0
SEQEND
 8
PARTS
 0
POLYLINE
 8
PARTS
 66
1
 10
0.0
 20
0.0
 30
0.0
 0
VERTEX
 8
PARTS
 10
  6.3300
 20
  2.3300
 30
0.0
 0
VERTEX
 8
PARTS
 10
  6.3000
 20
  2.3000
 30
0.0
 0
SEQEND
 8
PARTS
 0
TEXT
 8
PARTTEXT
 10
  2.8000
 20
  1.8186
 30
0.0
 40
  0.0514
 1
R39
 0
TEXT
 8
PARTTEXT
 10
  2.8000
 20
  1.7186
 30
0.0
 40
  0.0514
 1
10K
 0
LINE
 8
PARTS
 10
  2.7000
 20
  2.0000
 30
0.0
 11
  2.7000
 21
  1.9000
 31
0.0
 0
LINE
 8
PARTS
 10
  2.7000
 20
  1.5000
 30
0.0
 11
  2.7000
 21
  1.6000
 31
0.0
 0
POLYLINE
 8
PARTS
 66
1
 10
0.0
 20
0.0
 30
0.0
 0
VERTEX
 8
PARTS
 10
  2.7000
 20
  1.9000
 30
0.0
 0
VERTEX
 8
PARTS
 10
  2.7300
 20
  1.8700
 30
0.0
 0
SEQEND
 8
PARTS
 0
POLYLINE
 8
PARTS
 66
1
 10
0.0
 20
0.0
 30
0.0
 0
VERTEX
 8
PARTS
 10
  2.7300
 20
  1.8700
 30
0.0
 0
VERTEX
 8
PARTS
 10
  2.6700
 20
  1.8100
 30
0.0
 0
SEQEND
 8
PARTS
 0
POLYLINE
 8
PARTS
 66
1
 10
0.0
 20
0.0
 30
0.0
 0
VERTEX
 8
PARTS
 10
  2.6700
 20
  1.8100
 30
0.0
 0
VERTEX
 8
PARTS
 10
  2.7300
 20
  1.7500
 30
0.0
 0
SEQEND
 8
PARTS
 0
POLYLINE
 8
PARTS
 66
1
 10
0.0
 20
0.0
 30
0.0
 0
VERTEX
 8
PARTS
 10
  2.7300
 20
  1.7500
 30
0.0
 0
VERTEX
 8
PARTS
 10
  2.6700
 20
  1.6900
 30
0.0
 0
SEQEND
 8
PARTS
 0
POLYLINE
 8
PARTS
 66
1
 10
0.0
 20
0.0
 30
0.0
 0
VERTEX
 8
PARTS
 10
  2.6700
 20
  1.6900
 30
0.0
 0
VERTEX
 8
PARTS
 10
  2.7300
 20
  1.6300
 30
0.0
 0
SEQEND
 8
PARTS
 0
POLYLINE
 8
PARTS
 66
1
 10
0.0
 20
0.0
 30
0.0
 0
VERTEX
 8
PARTS
 10
  2.7300
 20
  1.6300
 30
0.0
 0
VERTEX
 8
PARTS
 10
  2.7000
 20
  1.6000
 30
0.0
 0
SEQEND
 8
PARTS
 0
TEXT
 8
PARTTEXT
 10
  6.6900
 20
  6.1186
 30
0.0
 40
  0.0514
 1
C32
 0
TEXT
 8
PARTTEXT
 10
  6.6900
 20
  6.0286
 30
0.0
 40
  0.0514
 1
0.1uF
 0
LINE
 8
PARTS
 10
  6.5000
 20
  6.3000
 30
0.0
 11
  6.5000
 21
  6.2000
 31
0.0
 0
LINE
 8
PARTS
 10
  6.5000
 20
  6.0000
 30
0.0
 11
  6.5000
 21
  6.1000
 31
0.0
 0
POLYLINE
 8
PARTS
 66
1
 10
0.0
 20
0.0
 30
0.0
 0
VERTEX
 8
PARTS
 10
  6.5000
 20
  6.2000
 30
0.0
 0
VERTEX
 8
PARTS
 10
  6.5000
 20
  6.1800
 30
0.0
 0
SEQEND
 8
PARTS
 0
POLYLINE
 8
PARTS
 66
1
 10
0.0
 20
0.0
 30
0.0
 0
VERTEX
 8
PARTS
 10
  6.4100
 20
  6.1300
 30
0.0
 0
VERTEX
 8
PARTS
 10
  6.5900
 20
  6.1300
 30
0.0
 0
SEQEND
 8
PARTS
 0
POLYLINE
 8
PARTS
 66
1
 10
0.0
 20
0.0
 30
0.0
 0
VERTEX
 8
PARTS
 10
  6.4100
 20
  6.1800
 30
0.0
 0
VERTEX
 8
PARTS
 10
  6.5900
 20
  6.1800
 30
0.0
 0
SEQEND
 8
PARTS
 0
POLYLINE
 8
PARTS
 66
1
 10
0.0
 20
0.0
 30
0.0
 0
VERTEX
 8
PARTS
 10
  6.5000
 20
  6.1000
 30
0.0
 0
VERTEX
 8
PARTS
 10
  6.5000
 20
  6.1300
 30
0.0
 0
SEQEND
 8
PARTS
 0
TEXT
 8
PARTTEXT
 10
  2.1000
 20
  2.5686
 30
0.0
 40
  0.0514
 1
J16
 0
TEXT
 8
PARTTEXT
 10
  2.1000
 20
  1.7586
 30
0.0
 40
  0.0514
 1
HEADER 3
 0
LINE
 8
PARTS
 10
  2.7000
 20
  2.3000
 30
0.0
 11
  2.4000
 21
  2.3000
 31
0.0
 0
TEXT
 8
PARTS
 10
  2.4600
 20
  2.3300
 30
0.0
 40
  0.0500
 1
1
 0
LINE
 8
PARTS
 10
  2.7000
 20
  2.2000
 30
0.0
 11
  2.4000
 21
  2.2000
 31
0.0
 0
TEXT
 8
PARTS
 10
  2.4600
 20
  2.2300
 30
0.0
 40
  0.0500
 1
2
 0
LINE
 8
PARTS
 10
  2.7000
 20
  2.1000
 30
0.0
 11
  2.4000
 21
  2.1000
 31
0.0
 0
TEXT
 8
PARTS
 10
  2.4600
 20
  2.1300
 30
0.0
 40
  0.0500
 1
3
 0
POLYLINE
 8
PARTS
 66
1
 70
1
 10
0.0
 20
0.0
 30
0.0
 0
VERTEX
 8
PARTS
 10
  2.1000
 20
  2.4000
 30
0.0
 0
VERTEX
 8
PARTS
 10
  2.4000
 20
  2.4000
 30
0.0
 0
VERTEX
 8
PARTS
 10
  2.4000
 20
  2.0000
 30
0.0
 0
VERTEX
 8
PARTS
 10
  2.1000
 20
  2.0000
 30
0.0
 0
SEQEND
 8
PARTS
 0
POLYLINE
 8
PARTS
 66
1
 10
0.0
 20
0.0
 30
0.0
 0
VERTEX
 8
PARTS
 10
  2.3000
 20
  2.4000
 30
0.0
 0
VERTEX
 8
PARTS
 10
  2.3100
 20
  2.4000
 30
0.0
 0
VERTEX
 8
PARTS
 10
  2.3100
 20
  2.4500
 30
0.0
 0
VERTEX
 8
PARTS
 10
  2.1900
 20
  2.4500
 30
0.0
 0
VERTEX
 8
PARTS
 10
  2.1900
 20
  2.4000
 30
0.0
 0
SEQEND
 8
PARTS
 0
POLYLINE
 8
PARTS
 66
1
 10
0.0
 20
0.0
 30
0.0
 0
VERTEX
 8
PARTS
 10
  2.2000
 20
  2.0000
 30
0.0
 0
VERTEX
 8
PARTS
 10
  2.1900
 20
  2.0000
 30
0.0
 0
VERTEX
 8
PARTS
 10
  2.1900
 20
  1.9500
 30
0.0
 0
VERTEX
 8
PARTS
 10
  2.3100
 20
  1.9500
 30
0.0
 0
VERTEX
 8
PARTS
 10
  2.3100
 20
  2.0000
 30
0.0
 0
SEQEND
 8
PARTS
 0
TEXT
 8
PARTTEXT
 10
  6.5900
 20
  3.4186
 30
0.0
 40
  0.0514
 1
C34
 0
TEXT
 8
PARTTEXT
 10
  6.5900
 20
  3.3286
 30
0.0
 40
  0.0514
 1
0.1uF
 0
LINE
 8
PARTS
 10
  6.4000
 20
  3.6000
 30
0.0
 11
  6.4000
 21
  3.5000
 31
0.0
 0
LINE
 8
PARTS
 10
  6.4000
 20
  3.3000
 30
0.0
 11
  6.4000
 21
  3.4000
 31
0.0
 0
POLYLINE
 8
PARTS
 66
1
 10
0.0
 20
0.0
 30
0.0
 0
VERTEX
 8
PARTS
 10
  6.4000
 20
  3.5000
 30
0.0
 0
VERTEX
 8
PARTS
 10
  6.4000
 20
  3.4800
 30
0.0
 0
SEQEND
 8
PARTS
 0
POLYLINE
 8
PARTS
 66
1
 10
0.0
 20
0.0
 30
0.0
 0
VERTEX
 8
PARTS
 10
  6.3100
 20
  3.4300
 30
0.0
 0
VERTEX
 8
PARTS
 10
  6.4900
 20
  3.4300
 30
0.0
 0
SEQEND
 8
PARTS
 0
POLYLINE
 8
PARTS
 66
1
 10
0.0
 20
0.0
 30
0.0
 0
VERTEX
 8
PARTS
 10
  6.3100
 20
  3.4800
 30
0.0
 0
VERTEX
 8
PARTS
 10
  6.4900
 20
  3.4800
 30
0.0
 0
SEQEND
 8
PARTS
 0
POLYLINE
 8
PARTS
 66
1
 10
0.0
 20
0.0
 30
0.0
 0
VERTEX
 8
PARTS
 10
  6.4000
 20
  3.4000
 30
0.0
 0
VERTEX
 8
PARTS
 10
  6.4000
 20
  3.4300
 30
0.0
 0
SEQEND
 8
PARTS
 0
TEXT
 8
PARTTEXT
 10
  0.9000
 20
  6.0686
 30
0.0
 40
  0.0514
 1
J14
 0
TEXT
 8
PARTTEXT
 10
  0.9000
 20
  5.2586
 30
0.0
 40
  0.0514
 1
HEADER 3
 0
LINE
 8
PARTS
 10
  1.5000
 20
  5.8000
 30
0.0
 11
  1.2000
 21
  5.8000
 31
0.0
 0
TEXT
 8
PARTS
 10
  1.2600
 20
  5.8300
 30
0.0
 40
  0.0500
 1
1
 0
LINE
 8
PARTS
 10
  1.5000
 20
  5.7000
 30
0.0
 11
  1.2000
 21
  5.7000
 31
0.0
 0
TEXT
 8
PARTS
 10
  1.2600
 20
  5.7300
 30
0.0
 40
  0.0500
 1
2
 0
LINE
 8
PARTS
 10
  1.5000
 20
  5.6000
 30
0.0
 11
  1.2000
 21
  5.6000
 31
0.0
 0
TEXT
 8
PARTS
 10
  1.2600
 20
  5.6300
 30
0.0
 40
  0.0500
 1
3
 0
POLYLINE
 8
PARTS
 66
1
 70
1
 10
0.0
 20
0.0
 30
0.0
 0
VERTEX
 8
PARTS
 10
  0.9000
 20
  5.9000
 30
0.0
 0
VERTEX
 8
PARTS
 10
  1.2000
 20
  5.9000
 30
0.0
 0
VERTEX
 8
PARTS
 10
  1.2000
 20
  5.5000
 30
0.0
 0
VERTEX
 8
PARTS
 10
  0.9000
 20
  5.5000
 30
0.0
 0
SEQEND
 8
PARTS
 0
POLYLINE
 8
PARTS
 66
1
 10
0.0
 20
0.0
 30
0.0
 0
VERTEX
 8
PARTS
 10
  1.1000
 20
  5.9000
 30
0.0
 0
VERTEX
 8
PARTS
 10
  1.1100
 20
  5.9000
 30
0.0
 0
VERTEX
 8
PARTS
 10
  1.1100
 20
  5.9500
 30
0.0
 0
VERTEX
 8
PARTS
 10
  0.9900
 20
  5.9500
 30
0.0
 0
VERTEX
 8
PARTS
 10
  0.9900
 20
  5.9000
 30
0.0
 0
SEQEND
 8
PARTS
 0
POLYLINE
 8
PARTS
 66
1
 10
0.0
 20
0.0
 30
0.0
 0
VERTEX
 8
PARTS
 10
  1.0000
 20
  5.5000
 30
0.0
 0
VERTEX
 8
PARTS
 10
  0.9900
 20
  5.5000
 30
0.0
 0
VERTEX
 8
PARTS
 10
  0.9900
 20
  5.4500
 30
0.0
 0
VERTEX
 8
PARTS
 10
  1.1100
 20
  5.4500
 30
0.0
 0
VERTEX
 8
PARTS
 10
  1.1100
 20
  5.5000
 30
0.0
 0
SEQEND
 8
PARTS
 0
TEXT
 8
PARTTEXT
 10
  1.6000
 20
  5.3186
 30
0.0
 40
  0.0514
 1
R37
 0
TEXT
 8
PARTTEXT
 10
  1.6000
 20
  5.2186
 30
0.0
 40
  0.0514
 1
10K
 0
LINE
 8
PARTS
 10
  1.5000
 20
  5.5000
 30
0.0
 11
  1.5000
 21
  5.4000
 31
0.0
 0
LINE
 8
PARTS
 10
  1.5000
 20
  5.0000
 30
0.0
 11
  1.5000
 21
  5.1000
 31
0.0
 0
POLYLINE
 8
PARTS
 66
1
 10
0.0
 20
0.0
 30
0.0
 0
VERTEX
 8
PARTS
 10
  1.5000
 20
  5.4000
 30
0.0
 0
VERTEX
 8
PARTS
 10
  1.5300
 20
  5.3700
 30
0.0
 0
SEQEND
 8
PARTS
 0
POLYLINE
 8
PARTS
 66
1
 10
0.0
 20
0.0
 30
0.0
 0
VERTEX
 8
PARTS
 10
  1.5300
 20
  5.3700
 30
0.0
 0
VERTEX
 8
PARTS
 10
  1.4700
 20
  5.3100
 30
0.0
 0
SEQEND
 8
PARTS
 0
POLYLINE
 8
PARTS
 66
1
 10
0.0
 20
0.0
 30
0.0
 0
VERTEX
 8
PARTS
 10
  1.4700
 20
  5.3100
 30
0.0
 0
VERTEX
 8
PARTS
 10
  1.5300
 20
  5.2500
 30
0.0
 0
SEQEND
 8
PARTS
 0
POLYLINE
 8
PARTS
 66
1
 10
0.0
 20
0.0
 30
0.0
 0
VERTEX
 8
PARTS
 10
  1.5300
 20
  5.2500
 30
0.0
 0
VERTEX
 8
PARTS
 10
  1.4700
 20
  5.1900
 30
0.0
 0
SEQEND
 8
PARTS
 0
POLYLINE
 8
PARTS
 66
1
 10
0.0
 20
0.0
 30
0.0
 0
VERTEX
 8
PARTS
 10
  1.4700
 20
  5.1900
 30
0.0
 0
VERTEX
 8
PARTS
 10
  1.5300
 20
  5.1300
 30
0.0
 0
SEQEND
 8
PARTS
 0
POLYLINE
 8
PARTS
 66
1
 10
0.0
 20
0.0
 30
0.0
 0
VERTEX
 8
PARTS
 10
  1.5300
 20
  5.1300
 30
0.0
 0
VERTEX
 8
PARTS
 10
  1.5000
 20
  5.1000
 30
0.0
 0
SEQEND
 8
PARTS
 0
TEXT
 8
PARTTEXT
 10
  1.0000
 20
  3.4686
 30
0.0
 40
  0.0514
 1
J17
 0
TEXT
 8
PARTTEXT
 10
  1.0000
 20
  2.6586
 30
0.0
 40
  0.0514
 1
HEADER 3
 0
LINE
 8
PARTS
 10
  1.6000
 20
  3.2000
 30
0.0
 11
  1.3000
 21
  3.2000
 31
0.0
 0
TEXT
 8
PARTS
 10
  1.3600
 20
  3.2300
 30
0.0
 40
  0.0500
 1
1
 0
LINE
 8
PARTS
 10
  1.6000
 20
  3.1000
 30
0.0
 11
  1.3000
 21
  3.1000
 31
0.0
 0
TEXT
 8
PARTS
 10
  1.3600
 20
  3.1300
 30
0.0
 40
  0.0500
 1
2
 0
LINE
 8
PARTS
 10
  1.6000
 20
  3.0000
 30
0.0
 11
  1.3000
 21
  3.0000
 31
0.0
 0
TEXT
 8
PARTS
 10
  1.3600
 20
  3.0300
 30
0.0
 40
  0.0500
 1
3
 0
POLYLINE
 8
PARTS
 66
1
 70
1
 10
0.0
 20
0.0
 30
0.0
 0
VERTEX
 8
PARTS
 10
  1.0000
 20
  3.3000
 30
0.0
 0
VERTEX
 8
PARTS
 10
  1.3000
 20
  3.3000
 30
0.0
 0
VERTEX
 8
PARTS
 10
  1.3000
 20
  2.9000
 30
0.0
 0
VERTEX
 8
PARTS
 10
  1.0000
 20
  2.9000
 30
0.0
 0
SEQEND
 8
PARTS
 0
POLYLINE
 8
PARTS
 66
1
 10
0.0
 20
0.0
 30
0.0
 0
VERTEX
 8
PARTS
 10
  1.2000
 20
  3.3000
 30
0.0
 0
VERTEX
 8
PARTS
 10
  1.2100
 20
  3.3000
 30
0.0
 0
VERTEX
 8
PARTS
 10
  1.2100
 20
  3.3500
 30
0.0
 0
VERTEX
 8
PARTS
 10
  1.0900
 20
  3.3500
 30
0.0
 0
VERTEX
 8
PARTS
 10
  1.0900
 20
  3.3000
 30
0.0
 0
SEQEND
 8
PARTS
 0
POLYLINE
 8
PARTS
 66
1
 10
0.0
 20
0.0
 30
0.0
 0
VERTEX
 8
PARTS
 10
  1.1000
 20
  2.9000
 30
0.0
 0
VERTEX
 8
PARTS
 10
  1.0900
 20
  2.9000
 30
0.0
 0
VERTEX
 8
PARTS
 10
  1.0900
 20
  2.8500
 30
0.0
 0
VERTEX
 8
PARTS
 10
  1.2100
 20
  2.8500
 30
0.0
 0
VERTEX
 8
PARTS
 10
  1.2100
 20
  2.9000
 30
0.0
 0
SEQEND
 8
PARTS
 0
TEXT
 8
PARTTEXT
 10
  7.1900
 20
  3.4186
 30
0.0
 40
  0.0514
 1
C35
 0
TEXT
 8
PARTTEXT
 10
  7.1900
 20
  3.3286
 30
0.0
 40
  0.0514
 1
0.1uF
 0
LINE
 8
PARTS
 10
  7.0000
 20
  3.6000
 30
0.0
 11
  7.0000
 21
  3.5000
 31
0.0
 0
LINE
 8
PARTS
 10
  7.0000
 20
  3.3000
 30
0.0
 11
  7.0000
 21
  3.4000
 31
0.0
 0
POLYLINE
 8
PARTS
 66
1
 10
0.0
 20
0.0
 30
0.0
 0
VERTEX
 8
PARTS
 10
  7.0000
 20
  3.5000
 30
0.0
 0
VERTEX
 8
PARTS
 10
  7.0000
 20
  3.4800
 30
0.0
 0
SEQEND
 8
PARTS
 0
POLYLINE
 8
PARTS
 66
1
 10
0.0
 20
0.0
 30
0.0
 0
VERTEX
 8
PARTS
 10
  6.9100
 20
  3.4300
 30
0.0
 0
VERTEX
 8
PARTS
 10
  7.0900
 20
  3.4300
 30
0.0
 0
SEQEND
 8
PARTS
 0
POLYLINE
 8
PARTS
 66
1
 10
0.0
 20
0.0
 30
0.0
 0
VERTEX
 8
PARTS
 10
  6.9100
 20
  3.4800
 30
0.0
 0
VERTEX
 8
PARTS
 10
  7.0900
 20
  3.4800
 30
0.0
 0
SEQEND
 8
PARTS
 0
POLYLINE
 8
PARTS
 66
1
 10
0.0
 20
0.0
 30
0.0
 0
VERTEX
 8
PARTS
 10
  7.0000
 20
  3.4000
 30
0.0
 0
VERTEX
 8
PARTS
 10
  7.0000
 20
  3.4300
 30
0.0
 0
SEQEND
 8
PARTS
 0
TEXT
 8
PARTTEXT
 10
  4.1700
 20
  6.7686
 30
0.0
 40
  0.0514
 1
U2
 0
TEXT
 8
PARTTEXT
 10
  3.8800
 20
  6.6686
 30
0.0
 40
  0.0514
 1
ADUM3401CRWZ
 0
LINE
 8
PARTS
 10
  3.0000
 20
  6.4000
 30
0.0
 11
  3.3000
 21
  6.4000
 31
0.0
 0
TEXT
 8
PARTS
 10
  3.3900
 20
  6.3750
 30
0.0
 40
  0.0500
 1
VDD1
 0
TEXT
 8
PARTS
 10
  3.2000
 20
  6.4300
 30
0.0
 40
  0.0500
 1
1
 0
LINE
 8
PARTS
 10
  5.4000
 20
  6.0000
 30
0.0
 11
  5.1000
 21
  6.0000
 31
0.0
 0
TEXT
 8
PARTS
 10
  4.8500
 20
  5.9750
 30
0.0
 40
  0.0500
 1
GND1
 0
TEXT
 8
PARTS
 10
  5.1600
 20
  6.0300
 30
0.0
 40
  0.0500
 1
2
 0
LINE
 8
PARTS
 10
  3.0000
 20
  6.1000
 30
0.0
 11
  3.3000
 21
  6.1000
 31
0.0
 0
TEXT
 8
PARTS
 10
  3.3900
 20
  6.0750
 30
0.0
 40
  0.0500
 1
VIA
 0
TEXT
 8
PARTS
 10
  3.2000
 20
  6.1300
 30
0.0
 40
  0.0500
 1
3
 0
LINE
 8
PARTS
 10
  3.0000
 20
  6.0000
 30
0.0
 11
  3.3000
 21
  6.0000
 31
0.0
 0
TEXT
 8
PARTS
 10
  3.3900
 20
  5.9750
 30
0.0
 40
  0.0500
 1
VIB
 0
TEXT
 8
PARTS
 10
  3.2000
 20
  6.0300
 30
0.0
 40
  0.0500
 1
4
 0
LINE
 8
PARTS
 10
  3.0000
 20
  5.9000
 30
0.0
 11
  3.3000
 21
  5.9000
 31
0.0
 0
TEXT
 8
PARTS
 10
  3.3900
 20
  5.8750
 30
0.0
 40
  0.0500
 1
VIC
 0
TEXT
 8
PARTS
 10
  3.2000
 20
  5.9300
 30
0.0
 40
  0.0500
 1
5
 0
LINE
 8
PARTS
 10
  5.4000
 20
  5.8000
 30
0.0
 11
  5.1000
 21
  5.8000
 31
0.0
 0
TEXT
 8
PARTS
 10
  4.8900
 20
  5.7750
 30
0.0
 40
  0.0500
 1
VOD
 0
TEXT
 8
PARTS
 10
  5.1600
 20
  5.8300
 30
0.0
 40
  0.0500
 1
6
 0
LINE
 8
PARTS
 10
  3.0000
 20
  5.6000
 30
0.0
 11
  3.3000
 21
  5.6000
 31
0.0
 0
TEXT
 8
PARTS
 10
  3.3900
 20
  5.5750
 30
0.0
 40
  0.0500
 1
VE1
 0
TEXT
 8
PARTS
 10
  3.2000
 20
  5.6300
 30
0.0
 40
  0.0500
 1
7
 0
LINE
 8
PARTS
 10
  5.4000
 20
  6.1000
 30
0.0
 11
  5.1000
 21
  6.1000
 31
0.0
 0
TEXT
 8
PARTS
 10
  4.7700
 20
  6.0750
 30
0.0
 40
  0.0500
 1
GND1_1
 0
TEXT
 8
PARTS
 10
  5.1600
 20
  6.1300
 30
0.0
 40
  0.0500
 1
8
 0
LINE
 8
PARTS
 10
  5.4000
 20
  6.2000
 30
0.0
 11
  5.1000
 21
  6.2000
 31
0.0
 0
TEXT
 8
PARTS
 10
  4.8500
 20
  6.1750
 30
0.0
 40
  0.0500
 1
GND2
 0
TEXT
 8
PARTS
 10
  5.1600
 20
  6.2300
 30
0.0
 40
  0.0500
 1
9
 0
LINE
 8
PARTS
 10
  3.0000
 20
  5.5000
 30
0.0
 11
  3.3000
 21
  5.5000
 31
0.0
 0
TEXT
 8
PARTS
 10
  3.3900
 20
  5.4750
 30
0.0
 40
  0.0500
 1
VE2
 0
TEXT
 8
PARTS
 10
  3.1600
 20
  5.5300
 30
0.0
 40
  0.0500
 1
10
 0
LINE
 8
PARTS
 10
  3.0000
 20
  5.8000
 30
0.0
 11
  3.3000
 21
  5.8000
 31
0.0
 0
TEXT
 8
PARTS
 10
  3.3900
 20
  5.7750
 30
0.0
 40
  0.0500
 1
VID
 0
TEXT
 8
PARTS
 10
  3.1600
 20
  5.8300
 30
0.0
 40
  0.0500
 1
11
 0
LINE
 8
PARTS
 10
  5.4000
 20
  5.7000
 30
0.0
 11
  5.1000
 21
  5.7000
 31
0.0
 0
TEXT
 8
PARTS
 10
  4.8900
 20
  5.6750
 30
0.0
 40
  0.0500
 1
VOC
 0
TEXT
 8
PARTS
 10
  5.1600
 20
  5.7300
 30
0.0
 40
  0.0500
 1
12
 0
LINE
 8
PARTS
 10
  5.4000
 20
  5.6000
 30
0.0
 11
  5.1000
 21
  5.6000
 31
0.0
 0
TEXT
 8
PARTS
 10
  4.8900
 20
  5.5750
 30
0.0
 40
  0.0500
 1
VOB
 0
TEXT
 8
PARTS
 10
  5.1600
 20
  5.6300
 30
0.0
 40
  0.0500
 1
13
 0
LINE
 8
PARTS
 10
  5.4000
 20
  5.5000
 30
0.0
 11
  5.1000
 21
  5.5000
 31
0.0
 0
TEXT
 8
PARTS
 10
  4.8900
 20
  5.4750
 30
0.0
 40
  0.0500
 1
VOA
 0
TEXT
 8
PARTS
 10
  5.1600
 20
  5.5300
 30
0.0
 40
  0.0500
 1
14
 0
LINE
 8
PARTS
 10
  5.4000
 20
  6.3000
 30
0.0
 11
  5.1000
 21
  6.3000
 31
0.0
 0
TEXT
 8
PARTS
 10
  4.7700
 20
  6.2750
 30
0.0
 40
  0.0500
 1
GND2_1
 0
TEXT
 8
PARTS
 10
  5.1600
 20
  6.3300
 30
0.0
 40
  0.0500
 1
15
 0
LINE
 8
PARTS
 10
  3.0000
 20
  6.3000
 30
0.0
 11
  3.3000
 21
  6.3000
 31
0.0
 0
TEXT
 8
PARTS
 10
  3.3900
 20
  6.2750
 30
0.0
 40
  0.0500
 1
VDD2
 0
TEXT
 8
PARTS
 10
  3.1600
 20
  6.3300
 30
0.0
 40
  0.0500
 1
16
 0
POLYLINE
 8
PARTS
 66
1
 10
0.0
 20
0.0
 30
0.0
 0
VERTEX
 8
PARTS
 10
  3.3000
 20
  6.6000
 30
0.0
 0
VERTEX
 8
PARTS
 10
  3.3000
 20
  5.3000
 30
0.0
 0
SEQEND
 8
PARTS
 0
POLYLINE
 8
PARTS
 66
1
 10
0.0
 20
0.0
 30
0.0
 0
VERTEX
 8
PARTS
 10
  3.3000
 20
  5.3000
 30
0.0
 0
VERTEX
 8
PARTS
 10
  5.1000
 20
  5.3000
 30
0.0
 0
SEQEND
 8
PARTS
 0
POLYLINE
 8
PARTS
 66
1
 10
0.0
 20
0.0
 30
0.0
 0
VERTEX
 8
PARTS
 10
  5.1000
 20
  5.3000
 30
0.0
 0
VERTEX
 8
PARTS
 10
  5.1000
 20
  6.6000
 30
0.0
 0
SEQEND
 8
PARTS
 0
POLYLINE
 8
PARTS
 66
1
 10
0.0
 20
0.0
 30
0.0
 0
VERTEX
 8
PARTS
 10
  5.1000
 20
  6.6000
 30
0.0
 0
VERTEX
 8
PARTS
 10
  3.3000
 20
  6.6000
 30
0.0
 0
SEQEND
 8
PARTS
 0
POLYLINE
 8
PARTS
 66
1
 10
0.0
 20
0.0
 30
0.0
 0
VERTEX
 8
PARTS
 10
  3.3000
 20
  6.4000
 30
0.0
 0
VERTEX
 8
PARTS
 10
  3.3000
 20
  6.4000
 30
0.0
 0
SEQEND
 8
PARTS
 0
POLYLINE
 8
PARTS
 66
1
 10
0.0
 20
0.0
 30
0.0
 0
VERTEX
 8
PARTS
 10
  3.3000
 20
  6.3000
 30
0.0
 0
VERTEX
 8
PARTS
 10
  3.3000
 20
  6.3000
 30
0.0
 0
SEQEND
 8
PARTS
 0
POLYLINE
 8
PARTS
 66
1
 10
0.0
 20
0.0
 30
0.0
 0
VERTEX
 8
PARTS
 10
  3.3000
 20
  6.1000
 30
0.0
 0
VERTEX
 8
PARTS
 10
  3.3000
 20
  6.1000
 30
0.0
 0
SEQEND
 8
PARTS
 0
POLYLINE
 8
PARTS
 66
1
 10
0.0
 20
0.0
 30
0.0
 0
VERTEX
 8
PARTS
 10
  3.3000
 20
  6.0000
 30
0.0
 0
VERTEX
 8
PARTS
 10
  3.3000
 20
  6.0000
 30
0.0
 0
SEQEND
 8
PARTS
 0
POLYLINE
 8
PARTS
 66
1
 10
0.0
 20
0.0
 30
0.0
 0
VERTEX
 8
PARTS
 10
  3.3000
 20
  5.9000
 30
0.0
 0
VERTEX
 8
PARTS
 10
  3.3000
 20
  5.9000
 30
0.0
 0
SEQEND
 8
PARTS
 0
POLYLINE
 8
PARTS
 66
1
 10
0.0
 20
0.0
 30
0.0
 0
VERTEX
 8
PARTS
 10
  3.3000
 20
  5.8000
 30
0.0
 0
VERTEX
 8
PARTS
 10
  3.3000
 20
  5.8000
 30
0.0
 0
SEQEND
 8
PARTS
 0
POLYLINE
 8
PARTS
 66
1
 10
0.0
 20
0.0
 30
0.0
 0
VERTEX
 8
PARTS
 10
  3.3000
 20
  5.6000
 30
0.0
 0
VERTEX
 8
PARTS
 10
  3.3000
 20
  5.6000
 30
0.0
 0
SEQEND
 8
PARTS
 0
POLYLINE
 8
PARTS
 66
1
 10
0.0
 20
0.0
 30
0.0
 0
VERTEX
 8
PARTS
 10
  3.3000
 20
  5.5000
 30
0.0
 0
VERTEX
 8
PARTS
 10
  3.3000
 20
  5.5000
 30
0.0
 0
SEQEND
 8
PARTS
 0
POLYLINE
 8
PARTS
 66
1
 10
0.0
 20
0.0
 30
0.0
 0
VERTEX
 8
PARTS
 10
  5.1000
 20
  5.5000
 30
0.0
 0
VERTEX
 8
PARTS
 10
  5.1000
 20
  5.5000
 30
0.0
 0
SEQEND
 8
PARTS
 0
POLYLINE
 8
PARTS
 66
1
 10
0.0
 20
0.0
 30
0.0
 0
VERTEX
 8
PARTS
 10
  5.1000
 20
  5.6000
 30
0.0
 0
VERTEX
 8
PARTS
 10
  5.1000
 20
  5.6000
 30
0.0
 0
SEQEND
 8
PARTS
 0
POLYLINE
 8
PARTS
 66
1
 10
0.0
 20
0.0
 30
0.0
 0
VERTEX
 8
PARTS
 10
  5.1000
 20
  5.7000
 30
0.0
 0
VERTEX
 8
PARTS
 10
  5.1000
 20
  5.7000
 30
0.0
 0
SEQEND
 8
PARTS
 0
POLYLINE
 8
PARTS
 66
1
 10
0.0
 20
0.0
 30
0.0
 0
VERTEX
 8
PARTS
 10
  5.1000
 20
  5.8000
 30
0.0
 0
VERTEX
 8
PARTS
 10
  5.1000
 20
  5.8000
 30
0.0
 0
SEQEND
 8
PARTS
 0
POLYLINE
 8
PARTS
 66
1
 10
0.0
 20
0.0
 30
0.0
 0
VERTEX
 8
PARTS
 10
  5.1000
 20
  6.0000
 30
0.0
 0
VERTEX
 8
PARTS
 10
  5.1000
 20
  6.0000
 30
0.0
 0
SEQEND
 8
PARTS
 0
POLYLINE
 8
PARTS
 66
1
 10
0.0
 20
0.0
 30
0.0
 0
VERTEX
 8
PARTS
 10
  5.1000
 20
  6.1000
 30
0.0
 0
VERTEX
 8
PARTS
 10
  5.1000
 20
  6.1000
 30
0.0
 0
SEQEND
 8
PARTS
 0
POLYLINE
 8
PARTS
 66
1
 10
0.0
 20
0.0
 30
0.0
 0
VERTEX
 8
PARTS
 10
  5.1000
 20
  6.2000
 30
0.0
 0
VERTEX
 8
PARTS
 10
  5.1000
 20
  6.2000
 30
0.0
 0
SEQEND
 8
PARTS
 0
POLYLINE
 8
PARTS
 66
1
 10
0.0
 20
0.0
 30
0.0
 0
VERTEX
 8
PARTS
 10
  5.1000
 20
  6.3000
 30
0.0
 0
VERTEX
 8
PARTS
 10
  5.1000
 20
  6.3000
 30
0.0
 0
SEQEND
 8
PARTS
 0
TEXT
 8
PARTTEXT
 10
  7.3900
 20
  6.1186
 30
0.0
 40
  0.0514
 1
C33
 0
TEXT
 8
PARTTEXT
 10
  7.3900
 20
  6.0286
 30
0.0
 40
  0.0514
 1
0.1uF
 0
LINE
 8
PARTS
 10
  7.2000
 20
  6.3000
 30
0.0
 11
  7.2000
 21
  6.2000
 31
0.0
 0
LINE
 8
PARTS
 10
  7.2000
 20
  6.0000
 30
0.0
 11
  7.2000
 21
  6.1000
 31
0.0
 0
POLYLINE
 8
PARTS
 66
1
 10
0.0
 20
0.0
 30
0.0
 0
VERTEX
 8
PARTS
 10
  7.2000
 20
  6.2000
 30
0.0
 0
VERTEX
 8
PARTS
 10
  7.2000
 20
  6.1800
 30
0.0
 0
SEQEND
 8
PARTS
 0
POLYLINE
 8
PARTS
 66
1
 10
0.0
 20
0.0
 30
0.0
 0
VERTEX
 8
PARTS
 10
  7.1100
 20
  6.1300
 30
0.0
 0
VERTEX
 8
PARTS
 10
  7.2900
 20
  6.1300
 30
0.0
 0
SEQEND
 8
PARTS
 0
POLYLINE
 8
PARTS
 66
1
 10
0.0
 20
0.0
 30
0.0
 0
VERTEX
 8
PARTS
 10
  7.1100
 20
  6.1800
 30
0.0
 0
VERTEX
 8
PARTS
 10
  7.2900
 20
  6.1800
 30
0.0
 0
SEQEND
 8
PARTS
 0
POLYLINE
 8
PARTS
 66
1
 10
0.0
 20
0.0
 30
0.0
 0
VERTEX
 8
PARTS
 10
  7.2000
 20
  6.1000
 30
0.0
 0
VERTEX
 8
PARTS
 10
  7.2000
 20
  6.1300
 30
0.0
 0
SEQEND
 8
PARTS
 0
POLYLINE
 8
WIRE
 66
1
 10
0.0
 20
0.0
 30
0.0
 0
VERTEX
 8
WIRE
 10
  5.5000
 20
  6.2000
 30
0.0
 0
VERTEX
 8
WIRE
 10
  5.4000
 20
  6.2000
 30
0.0
 0
SEQEND
 8
WIRE
 0
POLYLINE
 8
WIRE
 66
1
 10
0.0
 20
0.0
 30
0.0
 0
VERTEX
 8
WIRE
 10
  5.5000
 20
  6.2000
 30
0.0
 0
VERTEX
 8
WIRE
 10
  5.5000
 20
  6.3000
 30
0.0
 0
SEQEND
 8
WIRE
 0
POLYLINE
 8
WIRE
 66
1
 70
1
 10
0.0
 20
0.0
 30
0.0
 40
  0.0200
 41
  0.0200
 0
VERTEX
 8
WIRE
 10
  5.4900
 20
  6.3000
 30
0.0
 42
1.0
 0
VERTEX
 8
WIRE
 10
  5.5100
 20
  6.3000
 30
0.0
 42
1.0
 0
SEQEND
 8
WIRE
 0
POLYLINE
 8
WIRE
 66
1
 10
0.0
 20
0.0
 30
0.0
 0
VERTEX
 8
WIRE
 10
  5.5000
 20
  6.3000
 30
0.0
 0
VERTEX
 8
WIRE
 10
  5.4000
 20
  6.3000
 30
0.0
 0
SEQEND
 8
WIRE
 0
POLYLINE
 8
WIRE
 66
1
 10
0.0
 20
0.0
 30
0.0
 0
VERTEX
 8
WIRE
 10
  5.5000
 20
  6.3000
 30
0.0
 0
VERTEX
 8
WIRE
 10
  5.5000
 20
  6.7000
 30
0.0
 0
SEQEND
 8
WIRE
 0
TEXT
 8
WIRETEXT
 10
  5.5000
 20
  6.7300
 30
0.0
 40
  0.0514
 1
AGND
 0
POLYLINE
 8
WIRE
 66
1
 10
0.0
 20
0.0
 30
0.0
 0
VERTEX
 8
WIRE
 10
  5.7000
 20
  6.7000
 30
0.0
 0
VERTEX
 8
WIRE
 10
  5.5000
 20
  6.7000
 30
0.0
 0
SEQEND
 8
WIRE
 0
POLYLINE
 8
WIRE
 66
1
 10
0.0
 20
0.0
 30
0.0
 0
VERTEX
 8
WIRE
 10
  5.7000
 20
  6.5000
 30
0.0
 0
VERTEX
 8
WIRE
 10
  5.7000
 20
  6.7000
 30
0.0
 0
SEQEND
 8
WIRE
 0
POLYLINE
 8
WIRE
 66
1
 10
0.0
 20
0.0
 30
0.0
 0
VERTEX
 8
WIRE
 10
  3.0000
 20
  6.4000
 30
0.0
 0
VERTEX
 8
WIRE
 10
  2.6000
 20
  6.4000
 30
0.0
 0
SEQEND
 8
WIRE
 0
TEXT
 8
WIRETEXT
 10
  2.6000
 20
  6.4300
 30
0.0
 40
  0.0514
 1
MCU_VDD
 0
POLYLINE
 8
WIRE
 66
1
 10
0.0
 20
0.0
 30
0.0
 0
VERTEX
 8
WIRE
 10
  3.0000
 20
  6.3000
 30
0.0
 0
VERTEX
 8
WIRE
 10
  2.6000
 20
  6.3000
 30
0.0
 0
SEQEND
 8
WIRE
 0
TEXT
 8
WIRETEXT
 10
  2.7000
 20
  6.3300
 30
0.0
 40
  0.0514
 1
VDD2
 0
POLYLINE
 8
WIRE
 66
1
 10
0.0
 20
0.0
 30
0.0
 0
VERTEX
 8
WIRE
 10
  3.0000
 20
  6.1000
 30
0.0
 0
VERTEX
 8
WIRE
 10
  2.6000
 20
  6.1000
 30
0.0
 0
SEQEND
 8
WIRE
 0
TEXT
 8
WIRETEXT
 10
  2.6000
 20
  6.1300
 30
0.0
 40
  0.0514
 1
RESB_CTRL
 0
POLYLINE
 8
WIRE
 66
1
 10
0.0
 20
0.0
 30
0.0
 0
VERTEX
 8
WIRE
 10
  3.0000
 20
  6.0000
 30
0.0
 0
VERTEX
 8
WIRE
 10
  2.6000
 20
  6.0000
 30
0.0
 0
SEQEND
 8
WIRE
 0
TEXT
 8
WIRETEXT
 10
  2.6000
 20
  6.0300
 30
0.0
 40
  0.0514
 1
PM0_CTRL
 0
POLYLINE
 8
WIRE
 66
1
 10
0.0
 20
0.0
 30
0.0
 0
VERTEX
 8
WIRE
 10
  3.0000
 20
  5.9000
 30
0.0
 0
VERTEX
 8
WIRE
 10
  2.6000
 20
  5.9000
 30
0.0
 0
SEQEND
 8
WIRE
 0
TEXT
 8
WIRETEXT
 10
  2.6000
 20
  5.9300
 30
0.0
 40
  0.0514
 1
PM1_CTRL
 0
POLYLINE
 8
WIRE
 66
1
 10
0.0
 20
0.0
 30
0.0
 0
VERTEX
 8
WIRE
 10
  3.0000
 20
  5.8000
 30
0.0
 0
VERTEX
 8
WIRE
 10
  2.6000
 20
  5.8000
 30
0.0
 0
SEQEND
 8
WIRE
 0
TEXT
 8
WIRETEXT
 10
  2.6000
 20
  5.8300
 30
0.0
 40
  0.0514
 1
HSACTIVE
 0
POLYLINE
 8
WIRE
 66
1
 10
0.0
 20
0.0
 30
0.0
 0
VERTEX
 8
WIRE
 10
  3.0000
 20
  5.6000
 30
0.0
 0
VERTEX
 8
WIRE
 10
  2.6000
 20
  5.6000
 30
0.0
 0
SEQEND
 8
WIRE
 0
POLYLINE
 8
WIRE
 66
1
 10
0.0
 20
0.0
 30
0.0
 0
VERTEX
 8
WIRE
 10
  3.0000
 20
  5.5000
 30
0.0
 0
VERTEX
 8
WIRE
 10
  2.6000
 20
  5.5000
 30
0.0
 0
SEQEND
 8
WIRE
 0
POLYLINE
 8
WIRE
 66
1
 10
0.0
 20
0.0
 30
0.0
 0
VERTEX
 8
WIRE
 10
  5.8000
 20
  5.8000
 30
0.0
 0
VERTEX
 8
WIRE
 10
  5.4000
 20
  5.8000
 30
0.0
 0
SEQEND
 8
WIRE
 0
TEXT
 8
WIRETEXT
 10
  5.4000
 20
  5.8300
 30
0.0
 40
  0.0514
 1
HSO_ISO
 0
POLYLINE
 8
WIRE
 66
1
 10
0.0
 20
0.0
 30
0.0
 0
VERTEX
 8
WIRE
 10
  5.8000
 20
  5.7000
 30
0.0
 0
VERTEX
 8
WIRE
 10
  5.4000
 20
  5.7000
 30
0.0
 0
SEQEND
 8
WIRE
 0
TEXT
 8
WIRETEXT
 10
  5.5000
 20
  5.7300
 30
0.0
 40
  0.0514
 1
PX1
 0
POLYLINE
 8
WIRE
 66
1
 10
0.0
 20
0.0
 30
0.0
 0
VERTEX
 8
WIRE
 10
  5.8000
 20
  5.6000
 30
0.0
 0
VERTEX
 8
WIRE
 10
  5.4000
 20
  5.6000
 30
0.0
 0
SEQEND
 8
WIRE
 0
TEXT
 8
WIRETEXT
 10
  5.5000
 20
  5.6300
 30
0.0
 40
  0.0514
 1
PX0
 0
POLYLINE
 8
WIRE
 66
1
 10
0.0
 20
0.0
 30
0.0
 0
VERTEX
 8
WIRE
 10
  5.8000
 20
  5.5000
 30
0.0
 0
VERTEX
 8
WIRE
 10
  5.4000
 20
  5.5000
 30
0.0
 0
SEQEND
 8
WIRE
 0
TEXT
 8
WIRETEXT
 10
  5.4000
 20
  5.5300
 30
0.0
 40
  0.0514
 1
~RESET
 0
POLYLINE
 8
WIRE
 66
1
 10
0.0
 20
0.0
 30
0.0
 0
VERTEX
 8
WIRE
 10
  5.5000
 20
  6.1000
 30
0.0
 0
VERTEX
 8
WIRE
 10
  5.4000
 20
  6.1000
 30
0.0
 0
SEQEND
 8
WIRE
 0
POLYLINE
 8
WIRE
 66
1
 10
0.0
 20
0.0
 30
0.0
 0
VERTEX
 8
WIRE
 10
  5.5000
 20
  6.0000
 30
0.0
 0
VERTEX
 8
WIRE
 10
  5.5000
 20
  6.1000
 30
0.0
 0
SEQEND
 8
WIRE
 0
POLYLINE
 8
WIRE
 66
1
 10
0.0
 20
0.0
 30
0.0
 0
VERTEX
 8
WIRE
 10
  6.1000
 20
  6.0000
 30
0.0
 0
VERTEX
 8
WIRE
 10
  5.5000
 20
  6.0000
 30
0.0
 0
SEQEND
 8
WIRE
 0
POLYLINE
 8
WIRE
 66
1
 70
1
 10
0.0
 20
0.0
 30
0.0
 40
  0.0200
 41
  0.0200
 0
VERTEX
 8
WIRE
 10
  5.4900
 20
  6.0000
 30
0.0
 42
1.0
 0
VERTEX
 8
WIRE
 10
  5.5100
 20
  6.0000
 30
0.0
 42
1.0
 0
SEQEND
 8
WIRE
 0
TEXT
 8
WIRETEXT
 10
  5.7000
 20
  6.0300
 30
0.0
 40
  0.0514
 1
DGND
 0
POLYLINE
 8
WIRE
 66
1
 10
0.0
 20
0.0
 30
0.0
 0
VERTEX
 8
WIRE
 10
  6.1000
 20
  5.9000
 30
0.0
 0
VERTEX
 8
WIRE
 10
  6.1000
 20
  6.0000
 30
0.0
 0
SEQEND
 8
WIRE
 0
POLYLINE
 8
WIRE
 66
1
 10
0.0
 20
0.0
 30
0.0
 0
VERTEX
 8
WIRE
 10
  6.5000
 20
  6.3000
 30
0.0
 0
VERTEX
 8
WIRE
 10
  6.5000
 20
  6.7000
 30
0.0
 0
SEQEND
 8
WIRE
 0
TEXT
 8
WIRETEXT
 10
  6.4700
 20
  6.3000
 30
0.0
 40
  0.0514
 50
 90.0000
 1
MCU_VDD
 0
POLYLINE
 8
WIRE
 66
1
 10
0.0
 20
0.0
 30
0.0
 0
VERTEX
 8
WIRE
 10
  7.2000
 20
  6.3000
 30
0.0
 0
VERTEX
 8
WIRE
 10
  7.2000
 20
  6.7000
 30
0.0
 0
SEQEND
 8
WIRE
 0
TEXT
 8
WIRETEXT
 10
  7.1700
 20
  6.4000
 30
0.0
 40
  0.0514
 50
 90.0000
 1
VDD2
 0
POLYLINE
 8
WIRE
 66
1
 10
0.0
 20
0.0
 30
0.0
 0
VERTEX
 8
WIRE
 10
  2.6000
 20
  5.2000
 30
0.0
 0
VERTEX
 8
WIRE
 10
  2.6000
 20
  5.5000
 30
0.0
 0
SEQEND
 8
WIRE
 0
POLYLINE
 8
WIRE
 66
1
 10
0.0
 20
0.0
 30
0.0
 0
VERTEX
 8
WIRE
 10
  2.6000
 20
  5.2000
 30
0.0
 0
VERTEX
 8
WIRE
 10
  2.4000
 20
  5.2000
 30
0.0
 0
SEQEND
 8
WIRE
 0
POLYLINE
 8
WIRE
 66
1
 10
0.0
 20
0.0
 30
0.0
 0
VERTEX
 8
WIRE
 10
  2.6000
 20
  5.1000
 30
0.0
 0
VERTEX
 8
WIRE
 10
  2.4000
 20
  5.1000
 30
0.0
 0
SEQEND
 8
WIRE
 0
POLYLINE
 8
WIRE
 66
1
 10
0.0
 20
0.0
 30
0.0
 0
VERTEX
 8
WIRE
 10
  1.5000
 20
  5.5000
 30
0.0
 0
VERTEX
 8
WIRE
 10
  1.5000
 20
  5.6000
 30
0.0
 0
SEQEND
 8
WIRE
 0
POLYLINE
 8
WIRE
 66
1
 10
0.0
 20
0.0
 30
0.0
 0
VERTEX
 8
WIRE
 10
  2.6000
 20
  5.7000
 30
0.0
 0
VERTEX
 8
WIRE
 10
  1.5000
 20
  5.7000
 30
0.0
 0
SEQEND
 8
WIRE
 0
POLYLINE
 8
WIRE
 66
1
 10
0.0
 20
0.0
 30
0.0
 0
VERTEX
 8
WIRE
 10
  2.6000
 20
  5.6000
 30
0.0
 0
VERTEX
 8
WIRE
 10
  2.6000
 20
  5.7000
 30
0.0
 0
SEQEND
 8
WIRE
 0
POLYLINE
 8
WIRE
 66
1
 10
0.0
 20
0.0
 30
0.0
 0
VERTEX
 8
WIRE
 10
  1.5000
 20
  5.8000
 30
0.0
 0
VERTEX
 8
WIRE
 10
  1.5000
 20
  6.3000
 30
0.0
 0
SEQEND
 8
WIRE
 0
POLYLINE
 8
WIRE
 66
1
 10
0.0
 20
0.0
 30
0.0
 0
VERTEX
 8
WIRE
 10
  1.5000
 20
  6.3000
 30
0.0
 0
VERTEX
 8
WIRE
 10
  1.3000
 20
  6.3000
 30
0.0
 0
SEQEND
 8
WIRE
 0
POLYLINE
 8
WIRE
 66
1
 10
0.0
 20
0.0
 30
0.0
 0
VERTEX
 8
WIRE
 10
  1.3000
 20
  6.1000
 30
0.0
 0
VERTEX
 8
WIRE
 10
  1.3000
 20
  6.3000
 30
0.0
 0
SEQEND
 8
WIRE
 0
POLYLINE
 8
WIRE
 66
1
 10
0.0
 20
0.0
 30
0.0
 0
VERTEX
 8
WIRE
 10
  2.2000
 20
  5.5000
 30
0.0
 0
VERTEX
 8
WIRE
 10
  2.2000
 20
  5.6000
 30
0.0
 0
SEQEND
 8
WIRE
 0
POLYLINE
 8
WIRE
 66
1
 10
0.0
 20
0.0
 30
0.0
 0
VERTEX
 8
WIRE
 10
  2.4000
 20
  5.6000
 30
0.0
 0
VERTEX
 8
WIRE
 10
  2.2000
 20
  5.6000
 30
0.0
 0
SEQEND
 8
WIRE
 0
POLYLINE
 8
WIRE
 66
1
 10
0.0
 20
0.0
 30
0.0
 0
VERTEX
 8
WIRE
 10
  2.4000
 20
  5.3000
 30
0.0
 0
VERTEX
 8
WIRE
 10
  2.4000
 20
  5.6000
 30
0.0
 0
SEQEND
 8
WIRE
 0
POLYLINE
 8
WIRE
 66
1
 10
0.0
 20
0.0
 30
0.0
 0
VERTEX
 8
WIRE
 10
  2.6000
 20
  4.3000
 30
0.0
 0
VERTEX
 8
WIRE
 10
  2.6000
 20
  4.6000
 30
0.0
 0
SEQEND
 8
WIRE
 0
TEXT
 8
WIRETEXT
 10
  2.5700
 20
  4.3000
 30
0.0
 40
  0.0514
 50
 90.0000
 1
VDD2
 0
POLYLINE
 8
WIRE
 66
1
 10
0.0
 20
0.0
 30
0.0
 0
VERTEX
 8
WIRE
 10
  1.5000
 20
  4.5000
 30
0.0
 0
VERTEX
 8
WIRE
 10
  1.5000
 20
  5.0000
 30
0.0
 0
SEQEND
 8
WIRE
 0
TEXT
 8
WIRETEXT
 10
  1.4700
 20
  4.5000
 30
0.0
 40
  0.0514
 50
 90.0000
 1
MCU_VDD
 0
POLYLINE
 8
WIRE
 66
1
 10
0.0
 20
0.0
 30
0.0
 0
VERTEX
 8
WIRE
 10
  5.5000
 20
  6.0000
 30
0.0
 0
VERTEX
 8
WIRE
 10
  5.4000
 20
  6.0000
 30
0.0
 0
SEQEND
 8
WIRE
 0
POLYLINE
 8
WIRE
 66
1
 10
0.0
 20
0.0
 30
0.0
 0
VERTEX
 8
WIRE
 10
  5.5000
 20
  3.5000
 30
0.0
 0
VERTEX
 8
WIRE
 10
  5.4000
 20
  3.5000
 30
0.0
 0
SEQEND
 8
WIRE
 0
POLYLINE
 8
WIRE
 66
1
 10
0.0
 20
0.0
 30
0.0
 0
VERTEX
 8
WIRE
 10
  5.5000
 20
  3.6000
 30
0.0
 0
VERTEX
 8
WIRE
 10
  5.5000
 20
  4.1000
 30
0.0
 0
SEQEND
 8
WIRE
 0
POLYLINE
 8
WIRE
 66
1
 10
0.0
 20
0.0
 30
0.0
 0
VERTEX
 8
WIRE
 10
  5.5000
 20
  3.6000
 30
0.0
 0
VERTEX
 8
WIRE
 10
  5.4000
 20
  3.6000
 30
0.0
 0
SEQEND
 8
WIRE
 0
POLYLINE
 8
WIRE
 66
1
 70
1
 10
0.0
 20
0.0
 30
0.0
 40
  0.0200
 41
  0.0200
 0
VERTEX
 8
WIRE
 10
  5.4900
 20
  3.6000
 30
0.0
 42
1.0
 0
VERTEX
 8
WIRE
 10
  5.5100
 20
  3.6000
 30
0.0
 42
1.0
 0
SEQEND
 8
WIRE
 0
POLYLINE
 8
WIRE
 66
1
 10
0.0
 20
0.0
 30
0.0
 0
VERTEX
 8
WIRE
 10
  3.0000
 20
  3.7000
 30
0.0
 0
VERTEX
 8
WIRE
 10
  2.6000
 20
  3.7000
 30
0.0
 0
SEQEND
 8
WIRE
 0
TEXT
 8
WIRETEXT
 10
  2.6000
 20
  3.7300
 30
0.0
 40
  0.0514
 1
VDD2
 0
POLYLINE
 8
WIRE
 66
1
 10
0.0
 20
0.0
 30
0.0
 0
VERTEX
 8
WIRE
 10
  3.0000
 20
  3.6000
 30
0.0
 0
VERTEX
 8
WIRE
 10
  2.6000
 20
  3.6000
 30
0.0
 0
SEQEND
 8
WIRE
 0
TEXT
 8
WIRETEXT
 10
  2.6000
 20
  3.6300
 30
0.0
 40
  0.0514
 1
MCU_VDD
 0
POLYLINE
 8
WIRE
 66
1
 10
0.0
 20
0.0
 30
0.0
 0
VERTEX
 8
WIRE
 10
  3.0000
 20
  3.4000
 30
0.0
 0
VERTEX
 8
WIRE
 10
  2.6000
 20
  3.4000
 30
0.0
 0
SEQEND
 8
WIRE
 0
TEXT
 8
WIRETEXT
 10
  2.6000
 20
  3.4300
 30
0.0
 40
  0.0514
 1
~IRQ0
 0
POLYLINE
 8
WIRE
 66
1
 10
0.0
 20
0.0
 30
0.0
 0
VERTEX
 8
WIRE
 10
  3.0000
 20
  3.3000
 30
0.0
 0
VERTEX
 8
WIRE
 10
  2.6000
 20
  3.3000
 30
0.0
 0
SEQEND
 8
WIRE
 0
TEXT
 8
WIRETEXT
 10
  2.6000
 20
  3.3300
 30
0.0
 40
  0.0514
 1
~IRQ1
 0
POLYLINE
 8
WIRE
 66
1
 10
0.0
 20
0.0
 30
0.0
 0
VERTEX
 8
WIRE
 10
  3.0000
 20
  3.2000
 30
0.0
 0
VERTEX
 8
WIRE
 10
  2.5000
 20
  3.2000
 30
0.0
 0
SEQEND
 8
WIRE
 0
POLYLINE
 8
WIRE
 66
1
 10
0.0
 20
0.0
 30
0.0
 0
VERTEX
 8
WIRE
 10
  3.0000
 20
  3.1000
 30
0.0
 0
VERTEX
 8
WIRE
 10
  2.5000
 20
  3.1000
 30
0.0
 0
SEQEND
 8
WIRE
 0
TEXT
 8
WIRETEXT
 10
  2.5000
 20
  3.1300
 30
0.0
 40
  0.0514
 1
SB_ENB_ISO
 0
POLYLINE
 8
WIRE
 66
1
 10
0.0
 20
0.0
 30
0.0
 0
VERTEX
 8
WIRE
 10
  5.8000
 20
  3.1000
 30
0.0
 0
VERTEX
 8
WIRE
 10
  5.4000
 20
  3.1000
 30
0.0
 0
SEQEND
 8
WIRE
 0
TEXT
 8
WIRETEXT
 10
  5.4000
 20
  3.1300
 30
0.0
 40
  0.0514
 1
SB_ENB
 0
POLYLINE
 8
WIRE
 66
1
 10
0.0
 20
0.0
 30
0.0
 0
VERTEX
 8
WIRE
 10
  5.8000
 20
  3.0000
 30
0.0
 0
VERTEX
 8
WIRE
 10
  5.4000
 20
  3.0000
 30
0.0
 0
SEQEND
 8
WIRE
 0
TEXT
 8
WIRETEXT
 10
  5.5000
 20
  3.0300
 30
0.0
 40
  0.0514
 1
NC
 0
POLYLINE
 8
WIRE
 66
1
 10
0.0
 20
0.0
 30
0.0
 0
VERTEX
 8
WIRE
 10
  6.3000
 20
  2.9000
 30
0.0
 0
VERTEX
 8
WIRE
 10
  5.4000
 20
  2.9000
 30
0.0
 0
SEQEND
 8
WIRE
 0
TEXT
 8
WIRETEXT
 10
  5.4000
 20
  2.9300
 30
0.0
 40
  0.0514
 1
IRQ1B_ISO
 0
POLYLINE
 8
WIRE
 66
1
 10
0.0
 20
0.0
 30
0.0
 0
VERTEX
 8
WIRE
 10
  5.9000
 20
  2.8000
 30
0.0
 0
VERTEX
 8
WIRE
 10
  5.4000
 20
  2.8000
 30
0.0
 0
SEQEND
 8
WIRE
 0
TEXT
 8
WIRETEXT
 10
  5.4000
 20
  2.8300
 30
0.0
 40
  0.0514
 1
IRQ0B_ISO
 0
POLYLINE
 8
WIRE
 66
1
 10
0.0
 20
0.0
 30
0.0
 0
VERTEX
 8
WIRE
 10
  5.5000
 20
  3.4000
 30
0.0
 0
VERTEX
 8
WIRE
 10
  5.4000
 20
  3.4000
 30
0.0
 0
SEQEND
 8
WIRE
 0
POLYLINE
 8
WIRE
 66
1
 10
0.0
 20
0.0
 30
0.0
 0
VERTEX
 8
WIRE
 10
  5.5000
 20
  3.3000
 30
0.0
 0
VERTEX
 8
WIRE
 10
  5.5000
 20
  3.4000
 30
0.0
 0
SEQEND
 8
WIRE
 0
POLYLINE
 8
WIRE
 66
1
 10
0.0
 20
0.0
 30
0.0
 0
VERTEX
 8
WIRE
 10
  6.4000
 20
  3.6000
 30
0.0
 0
VERTEX
 8
WIRE
 10
  6.4000
 20
  4.0000
 30
0.0
 0
SEQEND
 8
WIRE
 0
TEXT
 8
WIRETEXT
 10
  6.3700
 20
  3.6000
 30
0.0
 40
  0.0514
 50
 90.0000
 1
MCU_VDD
 0
POLYLINE
 8
WIRE
 66
1
 10
0.0
 20
0.0
 30
0.0
 0
VERTEX
 8
WIRE
 10
  7.0000
 20
  3.6000
 30
0.0
 0
VERTEX
 8
WIRE
 10
  7.0000
 20
  4.0000
 30
0.0
 0
SEQEND
 8
WIRE
 0
TEXT
 8
WIRETEXT
 10
  6.9700
 20
  3.7000
 30
0.0
 40
  0.0514
 50
 90.0000
 1
VDD2
 0
POLYLINE
 8
WIRE
 66
1
 10
0.0
 20
0.0
 30
0.0
 0
VERTEX
 8
WIRE
 10
  2.2000
 20
  3.1000
 30
0.0
 0
VERTEX
 8
WIRE
 10
  1.6000
 20
  3.1000
 30
0.0
 0
SEQEND
 8
WIRE
 0
POLYLINE
 8
WIRE
 66
1
 10
0.0
 20
0.0
 30
0.0
 0
VERTEX
 8
WIRE
 10
  1.8000
 20
  3.0000
 30
0.0
 0
VERTEX
 8
WIRE
 10
  1.6000
 20
  3.0000
 30
0.0
 0
SEQEND
 8
WIRE
 0
POLYLINE
 8
WIRE
 66
1
 10
0.0
 20
0.0
 30
0.0
 0
VERTEX
 8
WIRE
 10
  2.7000
 20
  2.0000
 30
0.0
 0
VERTEX
 8
WIRE
 10
  2.7000
 20
  2.1000
 30
0.0
 0
SEQEND
 8
WIRE
 0
POLYLINE
 8
WIRE
 66
1
 10
0.0
 20
0.0
 30
0.0
 0
VERTEX
 8
WIRE
 10
  2.7000
 20
  2.3000
 30
0.0
 0
VERTEX
 8
WIRE
 10
  2.7000
 20
  2.8000
 30
0.0
 0
SEQEND
 8
WIRE
 0
POLYLINE
 8
WIRE
 66
1
 10
0.0
 20
0.0
 30
0.0
 0
VERTEX
 8
WIRE
 10
  2.7000
 20
  2.8000
 30
0.0
 0
VERTEX
 8
WIRE
 10
  2.5000
 20
  2.8000
 30
0.0
 0
SEQEND
 8
WIRE
 0
POLYLINE
 8
WIRE
 66
1
 10
0.0
 20
0.0
 30
0.0
 0
VERTEX
 8
WIRE
 10
  2.5000
 20
  2.6000
 30
0.0
 0
VERTEX
 8
WIRE
 10
  2.5000
 20
  2.8000
 30
0.0
 0
SEQEND
 8
WIRE
 0
POLYLINE
 8
WIRE
 66
1
 10
0.0
 20
0.0
 30
0.0
 0
VERTEX
 8
WIRE
 10
  1.4000
 20
  3.4000
 30
0.0
 0
VERTEX
 8
WIRE
 10
  1.4000
 20
  3.5000
 30
0.0
 0
SEQEND
 8
WIRE
 0
POLYLINE
 8
WIRE
 66
1
 10
0.0
 20
0.0
 30
0.0
 0
VERTEX
 8
WIRE
 10
  1.6000
 20
  3.5000
 30
0.0
 0
VERTEX
 8
WIRE
 10
  1.4000
 20
  3.5000
 30
0.0
 0
SEQEND
 8
WIRE
 0
POLYLINE
 8
WIRE
 66
1
 10
0.0
 20
0.0
 30
0.0
 0
VERTEX
 8
WIRE
 10
  1.6000
 20
  3.2000
 30
0.0
 0
VERTEX
 8
WIRE
 10
  1.6000
 20
  3.5000
 30
0.0
 0
SEQEND
 8
WIRE
 0
POLYLINE
 8
WIRE
 66
1
 10
0.0
 20
0.0
 30
0.0
 0
VERTEX
 8
WIRE
 10
  1.8000
 20
  2.2000
 30
0.0
 0
VERTEX
 8
WIRE
 10
  1.8000
 20
  2.5000
 30
0.0
 0
SEQEND
 8
WIRE
 0
TEXT
 8
WIRETEXT
 10
  1.7700
 20
  2.2000
 30
0.0
 40
  0.0514
 50
 90.0000
 1
VDD2
 0
POLYLINE
 8
WIRE
 66
1
 10
0.0
 20
0.0
 30
0.0
 0
VERTEX
 8
WIRE
 10
  2.7000
 20
  1.0000
 30
0.0
 0
VERTEX
 8
WIRE
 10
  2.7000
 20
  1.5000
 30
0.0
 0
SEQEND
 8
WIRE
 0
TEXT
 8
WIRETEXT
 10
  2.6700
 20
  1.0000
 30
0.0
 40
  0.0514
 50
 90.0000
 1
MCU_VDD
 0
POLYLINE
 8
WIRE
 66
1
 10
0.0
 20
0.0
 30
0.0
 0
VERTEX
 8
WIRE
 10
  5.5000
 20
  3.3000
 30
0.0
 0
VERTEX
 8
WIRE
 10
  5.4000
 20
  3.3000
 30
0.0
 0
SEQEND
 8
WIRE
 0
POLYLINE
 8
WIRE
 66
1
 10
0.0
 20
0.0
 30
0.0
 0
VERTEX
 8
WIRE
 10
  6.1000
 20
  3.3000
 30
0.0
 0
VERTEX
 8
WIRE
 10
  6.1000
 20
  3.4000
 30
0.0
 0
SEQEND
 8
WIRE
 0
POLYLINE
 8
WIRE
 66
1
 10
0.0
 20
0.0
 30
0.0
 0
VERTEX
 8
WIRE
 10
  6.1000
 20
  3.4000
 30
0.0
 0
VERTEX
 8
WIRE
 10
  5.5000
 20
  3.4000
 30
0.0
 0
SEQEND
 8
WIRE
 0
POLYLINE
 8
WIRE
 66
1
 70
1
 10
0.0
 20
0.0
 30
0.0
 40
  0.0200
 41
  0.0200
 0
VERTEX
 8
WIRE
 10
  5.4900
 20
  3.4000
 30
0.0
 42
1.0
 0
VERTEX
 8
WIRE
 10
  5.5100
 20
  3.4000
 30
0.0
 42
1.0
 0
SEQEND
 8
WIRE
 0
TEXT
 8
WIRETEXT
 10
  5.6000
 20
  3.4300
 30
0.0
 40
  0.0514
 1
AGND
 0
POLYLINE
 8
WIRE
 66
1
 10
0.0
 20
0.0
 30
0.0
 0
VERTEX
 8
WIRE
 10
  5.7000
 20
  4.1000
 30
0.0
 0
VERTEX
 8
WIRE
 10
  5.5000
 20
  4.1000
 30
0.0
 0
SEQEND
 8
WIRE
 0
TEXT
 8
WIRETEXT
 10
  5.5000
 20
  4.1300
 30
0.0
 40
  0.0514
 1
DGND
 0
POLYLINE
 8
WIRE
 66
1
 10
0.0
 20
0.0
 30
0.0
 0
VERTEX
 8
WIRE
 10
  5.7000
 20
  3.9000
 30
0.0
 0
VERTEX
 8
WIRE
 10
  5.7000
 20
  4.1000
 30
0.0
 0
SEQEND
 8
WIRE
 0
POLYLINE
 8
WIRE
 66
1
 10
0.0
 20
0.0
 30
0.0
 0
VERTEX
 8
WIRE
 10
  7.2000
 20
  5.7000
 30
0.0
 0
VERTEX
 8
WIRE
 10
  7.2000
 20
  6.0000
 30
0.0
 0
SEQEND
 8
WIRE
 0
POLYLINE
 8
WIRE
 66
1
 10
0.0
 20
0.0
 30
0.0
 0
VERTEX
 8
WIRE
 10
  6.5000
 20
  5.7000
 30
0.0
 0
VERTEX
 8
WIRE
 10
  6.5000
 20
  6.0000
 30
0.0
 0
SEQEND
 8
WIRE
 0
POLYLINE
 8
WIRE
 66
1
 10
0.0
 20
0.0
 30
0.0
 0
VERTEX
 8
WIRE
 10
  7.0000
 20
  3.1000
 30
0.0
 0
VERTEX
 8
WIRE
 10
  7.0000
 20
  3.3000
 30
0.0
 0
SEQEND
 8
WIRE
 0
POLYLINE
 8
WIRE
 66
1
 10
0.0
 20
0.0
 30
0.0
 0
VERTEX
 8
WIRE
 10
  6.4000
 20
  3.1000
 30
0.0
 0
VERTEX
 8
WIRE
 10
  6.4000
 20
  3.3000
 30
0.0
 0
SEQEND
 8
WIRE
 0
POLYLINE
 8
WIRE
 66
1
 10
0.0
 20
0.0
 30
0.0
 0
VERTEX
 8
WIRE
 10
  3.0000
 20
  2.9000
 30
0.0
 0
VERTEX
 8
WIRE
 10
  2.2000
 20
  2.9000
 30
0.0
 0
SEQEND
 8
WIRE
 0
POLYLINE
 8
WIRE
 66
1
 10
0.0
 20
0.0
 30
0.0
 0
VERTEX
 8
WIRE
 10
  2.2000
 20
  2.9000
 30
0.0
 0
VERTEX
 8
WIRE
 10
  2.2000
 20
  3.1000
 30
0.0
 0
SEQEND
 8
WIRE
 0
POLYLINE
 8
WIRE
 66
1
 10
0.0
 20
0.0
 30
0.0
 0
VERTEX
 8
WIRE
 10
  3.0000
 20
  2.8000
 30
0.0
 0
VERTEX
 8
WIRE
 10
  2.9000
 20
  2.8000
 30
0.0
 0
SEQEND
 8
WIRE
 0
POLYLINE
 8
WIRE
 66
1
 10
0.0
 20
0.0
 30
0.0
 0
VERTEX
 8
WIRE
 10
  2.9000
 20
  2.2000
 30
0.0
 0
VERTEX
 8
WIRE
 10
  2.9000
 20
  2.8000
 30
0.0
 0
SEQEND
 8
WIRE
 0
POLYLINE
 8
WIRE
 66
1
 10
0.0
 20
0.0
 30
0.0
 0
VERTEX
 8
WIRE
 10
  2.9000
 20
  2.2000
 30
0.0
 0
VERTEX
 8
WIRE
 10
  2.7000
 20
  2.2000
 30
0.0
 0
SEQEND
 8
WIRE
 0
POLYLINE
 8
WIRE
 66
1
 10
0.0
 20
0.0
 30
0.0
 0
VERTEX
 8
WIRE
 10
  5.9000
 20
  2.7000
 30
0.0
 0
VERTEX
 8
WIRE
 10
  5.9000
 20
  2.8000
 30
0.0
 0
SEQEND
 8
WIRE
 0
POLYLINE
 8
WIRE
 66
1
 10
0.0
 20
0.0
 30
0.0
 0
VERTEX
 8
WIRE
 10
  6.3000
 20
  2.7000
 30
0.0
 0
VERTEX
 8
WIRE
 10
  6.3000
 20
  2.9000
 30
0.0
 0
SEQEND
 8
WIRE
 0
POLYLINE
 8
WIRE
 66
1
 10
0.0
 20
0.0
 30
0.0
 0
VERTEX
 8
WIRE
 10
  5.9000
 20
  1.7000
 30
0.0
 0
VERTEX
 8
WIRE
 10
  5.9000
 20
  2.2000
 30
0.0
 0
SEQEND
 8
WIRE
 0
TEXT
 8
WIRETEXT
 10
  5.8700
 20
  1.7000
 30
0.0
 40
  0.0514
 50
 90.0000
 1
MCU_VDD
 0
POLYLINE
 8
WIRE
 66
1
 10
0.0
 20
0.0
 30
0.0
 0
VERTEX
 8
WIRE
 10
  6.3000
 20
  1.7000
 30
0.0
 0
VERTEX
 8
WIRE
 10
  6.3000
 20
  2.2000
 30
0.0
 0
SEQEND
 8
WIRE
 0
TEXT
 8
WIRETEXT
 10
  6.2700
 20
  1.7000
 30
0.0
 40
  0.0514
 50
 90.0000
 1
MCU_VDD
 0
POLYLINE
 8
WIRE
 66
1
 10
0.0
 20
0.0
 30
0.0
 0
VERTEX
 8
WIRE
 10
  2.5000
 20
  3.2000
 30
0.0
 0
VERTEX
 8
WIRE
 10
  2.5000
 20
  3.5000
 30
0.0
 0
SEQEND
 8
WIRE
 0
POLYLINE
 8
WIRE
 66
1
 10
0.0
 20
0.0
 30
0.0
 0
VERTEX
 8
WIRE
 10
  2.5000
 20
  3.5000
 30
0.0
 0
VERTEX
 8
WIRE
 10
  2.3000
 20
  3.5000
 30
0.0
 0
SEQEND
 8
WIRE
 0
POLYLINE
 8
WIRE
 66
1
 10
0.0
 20
0.0
 30
0.0
 0
VERTEX
 8
WIRE
 10
  2.3000
 20
  3.2000
 30
0.0
 0
VERTEX
 8
WIRE
 10
  2.3000
 20
  3.5000
 30
0.0
 0
SEQEND
 8
WIRE
 0
POLYLINE
 8
WIRE
 66
1
 10
0.0
 20
0.0
 30
0.0
 0
VERTEX
 8
WIRE
 10
  5.5000
 20
  3.5000
 30
0.0
 0
VERTEX
 8
WIRE
 10
  5.5000
 20
  3.6000
 30
0.0
 0
SEQEND
 8
WIRE
 0
POLYLINE
 8
PARTS
 66
1
 10
0.0
 20
0.0
 30
0.0
 0
VERTEX
 8
PARTS
 10
  5.6000
 20
  6.5000
 30
0.0
 0
VERTEX
 8
PARTS
 10
  5.8000
 20
  6.5000
 30
0.0
 0
SEQEND
 8
PARTS
 0
POLYLINE
 8
PARTS
 66
1
 10
0.0
 20
0.0
 30
0.0
 0
VERTEX
 8
PARTS
 10
  5.8000
 20
  6.5000
 30
0.0
 0
VERTEX
 8
PARTS
 10
  5.7000
 20
  6.4000
 30
0.0
 0
SEQEND
 8
PARTS
 0
POLYLINE
 8
PARTS
 66
1
 10
0.0
 20
0.0
 30
0.0
 0
VERTEX
 8
PARTS
 10
  5.7000
 20
  6.4000
 30
0.0
 0
VERTEX
 8
PARTS
 10
  5.6000
 20
  6.5000
 30
0.0
 0
SEQEND
 8
PARTS
 0
POLYLINE
 8
PARTS
 66
1
 10
0.0
 20
0.0
 30
0.0
 0
VERTEX
 8
PARTS
 10
  6.0000
 20
  5.9000
 30
0.0
 0
VERTEX
 8
PARTS
 10
  6.2000
 20
  5.9000
 30
0.0
 0
SEQEND
 8
PARTS
 0
POLYLINE
 8
PARTS
 66
1
 10
0.0
 20
0.0
 30
0.0
 0
VERTEX
 8
PARTS
 10
  6.0300
 20
  5.8700
 30
0.0
 0
VERTEX
 8
PARTS
 10
  6.1700
 20
  5.8700
 30
0.0
 0
SEQEND
 8
PARTS
 0
POLYLINE
 8
PARTS
 66
1
 10
0.0
 20
0.0
 30
0.0
 0
VERTEX
 8
PARTS
 10
  6.1400
 20
  5.8400
 30
0.0
 0
VERTEX
 8
PARTS
 10
  6.0600
 20
  5.8400
 30
0.0
 0
SEQEND
 8
PARTS
 0
POLYLINE
 8
PARTS
 66
1
 10
0.0
 20
0.0
 30
0.0
 0
VERTEX
 8
PARTS
 10
  6.0900
 20
  5.8100
 30
0.0
 0
VERTEX
 8
PARTS
 10
  6.1100
 20
  5.8100
 30
0.0
 0
SEQEND
 8
PARTS
 0
POLYLINE
 8
PARTS
 66
1
 10
0.0
 20
0.0
 30
0.0
 0
VERTEX
 8
PARTS
 10
  7.1000
 20
  5.7000
 30
0.0
 0
VERTEX
 8
PARTS
 10
  7.3000
 20
  5.7000
 30
0.0
 0
SEQEND
 8
PARTS
 0
POLYLINE
 8
PARTS
 66
1
 10
0.0
 20
0.0
 30
0.0
 0
VERTEX
 8
PARTS
 10
  7.3000
 20
  5.7000
 30
0.0
 0
VERTEX
 8
PARTS
 10
  7.2000
 20
  5.6000
 30
0.0
 0
SEQEND
 8
PARTS
 0
POLYLINE
 8
PARTS
 66
1
 10
0.0
 20
0.0
 30
0.0
 0
VERTEX
 8
PARTS
 10
  7.2000
 20
  5.6000
 30
0.0
 0
VERTEX
 8
PARTS
 10
  7.1000
 20
  5.7000
 30
0.0
 0
SEQEND
 8
PARTS
 0
POLYLINE
 8
PARTS
 66
1
 10
0.0
 20
0.0
 30
0.0
 0
VERTEX
 8
PARTS
 10
  6.4000
 20
  5.7000
 30
0.0
 0
VERTEX
 8
PARTS
 10
  6.6000
 20
  5.7000
 30
0.0
 0
SEQEND
 8
PARTS
 0
POLYLINE
 8
PARTS
 66
1
 10
0.0
 20
0.0
 30
0.0
 0
VERTEX
 8
PARTS
 10
  6.4300
 20
  5.6700
 30
0.0
 0
VERTEX
 8
PARTS
 10
  6.5700
 20
  5.6700
 30
0.0
 0
SEQEND
 8
PARTS
 0
POLYLINE
 8
PARTS
 66
1
 10
0.0
 20
0.0
 30
0.0
 0
VERTEX
 8
PARTS
 10
  6.5400
 20
  5.6400
 30
0.0
 0
VERTEX
 8
PARTS
 10
  6.4600
 20
  5.6400
 30
0.0
 0
SEQEND
 8
PARTS
 0
POLYLINE
 8
PARTS
 66
1
 10
0.0
 20
0.0
 30
0.0
 0
VERTEX
 8
PARTS
 10
  6.4900
 20
  5.6100
 30
0.0
 0
VERTEX
 8
PARTS
 10
  6.5100
 20
  5.6100
 30
0.0
 0
SEQEND
 8
PARTS
 0
POLYLINE
 8
PARTS
 66
1
 10
0.0
 20
0.0
 30
0.0
 0
VERTEX
 8
PARTS
 10
  2.1000
 20
  5.5000
 30
0.0
 0
VERTEX
 8
PARTS
 10
  2.3000
 20
  5.5000
 30
0.0
 0
SEQEND
 8
PARTS
 0
POLYLINE
 8
PARTS
 66
1
 10
0.0
 20
0.0
 30
0.0
 0
VERTEX
 8
PARTS
 10
  2.3000
 20
  5.5000
 30
0.0
 0
VERTEX
 8
PARTS
 10
  2.2000
 20
  5.4000
 30
0.0
 0
SEQEND
 8
PARTS
 0
POLYLINE
 8
PARTS
 66
1
 10
0.0
 20
0.0
 30
0.0
 0
VERTEX
 8
PARTS
 10
  2.2000
 20
  5.4000
 30
0.0
 0
VERTEX
 8
PARTS
 10
  2.1000
 20
  5.5000
 30
0.0
 0
SEQEND
 8
PARTS
 0
POLYLINE
 8
PARTS
 66
1
 10
0.0
 20
0.0
 30
0.0
 0
VERTEX
 8
PARTS
 10
  1.2000
 20
  6.1000
 30
0.0
 0
VERTEX
 8
PARTS
 10
  1.4000
 20
  6.1000
 30
0.0
 0
SEQEND
 8
PARTS
 0
POLYLINE
 8
PARTS
 66
1
 10
0.0
 20
0.0
 30
0.0
 0
VERTEX
 8
PARTS
 10
  1.2300
 20
  6.0700
 30
0.0
 0
VERTEX
 8
PARTS
 10
  1.3700
 20
  6.0700
 30
0.0
 0
SEQEND
 8
PARTS
 0
POLYLINE
 8
PARTS
 66
1
 10
0.0
 20
0.0
 30
0.0
 0
VERTEX
 8
PARTS
 10
  1.3400
 20
  6.0400
 30
0.0
 0
VERTEX
 8
PARTS
 10
  1.2600
 20
  6.0400
 30
0.0
 0
SEQEND
 8
PARTS
 0
POLYLINE
 8
PARTS
 66
1
 10
0.0
 20
0.0
 30
0.0
 0
VERTEX
 8
PARTS
 10
  1.2900
 20
  6.0100
 30
0.0
 0
VERTEX
 8
PARTS
 10
  1.3100
 20
  6.0100
 30
0.0
 0
SEQEND
 8
PARTS
 0
POLYLINE
 8
PARTS
 66
1
 10
0.0
 20
0.0
 30
0.0
 0
VERTEX
 8
PARTS
 10
  6.0000
 20
  3.3000
 30
0.0
 0
VERTEX
 8
PARTS
 10
  6.2000
 20
  3.3000
 30
0.0
 0
SEQEND
 8
PARTS
 0
POLYLINE
 8
PARTS
 66
1
 10
0.0
 20
0.0
 30
0.0
 0
VERTEX
 8
PARTS
 10
  6.2000
 20
  3.3000
 30
0.0
 0
VERTEX
 8
PARTS
 10
  6.1000
 20
  3.2000
 30
0.0
 0
SEQEND
 8
PARTS
 0
POLYLINE
 8
PARTS
 66
1
 10
0.0
 20
0.0
 30
0.0
 0
VERTEX
 8
PARTS
 10
  6.1000
 20
  3.2000
 30
0.0
 0
VERTEX
 8
PARTS
 10
  6.0000
 20
  3.3000
 30
0.0
 0
SEQEND
 8
PARTS
 0
POLYLINE
 8
PARTS
 66
1
 10
0.0
 20
0.0
 30
0.0
 0
VERTEX
 8
PARTS
 10
  5.6000
 20
  3.9000
 30
0.0
 0
VERTEX
 8
PARTS
 10
  5.8000
 20
  3.9000
 30
0.0
 0
SEQEND
 8
PARTS
 0
POLYLINE
 8
PARTS
 66
1
 10
0.0
 20
0.0
 30
0.0
 0
VERTEX
 8
PARTS
 10
  5.6300
 20
  3.8700
 30
0.0
 0
VERTEX
 8
PARTS
 10
  5.7700
 20
  3.8700
 30
0.0
 0
SEQEND
 8
PARTS
 0
POLYLINE
 8
PARTS
 66
1
 10
0.0
 20
0.0
 30
0.0
 0
VERTEX
 8
PARTS
 10
  5.7400
 20
  3.8400
 30
0.0
 0
VERTEX
 8
PARTS
 10
  5.6600
 20
  3.8400
 30
0.0
 0
SEQEND
 8
PARTS
 0
POLYLINE
 8
PARTS
 66
1
 10
0.0
 20
0.0
 30
0.0
 0
VERTEX
 8
PARTS
 10
  5.6900
 20
  3.8100
 30
0.0
 0
VERTEX
 8
PARTS
 10
  5.7100
 20
  3.8100
 30
0.0
 0
SEQEND
 8
PARTS
 0
POLYLINE
 8
PARTS
 66
1
 10
0.0
 20
0.0
 30
0.0
 0
VERTEX
 8
PARTS
 10
  6.9000
 20
  3.1000
 30
0.0
 0
VERTEX
 8
PARTS
 10
  7.1000
 20
  3.1000
 30
0.0
 0
SEQEND
 8
PARTS
 0
POLYLINE
 8
PARTS
 66
1
 10
0.0
 20
0.0
 30
0.0
 0
VERTEX
 8
PARTS
 10
  7.1000
 20
  3.1000
 30
0.0
 0
VERTEX
 8
PARTS
 10
  7.0000
 20
  3.0000
 30
0.0
 0
SEQEND
 8
PARTS
 0
POLYLINE
 8
PARTS
 66
1
 10
0.0
 20
0.0
 30
0.0
 0
VERTEX
 8
PARTS
 10
  7.0000
 20
  3.0000
 30
0.0
 0
VERTEX
 8
PARTS
 10
  6.9000
 20
  3.1000
 30
0.0
 0
SEQEND
 8
PARTS
 0
POLYLINE
 8
PARTS
 66
1
 10
0.0
 20
0.0
 30
0.0
 0
VERTEX
 8
PARTS
 10
  6.3000
 20
  3.1000
 30
0.0
 0
VERTEX
 8
PARTS
 10
  6.5000
 20
  3.1000
 30
0.0
 0
SEQEND
 8
PARTS
 0
POLYLINE
 8
PARTS
 66
1
 10
0.0
 20
0.0
 30
0.0
 0
VERTEX
 8
PARTS
 10
  6.3300
 20
  3.0700
 30
0.0
 0
VERTEX
 8
PARTS
 10
  6.4700
 20
  3.0700
 30
0.0
 0
SEQEND
 8
PARTS
 0
POLYLINE
 8
PARTS
 66
1
 10
0.0
 20
0.0
 30
0.0
 0
VERTEX
 8
PARTS
 10
  6.4400
 20
  3.0400
 30
0.0
 0
VERTEX
 8
PARTS
 10
  6.3600
 20
  3.0400
 30
0.0
 0
SEQEND
 8
PARTS
 0
POLYLINE
 8
PARTS
 66
1
 10
0.0
 20
0.0
 30
0.0
 0
VERTEX
 8
PARTS
 10
  6.3900
 20
  3.0100
 30
0.0
 0
VERTEX
 8
PARTS
 10
  6.4100
 20
  3.0100
 30
0.0
 0
SEQEND
 8
PARTS
 0
POLYLINE
 8
PARTS
 66
1
 10
0.0
 20
0.0
 30
0.0
 0
VERTEX
 8
PARTS
 10
  1.3000
 20
  3.4000
 30
0.0
 0
VERTEX
 8
PARTS
 10
  1.5000
 20
  3.4000
 30
0.0
 0
SEQEND
 8
PARTS
 0
POLYLINE
 8
PARTS
 66
1
 10
0.0
 20
0.0
 30
0.0
 0
VERTEX
 8
PARTS
 10
  1.5000
 20
  3.4000
 30
0.0
 0
VERTEX
 8
PARTS
 10
  1.4000
 20
  3.3000
 30
0.0
 0
SEQEND
 8
PARTS
 0
POLYLINE
 8
PARTS
 66
1
 10
0.0
 20
0.0
 30
0.0
 0
VERTEX
 8
PARTS
 10
  1.4000
 20
  3.3000
 30
0.0
 0
VERTEX
 8
PARTS
 10
  1.3000
 20
  3.4000
 30
0.0
 0
SEQEND
 8
PARTS
 0
POLYLINE
 8
PARTS
 66
1
 10
0.0
 20
0.0
 30
0.0
 0
VERTEX
 8
PARTS
 10
  2.4000
 20
  2.6000
 30
0.0
 0
VERTEX
 8
PARTS
 10
  2.6000
 20
  2.6000
 30
0.0
 0
SEQEND
 8
PARTS
 0
POLYLINE
 8
PARTS
 66
1
 10
0.0
 20
0.0
 30
0.0
 0
VERTEX
 8
PARTS
 10
  2.4300
 20
  2.5700
 30
0.0
 0
VERTEX
 8
PARTS
 10
  2.5700
 20
  2.5700
 30
0.0
 0
SEQEND
 8
PARTS
 0
POLYLINE
 8
PARTS
 66
1
 10
0.0
 20
0.0
 30
0.0
 0
VERTEX
 8
PARTS
 10
  2.5400
 20
  2.5400
 30
0.0
 0
VERTEX
 8
PARTS
 10
  2.4600
 20
  2.5400
 30
0.0
 0
SEQEND
 8
PARTS
 0
POLYLINE
 8
PARTS
 66
1
 10
0.0
 20
0.0
 30
0.0
 0
VERTEX
 8
PARTS
 10
  2.4900
 20
  2.5100
 30
0.0
 0
VERTEX
 8
PARTS
 10
  2.5100
 20
  2.5100
 30
0.0
 0
SEQEND
 8
PARTS
 0
POLYLINE
 8
PARTS
 66
1
 10
0.0
 20
0.0
 30
0.0
 0
VERTEX
 8
PARTS
 10
  2.2000
 20
  3.2000
 30
0.0
 0
VERTEX
 8
PARTS
 10
  2.4000
 20
  3.2000
 30
0.0
 0
SEQEND
 8
PARTS
 0
POLYLINE
 8
PARTS
 66
1
 10
0.0
 20
0.0
 30
0.0
 0
VERTEX
 8
PARTS
 10
  2.2300
 20
  3.1700
 30
0.0
 0
VERTEX
 8
PARTS
 10
  2.3700
 20
  3.1700
 30
0.0
 0
SEQEND
 8
PARTS
 0
POLYLINE
 8
PARTS
 66
1
 10
0.0
 20
0.0
 30
0.0
 0
VERTEX
 8
PARTS
 10
  2.3400
 20
  3.1400
 30
0.0
 0
VERTEX
 8
PARTS
 10
  2.2600
 20
  3.1400
 30
0.0
 0
SEQEND
 8
PARTS
 0
POLYLINE
 8
PARTS
 66
1
 10
0.0
 20
0.0
 30
0.0
 0
VERTEX
 8
PARTS
 10
  2.2900
 20
  3.1100
 30
0.0
 0
VERTEX
 8
PARTS
 10
  2.3100
 20
  3.1100
 30
0.0
 0
SEQEND
 8
PARTS
 0
ENDSEC
 0
EOF
