 0
SECTION
 2
HEADER
 9
$ACADVER
 1
AC1009
 0
ENDSEC
 0
SECTION
 2
ENTITIES
 0
POLYLINE
 8
TITLE
 66
1
 70
1
 10
0.0
 20
0.0
 30
0.0
 0
VERTEX
 8
TITLE
 10
 -0.1000
 20
  0.1000
 30
0.0
 0
VERTEX
 8
TITLE
 10
  9.6000
 20
  0.1000
 30
0.0
 0
VERTEX
 8
TITLE
 10
  9.6000
 20
  7.3000
 30
0.0
 0
VERTEX
 8
TITLE
 10
 -0.1000
 20
  7.3000
 30
0.0
 0
SEQEND
 8
TITLE
 0
POLYLINE
 8
TITLE
 66
1
 70
1
 10
0.0
 20
0.0
 30
0.0
 0
VERTEX
 8
TITLE
 10
  0.0000
 20
  0.2000
 30
0.0
 0
VERTEX
 8
TITLE
 10
  9.5000
 20
  0.2000
 30
0.0
 0
VERTEX
 8
TITLE
 10
  9.5000
 20
  7.2000
 30
0.0
 0
VERTEX
 8
TITLE
 10
  0.0000
 20
  7.2000
 30
0.0
 0
SEQEND
 8
TITLE
 0
POLYLINE
 8
TITLE
 66
1
 10
0.0
 20
0.0
 30
0.0
 0
VERTEX
 8
TITLE
 10
  2.0600
 20
  0.2000
 30
0.0
 0
VERTEX
 8
TITLE
 10
  2.0600
 20
  0.1000
 30
0.0
 0
SEQEND
 8
TITLE
 0
POLYLINE
 8
TITLE
 66
1
 10
0.0
 20
0.0
 30
0.0
 0
VERTEX
 8
TITLE
 10
  2.0600
 20
  7.2000
 30
0.0
 0
VERTEX
 8
TITLE
 10
  2.0600
 20
  7.3000
 30
0.0
 0
SEQEND
 8
TITLE
 0
POLYLINE
 8
TITLE
 66
1
 10
0.0
 20
0.0
 30
0.0
 0
VERTEX
 8
TITLE
 10
  3.9200
 20
  0.2000
 30
0.0
 0
VERTEX
 8
TITLE
 10
  3.9200
 20
  0.1000
 30
0.0
 0
SEQEND
 8
TITLE
 0
POLYLINE
 8
TITLE
 66
1
 10
0.0
 20
0.0
 30
0.0
 0
VERTEX
 8
TITLE
 10
  3.9200
 20
  7.2000
 30
0.0
 0
VERTEX
 8
TITLE
 10
  3.9200
 20
  7.3000
 30
0.0
 0
SEQEND
 8
TITLE
 0
POLYLINE
 8
TITLE
 66
1
 10
0.0
 20
0.0
 30
0.0
 0
VERTEX
 8
TITLE
 10
  5.7800
 20
  0.2000
 30
0.0
 0
VERTEX
 8
TITLE
 10
  5.7800
 20
  0.1000
 30
0.0
 0
SEQEND
 8
TITLE
 0
POLYLINE
 8
TITLE
 66
1
 10
0.0
 20
0.0
 30
0.0
 0
VERTEX
 8
TITLE
 10
  5.7800
 20
  7.2000
 30
0.0
 0
VERTEX
 8
TITLE
 10
  5.7800
 20
  7.3000
 30
0.0
 0
SEQEND
 8
TITLE
 0
POLYLINE
 8
TITLE
 66
1
 10
0.0
 20
0.0
 30
0.0
 0
VERTEX
 8
TITLE
 10
  7.6400
 20
  0.2000
 30
0.0
 0
VERTEX
 8
TITLE
 10
  7.6400
 20
  0.1000
 30
0.0
 0
SEQEND
 8
TITLE
 0
POLYLINE
 8
TITLE
 66
1
 10
0.0
 20
0.0
 30
0.0
 0
VERTEX
 8
TITLE
 10
  7.6400
 20
  7.2000
 30
0.0
 0
VERTEX
 8
TITLE
 10
  7.6400
 20
  7.3000
 30
0.0
 0
SEQEND
 8
TITLE
 0
TEXT
 8
TITLE
 10
  1.1300
 20
  0.1200
 30
0.0
 40
  0.0500
 1
5
 0
TEXT
 8
TITLE
 10
  1.1300
 20
  7.2200
 30
0.0
 40
  0.0500
 1
5
 0
TEXT
 8
TITLE
 10
  2.9900
 20
  0.1200
 30
0.0
 40
  0.0500
 1
4
 0
TEXT
 8
TITLE
 10
  2.9900
 20
  7.2200
 30
0.0
 40
  0.0500
 1
4
 0
TEXT
 8
TITLE
 10
  4.8500
 20
  0.1200
 30
0.0
 40
  0.0500
 1
3
 0
TEXT
 8
TITLE
 10
  4.8500
 20
  7.2200
 30
0.0
 40
  0.0500
 1
3
 0
TEXT
 8
TITLE
 10
  6.7100
 20
  0.1200
 30
0.0
 40
  0.0500
 1
2
 0
TEXT
 8
TITLE
 10
  6.7100
 20
  7.2200
 30
0.0
 40
  0.0500
 1
2
 0
TEXT
 8
TITLE
 10
  8.5700
 20
  0.1200
 30
0.0
 40
  0.0500
 1
1
 0
TEXT
 8
TITLE
 10
  8.5700
 20
  7.2200
 30
0.0
 40
  0.0500
 1
1
 0
POLYLINE
 8
TITLE
 66
1
 10
0.0
 20
0.0
 30
0.0
 0
VERTEX
 8
TITLE
 10
 -0.1000
 20
  5.3000
 30
0.0
 0
VERTEX
 8
TITLE
 10
  0.0000
 20
  5.3000
 30
0.0
 0
SEQEND
 8
TITLE
 0
POLYLINE
 8
TITLE
 66
1
 10
0.0
 20
0.0
 30
0.0
 0
VERTEX
 8
TITLE
 10
  9.5000
 20
  5.3000
 30
0.0
 0
VERTEX
 8
TITLE
 10
  9.6000
 20
  5.3000
 30
0.0
 0
SEQEND
 8
TITLE
 0
SOLID
 8
TITLE
 10
  0.0000
 20
  3.6000
 30
0.0
 11
 -0.0500
 21
  3.6200
 31
0.0
 12
 -0.0500
 22
  3.5800
 32
0.0
 13
 -0.0500
 23
  3.6000
 33
0.0
 0
SOLID
 8
TITLE
 10
  9.5000
 20
  3.6000
 30
0.0
 11
  9.5500
 21
  3.6200
 31
0.0
 12
  9.5500
 22
  3.5800
 32
0.0
 13
  9.5500
 23
  3.6000
 33
0.0
 0
POLYLINE
 8
TITLE
 66
1
 10
0.0
 20
0.0
 30
0.0
 0
VERTEX
 8
TITLE
 10
 -0.1000
 20
  3.6000
 30
0.0
 0
VERTEX
 8
TITLE
 10
  0.0000
 20
  3.6000
 30
0.0
 0
SEQEND
 8
TITLE
 0
POLYLINE
 8
TITLE
 66
1
 10
0.0
 20
0.0
 30
0.0
 0
VERTEX
 8
TITLE
 10
  9.5000
 20
  3.6000
 30
0.0
 0
VERTEX
 8
TITLE
 10
  9.6000
 20
  3.6000
 30
0.0
 0
SEQEND
 8
TITLE
 0
SOLID
 8
TITLE
 10
  0.0000
 20
  3.6000
 30
0.0
 11
 -0.0500
 21
  3.6200
 31
0.0
 12
 -0.0500
 22
  3.5800
 32
0.0
 13
 -0.0500
 23
  3.6000
 33
0.0
 0
SOLID
 8
TITLE
 10
  9.5000
 20
  3.6000
 30
0.0
 11
  9.5500
 21
  3.6200
 31
0.0
 12
  9.5500
 22
  3.5800
 32
0.0
 13
  9.5500
 23
  3.6000
 33
0.0
 0
POLYLINE
 8
TITLE
 66
1
 10
0.0
 20
0.0
 30
0.0
 0
VERTEX
 8
TITLE
 10
 -0.1000
 20
  1.9000
 30
0.0
 0
VERTEX
 8
TITLE
 10
  0.0000
 20
  1.9000
 30
0.0
 0
SEQEND
 8
TITLE
 0
POLYLINE
 8
TITLE
 66
1
 10
0.0
 20
0.0
 30
0.0
 0
VERTEX
 8
TITLE
 10
  9.5000
 20
  1.9000
 30
0.0
 0
VERTEX
 8
TITLE
 10
  9.6000
 20
  1.9000
 30
0.0
 0
SEQEND
 8
TITLE
 0
SOLID
 8
TITLE
 10
  0.0000
 20
  3.6000
 30
0.0
 11
 -0.0500
 21
  3.6200
 31
0.0
 12
 -0.0500
 22
  3.5800
 32
0.0
 13
 -0.0500
 23
  3.6000
 33
0.0
 0
SOLID
 8
TITLE
 10
  9.5000
 20
  3.6000
 30
0.0
 11
  9.5500
 21
  3.6200
 31
0.0
 12
  9.5500
 22
  3.5800
 32
0.0
 13
  9.5500
 23
  3.6000
 33
0.0
 0
TEXT
 8
TITLE
 10
 -0.0800
 20
  6.1500
 30
0.0
 40
  0.0500
 1
D
 0
TEXT
 8
TITLE
 10
  9.5200
 20
  6.1500
 30
0.0
 40
  0.0500
 1
D
 0
TEXT
 8
TITLE
 10
 -0.0800
 20
  4.4500
 30
0.0
 40
  0.0500
 1
C
 0
TEXT
 8
TITLE
 10
  9.5200
 20
  4.4500
 30
0.0
 40
  0.0500
 1
C
 0
TEXT
 8
TITLE
 10
 -0.0800
 20
  2.7500
 30
0.0
 40
  0.0500
 1
B
 0
TEXT
 8
TITLE
 10
  9.5200
 20
  2.7500
 30
0.0
 40
  0.0500
 1
B
 0
TEXT
 8
TITLE
 10
 -0.0800
 20
  1.0500
 30
0.0
 40
  0.0500
 1
A
 0
TEXT
 8
TITLE
 10
  9.5200
 20
  1.0500
 30
0.0
 40
  0.0500
 1
A
 0
TEXT
 8
TITLE
 10
  6.3000
 20
  0.4186
 30
0.0
 40
  0.0514
 1
<Doc>
 0
TEXT
 8
TITLE
 10
  9.3000
 20
  0.4186
 30
0.0
 40
  0.0514
 1
<RevCode>
 0
TEXT
 8
TITLE
 10
  6.3000
 20
  0.7186
 30
0.0
 40
  0.0514
 1
<Title>
 0
TEXT
 8
TITLE
 10
  6.0000
 20
  0.4186
 30
0.0
 40
  0.0514
 1
A
 0
TEXT
 8
TITLE
 10
  8.4000
 20
  0.2186
 30
0.0
 40
  0.0514
 1
1
 0
TEXT
 8
TITLE
 10
  9.0000
 20
  0.2186
 30
0.0
 40
  0.0514
 1
1
 0
TEXT
 8
TITLE
 10
  6.4200
 20
  0.2186
 30
0.0
 40
  0.0514
 1
Sunday, October 19, 2014
 0
TEXT
 8
PARTTEXT
 10
  5.9000
 20
  0.8186
 30
0.0
 40
  0.0514
 1
Title
 0
TEXT
 8
PARTTEXT
 10
  5.9000
 20
  0.5186
 30
0.0
 40
  0.0514
 1
Size
 0
TEXT
 8
PARTTEXT
 10
  6.3000
 20
  0.5186
 30
0.0
 40
  0.0514
 1
Document Number
 0
TEXT
 8
PARTTEXT
 10
  9.2000
 20
  0.5186
 30
0.0
 40
  0.0514
 1
Rev
 0
TEXT
 8
PARTTEXT
 10
  5.9000
 20
  0.2186
 30
0.0
 40
  0.0514
 1
Date:
 0
TEXT
 8
PARTTEXT
 10
  7.9000
 20
  0.2186
 30
0.0
 40
  0.0514
 1
Sheet
 0
POLYLINE
 8
TITLE
 66
1
 70
1
 10
0.0
 20
0.0
 30
0.0
 0
VERTEX
 8
TITLE
 10
  5.9000
 20
  1.1000
 30
0.0
 0
VERTEX
 8
TITLE
 10
  9.5000
 20
  1.1000
 30
0.0
 0
VERTEX
 8
TITLE
 10
  9.5000
 20
  0.9000
 30
0.0
 0
VERTEX
 8
TITLE
 10
  5.9000
 20
  0.9000
 30
0.0
 0
SEQEND
 8
TITLE
 0
POLYLINE
 8
TITLE
 66
1
 70
1
 10
0.0
 20
0.0
 30
0.0
 0
VERTEX
 8
TITLE
 10
  5.9000
 20
  0.9000
 30
0.0
 0
VERTEX
 8
TITLE
 10
  9.5000
 20
  0.9000
 30
0.0
 0
VERTEX
 8
TITLE
 10
  9.5000
 20
  0.6000
 30
0.0
 0
VERTEX
 8
TITLE
 10
  5.9000
 20
  0.6000
 30
0.0
 0
SEQEND
 8
TITLE
 0
POLYLINE
 8
TITLE
 66
1
 70
1
 10
0.0
 20
0.0
 30
0.0
 0
VERTEX
 8
TITLE
 10
  5.9000
 20
  0.6000
 30
0.0
 0
VERTEX
 8
TITLE
 10
  6.2000
 20
  0.6000
 30
0.0
 0
VERTEX
 8
TITLE
 10
  6.2000
 20
  0.3000
 30
0.0
 0
VERTEX
 8
TITLE
 10
  5.9000
 20
  0.3000
 30
0.0
 0
SEQEND
 8
TITLE
 0
POLYLINE
 8
TITLE
 66
1
 70
1
 10
0.0
 20
0.0
 30
0.0
 0
VERTEX
 8
TITLE
 10
  6.2000
 20
  0.6000
 30
0.0
 0
VERTEX
 8
TITLE
 10
  9.2000
 20
  0.6000
 30
0.0
 0
VERTEX
 8
TITLE
 10
  9.2000
 20
  0.3000
 30
0.0
 0
VERTEX
 8
TITLE
 10
  6.2000
 20
  0.3000
 30
0.0
 0
SEQEND
 8
TITLE
 0
POLYLINE
 8
TITLE
 66
1
 70
1
 10
0.0
 20
0.0
 30
0.0
 0
VERTEX
 8
TITLE
 10
  9.2000
 20
  0.6000
 30
0.0
 0
VERTEX
 8
TITLE
 10
  9.5000
 20
  0.6000
 30
0.0
 0
VERTEX
 8
TITLE
 10
  9.5000
 20
  0.3000
 30
0.0
 0
VERTEX
 8
TITLE
 10
  9.2000
 20
  0.3000
 30
0.0
 0
SEQEND
 8
TITLE
 0
POLYLINE
 8
TITLE
 66
1
 70
1
 10
0.0
 20
0.0
 30
0.0
 0
VERTEX
 8
TITLE
 10
  5.9000
 20
  0.3000
 30
0.0
 0
VERTEX
 8
TITLE
 10
  7.9000
 20
  0.3000
 30
0.0
 0
VERTEX
 8
TITLE
 10
  7.9000
 20
  0.2000
 30
0.0
 0
VERTEX
 8
TITLE
 10
  5.9000
 20
  0.2000
 30
0.0
 0
SEQEND
 8
TITLE
 0
POLYLINE
 8
TITLE
 66
1
 70
1
 10
0.0
 20
0.0
 30
0.0
 0
VERTEX
 8
TITLE
 10
  7.9000
 20
  0.3000
 30
0.0
 0
VERTEX
 8
TITLE
 10
  9.5000
 20
  0.3000
 30
0.0
 0
VERTEX
 8
TITLE
 10
  9.5000
 20
  0.2000
 30
0.0
 0
VERTEX
 8
TITLE
 10
  7.9000
 20
  0.2000
 30
0.0
 0
SEQEND
 8
TITLE
 0
TEXT
 8
PARTTEXT
 10
  8.7000
 20
  0.2186
 30
0.0
 40
  0.0514
 1
of
 0
TEXT
 8
PARTTEXT
 10
  4.3000
 20
  3.2586
 30
0.0
 40
  0.0514
 1
J54
 0
TEXT
 8
PARTTEXT
 10
  4.3000
 20
  3.1386
 30
0.0
 40
  0.0514
 1
VBP
 0
LINE
 8
PARTS
 10
  4.5000
 20
  2.6000
 30
0.0
 11
  4.5000
 21
  2.9000
 31
0.0
 0
TEXT
 8
PARTS
 10
  4.4700
 20
  2.7800
 30
0.0
 40
  0.0500
 50
 90.0000
 1
1
 0
POLYLINE
 8
PARTS
 66
1
 70
1
 10
0.0
 20
0.0
 30
0.0
 0
VERTEX
 8
PARTS
 10
  4.6000
 20
  3.1000
 30
0.0
 0
VERTEX
 8
PARTS
 10
  4.6000
 20
  2.9000
 30
0.0
 0
VERTEX
 8
PARTS
 10
  4.4000
 20
  2.9000
 30
0.0
 0
VERTEX
 8
PARTS
 10
  4.4000
 20
  3.1000
 30
0.0
 0
SEQEND
 8
PARTS
 0
POLYLINE
 8
PARTS
 66
1
 10
0.0
 20
0.0
 30
0.0
 0
VERTEX
 8
PARTS
 10
  4.6000
 20
  2.9500
 30
0.0
 0
VERTEX
 8
PARTS
 10
  4.6000
 20
  2.9500
 30
0.0
 0
VERTEX
 8
PARTS
 10
  4.6300
 20
  2.9500
 30
0.0
 0
VERTEX
 8
PARTS
 10
  4.6300
 20
  3.0400
 30
0.0
 0
VERTEX
 8
PARTS
 10
  4.6000
 20
  3.0400
 30
0.0
 0
SEQEND
 8
PARTS
 0
POLYLINE
 8
PARTS
 66
1
 10
0.0
 20
0.0
 30
0.0
 0
VERTEX
 8
PARTS
 10
  4.4000
 20
  3.0400
 30
0.0
 0
VERTEX
 8
PARTS
 10
  4.4000
 20
  3.0400
 30
0.0
 0
VERTEX
 8
PARTS
 10
  4.3700
 20
  3.0400
 30
0.0
 0
VERTEX
 8
PARTS
 10
  4.3700
 20
  2.9500
 30
0.0
 0
VERTEX
 8
PARTS
 10
  4.4000
 20
  2.9500
 30
0.0
 0
SEQEND
 8
PARTS
 0
TEXT
 8
PARTTEXT
 10
  4.6000
 20
  2.3686
 30
0.0
 40
  0.0514
 1
J56
 0
TEXT
 8
PARTTEXT
 10
  4.6000
 20
  1.8586
 30
0.0
 40
  0.0514
 1
JUMPER1
 0
LINE
 8
PARTS
 10
  5.3000
 20
  2.1000
 30
0.0
 11
  5.0000
 21
  2.1000
 31
0.0
 0
TEXT
 8
PARTS
 10
  5.0600
 20
  2.1300
 30
0.0
 40
  0.0500
 1
1
 0
LINE
 8
PARTS
 10
  4.3000
 20
  2.1000
 30
0.0
 11
  4.6000
 21
  2.1000
 31
0.0
 0
TEXT
 8
PARTS
 10
  4.5000
 20
  2.1300
 30
0.0
 40
  0.0500
 1
2
 0
POLYLINE
 8
PARTS
 66
1
 10
0.0
 20
0.0
 30
0.0
 0
VERTEX
 8
PARTS
 10
  4.9000
 20
  2.1000
 30
0.0
 42
  1.0000
 0
VERTEX
 8
PARTS
 10
  4.7000
 20
  2.1000
 30
0.0
 0
SEQEND
 8
PARTS
 0
POLYLINE
 8
PARTS
 66
1
 70
1
 10
0.0
 20
0.0
 30
0.0
 0
VERTEX
 8
PARTS
 10
  4.7100
 20
  2.1000
 30
0.0
 42
  0.0985
 0
VERTEX
 8
PARTS
 10
  4.7092
 20
  2.1038
 30
0.0
 42
  0.0985
 0
VERTEX
 8
PARTS
 10
  4.7071
 20
  2.1071
 30
0.0
 42
  0.0985
 0
VERTEX
 8
PARTS
 10
  4.7038
 20
  2.1092
 30
0.0
 42
  0.0985
 0
VERTEX
 8
PARTS
 10
  4.7000
 20
  2.1100
 30
0.0
 42
  0.0985
 0
VERTEX
 8
PARTS
 10
  4.6962
 20
  2.1092
 30
0.0
 42
  0.0985
 0
VERTEX
 8
PARTS
 10
  4.6929
 20
  2.1071
 30
0.0
 42
  0.0985
 0
VERTEX
 8
PARTS
 10
  4.6908
 20
  2.1038
 30
0.0
 42
  0.0985
 0
VERTEX
 8
PARTS
 10
  4.6900
 20
  2.1000
 30
0.0
 42
  0.0985
 0
VERTEX
 8
PARTS
 10
  4.6908
 20
  2.0962
 30
0.0
 42
  0.0985
 0
VERTEX
 8
PARTS
 10
  4.6929
 20
  2.0929
 30
0.0
 42
  0.0985
 0
VERTEX
 8
PARTS
 10
  4.6962
 20
  2.0908
 30
0.0
 42
  0.0985
 0
VERTEX
 8
PARTS
 10
  4.7000
 20
  2.0900
 30
0.0
 42
  0.0985
 0
VERTEX
 8
PARTS
 10
  4.7038
 20
  2.0908
 30
0.0
 42
  0.0985
 0
VERTEX
 8
PARTS
 10
  4.7071
 20
  2.0929
 30
0.0
 42
  0.0985
 0
VERTEX
 8
PARTS
 10
  4.7092
 20
  2.0962
 30
0.0
 42
  0.0985
 0
SEQEND
 8
PARTS
 0
POLYLINE
 8
PARTS
 66
1
 70
1
 10
0.0
 20
0.0
 30
0.0
 0
VERTEX
 8
PARTS
 10
  4.9100
 20
  2.1000
 30
0.0
 42
  0.0985
 0
VERTEX
 8
PARTS
 10
  4.9092
 20
  2.1038
 30
0.0
 42
  0.0985
 0
VERTEX
 8
PARTS
 10
  4.9071
 20
  2.1071
 30
0.0
 42
  0.0985
 0
VERTEX
 8
PARTS
 10
  4.9038
 20
  2.1092
 30
0.0
 42
  0.0985
 0
VERTEX
 8
PARTS
 10
  4.9000
 20
  2.1100
 30
0.0
 42
  0.0985
 0
VERTEX
 8
PARTS
 10
  4.8962
 20
  2.1092
 30
0.0
 42
  0.0985
 0
VERTEX
 8
PARTS
 10
  4.8929
 20
  2.1071
 30
0.0
 42
  0.0985
 0
VERTEX
 8
PARTS
 10
  4.8908
 20
  2.1038
 30
0.0
 42
  0.0985
 0
VERTEX
 8
PARTS
 10
  4.8900
 20
  2.1000
 30
0.0
 42
  0.0985
 0
VERTEX
 8
PARTS
 10
  4.8908
 20
  2.0962
 30
0.0
 42
  0.0985
 0
VERTEX
 8
PARTS
 10
  4.8929
 20
  2.0929
 30
0.0
 42
  0.0985
 0
VERTEX
 8
PARTS
 10
  4.8962
 20
  2.0908
 30
0.0
 42
  0.0985
 0
VERTEX
 8
PARTS
 10
  4.9000
 20
  2.0900
 30
0.0
 42
  0.0985
 0
VERTEX
 8
PARTS
 10
  4.9038
 20
  2.0908
 30
0.0
 42
  0.0985
 0
VERTEX
 8
PARTS
 10
  4.9071
 20
  2.0929
 30
0.0
 42
  0.0985
 0
VERTEX
 8
PARTS
 10
  4.9092
 20
  2.0962
 30
0.0
 42
  0.0985
 0
SEQEND
 8
PARTS
 0
POLYLINE
 8
PARTS
 66
1
 10
0.0
 20
0.0
 30
0.0
 0
VERTEX
 8
PARTS
 10
  4.6000
 20
  2.1000
 30
0.0
 0
VERTEX
 8
PARTS
 10
  4.7000
 20
  2.1000
 30
0.0
 0
SEQEND
 8
PARTS
 0
POLYLINE
 8
PARTS
 66
1
 10
0.0
 20
0.0
 30
0.0
 0
VERTEX
 8
PARTS
 10
  4.9000
 20
  2.1000
 30
0.0
 0
VERTEX
 8
PARTS
 10
  5.0000
 20
  2.1000
 30
0.0
 0
SEQEND
 8
PARTS
 0
POLYLINE
 8
PARTS
 66
1
 70
1
 10
0.0
 20
0.0
 30
0.0
 0
VERTEX
 8
PARTS
 10
  5.0000
 20
  2.0000
 30
0.0
 0
VERTEX
 8
PARTS
 10
  4.6000
 20
  2.0000
 30
0.0
 0
VERTEX
 8
PARTS
 10
  4.6000
 20
  2.3000
 30
0.0
 0
VERTEX
 8
PARTS
 10
  5.0000
 20
  2.3000
 30
0.0
 0
SEQEND
 8
PARTS
 0
TEXT
 8
PARTTEXT
 10
  5.8000
 20
  6.7586
 30
0.0
 40
  0.0514
 1
J61
 0
TEXT
 8
PARTTEXT
 10
  5.8000
 20
  6.6386
 30
0.0
 40
  0.0514
 1
IBP
 0
LINE
 8
PARTS
 10
  6.0000
 20
  6.1000
 30
0.0
 11
  6.0000
 21
  6.4000
 31
0.0
 0
TEXT
 8
PARTS
 10
  5.9700
 20
  6.2800
 30
0.0
 40
  0.0500
 50
 90.0000
 1
1
 0
POLYLINE
 8
PARTS
 66
1
 70
1
 10
0.0
 20
0.0
 30
0.0
 0
VERTEX
 8
PARTS
 10
  6.1000
 20
  6.6000
 30
0.0
 0
VERTEX
 8
PARTS
 10
  6.1000
 20
  6.4000
 30
0.0
 0
VERTEX
 8
PARTS
 10
  5.9000
 20
  6.4000
 30
0.0
 0
VERTEX
 8
PARTS
 10
  5.9000
 20
  6.6000
 30
0.0
 0
SEQEND
 8
PARTS
 0
POLYLINE
 8
PARTS
 66
1
 10
0.0
 20
0.0
 30
0.0
 0
VERTEX
 8
PARTS
 10
  6.1000
 20
  6.4500
 30
0.0
 0
VERTEX
 8
PARTS
 10
  6.1000
 20
  6.4500
 30
0.0
 0
VERTEX
 8
PARTS
 10
  6.1300
 20
  6.4500
 30
0.0
 0
VERTEX
 8
PARTS
 10
  6.1300
 20
  6.5400
 30
0.0
 0
VERTEX
 8
PARTS
 10
  6.1000
 20
  6.5400
 30
0.0
 0
SEQEND
 8
PARTS
 0
POLYLINE
 8
PARTS
 66
1
 10
0.0
 20
0.0
 30
0.0
 0
VERTEX
 8
PARTS
 10
  5.9000
 20
  6.5400
 30
0.0
 0
VERTEX
 8
PARTS
 10
  5.9000
 20
  6.5400
 30
0.0
 0
VERTEX
 8
PARTS
 10
  5.8700
 20
  6.5400
 30
0.0
 0
VERTEX
 8
PARTS
 10
  5.8700
 20
  6.4500
 30
0.0
 0
VERTEX
 8
PARTS
 10
  5.9000
 20
  6.4500
 30
0.0
 0
SEQEND
 8
PARTS
 0
TEXT
 8
PARTTEXT
 10
  4.9700
 20
  1.7186
 30
0.0
 40
  0.0514
 1
R69
 0
TEXT
 8
PARTTEXT
 10
  5.0400
 20
  1.5986
 30
0.0
 40
  0.0514
 1
1k
 0
LINE
 8
PARTS
 10
  5.3000
 20
  1.4000
 30
0.0
 11
  5.3000
 21
  1.5000
 31
0.0
 0
LINE
 8
PARTS
 10
  5.3000
 20
  1.9000
 30
0.0
 11
  5.3000
 21
  1.8000
 31
0.0
 0
POLYLINE
 8
PARTS
 66
1
 10
0.0
 20
0.0
 30
0.0
 0
VERTEX
 8
PARTS
 10
  5.3000
 20
  1.5000
 30
0.0
 0
VERTEX
 8
PARTS
 10
  5.3300
 20
  1.5300
 30
0.0
 0
SEQEND
 8
PARTS
 0
POLYLINE
 8
PARTS
 66
1
 10
0.0
 20
0.0
 30
0.0
 0
VERTEX
 8
PARTS
 10
  5.3300
 20
  1.5300
 30
0.0
 0
VERTEX
 8
PARTS
 10
  5.2700
 20
  1.5900
 30
0.0
 0
SEQEND
 8
PARTS
 0
POLYLINE
 8
PARTS
 66
1
 10
0.0
 20
0.0
 30
0.0
 0
VERTEX
 8
PARTS
 10
  5.2700
 20
  1.5900
 30
0.0
 0
VERTEX
 8
PARTS
 10
  5.3300
 20
  1.6500
 30
0.0
 0
SEQEND
 8
PARTS
 0
POLYLINE
 8
PARTS
 66
1
 10
0.0
 20
0.0
 30
0.0
 0
VERTEX
 8
PARTS
 10
  5.3300
 20
  1.6500
 30
0.0
 0
VERTEX
 8
PARTS
 10
  5.2700
 20
  1.7100
 30
0.0
 0
SEQEND
 8
PARTS
 0
POLYLINE
 8
PARTS
 66
1
 10
0.0
 20
0.0
 30
0.0
 0
VERTEX
 8
PARTS
 10
  5.2700
 20
  1.7100
 30
0.0
 0
VERTEX
 8
PARTS
 10
  5.3300
 20
  1.7700
 30
0.0
 0
SEQEND
 8
PARTS
 0
POLYLINE
 8
PARTS
 66
1
 10
0.0
 20
0.0
 30
0.0
 0
VERTEX
 8
PARTS
 10
  5.3300
 20
  1.7700
 30
0.0
 0
VERTEX
 8
PARTS
 10
  5.3000
 20
  1.8000
 30
0.0
 0
SEQEND
 8
PARTS
 0
TEXT
 8
PARTTEXT
 10
  4.6900
 20
  5.7186
 30
0.0
 40
  0.0514
 1
C66
 0
TEXT
 8
PARTTEXT
 10
  4.6900
 20
  5.6286
 30
0.0
 40
  0.0514
 1
220pF
 0
LINE
 8
PARTS
 10
  4.5000
 20
  5.9000
 30
0.0
 11
  4.5000
 21
  5.8000
 31
0.0
 0
LINE
 8
PARTS
 10
  4.5000
 20
  5.6000
 30
0.0
 11
  4.5000
 21
  5.7000
 31
0.0
 0
POLYLINE
 8
PARTS
 66
1
 10
0.0
 20
0.0
 30
0.0
 0
VERTEX
 8
PARTS
 10
  4.5000
 20
  5.8000
 30
0.0
 0
VERTEX
 8
PARTS
 10
  4.5000
 20
  5.7800
 30
0.0
 0
SEQEND
 8
PARTS
 0
POLYLINE
 8
PARTS
 66
1
 10
0.0
 20
0.0
 30
0.0
 0
VERTEX
 8
PARTS
 10
  4.4100
 20
  5.7300
 30
0.0
 0
VERTEX
 8
PARTS
 10
  4.5900
 20
  5.7300
 30
0.0
 0
SEQEND
 8
PARTS
 0
POLYLINE
 8
PARTS
 66
1
 10
0.0
 20
0.0
 30
0.0
 0
VERTEX
 8
PARTS
 10
  4.4100
 20
  5.7800
 30
0.0
 0
VERTEX
 8
PARTS
 10
  4.5900
 20
  5.7800
 30
0.0
 0
SEQEND
 8
PARTS
 0
POLYLINE
 8
PARTS
 66
1
 10
0.0
 20
0.0
 30
0.0
 0
VERTEX
 8
PARTS
 10
  4.5000
 20
  5.7000
 30
0.0
 0
VERTEX
 8
PARTS
 10
  4.5000
 20
  5.7300
 30
0.0
 0
SEQEND
 8
PARTS
 0
TEXT
 8
PARTTEXT
 10
  5.6900
 20
  2.0186
 30
0.0
 40
  0.0514
 1
C63
 0
TEXT
 8
PARTTEXT
 10
  5.6900
 20
  1.9286
 30
0.0
 40
  0.0514
 1
220pF
 0
LINE
 8
PARTS
 10
  5.5000
 20
  2.2000
 30
0.0
 11
  5.5000
 21
  2.1000
 31
0.0
 0
LINE
 8
PARTS
 10
  5.5000
 20
  1.9000
 30
0.0
 11
  5.5000
 21
  2.0000
 31
0.0
 0
POLYLINE
 8
PARTS
 66
1
 10
0.0
 20
0.0
 30
0.0
 0
VERTEX
 8
PARTS
 10
  5.5000
 20
  2.1000
 30
0.0
 0
VERTEX
 8
PARTS
 10
  5.5000
 20
  2.0800
 30
0.0
 0
SEQEND
 8
PARTS
 0
POLYLINE
 8
PARTS
 66
1
 10
0.0
 20
0.0
 30
0.0
 0
VERTEX
 8
PARTS
 10
  5.4100
 20
  2.0300
 30
0.0
 0
VERTEX
 8
PARTS
 10
  5.5900
 20
  2.0300
 30
0.0
 0
SEQEND
 8
PARTS
 0
POLYLINE
 8
PARTS
 66
1
 10
0.0
 20
0.0
 30
0.0
 0
VERTEX
 8
PARTS
 10
  5.4100
 20
  2.0800
 30
0.0
 0
VERTEX
 8
PARTS
 10
  5.5900
 20
  2.0800
 30
0.0
 0
SEQEND
 8
PARTS
 0
POLYLINE
 8
PARTS
 66
1
 10
0.0
 20
0.0
 30
0.0
 0
VERTEX
 8
PARTS
 10
  5.5000
 20
  2.0000
 30
0.0
 0
VERTEX
 8
PARTS
 10
  5.5000
 20
  2.0300
 30
0.0
 0
SEQEND
 8
PARTS
 0
TEXT
 8
PARTTEXT
 10
  3.5000
 20
  3.6686
 30
0.0
 40
  0.0514
 1
J57
 0
TEXT
 8
PARTTEXT
 10
  3.5000
 20
  3.1586
 30
0.0
 40
  0.0514
 1
JUMPER1
 0
LINE
 8
PARTS
 10
  3.2000
 20
  3.5000
 30
0.0
 11
  3.5000
 21
  3.5000
 31
0.0
 0
TEXT
 8
PARTS
 10
  3.4000
 20
  3.5300
 30
0.0
 40
  0.0500
 1
1
 0
LINE
 8
PARTS
 10
  4.2000
 20
  3.5000
 30
0.0
 11
  3.9000
 21
  3.5000
 31
0.0
 0
TEXT
 8
PARTS
 10
  3.9600
 20
  3.5300
 30
0.0
 40
  0.0500
 1
2
 0
POLYLINE
 8
PARTS
 66
1
 10
0.0
 20
0.0
 30
0.0
 0
VERTEX
 8
PARTS
 10
  3.6000
 20
  3.5000
 30
0.0
 42
 -1.0000
 0
VERTEX
 8
PARTS
 10
  3.8000
 20
  3.5000
 30
0.0
 0
SEQEND
 8
PARTS
 0
POLYLINE
 8
PARTS
 66
1
 70
1
 10
0.0
 20
0.0
 30
0.0
 0
VERTEX
 8
PARTS
 10
  3.8100
 20
  3.5000
 30
0.0
 42
  0.0985
 0
VERTEX
 8
PARTS
 10
  3.8092
 20
  3.5038
 30
0.0
 42
  0.0985
 0
VERTEX
 8
PARTS
 10
  3.8071
 20
  3.5071
 30
0.0
 42
  0.0985
 0
VERTEX
 8
PARTS
 10
  3.8038
 20
  3.5092
 30
0.0
 42
  0.0985
 0
VERTEX
 8
PARTS
 10
  3.8000
 20
  3.5100
 30
0.0
 42
  0.0985
 0
VERTEX
 8
PARTS
 10
  3.7962
 20
  3.5092
 30
0.0
 42
  0.0985
 0
VERTEX
 8
PARTS
 10
  3.7929
 20
  3.5071
 30
0.0
 42
  0.0985
 0
VERTEX
 8
PARTS
 10
  3.7908
 20
  3.5038
 30
0.0
 42
  0.0985
 0
VERTEX
 8
PARTS
 10
  3.7900
 20
  3.5000
 30
0.0
 42
  0.0985
 0
VERTEX
 8
PARTS
 10
  3.7908
 20
  3.4962
 30
0.0
 42
  0.0985
 0
VERTEX
 8
PARTS
 10
  3.7929
 20
  3.4929
 30
0.0
 42
  0.0985
 0
VERTEX
 8
PARTS
 10
  3.7962
 20
  3.4908
 30
0.0
 42
  0.0985
 0
VERTEX
 8
PARTS
 10
  3.8000
 20
  3.4900
 30
0.0
 42
  0.0985
 0
VERTEX
 8
PARTS
 10
  3.8038
 20
  3.4908
 30
0.0
 42
  0.0985
 0
VERTEX
 8
PARTS
 10
  3.8071
 20
  3.4929
 30
0.0
 42
  0.0985
 0
VERTEX
 8
PARTS
 10
  3.8092
 20
  3.4962
 30
0.0
 42
  0.0985
 0
SEQEND
 8
PARTS
 0
POLYLINE
 8
PARTS
 66
1
 70
1
 10
0.0
 20
0.0
 30
0.0
 0
VERTEX
 8
PARTS
 10
  3.6100
 20
  3.5000
 30
0.0
 42
  0.0985
 0
VERTEX
 8
PARTS
 10
  3.6092
 20
  3.5038
 30
0.0
 42
  0.0985
 0
VERTEX
 8
PARTS
 10
  3.6071
 20
  3.5071
 30
0.0
 42
  0.0985
 0
VERTEX
 8
PARTS
 10
  3.6038
 20
  3.5092
 30
0.0
 42
  0.0985
 0
VERTEX
 8
PARTS
 10
  3.6000
 20
  3.5100
 30
0.0
 42
  0.0985
 0
VERTEX
 8
PARTS
 10
  3.5962
 20
  3.5092
 30
0.0
 42
  0.0985
 0
VERTEX
 8
PARTS
 10
  3.5929
 20
  3.5071
 30
0.0
 42
  0.0985
 0
VERTEX
 8
PARTS
 10
  3.5908
 20
  3.5038
 30
0.0
 42
  0.0985
 0
VERTEX
 8
PARTS
 10
  3.5900
 20
  3.5000
 30
0.0
 42
  0.0985
 0
VERTEX
 8
PARTS
 10
  3.5908
 20
  3.4962
 30
0.0
 42
  0.0985
 0
VERTEX
 8
PARTS
 10
  3.5929
 20
  3.4929
 30
0.0
 42
  0.0985
 0
VERTEX
 8
PARTS
 10
  3.5962
 20
  3.4908
 30
0.0
 42
  0.0985
 0
VERTEX
 8
PARTS
 10
  3.6000
 20
  3.4900
 30
0.0
 42
  0.0985
 0
VERTEX
 8
PARTS
 10
  3.6038
 20
  3.4908
 30
0.0
 42
  0.0985
 0
VERTEX
 8
PARTS
 10
  3.6071
 20
  3.4929
 30
0.0
 42
  0.0985
 0
VERTEX
 8
PARTS
 10
  3.6092
 20
  3.4962
 30
0.0
 42
  0.0985
 0
SEQEND
 8
PARTS
 0
POLYLINE
 8
PARTS
 66
1
 10
0.0
 20
0.0
 30
0.0
 0
VERTEX
 8
PARTS
 10
  3.9000
 20
  3.5000
 30
0.0
 0
VERTEX
 8
PARTS
 10
  3.8000
 20
  3.5000
 30
0.0
 0
SEQEND
 8
PARTS
 0
POLYLINE
 8
PARTS
 66
1
 10
0.0
 20
0.0
 30
0.0
 0
VERTEX
 8
PARTS
 10
  3.6000
 20
  3.5000
 30
0.0
 0
VERTEX
 8
PARTS
 10
  3.5000
 20
  3.5000
 30
0.0
 0
SEQEND
 8
PARTS
 0
POLYLINE
 8
PARTS
 66
1
 70
1
 10
0.0
 20
0.0
 30
0.0
 0
VERTEX
 8
PARTS
 10
  3.5000
 20
  3.6000
 30
0.0
 0
VERTEX
 8
PARTS
 10
  3.9000
 20
  3.6000
 30
0.0
 0
VERTEX
 8
PARTS
 10
  3.9000
 20
  3.3000
 30
0.0
 0
VERTEX
 8
PARTS
 10
  3.5000
 20
  3.3000
 30
0.0
 0
SEQEND
 8
PARTS
 0
TEXT
 8
PARTTEXT
 10
  5.7900
 20
  4.5186
 30
0.0
 40
  0.0514
 1
C65
 0
TEXT
 8
PARTTEXT
 10
  5.7900
 20
  4.4286
 30
0.0
 40
  0.0514
 1
220pF
 0
LINE
 8
PARTS
 10
  5.6000
 20
  4.7000
 30
0.0
 11
  5.6000
 21
  4.6000
 31
0.0
 0
LINE
 8
PARTS
 10
  5.6000
 20
  4.4000
 30
0.0
 11
  5.6000
 21
  4.5000
 31
0.0
 0
POLYLINE
 8
PARTS
 66
1
 10
0.0
 20
0.0
 30
0.0
 0
VERTEX
 8
PARTS
 10
  5.6000
 20
  4.6000
 30
0.0
 0
VERTEX
 8
PARTS
 10
  5.6000
 20
  4.5800
 30
0.0
 0
SEQEND
 8
PARTS
 0
POLYLINE
 8
PARTS
 66
1
 10
0.0
 20
0.0
 30
0.0
 0
VERTEX
 8
PARTS
 10
  5.5100
 20
  4.5300
 30
0.0
 0
VERTEX
 8
PARTS
 10
  5.6900
 20
  4.5300
 30
0.0
 0
SEQEND
 8
PARTS
 0
POLYLINE
 8
PARTS
 66
1
 10
0.0
 20
0.0
 30
0.0
 0
VERTEX
 8
PARTS
 10
  5.5100
 20
  4.5800
 30
0.0
 0
VERTEX
 8
PARTS
 10
  5.6900
 20
  4.5800
 30
0.0
 0
SEQEND
 8
PARTS
 0
POLYLINE
 8
PARTS
 66
1
 10
0.0
 20
0.0
 30
0.0
 0
VERTEX
 8
PARTS
 10
  5.6000
 20
  4.5000
 30
0.0
 0
VERTEX
 8
PARTS
 10
  5.6000
 20
  4.5300
 30
0.0
 0
SEQEND
 8
PARTS
 0
TEXT
 8
PARTTEXT
 10
  2.7000
 20
  2.6686
 30
0.0
 40
  0.0514
 1
R67
 0
TEXT
 8
PARTTEXT
 10
  2.7000
 20
  2.2586
 30
0.0
 40
  0.0514
 1
1k
 0
LINE
 8
PARTS
 10
  2.6000
 20
  2.5000
 30
0.0
 11
  2.7000
 21
  2.5000
 31
0.0
 0
LINE
 8
PARTS
 10
  3.1000
 20
  2.5000
 30
0.0
 11
  3.0000
 21
  2.5000
 31
0.0
 0
POLYLINE
 8
PARTS
 66
1
 10
0.0
 20
0.0
 30
0.0
 0
VERTEX
 8
PARTS
 10
  2.7000
 20
  2.5000
 30
0.0
 0
VERTEX
 8
PARTS
 10
  2.7300
 20
  2.5300
 30
0.0
 0
SEQEND
 8
PARTS
 0
POLYLINE
 8
PARTS
 66
1
 10
0.0
 20
0.0
 30
0.0
 0
VERTEX
 8
PARTS
 10
  2.7300
 20
  2.5300
 30
0.0
 0
VERTEX
 8
PARTS
 10
  2.7900
 20
  2.4700
 30
0.0
 0
SEQEND
 8
PARTS
 0
POLYLINE
 8
PARTS
 66
1
 10
0.0
 20
0.0
 30
0.0
 0
VERTEX
 8
PARTS
 10
  2.7900
 20
  2.4700
 30
0.0
 0
VERTEX
 8
PARTS
 10
  2.8500
 20
  2.5300
 30
0.0
 0
SEQEND
 8
PARTS
 0
POLYLINE
 8
PARTS
 66
1
 10
0.0
 20
0.0
 30
0.0
 0
VERTEX
 8
PARTS
 10
  2.8500
 20
  2.5300
 30
0.0
 0
VERTEX
 8
PARTS
 10
  2.9100
 20
  2.4700
 30
0.0
 0
SEQEND
 8
PARTS
 0
POLYLINE
 8
PARTS
 66
1
 10
0.0
 20
0.0
 30
0.0
 0
VERTEX
 8
PARTS
 10
  2.9100
 20
  2.4700
 30
0.0
 0
VERTEX
 8
PARTS
 10
  2.9700
 20
  2.5300
 30
0.0
 0
SEQEND
 8
PARTS
 0
POLYLINE
 8
PARTS
 66
1
 10
0.0
 20
0.0
 30
0.0
 0
VERTEX
 8
PARTS
 10
  2.9700
 20
  2.5300
 30
0.0
 0
VERTEX
 8
PARTS
 10
  3.0000
 20
  2.5000
 30
0.0
 0
SEQEND
 8
PARTS
 0
TEXT
 8
PARTTEXT
 10
  3.1000
 20
  1.1586
 30
0.0
 40
  0.0514
 1
J53
 0
TEXT
 8
PARTTEXT
 10
  3.1000
 20
  1.0386
 30
0.0
 40
  0.0514
 1
HEADER 3
 0
LINE
 8
PARTS
 10
  3.3000
 20
  1.9000
 30
0.0
 11
  3.3000
 21
  1.6000
 31
0.0
 0
TEXT
 8
PARTS
 10
  3.2700
 20
  1.6600
 30
0.0
 40
  0.0500
 50
 90.0000
 1
1
 0
LINE
 8
PARTS
 10
  3.4000
 20
  1.9000
 30
0.0
 11
  3.4000
 21
  1.6000
 31
0.0
 0
TEXT
 8
PARTS
 10
  3.3700
 20
  1.6600
 30
0.0
 40
  0.0500
 50
 90.0000
 1
2
 0
LINE
 8
PARTS
 10
  3.5000
 20
  1.9000
 30
0.0
 11
  3.5000
 21
  1.6000
 31
0.0
 0
TEXT
 8
PARTS
 10
  3.4700
 20
  1.6600
 30
0.0
 40
  0.0500
 50
 90.0000
 1
3
 0
POLYLINE
 8
PARTS
 66
1
 70
1
 10
0.0
 20
0.0
 30
0.0
 0
VERTEX
 8
PARTS
 10
  3.2000
 20
  1.3000
 30
0.0
 0
VERTEX
 8
PARTS
 10
  3.2000
 20
  1.6000
 30
0.0
 0
VERTEX
 8
PARTS
 10
  3.6000
 20
  1.6000
 30
0.0
 0
VERTEX
 8
PARTS
 10
  3.6000
 20
  1.3000
 30
0.0
 0
SEQEND
 8
PARTS
 0
POLYLINE
 8
PARTS
 66
1
 10
0.0
 20
0.0
 30
0.0
 0
VERTEX
 8
PARTS
 10
  3.2000
 20
  1.5000
 30
0.0
 0
VERTEX
 8
PARTS
 10
  3.2000
 20
  1.5100
 30
0.0
 0
VERTEX
 8
PARTS
 10
  3.1500
 20
  1.5100
 30
0.0
 0
VERTEX
 8
PARTS
 10
  3.1500
 20
  1.3900
 30
0.0
 0
VERTEX
 8
PARTS
 10
  3.2000
 20
  1.3900
 30
0.0
 0
SEQEND
 8
PARTS
 0
POLYLINE
 8
PARTS
 66
1
 10
0.0
 20
0.0
 30
0.0
 0
VERTEX
 8
PARTS
 10
  3.6000
 20
  1.4000
 30
0.0
 0
VERTEX
 8
PARTS
 10
  3.6000
 20
  1.3900
 30
0.0
 0
VERTEX
 8
PARTS
 10
  3.6500
 20
  1.3900
 30
0.0
 0
VERTEX
 8
PARTS
 10
  3.6500
 20
  1.5100
 30
0.0
 0
VERTEX
 8
PARTS
 10
  3.6000
 20
  1.5100
 30
0.0
 0
SEQEND
 8
PARTS
 0
TEXT
 8
PARTTEXT
 10
  5.7900
 20
  5.7186
 30
0.0
 40
  0.0514
 1
C64
 0
TEXT
 8
PARTTEXT
 10
  5.7900
 20
  5.6286
 30
0.0
 40
  0.0514
 1
220pF
 0
LINE
 8
PARTS
 10
  5.6000
 20
  5.9000
 30
0.0
 11
  5.6000
 21
  5.8000
 31
0.0
 0
LINE
 8
PARTS
 10
  5.6000
 20
  5.6000
 30
0.0
 11
  5.6000
 21
  5.7000
 31
0.0
 0
POLYLINE
 8
PARTS
 66
1
 10
0.0
 20
0.0
 30
0.0
 0
VERTEX
 8
PARTS
 10
  5.6000
 20
  5.8000
 30
0.0
 0
VERTEX
 8
PARTS
 10
  5.6000
 20
  5.7800
 30
0.0
 0
SEQEND
 8
PARTS
 0
POLYLINE
 8
PARTS
 66
1
 10
0.0
 20
0.0
 30
0.0
 0
VERTEX
 8
PARTS
 10
  5.5100
 20
  5.7300
 30
0.0
 0
VERTEX
 8
PARTS
 10
  5.6900
 20
  5.7300
 30
0.0
 0
SEQEND
 8
PARTS
 0
POLYLINE
 8
PARTS
 66
1
 10
0.0
 20
0.0
 30
0.0
 0
VERTEX
 8
PARTS
 10
  5.5100
 20
  5.7800
 30
0.0
 0
VERTEX
 8
PARTS
 10
  5.6900
 20
  5.7800
 30
0.0
 0
SEQEND
 8
PARTS
 0
POLYLINE
 8
PARTS
 66
1
 10
0.0
 20
0.0
 30
0.0
 0
VERTEX
 8
PARTS
 10
  5.6000
 20
  5.7000
 30
0.0
 0
VERTEX
 8
PARTS
 10
  5.6000
 20
  5.7300
 30
0.0
 0
SEQEND
 8
PARTS
 0
TEXT
 8
PARTTEXT
 10
  1.8000
 20
  2.6686
 30
0.0
 40
  0.0514
 1
L7
 0
TEXT
 8
PARTTEXT
 10
  1.8000
 20
  2.3586
 30
0.0
 40
  0.0514
 1
1500
 0
LINE
 8
PARTS
 10
  1.7000
 20
  2.5000
 30
0.0
 11
  1.8000
 21
  2.5000
 31
0.0
 0
LINE
 8
PARTS
 10
  2.3000
 20
  2.5000
 30
0.0
 11
  2.2000
 21
  2.5000
 31
0.0
 0
POLYLINE
 8
PARTS
 66
1
 10
0.0
 20
0.0
 30
0.0
 0
VERTEX
 8
PARTS
 10
  1.8500
 20
  2.5500
 30
0.0
 42
  0.4142
 0
VERTEX
 8
PARTS
 10
  1.8000
 20
  2.5000
 30
0.0
 0
SEQEND
 8
PARTS
 0
POLYLINE
 8
PARTS
 66
1
 10
0.0
 20
0.0
 30
0.0
 0
VERTEX
 8
PARTS
 10
  1.9000
 20
  2.5000
 30
0.0
 42
  0.4142
 0
VERTEX
 8
PARTS
 10
  1.8500
 20
  2.5500
 30
0.0
 0
SEQEND
 8
PARTS
 0
POLYLINE
 8
PARTS
 66
1
 10
0.0
 20
0.0
 30
0.0
 0
VERTEX
 8
PARTS
 10
  1.9500
 20
  2.5500
 30
0.0
 42
  0.4142
 0
VERTEX
 8
PARTS
 10
  1.9000
 20
  2.5000
 30
0.0
 0
SEQEND
 8
PARTS
 0
POLYLINE
 8
PARTS
 66
1
 10
0.0
 20
0.0
 30
0.0
 0
VERTEX
 8
PARTS
 10
  2.0000
 20
  2.5000
 30
0.0
 42
  0.4142
 0
VERTEX
 8
PARTS
 10
  1.9500
 20
  2.5500
 30
0.0
 0
SEQEND
 8
PARTS
 0
POLYLINE
 8
PARTS
 66
1
 10
0.0
 20
0.0
 30
0.0
 0
VERTEX
 8
PARTS
 10
  2.0500
 20
  2.5500
 30
0.0
 42
  0.4142
 0
VERTEX
 8
PARTS
 10
  2.0000
 20
  2.5000
 30
0.0
 0
SEQEND
 8
PARTS
 0
POLYLINE
 8
PARTS
 66
1
 10
0.0
 20
0.0
 30
0.0
 0
VERTEX
 8
PARTS
 10
  2.1000
 20
  2.5000
 30
0.0
 42
  0.4142
 0
VERTEX
 8
PARTS
 10
  2.0500
 20
  2.5500
 30
0.0
 0
SEQEND
 8
PARTS
 0
POLYLINE
 8
PARTS
 66
1
 10
0.0
 20
0.0
 30
0.0
 0
VERTEX
 8
PARTS
 10
  2.1500
 20
  2.5500
 30
0.0
 42
  0.4142
 0
VERTEX
 8
PARTS
 10
  2.1000
 20
  2.5000
 30
0.0
 0
SEQEND
 8
PARTS
 0
POLYLINE
 8
PARTS
 66
1
 10
0.0
 20
0.0
 30
0.0
 0
VERTEX
 8
PARTS
 10
  2.2000
 20
  2.5000
 30
0.0
 42
  0.4142
 0
VERTEX
 8
PARTS
 10
  2.1500
 20
  2.5500
 30
0.0
 0
SEQEND
 8
PARTS
 0
TEXT
 8
PARTTEXT
 10
  4.6900
 20
  4.5186
 30
0.0
 40
  0.0514
 1
C67
 0
TEXT
 8
PARTTEXT
 10
  4.6900
 20
  4.4286
 30
0.0
 40
  0.0514
 1
220pF
 0
LINE
 8
PARTS
 10
  4.5000
 20
  4.7000
 30
0.0
 11
  4.5000
 21
  4.6000
 31
0.0
 0
LINE
 8
PARTS
 10
  4.5000
 20
  4.4000
 30
0.0
 11
  4.5000
 21
  4.5000
 31
0.0
 0
POLYLINE
 8
PARTS
 66
1
 10
0.0
 20
0.0
 30
0.0
 0
VERTEX
 8
PARTS
 10
  4.5000
 20
  4.6000
 30
0.0
 0
VERTEX
 8
PARTS
 10
  4.5000
 20
  4.5800
 30
0.0
 0
SEQEND
 8
PARTS
 0
POLYLINE
 8
PARTS
 66
1
 10
0.0
 20
0.0
 30
0.0
 0
VERTEX
 8
PARTS
 10
  4.4100
 20
  4.5300
 30
0.0
 0
VERTEX
 8
PARTS
 10
  4.5900
 20
  4.5300
 30
0.0
 0
SEQEND
 8
PARTS
 0
POLYLINE
 8
PARTS
 66
1
 10
0.0
 20
0.0
 30
0.0
 0
VERTEX
 8
PARTS
 10
  4.4100
 20
  4.5800
 30
0.0
 0
VERTEX
 8
PARTS
 10
  4.5900
 20
  4.5800
 30
0.0
 0
SEQEND
 8
PARTS
 0
POLYLINE
 8
PARTS
 66
1
 10
0.0
 20
0.0
 30
0.0
 0
VERTEX
 8
PARTS
 10
  4.5000
 20
  4.5000
 30
0.0
 0
VERTEX
 8
PARTS
 10
  4.5000
 20
  4.5300
 30
0.0
 0
SEQEND
 8
PARTS
 0
TEXT
 8
PARTTEXT
 10
  4.9000
 20
  6.2686
 30
0.0
 40
  0.0514
 1
R75
 0
TEXT
 8
PARTTEXT
 10
  4.9000
 20
  5.8586
 30
0.0
 40
  0.0514
 1
1k
 0
LINE
 8
PARTS
 10
  4.8000
 20
  6.1000
 30
0.0
 11
  4.9000
 21
  6.1000
 31
0.0
 0
LINE
 8
PARTS
 10
  5.3000
 20
  6.1000
 30
0.0
 11
  5.2000
 21
  6.1000
 31
0.0
 0
POLYLINE
 8
PARTS
 66
1
 10
0.0
 20
0.0
 30
0.0
 0
VERTEX
 8
PARTS
 10
  4.9000
 20
  6.1000
 30
0.0
 0
VERTEX
 8
PARTS
 10
  4.9300
 20
  6.1300
 30
0.0
 0
SEQEND
 8
PARTS
 0
POLYLINE
 8
PARTS
 66
1
 10
0.0
 20
0.0
 30
0.0
 0
VERTEX
 8
PARTS
 10
  4.9300
 20
  6.1300
 30
0.0
 0
VERTEX
 8
PARTS
 10
  4.9900
 20
  6.0700
 30
0.0
 0
SEQEND
 8
PARTS
 0
POLYLINE
 8
PARTS
 66
1
 10
0.0
 20
0.0
 30
0.0
 0
VERTEX
 8
PARTS
 10
  4.9900
 20
  6.0700
 30
0.0
 0
VERTEX
 8
PARTS
 10
  5.0500
 20
  6.1300
 30
0.0
 0
SEQEND
 8
PARTS
 0
POLYLINE
 8
PARTS
 66
1
 10
0.0
 20
0.0
 30
0.0
 0
VERTEX
 8
PARTS
 10
  5.0500
 20
  6.1300
 30
0.0
 0
VERTEX
 8
PARTS
 10
  5.1100
 20
  6.0700
 30
0.0
 0
SEQEND
 8
PARTS
 0
POLYLINE
 8
PARTS
 66
1
 10
0.0
 20
0.0
 30
0.0
 0
VERTEX
 8
PARTS
 10
  5.1100
 20
  6.0700
 30
0.0
 0
VERTEX
 8
PARTS
 10
  5.1700
 20
  6.1300
 30
0.0
 0
SEQEND
 8
PARTS
 0
POLYLINE
 8
PARTS
 66
1
 10
0.0
 20
0.0
 30
0.0
 0
VERTEX
 8
PARTS
 10
  5.1700
 20
  6.1300
 30
0.0
 0
VERTEX
 8
PARTS
 10
  5.2000
 20
  6.1000
 30
0.0
 0
SEQEND
 8
PARTS
 0
TEXT
 8
PARTTEXT
 10
  0.7000
 20
  2.8186
 30
0.0
 40
  0.0514
 1
J52
 0
TEXT
 8
PARTTEXT
 10
  0.7000
 20
  2.0186
 30
0.0
 40
  0.0514
 1
HEADER 2
 0
LINE
 8
PARTS
 10
  1.3000
 20
  2.5000
 30
0.0
 11
  1.0000
 21
  2.5000
 31
0.0
 0
TEXT
 8
PARTS
 10
  1.0600
 20
  2.5300
 30
0.0
 40
  0.0500
 1
1
 0
LINE
 8
PARTS
 10
  1.3000
 20
  2.4000
 30
0.0
 11
  1.0000
 21
  2.4000
 31
0.0
 0
TEXT
 8
PARTS
 10
  1.0600
 20
  2.4300
 30
0.0
 40
  0.0500
 1
2
 0
POLYLINE
 8
PARTS
 66
1
 70
1
 10
0.0
 20
0.0
 30
0.0
 0
VERTEX
 8
PARTS
 10
  0.7000
 20
  2.6000
 30
0.0
 0
VERTEX
 8
PARTS
 10
  1.0000
 20
  2.6000
 30
0.0
 0
VERTEX
 8
PARTS
 10
  1.0000
 20
  2.3000
 30
0.0
 0
VERTEX
 8
PARTS
 10
  0.7000
 20
  2.3000
 30
0.0
 0
SEQEND
 8
PARTS
 0
POLYLINE
 8
PARTS
 66
1
 10
0.0
 20
0.0
 30
0.0
 0
VERTEX
 8
PARTS
 10
  0.9000
 20
  2.6000
 30
0.0
 0
VERTEX
 8
PARTS
 10
  0.9000
 20
  2.6000
 30
0.0
 0
VERTEX
 8
PARTS
 10
  0.9000
 20
  2.6300
 30
0.0
 0
VERTEX
 8
PARTS
 10
  0.8100
 20
  2.6300
 30
0.0
 0
VERTEX
 8
PARTS
 10
  0.8100
 20
  2.6000
 30
0.0
 0
SEQEND
 8
PARTS
 0
POLYLINE
 8
PARTS
 66
1
 10
0.0
 20
0.0
 30
0.0
 0
VERTEX
 8
PARTS
 10
  0.8100
 20
  2.3000
 30
0.0
 0
VERTEX
 8
PARTS
 10
  0.8100
 20
  2.3000
 30
0.0
 0
VERTEX
 8
PARTS
 10
  0.8100
 20
  2.2700
 30
0.0
 0
VERTEX
 8
PARTS
 10
  0.9000
 20
  2.2700
 30
0.0
 0
VERTEX
 8
PARTS
 10
  0.9000
 20
  2.3000
 30
0.0
 0
SEQEND
 8
PARTS
 0
TEXT
 8
PARTTEXT
 10
  3.6000
 20
  6.9686
 30
0.0
 40
  0.0514
 1
J60
 0
TEXT
 8
PARTTEXT
 10
  3.6000
 20
  6.4586
 30
0.0
 40
  0.0514
 1
JUMPER1
 0
LINE
 8
PARTS
 10
  4.3000
 20
  6.7000
 30
0.0
 11
  4.0000
 21
  6.7000
 31
0.0
 0
TEXT
 8
PARTS
 10
  4.0600
 20
  6.7300
 30
0.0
 40
  0.0500
 1
1
 0
LINE
 8
PARTS
 10
  3.3000
 20
  6.7000
 30
0.0
 11
  3.6000
 21
  6.7000
 31
0.0
 0
TEXT
 8
PARTS
 10
  3.5000
 20
  6.7300
 30
0.0
 40
  0.0500
 1
2
 0
POLYLINE
 8
PARTS
 66
1
 10
0.0
 20
0.0
 30
0.0
 0
VERTEX
 8
PARTS
 10
  3.9000
 20
  6.7000
 30
0.0
 42
  1.0000
 0
VERTEX
 8
PARTS
 10
  3.7000
 20
  6.7000
 30
0.0
 0
SEQEND
 8
PARTS
 0
POLYLINE
 8
PARTS
 66
1
 70
1
 10
0.0
 20
0.0
 30
0.0
 0
VERTEX
 8
PARTS
 10
  3.7100
 20
  6.7000
 30
0.0
 42
  0.0985
 0
VERTEX
 8
PARTS
 10
  3.7092
 20
  6.7038
 30
0.0
 42
  0.0985
 0
VERTEX
 8
PARTS
 10
  3.7071
 20
  6.7071
 30
0.0
 42
  0.0985
 0
VERTEX
 8
PARTS
 10
  3.7038
 20
  6.7092
 30
0.0
 42
  0.0985
 0
VERTEX
 8
PARTS
 10
  3.7000
 20
  6.7100
 30
0.0
 42
  0.0985
 0
VERTEX
 8
PARTS
 10
  3.6962
 20
  6.7092
 30
0.0
 42
  0.0985
 0
VERTEX
 8
PARTS
 10
  3.6929
 20
  6.7071
 30
0.0
 42
  0.0985
 0
VERTEX
 8
PARTS
 10
  3.6908
 20
  6.7038
 30
0.0
 42
  0.0985
 0
VERTEX
 8
PARTS
 10
  3.6900
 20
  6.7000
 30
0.0
 42
  0.0985
 0
VERTEX
 8
PARTS
 10
  3.6908
 20
  6.6962
 30
0.0
 42
  0.0985
 0
VERTEX
 8
PARTS
 10
  3.6929
 20
  6.6929
 30
0.0
 42
  0.0985
 0
VERTEX
 8
PARTS
 10
  3.6962
 20
  6.6908
 30
0.0
 42
  0.0985
 0
VERTEX
 8
PARTS
 10
  3.7000
 20
  6.6900
 30
0.0
 42
  0.0985
 0
VERTEX
 8
PARTS
 10
  3.7038
 20
  6.6908
 30
0.0
 42
  0.0985
 0
VERTEX
 8
PARTS
 10
  3.7071
 20
  6.6929
 30
0.0
 42
  0.0985
 0
VERTEX
 8
PARTS
 10
  3.7092
 20
  6.6962
 30
0.0
 42
  0.0985
 0
SEQEND
 8
PARTS
 0
POLYLINE
 8
PARTS
 66
1
 70
1
 10
0.0
 20
0.0
 30
0.0
 0
VERTEX
 8
PARTS
 10
  3.9100
 20
  6.7000
 30
0.0
 42
  0.0985
 0
VERTEX
 8
PARTS
 10
  3.9092
 20
  6.7038
 30
0.0
 42
  0.0985
 0
VERTEX
 8
PARTS
 10
  3.9071
 20
  6.7071
 30
0.0
 42
  0.0985
 0
VERTEX
 8
PARTS
 10
  3.9038
 20
  6.7092
 30
0.0
 42
  0.0985
 0
VERTEX
 8
PARTS
 10
  3.9000
 20
  6.7100
 30
0.0
 42
  0.0985
 0
VERTEX
 8
PARTS
 10
  3.8962
 20
  6.7092
 30
0.0
 42
  0.0985
 0
VERTEX
 8
PARTS
 10
  3.8929
 20
  6.7071
 30
0.0
 42
  0.0985
 0
VERTEX
 8
PARTS
 10
  3.8908
 20
  6.7038
 30
0.0
 42
  0.0985
 0
VERTEX
 8
PARTS
 10
  3.8900
 20
  6.7000
 30
0.0
 42
  0.0985
 0
VERTEX
 8
PARTS
 10
  3.8908
 20
  6.6962
 30
0.0
 42
  0.0985
 0
VERTEX
 8
PARTS
 10
  3.8929
 20
  6.6929
 30
0.0
 42
  0.0985
 0
VERTEX
 8
PARTS
 10
  3.8962
 20
  6.6908
 30
0.0
 42
  0.0985
 0
VERTEX
 8
PARTS
 10
  3.9000
 20
  6.6900
 30
0.0
 42
  0.0985
 0
VERTEX
 8
PARTS
 10
  3.9038
 20
  6.6908
 30
0.0
 42
  0.0985
 0
VERTEX
 8
PARTS
 10
  3.9071
 20
  6.6929
 30
0.0
 42
  0.0985
 0
VERTEX
 8
PARTS
 10
  3.9092
 20
  6.6962
 30
0.0
 42
  0.0985
 0
SEQEND
 8
PARTS
 0
POLYLINE
 8
PARTS
 66
1
 10
0.0
 20
0.0
 30
0.0
 0
VERTEX
 8
PARTS
 10
  3.6000
 20
  6.7000
 30
0.0
 0
VERTEX
 8
PARTS
 10
  3.7000
 20
  6.7000
 30
0.0
 0
SEQEND
 8
PARTS
 0
POLYLINE
 8
PARTS
 66
1
 10
0.0
 20
0.0
 30
0.0
 0
VERTEX
 8
PARTS
 10
  3.9000
 20
  6.7000
 30
0.0
 0
VERTEX
 8
PARTS
 10
  4.0000
 20
  6.7000
 30
0.0
 0
SEQEND
 8
PARTS
 0
POLYLINE
 8
PARTS
 66
1
 70
1
 10
0.0
 20
0.0
 30
0.0
 0
VERTEX
 8
PARTS
 10
  4.0000
 20
  6.6000
 30
0.0
 0
VERTEX
 8
PARTS
 10
  3.6000
 20
  6.6000
 30
0.0
 0
VERTEX
 8
PARTS
 10
  3.6000
 20
  6.9000
 30
0.0
 0
VERTEX
 8
PARTS
 10
  4.0000
 20
  6.9000
 30
0.0
 0
SEQEND
 8
PARTS
 0
TEXT
 8
PARTTEXT
 10
  4.9000
 20
  4.0686
 30
0.0
 40
  0.0514
 1
R74
 0
TEXT
 8
PARTTEXT
 10
  4.9000
 20
  3.6586
 30
0.0
 40
  0.0514
 1
1k
 0
LINE
 8
PARTS
 10
  4.8000
 20
  3.9000
 30
0.0
 11
  4.9000
 21
  3.9000
 31
0.0
 0
LINE
 8
PARTS
 10
  5.3000
 20
  3.9000
 30
0.0
 11
  5.2000
 21
  3.9000
 31
0.0
 0
POLYLINE
 8
PARTS
 66
1
 10
0.0
 20
0.0
 30
0.0
 0
VERTEX
 8
PARTS
 10
  4.9000
 20
  3.9000
 30
0.0
 0
VERTEX
 8
PARTS
 10
  4.9300
 20
  3.9300
 30
0.0
 0
SEQEND
 8
PARTS
 0
POLYLINE
 8
PARTS
 66
1
 10
0.0
 20
0.0
 30
0.0
 0
VERTEX
 8
PARTS
 10
  4.9300
 20
  3.9300
 30
0.0
 0
VERTEX
 8
PARTS
 10
  4.9900
 20
  3.8700
 30
0.0
 0
SEQEND
 8
PARTS
 0
POLYLINE
 8
PARTS
 66
1
 10
0.0
 20
0.0
 30
0.0
 0
VERTEX
 8
PARTS
 10
  4.9900
 20
  3.8700
 30
0.0
 0
VERTEX
 8
PARTS
 10
  5.0500
 20
  3.9300
 30
0.0
 0
SEQEND
 8
PARTS
 0
POLYLINE
 8
PARTS
 66
1
 10
0.0
 20
0.0
 30
0.0
 0
VERTEX
 8
PARTS
 10
  5.0500
 20
  3.9300
 30
0.0
 0
VERTEX
 8
PARTS
 10
  5.1100
 20
  3.8700
 30
0.0
 0
SEQEND
 8
PARTS
 0
POLYLINE
 8
PARTS
 66
1
 10
0.0
 20
0.0
 30
0.0
 0
VERTEX
 8
PARTS
 10
  5.1100
 20
  3.8700
 30
0.0
 0
VERTEX
 8
PARTS
 10
  5.1700
 20
  3.9300
 30
0.0
 0
SEQEND
 8
PARTS
 0
POLYLINE
 8
PARTS
 66
1
 10
0.0
 20
0.0
 30
0.0
 0
VERTEX
 8
PARTS
 10
  5.1700
 20
  3.9300
 30
0.0
 0
VERTEX
 8
PARTS
 10
  5.2000
 20
  3.9000
 30
0.0
 0
SEQEND
 8
PARTS
 0
TEXT
 8
PARTTEXT
 10
  4.8000
 20
  6.9686
 30
0.0
 40
  0.0514
 1
J59
 0
TEXT
 8
PARTTEXT
 10
  4.8000
 20
  6.4586
 30
0.0
 40
  0.0514
 1
JUMPER1
 0
LINE
 8
PARTS
 10
  5.5000
 20
  6.7000
 30
0.0
 11
  5.2000
 21
  6.7000
 31
0.0
 0
TEXT
 8
PARTS
 10
  5.2600
 20
  6.7300
 30
0.0
 40
  0.0500
 1
1
 0
LINE
 8
PARTS
 10
  4.5000
 20
  6.7000
 30
0.0
 11
  4.8000
 21
  6.7000
 31
0.0
 0
TEXT
 8
PARTS
 10
  4.7000
 20
  6.7300
 30
0.0
 40
  0.0500
 1
2
 0
POLYLINE
 8
PARTS
 66
1
 10
0.0
 20
0.0
 30
0.0
 0
VERTEX
 8
PARTS
 10
  5.1000
 20
  6.7000
 30
0.0
 42
  1.0000
 0
VERTEX
 8
PARTS
 10
  4.9000
 20
  6.7000
 30
0.0
 0
SEQEND
 8
PARTS
 0
POLYLINE
 8
PARTS
 66
1
 70
1
 10
0.0
 20
0.0
 30
0.0
 0
VERTEX
 8
PARTS
 10
  4.9100
 20
  6.7000
 30
0.0
 42
  0.0985
 0
VERTEX
 8
PARTS
 10
  4.9092
 20
  6.7038
 30
0.0
 42
  0.0985
 0
VERTEX
 8
PARTS
 10
  4.9071
 20
  6.7071
 30
0.0
 42
  0.0985
 0
VERTEX
 8
PARTS
 10
  4.9038
 20
  6.7092
 30
0.0
 42
  0.0985
 0
VERTEX
 8
PARTS
 10
  4.9000
 20
  6.7100
 30
0.0
 42
  0.0985
 0
VERTEX
 8
PARTS
 10
  4.8962
 20
  6.7092
 30
0.0
 42
  0.0985
 0
VERTEX
 8
PARTS
 10
  4.8929
 20
  6.7071
 30
0.0
 42
  0.0985
 0
VERTEX
 8
PARTS
 10
  4.8908
 20
  6.7038
 30
0.0
 42
  0.0985
 0
VERTEX
 8
PARTS
 10
  4.8900
 20
  6.7000
 30
0.0
 42
  0.0985
 0
VERTEX
 8
PARTS
 10
  4.8908
 20
  6.6962
 30
0.0
 42
  0.0985
 0
VERTEX
 8
PARTS
 10
  4.8929
 20
  6.6929
 30
0.0
 42
  0.0985
 0
VERTEX
 8
PARTS
 10
  4.8962
 20
  6.6908
 30
0.0
 42
  0.0985
 0
VERTEX
 8
PARTS
 10
  4.9000
 20
  6.6900
 30
0.0
 42
  0.0985
 0
VERTEX
 8
PARTS
 10
  4.9038
 20
  6.6908
 30
0.0
 42
  0.0985
 0
VERTEX
 8
PARTS
 10
  4.9071
 20
  6.6929
 30
0.0
 42
  0.0985
 0
VERTEX
 8
PARTS
 10
  4.9092
 20
  6.6962
 30
0.0
 42
  0.0985
 0
SEQEND
 8
PARTS
 0
POLYLINE
 8
PARTS
 66
1
 70
1
 10
0.0
 20
0.0
 30
0.0
 0
VERTEX
 8
PARTS
 10
  5.1100
 20
  6.7000
 30
0.0
 42
  0.0985
 0
VERTEX
 8
PARTS
 10
  5.1092
 20
  6.7038
 30
0.0
 42
  0.0985
 0
VERTEX
 8
PARTS
 10
  5.1071
 20
  6.7071
 30
0.0
 42
  0.0985
 0
VERTEX
 8
PARTS
 10
  5.1038
 20
  6.7092
 30
0.0
 42
  0.0985
 0
VERTEX
 8
PARTS
 10
  5.1000
 20
  6.7100
 30
0.0
 42
  0.0985
 0
VERTEX
 8
PARTS
 10
  5.0962
 20
  6.7092
 30
0.0
 42
  0.0985
 0
VERTEX
 8
PARTS
 10
  5.0929
 20
  6.7071
 30
0.0
 42
  0.0985
 0
VERTEX
 8
PARTS
 10
  5.0908
 20
  6.7038
 30
0.0
 42
  0.0985
 0
VERTEX
 8
PARTS
 10
  5.0900
 20
  6.7000
 30
0.0
 42
  0.0985
 0
VERTEX
 8
PARTS
 10
  5.0908
 20
  6.6962
 30
0.0
 42
  0.0985
 0
VERTEX
 8
PARTS
 10
  5.0929
 20
  6.6929
 30
0.0
 42
  0.0985
 0
VERTEX
 8
PARTS
 10
  5.0962
 20
  6.6908
 30
0.0
 42
  0.0985
 0
VERTEX
 8
PARTS
 10
  5.1000
 20
  6.6900
 30
0.0
 42
  0.0985
 0
VERTEX
 8
PARTS
 10
  5.1038
 20
  6.6908
 30
0.0
 42
  0.0985
 0
VERTEX
 8
PARTS
 10
  5.1071
 20
  6.6929
 30
0.0
 42
  0.0985
 0
VERTEX
 8
PARTS
 10
  5.1092
 20
  6.6962
 30
0.0
 42
  0.0985
 0
SEQEND
 8
PARTS
 0
POLYLINE
 8
PARTS
 66
1
 10
0.0
 20
0.0
 30
0.0
 0
VERTEX
 8
PARTS
 10
  4.8000
 20
  6.7000
 30
0.0
 0
VERTEX
 8
PARTS
 10
  4.9000
 20
  6.7000
 30
0.0
 0
SEQEND
 8
PARTS
 0
POLYLINE
 8
PARTS
 66
1
 10
0.0
 20
0.0
 30
0.0
 0
VERTEX
 8
PARTS
 10
  5.1000
 20
  6.7000
 30
0.0
 0
VERTEX
 8
PARTS
 10
  5.2000
 20
  6.7000
 30
0.0
 0
SEQEND
 8
PARTS
 0
POLYLINE
 8
PARTS
 66
1
 70
1
 10
0.0
 20
0.0
 30
0.0
 0
VERTEX
 8
PARTS
 10
  5.2000
 20
  6.6000
 30
0.0
 0
VERTEX
 8
PARTS
 10
  4.8000
 20
  6.6000
 30
0.0
 0
VERTEX
 8
PARTS
 10
  4.8000
 20
  6.9000
 30
0.0
 0
VERTEX
 8
PARTS
 10
  5.2000
 20
  6.9000
 30
0.0
 0
SEQEND
 8
PARTS
 0
TEXT
 8
PARTTEXT
 10
  5.1000
 20
  3.6686
 30
0.0
 40
  0.0514
 1
J58
 0
TEXT
 8
PARTTEXT
 10
  5.1000
 20
  3.1586
 30
0.0
 40
  0.0514
 1
JUMPER1
 0
LINE
 8
PARTS
 10
  4.8000
 20
  3.5000
 30
0.0
 11
  5.1000
 21
  3.5000
 31
0.0
 0
TEXT
 8
PARTS
 10
  5.0000
 20
  3.5300
 30
0.0
 40
  0.0500
 1
1
 0
LINE
 8
PARTS
 10
  5.8000
 20
  3.5000
 30
0.0
 11
  5.5000
 21
  3.5000
 31
0.0
 0
TEXT
 8
PARTS
 10
  5.5600
 20
  3.5300
 30
0.0
 40
  0.0500
 1
2
 0
POLYLINE
 8
PARTS
 66
1
 10
0.0
 20
0.0
 30
0.0
 0
VERTEX
 8
PARTS
 10
  5.2000
 20
  3.5000
 30
0.0
 42
 -1.0000
 0
VERTEX
 8
PARTS
 10
  5.4000
 20
  3.5000
 30
0.0
 0
SEQEND
 8
PARTS
 0
POLYLINE
 8
PARTS
 66
1
 70
1
 10
0.0
 20
0.0
 30
0.0
 0
VERTEX
 8
PARTS
 10
  5.4100
 20
  3.5000
 30
0.0
 42
  0.0985
 0
VERTEX
 8
PARTS
 10
  5.4092
 20
  3.5038
 30
0.0
 42
  0.0985
 0
VERTEX
 8
PARTS
 10
  5.4071
 20
  3.5071
 30
0.0
 42
  0.0985
 0
VERTEX
 8
PARTS
 10
  5.4038
 20
  3.5092
 30
0.0
 42
  0.0985
 0
VERTEX
 8
PARTS
 10
  5.4000
 20
  3.5100
 30
0.0
 42
  0.0985
 0
VERTEX
 8
PARTS
 10
  5.3962
 20
  3.5092
 30
0.0
 42
  0.0985
 0
VERTEX
 8
PARTS
 10
  5.3929
 20
  3.5071
 30
0.0
 42
  0.0985
 0
VERTEX
 8
PARTS
 10
  5.3908
 20
  3.5038
 30
0.0
 42
  0.0985
 0
VERTEX
 8
PARTS
 10
  5.3900
 20
  3.5000
 30
0.0
 42
  0.0985
 0
VERTEX
 8
PARTS
 10
  5.3908
 20
  3.4962
 30
0.0
 42
  0.0985
 0
VERTEX
 8
PARTS
 10
  5.3929
 20
  3.4929
 30
0.0
 42
  0.0985
 0
VERTEX
 8
PARTS
 10
  5.3962
 20
  3.4908
 30
0.0
 42
  0.0985
 0
VERTEX
 8
PARTS
 10
  5.4000
 20
  3.4900
 30
0.0
 42
  0.0985
 0
VERTEX
 8
PARTS
 10
  5.4038
 20
  3.4908
 30
0.0
 42
  0.0985
 0
VERTEX
 8
PARTS
 10
  5.4071
 20
  3.4929
 30
0.0
 42
  0.0985
 0
VERTEX
 8
PARTS
 10
  5.4092
 20
  3.4962
 30
0.0
 42
  0.0985
 0
SEQEND
 8
PARTS
 0
POLYLINE
 8
PARTS
 66
1
 70
1
 10
0.0
 20
0.0
 30
0.0
 0
VERTEX
 8
PARTS
 10
  5.2100
 20
  3.5000
 30
0.0
 42
  0.0985
 0
VERTEX
 8
PARTS
 10
  5.2092
 20
  3.5038
 30
0.0
 42
  0.0985
 0
VERTEX
 8
PARTS
 10
  5.2071
 20
  3.5071
 30
0.0
 42
  0.0985
 0
VERTEX
 8
PARTS
 10
  5.2038
 20
  3.5092
 30
0.0
 42
  0.0985
 0
VERTEX
 8
PARTS
 10
  5.2000
 20
  3.5100
 30
0.0
 42
  0.0985
 0
VERTEX
 8
PARTS
 10
  5.1962
 20
  3.5092
 30
0.0
 42
  0.0985
 0
VERTEX
 8
PARTS
 10
  5.1929
 20
  3.5071
 30
0.0
 42
  0.0985
 0
VERTEX
 8
PARTS
 10
  5.1908
 20
  3.5038
 30
0.0
 42
  0.0985
 0
VERTEX
 8
PARTS
 10
  5.1900
 20
  3.5000
 30
0.0
 42
  0.0985
 0
VERTEX
 8
PARTS
 10
  5.1908
 20
  3.4962
 30
0.0
 42
  0.0985
 0
VERTEX
 8
PARTS
 10
  5.1929
 20
  3.4929
 30
0.0
 42
  0.0985
 0
VERTEX
 8
PARTS
 10
  5.1962
 20
  3.4908
 30
0.0
 42
  0.0985
 0
VERTEX
 8
PARTS
 10
  5.2000
 20
  3.4900
 30
0.0
 42
  0.0985
 0
VERTEX
 8
PARTS
 10
  5.2038
 20
  3.4908
 30
0.0
 42
  0.0985
 0
VERTEX
 8
PARTS
 10
  5.2071
 20
  3.4929
 30
0.0
 42
  0.0985
 0
VERTEX
 8
PARTS
 10
  5.2092
 20
  3.4962
 30
0.0
 42
  0.0985
 0
SEQEND
 8
PARTS
 0
POLYLINE
 8
PARTS
 66
1
 10
0.0
 20
0.0
 30
0.0
 0
VERTEX
 8
PARTS
 10
  5.5000
 20
  3.5000
 30
0.0
 0
VERTEX
 8
PARTS
 10
  5.4000
 20
  3.5000
 30
0.0
 0
SEQEND
 8
PARTS
 0
POLYLINE
 8
PARTS
 66
1
 10
0.0
 20
0.0
 30
0.0
 0
VERTEX
 8
PARTS
 10
  5.2000
 20
  3.5000
 30
0.0
 0
VERTEX
 8
PARTS
 10
  5.1000
 20
  3.5000
 30
0.0
 0
SEQEND
 8
PARTS
 0
POLYLINE
 8
PARTS
 66
1
 70
1
 10
0.0
 20
0.0
 30
0.0
 0
VERTEX
 8
PARTS
 10
  5.1000
 20
  3.6000
 30
0.0
 0
VERTEX
 8
PARTS
 10
  5.5000
 20
  3.6000
 30
0.0
 0
VERTEX
 8
PARTS
 10
  5.5000
 20
  3.3000
 30
0.0
 0
VERTEX
 8
PARTS
 10
  5.1000
 20
  3.3000
 30
0.0
 0
SEQEND
 8
PARTS
 0
TEXT
 8
PARTTEXT
 10
  3.7000
 20
  4.0686
 30
0.0
 40
  0.0514
 1
R73
 0
TEXT
 8
PARTTEXT
 10
  3.7000
 20
  3.6586
 30
0.0
 40
  0.0514
 1
100
 0
LINE
 8
PARTS
 10
  3.6000
 20
  3.9000
 30
0.0
 11
  3.7000
 21
  3.9000
 31
0.0
 0
LINE
 8
PARTS
 10
  4.1000
 20
  3.9000
 30
0.0
 11
  4.0000
 21
  3.9000
 31
0.0
 0
POLYLINE
 8
PARTS
 66
1
 10
0.0
 20
0.0
 30
0.0
 0
VERTEX
 8
PARTS
 10
  3.7000
 20
  3.9000
 30
0.0
 0
VERTEX
 8
PARTS
 10
  3.7300
 20
  3.9300
 30
0.0
 0
SEQEND
 8
PARTS
 0
POLYLINE
 8
PARTS
 66
1
 10
0.0
 20
0.0
 30
0.0
 0
VERTEX
 8
PARTS
 10
  3.7300
 20
  3.9300
 30
0.0
 0
VERTEX
 8
PARTS
 10
  3.7900
 20
  3.8700
 30
0.0
 0
SEQEND
 8
PARTS
 0
POLYLINE
 8
PARTS
 66
1
 10
0.0
 20
0.0
 30
0.0
 0
VERTEX
 8
PARTS
 10
  3.7900
 20
  3.8700
 30
0.0
 0
VERTEX
 8
PARTS
 10
  3.8500
 20
  3.9300
 30
0.0
 0
SEQEND
 8
PARTS
 0
POLYLINE
 8
PARTS
 66
1
 10
0.0
 20
0.0
 30
0.0
 0
VERTEX
 8
PARTS
 10
  3.8500
 20
  3.9300
 30
0.0
 0
VERTEX
 8
PARTS
 10
  3.9100
 20
  3.8700
 30
0.0
 0
SEQEND
 8
PARTS
 0
POLYLINE
 8
PARTS
 66
1
 10
0.0
 20
0.0
 30
0.0
 0
VERTEX
 8
PARTS
 10
  3.9100
 20
  3.8700
 30
0.0
 0
VERTEX
 8
PARTS
 10
  3.9700
 20
  3.9300
 30
0.0
 0
SEQEND
 8
PARTS
 0
POLYLINE
 8
PARTS
 66
1
 10
0.0
 20
0.0
 30
0.0
 0
VERTEX
 8
PARTS
 10
  3.9700
 20
  3.9300
 30
0.0
 0
VERTEX
 8
PARTS
 10
  4.0000
 20
  3.9000
 30
0.0
 0
SEQEND
 8
PARTS
 0
TEXT
 8
PARTTEXT
 10
  3.0000
 20
  3.0686
 30
0.0
 40
  0.0514
 1
R68
 0
TEXT
 8
PARTTEXT
 10
  3.0000
 20
  2.6586
 30
0.0
 40
  0.0514
 1
1MEG
 0
LINE
 8
PARTS
 10
  2.9000
 20
  2.9000
 30
0.0
 11
  3.0000
 21
  2.9000
 31
0.0
 0
LINE
 8
PARTS
 10
  3.4000
 20
  2.9000
 30
0.0
 11
  3.3000
 21
  2.9000
 31
0.0
 0
POLYLINE
 8
PARTS
 66
1
 10
0.0
 20
0.0
 30
0.0
 0
VERTEX
 8
PARTS
 10
  3.0000
 20
  2.9000
 30
0.0
 0
VERTEX
 8
PARTS
 10
  3.0300
 20
  2.9300
 30
0.0
 0
SEQEND
 8
PARTS
 0
POLYLINE
 8
PARTS
 66
1
 10
0.0
 20
0.0
 30
0.0
 0
VERTEX
 8
PARTS
 10
  3.0300
 20
  2.9300
 30
0.0
 0
VERTEX
 8
PARTS
 10
  3.0900
 20
  2.8700
 30
0.0
 0
SEQEND
 8
PARTS
 0
POLYLINE
 8
PARTS
 66
1
 10
0.0
 20
0.0
 30
0.0
 0
VERTEX
 8
PARTS
 10
  3.0900
 20
  2.8700
 30
0.0
 0
VERTEX
 8
PARTS
 10
  3.1500
 20
  2.9300
 30
0.0
 0
SEQEND
 8
PARTS
 0
POLYLINE
 8
PARTS
 66
1
 10
0.0
 20
0.0
 30
0.0
 0
VERTEX
 8
PARTS
 10
  3.1500
 20
  2.9300
 30
0.0
 0
VERTEX
 8
PARTS
 10
  3.2100
 20
  2.8700
 30
0.0
 0
SEQEND
 8
PARTS
 0
POLYLINE
 8
PARTS
 66
1
 10
0.0
 20
0.0
 30
0.0
 0
VERTEX
 8
PARTS
 10
  3.2100
 20
  2.8700
 30
0.0
 0
VERTEX
 8
PARTS
 10
  3.2700
 20
  2.9300
 30
0.0
 0
SEQEND
 8
PARTS
 0
POLYLINE
 8
PARTS
 66
1
 10
0.0
 20
0.0
 30
0.0
 0
VERTEX
 8
PARTS
 10
  3.2700
 20
  2.9300
 30
0.0
 0
VERTEX
 8
PARTS
 10
  3.3000
 20
  2.9000
 30
0.0
 0
SEQEND
 8
PARTS
 0
TEXT
 8
PARTTEXT
 10
  3.8000
 20
  6.2686
 30
0.0
 40
  0.0514
 1
R72
 0
TEXT
 8
PARTTEXT
 10
  3.8000
 20
  5.8586
 30
0.0
 40
  0.0514
 1
100
 0
LINE
 8
PARTS
 10
  3.7000
 20
  6.1000
 30
0.0
 11
  3.8000
 21
  6.1000
 31
0.0
 0
LINE
 8
PARTS
 10
  4.2000
 20
  6.1000
 30
0.0
 11
  4.1000
 21
  6.1000
 31
0.0
 0
POLYLINE
 8
PARTS
 66
1
 10
0.0
 20
0.0
 30
0.0
 0
VERTEX
 8
PARTS
 10
  3.8000
 20
  6.1000
 30
0.0
 0
VERTEX
 8
PARTS
 10
  3.8300
 20
  6.1300
 30
0.0
 0
SEQEND
 8
PARTS
 0
POLYLINE
 8
PARTS
 66
1
 10
0.0
 20
0.0
 30
0.0
 0
VERTEX
 8
PARTS
 10
  3.8300
 20
  6.1300
 30
0.0
 0
VERTEX
 8
PARTS
 10
  3.8900
 20
  6.0700
 30
0.0
 0
SEQEND
 8
PARTS
 0
POLYLINE
 8
PARTS
 66
1
 10
0.0
 20
0.0
 30
0.0
 0
VERTEX
 8
PARTS
 10
  3.8900
 20
  6.0700
 30
0.0
 0
VERTEX
 8
PARTS
 10
  3.9500
 20
  6.1300
 30
0.0
 0
SEQEND
 8
PARTS
 0
POLYLINE
 8
PARTS
 66
1
 10
0.0
 20
0.0
 30
0.0
 0
VERTEX
 8
PARTS
 10
  3.9500
 20
  6.1300
 30
0.0
 0
VERTEX
 8
PARTS
 10
  4.0100
 20
  6.0700
 30
0.0
 0
SEQEND
 8
PARTS
 0
POLYLINE
 8
PARTS
 66
1
 10
0.0
 20
0.0
 30
0.0
 0
VERTEX
 8
PARTS
 10
  4.0100
 20
  6.0700
 30
0.0
 0
VERTEX
 8
PARTS
 10
  4.0700
 20
  6.1300
 30
0.0
 0
SEQEND
 8
PARTS
 0
POLYLINE
 8
PARTS
 66
1
 10
0.0
 20
0.0
 30
0.0
 0
VERTEX
 8
PARTS
 10
  4.0700
 20
  6.1300
 30
0.0
 0
VERTEX
 8
PARTS
 10
  4.1000
 20
  6.1000
 30
0.0
 0
SEQEND
 8
PARTS
 0
TEXT
 8
PARTTEXT
 10
  2.2600
 20
  4.5186
 30
0.0
 40
  0.0514
 1
J65
 0
TEXT
 8
PARTTEXT
 10
  2.2600
 20
  4.3986
 30
0.0
 40
  0.0514
 1
JUMPER1
 0
LINE
 8
PARTS
 10
  2.0000
 20
  3.9000
 30
0.0
 11
  2.0000
 21
  4.2000
 31
0.0
 0
TEXT
 8
PARTS
 10
  1.9700
 20
  4.0800
 30
0.0
 40
  0.0500
 50
 90.0000
 1
1
 0
LINE
 8
PARTS
 10
  2.0000
 20
  4.9000
 30
0.0
 11
  2.0000
 21
  4.6000
 31
0.0
 0
TEXT
 8
PARTS
 10
  1.9700
 20
  4.6600
 30
0.0
 40
  0.0500
 50
 90.0000
 1
2
 0
POLYLINE
 8
PARTS
 66
1
 10
0.0
 20
0.0
 30
0.0
 0
VERTEX
 8
PARTS
 10
  2.0000
 20
  4.3000
 30
0.0
 42
  1.0000
 0
VERTEX
 8
PARTS
 10
  2.0000
 20
  4.5000
 30
0.0
 0
SEQEND
 8
PARTS
 0
POLYLINE
 8
PARTS
 66
1
 70
1
 10
0.0
 20
0.0
 30
0.0
 0
VERTEX
 8
PARTS
 10
  2.0100
 20
  4.5000
 30
0.0
 42
  0.0985
 0
VERTEX
 8
PARTS
 10
  2.0092
 20
  4.5038
 30
0.0
 42
  0.0985
 0
VERTEX
 8
PARTS
 10
  2.0071
 20
  4.5071
 30
0.0
 42
  0.0985
 0
VERTEX
 8
PARTS
 10
  2.0038
 20
  4.5092
 30
0.0
 42
  0.0985
 0
VERTEX
 8
PARTS
 10
  2.0000
 20
  4.5100
 30
0.0
 42
  0.0985
 0
VERTEX
 8
PARTS
 10
  1.9962
 20
  4.5092
 30
0.0
 42
  0.0985
 0
VERTEX
 8
PARTS
 10
  1.9929
 20
  4.5071
 30
0.0
 42
  0.0985
 0
VERTEX
 8
PARTS
 10
  1.9908
 20
  4.5038
 30
0.0
 42
  0.0985
 0
VERTEX
 8
PARTS
 10
  1.9900
 20
  4.5000
 30
0.0
 42
  0.0985
 0
VERTEX
 8
PARTS
 10
  1.9908
 20
  4.4962
 30
0.0
 42
  0.0985
 0
VERTEX
 8
PARTS
 10
  1.9929
 20
  4.4929
 30
0.0
 42
  0.0985
 0
VERTEX
 8
PARTS
 10
  1.9962
 20
  4.4908
 30
0.0
 42
  0.0985
 0
VERTEX
 8
PARTS
 10
  2.0000
 20
  4.4900
 30
0.0
 42
  0.0985
 0
VERTEX
 8
PARTS
 10
  2.0038
 20
  4.4908
 30
0.0
 42
  0.0985
 0
VERTEX
 8
PARTS
 10
  2.0071
 20
  4.4929
 30
0.0
 42
  0.0985
 0
VERTEX
 8
PARTS
 10
  2.0092
 20
  4.4962
 30
0.0
 42
  0.0985
 0
SEQEND
 8
PARTS
 0
POLYLINE
 8
PARTS
 66
1
 70
1
 10
0.0
 20
0.0
 30
0.0
 0
VERTEX
 8
PARTS
 10
  2.0100
 20
  4.3000
 30
0.0
 42
  0.0985
 0
VERTEX
 8
PARTS
 10
  2.0092
 20
  4.3038
 30
0.0
 42
  0.0985
 0
VERTEX
 8
PARTS
 10
  2.0071
 20
  4.3071
 30
0.0
 42
  0.0985
 0
VERTEX
 8
PARTS
 10
  2.0038
 20
  4.3092
 30
0.0
 42
  0.0985
 0
VERTEX
 8
PARTS
 10
  2.0000
 20
  4.3100
 30
0.0
 42
  0.0985
 0
VERTEX
 8
PARTS
 10
  1.9962
 20
  4.3092
 30
0.0
 42
  0.0985
 0
VERTEX
 8
PARTS
 10
  1.9929
 20
  4.3071
 30
0.0
 42
  0.0985
 0
VERTEX
 8
PARTS
 10
  1.9908
 20
  4.3038
 30
0.0
 42
  0.0985
 0
VERTEX
 8
PARTS
 10
  1.9900
 20
  4.3000
 30
0.0
 42
  0.0985
 0
VERTEX
 8
PARTS
 10
  1.9908
 20
  4.2962
 30
0.0
 42
  0.0985
 0
VERTEX
 8
PARTS
 10
  1.9929
 20
  4.2929
 30
0.0
 42
  0.0985
 0
VERTEX
 8
PARTS
 10
  1.9962
 20
  4.2908
 30
0.0
 42
  0.0985
 0
VERTEX
 8
PARTS
 10
  2.0000
 20
  4.2900
 30
0.0
 42
  0.0985
 0
VERTEX
 8
PARTS
 10
  2.0038
 20
  4.2908
 30
0.0
 42
  0.0985
 0
VERTEX
 8
PARTS
 10
  2.0071
 20
  4.2929
 30
0.0
 42
  0.0985
 0
VERTEX
 8
PARTS
 10
  2.0092
 20
  4.2962
 30
0.0
 42
  0.0985
 0
SEQEND
 8
PARTS
 0
POLYLINE
 8
PARTS
 66
1
 10
0.0
 20
0.0
 30
0.0
 0
VERTEX
 8
PARTS
 10
  2.0000
 20
  4.6000
 30
0.0
 0
VERTEX
 8
PARTS
 10
  2.0000
 20
  4.5000
 30
0.0
 0
SEQEND
 8
PARTS
 0
POLYLINE
 8
PARTS
 66
1
 10
0.0
 20
0.0
 30
0.0
 0
VERTEX
 8
PARTS
 10
  2.0000
 20
  4.3000
 30
0.0
 0
VERTEX
 8
PARTS
 10
  2.0000
 20
  4.2000
 30
0.0
 0
SEQEND
 8
PARTS
 0
POLYLINE
 8
PARTS
 66
1
 70
1
 10
0.0
 20
0.0
 30
0.0
 0
VERTEX
 8
PARTS
 10
  1.9000
 20
  4.2000
 30
0.0
 0
VERTEX
 8
PARTS
 10
  1.9000
 20
  4.6000
 30
0.0
 0
VERTEX
 8
PARTS
 10
  2.2000
 20
  4.6000
 30
0.0
 0
VERTEX
 8
PARTS
 10
  2.2000
 20
  4.2000
 30
0.0
 0
SEQEND
 8
PARTS
 0
TEXT
 8
PARTTEXT
 10
  3.3000
 20
  4.5186
 30
0.0
 40
  0.0514
 1
R71
 0
TEXT
 8
PARTTEXT
 10
  3.3000
 20
  4.4186
 30
0.0
 40
  0.0514
 1
TBD1206
 0
LINE
 8
PARTS
 10
  3.2000
 20
  4.7000
 30
0.0
 11
  3.2000
 21
  4.6000
 31
0.0
 0
LINE
 8
PARTS
 10
  3.2000
 20
  4.2000
 30
0.0
 11
  3.2000
 21
  4.3000
 31
0.0
 0
POLYLINE
 8
PARTS
 66
1
 10
0.0
 20
0.0
 30
0.0
 0
VERTEX
 8
PARTS
 10
  3.2000
 20
  4.6000
 30
0.0
 0
VERTEX
 8
PARTS
 10
  3.2300
 20
  4.5700
 30
0.0
 0
SEQEND
 8
PARTS
 0
POLYLINE
 8
PARTS
 66
1
 10
0.0
 20
0.0
 30
0.0
 0
VERTEX
 8
PARTS
 10
  3.2300
 20
  4.5700
 30
0.0
 0
VERTEX
 8
PARTS
 10
  3.1700
 20
  4.5100
 30
0.0
 0
SEQEND
 8
PARTS
 0
POLYLINE
 8
PARTS
 66
1
 10
0.0
 20
0.0
 30
0.0
 0
VERTEX
 8
PARTS
 10
  3.1700
 20
  4.5100
 30
0.0
 0
VERTEX
 8
PARTS
 10
  3.2300
 20
  4.4500
 30
0.0
 0
SEQEND
 8
PARTS
 0
POLYLINE
 8
PARTS
 66
1
 10
0.0
 20
0.0
 30
0.0
 0
VERTEX
 8
PARTS
 10
  3.2300
 20
  4.4500
 30
0.0
 0
VERTEX
 8
PARTS
 10
  3.1700
 20
  4.3900
 30
0.0
 0
SEQEND
 8
PARTS
 0
POLYLINE
 8
PARTS
 66
1
 10
0.0
 20
0.0
 30
0.0
 0
VERTEX
 8
PARTS
 10
  3.1700
 20
  4.3900
 30
0.0
 0
VERTEX
 8
PARTS
 10
  3.2300
 20
  4.3300
 30
0.0
 0
SEQEND
 8
PARTS
 0
POLYLINE
 8
PARTS
 66
1
 10
0.0
 20
0.0
 30
0.0
 0
VERTEX
 8
PARTS
 10
  3.2300
 20
  4.3300
 30
0.0
 0
VERTEX
 8
PARTS
 10
  3.2000
 20
  4.3000
 30
0.0
 0
SEQEND
 8
PARTS
 0
TEXT
 8
PARTTEXT
 10
  3.3000
 20
  5.7186
 30
0.0
 40
  0.0514
 1
R70
 0
TEXT
 8
PARTTEXT
 10
  3.3000
 20
  5.6186
 30
0.0
 40
  0.0514
 1
TBD1206
 0
LINE
 8
PARTS
 10
  3.2000
 20
  5.9000
 30
0.0
 11
  3.2000
 21
  5.8000
 31
0.0
 0
LINE
 8
PARTS
 10
  3.2000
 20
  5.4000
 30
0.0
 11
  3.2000
 21
  5.5000
 31
0.0
 0
POLYLINE
 8
PARTS
 66
1
 10
0.0
 20
0.0
 30
0.0
 0
VERTEX
 8
PARTS
 10
  3.2000
 20
  5.8000
 30
0.0
 0
VERTEX
 8
PARTS
 10
  3.2300
 20
  5.7700
 30
0.0
 0
SEQEND
 8
PARTS
 0
POLYLINE
 8
PARTS
 66
1
 10
0.0
 20
0.0
 30
0.0
 0
VERTEX
 8
PARTS
 10
  3.2300
 20
  5.7700
 30
0.0
 0
VERTEX
 8
PARTS
 10
  3.1700
 20
  5.7100
 30
0.0
 0
SEQEND
 8
PARTS
 0
POLYLINE
 8
PARTS
 66
1
 10
0.0
 20
0.0
 30
0.0
 0
VERTEX
 8
PARTS
 10
  3.1700
 20
  5.7100
 30
0.0
 0
VERTEX
 8
PARTS
 10
  3.2300
 20
  5.6500
 30
0.0
 0
SEQEND
 8
PARTS
 0
POLYLINE
 8
PARTS
 66
1
 10
0.0
 20
0.0
 30
0.0
 0
VERTEX
 8
PARTS
 10
  3.2300
 20
  5.6500
 30
0.0
 0
VERTEX
 8
PARTS
 10
  3.1700
 20
  5.5900
 30
0.0
 0
SEQEND
 8
PARTS
 0
POLYLINE
 8
PARTS
 66
1
 10
0.0
 20
0.0
 30
0.0
 0
VERTEX
 8
PARTS
 10
  3.1700
 20
  5.5900
 30
0.0
 0
VERTEX
 8
PARTS
 10
  3.2300
 20
  5.5300
 30
0.0
 0
SEQEND
 8
PARTS
 0
POLYLINE
 8
PARTS
 66
1
 10
0.0
 20
0.0
 30
0.0
 0
VERTEX
 8
PARTS
 10
  3.2300
 20
  5.5300
 30
0.0
 0
VERTEX
 8
PARTS
 10
  3.2000
 20
  5.5000
 30
0.0
 0
SEQEND
 8
PARTS
 0
TEXT
 8
PARTTEXT
 10
  2.2600
 20
  5.7186
 30
0.0
 40
  0.0514
 1
J64
 0
TEXT
 8
PARTTEXT
 10
  2.2600
 20
  5.5986
 30
0.0
 40
  0.0514
 1
JUMPER1
 0
LINE
 8
PARTS
 10
  2.0000
 20
  5.1000
 30
0.0
 11
  2.0000
 21
  5.4000
 31
0.0
 0
TEXT
 8
PARTS
 10
  1.9700
 20
  5.2800
 30
0.0
 40
  0.0500
 50
 90.0000
 1
1
 0
LINE
 8
PARTS
 10
  2.0000
 20
  6.1000
 30
0.0
 11
  2.0000
 21
  5.8000
 31
0.0
 0
TEXT
 8
PARTS
 10
  1.9700
 20
  5.8600
 30
0.0
 40
  0.0500
 50
 90.0000
 1
2
 0
POLYLINE
 8
PARTS
 66
1
 10
0.0
 20
0.0
 30
0.0
 0
VERTEX
 8
PARTS
 10
  2.0000
 20
  5.5000
 30
0.0
 42
  1.0000
 0
VERTEX
 8
PARTS
 10
  2.0000
 20
  5.7000
 30
0.0
 0
SEQEND
 8
PARTS
 0
POLYLINE
 8
PARTS
 66
1
 70
1
 10
0.0
 20
0.0
 30
0.0
 0
VERTEX
 8
PARTS
 10
  2.0100
 20
  5.7000
 30
0.0
 42
  0.0985
 0
VERTEX
 8
PARTS
 10
  2.0092
 20
  5.7038
 30
0.0
 42
  0.0985
 0
VERTEX
 8
PARTS
 10
  2.0071
 20
  5.7071
 30
0.0
 42
  0.0985
 0
VERTEX
 8
PARTS
 10
  2.0038
 20
  5.7092
 30
0.0
 42
  0.0985
 0
VERTEX
 8
PARTS
 10
  2.0000
 20
  5.7100
 30
0.0
 42
  0.0985
 0
VERTEX
 8
PARTS
 10
  1.9962
 20
  5.7092
 30
0.0
 42
  0.0985
 0
VERTEX
 8
PARTS
 10
  1.9929
 20
  5.7071
 30
0.0
 42
  0.0985
 0
VERTEX
 8
PARTS
 10
  1.9908
 20
  5.7038
 30
0.0
 42
  0.0985
 0
VERTEX
 8
PARTS
 10
  1.9900
 20
  5.7000
 30
0.0
 42
  0.0985
 0
VERTEX
 8
PARTS
 10
  1.9908
 20
  5.6962
 30
0.0
 42
  0.0985
 0
VERTEX
 8
PARTS
 10
  1.9929
 20
  5.6929
 30
0.0
 42
  0.0985
 0
VERTEX
 8
PARTS
 10
  1.9962
 20
  5.6908
 30
0.0
 42
  0.0985
 0
VERTEX
 8
PARTS
 10
  2.0000
 20
  5.6900
 30
0.0
 42
  0.0985
 0
VERTEX
 8
PARTS
 10
  2.0038
 20
  5.6908
 30
0.0
 42
  0.0985
 0
VERTEX
 8
PARTS
 10
  2.0071
 20
  5.6929
 30
0.0
 42
  0.0985
 0
VERTEX
 8
PARTS
 10
  2.0092
 20
  5.6962
 30
0.0
 42
  0.0985
 0
SEQEND
 8
PARTS
 0
POLYLINE
 8
PARTS
 66
1
 70
1
 10
0.0
 20
0.0
 30
0.0
 0
VERTEX
 8
PARTS
 10
  2.0100
 20
  5.5000
 30
0.0
 42
  0.0985
 0
VERTEX
 8
PARTS
 10
  2.0092
 20
  5.5038
 30
0.0
 42
  0.0985
 0
VERTEX
 8
PARTS
 10
  2.0071
 20
  5.5071
 30
0.0
 42
  0.0985
 0
VERTEX
 8
PARTS
 10
  2.0038
 20
  5.5092
 30
0.0
 42
  0.0985
 0
VERTEX
 8
PARTS
 10
  2.0000
 20
  5.5100
 30
0.0
 42
  0.0985
 0
VERTEX
 8
PARTS
 10
  1.9962
 20
  5.5092
 30
0.0
 42
  0.0985
 0
VERTEX
 8
PARTS
 10
  1.9929
 20
  5.5071
 30
0.0
 42
  0.0985
 0
VERTEX
 8
PARTS
 10
  1.9908
 20
  5.5038
 30
0.0
 42
  0.0985
 0
VERTEX
 8
PARTS
 10
  1.9900
 20
  5.5000
 30
0.0
 42
  0.0985
 0
VERTEX
 8
PARTS
 10
  1.9908
 20
  5.4962
 30
0.0
 42
  0.0985
 0
VERTEX
 8
PARTS
 10
  1.9929
 20
  5.4929
 30
0.0
 42
  0.0985
 0
VERTEX
 8
PARTS
 10
  1.9962
 20
  5.4908
 30
0.0
 42
  0.0985
 0
VERTEX
 8
PARTS
 10
  2.0000
 20
  5.4900
 30
0.0
 42
  0.0985
 0
VERTEX
 8
PARTS
 10
  2.0038
 20
  5.4908
 30
0.0
 42
  0.0985
 0
VERTEX
 8
PARTS
 10
  2.0071
 20
  5.4929
 30
0.0
 42
  0.0985
 0
VERTEX
 8
PARTS
 10
  2.0092
 20
  5.4962
 30
0.0
 42
  0.0985
 0
SEQEND
 8
PARTS
 0
POLYLINE
 8
PARTS
 66
1
 10
0.0
 20
0.0
 30
0.0
 0
VERTEX
 8
PARTS
 10
  2.0000
 20
  5.8000
 30
0.0
 0
VERTEX
 8
PARTS
 10
  2.0000
 20
  5.7000
 30
0.0
 0
SEQEND
 8
PARTS
 0
POLYLINE
 8
PARTS
 66
1
 10
0.0
 20
0.0
 30
0.0
 0
VERTEX
 8
PARTS
 10
  2.0000
 20
  5.5000
 30
0.0
 0
VERTEX
 8
PARTS
 10
  2.0000
 20
  5.4000
 30
0.0
 0
SEQEND
 8
PARTS
 0
POLYLINE
 8
PARTS
 66
1
 70
1
 10
0.0
 20
0.0
 30
0.0
 0
VERTEX
 8
PARTS
 10
  1.9000
 20
  5.4000
 30
0.0
 0
VERTEX
 8
PARTS
 10
  1.9000
 20
  5.8000
 30
0.0
 0
VERTEX
 8
PARTS
 10
  2.2000
 20
  5.8000
 30
0.0
 0
VERTEX
 8
PARTS
 10
  2.2000
 20
  5.4000
 30
0.0
 0
SEQEND
 8
PARTS
 0
TEXT
 8
PARTTEXT
 10
  0.6000
 20
  5.3186
 30
0.0
 40
  0.0514
 1
J63
 0
TEXT
 8
PARTTEXT
 10
  0.6000
 20
  4.5186
 30
0.0
 40
  0.0514
 1
HEADER 2
 0
LINE
 8
PARTS
 10
  1.2000
 20
  5.0000
 30
0.0
 11
  0.9000
 21
  5.0000
 31
0.0
 0
TEXT
 8
PARTS
 10
  0.9600
 20
  5.0300
 30
0.0
 40
  0.0500
 1
1
 0
LINE
 8
PARTS
 10
  1.2000
 20
  4.9000
 30
0.0
 11
  0.9000
 21
  4.9000
 31
0.0
 0
TEXT
 8
PARTS
 10
  0.9600
 20
  4.9300
 30
0.0
 40
  0.0500
 1
2
 0
POLYLINE
 8
PARTS
 66
1
 70
1
 10
0.0
 20
0.0
 30
0.0
 0
VERTEX
 8
PARTS
 10
  0.6000
 20
  5.1000
 30
0.0
 0
VERTEX
 8
PARTS
 10
  0.9000
 20
  5.1000
 30
0.0
 0
VERTEX
 8
PARTS
 10
  0.9000
 20
  4.8000
 30
0.0
 0
VERTEX
 8
PARTS
 10
  0.6000
 20
  4.8000
 30
0.0
 0
SEQEND
 8
PARTS
 0
POLYLINE
 8
PARTS
 66
1
 10
0.0
 20
0.0
 30
0.0
 0
VERTEX
 8
PARTS
 10
  0.8000
 20
  5.1000
 30
0.0
 0
VERTEX
 8
PARTS
 10
  0.8000
 20
  5.1000
 30
0.0
 0
VERTEX
 8
PARTS
 10
  0.8000
 20
  5.1300
 30
0.0
 0
VERTEX
 8
PARTS
 10
  0.7100
 20
  5.1300
 30
0.0
 0
VERTEX
 8
PARTS
 10
  0.7100
 20
  5.1000
 30
0.0
 0
SEQEND
 8
PARTS
 0
POLYLINE
 8
PARTS
 66
1
 10
0.0
 20
0.0
 30
0.0
 0
VERTEX
 8
PARTS
 10
  0.7100
 20
  4.8000
 30
0.0
 0
VERTEX
 8
PARTS
 10
  0.7100
 20
  4.8000
 30
0.0
 0
VERTEX
 8
PARTS
 10
  0.7100
 20
  4.7700
 30
0.0
 0
VERTEX
 8
PARTS
 10
  0.8000
 20
  4.7700
 30
0.0
 0
VERTEX
 8
PARTS
 10
  0.8000
 20
  4.8000
 30
0.0
 0
SEQEND
 8
PARTS
 0
TEXT
 8
PARTTEXT
 10
  2.5000
 20
  4.0686
 30
0.0
 40
  0.0514
 1
L9
 0
TEXT
 8
PARTTEXT
 10
  2.5000
 20
  3.7586
 30
0.0
 40
  0.0514
 1
1500
 0
LINE
 8
PARTS
 10
  2.4000
 20
  3.9000
 30
0.0
 11
  2.5000
 21
  3.9000
 31
0.0
 0
LINE
 8
PARTS
 10
  3.0000
 20
  3.9000
 30
0.0
 11
  2.9000
 21
  3.9000
 31
0.0
 0
POLYLINE
 8
PARTS
 66
1
 10
0.0
 20
0.0
 30
0.0
 0
VERTEX
 8
PARTS
 10
  2.5500
 20
  3.9500
 30
0.0
 42
  0.4142
 0
VERTEX
 8
PARTS
 10
  2.5000
 20
  3.9000
 30
0.0
 0
SEQEND
 8
PARTS
 0
POLYLINE
 8
PARTS
 66
1
 10
0.0
 20
0.0
 30
0.0
 0
VERTEX
 8
PARTS
 10
  2.6000
 20
  3.9000
 30
0.0
 42
  0.4142
 0
VERTEX
 8
PARTS
 10
  2.5500
 20
  3.9500
 30
0.0
 0
SEQEND
 8
PARTS
 0
POLYLINE
 8
PARTS
 66
1
 10
0.0
 20
0.0
 30
0.0
 0
VERTEX
 8
PARTS
 10
  2.6500
 20
  3.9500
 30
0.0
 42
  0.4142
 0
VERTEX
 8
PARTS
 10
  2.6000
 20
  3.9000
 30
0.0
 0
SEQEND
 8
PARTS
 0
POLYLINE
 8
PARTS
 66
1
 10
0.0
 20
0.0
 30
0.0
 0
VERTEX
 8
PARTS
 10
  2.7000
 20
  3.9000
 30
0.0
 42
  0.4142
 0
VERTEX
 8
PARTS
 10
  2.6500
 20
  3.9500
 30
0.0
 0
SEQEND
 8
PARTS
 0
POLYLINE
 8
PARTS
 66
1
 10
0.0
 20
0.0
 30
0.0
 0
VERTEX
 8
PARTS
 10
  2.7500
 20
  3.9500
 30
0.0
 42
  0.4142
 0
VERTEX
 8
PARTS
 10
  2.7000
 20
  3.9000
 30
0.0
 0
SEQEND
 8
PARTS
 0
POLYLINE
 8
PARTS
 66
1
 10
0.0
 20
0.0
 30
0.0
 0
VERTEX
 8
PARTS
 10
  2.8000
 20
  3.9000
 30
0.0
 42
  0.4142
 0
VERTEX
 8
PARTS
 10
  2.7500
 20
  3.9500
 30
0.0
 0
SEQEND
 8
PARTS
 0
POLYLINE
 8
PARTS
 66
1
 10
0.0
 20
0.0
 30
0.0
 0
VERTEX
 8
PARTS
 10
  2.8500
 20
  3.9500
 30
0.0
 42
  0.4142
 0
VERTEX
 8
PARTS
 10
  2.8000
 20
  3.9000
 30
0.0
 0
SEQEND
 8
PARTS
 0
POLYLINE
 8
PARTS
 66
1
 10
0.0
 20
0.0
 30
0.0
 0
VERTEX
 8
PARTS
 10
  2.9000
 20
  3.9000
 30
0.0
 42
  0.4142
 0
VERTEX
 8
PARTS
 10
  2.8500
 20
  3.9500
 30
0.0
 0
SEQEND
 8
PARTS
 0
TEXT
 8
PARTTEXT
 10
  5.0000
 20
  0.4586
 30
0.0
 40
  0.0514
 1
J55
 0
TEXT
 8
PARTTEXT
 10
  5.0000
 20
  0.3386
 30
0.0
 40
  0.0514
 1
HEADER 3
 0
LINE
 8
PARTS
 10
  5.2000
 20
  1.2000
 30
0.0
 11
  5.2000
 21
  0.9000
 31
0.0
 0
TEXT
 8
PARTS
 10
  5.1700
 20
  0.9600
 30
0.0
 40
  0.0500
 50
 90.0000
 1
1
 0
LINE
 8
PARTS
 10
  5.3000
 20
  1.2000
 30
0.0
 11
  5.3000
 21
  0.9000
 31
0.0
 0
TEXT
 8
PARTS
 10
  5.2700
 20
  0.9600
 30
0.0
 40
  0.0500
 50
 90.0000
 1
2
 0
LINE
 8
PARTS
 10
  5.4000
 20
  1.2000
 30
0.0
 11
  5.4000
 21
  0.9000
 31
0.0
 0
TEXT
 8
PARTS
 10
  5.3700
 20
  0.9600
 30
0.0
 40
  0.0500
 50
 90.0000
 1
3
 0
POLYLINE
 8
PARTS
 66
1
 70
1
 10
0.0
 20
0.0
 30
0.0
 0
VERTEX
 8
PARTS
 10
  5.1000
 20
  0.6000
 30
0.0
 0
VERTEX
 8
PARTS
 10
  5.1000
 20
  0.9000
 30
0.0
 0
VERTEX
 8
PARTS
 10
  5.5000
 20
  0.9000
 30
0.0
 0
VERTEX
 8
PARTS
 10
  5.5000
 20
  0.6000
 30
0.0
 0
SEQEND
 8
PARTS
 0
POLYLINE
 8
PARTS
 66
1
 10
0.0
 20
0.0
 30
0.0
 0
VERTEX
 8
PARTS
 10
  5.1000
 20
  0.8000
 30
0.0
 0
VERTEX
 8
PARTS
 10
  5.1000
 20
  0.8100
 30
0.0
 0
VERTEX
 8
PARTS
 10
  5.0500
 20
  0.8100
 30
0.0
 0
VERTEX
 8
PARTS
 10
  5.0500
 20
  0.6900
 30
0.0
 0
VERTEX
 8
PARTS
 10
  5.1000
 20
  0.6900
 30
0.0
 0
SEQEND
 8
PARTS
 0
POLYLINE
 8
PARTS
 66
1
 10
0.0
 20
0.0
 30
0.0
 0
VERTEX
 8
PARTS
 10
  5.5000
 20
  0.7000
 30
0.0
 0
VERTEX
 8
PARTS
 10
  5.5000
 20
  0.6900
 30
0.0
 0
VERTEX
 8
PARTS
 10
  5.5500
 20
  0.6900
 30
0.0
 0
VERTEX
 8
PARTS
 10
  5.5500
 20
  0.8100
 30
0.0
 0
VERTEX
 8
PARTS
 10
  5.5000
 20
  0.8100
 30
0.0
 0
SEQEND
 8
PARTS
 0
TEXT
 8
PARTTEXT
 10
  2.5000
 20
  6.2686
 30
0.0
 40
  0.0514
 1
L8
 0
TEXT
 8
PARTTEXT
 10
  2.5000
 20
  5.9586
 30
0.0
 40
  0.0514
 1
1500
 0
LINE
 8
PARTS
 10
  2.4000
 20
  6.1000
 30
0.0
 11
  2.5000
 21
  6.1000
 31
0.0
 0
LINE
 8
PARTS
 10
  3.0000
 20
  6.1000
 30
0.0
 11
  2.9000
 21
  6.1000
 31
0.0
 0
POLYLINE
 8
PARTS
 66
1
 10
0.0
 20
0.0
 30
0.0
 0
VERTEX
 8
PARTS
 10
  2.5500
 20
  6.1500
 30
0.0
 42
  0.4142
 0
VERTEX
 8
PARTS
 10
  2.5000
 20
  6.1000
 30
0.0
 0
SEQEND
 8
PARTS
 0
POLYLINE
 8
PARTS
 66
1
 10
0.0
 20
0.0
 30
0.0
 0
VERTEX
 8
PARTS
 10
  2.6000
 20
  6.1000
 30
0.0
 42
  0.4142
 0
VERTEX
 8
PARTS
 10
  2.5500
 20
  6.1500
 30
0.0
 0
SEQEND
 8
PARTS
 0
POLYLINE
 8
PARTS
 66
1
 10
0.0
 20
0.0
 30
0.0
 0
VERTEX
 8
PARTS
 10
  2.6500
 20
  6.1500
 30
0.0
 42
  0.4142
 0
VERTEX
 8
PARTS
 10
  2.6000
 20
  6.1000
 30
0.0
 0
SEQEND
 8
PARTS
 0
POLYLINE
 8
PARTS
 66
1
 10
0.0
 20
0.0
 30
0.0
 0
VERTEX
 8
PARTS
 10
  2.7000
 20
  6.1000
 30
0.0
 42
  0.4142
 0
VERTEX
 8
PARTS
 10
  2.6500
 20
  6.1500
 30
0.0
 0
SEQEND
 8
PARTS
 0
POLYLINE
 8
PARTS
 66
1
 10
0.0
 20
0.0
 30
0.0
 0
VERTEX
 8
PARTS
 10
  2.7500
 20
  6.1500
 30
0.0
 42
  0.4142
 0
VERTEX
 8
PARTS
 10
  2.7000
 20
  6.1000
 30
0.0
 0
SEQEND
 8
PARTS
 0
POLYLINE
 8
PARTS
 66
1
 10
0.0
 20
0.0
 30
0.0
 0
VERTEX
 8
PARTS
 10
  2.8000
 20
  6.1000
 30
0.0
 42
  0.4142
 0
VERTEX
 8
PARTS
 10
  2.7500
 20
  6.1500
 30
0.0
 0
SEQEND
 8
PARTS
 0
POLYLINE
 8
PARTS
 66
1
 10
0.0
 20
0.0
 30
0.0
 0
VERTEX
 8
PARTS
 10
  2.8500
 20
  6.1500
 30
0.0
 42
  0.4142
 0
VERTEX
 8
PARTS
 10
  2.8000
 20
  6.1000
 30
0.0
 0
SEQEND
 8
PARTS
 0
POLYLINE
 8
PARTS
 66
1
 10
0.0
 20
0.0
 30
0.0
 0
VERTEX
 8
PARTS
 10
  2.9000
 20
  6.1000
 30
0.0
 42
  0.4142
 0
VERTEX
 8
PARTS
 10
  2.8500
 20
  6.1500
 30
0.0
 0
SEQEND
 8
PARTS
 0
TEXT
 8
PARTTEXT
 10
  5.8000
 20
  3.2586
 30
0.0
 40
  0.0514
 1
J62
 0
TEXT
 8
PARTTEXT
 10
  5.8000
 20
  3.1386
 30
0.0
 40
  0.0514
 1
IBN
 0
LINE
 8
PARTS
 10
  6.0000
 20
  3.9000
 30
0.0
 11
  6.0000
 21
  3.6000
 31
0.0
 0
TEXT
 8
PARTS
 10
  5.9700
 20
  3.6600
 30
0.0
 40
  0.0500
 50
 90.0000
 1
1
 0
POLYLINE
 8
PARTS
 66
1
 70
1
 10
0.0
 20
0.0
 30
0.0
 0
VERTEX
 8
PARTS
 10
  5.9000
 20
  3.4000
 30
0.0
 0
VERTEX
 8
PARTS
 10
  5.9000
 20
  3.6000
 30
0.0
 0
VERTEX
 8
PARTS
 10
  6.1000
 20
  3.6000
 30
0.0
 0
VERTEX
 8
PARTS
 10
  6.1000
 20
  3.4000
 30
0.0
 0
SEQEND
 8
PARTS
 0
POLYLINE
 8
PARTS
 66
1
 10
0.0
 20
0.0
 30
0.0
 0
VERTEX
 8
PARTS
 10
  5.9000
 20
  3.5500
 30
0.0
 0
VERTEX
 8
PARTS
 10
  5.9000
 20
  3.5500
 30
0.0
 0
VERTEX
 8
PARTS
 10
  5.8700
 20
  3.5500
 30
0.0
 0
VERTEX
 8
PARTS
 10
  5.8700
 20
  3.4600
 30
0.0
 0
VERTEX
 8
PARTS
 10
  5.9000
 20
  3.4600
 30
0.0
 0
SEQEND
 8
PARTS
 0
POLYLINE
 8
PARTS
 66
1
 10
0.0
 20
0.0
 30
0.0
 0
VERTEX
 8
PARTS
 10
  6.1000
 20
  3.4600
 30
0.0
 0
VERTEX
 8
PARTS
 10
  6.1000
 20
  3.4600
 30
0.0
 0
VERTEX
 8
PARTS
 10
  6.1300
 20
  3.4600
 30
0.0
 0
VERTEX
 8
PARTS
 10
  6.1300
 20
  3.5500
 30
0.0
 0
VERTEX
 8
PARTS
 10
  6.1000
 20
  3.5500
 30
0.0
 0
SEQEND
 8
PARTS
 0
POLYLINE
 8
WIRE
 66
1
 10
0.0
 20
0.0
 30
0.0
 0
VERTEX
 8
WIRE
 10
  5.5000
 20
  2.5000
 30
0.0
 0
VERTEX
 8
WIRE
 10
  4.5000
 20
  2.5000
 30
0.0
 0
SEQEND
 8
WIRE
 0
POLYLINE
 8
WIRE
 66
1
 10
0.0
 20
0.0
 30
0.0
 0
VERTEX
 8
WIRE
 10
  2.6000
 20
  2.5000
 30
0.0
 0
VERTEX
 8
WIRE
 10
  2.4000
 20
  2.5000
 30
0.0
 0
SEQEND
 8
WIRE
 0
POLYLINE
 8
WIRE
 66
1
 70
1
 10
0.0
 20
0.0
 30
0.0
 40
  0.0200
 41
  0.0200
 0
VERTEX
 8
WIRE
 10
  2.3900
 20
  2.5000
 30
0.0
 42
1.0
 0
VERTEX
 8
WIRE
 10
  2.4100
 20
  2.5000
 30
0.0
 42
1.0
 0
SEQEND
 8
WIRE
 0
POLYLINE
 8
WIRE
 66
1
 10
0.0
 20
0.0
 30
0.0
 0
VERTEX
 8
WIRE
 10
  1.7000
 20
  2.5000
 30
0.0
 0
VERTEX
 8
WIRE
 10
  1.3000
 20
  2.5000
 30
0.0
 0
SEQEND
 8
WIRE
 0
TEXT
 8
WIRETEXT
 10
  1.3000
 20
  2.5300
 30
0.0
 40
  0.0514
 1
VBP_IN
 0
POLYLINE
 8
WIRE
 66
1
 10
0.0
 20
0.0
 30
0.0
 0
VERTEX
 8
WIRE
 10
  3.9000
 20
  2.1000
 30
0.0
 0
VERTEX
 8
WIRE
 10
  3.5000
 20
  2.1000
 30
0.0
 0
SEQEND
 8
WIRE
 0
POLYLINE
 8
WIRE
 66
1
 10
0.0
 20
0.0
 30
0.0
 0
VERTEX
 8
WIRE
 10
  3.5000
 20
  1.9000
 30
0.0
 0
VERTEX
 8
WIRE
 10
  3.5000
 20
  2.1000
 30
0.0
 0
SEQEND
 8
WIRE
 0
POLYLINE
 8
WIRE
 66
1
 10
0.0
 20
0.0
 30
0.0
 0
VERTEX
 8
WIRE
 10
  3.4000
 20
  1.9000
 30
0.0
 0
VERTEX
 8
WIRE
 10
  3.4000
 20
  2.5000
 30
0.0
 0
SEQEND
 8
WIRE
 0
POLYLINE
 8
WIRE
 66
1
 10
0.0
 20
0.0
 30
0.0
 0
VERTEX
 8
WIRE
 10
  3.9000
 20
  1.7000
 30
0.0
 0
VERTEX
 8
WIRE
 10
  3.9000
 20
  2.1000
 30
0.0
 0
SEQEND
 8
WIRE
 0
TEXT
 8
WIRETEXT
 10
  3.9300
 20
  2.0100
 30
0.0
 40
  0.0514
 50
270.0000
 1
AGND
 0
POLYLINE
 8
WIRE
 66
1
 10
0.0
 20
0.0
 30
0.0
 0
VERTEX
 8
WIRE
 10
  5.5000
 20
  2.2000
 30
0.0
 0
VERTEX
 8
WIRE
 10
  5.5000
 20
  2.5000
 30
0.0
 0
SEQEND
 8
WIRE
 0
POLYLINE
 8
WIRE
 66
1
 70
1
 10
0.0
 20
0.0
 30
0.0
 40
  0.0200
 41
  0.0200
 0
VERTEX
 8
WIRE
 10
  5.4900
 20
  2.5000
 30
0.0
 42
1.0
 0
VERTEX
 8
WIRE
 10
  5.5100
 20
  2.5000
 30
0.0
 42
1.0
 0
SEQEND
 8
WIRE
 0
POLYLINE
 8
WIRE
 66
1
 10
0.0
 20
0.0
 30
0.0
 0
VERTEX
 8
WIRE
 10
  1.5000
 20
  2.1000
 30
0.0
 0
VERTEX
 8
WIRE
 10
  1.5000
 20
  2.4000
 30
0.0
 0
SEQEND
 8
WIRE
 0
POLYLINE
 8
WIRE
 66
1
 10
0.0
 20
0.0
 30
0.0
 0
VERTEX
 8
WIRE
 10
  1.5000
 20
  2.4000
 30
0.0
 0
VERTEX
 8
WIRE
 10
  1.3000
 20
  2.4000
 30
0.0
 0
SEQEND
 8
WIRE
 0
TEXT
 8
WIRETEXT
 10
  1.5300
 20
  2.4000
 30
0.0
 40
  0.0514
 50
270.0000
 1
AGND
 0
POLYLINE
 8
WIRE
 66
1
 10
0.0
 20
0.0
 30
0.0
 0
VERTEX
 8
WIRE
 10
  3.3000
 20
  2.5000
 30
0.0
 0
VERTEX
 8
WIRE
 10
  3.1000
 20
  2.5000
 30
0.0
 0
SEQEND
 8
WIRE
 0
POLYLINE
 8
WIRE
 66
1
 10
0.0
 20
0.0
 30
0.0
 0
VERTEX
 8
WIRE
 10
  3.3000
 20
  1.9000
 30
0.0
 0
VERTEX
 8
WIRE
 10
  3.3000
 20
  2.5000
 30
0.0
 0
SEQEND
 8
WIRE
 0
POLYLINE
 8
WIRE
 66
1
 10
0.0
 20
0.0
 30
0.0
 0
VERTEX
 8
WIRE
 10
  2.4000
 20
  2.5000
 30
0.0
 0
VERTEX
 8
WIRE
 10
  2.3000
 20
  2.5000
 30
0.0
 0
SEQEND
 8
WIRE
 0
POLYLINE
 8
WIRE
 66
1
 10
0.0
 20
0.0
 30
0.0
 0
VERTEX
 8
WIRE
 10
  2.4000
 20
  2.5000
 30
0.0
 0
VERTEX
 8
WIRE
 10
  2.4000
 20
  2.9000
 30
0.0
 0
SEQEND
 8
WIRE
 0
POLYLINE
 8
WIRE
 66
1
 10
0.0
 20
0.0
 30
0.0
 0
VERTEX
 8
WIRE
 10
  3.7000
 20
  2.5000
 30
0.0
 0
VERTEX
 8
WIRE
 10
  3.4000
 20
  2.5000
 30
0.0
 0
SEQEND
 8
WIRE
 0
POLYLINE
 8
WIRE
 66
1
 10
0.0
 20
0.0
 30
0.0
 0
VERTEX
 8
WIRE
 10
  3.7000
 20
  2.5000
 30
0.0
 0
VERTEX
 8
WIRE
 10
  3.7000
 20
  2.9000
 30
0.0
 0
SEQEND
 8
WIRE
 0
POLYLINE
 8
WIRE
 66
1
 10
0.0
 20
0.0
 30
0.0
 0
VERTEX
 8
WIRE
 10
  2.9000
 20
  2.9000
 30
0.0
 0
VERTEX
 8
WIRE
 10
  2.4000
 20
  2.9000
 30
0.0
 0
SEQEND
 8
WIRE
 0
POLYLINE
 8
WIRE
 66
1
 10
0.0
 20
0.0
 30
0.0
 0
VERTEX
 8
WIRE
 10
  3.4000
 20
  2.9000
 30
0.0
 0
VERTEX
 8
WIRE
 10
  3.7000
 20
  2.9000
 30
0.0
 0
SEQEND
 8
WIRE
 0
POLYLINE
 8
WIRE
 66
1
 10
0.0
 20
0.0
 30
0.0
 0
VERTEX
 8
WIRE
 10
  5.3000
 20
  1.9000
 30
0.0
 0
VERTEX
 8
WIRE
 10
  5.3000
 20
  2.1000
 30
0.0
 0
SEQEND
 8
WIRE
 0
POLYLINE
 8
WIRE
 66
1
 10
0.0
 20
0.0
 30
0.0
 0
VERTEX
 8
WIRE
 10
  4.3000
 20
  2.1000
 30
0.0
 0
VERTEX
 8
WIRE
 10
  4.3000
 20
  2.5000
 30
0.0
 0
SEQEND
 8
WIRE
 0
POLYLINE
 8
WIRE
 66
1
 70
1
 10
0.0
 20
0.0
 30
0.0
 40
  0.0200
 41
  0.0200
 0
VERTEX
 8
WIRE
 10
  4.2900
 20
  2.5000
 30
0.0
 42
1.0
 0
VERTEX
 8
WIRE
 10
  4.3100
 20
  2.5000
 30
0.0
 42
1.0
 0
SEQEND
 8
WIRE
 0
POLYLINE
 8
WIRE
 66
1
 10
0.0
 20
0.0
 30
0.0
 0
VERTEX
 8
WIRE
 10
  4.5000
 20
  2.5000
 30
0.0
 0
VERTEX
 8
WIRE
 10
  4.3000
 20
  2.5000
 30
0.0
 0
SEQEND
 8
WIRE
 0
POLYLINE
 8
WIRE
 66
1
 70
1
 10
0.0
 20
0.0
 30
0.0
 40
  0.0200
 41
  0.0200
 0
VERTEX
 8
WIRE
 10
  4.4900
 20
  2.5000
 30
0.0
 42
1.0
 0
VERTEX
 8
WIRE
 10
  4.5100
 20
  2.5000
 30
0.0
 42
1.0
 0
SEQEND
 8
WIRE
 0
POLYLINE
 8
WIRE
 66
1
 10
0.0
 20
0.0
 30
0.0
 0
VERTEX
 8
WIRE
 10
  4.3000
 20
  2.5000
 30
0.0
 0
VERTEX
 8
WIRE
 10
  3.7000
 20
  2.5000
 30
0.0
 0
SEQEND
 8
WIRE
 0
POLYLINE
 8
WIRE
 66
1
 70
1
 10
0.0
 20
0.0
 30
0.0
 40
  0.0200
 41
  0.0200
 0
VERTEX
 8
WIRE
 10
  3.6900
 20
  2.5000
 30
0.0
 42
1.0
 0
VERTEX
 8
WIRE
 10
  3.7100
 20
  2.5000
 30
0.0
 42
1.0
 0
SEQEND
 8
WIRE
 0
POLYLINE
 8
WIRE
 66
1
 10
0.0
 20
0.0
 30
0.0
 0
VERTEX
 8
WIRE
 10
  5.5000
 20
  1.4000
 30
0.0
 0
VERTEX
 8
WIRE
 10
  5.5000
 20
  1.9000
 30
0.0
 0
SEQEND
 8
WIRE
 0
POLYLINE
 8
WIRE
 66
1
 70
1
 10
0.0
 20
0.0
 30
0.0
 40
  0.0200
 41
  0.0200
 0
VERTEX
 8
WIRE
 10
  5.4900
 20
  1.9000
 30
0.0
 42
1.0
 0
VERTEX
 8
WIRE
 10
  5.5100
 20
  1.9000
 30
0.0
 42
1.0
 0
SEQEND
 8
WIRE
 0
POLYLINE
 8
WIRE
 66
1
 10
0.0
 20
0.0
 30
0.0
 0
VERTEX
 8
WIRE
 10
  4.5000
 20
  2.5000
 30
0.0
 0
VERTEX
 8
WIRE
 10
  4.5000
 20
  2.6000
 30
0.0
 0
SEQEND
 8
WIRE
 0
POLYLINE
 8
WIRE
 66
1
 10
0.0
 20
0.0
 30
0.0
 0
VERTEX
 8
WIRE
 10
  5.3000
 20
  1.2000
 30
0.0
 0
VERTEX
 8
WIRE
 10
  5.3000
 20
  1.4000
 30
0.0
 0
SEQEND
 8
WIRE
 0
POLYLINE
 8
WIRE
 66
1
 10
0.0
 20
0.0
 30
0.0
 0
VERTEX
 8
WIRE
 10
  5.5000
 20
  1.4000
 30
0.0
 0
VERTEX
 8
WIRE
 10
  5.3000
 20
  1.4000
 30
0.0
 0
SEQEND
 8
WIRE
 0
POLYLINE
 8
WIRE
 66
1
 70
1
 10
0.0
 20
0.0
 30
0.0
 40
  0.0200
 41
  0.0200
 0
VERTEX
 8
WIRE
 10
  5.2900
 20
  1.4000
 30
0.0
 42
1.0
 0
VERTEX
 8
WIRE
 10
  5.3100
 20
  1.4000
 30
0.0
 42
1.0
 0
SEQEND
 8
WIRE
 0
POLYLINE
 8
WIRE
 66
1
 10
0.0
 20
0.0
 30
0.0
 0
VERTEX
 8
WIRE
 10
  5.6000
 20
  3.9000
 30
0.0
 0
VERTEX
 8
WIRE
 10
  5.3000
 20
  3.9000
 30
0.0
 0
SEQEND
 8
WIRE
 0
POLYLINE
 8
WIRE
 66
1
 10
0.0
 20
0.0
 30
0.0
 0
VERTEX
 8
WIRE
 10
  5.5000
 20
  1.9000
 30
0.0
 0
VERTEX
 8
WIRE
 10
  5.5000
 20
  2.0000
 30
0.0
 0
SEQEND
 8
WIRE
 0
POLYLINE
 8
WIRE
 66
1
 10
0.0
 20
0.0
 30
0.0
 0
VERTEX
 8
WIRE
 10
  6.0000
 20
  1.2000
 30
0.0
 0
VERTEX
 8
WIRE
 10
  5.4000
 20
  1.2000
 30
0.0
 0
SEQEND
 8
WIRE
 0
TEXT
 8
WIRETEXT
 10
  5.7000
 20
  1.2300
 30
0.0
 40
  0.0514
 1
VN
 0
POLYLINE
 8
WIRE
 66
1
 10
0.0
 20
0.0
 30
0.0
 0
VERTEX
 8
WIRE
 10
  5.6000
 20
  4.7000
 30
0.0
 0
VERTEX
 8
WIRE
 10
  5.6000
 20
  5.1000
 30
0.0
 0
SEQEND
 8
WIRE
 0
POLYLINE
 8
WIRE
 66
1
 70
1
 10
0.0
 20
0.0
 30
0.0
 40
  0.0200
 41
  0.0200
 0
VERTEX
 8
WIRE
 10
  5.5900
 20
  5.1000
 30
0.0
 42
1.0
 0
VERTEX
 8
WIRE
 10
  5.6100
 20
  5.1000
 30
0.0
 42
1.0
 0
SEQEND
 8
WIRE
 0
POLYLINE
 8
WIRE
 66
1
 10
0.0
 20
0.0
 30
0.0
 0
VERTEX
 8
WIRE
 10
  4.8000
 20
  3.9000
 30
0.0
 0
VERTEX
 8
WIRE
 10
  4.5000
 20
  3.9000
 30
0.0
 0
SEQEND
 8
WIRE
 0
POLYLINE
 8
WIRE
 66
1
 70
1
 10
0.0
 20
0.0
 30
0.0
 40
  0.0200
 41
  0.0200
 0
VERTEX
 8
WIRE
 10
  4.4900
 20
  3.9000
 30
0.0
 42
1.0
 0
VERTEX
 8
WIRE
 10
  4.5100
 20
  3.9000
 30
0.0
 42
1.0
 0
SEQEND
 8
WIRE
 0
POLYLINE
 8
WIRE
 66
1
 10
0.0
 20
0.0
 30
0.0
 0
VERTEX
 8
WIRE
 10
  6.6000
 20
  3.9000
 30
0.0
 0
VERTEX
 8
WIRE
 10
  6.0000
 20
  3.9000
 30
0.0
 0
SEQEND
 8
WIRE
 0
POLYLINE
 8
WIRE
 66
1
 70
1
 10
0.0
 20
0.0
 30
0.0
 40
  0.0200
 41
  0.0200
 0
VERTEX
 8
WIRE
 10
  5.9900
 20
  3.9000
 30
0.0
 42
1.0
 0
VERTEX
 8
WIRE
 10
  6.0100
 20
  3.9000
 30
0.0
 42
1.0
 0
SEQEND
 8
WIRE
 0
TEXT
 8
WIRETEXT
 10
  6.4000
 20
  3.9300
 30
0.0
 40
  0.0514
 1
IBN
 0
POLYLINE
 8
WIRE
 66
1
 10
0.0
 20
0.0
 30
0.0
 0
VERTEX
 8
WIRE
 10
  5.8000
 20
  3.5000
 30
0.0
 0
VERTEX
 8
WIRE
 10
  5.8000
 20
  3.9000
 30
0.0
 0
SEQEND
 8
WIRE
 0
POLYLINE
 8
WIRE
 66
1
 70
1
 10
0.0
 20
0.0
 30
0.0
 40
  0.0200
 41
  0.0200
 0
VERTEX
 8
WIRE
 10
  5.7900
 20
  3.9000
 30
0.0
 42
1.0
 0
VERTEX
 8
WIRE
 10
  5.8100
 20
  3.9000
 30
0.0
 42
1.0
 0
SEQEND
 8
WIRE
 0
POLYLINE
 8
WIRE
 66
1
 10
0.0
 20
0.0
 30
0.0
 0
VERTEX
 8
WIRE
 10
  4.5000
 20
  3.9000
 30
0.0
 0
VERTEX
 8
WIRE
 10
  4.1000
 20
  3.9000
 30
0.0
 0
SEQEND
 8
WIRE
 0
POLYLINE
 8
WIRE
 66
1
 10
0.0
 20
0.0
 30
0.0
 0
VERTEX
 8
WIRE
 10
  4.5000
 20
  3.9000
 30
0.0
 0
VERTEX
 8
WIRE
 10
  4.5000
 20
  4.4000
 30
0.0
 0
SEQEND
 8
WIRE
 0
POLYLINE
 8
WIRE
 66
1
 10
0.0
 20
0.0
 30
0.0
 0
VERTEX
 8
WIRE
 10
  2.0000
 20
  5.0000
 30
0.0
 0
VERTEX
 8
WIRE
 10
  2.0000
 20
  5.1000
 30
0.0
 0
SEQEND
 8
WIRE
 0
POLYLINE
 8
WIRE
 66
1
 10
0.0
 20
0.0
 30
0.0
 0
VERTEX
 8
WIRE
 10
  3.2000
 20
  4.7000
 30
0.0
 0
VERTEX
 8
WIRE
 10
  3.2000
 20
  5.0000
 30
0.0
 0
SEQEND
 8
WIRE
 0
POLYLINE
 8
WIRE
 66
1
 10
0.0
 20
0.0
 30
0.0
 0
VERTEX
 8
WIRE
 10
  3.6000
 20
  3.9000
 30
0.0
 0
VERTEX
 8
WIRE
 10
  3.2000
 20
  3.9000
 30
0.0
 0
SEQEND
 8
WIRE
 0
POLYLINE
 8
WIRE
 66
1
 10
0.0
 20
0.0
 30
0.0
 0
VERTEX
 8
WIRE
 10
  3.2000
 20
  3.5000
 30
0.0
 0
VERTEX
 8
WIRE
 10
  3.2000
 20
  3.9000
 30
0.0
 0
SEQEND
 8
WIRE
 0
POLYLINE
 8
WIRE
 66
1
 70
1
 10
0.0
 20
0.0
 30
0.0
 40
  0.0200
 41
  0.0200
 0
VERTEX
 8
WIRE
 10
  3.1900
 20
  3.9000
 30
0.0
 42
1.0
 0
VERTEX
 8
WIRE
 10
  3.2100
 20
  3.9000
 30
0.0
 42
1.0
 0
SEQEND
 8
WIRE
 0
POLYLINE
 8
WIRE
 66
1
 10
0.0
 20
0.0
 30
0.0
 0
VERTEX
 8
WIRE
 10
  3.2000
 20
  5.0000
 30
0.0
 0
VERTEX
 8
WIRE
 10
  3.2000
 20
  5.4000
 30
0.0
 0
SEQEND
 8
WIRE
 0
POLYLINE
 8
WIRE
 66
1
 10
0.0
 20
0.0
 30
0.0
 0
VERTEX
 8
WIRE
 10
  3.2000
 20
  5.0000
 30
0.0
 0
VERTEX
 8
WIRE
 10
  2.0000
 20
  5.0000
 30
0.0
 0
SEQEND
 8
WIRE
 0
POLYLINE
 8
WIRE
 66
1
 70
1
 10
0.0
 20
0.0
 30
0.0
 40
  0.0200
 41
  0.0200
 0
VERTEX
 8
WIRE
 10
  3.1900
 20
  5.0000
 30
0.0
 42
1.0
 0
VERTEX
 8
WIRE
 10
  3.2100
 20
  5.0000
 30
0.0
 42
1.0
 0
SEQEND
 8
WIRE
 0
POLYLINE
 8
WIRE
 66
1
 70
1
 10
0.0
 20
0.0
 30
0.0
 40
  0.0200
 41
  0.0200
 0
VERTEX
 8
WIRE
 10
  1.9900
 20
  5.0000
 30
0.0
 42
1.0
 0
VERTEX
 8
WIRE
 10
  2.0100
 20
  5.0000
 30
0.0
 42
1.0
 0
SEQEND
 8
WIRE
 0
POLYLINE
 8
WIRE
 66
1
 10
0.0
 20
0.0
 30
0.0
 0
VERTEX
 8
WIRE
 10
  6.0000
 20
  4.9000
 30
0.0
 0
VERTEX
 8
WIRE
 10
  6.0000
 20
  5.1000
 30
0.0
 0
SEQEND
 8
WIRE
 0
POLYLINE
 8
WIRE
 66
1
 10
0.0
 20
0.0
 30
0.0
 0
VERTEX
 8
WIRE
 10
  6.0000
 20
  5.1000
 30
0.0
 0
VERTEX
 8
WIRE
 10
  5.6000
 20
  5.1000
 30
0.0
 0
SEQEND
 8
WIRE
 0
TEXT
 8
WIRETEXT
 10
  5.7000
 20
  5.1300
 30
0.0
 40
  0.0514
 1
AGND
 0
POLYLINE
 8
WIRE
 66
1
 10
0.0
 20
0.0
 30
0.0
 0
VERTEX
 8
WIRE
 10
  3.6000
 20
  5.0000
 30
0.0
 0
VERTEX
 8
WIRE
 10
  3.2000
 20
  5.0000
 30
0.0
 0
SEQEND
 8
WIRE
 0
TEXT
 8
WIRETEXT
 10
  3.3000
 20
  5.0300
 30
0.0
 40
  0.0514
 1
AGND
 0
POLYLINE
 8
WIRE
 66
1
 10
0.0
 20
0.0
 30
0.0
 0
VERTEX
 8
WIRE
 10
  3.6000
 20
  4.9000
 30
0.0
 0
VERTEX
 8
WIRE
 10
  3.6000
 20
  5.0000
 30
0.0
 0
SEQEND
 8
WIRE
 0
POLYLINE
 8
WIRE
 66
1
 10
0.0
 20
0.0
 30
0.0
 0
VERTEX
 8
WIRE
 10
  4.9000
 20
  5.1000
 30
0.0
 0
VERTEX
 8
WIRE
 10
  4.5000
 20
  5.1000
 30
0.0
 0
SEQEND
 8
WIRE
 0
POLYLINE
 8
WIRE
 66
1
 70
1
 10
0.0
 20
0.0
 30
0.0
 40
  0.0200
 41
  0.0200
 0
VERTEX
 8
WIRE
 10
  4.4900
 20
  5.1000
 30
0.0
 42
1.0
 0
VERTEX
 8
WIRE
 10
  4.5100
 20
  5.1000
 30
0.0
 42
1.0
 0
SEQEND
 8
WIRE
 0
TEXT
 8
WIRETEXT
 10
  4.6000
 20
  5.1300
 30
0.0
 40
  0.0514
 1
AGND
 0
POLYLINE
 8
WIRE
 66
1
 10
0.0
 20
0.0
 30
0.0
 0
VERTEX
 8
WIRE
 10
  4.9000
 20
  4.9000
 30
0.0
 0
VERTEX
 8
WIRE
 10
  4.9000
 20
  5.1000
 30
0.0
 0
SEQEND
 8
WIRE
 0
POLYLINE
 8
WIRE
 66
1
 10
0.0
 20
0.0
 30
0.0
 0
VERTEX
 8
WIRE
 10
  4.5000
 20
  3.5000
 30
0.0
 0
VERTEX
 8
WIRE
 10
  4.2000
 20
  3.5000
 30
0.0
 0
SEQEND
 8
WIRE
 0
POLYLINE
 8
WIRE
 66
1
 10
0.0
 20
0.0
 30
0.0
 0
VERTEX
 8
WIRE
 10
  4.8000
 20
  3.5000
 30
0.0
 0
VERTEX
 8
WIRE
 10
  4.5000
 20
  3.5000
 30
0.0
 0
SEQEND
 8
WIRE
 0
POLYLINE
 8
WIRE
 66
1
 10
0.0
 20
0.0
 30
0.0
 0
VERTEX
 8
WIRE
 10
  4.5000
 20
  3.5000
 30
0.0
 0
VERTEX
 8
WIRE
 10
  4.5000
 20
  3.9000
 30
0.0
 0
SEQEND
 8
WIRE
 0
POLYLINE
 8
WIRE
 66
1
 70
1
 10
0.0
 20
0.0
 30
0.0
 40
  0.0200
 41
  0.0200
 0
VERTEX
 8
WIRE
 10
  4.4900
 20
  3.5000
 30
0.0
 42
1.0
 0
VERTEX
 8
WIRE
 10
  4.5100
 20
  3.5000
 30
0.0
 42
1.0
 0
SEQEND
 8
WIRE
 0
POLYLINE
 8
WIRE
 66
1
 10
0.0
 20
0.0
 30
0.0
 0
VERTEX
 8
WIRE
 10
  5.6000
 20
  3.9000
 30
0.0
 0
VERTEX
 8
WIRE
 10
  5.6000
 20
  4.4000
 30
0.0
 0
SEQEND
 8
WIRE
 0
POLYLINE
 8
WIRE
 66
1
 70
1
 10
0.0
 20
0.0
 30
0.0
 40
  0.0200
 41
  0.0200
 0
VERTEX
 8
WIRE
 10
  5.5900
 20
  3.9000
 30
0.0
 42
1.0
 0
VERTEX
 8
WIRE
 10
  5.6100
 20
  3.9000
 30
0.0
 42
1.0
 0
SEQEND
 8
WIRE
 0
POLYLINE
 8
WIRE
 66
1
 10
0.0
 20
0.0
 30
0.0
 0
VERTEX
 8
WIRE
 10
  5.8000
 20
  3.9000
 30
0.0
 0
VERTEX
 8
WIRE
 10
  5.6000
 20
  3.9000
 30
0.0
 0
SEQEND
 8
WIRE
 0
POLYLINE
 8
WIRE
 66
1
 10
0.0
 20
0.0
 30
0.0
 0
VERTEX
 8
WIRE
 10
  3.2000
 20
  3.9000
 30
0.0
 0
VERTEX
 8
WIRE
 10
  3.2000
 20
  4.2000
 30
0.0
 0
SEQEND
 8
WIRE
 0
POLYLINE
 8
WIRE
 66
1
 10
0.0
 20
0.0
 30
0.0
 0
VERTEX
 8
WIRE
 10
  3.2000
 20
  3.9000
 30
0.0
 0
VERTEX
 8
WIRE
 10
  3.0000
 20
  3.9000
 30
0.0
 0
SEQEND
 8
WIRE
 0
POLYLINE
 8
WIRE
 66
1
 10
0.0
 20
0.0
 30
0.0
 0
VERTEX
 8
WIRE
 10
  5.6000
 20
  6.1000
 30
0.0
 0
VERTEX
 8
WIRE
 10
  5.3000
 20
  6.1000
 30
0.0
 0
SEQEND
 8
WIRE
 0
POLYLINE
 8
WIRE
 66
1
 10
0.0
 20
0.0
 30
0.0
 0
VERTEX
 8
WIRE
 10
  5.6000
 20
  5.1000
 30
0.0
 0
VERTEX
 8
WIRE
 10
  5.6000
 20
  5.6000
 30
0.0
 0
SEQEND
 8
WIRE
 0
POLYLINE
 8
WIRE
 66
1
 10
0.0
 20
0.0
 30
0.0
 0
VERTEX
 8
WIRE
 10
  4.5000
 20
  5.1000
 30
0.0
 0
VERTEX
 8
WIRE
 10
  4.5000
 20
  5.6000
 30
0.0
 0
SEQEND
 8
WIRE
 0
POLYLINE
 8
WIRE
 66
1
 10
0.0
 20
0.0
 30
0.0
 0
VERTEX
 8
WIRE
 10
  3.2000
 20
  6.1000
 30
0.0
 0
VERTEX
 8
WIRE
 10
  3.2000
 20
  6.7000
 30
0.0
 0
SEQEND
 8
WIRE
 0
POLYLINE
 8
WIRE
 66
1
 10
0.0
 20
0.0
 30
0.0
 0
VERTEX
 8
WIRE
 10
  5.6000
 20
  6.1000
 30
0.0
 0
VERTEX
 8
WIRE
 10
  5.6000
 20
  6.7000
 30
0.0
 0
SEQEND
 8
WIRE
 0
POLYLINE
 8
WIRE
 66
1
 10
0.0
 20
0.0
 30
0.0
 0
VERTEX
 8
WIRE
 10
  2.0000
 20
  3.9000
 30
0.0
 0
VERTEX
 8
WIRE
 10
  1.5000
 20
  3.9000
 30
0.0
 0
SEQEND
 8
WIRE
 0
POLYLINE
 8
WIRE
 66
1
 10
0.0
 20
0.0
 30
0.0
 0
VERTEX
 8
WIRE
 10
  2.0000
 20
  6.1000
 30
0.0
 0
VERTEX
 8
WIRE
 10
  1.5000
 20
  6.1000
 30
0.0
 0
SEQEND
 8
WIRE
 0
POLYLINE
 8
WIRE
 66
1
 10
0.0
 20
0.0
 30
0.0
 0
VERTEX
 8
WIRE
 10
  4.5000
 20
  6.7000
 30
0.0
 0
VERTEX
 8
WIRE
 10
  4.3000
 20
  6.7000
 30
0.0
 0
SEQEND
 8
WIRE
 0
POLYLINE
 8
WIRE
 66
1
 10
0.0
 20
0.0
 30
0.0
 0
VERTEX
 8
WIRE
 10
  4.5000
 20
  6.1000
 30
0.0
 0
VERTEX
 8
WIRE
 10
  4.2000
 20
  6.1000
 30
0.0
 0
SEQEND
 8
WIRE
 0
POLYLINE
 8
WIRE
 66
1
 10
0.0
 20
0.0
 30
0.0
 0
VERTEX
 8
WIRE
 10
  5.6000
 20
  6.7000
 30
0.0
 0
VERTEX
 8
WIRE
 10
  5.5000
 20
  6.7000
 30
0.0
 0
SEQEND
 8
WIRE
 0
POLYLINE
 8
WIRE
 66
1
 10
0.0
 20
0.0
 30
0.0
 0
VERTEX
 8
WIRE
 10
  4.5000
 20
  6.1000
 30
0.0
 0
VERTEX
 8
WIRE
 10
  4.5000
 20
  6.7000
 30
0.0
 0
SEQEND
 8
WIRE
 0
POLYLINE
 8
WIRE
 66
1
 70
1
 10
0.0
 20
0.0
 30
0.0
 40
  0.0200
 41
  0.0200
 0
VERTEX
 8
WIRE
 10
  4.4900
 20
  6.1000
 30
0.0
 42
1.0
 0
VERTEX
 8
WIRE
 10
  4.5100
 20
  6.1000
 30
0.0
 42
1.0
 0
SEQEND
 8
WIRE
 0
POLYLINE
 8
WIRE
 66
1
 70
1
 10
0.0
 20
0.0
 30
0.0
 40
  0.0200
 41
  0.0200
 0
VERTEX
 8
WIRE
 10
  4.4900
 20
  6.7000
 30
0.0
 42
1.0
 0
VERTEX
 8
WIRE
 10
  4.5100
 20
  6.7000
 30
0.0
 42
1.0
 0
SEQEND
 8
WIRE
 0
POLYLINE
 8
WIRE
 66
1
 10
0.0
 20
0.0
 30
0.0
 0
VERTEX
 8
WIRE
 10
  3.3000
 20
  6.7000
 30
0.0
 0
VERTEX
 8
WIRE
 10
  3.2000
 20
  6.7000
 30
0.0
 0
SEQEND
 8
WIRE
 0
POLYLINE
 8
WIRE
 66
1
 10
0.0
 20
0.0
 30
0.0
 0
VERTEX
 8
WIRE
 10
  3.2000
 20
  6.1000
 30
0.0
 0
VERTEX
 8
WIRE
 10
  3.0000
 20
  6.1000
 30
0.0
 0
SEQEND
 8
WIRE
 0
POLYLINE
 8
WIRE
 66
1
 10
0.0
 20
0.0
 30
0.0
 0
VERTEX
 8
WIRE
 10
  5.2000
 20
  1.2000
 30
0.0
 0
VERTEX
 8
WIRE
 10
  4.7000
 20
  1.2000
 30
0.0
 0
SEQEND
 8
WIRE
 0
POLYLINE
 8
WIRE
 66
1
 10
0.0
 20
0.0
 30
0.0
 0
VERTEX
 8
WIRE
 10
  6.0000
 20
  6.1000
 30
0.0
 0
VERTEX
 8
WIRE
 10
  5.6000
 20
  6.1000
 30
0.0
 0
SEQEND
 8
WIRE
 0
POLYLINE
 8
WIRE
 66
1
 70
1
 10
0.0
 20
0.0
 30
0.0
 40
  0.0200
 41
  0.0200
 0
VERTEX
 8
WIRE
 10
  5.5900
 20
  6.1000
 30
0.0
 42
1.0
 0
VERTEX
 8
WIRE
 10
  5.6100
 20
  6.1000
 30
0.0
 42
1.0
 0
SEQEND
 8
WIRE
 0
POLYLINE
 8
WIRE
 66
1
 10
0.0
 20
0.0
 30
0.0
 0
VERTEX
 8
WIRE
 10
  6.0000
 20
  3.9000
 30
0.0
 0
VERTEX
 8
WIRE
 10
  5.8000
 20
  3.9000
 30
0.0
 0
SEQEND
 8
WIRE
 0
POLYLINE
 8
WIRE
 66
1
 10
0.0
 20
0.0
 30
0.0
 0
VERTEX
 8
WIRE
 10
  2.0000
 20
  4.9000
 30
0.0
 0
VERTEX
 8
WIRE
 10
  2.0000
 20
  5.0000
 30
0.0
 0
SEQEND
 8
WIRE
 0
POLYLINE
 8
WIRE
 66
1
 10
0.0
 20
0.0
 30
0.0
 0
VERTEX
 8
WIRE
 10
  2.4000
 20
  3.9000
 30
0.0
 0
VERTEX
 8
WIRE
 10
  2.0000
 20
  3.9000
 30
0.0
 0
SEQEND
 8
WIRE
 0
POLYLINE
 8
WIRE
 66
1
 70
1
 10
0.0
 20
0.0
 30
0.0
 40
  0.0200
 41
  0.0200
 0
VERTEX
 8
WIRE
 10
  1.9900
 20
  3.9000
 30
0.0
 42
1.0
 0
VERTEX
 8
WIRE
 10
  2.0100
 20
  3.9000
 30
0.0
 42
1.0
 0
SEQEND
 8
WIRE
 0
POLYLINE
 8
WIRE
 66
1
 10
0.0
 20
0.0
 30
0.0
 0
VERTEX
 8
WIRE
 10
  1.5000
 20
  5.0000
 30
0.0
 0
VERTEX
 8
WIRE
 10
  1.5000
 20
  6.1000
 30
0.0
 0
SEQEND
 8
WIRE
 0
TEXT
 8
WIRETEXT
 10
  1.5000
 20
  6.1300
 30
0.0
 40
  0.0514
 1
IBP_IN
 0
POLYLINE
 8
WIRE
 66
1
 10
0.0
 20
0.0
 30
0.0
 0
VERTEX
 8
WIRE
 10
  2.4000
 20
  6.1000
 30
0.0
 0
VERTEX
 8
WIRE
 10
  2.0000
 20
  6.1000
 30
0.0
 0
SEQEND
 8
WIRE
 0
POLYLINE
 8
WIRE
 66
1
 70
1
 10
0.0
 20
0.0
 30
0.0
 40
  0.0200
 41
  0.0200
 0
VERTEX
 8
WIRE
 10
  1.9900
 20
  6.1000
 30
0.0
 42
1.0
 0
VERTEX
 8
WIRE
 10
  2.0100
 20
  6.1000
 30
0.0
 42
1.0
 0
SEQEND
 8
WIRE
 0
POLYLINE
 8
WIRE
 66
1
 10
0.0
 20
0.0
 30
0.0
 0
VERTEX
 8
WIRE
 10
  1.5000
 20
  5.0000
 30
0.0
 0
VERTEX
 8
WIRE
 10
  1.2000
 20
  5.0000
 30
0.0
 0
SEQEND
 8
WIRE
 0
POLYLINE
 8
WIRE
 66
1
 10
0.0
 20
0.0
 30
0.0
 0
VERTEX
 8
WIRE
 10
  1.5000
 20
  4.9000
 30
0.0
 0
VERTEX
 8
WIRE
 10
  1.2000
 20
  4.9000
 30
0.0
 0
SEQEND
 8
WIRE
 0
POLYLINE
 8
WIRE
 66
1
 10
0.0
 20
0.0
 30
0.0
 0
VERTEX
 8
WIRE
 10
  1.5000
 20
  3.9000
 30
0.0
 0
VERTEX
 8
WIRE
 10
  1.5000
 20
  4.9000
 30
0.0
 0
SEQEND
 8
WIRE
 0
TEXT
 8
WIRETEXT
 10
  1.5000
 20
  3.9300
 30
0.0
 40
  0.0514
 1
IBN_IN
 0
POLYLINE
 8
WIRE
 66
1
 10
0.0
 20
0.0
 30
0.0
 0
VERTEX
 8
WIRE
 10
  3.2000
 20
  5.9000
 30
0.0
 0
VERTEX
 8
WIRE
 10
  3.2000
 20
  6.1000
 30
0.0
 0
SEQEND
 8
WIRE
 0
POLYLINE
 8
WIRE
 66
1
 10
0.0
 20
0.0
 30
0.0
 0
VERTEX
 8
WIRE
 10
  6.6000
 20
  6.1000
 30
0.0
 0
VERTEX
 8
WIRE
 10
  6.0000
 20
  6.1000
 30
0.0
 0
SEQEND
 8
WIRE
 0
POLYLINE
 8
WIRE
 66
1
 70
1
 10
0.0
 20
0.0
 30
0.0
 40
  0.0200
 41
  0.0200
 0
VERTEX
 8
WIRE
 10
  5.9900
 20
  6.1000
 30
0.0
 42
1.0
 0
VERTEX
 8
WIRE
 10
  6.0100
 20
  6.1000
 30
0.0
 42
1.0
 0
SEQEND
 8
WIRE
 0
TEXT
 8
WIRETEXT
 10
  6.4000
 20
  6.1300
 30
0.0
 40
  0.0514
 1
IBP
 0
POLYLINE
 8
WIRE
 66
1
 10
0.0
 20
0.0
 30
0.0
 0
VERTEX
 8
WIRE
 10
  4.8000
 20
  6.1000
 30
0.0
 0
VERTEX
 8
WIRE
 10
  4.5000
 20
  6.1000
 30
0.0
 0
SEQEND
 8
WIRE
 0
POLYLINE
 8
WIRE
 66
1
 70
1
 10
0.0
 20
0.0
 30
0.0
 40
  0.0200
 41
  0.0200
 0
VERTEX
 8
WIRE
 10
  4.4900
 20
  6.1000
 30
0.0
 42
1.0
 0
VERTEX
 8
WIRE
 10
  4.5100
 20
  6.1000
 30
0.0
 42
1.0
 0
SEQEND
 8
WIRE
 0
POLYLINE
 8
WIRE
 66
1
 10
0.0
 20
0.0
 30
0.0
 0
VERTEX
 8
WIRE
 10
  3.7000
 20
  6.1000
 30
0.0
 0
VERTEX
 8
WIRE
 10
  3.2000
 20
  6.1000
 30
0.0
 0
SEQEND
 8
WIRE
 0
POLYLINE
 8
WIRE
 66
1
 70
1
 10
0.0
 20
0.0
 30
0.0
 40
  0.0200
 41
  0.0200
 0
VERTEX
 8
WIRE
 10
  3.1900
 20
  6.1000
 30
0.0
 42
1.0
 0
VERTEX
 8
WIRE
 10
  3.2100
 20
  6.1000
 30
0.0
 42
1.0
 0
SEQEND
 8
WIRE
 0
POLYLINE
 8
WIRE
 66
1
 10
0.0
 20
0.0
 30
0.0
 0
VERTEX
 8
WIRE
 10
  4.5000
 20
  4.7000
 30
0.0
 0
VERTEX
 8
WIRE
 10
  4.5000
 20
  5.1000
 30
0.0
 0
SEQEND
 8
WIRE
 0
POLYLINE
 8
WIRE
 66
1
 10
0.0
 20
0.0
 30
0.0
 0
VERTEX
 8
WIRE
 10
  4.5000
 20
  5.9000
 30
0.0
 0
VERTEX
 8
WIRE
 10
  4.5000
 20
  6.1000
 30
0.0
 0
SEQEND
 8
WIRE
 0
POLYLINE
 8
WIRE
 66
1
 10
0.0
 20
0.0
 30
0.0
 0
VERTEX
 8
WIRE
 10
  5.6000
 20
  5.9000
 30
0.0
 0
VERTEX
 8
WIRE
 10
  5.6000
 20
  6.1000
 30
0.0
 0
SEQEND
 8
WIRE
 0
POLYLINE
 8
WIRE
 66
1
 10
0.0
 20
0.0
 30
0.0
 0
VERTEX
 8
WIRE
 10
  4.7000
 20
  1.0000
 30
0.0
 0
VERTEX
 8
WIRE
 10
  4.7000
 20
  1.2000
 30
0.0
 0
SEQEND
 8
WIRE
 0
TEXT
 8
WIRETEXT
 10
  4.7000
 20
  1.2300
 30
0.0
 40
  0.0514
 1
AGND
 0
POLYLINE
 8
WIRE
 66
1
 10
0.0
 20
0.0
 30
0.0
 0
VERTEX
 8
WIRE
 10
  5.9000
 20
  2.5000
 30
0.0
 0
VERTEX
 8
WIRE
 10
  5.5000
 20
  2.5000
 30
0.0
 0
SEQEND
 8
WIRE
 0
TEXT
 8
WIRETEXT
 10
  5.7000
 20
  2.5300
 30
0.0
 40
  0.0514
 1
VBP
 0
POLYLINE
 8
PARTS
 66
1
 10
0.0
 20
0.0
 30
0.0
 0
VERTEX
 8
PARTS
 10
  3.8000
 20
  1.7000
 30
0.0
 0
VERTEX
 8
PARTS
 10
  4.0000
 20
  1.7000
 30
0.0
 0
SEQEND
 8
PARTS
 0
POLYLINE
 8
PARTS
 66
1
 10
0.0
 20
0.0
 30
0.0
 0
VERTEX
 8
PARTS
 10
  4.0000
 20
  1.7000
 30
0.0
 0
VERTEX
 8
PARTS
 10
  3.9000
 20
  1.6000
 30
0.0
 0
SEQEND
 8
PARTS
 0
POLYLINE
 8
PARTS
 66
1
 10
0.0
 20
0.0
 30
0.0
 0
VERTEX
 8
PARTS
 10
  3.9000
 20
  1.6000
 30
0.0
 0
VERTEX
 8
PARTS
 10
  3.8000
 20
  1.7000
 30
0.0
 0
SEQEND
 8
PARTS
 0
POLYLINE
 8
PARTS
 66
1
 10
0.0
 20
0.0
 30
0.0
 0
VERTEX
 8
PARTS
 10
  1.4000
 20
  2.1000
 30
0.0
 0
VERTEX
 8
PARTS
 10
  1.6000
 20
  2.1000
 30
0.0
 0
SEQEND
 8
PARTS
 0
POLYLINE
 8
PARTS
 66
1
 10
0.0
 20
0.0
 30
0.0
 0
VERTEX
 8
PARTS
 10
  1.6000
 20
  2.1000
 30
0.0
 0
VERTEX
 8
PARTS
 10
  1.5000
 20
  2.0000
 30
0.0
 0
SEQEND
 8
PARTS
 0
POLYLINE
 8
PARTS
 66
1
 10
0.0
 20
0.0
 30
0.0
 0
VERTEX
 8
PARTS
 10
  1.5000
 20
  2.0000
 30
0.0
 0
VERTEX
 8
PARTS
 10
  1.4000
 20
  2.1000
 30
0.0
 0
SEQEND
 8
PARTS
 0
POLYLINE
 8
PARTS
 66
1
 10
0.0
 20
0.0
 30
0.0
 0
VERTEX
 8
PARTS
 10
  4.8000
 20
  4.9000
 30
0.0
 0
VERTEX
 8
PARTS
 10
  5.0000
 20
  4.9000
 30
0.0
 0
SEQEND
 8
PARTS
 0
POLYLINE
 8
PARTS
 66
1
 10
0.0
 20
0.0
 30
0.0
 0
VERTEX
 8
PARTS
 10
  5.0000
 20
  4.9000
 30
0.0
 0
VERTEX
 8
PARTS
 10
  4.9000
 20
  4.8000
 30
0.0
 0
SEQEND
 8
PARTS
 0
POLYLINE
 8
PARTS
 66
1
 10
0.0
 20
0.0
 30
0.0
 0
VERTEX
 8
PARTS
 10
  4.9000
 20
  4.8000
 30
0.0
 0
VERTEX
 8
PARTS
 10
  4.8000
 20
  4.9000
 30
0.0
 0
SEQEND
 8
PARTS
 0
POLYLINE
 8
PARTS
 66
1
 10
0.0
 20
0.0
 30
0.0
 0
VERTEX
 8
PARTS
 10
  3.5000
 20
  4.9000
 30
0.0
 0
VERTEX
 8
PARTS
 10
  3.7000
 20
  4.9000
 30
0.0
 0
SEQEND
 8
PARTS
 0
POLYLINE
 8
PARTS
 66
1
 10
0.0
 20
0.0
 30
0.0
 0
VERTEX
 8
PARTS
 10
  3.7000
 20
  4.9000
 30
0.0
 0
VERTEX
 8
PARTS
 10
  3.6000
 20
  4.8000
 30
0.0
 0
SEQEND
 8
PARTS
 0
POLYLINE
 8
PARTS
 66
1
 10
0.0
 20
0.0
 30
0.0
 0
VERTEX
 8
PARTS
 10
  3.6000
 20
  4.8000
 30
0.0
 0
VERTEX
 8
PARTS
 10
  3.5000
 20
  4.9000
 30
0.0
 0
SEQEND
 8
PARTS
 0
POLYLINE
 8
PARTS
 66
1
 10
0.0
 20
0.0
 30
0.0
 0
VERTEX
 8
PARTS
 10
  5.9000
 20
  4.9000
 30
0.0
 0
VERTEX
 8
PARTS
 10
  6.1000
 20
  4.9000
 30
0.0
 0
SEQEND
 8
PARTS
 0
POLYLINE
 8
PARTS
 66
1
 10
0.0
 20
0.0
 30
0.0
 0
VERTEX
 8
PARTS
 10
  6.1000
 20
  4.9000
 30
0.0
 0
VERTEX
 8
PARTS
 10
  6.0000
 20
  4.8000
 30
0.0
 0
SEQEND
 8
PARTS
 0
POLYLINE
 8
PARTS
 66
1
 10
0.0
 20
0.0
 30
0.0
 0
VERTEX
 8
PARTS
 10
  6.0000
 20
  4.8000
 30
0.0
 0
VERTEX
 8
PARTS
 10
  5.9000
 20
  4.9000
 30
0.0
 0
SEQEND
 8
PARTS
 0
POLYLINE
 8
PARTS
 66
1
 10
0.0
 20
0.0
 30
0.0
 0
VERTEX
 8
PARTS
 10
  4.6000
 20
  1.0000
 30
0.0
 0
VERTEX
 8
PARTS
 10
  4.8000
 20
  1.0000
 30
0.0
 0
SEQEND
 8
PARTS
 0
POLYLINE
 8
PARTS
 66
1
 10
0.0
 20
0.0
 30
0.0
 0
VERTEX
 8
PARTS
 10
  4.8000
 20
  1.0000
 30
0.0
 0
VERTEX
 8
PARTS
 10
  4.7000
 20
  0.9000
 30
0.0
 0
SEQEND
 8
PARTS
 0
POLYLINE
 8
PARTS
 66
1
 10
0.0
 20
0.0
 30
0.0
 0
VERTEX
 8
PARTS
 10
  4.7000
 20
  0.9000
 30
0.0
 0
VERTEX
 8
PARTS
 10
  4.6000
 20
  1.0000
 30
0.0
 0
SEQEND
 8
PARTS
 0
TEXT
 8
COMMENTS
 10
  5.9000
 20
  1.7186
 30
0.0
 40
  0.0514
 1
PHASE B Voltage
 0
TEXT
 8
COMMENTS
 10
  0.2000
 20
  3.0186
 30
0.0
 40
  0.0514
 1
PHASE B VOLTAGE
 0
TEXT
 8
COMMENTS
 10
  0.3000
 20
  5.5186
 30
0.0
 40
  0.0514
 1
PHASE B CURRENT
 0
TEXT
 8
COMMENTS
 10
  6.9000
 20
  5.2186
 30
0.0
 40
  0.0514
 1
PHASE B CURRENT
 0
ENDSEC
 0
EOF
