 0
SECTION
 2
HEADER
 9
$ACADVER
 1
AC1009
 0
ENDSEC
 0
SECTION
 2
ENTITIES
 0
POLYLINE
 8
TITLE
 66
1
 70
1
 10
0.0
 20
0.0
 30
0.0
 0
VERTEX
 8
TITLE
 10
 -0.1000
 20
  0.1000
 30
0.0
 0
VERTEX
 8
TITLE
 10
  9.6000
 20
  0.1000
 30
0.0
 0
VERTEX
 8
TITLE
 10
  9.6000
 20
  7.3000
 30
0.0
 0
VERTEX
 8
TITLE
 10
 -0.1000
 20
  7.3000
 30
0.0
 0
SEQEND
 8
TITLE
 0
POLYLINE
 8
TITLE
 66
1
 70
1
 10
0.0
 20
0.0
 30
0.0
 0
VERTEX
 8
TITLE
 10
  0.0000
 20
  0.2000
 30
0.0
 0
VERTEX
 8
TITLE
 10
  9.5000
 20
  0.2000
 30
0.0
 0
VERTEX
 8
TITLE
 10
  9.5000
 20
  7.2000
 30
0.0
 0
VERTEX
 8
TITLE
 10
  0.0000
 20
  7.2000
 30
0.0
 0
SEQEND
 8
TITLE
 0
POLYLINE
 8
TITLE
 66
1
 10
0.0
 20
0.0
 30
0.0
 0
VERTEX
 8
TITLE
 10
  2.0600
 20
  0.2000
 30
0.0
 0
VERTEX
 8
TITLE
 10
  2.0600
 20
  0.1000
 30
0.0
 0
SEQEND
 8
TITLE
 0
POLYLINE
 8
TITLE
 66
1
 10
0.0
 20
0.0
 30
0.0
 0
VERTEX
 8
TITLE
 10
  2.0600
 20
  7.2000
 30
0.0
 0
VERTEX
 8
TITLE
 10
  2.0600
 20
  7.3000
 30
0.0
 0
SEQEND
 8
TITLE
 0
POLYLINE
 8
TITLE
 66
1
 10
0.0
 20
0.0
 30
0.0
 0
VERTEX
 8
TITLE
 10
  3.9200
 20
  0.2000
 30
0.0
 0
VERTEX
 8
TITLE
 10
  3.9200
 20
  0.1000
 30
0.0
 0
SEQEND
 8
TITLE
 0
POLYLINE
 8
TITLE
 66
1
 10
0.0
 20
0.0
 30
0.0
 0
VERTEX
 8
TITLE
 10
  3.9200
 20
  7.2000
 30
0.0
 0
VERTEX
 8
TITLE
 10
  3.9200
 20
  7.3000
 30
0.0
 0
SEQEND
 8
TITLE
 0
POLYLINE
 8
TITLE
 66
1
 10
0.0
 20
0.0
 30
0.0
 0
VERTEX
 8
TITLE
 10
  5.7800
 20
  0.2000
 30
0.0
 0
VERTEX
 8
TITLE
 10
  5.7800
 20
  0.1000
 30
0.0
 0
SEQEND
 8
TITLE
 0
POLYLINE
 8
TITLE
 66
1
 10
0.0
 20
0.0
 30
0.0
 0
VERTEX
 8
TITLE
 10
  5.7800
 20
  7.2000
 30
0.0
 0
VERTEX
 8
TITLE
 10
  5.7800
 20
  7.3000
 30
0.0
 0
SEQEND
 8
TITLE
 0
POLYLINE
 8
TITLE
 66
1
 10
0.0
 20
0.0
 30
0.0
 0
VERTEX
 8
TITLE
 10
  7.6400
 20
  0.2000
 30
0.0
 0
VERTEX
 8
TITLE
 10
  7.6400
 20
  0.1000
 30
0.0
 0
SEQEND
 8
TITLE
 0
POLYLINE
 8
TITLE
 66
1
 10
0.0
 20
0.0
 30
0.0
 0
VERTEX
 8
TITLE
 10
  7.6400
 20
  7.2000
 30
0.0
 0
VERTEX
 8
TITLE
 10
  7.6400
 20
  7.3000
 30
0.0
 0
SEQEND
 8
TITLE
 0
TEXT
 8
TITLE
 10
  1.1300
 20
  0.1200
 30
0.0
 40
  0.0500
 1
5
 0
TEXT
 8
TITLE
 10
  1.1300
 20
  7.2200
 30
0.0
 40
  0.0500
 1
5
 0
TEXT
 8
TITLE
 10
  2.9900
 20
  0.1200
 30
0.0
 40
  0.0500
 1
4
 0
TEXT
 8
TITLE
 10
  2.9900
 20
  7.2200
 30
0.0
 40
  0.0500
 1
4
 0
TEXT
 8
TITLE
 10
  4.8500
 20
  0.1200
 30
0.0
 40
  0.0500
 1
3
 0
TEXT
 8
TITLE
 10
  4.8500
 20
  7.2200
 30
0.0
 40
  0.0500
 1
3
 0
TEXT
 8
TITLE
 10
  6.7100
 20
  0.1200
 30
0.0
 40
  0.0500
 1
2
 0
TEXT
 8
TITLE
 10
  6.7100
 20
  7.2200
 30
0.0
 40
  0.0500
 1
2
 0
TEXT
 8
TITLE
 10
  8.5700
 20
  0.1200
 30
0.0
 40
  0.0500
 1
1
 0
TEXT
 8
TITLE
 10
  8.5700
 20
  7.2200
 30
0.0
 40
  0.0500
 1
1
 0
POLYLINE
 8
TITLE
 66
1
 10
0.0
 20
0.0
 30
0.0
 0
VERTEX
 8
TITLE
 10
 -0.1000
 20
  5.3000
 30
0.0
 0
VERTEX
 8
TITLE
 10
  0.0000
 20
  5.3000
 30
0.0
 0
SEQEND
 8
TITLE
 0
POLYLINE
 8
TITLE
 66
1
 10
0.0
 20
0.0
 30
0.0
 0
VERTEX
 8
TITLE
 10
  9.5000
 20
  5.3000
 30
0.0
 0
VERTEX
 8
TITLE
 10
  9.6000
 20
  5.3000
 30
0.0
 0
SEQEND
 8
TITLE
 0
SOLID
 8
TITLE
 10
  0.0000
 20
  3.6000
 30
0.0
 11
 -0.0500
 21
  3.6200
 31
0.0
 12
 -0.0500
 22
  3.5800
 32
0.0
 13
 -0.0500
 23
  3.6000
 33
0.0
 0
SOLID
 8
TITLE
 10
  9.5000
 20
  3.6000
 30
0.0
 11
  9.5500
 21
  3.6200
 31
0.0
 12
  9.5500
 22
  3.5800
 32
0.0
 13
  9.5500
 23
  3.6000
 33
0.0
 0
POLYLINE
 8
TITLE
 66
1
 10
0.0
 20
0.0
 30
0.0
 0
VERTEX
 8
TITLE
 10
 -0.1000
 20
  3.6000
 30
0.0
 0
VERTEX
 8
TITLE
 10
  0.0000
 20
  3.6000
 30
0.0
 0
SEQEND
 8
TITLE
 0
POLYLINE
 8
TITLE
 66
1
 10
0.0
 20
0.0
 30
0.0
 0
VERTEX
 8
TITLE
 10
  9.5000
 20
  3.6000
 30
0.0
 0
VERTEX
 8
TITLE
 10
  9.6000
 20
  3.6000
 30
0.0
 0
SEQEND
 8
TITLE
 0
SOLID
 8
TITLE
 10
  0.0000
 20
  3.6000
 30
0.0
 11
 -0.0500
 21
  3.6200
 31
0.0
 12
 -0.0500
 22
  3.5800
 32
0.0
 13
 -0.0500
 23
  3.6000
 33
0.0
 0
SOLID
 8
TITLE
 10
  9.5000
 20
  3.6000
 30
0.0
 11
  9.5500
 21
  3.6200
 31
0.0
 12
  9.5500
 22
  3.5800
 32
0.0
 13
  9.5500
 23
  3.6000
 33
0.0
 0
POLYLINE
 8
TITLE
 66
1
 10
0.0
 20
0.0
 30
0.0
 0
VERTEX
 8
TITLE
 10
 -0.1000
 20
  1.9000
 30
0.0
 0
VERTEX
 8
TITLE
 10
  0.0000
 20
  1.9000
 30
0.0
 0
SEQEND
 8
TITLE
 0
POLYLINE
 8
TITLE
 66
1
 10
0.0
 20
0.0
 30
0.0
 0
VERTEX
 8
TITLE
 10
  9.5000
 20
  1.9000
 30
0.0
 0
VERTEX
 8
TITLE
 10
  9.6000
 20
  1.9000
 30
0.0
 0
SEQEND
 8
TITLE
 0
SOLID
 8
TITLE
 10
  0.0000
 20
  3.6000
 30
0.0
 11
 -0.0500
 21
  3.6200
 31
0.0
 12
 -0.0500
 22
  3.5800
 32
0.0
 13
 -0.0500
 23
  3.6000
 33
0.0
 0
SOLID
 8
TITLE
 10
  9.5000
 20
  3.6000
 30
0.0
 11
  9.5500
 21
  3.6200
 31
0.0
 12
  9.5500
 22
  3.5800
 32
0.0
 13
  9.5500
 23
  3.6000
 33
0.0
 0
TEXT
 8
TITLE
 10
 -0.0800
 20
  6.1500
 30
0.0
 40
  0.0500
 1
D
 0
TEXT
 8
TITLE
 10
  9.5200
 20
  6.1500
 30
0.0
 40
  0.0500
 1
D
 0
TEXT
 8
TITLE
 10
 -0.0800
 20
  4.4500
 30
0.0
 40
  0.0500
 1
C
 0
TEXT
 8
TITLE
 10
  9.5200
 20
  4.4500
 30
0.0
 40
  0.0500
 1
C
 0
TEXT
 8
TITLE
 10
 -0.0800
 20
  2.7500
 30
0.0
 40
  0.0500
 1
B
 0
TEXT
 8
TITLE
 10
  9.5200
 20
  2.7500
 30
0.0
 40
  0.0500
 1
B
 0
TEXT
 8
TITLE
 10
 -0.0800
 20
  1.0500
 30
0.0
 40
  0.0500
 1
A
 0
TEXT
 8
TITLE
 10
  9.5200
 20
  1.0500
 30
0.0
 40
  0.0500
 1
A
 0
TEXT
 8
TITLE
 10
  6.3000
 20
  0.4186
 30
0.0
 40
  0.0514
 1
<Doc>
 0
TEXT
 8
TITLE
 10
  9.3000
 20
  0.4186
 30
0.0
 40
  0.0514
 1
<RevCode>
 0
TEXT
 8
TITLE
 10
  6.3000
 20
  0.7186
 30
0.0
 40
  0.0514
 1
<Title>
 0
TEXT
 8
TITLE
 10
  6.0000
 20
  0.4186
 30
0.0
 40
  0.0514
 1
A
 0
TEXT
 8
TITLE
 10
  8.4000
 20
  0.2186
 30
0.0
 40
  0.0514
 1
1
 0
TEXT
 8
TITLE
 10
  9.0000
 20
  0.2186
 30
0.0
 40
  0.0514
 1
1
 0
TEXT
 8
TITLE
 10
  6.4200
 20
  0.2186
 30
0.0
 40
  0.0514
 1
Saturday, October 18, 2014
 0
TEXT
 8
PARTTEXT
 10
  5.9000
 20
  0.8186
 30
0.0
 40
  0.0514
 1
Title
 0
TEXT
 8
PARTTEXT
 10
  5.9000
 20
  0.5186
 30
0.0
 40
  0.0514
 1
Size
 0
TEXT
 8
PARTTEXT
 10
  6.3000
 20
  0.5186
 30
0.0
 40
  0.0514
 1
Document Number
 0
TEXT
 8
PARTTEXT
 10
  9.2000
 20
  0.5186
 30
0.0
 40
  0.0514
 1
Rev
 0
TEXT
 8
PARTTEXT
 10
  5.9000
 20
  0.2186
 30
0.0
 40
  0.0514
 1
Date:
 0
TEXT
 8
PARTTEXT
 10
  7.9000
 20
  0.2186
 30
0.0
 40
  0.0514
 1
Sheet
 0
POLYLINE
 8
TITLE
 66
1
 70
1
 10
0.0
 20
0.0
 30
0.0
 0
VERTEX
 8
TITLE
 10
  5.9000
 20
  1.1000
 30
0.0
 0
VERTEX
 8
TITLE
 10
  9.5000
 20
  1.1000
 30
0.0
 0
VERTEX
 8
TITLE
 10
  9.5000
 20
  0.9000
 30
0.0
 0
VERTEX
 8
TITLE
 10
  5.9000
 20
  0.9000
 30
0.0
 0
SEQEND
 8
TITLE
 0
POLYLINE
 8
TITLE
 66
1
 70
1
 10
0.0
 20
0.0
 30
0.0
 0
VERTEX
 8
TITLE
 10
  5.9000
 20
  0.9000
 30
0.0
 0
VERTEX
 8
TITLE
 10
  9.5000
 20
  0.9000
 30
0.0
 0
VERTEX
 8
TITLE
 10
  9.5000
 20
  0.6000
 30
0.0
 0
VERTEX
 8
TITLE
 10
  5.9000
 20
  0.6000
 30
0.0
 0
SEQEND
 8
TITLE
 0
POLYLINE
 8
TITLE
 66
1
 70
1
 10
0.0
 20
0.0
 30
0.0
 0
VERTEX
 8
TITLE
 10
  5.9000
 20
  0.6000
 30
0.0
 0
VERTEX
 8
TITLE
 10
  6.2000
 20
  0.6000
 30
0.0
 0
VERTEX
 8
TITLE
 10
  6.2000
 20
  0.3000
 30
0.0
 0
VERTEX
 8
TITLE
 10
  5.9000
 20
  0.3000
 30
0.0
 0
SEQEND
 8
TITLE
 0
POLYLINE
 8
TITLE
 66
1
 70
1
 10
0.0
 20
0.0
 30
0.0
 0
VERTEX
 8
TITLE
 10
  6.2000
 20
  0.6000
 30
0.0
 0
VERTEX
 8
TITLE
 10
  9.2000
 20
  0.6000
 30
0.0
 0
VERTEX
 8
TITLE
 10
  9.2000
 20
  0.3000
 30
0.0
 0
VERTEX
 8
TITLE
 10
  6.2000
 20
  0.3000
 30
0.0
 0
SEQEND
 8
TITLE
 0
POLYLINE
 8
TITLE
 66
1
 70
1
 10
0.0
 20
0.0
 30
0.0
 0
VERTEX
 8
TITLE
 10
  9.2000
 20
  0.6000
 30
0.0
 0
VERTEX
 8
TITLE
 10
  9.5000
 20
  0.6000
 30
0.0
 0
VERTEX
 8
TITLE
 10
  9.5000
 20
  0.3000
 30
0.0
 0
VERTEX
 8
TITLE
 10
  9.2000
 20
  0.3000
 30
0.0
 0
SEQEND
 8
TITLE
 0
POLYLINE
 8
TITLE
 66
1
 70
1
 10
0.0
 20
0.0
 30
0.0
 0
VERTEX
 8
TITLE
 10
  5.9000
 20
  0.3000
 30
0.0
 0
VERTEX
 8
TITLE
 10
  7.9000
 20
  0.3000
 30
0.0
 0
VERTEX
 8
TITLE
 10
  7.9000
 20
  0.2000
 30
0.0
 0
VERTEX
 8
TITLE
 10
  5.9000
 20
  0.2000
 30
0.0
 0
SEQEND
 8
TITLE
 0
POLYLINE
 8
TITLE
 66
1
 70
1
 10
0.0
 20
0.0
 30
0.0
 0
VERTEX
 8
TITLE
 10
  7.9000
 20
  0.3000
 30
0.0
 0
VERTEX
 8
TITLE
 10
  9.5000
 20
  0.3000
 30
0.0
 0
VERTEX
 8
TITLE
 10
  9.5000
 20
  0.2000
 30
0.0
 0
VERTEX
 8
TITLE
 10
  7.9000
 20
  0.2000
 30
0.0
 0
SEQEND
 8
TITLE
 0
TEXT
 8
PARTTEXT
 10
  8.7000
 20
  0.2186
 30
0.0
 40
  0.0514
 1
of
 0
TEXT
 8
PARTTEXT
 10
  1.1900
 20
  1.4186
 30
0.0
 40
  0.0514
 1
C42
 0
TEXT
 8
PARTTEXT
 10
  1.1900
 20
  1.3286
 30
0.0
 40
  0.0514
 1
0.1uF
 0
LINE
 8
PARTS
 10
  1.0000
 20
  1.6000
 30
0.0
 11
  1.0000
 21
  1.5000
 31
0.0
 0
LINE
 8
PARTS
 10
  1.0000
 20
  1.3000
 30
0.0
 11
  1.0000
 21
  1.4000
 31
0.0
 0
POLYLINE
 8
PARTS
 66
1
 10
0.0
 20
0.0
 30
0.0
 0
VERTEX
 8
PARTS
 10
  1.0000
 20
  1.5000
 30
0.0
 0
VERTEX
 8
PARTS
 10
  1.0000
 20
  1.4800
 30
0.0
 0
SEQEND
 8
PARTS
 0
POLYLINE
 8
PARTS
 66
1
 10
0.0
 20
0.0
 30
0.0
 0
VERTEX
 8
PARTS
 10
  0.9100
 20
  1.4300
 30
0.0
 0
VERTEX
 8
PARTS
 10
  1.0900
 20
  1.4300
 30
0.0
 0
SEQEND
 8
PARTS
 0
POLYLINE
 8
PARTS
 66
1
 10
0.0
 20
0.0
 30
0.0
 0
VERTEX
 8
PARTS
 10
  0.9100
 20
  1.4800
 30
0.0
 0
VERTEX
 8
PARTS
 10
  1.0900
 20
  1.4800
 30
0.0
 0
SEQEND
 8
PARTS
 0
POLYLINE
 8
PARTS
 66
1
 10
0.0
 20
0.0
 30
0.0
 0
VERTEX
 8
PARTS
 10
  1.0000
 20
  1.4000
 30
0.0
 0
VERTEX
 8
PARTS
 10
  1.0000
 20
  1.4300
 30
0.0
 0
SEQEND
 8
PARTS
 0
TEXT
 8
PARTTEXT
 10
  2.1900
 20
  1.4186
 30
0.0
 40
  0.0514
 1
C44
 0
TEXT
 8
PARTTEXT
 10
  2.1900
 20
  1.3286
 30
0.0
 40
  0.0514
 1
0.1uF
 0
LINE
 8
PARTS
 10
  2.0000
 20
  1.6000
 30
0.0
 11
  2.0000
 21
  1.5000
 31
0.0
 0
LINE
 8
PARTS
 10
  2.0000
 20
  1.3000
 30
0.0
 11
  2.0000
 21
  1.4000
 31
0.0
 0
POLYLINE
 8
PARTS
 66
1
 10
0.0
 20
0.0
 30
0.0
 0
VERTEX
 8
PARTS
 10
  2.0000
 20
  1.5000
 30
0.0
 0
VERTEX
 8
PARTS
 10
  2.0000
 20
  1.4800
 30
0.0
 0
SEQEND
 8
PARTS
 0
POLYLINE
 8
PARTS
 66
1
 10
0.0
 20
0.0
 30
0.0
 0
VERTEX
 8
PARTS
 10
  1.9100
 20
  1.4300
 30
0.0
 0
VERTEX
 8
PARTS
 10
  2.0900
 20
  1.4300
 30
0.0
 0
SEQEND
 8
PARTS
 0
POLYLINE
 8
PARTS
 66
1
 10
0.0
 20
0.0
 30
0.0
 0
VERTEX
 8
PARTS
 10
  1.9100
 20
  1.4800
 30
0.0
 0
VERTEX
 8
PARTS
 10
  2.0900
 20
  1.4800
 30
0.0
 0
SEQEND
 8
PARTS
 0
POLYLINE
 8
PARTS
 66
1
 10
0.0
 20
0.0
 30
0.0
 0
VERTEX
 8
PARTS
 10
  2.0000
 20
  1.4000
 30
0.0
 0
VERTEX
 8
PARTS
 10
  2.0000
 20
  1.4300
 30
0.0
 0
SEQEND
 8
PARTS
 0
TEXT
 8
PARTTEXT
 10
  7.0900
 20
  4.2186
 30
0.0
 40
  0.0514
 1
C52
 0
TEXT
 8
PARTTEXT
 10
  7.0900
 20
  4.1286
 30
0.0
 40
  0.0514
 1
10uF
 0
LINE
 8
PARTS
 10
  6.9000
 20
  4.4000
 30
0.0
 11
  6.9000
 21
  4.3000
 31
0.0
 0
LINE
 8
PARTS
 10
  6.9000
 20
  4.1000
 30
0.0
 11
  6.9000
 21
  4.2000
 31
0.0
 0
POLYLINE
 8
PARTS
 66
1
 10
0.0
 20
0.0
 30
0.0
 0
VERTEX
 8
PARTS
 10
  6.9000
 20
  4.3000
 30
0.0
 0
VERTEX
 8
PARTS
 10
  6.9000
 20
  4.2800
 30
0.0
 0
SEQEND
 8
PARTS
 0
POLYLINE
 8
PARTS
 66
1
 10
0.0
 20
0.0
 30
0.0
 0
VERTEX
 8
PARTS
 10
  6.8100
 20
  4.2300
 30
0.0
 0
VERTEX
 8
PARTS
 10
  6.9900
 20
  4.2300
 30
0.0
 0
SEQEND
 8
PARTS
 0
POLYLINE
 8
PARTS
 66
1
 10
0.0
 20
0.0
 30
0.0
 0
VERTEX
 8
PARTS
 10
  6.8100
 20
  4.2800
 30
0.0
 0
VERTEX
 8
PARTS
 10
  6.9900
 20
  4.2800
 30
0.0
 0
SEQEND
 8
PARTS
 0
POLYLINE
 8
PARTS
 66
1
 10
0.0
 20
0.0
 30
0.0
 0
VERTEX
 8
PARTS
 10
  6.9000
 20
  4.2000
 30
0.0
 0
VERTEX
 8
PARTS
 10
  6.9000
 20
  4.2300
 30
0.0
 0
SEQEND
 8
PARTS
 0
TEXT
 8
PARTTEXT
 10
  4.2900
 20
  1.4186
 30
0.0
 40
  0.0514
 1
C48
 0
TEXT
 8
PARTTEXT
 10
  4.2900
 20
  1.3286
 30
0.0
 40
  0.0514
 1
0.1uF
 0
LINE
 8
PARTS
 10
  4.1000
 20
  1.6000
 30
0.0
 11
  4.1000
 21
  1.5000
 31
0.0
 0
LINE
 8
PARTS
 10
  4.1000
 20
  1.3000
 30
0.0
 11
  4.1000
 21
  1.4000
 31
0.0
 0
POLYLINE
 8
PARTS
 66
1
 10
0.0
 20
0.0
 30
0.0
 0
VERTEX
 8
PARTS
 10
  4.1000
 20
  1.5000
 30
0.0
 0
VERTEX
 8
PARTS
 10
  4.1000
 20
  1.4800
 30
0.0
 0
SEQEND
 8
PARTS
 0
POLYLINE
 8
PARTS
 66
1
 10
0.0
 20
0.0
 30
0.0
 0
VERTEX
 8
PARTS
 10
  4.0100
 20
  1.4300
 30
0.0
 0
VERTEX
 8
PARTS
 10
  4.1900
 20
  1.4300
 30
0.0
 0
SEQEND
 8
PARTS
 0
POLYLINE
 8
PARTS
 66
1
 10
0.0
 20
0.0
 30
0.0
 0
VERTEX
 8
PARTS
 10
  4.0100
 20
  1.4800
 30
0.0
 0
VERTEX
 8
PARTS
 10
  4.1900
 20
  1.4800
 30
0.0
 0
SEQEND
 8
PARTS
 0
POLYLINE
 8
PARTS
 66
1
 10
0.0
 20
0.0
 30
0.0
 0
VERTEX
 8
PARTS
 10
  4.1000
 20
  1.4000
 30
0.0
 0
VERTEX
 8
PARTS
 10
  4.1000
 20
  1.4300
 30
0.0
 0
SEQEND
 8
PARTS
 0
TEXT
 8
PARTTEXT
 10
  1.6900
 20
  1.4186
 30
0.0
 40
  0.0514
 1
C43
 0
TEXT
 8
PARTTEXT
 10
  1.6900
 20
  1.3286
 30
0.0
 40
  0.0514
 1
0.1uF
 0
LINE
 8
PARTS
 10
  1.5000
 20
  1.6000
 30
0.0
 11
  1.5000
 21
  1.5000
 31
0.0
 0
LINE
 8
PARTS
 10
  1.5000
 20
  1.3000
 30
0.0
 11
  1.5000
 21
  1.4000
 31
0.0
 0
POLYLINE
 8
PARTS
 66
1
 10
0.0
 20
0.0
 30
0.0
 0
VERTEX
 8
PARTS
 10
  1.5000
 20
  1.5000
 30
0.0
 0
VERTEX
 8
PARTS
 10
  1.5000
 20
  1.4800
 30
0.0
 0
SEQEND
 8
PARTS
 0
POLYLINE
 8
PARTS
 66
1
 10
0.0
 20
0.0
 30
0.0
 0
VERTEX
 8
PARTS
 10
  1.4100
 20
  1.4300
 30
0.0
 0
VERTEX
 8
PARTS
 10
  1.5900
 20
  1.4300
 30
0.0
 0
SEQEND
 8
PARTS
 0
POLYLINE
 8
PARTS
 66
1
 10
0.0
 20
0.0
 30
0.0
 0
VERTEX
 8
PARTS
 10
  1.4100
 20
  1.4800
 30
0.0
 0
VERTEX
 8
PARTS
 10
  1.5900
 20
  1.4800
 30
0.0
 0
SEQEND
 8
PARTS
 0
POLYLINE
 8
PARTS
 66
1
 10
0.0
 20
0.0
 30
0.0
 0
VERTEX
 8
PARTS
 10
  1.5000
 20
  1.4000
 30
0.0
 0
VERTEX
 8
PARTS
 10
  1.5000
 20
  1.4300
 30
0.0
 0
SEQEND
 8
PARTS
 0
TEXT
 8
PARTTEXT
 10
  3.6900
 20
  1.4186
 30
0.0
 40
  0.0514
 1
C47
 0
TEXT
 8
PARTTEXT
 10
  3.6900
 20
  1.3286
 30
0.0
 40
  0.0514
 1
0.1uF
 0
LINE
 8
PARTS
 10
  3.5000
 20
  1.6000
 30
0.0
 11
  3.5000
 21
  1.5000
 31
0.0
 0
LINE
 8
PARTS
 10
  3.5000
 20
  1.3000
 30
0.0
 11
  3.5000
 21
  1.4000
 31
0.0
 0
POLYLINE
 8
PARTS
 66
1
 10
0.0
 20
0.0
 30
0.0
 0
VERTEX
 8
PARTS
 10
  3.5000
 20
  1.5000
 30
0.0
 0
VERTEX
 8
PARTS
 10
  3.5000
 20
  1.4800
 30
0.0
 0
SEQEND
 8
PARTS
 0
POLYLINE
 8
PARTS
 66
1
 10
0.0
 20
0.0
 30
0.0
 0
VERTEX
 8
PARTS
 10
  3.4100
 20
  1.4300
 30
0.0
 0
VERTEX
 8
PARTS
 10
  3.5900
 20
  1.4300
 30
0.0
 0
SEQEND
 8
PARTS
 0
POLYLINE
 8
PARTS
 66
1
 10
0.0
 20
0.0
 30
0.0
 0
VERTEX
 8
PARTS
 10
  3.4100
 20
  1.4800
 30
0.0
 0
VERTEX
 8
PARTS
 10
  3.5900
 20
  1.4800
 30
0.0
 0
SEQEND
 8
PARTS
 0
POLYLINE
 8
PARTS
 66
1
 10
0.0
 20
0.0
 30
0.0
 0
VERTEX
 8
PARTS
 10
  3.5000
 20
  1.4000
 30
0.0
 0
VERTEX
 8
PARTS
 10
  3.5000
 20
  1.4300
 30
0.0
 0
SEQEND
 8
PARTS
 0
TEXT
 8
PARTTEXT
 10
  8.6600
 20
  4.3186
 30
0.0
 40
  0.0514
 1
D1
 0
TEXT
 8
PARTTEXT
 10
  8.6600
 20
  4.1986
 30
0.0
 40
  0.0514
 1
LED
 0
LINE
 8
PARTS
 10
  8.5000
 20
  4.5000
 30
0.0
 11
  8.5000
 21
  4.4000
 31
0.0
 0
LINE
 8
PARTS
 10
  8.5000
 20
  3.9000
 30
0.0
 11
  8.5000
 21
  4.0000
 31
0.0
 0
POLYLINE
 8
PARTS
 66
1
 10
0.0
 20
0.0
 30
0.0
 0
VERTEX
 8
PARTS
 10
  8.5700
 20
  4.2000
 30
0.0
 0
VERTEX
 8
PARTS
 10
  8.4300
 20
  4.2000
 30
0.0
 0
SEQEND
 8
PARTS
 0
POLYLINE
 8
PARTS
 66
1
 10
0.0
 20
0.0
 30
0.0
 0
VERTEX
 8
PARTS
 10
  8.5000
 20
  4.4000
 30
0.0
 0
VERTEX
 8
PARTS
 10
  8.5000
 20
  4.3000
 30
0.0
 0
SEQEND
 8
PARTS
 0
POLYLINE
 8
PARTS
 66
1
 10
0.0
 20
0.0
 30
0.0
 0
VERTEX
 8
PARTS
 10
  8.5000
 20
  4.2000
 30
0.0
 0
VERTEX
 8
PARTS
 10
  8.5000
 20
  4.0000
 30
0.0
 0
SEQEND
 8
PARTS
 0
POLYLINE
 8
PARTS
 66
1
 70
1
 10
0.0
 20
0.0
 30
0.0
 0
VERTEX
 8
PARTS
 10
  8.5000
 20
  4.2000
 30
0.0
 0
VERTEX
 8
PARTS
 10
  8.5000
 20
  4.2000
 30
0.0
 0
VERTEX
 8
PARTS
 10
  8.4300
 20
  4.3000
 30
0.0
 0
VERTEX
 8
PARTS
 10
  8.5700
 20
  4.3000
 30
0.0
 0
VERTEX
 8
PARTS
 10
  8.5000
 20
  4.2000
 30
0.0
 0
SEQEND
 8
PARTS
 0
POLYLINE
 8
PARTS
 66
1
 70
1
 10
0.0
 20
0.0
 30
0.0
 0
VERTEX
 8
PARTS
 10
  8.5800
 20
  4.0800
 30
0.0
 0
VERTEX
 8
PARTS
 10
  8.5800
 20
  4.0800
 30
0.0
 0
VERTEX
 8
PARTS
 10
  8.6000
 20
  4.0400
 30
0.0
 0
VERTEX
 8
PARTS
 10
  8.5600
 20
  4.0600
 30
0.0
 0
VERTEX
 8
PARTS
 10
  8.5800
 20
  4.0800
 30
0.0
 0
SEQEND
 8
PARTS
 0
POLYLINE
 8
PARTS
 66
1
 70
1
 10
0.0
 20
0.0
 30
0.0
 0
VERTEX
 8
PARTS
 10
  8.5800
 20
  4.1400
 30
0.0
 0
VERTEX
 8
PARTS
 10
  8.5800
 20
  4.1400
 30
0.0
 0
VERTEX
 8
PARTS
 10
  8.6000
 20
  4.1000
 30
0.0
 0
VERTEX
 8
PARTS
 10
  8.5600
 20
  4.1200
 30
0.0
 0
VERTEX
 8
PARTS
 10
  8.5800
 20
  4.1400
 30
0.0
 0
SEQEND
 8
PARTS
 0
POLYLINE
 8
PARTS
 66
1
 10
0.0
 20
0.0
 30
0.0
 0
VERTEX
 8
PARTS
 10
  8.5900
 20
  4.1100
 30
0.0
 0
VERTEX
 8
PARTS
 10
  8.5300
 20
  4.1700
 30
0.0
 0
SEQEND
 8
PARTS
 0
POLYLINE
 8
PARTS
 66
1
 10
0.0
 20
0.0
 30
0.0
 0
VERTEX
 8
PARTS
 10
  8.5900
 20
  4.0500
 30
0.0
 0
VERTEX
 8
PARTS
 10
  8.5300
 20
  4.1100
 30
0.0
 0
SEQEND
 8
PARTS
 0
TEXT
 8
PARTTEXT
 10
  8.3000
 20
  5.7586
 30
0.0
 40
  0.0514
 1
J25
 0
TEXT
 8
PARTTEXT
 10
  8.3000
 20
  5.6386
 30
0.0
 40
  0.0514
 1
HEADER 1
 0
LINE
 8
PARTS
 10
  8.5000
 20
  5.1000
 30
0.0
 11
  8.5000
 21
  5.4000
 31
0.0
 0
TEXT
 8
PARTS
 10
  8.4700
 20
  5.2800
 30
0.0
 40
  0.0500
 50
 90.0000
 1
1
 0
POLYLINE
 8
PARTS
 66
1
 70
1
 10
0.0
 20
0.0
 30
0.0
 0
VERTEX
 8
PARTS
 10
  8.6000
 20
  5.6000
 30
0.0
 0
VERTEX
 8
PARTS
 10
  8.6000
 20
  5.4000
 30
0.0
 0
VERTEX
 8
PARTS
 10
  8.4000
 20
  5.4000
 30
0.0
 0
VERTEX
 8
PARTS
 10
  8.4000
 20
  5.6000
 30
0.0
 0
SEQEND
 8
PARTS
 0
POLYLINE
 8
PARTS
 66
1
 10
0.0
 20
0.0
 30
0.0
 0
VERTEX
 8
PARTS
 10
  8.6000
 20
  5.4500
 30
0.0
 0
VERTEX
 8
PARTS
 10
  8.6000
 20
  5.4500
 30
0.0
 0
VERTEX
 8
PARTS
 10
  8.6300
 20
  5.4500
 30
0.0
 0
VERTEX
 8
PARTS
 10
  8.6300
 20
  5.5400
 30
0.0
 0
VERTEX
 8
PARTS
 10
  8.6000
 20
  5.5400
 30
0.0
 0
SEQEND
 8
PARTS
 0
POLYLINE
 8
PARTS
 66
1
 10
0.0
 20
0.0
 30
0.0
 0
VERTEX
 8
PARTS
 10
  8.4000
 20
  5.5400
 30
0.0
 0
VERTEX
 8
PARTS
 10
  8.4000
 20
  5.5400
 30
0.0
 0
VERTEX
 8
PARTS
 10
  8.3700
 20
  5.5400
 30
0.0
 0
VERTEX
 8
PARTS
 10
  8.3700
 20
  5.4500
 30
0.0
 0
VERTEX
 8
PARTS
 10
  8.4000
 20
  5.4500
 30
0.0
 0
SEQEND
 8
PARTS
 0
TEXT
 8
PARTTEXT
 10
  5.7900
 20
  1.4186
 30
0.0
 40
  0.0514
 1
C51
 0
TEXT
 8
PARTTEXT
 10
  5.7900
 20
  1.3286
 30
0.0
 40
  0.0514
 1
0.1uF
 0
LINE
 8
PARTS
 10
  5.6000
 20
  1.6000
 30
0.0
 11
  5.6000
 21
  1.5000
 31
0.0
 0
LINE
 8
PARTS
 10
  5.6000
 20
  1.3000
 30
0.0
 11
  5.6000
 21
  1.4000
 31
0.0
 0
POLYLINE
 8
PARTS
 66
1
 10
0.0
 20
0.0
 30
0.0
 0
VERTEX
 8
PARTS
 10
  5.6000
 20
  1.5000
 30
0.0
 0
VERTEX
 8
PARTS
 10
  5.6000
 20
  1.4800
 30
0.0
 0
SEQEND
 8
PARTS
 0
POLYLINE
 8
PARTS
 66
1
 10
0.0
 20
0.0
 30
0.0
 0
VERTEX
 8
PARTS
 10
  5.5100
 20
  1.4300
 30
0.0
 0
VERTEX
 8
PARTS
 10
  5.6900
 20
  1.4300
 30
0.0
 0
SEQEND
 8
PARTS
 0
POLYLINE
 8
PARTS
 66
1
 10
0.0
 20
0.0
 30
0.0
 0
VERTEX
 8
PARTS
 10
  5.5100
 20
  1.4800
 30
0.0
 0
VERTEX
 8
PARTS
 10
  5.6900
 20
  1.4800
 30
0.0
 0
SEQEND
 8
PARTS
 0
POLYLINE
 8
PARTS
 66
1
 10
0.0
 20
0.0
 30
0.0
 0
VERTEX
 8
PARTS
 10
  5.6000
 20
  1.4000
 30
0.0
 0
VERTEX
 8
PARTS
 10
  5.6000
 20
  1.4300
 30
0.0
 0
SEQEND
 8
PARTS
 0
TEXT
 8
PARTTEXT
 10
  3.1900
 20
  1.4186
 30
0.0
 40
  0.0514
 1
C46
 0
TEXT
 8
PARTTEXT
 10
  3.1900
 20
  1.3286
 30
0.0
 40
  0.0514
 1
0.1uF
 0
LINE
 8
PARTS
 10
  3.0000
 20
  1.6000
 30
0.0
 11
  3.0000
 21
  1.5000
 31
0.0
 0
LINE
 8
PARTS
 10
  3.0000
 20
  1.3000
 30
0.0
 11
  3.0000
 21
  1.4000
 31
0.0
 0
POLYLINE
 8
PARTS
 66
1
 10
0.0
 20
0.0
 30
0.0
 0
VERTEX
 8
PARTS
 10
  3.0000
 20
  1.5000
 30
0.0
 0
VERTEX
 8
PARTS
 10
  3.0000
 20
  1.4800
 30
0.0
 0
SEQEND
 8
PARTS
 0
POLYLINE
 8
PARTS
 66
1
 10
0.0
 20
0.0
 30
0.0
 0
VERTEX
 8
PARTS
 10
  2.9100
 20
  1.4300
 30
0.0
 0
VERTEX
 8
PARTS
 10
  3.0900
 20
  1.4300
 30
0.0
 0
SEQEND
 8
PARTS
 0
POLYLINE
 8
PARTS
 66
1
 10
0.0
 20
0.0
 30
0.0
 0
VERTEX
 8
PARTS
 10
  2.9100
 20
  1.4800
 30
0.0
 0
VERTEX
 8
PARTS
 10
  3.0900
 20
  1.4800
 30
0.0
 0
SEQEND
 8
PARTS
 0
POLYLINE
 8
PARTS
 66
1
 10
0.0
 20
0.0
 30
0.0
 0
VERTEX
 8
PARTS
 10
  3.0000
 20
  1.4000
 30
0.0
 0
VERTEX
 8
PARTS
 10
  3.0000
 20
  1.4300
 30
0.0
 0
SEQEND
 8
PARTS
 0
TEXT
 8
PARTTEXT
 10
  8.6000
 20
  3.6186
 30
0.0
 40
  0.0514
 1
R50
 0
TEXT
 8
PARTTEXT
 10
  8.6000
 20
  3.5186
 30
0.0
 40
  0.0514
 1
680
 0
LINE
 8
PARTS
 10
  8.5000
 20
  3.8000
 30
0.0
 11
  8.5000
 21
  3.7000
 31
0.0
 0
LINE
 8
PARTS
 10
  8.5000
 20
  3.3000
 30
0.0
 11
  8.5000
 21
  3.4000
 31
0.0
 0
POLYLINE
 8
PARTS
 66
1
 10
0.0
 20
0.0
 30
0.0
 0
VERTEX
 8
PARTS
 10
  8.5000
 20
  3.7000
 30
0.0
 0
VERTEX
 8
PARTS
 10
  8.5300
 20
  3.6700
 30
0.0
 0
SEQEND
 8
PARTS
 0
POLYLINE
 8
PARTS
 66
1
 10
0.0
 20
0.0
 30
0.0
 0
VERTEX
 8
PARTS
 10
  8.5300
 20
  3.6700
 30
0.0
 0
VERTEX
 8
PARTS
 10
  8.4700
 20
  3.6100
 30
0.0
 0
SEQEND
 8
PARTS
 0
POLYLINE
 8
PARTS
 66
1
 10
0.0
 20
0.0
 30
0.0
 0
VERTEX
 8
PARTS
 10
  8.4700
 20
  3.6100
 30
0.0
 0
VERTEX
 8
PARTS
 10
  8.5300
 20
  3.5500
 30
0.0
 0
SEQEND
 8
PARTS
 0
POLYLINE
 8
PARTS
 66
1
 10
0.0
 20
0.0
 30
0.0
 0
VERTEX
 8
PARTS
 10
  8.5300
 20
  3.5500
 30
0.0
 0
VERTEX
 8
PARTS
 10
  8.4700
 20
  3.4900
 30
0.0
 0
SEQEND
 8
PARTS
 0
POLYLINE
 8
PARTS
 66
1
 10
0.0
 20
0.0
 30
0.0
 0
VERTEX
 8
PARTS
 10
  8.4700
 20
  3.4900
 30
0.0
 0
VERTEX
 8
PARTS
 10
  8.5300
 20
  3.4300
 30
0.0
 0
SEQEND
 8
PARTS
 0
POLYLINE
 8
PARTS
 66
1
 10
0.0
 20
0.0
 30
0.0
 0
VERTEX
 8
PARTS
 10
  8.5300
 20
  3.4300
 30
0.0
 0
VERTEX
 8
PARTS
 10
  8.5000
 20
  3.4000
 30
0.0
 0
SEQEND
 8
PARTS
 0
TEXT
 8
PARTTEXT
 10
  5.9000
 20
  4.8186
 30
0.0
 40
  0.0514
 1
J23
 0
TEXT
 8
PARTTEXT
 10
  5.9000
 20
  4.0186
 30
0.0
 40
  0.0514
 1
HEADER 2
 0
LINE
 8
PARTS
 10
  6.5000
 20
  4.5000
 30
0.0
 11
  6.2000
 21
  4.5000
 31
0.0
 0
TEXT
 8
PARTS
 10
  6.2600
 20
  4.5300
 30
0.0
 40
  0.0500
 1
1
 0
LINE
 8
PARTS
 10
  6.5000
 20
  4.4000
 30
0.0
 11
  6.2000
 21
  4.4000
 31
0.0
 0
TEXT
 8
PARTS
 10
  6.2600
 20
  4.4300
 30
0.0
 40
  0.0500
 1
2
 0
POLYLINE
 8
PARTS
 66
1
 70
1
 10
0.0
 20
0.0
 30
0.0
 0
VERTEX
 8
PARTS
 10
  5.9000
 20
  4.6000
 30
0.0
 0
VERTEX
 8
PARTS
 10
  6.2000
 20
  4.6000
 30
0.0
 0
VERTEX
 8
PARTS
 10
  6.2000
 20
  4.3000
 30
0.0
 0
VERTEX
 8
PARTS
 10
  5.9000
 20
  4.3000
 30
0.0
 0
SEQEND
 8
PARTS
 0
POLYLINE
 8
PARTS
 66
1
 10
0.0
 20
0.0
 30
0.0
 0
VERTEX
 8
PARTS
 10
  6.1000
 20
  4.6000
 30
0.0
 0
VERTEX
 8
PARTS
 10
  6.1000
 20
  4.6000
 30
0.0
 0
VERTEX
 8
PARTS
 10
  6.1000
 20
  4.6300
 30
0.0
 0
VERTEX
 8
PARTS
 10
  6.0100
 20
  4.6300
 30
0.0
 0
VERTEX
 8
PARTS
 10
  6.0100
 20
  4.6000
 30
0.0
 0
SEQEND
 8
PARTS
 0
POLYLINE
 8
PARTS
 66
1
 10
0.0
 20
0.0
 30
0.0
 0
VERTEX
 8
PARTS
 10
  6.0100
 20
  4.3000
 30
0.0
 0
VERTEX
 8
PARTS
 10
  6.0100
 20
  4.3000
 30
0.0
 0
VERTEX
 8
PARTS
 10
  6.0100
 20
  4.2700
 30
0.0
 0
VERTEX
 8
PARTS
 10
  6.1000
 20
  4.2700
 30
0.0
 0
VERTEX
 8
PARTS
 10
  6.1000
 20
  4.3000
 30
0.0
 0
SEQEND
 8
PARTS
 0
TEXT
 8
PARTTEXT
 10
  5.2900
 20
  1.4186
 30
0.0
 40
  0.0514
 1
C50
 0
TEXT
 8
PARTTEXT
 10
  5.2900
 20
  1.3286
 30
0.0
 40
  0.0514
 1
0.1uF
 0
LINE
 8
PARTS
 10
  5.1000
 20
  1.6000
 30
0.0
 11
  5.1000
 21
  1.5000
 31
0.0
 0
LINE
 8
PARTS
 10
  5.1000
 20
  1.3000
 30
0.0
 11
  5.1000
 21
  1.4000
 31
0.0
 0
POLYLINE
 8
PARTS
 66
1
 10
0.0
 20
0.0
 30
0.0
 0
VERTEX
 8
PARTS
 10
  5.1000
 20
  1.5000
 30
0.0
 0
VERTEX
 8
PARTS
 10
  5.1000
 20
  1.4800
 30
0.0
 0
SEQEND
 8
PARTS
 0
POLYLINE
 8
PARTS
 66
1
 10
0.0
 20
0.0
 30
0.0
 0
VERTEX
 8
PARTS
 10
  5.0100
 20
  1.4300
 30
0.0
 0
VERTEX
 8
PARTS
 10
  5.1900
 20
  1.4300
 30
0.0
 0
SEQEND
 8
PARTS
 0
POLYLINE
 8
PARTS
 66
1
 10
0.0
 20
0.0
 30
0.0
 0
VERTEX
 8
PARTS
 10
  5.0100
 20
  1.4800
 30
0.0
 0
VERTEX
 8
PARTS
 10
  5.1900
 20
  1.4800
 30
0.0
 0
SEQEND
 8
PARTS
 0
POLYLINE
 8
PARTS
 66
1
 10
0.0
 20
0.0
 30
0.0
 0
VERTEX
 8
PARTS
 10
  5.1000
 20
  1.4000
 30
0.0
 0
VERTEX
 8
PARTS
 10
  5.1000
 20
  1.4300
 30
0.0
 0
SEQEND
 8
PARTS
 0
TEXT
 8
PARTTEXT
 10
  4.8500
 20
  6.4186
 30
0.0
 40
  0.0514
 1
J22
 0
TEXT
 8
PARTTEXT
 10
  4.4800
 20
  2.6186
 30
0.0
 40
  0.0514
 1
HEADER 32
 0
LINE
 8
PARTS
 10
  4.4000
 20
  6.1000
 30
0.0
 11
  4.7000
 21
  6.1000
 31
0.0
 0
TEXT
 8
PARTS
 10
  4.6000
 20
  6.1300
 30
0.0
 40
  0.0500
 1
1
 0
LINE
 8
PARTS
 10
  4.4000
 20
  6.0000
 30
0.0
 11
  4.7000
 21
  6.0000
 31
0.0
 0
TEXT
 8
PARTS
 10
  4.6000
 20
  6.0300
 30
0.0
 40
  0.0500
 1
2
 0
LINE
 8
PARTS
 10
  4.4000
 20
  5.9000
 30
0.0
 11
  4.7000
 21
  5.9000
 31
0.0
 0
TEXT
 8
PARTS
 10
  4.6000
 20
  5.9300
 30
0.0
 40
  0.0500
 1
3
 0
LINE
 8
PARTS
 10
  4.4000
 20
  5.8000
 30
0.0
 11
  4.7000
 21
  5.8000
 31
0.0
 0
TEXT
 8
PARTS
 10
  4.6000
 20
  5.8300
 30
0.0
 40
  0.0500
 1
4
 0
LINE
 8
PARTS
 10
  4.4000
 20
  5.7000
 30
0.0
 11
  4.7000
 21
  5.7000
 31
0.0
 0
TEXT
 8
PARTS
 10
  4.6000
 20
  5.7300
 30
0.0
 40
  0.0500
 1
5
 0
LINE
 8
PARTS
 10
  4.4000
 20
  5.6000
 30
0.0
 11
  4.7000
 21
  5.6000
 31
0.0
 0
TEXT
 8
PARTS
 10
  4.6000
 20
  5.6300
 30
0.0
 40
  0.0500
 1
6
 0
LINE
 8
PARTS
 10
  4.4000
 20
  5.5000
 30
0.0
 11
  4.7000
 21
  5.5000
 31
0.0
 0
TEXT
 8
PARTS
 10
  4.6000
 20
  5.5300
 30
0.0
 40
  0.0500
 1
7
 0
LINE
 8
PARTS
 10
  4.4000
 20
  5.4000
 30
0.0
 11
  4.7000
 21
  5.4000
 31
0.0
 0
TEXT
 8
PARTS
 10
  4.6000
 20
  5.4300
 30
0.0
 40
  0.0500
 1
8
 0
LINE
 8
PARTS
 10
  4.4000
 20
  5.3000
 30
0.0
 11
  4.7000
 21
  5.3000
 31
0.0
 0
TEXT
 8
PARTS
 10
  4.6000
 20
  5.3300
 30
0.0
 40
  0.0500
 1
9
 0
LINE
 8
PARTS
 10
  4.4000
 20
  5.2000
 30
0.0
 11
  4.7000
 21
  5.2000
 31
0.0
 0
TEXT
 8
PARTS
 10
  4.5600
 20
  5.2300
 30
0.0
 40
  0.0500
 1
10
 0
LINE
 8
PARTS
 10
  4.4000
 20
  5.1000
 30
0.0
 11
  4.7000
 21
  5.1000
 31
0.0
 0
TEXT
 8
PARTS
 10
  4.5600
 20
  5.1300
 30
0.0
 40
  0.0500
 1
11
 0
LINE
 8
PARTS
 10
  4.4000
 20
  5.0000
 30
0.0
 11
  4.7000
 21
  5.0000
 31
0.0
 0
TEXT
 8
PARTS
 10
  4.5600
 20
  5.0300
 30
0.0
 40
  0.0500
 1
12
 0
LINE
 8
PARTS
 10
  4.4000
 20
  4.9000
 30
0.0
 11
  4.7000
 21
  4.9000
 31
0.0
 0
TEXT
 8
PARTS
 10
  4.5600
 20
  4.9300
 30
0.0
 40
  0.0500
 1
13
 0
LINE
 8
PARTS
 10
  4.4000
 20
  4.8000
 30
0.0
 11
  4.7000
 21
  4.8000
 31
0.0
 0
TEXT
 8
PARTS
 10
  4.5600
 20
  4.8300
 30
0.0
 40
  0.0500
 1
14
 0
LINE
 8
PARTS
 10
  4.4000
 20
  4.7000
 30
0.0
 11
  4.7000
 21
  4.7000
 31
0.0
 0
TEXT
 8
PARTS
 10
  4.5600
 20
  4.7300
 30
0.0
 40
  0.0500
 1
15
 0
LINE
 8
PARTS
 10
  4.4000
 20
  4.6000
 30
0.0
 11
  4.7000
 21
  4.6000
 31
0.0
 0
TEXT
 8
PARTS
 10
  4.5600
 20
  4.6300
 30
0.0
 40
  0.0500
 1
16
 0
LINE
 8
PARTS
 10
  4.4000
 20
  4.5000
 30
0.0
 11
  4.7000
 21
  4.5000
 31
0.0
 0
TEXT
 8
PARTS
 10
  4.5600
 20
  4.5300
 30
0.0
 40
  0.0500
 1
17
 0
LINE
 8
PARTS
 10
  4.4000
 20
  4.4000
 30
0.0
 11
  4.7000
 21
  4.4000
 31
0.0
 0
TEXT
 8
PARTS
 10
  4.5600
 20
  4.4300
 30
0.0
 40
  0.0500
 1
18
 0
LINE
 8
PARTS
 10
  4.4000
 20
  4.3000
 30
0.0
 11
  4.7000
 21
  4.3000
 31
0.0
 0
TEXT
 8
PARTS
 10
  4.5600
 20
  4.3300
 30
0.0
 40
  0.0500
 1
19
 0
LINE
 8
PARTS
 10
  4.4000
 20
  4.2000
 30
0.0
 11
  4.7000
 21
  4.2000
 31
0.0
 0
TEXT
 8
PARTS
 10
  4.5600
 20
  4.2300
 30
0.0
 40
  0.0500
 1
20
 0
LINE
 8
PARTS
 10
  4.4000
 20
  4.1000
 30
0.0
 11
  4.7000
 21
  4.1000
 31
0.0
 0
TEXT
 8
PARTS
 10
  4.5600
 20
  4.1300
 30
0.0
 40
  0.0500
 1
21
 0
LINE
 8
PARTS
 10
  4.4000
 20
  4.0000
 30
0.0
 11
  4.7000
 21
  4.0000
 31
0.0
 0
TEXT
 8
PARTS
 10
  4.5600
 20
  4.0300
 30
0.0
 40
  0.0500
 1
22
 0
LINE
 8
PARTS
 10
  4.4000
 20
  3.9000
 30
0.0
 11
  4.7000
 21
  3.9000
 31
0.0
 0
TEXT
 8
PARTS
 10
  4.5600
 20
  3.9300
 30
0.0
 40
  0.0500
 1
23
 0
LINE
 8
PARTS
 10
  4.4000
 20
  3.8000
 30
0.0
 11
  4.7000
 21
  3.8000
 31
0.0
 0
TEXT
 8
PARTS
 10
  4.5600
 20
  3.8300
 30
0.0
 40
  0.0500
 1
24
 0
LINE
 8
PARTS
 10
  4.4000
 20
  3.7000
 30
0.0
 11
  4.7000
 21
  3.7000
 31
0.0
 0
TEXT
 8
PARTS
 10
  4.5600
 20
  3.7300
 30
0.0
 40
  0.0500
 1
25
 0
LINE
 8
PARTS
 10
  4.4000
 20
  3.6000
 30
0.0
 11
  4.7000
 21
  3.6000
 31
0.0
 0
TEXT
 8
PARTS
 10
  4.5600
 20
  3.6300
 30
0.0
 40
  0.0500
 1
26
 0
LINE
 8
PARTS
 10
  4.4000
 20
  3.5000
 30
0.0
 11
  4.7000
 21
  3.5000
 31
0.0
 0
TEXT
 8
PARTS
 10
  4.5600
 20
  3.5300
 30
0.0
 40
  0.0500
 1
27
 0
LINE
 8
PARTS
 10
  4.4000
 20
  3.4000
 30
0.0
 11
  4.7000
 21
  3.4000
 31
0.0
 0
TEXT
 8
PARTS
 10
  4.5600
 20
  3.4300
 30
0.0
 40
  0.0500
 1
28
 0
LINE
 8
PARTS
 10
  4.4000
 20
  3.3000
 30
0.0
 11
  4.7000
 21
  3.3000
 31
0.0
 0
TEXT
 8
PARTS
 10
  4.5600
 20
  3.3300
 30
0.0
 40
  0.0500
 1
29
 0
LINE
 8
PARTS
 10
  4.4000
 20
  3.2000
 30
0.0
 11
  4.7000
 21
  3.2000
 31
0.0
 0
TEXT
 8
PARTS
 10
  4.5600
 20
  3.2300
 30
0.0
 40
  0.0500
 1
30
 0
LINE
 8
PARTS
 10
  4.4000
 20
  3.1000
 30
0.0
 11
  4.7000
 21
  3.1000
 31
0.0
 0
TEXT
 8
PARTS
 10
  4.5600
 20
  3.1300
 30
0.0
 40
  0.0500
 1
31
 0
LINE
 8
PARTS
 10
  4.4000
 20
  3.0000
 30
0.0
 11
  4.7000
 21
  3.0000
 31
0.0
 0
TEXT
 8
PARTS
 10
  4.5600
 20
  3.0300
 30
0.0
 40
  0.0500
 1
32
 0
POLYLINE
 8
PARTS
 66
1
 70
1
 10
0.0
 20
0.0
 30
0.0
 0
VERTEX
 8
PARTS
 10
  5.0000
 20
  6.2000
 30
0.0
 0
VERTEX
 8
PARTS
 10
  4.7000
 20
  6.2000
 30
0.0
 0
VERTEX
 8
PARTS
 10
  4.7000
 20
  2.9000
 30
0.0
 0
VERTEX
 8
PARTS
 10
  5.0000
 20
  2.9000
 30
0.0
 0
SEQEND
 8
PARTS
 0
POLYLINE
 8
PARTS
 66
1
 10
0.0
 20
0.0
 30
0.0
 0
VERTEX
 8
PARTS
 10
  4.8000
 20
  6.2000
 30
0.0
 0
VERTEX
 8
PARTS
 10
  4.7900
 20
  6.2000
 30
0.0
 0
VERTEX
 8
PARTS
 10
  4.7900
 20
  6.2500
 30
0.0
 0
VERTEX
 8
PARTS
 10
  4.9100
 20
  6.2500
 30
0.0
 0
VERTEX
 8
PARTS
 10
  4.9100
 20
  6.2000
 30
0.0
 0
SEQEND
 8
PARTS
 0
POLYLINE
 8
PARTS
 66
1
 10
0.0
 20
0.0
 30
0.0
 0
VERTEX
 8
PARTS
 10
  4.9000
 20
  2.9000
 30
0.0
 0
VERTEX
 8
PARTS
 10
  4.9100
 20
  2.9000
 30
0.0
 0
VERTEX
 8
PARTS
 10
  4.9100
 20
  2.8500
 30
0.0
 0
VERTEX
 8
PARTS
 10
  4.7900
 20
  2.8500
 30
0.0
 0
VERTEX
 8
PARTS
 10
  4.7900
 20
  2.9000
 30
0.0
 0
SEQEND
 8
PARTS
 0
TEXT
 8
PARTTEXT
 10
  2.6900
 20
  1.4186
 30
0.0
 40
  0.0514
 1
C45
 0
TEXT
 8
PARTTEXT
 10
  2.6900
 20
  1.3286
 30
0.0
 40
  0.0514
 1
0.1uF
 0
LINE
 8
PARTS
 10
  2.5000
 20
  1.6000
 30
0.0
 11
  2.5000
 21
  1.5000
 31
0.0
 0
LINE
 8
PARTS
 10
  2.5000
 20
  1.3000
 30
0.0
 11
  2.5000
 21
  1.4000
 31
0.0
 0
POLYLINE
 8
PARTS
 66
1
 10
0.0
 20
0.0
 30
0.0
 0
VERTEX
 8
PARTS
 10
  2.5000
 20
  1.5000
 30
0.0
 0
VERTEX
 8
PARTS
 10
  2.5000
 20
  1.4800
 30
0.0
 0
SEQEND
 8
PARTS
 0
POLYLINE
 8
PARTS
 66
1
 10
0.0
 20
0.0
 30
0.0
 0
VERTEX
 8
PARTS
 10
  2.4100
 20
  1.4300
 30
0.0
 0
VERTEX
 8
PARTS
 10
  2.5900
 20
  1.4300
 30
0.0
 0
SEQEND
 8
PARTS
 0
POLYLINE
 8
PARTS
 66
1
 10
0.0
 20
0.0
 30
0.0
 0
VERTEX
 8
PARTS
 10
  2.4100
 20
  1.4800
 30
0.0
 0
VERTEX
 8
PARTS
 10
  2.5900
 20
  1.4800
 30
0.0
 0
SEQEND
 8
PARTS
 0
POLYLINE
 8
PARTS
 66
1
 10
0.0
 20
0.0
 30
0.0
 0
VERTEX
 8
PARTS
 10
  2.5000
 20
  1.4000
 30
0.0
 0
VERTEX
 8
PARTS
 10
  2.5000
 20
  1.4300
 30
0.0
 0
SEQEND
 8
PARTS
 0
TEXT
 8
PARTTEXT
 10
  7.4000
 20
  3.3586
 30
0.0
 40
  0.0514
 1
J24
 0
TEXT
 8
PARTTEXT
 10
  7.4000
 20
  3.2386
 30
0.0
 40
  0.0514
 1
HEADER 3
 0
LINE
 8
PARTS
 10
  7.6000
 20
  4.1000
 30
0.0
 11
  7.6000
 21
  3.8000
 31
0.0
 0
TEXT
 8
PARTS
 10
  7.5700
 20
  3.8600
 30
0.0
 40
  0.0500
 50
 90.0000
 1
1
 0
LINE
 8
PARTS
 10
  7.7000
 20
  4.1000
 30
0.0
 11
  7.7000
 21
  3.8000
 31
0.0
 0
TEXT
 8
PARTS
 10
  7.6700
 20
  3.8600
 30
0.0
 40
  0.0500
 50
 90.0000
 1
2
 0
LINE
 8
PARTS
 10
  7.8000
 20
  4.1000
 30
0.0
 11
  7.8000
 21
  3.8000
 31
0.0
 0
TEXT
 8
PARTS
 10
  7.7700
 20
  3.8600
 30
0.0
 40
  0.0500
 50
 90.0000
 1
3
 0
POLYLINE
 8
PARTS
 66
1
 70
1
 10
0.0
 20
0.0
 30
0.0
 0
VERTEX
 8
PARTS
 10
  7.5000
 20
  3.5000
 30
0.0
 0
VERTEX
 8
PARTS
 10
  7.5000
 20
  3.8000
 30
0.0
 0
VERTEX
 8
PARTS
 10
  7.9000
 20
  3.8000
 30
0.0
 0
VERTEX
 8
PARTS
 10
  7.9000
 20
  3.5000
 30
0.0
 0
SEQEND
 8
PARTS
 0
POLYLINE
 8
PARTS
 66
1
 10
0.0
 20
0.0
 30
0.0
 0
VERTEX
 8
PARTS
 10
  7.5000
 20
  3.7000
 30
0.0
 0
VERTEX
 8
PARTS
 10
  7.5000
 20
  3.7100
 30
0.0
 0
VERTEX
 8
PARTS
 10
  7.4500
 20
  3.7100
 30
0.0
 0
VERTEX
 8
PARTS
 10
  7.4500
 20
  3.5900
 30
0.0
 0
VERTEX
 8
PARTS
 10
  7.5000
 20
  3.5900
 30
0.0
 0
SEQEND
 8
PARTS
 0
POLYLINE
 8
PARTS
 66
1
 10
0.0
 20
0.0
 30
0.0
 0
VERTEX
 8
PARTS
 10
  7.9000
 20
  3.6000
 30
0.0
 0
VERTEX
 8
PARTS
 10
  7.9000
 20
  3.5900
 30
0.0
 0
VERTEX
 8
PARTS
 10
  7.9500
 20
  3.5900
 30
0.0
 0
VERTEX
 8
PARTS
 10
  7.9500
 20
  3.7100
 30
0.0
 0
VERTEX
 8
PARTS
 10
  7.9000
 20
  3.7100
 30
0.0
 0
SEQEND
 8
PARTS
 0
TEXT
 8
PARTTEXT
 10
  4.7900
 20
  1.4186
 30
0.0
 40
  0.0514
 1
C49
 0
TEXT
 8
PARTTEXT
 10
  4.7900
 20
  1.3286
 30
0.0
 40
  0.0514
 1
0.1uF
 0
LINE
 8
PARTS
 10
  4.6000
 20
  1.6000
 30
0.0
 11
  4.6000
 21
  1.5000
 31
0.0
 0
LINE
 8
PARTS
 10
  4.6000
 20
  1.3000
 30
0.0
 11
  4.6000
 21
  1.4000
 31
0.0
 0
POLYLINE
 8
PARTS
 66
1
 10
0.0
 20
0.0
 30
0.0
 0
VERTEX
 8
PARTS
 10
  4.6000
 20
  1.5000
 30
0.0
 0
VERTEX
 8
PARTS
 10
  4.6000
 20
  1.4800
 30
0.0
 0
SEQEND
 8
PARTS
 0
POLYLINE
 8
PARTS
 66
1
 10
0.0
 20
0.0
 30
0.0
 0
VERTEX
 8
PARTS
 10
  4.5100
 20
  1.4300
 30
0.0
 0
VERTEX
 8
PARTS
 10
  4.6900
 20
  1.4300
 30
0.0
 0
SEQEND
 8
PARTS
 0
POLYLINE
 8
PARTS
 66
1
 10
0.0
 20
0.0
 30
0.0
 0
VERTEX
 8
PARTS
 10
  4.5100
 20
  1.4800
 30
0.0
 0
VERTEX
 8
PARTS
 10
  4.6900
 20
  1.4800
 30
0.0
 0
SEQEND
 8
PARTS
 0
POLYLINE
 8
PARTS
 66
1
 10
0.0
 20
0.0
 30
0.0
 0
VERTEX
 8
PARTS
 10
  4.6000
 20
  1.4000
 30
0.0
 0
VERTEX
 8
PARTS
 10
  4.6000
 20
  1.4300
 30
0.0
 0
SEQEND
 8
PARTS
 0
POLYLINE
 8
WIRE
 66
1
 10
0.0
 20
0.0
 30
0.0
 0
VERTEX
 8
WIRE
 10
  4.4000
 20
  6.1000
 30
0.0
 0
VERTEX
 8
WIRE
 10
  3.6000
 20
  6.1000
 30
0.0
 0
SEQEND
 8
WIRE
 0
TEXT
 8
WIRETEXT
 10
  3.6000
 20
  6.1300
 30
0.0
 40
  0.0514
 1
MOSI_SDA_EXT
 0
POLYLINE
 8
WIRE
 66
1
 10
0.0
 20
0.0
 30
0.0
 0
VERTEX
 8
WIRE
 10
  4.4000
 20
  5.9000
 30
0.0
 0
VERTEX
 8
WIRE
 10
  3.6000
 20
  5.9000
 30
0.0
 0
SEQEND
 8
WIRE
 0
TEXT
 8
WIRETEXT
 10
  3.6000
 20
  5.9300
 30
0.0
 40
  0.0514
 1
SCLK_SCL_EXT
 0
POLYLINE
 8
WIRE
 66
1
 10
0.0
 20
0.0
 30
0.0
 0
VERTEX
 8
WIRE
 10
  4.4000
 20
  5.7000
 30
0.0
 0
VERTEX
 8
WIRE
 10
  3.6000
 20
  5.7000
 30
0.0
 0
SEQEND
 8
WIRE
 0
TEXT
 8
WIRETEXT
 10
  3.6000
 20
  5.7300
 30
0.0
 40
  0.0514
 1
SSB_HSA_EXT
 0
POLYLINE
 8
WIRE
 66
1
 10
0.0
 20
0.0
 30
0.0
 0
VERTEX
 8
WIRE
 10
  4.4000
 20
  5.5000
 30
0.0
 0
VERTEX
 8
WIRE
 10
  3.6000
 20
  5.5000
 30
0.0
 0
SEQEND
 8
WIRE
 0
TEXT
 8
WIRETEXT
 10
  3.6000
 20
  5.5300
 30
0.0
 40
  0.0514
 1
MISO_HSD_EXT
 0
POLYLINE
 8
WIRE
 66
1
 10
0.0
 20
0.0
 30
0.0
 0
VERTEX
 8
WIRE
 10
  4.4000
 20
  5.3000
 30
0.0
 0
VERTEX
 8
WIRE
 10
  3.6000
 20
  5.3000
 30
0.0
 0
SEQEND
 8
WIRE
 0
TEXT
 8
WIRETEXT
 10
  3.6000
 20
  5.3300
 30
0.0
 40
  0.0514
 1
CF3_HFCLK_EXT
 0
POLYLINE
 8
WIRE
 66
1
 10
0.0
 20
0.0
 30
0.0
 0
VERTEX
 8
WIRE
 10
  4.4000
 20
  5.1000
 30
0.0
 0
VERTEX
 8
WIRE
 10
  3.5000
 20
  5.1000
 30
0.0
 0
SEQEND
 8
WIRE
 0
TEXT
 8
WIRETEXT
 10
  3.5000
 20
  5.1300
 30
0.0
 40
  0.0514
 1
CF2_HREADY_EXT
 0
POLYLINE
 8
WIRE
 66
1
 10
0.0
 20
0.0
 30
0.0
 0
VERTEX
 8
WIRE
 10
  4.4000
 20
  4.9000
 30
0.0
 0
VERTEX
 8
WIRE
 10
  3.6000
 20
  4.9000
 30
0.0
 0
SEQEND
 8
WIRE
 0
TEXT
 8
WIRETEXT
 10
  3.6000
 20
  4.9300
 30
0.0
 40
  0.0514
 1
CF1_EXT
 0
POLYLINE
 8
WIRE
 66
1
 10
0.0
 20
0.0
 30
0.0
 0
VERTEX
 8
WIRE
 10
  4.4000
 20
  4.7000
 30
0.0
 0
VERTEX
 8
WIRE
 10
  3.6000
 20
  4.7000
 30
0.0
 0
SEQEND
 8
WIRE
 0
TEXT
 8
WIRETEXT
 10
  3.6000
 20
  4.7300
 30
0.0
 40
  0.0514
 1
IRQ1B_ISO
 0
POLYLINE
 8
WIRE
 66
1
 10
0.0
 20
0.0
 30
0.0
 0
VERTEX
 8
WIRE
 10
  4.4000
 20
  4.5000
 30
0.0
 0
VERTEX
 8
WIRE
 10
  3.6000
 20
  4.5000
 30
0.0
 0
SEQEND
 8
WIRE
 0
TEXT
 8
WIRETEXT
 10
  3.6000
 20
  4.5300
 30
0.0
 40
  0.0514
 1
IRQ0B_ISO
 0
POLYLINE
 8
WIRE
 66
1
 10
0.0
 20
0.0
 30
0.0
 0
VERTEX
 8
WIRE
 10
  4.4000
 20
  4.3000
 30
0.0
 0
VERTEX
 8
WIRE
 10
  3.6000
 20
  4.3000
 30
0.0
 0
SEQEND
 8
WIRE
 0
TEXT
 8
WIRETEXT
 10
  3.6000
 20
  4.3300
 30
0.0
 40
  0.0514
 1
RESB_CTRL
 0
POLYLINE
 8
WIRE
 66
1
 10
0.0
 20
0.0
 30
0.0
 0
VERTEX
 8
WIRE
 10
  4.4000
 20
  4.1000
 30
0.0
 0
VERTEX
 8
WIRE
 10
  3.6000
 20
  4.1000
 30
0.0
 0
SEQEND
 8
WIRE
 0
TEXT
 8
WIRETEXT
 10
  3.6000
 20
  4.1300
 30
0.0
 40
  0.0514
 1
PM1_CTRL
 0
POLYLINE
 8
WIRE
 66
1
 10
0.0
 20
0.0
 30
0.0
 0
VERTEX
 8
WIRE
 10
  4.4000
 20
  3.9000
 30
0.0
 0
VERTEX
 8
WIRE
 10
  3.6000
 20
  3.9000
 30
0.0
 0
SEQEND
 8
WIRE
 0
TEXT
 8
WIRETEXT
 10
  3.6000
 20
  3.9300
 30
0.0
 40
  0.0514
 1
PM0_CTRL
 0
POLYLINE
 8
WIRE
 66
1
 10
0.0
 20
0.0
 30
0.0
 0
VERTEX
 8
WIRE
 10
  4.4000
 20
  3.7000
 30
0.0
 0
VERTEX
 8
WIRE
 10
  3.6000
 20
  3.7000
 30
0.0
 0
SEQEND
 8
WIRE
 0
TEXT
 8
WIRETEXT
 10
  3.6000
 20
  3.7300
 30
0.0
 40
  0.0514
 1
MCU_RST
 0
POLYLINE
 8
WIRE
 66
1
 10
0.0
 20
0.0
 30
0.0
 0
VERTEX
 8
WIRE
 10
  4.4000
 20
  3.5000
 30
0.0
 0
VERTEX
 8
WIRE
 10
  3.5000
 20
  3.5000
 30
0.0
 0
SEQEND
 8
WIRE
 0
TEXT
 8
WIRETEXT
 10
  3.5000
 20
  3.5300
 30
0.0
 40
  0.0514
 1
CF3_HSCLK_DUT
 0
POLYLINE
 8
WIRE
 66
1
 10
0.0
 20
0.0
 30
0.0
 0
VERTEX
 8
WIRE
 10
  4.4000
 20
  6.0000
 30
0.0
 0
VERTEX
 8
WIRE
 10
  3.3000
 20
  6.0000
 30
0.0
 0
SEQEND
 8
WIRE
 0
POLYLINE
 8
WIRE
 66
1
 10
0.0
 20
0.0
 30
0.0
 0
VERTEX
 8
WIRE
 10
  4.4000
 20
  5.8000
 30
0.0
 0
VERTEX
 8
WIRE
 10
  3.3000
 20
  5.8000
 30
0.0
 0
SEQEND
 8
WIRE
 0
POLYLINE
 8
WIRE
 66
1
 70
1
 10
0.0
 20
0.0
 30
0.0
 40
  0.0200
 41
  0.0200
 0
VERTEX
 8
WIRE
 10
  3.2900
 20
  5.8000
 30
0.0
 42
1.0
 0
VERTEX
 8
WIRE
 10
  3.3100
 20
  5.8000
 30
0.0
 42
1.0
 0
SEQEND
 8
WIRE
 0
POLYLINE
 8
WIRE
 66
1
 10
0.0
 20
0.0
 30
0.0
 0
VERTEX
 8
WIRE
 10
  3.3000
 20
  5.8000
 30
0.0
 0
VERTEX
 8
WIRE
 10
  3.3000
 20
  6.0000
 30
0.0
 0
SEQEND
 8
WIRE
 0
POLYLINE
 8
WIRE
 66
1
 10
0.0
 20
0.0
 30
0.0
 0
VERTEX
 8
WIRE
 10
  4.4000
 20
  5.6000
 30
0.0
 0
VERTEX
 8
WIRE
 10
  3.3000
 20
  5.6000
 30
0.0
 0
SEQEND
 8
WIRE
 0
POLYLINE
 8
WIRE
 66
1
 10
0.0
 20
0.0
 30
0.0
 0
VERTEX
 8
WIRE
 10
  3.3000
 20
  5.6000
 30
0.0
 0
VERTEX
 8
WIRE
 10
  3.3000
 20
  5.8000
 30
0.0
 0
SEQEND
 8
WIRE
 0
POLYLINE
 8
WIRE
 66
1
 10
0.0
 20
0.0
 30
0.0
 0
VERTEX
 8
WIRE
 10
  4.4000
 20
  5.4000
 30
0.0
 0
VERTEX
 8
WIRE
 10
  3.3000
 20
  5.4000
 30
0.0
 0
SEQEND
 8
WIRE
 0
POLYLINE
 8
WIRE
 66
1
 10
0.0
 20
0.0
 30
0.0
 0
VERTEX
 8
WIRE
 10
  3.3000
 20
  5.4000
 30
0.0
 0
VERTEX
 8
WIRE
 10
  3.3000
 20
  5.6000
 30
0.0
 0
SEQEND
 8
WIRE
 0
POLYLINE
 8
WIRE
 66
1
 70
1
 10
0.0
 20
0.0
 30
0.0
 40
  0.0200
 41
  0.0200
 0
VERTEX
 8
WIRE
 10
  3.2900
 20
  5.4000
 30
0.0
 42
1.0
 0
VERTEX
 8
WIRE
 10
  3.3100
 20
  5.4000
 30
0.0
 42
1.0
 0
SEQEND
 8
WIRE
 0
POLYLINE
 8
WIRE
 66
1
 70
1
 10
0.0
 20
0.0
 30
0.0
 40
  0.0200
 41
  0.0200
 0
VERTEX
 8
WIRE
 10
  3.2900
 20
  5.6000
 30
0.0
 42
1.0
 0
VERTEX
 8
WIRE
 10
  3.3100
 20
  5.6000
 30
0.0
 42
1.0
 0
SEQEND
 8
WIRE
 0
POLYLINE
 8
WIRE
 66
1
 10
0.0
 20
0.0
 30
0.0
 0
VERTEX
 8
WIRE
 10
  4.4000
 20
  5.2000
 30
0.0
 0
VERTEX
 8
WIRE
 10
  3.3000
 20
  5.2000
 30
0.0
 0
SEQEND
 8
WIRE
 0
POLYLINE
 8
WIRE
 66
1
 70
1
 10
0.0
 20
0.0
 30
0.0
 40
  0.0200
 41
  0.0200
 0
VERTEX
 8
WIRE
 10
  3.2900
 20
  5.2000
 30
0.0
 42
1.0
 0
VERTEX
 8
WIRE
 10
  3.3100
 20
  5.2000
 30
0.0
 42
1.0
 0
SEQEND
 8
WIRE
 0
POLYLINE
 8
WIRE
 66
1
 10
0.0
 20
0.0
 30
0.0
 0
VERTEX
 8
WIRE
 10
  3.3000
 20
  5.2000
 30
0.0
 0
VERTEX
 8
WIRE
 10
  3.3000
 20
  5.4000
 30
0.0
 0
SEQEND
 8
WIRE
 0
POLYLINE
 8
WIRE
 66
1
 10
0.0
 20
0.0
 30
0.0
 0
VERTEX
 8
WIRE
 10
  4.4000
 20
  5.0000
 30
0.0
 0
VERTEX
 8
WIRE
 10
  3.3000
 20
  5.0000
 30
0.0
 0
SEQEND
 8
WIRE
 0
POLYLINE
 8
WIRE
 66
1
 70
1
 10
0.0
 20
0.0
 30
0.0
 40
  0.0200
 41
  0.0200
 0
VERTEX
 8
WIRE
 10
  3.2900
 20
  5.0000
 30
0.0
 42
1.0
 0
VERTEX
 8
WIRE
 10
  3.3100
 20
  5.0000
 30
0.0
 42
1.0
 0
SEQEND
 8
WIRE
 0
POLYLINE
 8
WIRE
 66
1
 10
0.0
 20
0.0
 30
0.0
 0
VERTEX
 8
WIRE
 10
  3.3000
 20
  5.0000
 30
0.0
 0
VERTEX
 8
WIRE
 10
  3.3000
 20
  5.2000
 30
0.0
 0
SEQEND
 8
WIRE
 0
POLYLINE
 8
WIRE
 66
1
 10
0.0
 20
0.0
 30
0.0
 0
VERTEX
 8
WIRE
 10
  4.4000
 20
  4.8000
 30
0.0
 0
VERTEX
 8
WIRE
 10
  3.3000
 20
  4.8000
 30
0.0
 0
SEQEND
 8
WIRE
 0
POLYLINE
 8
WIRE
 66
1
 70
1
 10
0.0
 20
0.0
 30
0.0
 40
  0.0200
 41
  0.0200
 0
VERTEX
 8
WIRE
 10
  3.2900
 20
  4.8000
 30
0.0
 42
1.0
 0
VERTEX
 8
WIRE
 10
  3.3100
 20
  4.8000
 30
0.0
 42
1.0
 0
SEQEND
 8
WIRE
 0
POLYLINE
 8
WIRE
 66
1
 10
0.0
 20
0.0
 30
0.0
 0
VERTEX
 8
WIRE
 10
  3.3000
 20
  4.8000
 30
0.0
 0
VERTEX
 8
WIRE
 10
  3.3000
 20
  5.0000
 30
0.0
 0
SEQEND
 8
WIRE
 0
POLYLINE
 8
WIRE
 66
1
 10
0.0
 20
0.0
 30
0.0
 0
VERTEX
 8
WIRE
 10
  4.4000
 20
  4.6000
 30
0.0
 0
VERTEX
 8
WIRE
 10
  3.3000
 20
  4.6000
 30
0.0
 0
SEQEND
 8
WIRE
 0
POLYLINE
 8
WIRE
 66
1
 70
1
 10
0.0
 20
0.0
 30
0.0
 40
  0.0200
 41
  0.0200
 0
VERTEX
 8
WIRE
 10
  3.2900
 20
  4.6000
 30
0.0
 42
1.0
 0
VERTEX
 8
WIRE
 10
  3.3100
 20
  4.6000
 30
0.0
 42
1.0
 0
SEQEND
 8
WIRE
 0
POLYLINE
 8
WIRE
 66
1
 10
0.0
 20
0.0
 30
0.0
 0
VERTEX
 8
WIRE
 10
  3.3000
 20
  4.6000
 30
0.0
 0
VERTEX
 8
WIRE
 10
  3.3000
 20
  4.8000
 30
0.0
 0
SEQEND
 8
WIRE
 0
POLYLINE
 8
WIRE
 66
1
 10
0.0
 20
0.0
 30
0.0
 0
VERTEX
 8
WIRE
 10
  4.4000
 20
  4.4000
 30
0.0
 0
VERTEX
 8
WIRE
 10
  3.3000
 20
  4.4000
 30
0.0
 0
SEQEND
 8
WIRE
 0
POLYLINE
 8
WIRE
 66
1
 70
1
 10
0.0
 20
0.0
 30
0.0
 40
  0.0200
 41
  0.0200
 0
VERTEX
 8
WIRE
 10
  3.2900
 20
  4.4000
 30
0.0
 42
1.0
 0
VERTEX
 8
WIRE
 10
  3.3100
 20
  4.4000
 30
0.0
 42
1.0
 0
SEQEND
 8
WIRE
 0
POLYLINE
 8
WIRE
 66
1
 10
0.0
 20
0.0
 30
0.0
 0
VERTEX
 8
WIRE
 10
  3.3000
 20
  4.4000
 30
0.0
 0
VERTEX
 8
WIRE
 10
  3.3000
 20
  4.6000
 30
0.0
 0
SEQEND
 8
WIRE
 0
POLYLINE
 8
WIRE
 66
1
 10
0.0
 20
0.0
 30
0.0
 0
VERTEX
 8
WIRE
 10
  4.4000
 20
  4.2000
 30
0.0
 0
VERTEX
 8
WIRE
 10
  3.3000
 20
  4.2000
 30
0.0
 0
SEQEND
 8
WIRE
 0
POLYLINE
 8
WIRE
 66
1
 70
1
 10
0.0
 20
0.0
 30
0.0
 40
  0.0200
 41
  0.0200
 0
VERTEX
 8
WIRE
 10
  3.2900
 20
  4.2000
 30
0.0
 42
1.0
 0
VERTEX
 8
WIRE
 10
  3.3100
 20
  4.2000
 30
0.0
 42
1.0
 0
SEQEND
 8
WIRE
 0
POLYLINE
 8
WIRE
 66
1
 10
0.0
 20
0.0
 30
0.0
 0
VERTEX
 8
WIRE
 10
  3.3000
 20
  4.2000
 30
0.0
 0
VERTEX
 8
WIRE
 10
  3.3000
 20
  4.4000
 30
0.0
 0
SEQEND
 8
WIRE
 0
POLYLINE
 8
WIRE
 66
1
 10
0.0
 20
0.0
 30
0.0
 0
VERTEX
 8
WIRE
 10
  4.4000
 20
  4.0000
 30
0.0
 0
VERTEX
 8
WIRE
 10
  3.3000
 20
  4.0000
 30
0.0
 0
SEQEND
 8
WIRE
 0
POLYLINE
 8
WIRE
 66
1
 70
1
 10
0.0
 20
0.0
 30
0.0
 40
  0.0200
 41
  0.0200
 0
VERTEX
 8
WIRE
 10
  3.2900
 20
  4.0000
 30
0.0
 42
1.0
 0
VERTEX
 8
WIRE
 10
  3.3100
 20
  4.0000
 30
0.0
 42
1.0
 0
SEQEND
 8
WIRE
 0
POLYLINE
 8
WIRE
 66
1
 10
0.0
 20
0.0
 30
0.0
 0
VERTEX
 8
WIRE
 10
  3.3000
 20
  4.0000
 30
0.0
 0
VERTEX
 8
WIRE
 10
  3.3000
 20
  4.2000
 30
0.0
 0
SEQEND
 8
WIRE
 0
POLYLINE
 8
WIRE
 66
1
 10
0.0
 20
0.0
 30
0.0
 0
VERTEX
 8
WIRE
 10
  4.4000
 20
  3.8000
 30
0.0
 0
VERTEX
 8
WIRE
 10
  3.3000
 20
  3.8000
 30
0.0
 0
SEQEND
 8
WIRE
 0
POLYLINE
 8
WIRE
 66
1
 10
0.0
 20
0.0
 30
0.0
 0
VERTEX
 8
WIRE
 10
  3.3000
 20
  3.8000
 30
0.0
 0
VERTEX
 8
WIRE
 10
  3.3000
 20
  4.0000
 30
0.0
 0
SEQEND
 8
WIRE
 0
POLYLINE
 8
WIRE
 66
1
 10
0.0
 20
0.0
 30
0.0
 0
VERTEX
 8
WIRE
 10
  4.4000
 20
  3.6000
 30
0.0
 0
VERTEX
 8
WIRE
 10
  3.3000
 20
  3.6000
 30
0.0
 0
SEQEND
 8
WIRE
 0
POLYLINE
 8
WIRE
 66
1
 10
0.0
 20
0.0
 30
0.0
 0
VERTEX
 8
WIRE
 10
  3.3000
 20
  3.6000
 30
0.0
 0
VERTEX
 8
WIRE
 10
  3.3000
 20
  3.8000
 30
0.0
 0
SEQEND
 8
WIRE
 0
POLYLINE
 8
WIRE
 66
1
 70
1
 10
0.0
 20
0.0
 30
0.0
 40
  0.0200
 41
  0.0200
 0
VERTEX
 8
WIRE
 10
  3.2900
 20
  3.6000
 30
0.0
 42
1.0
 0
VERTEX
 8
WIRE
 10
  3.3100
 20
  3.6000
 30
0.0
 42
1.0
 0
SEQEND
 8
WIRE
 0
POLYLINE
 8
WIRE
 66
1
 70
1
 10
0.0
 20
0.0
 30
0.0
 40
  0.0200
 41
  0.0200
 0
VERTEX
 8
WIRE
 10
  3.2900
 20
  3.8000
 30
0.0
 42
1.0
 0
VERTEX
 8
WIRE
 10
  3.3100
 20
  3.8000
 30
0.0
 42
1.0
 0
SEQEND
 8
WIRE
 0
POLYLINE
 8
WIRE
 66
1
 10
0.0
 20
0.0
 30
0.0
 0
VERTEX
 8
WIRE
 10
  4.4000
 20
  3.4000
 30
0.0
 0
VERTEX
 8
WIRE
 10
  3.3000
 20
  3.4000
 30
0.0
 0
SEQEND
 8
WIRE
 0
POLYLINE
 8
WIRE
 66
1
 70
1
 10
0.0
 20
0.0
 30
0.0
 40
  0.0200
 41
  0.0200
 0
VERTEX
 8
WIRE
 10
  3.2900
 20
  3.4000
 30
0.0
 42
1.0
 0
VERTEX
 8
WIRE
 10
  3.3100
 20
  3.4000
 30
0.0
 42
1.0
 0
SEQEND
 8
WIRE
 0
POLYLINE
 8
WIRE
 66
1
 10
0.0
 20
0.0
 30
0.0
 0
VERTEX
 8
WIRE
 10
  3.3000
 20
  3.4000
 30
0.0
 0
VERTEX
 8
WIRE
 10
  3.3000
 20
  3.6000
 30
0.0
 0
SEQEND
 8
WIRE
 0
POLYLINE
 8
WIRE
 66
1
 10
0.0
 20
0.0
 30
0.0
 0
VERTEX
 8
WIRE
 10
  4.4000
 20
  3.3000
 30
0.0
 0
VERTEX
 8
WIRE
 10
  3.5000
 20
  3.3000
 30
0.0
 0
SEQEND
 8
WIRE
 0
TEXT
 8
WIRETEXT
 10
  3.5000
 20
  3.3300
 30
0.0
 40
  0.0514
 1
CF2_HREADY_DUT
 0
POLYLINE
 8
WIRE
 66
1
 10
0.0
 20
0.0
 30
0.0
 0
VERTEX
 8
WIRE
 10
  4.4000
 20
  3.2000
 30
0.0
 0
VERTEX
 8
WIRE
 10
  3.3000
 20
  3.2000
 30
0.0
 0
SEQEND
 8
WIRE
 0
POLYLINE
 8
WIRE
 66
1
 70
1
 10
0.0
 20
0.0
 30
0.0
 40
  0.0200
 41
  0.0200
 0
VERTEX
 8
WIRE
 10
  3.2900
 20
  3.2000
 30
0.0
 42
1.0
 0
VERTEX
 8
WIRE
 10
  3.3100
 20
  3.2000
 30
0.0
 42
1.0
 0
SEQEND
 8
WIRE
 0
POLYLINE
 8
WIRE
 66
1
 10
0.0
 20
0.0
 30
0.0
 0
VERTEX
 8
WIRE
 10
  3.3000
 20
  3.2000
 30
0.0
 0
VERTEX
 8
WIRE
 10
  3.3000
 20
  3.4000
 30
0.0
 0
SEQEND
 8
WIRE
 0
POLYLINE
 8
WIRE
 66
1
 10
0.0
 20
0.0
 30
0.0
 0
VERTEX
 8
WIRE
 10
  4.4000
 20
  3.1000
 30
0.0
 0
VERTEX
 8
WIRE
 10
  3.3000
 20
  3.1000
 30
0.0
 0
SEQEND
 8
WIRE
 0
POLYLINE
 8
WIRE
 66
1
 70
1
 10
0.0
 20
0.0
 30
0.0
 40
  0.0200
 41
  0.0200
 0
VERTEX
 8
WIRE
 10
  3.2900
 20
  3.1000
 30
0.0
 42
1.0
 0
VERTEX
 8
WIRE
 10
  3.3100
 20
  3.1000
 30
0.0
 42
1.0
 0
SEQEND
 8
WIRE
 0
POLYLINE
 8
WIRE
 66
1
 10
0.0
 20
0.0
 30
0.0
 0
VERTEX
 8
WIRE
 10
  3.3000
 20
  3.1000
 30
0.0
 0
VERTEX
 8
WIRE
 10
  3.3000
 20
  3.2000
 30
0.0
 0
SEQEND
 8
WIRE
 0
POLYLINE
 8
WIRE
 66
1
 10
0.0
 20
0.0
 30
0.0
 0
VERTEX
 8
WIRE
 10
  4.4000
 20
  3.0000
 30
0.0
 0
VERTEX
 8
WIRE
 10
  3.3000
 20
  3.0000
 30
0.0
 0
SEQEND
 8
WIRE
 0
POLYLINE
 8
WIRE
 66
1
 70
1
 10
0.0
 20
0.0
 30
0.0
 40
  0.0200
 41
  0.0200
 0
VERTEX
 8
WIRE
 10
  3.2900
 20
  3.0000
 30
0.0
 42
1.0
 0
VERTEX
 8
WIRE
 10
  3.3100
 20
  3.0000
 30
0.0
 42
1.0
 0
SEQEND
 8
WIRE
 0
POLYLINE
 8
WIRE
 66
1
 10
0.0
 20
0.0
 30
0.0
 0
VERTEX
 8
WIRE
 10
  3.3000
 20
  3.0000
 30
0.0
 0
VERTEX
 8
WIRE
 10
  3.3000
 20
  3.1000
 30
0.0
 0
SEQEND
 8
WIRE
 0
POLYLINE
 8
WIRE
 66
1
 10
0.0
 20
0.0
 30
0.0
 0
VERTEX
 8
WIRE
 10
  3.3000
 20
  2.7000
 30
0.0
 0
VERTEX
 8
WIRE
 10
  3.3000
 20
  3.0000
 30
0.0
 0
SEQEND
 8
WIRE
 0
POLYLINE
 8
WIRE
 66
1
 10
0.0
 20
0.0
 30
0.0
 0
VERTEX
 8
WIRE
 10
  1.0000
 20
  1.8000
 30
0.0
 0
VERTEX
 8
WIRE
 10
  0.5000
 20
  1.8000
 30
0.0
 0
SEQEND
 8
WIRE
 0
TEXT
 8
WIRETEXT
 10
  0.5000
 20
  1.8300
 30
0.0
 40
  0.0514
 1
MCU_VDD
 0
POLYLINE
 8
WIRE
 66
1
 10
0.0
 20
0.0
 30
0.0
 0
VERTEX
 8
WIRE
 10
  1.0000
 20
  1.6000
 30
0.0
 0
VERTEX
 8
WIRE
 10
  1.0000
 20
  1.8000
 30
0.0
 0
SEQEND
 8
WIRE
 0
POLYLINE
 8
WIRE
 66
1
 10
0.0
 20
0.0
 30
0.0
 0
VERTEX
 8
WIRE
 10
  3.3000
 20
  0.9000
 30
0.0
 0
VERTEX
 8
WIRE
 10
  3.3000
 20
  1.1000
 30
0.0
 0
SEQEND
 8
WIRE
 0
POLYLINE
 8
WIRE
 66
1
 70
1
 10
0.0
 20
0.0
 30
0.0
 40
  0.0200
 41
  0.0200
 0
VERTEX
 8
WIRE
 10
  3.2900
 20
  1.1000
 30
0.0
 42
1.0
 0
VERTEX
 8
WIRE
 10
  3.3100
 20
  1.1000
 30
0.0
 42
1.0
 0
SEQEND
 8
WIRE
 0
POLYLINE
 8
WIRE
 66
1
 10
0.0
 20
0.0
 30
0.0
 0
VERTEX
 8
WIRE
 10
  3.3000
 20
  1.1000
 30
0.0
 0
VERTEX
 8
WIRE
 10
  3.0000
 20
  1.1000
 30
0.0
 0
SEQEND
 8
WIRE
 0
POLYLINE
 8
WIRE
 66
1
 70
1
 10
0.0
 20
0.0
 30
0.0
 40
  0.0200
 41
  0.0200
 0
VERTEX
 8
WIRE
 10
  2.9900
 20
  1.1000
 30
0.0
 42
1.0
 0
VERTEX
 8
WIRE
 10
  3.0100
 20
  1.1000
 30
0.0
 42
1.0
 0
SEQEND
 8
WIRE
 0
TEXT
 8
WIRETEXT
 10
  3.1000
 20
  1.1300
 30
0.0
 40
  0.0514
 1
DGND
 0
POLYLINE
 8
WIRE
 66
1
 10
0.0
 20
0.0
 30
0.0
 0
VERTEX
 8
WIRE
 10
  1.0000
 20
  1.1000
 30
0.0
 0
VERTEX
 8
WIRE
 10
  1.0000
 20
  1.3000
 30
0.0
 0
SEQEND
 8
WIRE
 0
POLYLINE
 8
WIRE
 66
1
 10
0.0
 20
0.0
 30
0.0
 0
VERTEX
 8
WIRE
 10
  1.5000
 20
  1.6000
 30
0.0
 0
VERTEX
 8
WIRE
 10
  1.5000
 20
  1.8000
 30
0.0
 0
SEQEND
 8
WIRE
 0
POLYLINE
 8
WIRE
 66
1
 10
0.0
 20
0.0
 30
0.0
 0
VERTEX
 8
WIRE
 10
  1.5000
 20
  1.8000
 30
0.0
 0
VERTEX
 8
WIRE
 10
  1.0000
 20
  1.8000
 30
0.0
 0
SEQEND
 8
WIRE
 0
POLYLINE
 8
WIRE
 66
1
 70
1
 10
0.0
 20
0.0
 30
0.0
 40
  0.0200
 41
  0.0200
 0
VERTEX
 8
WIRE
 10
  1.4900
 20
  1.8000
 30
0.0
 42
1.0
 0
VERTEX
 8
WIRE
 10
  1.5100
 20
  1.8000
 30
0.0
 42
1.0
 0
SEQEND
 8
WIRE
 0
POLYLINE
 8
WIRE
 66
1
 70
1
 10
0.0
 20
0.0
 30
0.0
 40
  0.0200
 41
  0.0200
 0
VERTEX
 8
WIRE
 10
  0.9900
 20
  1.8000
 30
0.0
 42
1.0
 0
VERTEX
 8
WIRE
 10
  1.0100
 20
  1.8000
 30
0.0
 42
1.0
 0
SEQEND
 8
WIRE
 0
POLYLINE
 8
WIRE
 66
1
 10
0.0
 20
0.0
 30
0.0
 0
VERTEX
 8
WIRE
 10
  1.5000
 20
  1.8000
 30
0.0
 0
VERTEX
 8
WIRE
 10
  2.0000
 20
  1.8000
 30
0.0
 0
SEQEND
 8
WIRE
 0
POLYLINE
 8
WIRE
 66
1
 10
0.0
 20
0.0
 30
0.0
 0
VERTEX
 8
WIRE
 10
  2.0000
 20
  1.8000
 30
0.0
 0
VERTEX
 8
WIRE
 10
  2.0000
 20
  1.6000
 30
0.0
 0
SEQEND
 8
WIRE
 0
POLYLINE
 8
WIRE
 66
1
 10
0.0
 20
0.0
 30
0.0
 0
VERTEX
 8
WIRE
 10
  2.0000
 20
  1.8000
 30
0.0
 0
VERTEX
 8
WIRE
 10
  2.5000
 20
  1.8000
 30
0.0
 0
SEQEND
 8
WIRE
 0
POLYLINE
 8
WIRE
 66
1
 70
1
 10
0.0
 20
0.0
 30
0.0
 40
  0.0200
 41
  0.0200
 0
VERTEX
 8
WIRE
 10
  1.9900
 20
  1.8000
 30
0.0
 42
1.0
 0
VERTEX
 8
WIRE
 10
  2.0100
 20
  1.8000
 30
0.0
 42
1.0
 0
SEQEND
 8
WIRE
 0
POLYLINE
 8
WIRE
 66
1
 70
1
 10
0.0
 20
0.0
 30
0.0
 40
  0.0200
 41
  0.0200
 0
VERTEX
 8
WIRE
 10
  2.4900
 20
  1.8000
 30
0.0
 42
1.0
 0
VERTEX
 8
WIRE
 10
  2.5100
 20
  1.8000
 30
0.0
 42
1.0
 0
SEQEND
 8
WIRE
 0
POLYLINE
 8
WIRE
 66
1
 10
0.0
 20
0.0
 30
0.0
 0
VERTEX
 8
WIRE
 10
  2.5000
 20
  1.8000
 30
0.0
 0
VERTEX
 8
WIRE
 10
  2.5000
 20
  1.6000
 30
0.0
 0
SEQEND
 8
WIRE
 0
POLYLINE
 8
WIRE
 66
1
 10
0.0
 20
0.0
 30
0.0
 0
VERTEX
 8
WIRE
 10
  2.5000
 20
  1.8000
 30
0.0
 0
VERTEX
 8
WIRE
 10
  3.0000
 20
  1.8000
 30
0.0
 0
SEQEND
 8
WIRE
 0
POLYLINE
 8
WIRE
 66
1
 10
0.0
 20
0.0
 30
0.0
 0
VERTEX
 8
WIRE
 10
  3.0000
 20
  1.8000
 30
0.0
 0
VERTEX
 8
WIRE
 10
  3.0000
 20
  1.6000
 30
0.0
 0
SEQEND
 8
WIRE
 0
POLYLINE
 8
WIRE
 66
1
 70
1
 10
0.0
 20
0.0
 30
0.0
 40
  0.0200
 41
  0.0200
 0
VERTEX
 8
WIRE
 10
  2.9900
 20
  1.8000
 30
0.0
 42
1.0
 0
VERTEX
 8
WIRE
 10
  3.0100
 20
  1.8000
 30
0.0
 42
1.0
 0
SEQEND
 8
WIRE
 0
POLYLINE
 8
WIRE
 66
1
 10
0.0
 20
0.0
 30
0.0
 0
VERTEX
 8
WIRE
 10
  3.0000
 20
  1.8000
 30
0.0
 0
VERTEX
 8
WIRE
 10
  3.5000
 20
  1.8000
 30
0.0
 0
SEQEND
 8
WIRE
 0
POLYLINE
 8
WIRE
 66
1
 10
0.0
 20
0.0
 30
0.0
 0
VERTEX
 8
WIRE
 10
  3.5000
 20
  1.8000
 30
0.0
 0
VERTEX
 8
WIRE
 10
  3.5000
 20
  1.6000
 30
0.0
 0
SEQEND
 8
WIRE
 0
POLYLINE
 8
WIRE
 66
1
 10
0.0
 20
0.0
 30
0.0
 0
VERTEX
 8
WIRE
 10
  3.5000
 20
  1.8000
 30
0.0
 0
VERTEX
 8
WIRE
 10
  4.1000
 20
  1.8000
 30
0.0
 0
SEQEND
 8
WIRE
 0
POLYLINE
 8
WIRE
 66
1
 70
1
 10
0.0
 20
0.0
 30
0.0
 40
  0.0200
 41
  0.0200
 0
VERTEX
 8
WIRE
 10
  3.4900
 20
  1.8000
 30
0.0
 42
1.0
 0
VERTEX
 8
WIRE
 10
  3.5100
 20
  1.8000
 30
0.0
 42
1.0
 0
SEQEND
 8
WIRE
 0
POLYLINE
 8
WIRE
 66
1
 70
1
 10
0.0
 20
0.0
 30
0.0
 40
  0.0200
 41
  0.0200
 0
VERTEX
 8
WIRE
 10
  4.0900
 20
  1.8000
 30
0.0
 42
1.0
 0
VERTEX
 8
WIRE
 10
  4.1100
 20
  1.8000
 30
0.0
 42
1.0
 0
SEQEND
 8
WIRE
 0
POLYLINE
 8
WIRE
 66
1
 10
0.0
 20
0.0
 30
0.0
 0
VERTEX
 8
WIRE
 10
  4.1000
 20
  1.8000
 30
0.0
 0
VERTEX
 8
WIRE
 10
  4.1000
 20
  1.6000
 30
0.0
 0
SEQEND
 8
WIRE
 0
POLYLINE
 8
WIRE
 66
1
 10
0.0
 20
0.0
 30
0.0
 0
VERTEX
 8
WIRE
 10
  4.1000
 20
  1.8000
 30
0.0
 0
VERTEX
 8
WIRE
 10
  4.6000
 20
  1.8000
 30
0.0
 0
SEQEND
 8
WIRE
 0
POLYLINE
 8
WIRE
 66
1
 10
0.0
 20
0.0
 30
0.0
 0
VERTEX
 8
WIRE
 10
  4.6000
 20
  1.8000
 30
0.0
 0
VERTEX
 8
WIRE
 10
  4.6000
 20
  1.6000
 30
0.0
 0
SEQEND
 8
WIRE
 0
POLYLINE
 8
WIRE
 66
1
 10
0.0
 20
0.0
 30
0.0
 0
VERTEX
 8
WIRE
 10
  4.6000
 20
  1.8000
 30
0.0
 0
VERTEX
 8
WIRE
 10
  5.1000
 20
  1.8000
 30
0.0
 0
SEQEND
 8
WIRE
 0
POLYLINE
 8
WIRE
 66
1
 70
1
 10
0.0
 20
0.0
 30
0.0
 40
  0.0200
 41
  0.0200
 0
VERTEX
 8
WIRE
 10
  4.5900
 20
  1.8000
 30
0.0
 42
1.0
 0
VERTEX
 8
WIRE
 10
  4.6100
 20
  1.8000
 30
0.0
 42
1.0
 0
SEQEND
 8
WIRE
 0
POLYLINE
 8
WIRE
 66
1
 70
1
 10
0.0
 20
0.0
 30
0.0
 40
  0.0200
 41
  0.0200
 0
VERTEX
 8
WIRE
 10
  5.0900
 20
  1.8000
 30
0.0
 42
1.0
 0
VERTEX
 8
WIRE
 10
  5.1100
 20
  1.8000
 30
0.0
 42
1.0
 0
SEQEND
 8
WIRE
 0
POLYLINE
 8
WIRE
 66
1
 10
0.0
 20
0.0
 30
0.0
 0
VERTEX
 8
WIRE
 10
  5.1000
 20
  1.8000
 30
0.0
 0
VERTEX
 8
WIRE
 10
  5.1000
 20
  1.6000
 30
0.0
 0
SEQEND
 8
WIRE
 0
POLYLINE
 8
WIRE
 66
1
 10
0.0
 20
0.0
 30
0.0
 0
VERTEX
 8
WIRE
 10
  5.1000
 20
  1.8000
 30
0.0
 0
VERTEX
 8
WIRE
 10
  5.6000
 20
  1.8000
 30
0.0
 0
SEQEND
 8
WIRE
 0
POLYLINE
 8
WIRE
 66
1
 10
0.0
 20
0.0
 30
0.0
 0
VERTEX
 8
WIRE
 10
  1.5000
 20
  1.1000
 30
0.0
 0
VERTEX
 8
WIRE
 10
  1.5000
 20
  1.3000
 30
0.0
 0
SEQEND
 8
WIRE
 0
POLYLINE
 8
WIRE
 66
1
 10
0.0
 20
0.0
 30
0.0
 0
VERTEX
 8
WIRE
 10
  1.5000
 20
  1.1000
 30
0.0
 0
VERTEX
 8
WIRE
 10
  1.0000
 20
  1.1000
 30
0.0
 0
SEQEND
 8
WIRE
 0
POLYLINE
 8
WIRE
 66
1
 10
0.0
 20
0.0
 30
0.0
 0
VERTEX
 8
WIRE
 10
  2.0000
 20
  1.3000
 30
0.0
 0
VERTEX
 8
WIRE
 10
  2.0000
 20
  1.1000
 30
0.0
 0
SEQEND
 8
WIRE
 0
POLYLINE
 8
WIRE
 66
1
 10
0.0
 20
0.0
 30
0.0
 0
VERTEX
 8
WIRE
 10
  2.0000
 20
  1.1000
 30
0.0
 0
VERTEX
 8
WIRE
 10
  1.5000
 20
  1.1000
 30
0.0
 0
SEQEND
 8
WIRE
 0
POLYLINE
 8
WIRE
 66
1
 70
1
 10
0.0
 20
0.0
 30
0.0
 40
  0.0200
 41
  0.0200
 0
VERTEX
 8
WIRE
 10
  1.4900
 20
  1.1000
 30
0.0
 42
1.0
 0
VERTEX
 8
WIRE
 10
  1.5100
 20
  1.1000
 30
0.0
 42
1.0
 0
SEQEND
 8
WIRE
 0
POLYLINE
 8
WIRE
 66
1
 10
0.0
 20
0.0
 30
0.0
 0
VERTEX
 8
WIRE
 10
  2.5000
 20
  1.3000
 30
0.0
 0
VERTEX
 8
WIRE
 10
  2.5000
 20
  1.1000
 30
0.0
 0
SEQEND
 8
WIRE
 0
POLYLINE
 8
WIRE
 66
1
 10
0.0
 20
0.0
 30
0.0
 0
VERTEX
 8
WIRE
 10
  2.5000
 20
  1.1000
 30
0.0
 0
VERTEX
 8
WIRE
 10
  2.0000
 20
  1.1000
 30
0.0
 0
SEQEND
 8
WIRE
 0
POLYLINE
 8
WIRE
 66
1
 70
1
 10
0.0
 20
0.0
 30
0.0
 40
  0.0200
 41
  0.0200
 0
VERTEX
 8
WIRE
 10
  1.9900
 20
  1.1000
 30
0.0
 42
1.0
 0
VERTEX
 8
WIRE
 10
  2.0100
 20
  1.1000
 30
0.0
 42
1.0
 0
SEQEND
 8
WIRE
 0
POLYLINE
 8
WIRE
 66
1
 10
0.0
 20
0.0
 30
0.0
 0
VERTEX
 8
WIRE
 10
  3.0000
 20
  1.3000
 30
0.0
 0
VERTEX
 8
WIRE
 10
  3.0000
 20
  1.1000
 30
0.0
 0
SEQEND
 8
WIRE
 0
POLYLINE
 8
WIRE
 66
1
 10
0.0
 20
0.0
 30
0.0
 0
VERTEX
 8
WIRE
 10
  3.0000
 20
  1.1000
 30
0.0
 0
VERTEX
 8
WIRE
 10
  2.5000
 20
  1.1000
 30
0.0
 0
SEQEND
 8
WIRE
 0
POLYLINE
 8
WIRE
 66
1
 70
1
 10
0.0
 20
0.0
 30
0.0
 40
  0.0200
 41
  0.0200
 0
VERTEX
 8
WIRE
 10
  2.4900
 20
  1.1000
 30
0.0
 42
1.0
 0
VERTEX
 8
WIRE
 10
  2.5100
 20
  1.1000
 30
0.0
 42
1.0
 0
SEQEND
 8
WIRE
 0
POLYLINE
 8
WIRE
 66
1
 10
0.0
 20
0.0
 30
0.0
 0
VERTEX
 8
WIRE
 10
  3.5000
 20
  1.3000
 30
0.0
 0
VERTEX
 8
WIRE
 10
  3.5000
 20
  1.1000
 30
0.0
 0
SEQEND
 8
WIRE
 0
POLYLINE
 8
WIRE
 66
1
 10
0.0
 20
0.0
 30
0.0
 0
VERTEX
 8
WIRE
 10
  3.5000
 20
  1.1000
 30
0.0
 0
VERTEX
 8
WIRE
 10
  3.3000
 20
  1.1000
 30
0.0
 0
SEQEND
 8
WIRE
 0
POLYLINE
 8
WIRE
 66
1
 10
0.0
 20
0.0
 30
0.0
 0
VERTEX
 8
WIRE
 10
  4.1000
 20
  1.3000
 30
0.0
 0
VERTEX
 8
WIRE
 10
  4.1000
 20
  1.1000
 30
0.0
 0
SEQEND
 8
WIRE
 0
POLYLINE
 8
WIRE
 66
1
 10
0.0
 20
0.0
 30
0.0
 0
VERTEX
 8
WIRE
 10
  4.1000
 20
  1.1000
 30
0.0
 0
VERTEX
 8
WIRE
 10
  3.5000
 20
  1.1000
 30
0.0
 0
SEQEND
 8
WIRE
 0
POLYLINE
 8
WIRE
 66
1
 70
1
 10
0.0
 20
0.0
 30
0.0
 40
  0.0200
 41
  0.0200
 0
VERTEX
 8
WIRE
 10
  4.0900
 20
  1.1000
 30
0.0
 42
1.0
 0
VERTEX
 8
WIRE
 10
  4.1100
 20
  1.1000
 30
0.0
 42
1.0
 0
SEQEND
 8
WIRE
 0
POLYLINE
 8
WIRE
 66
1
 70
1
 10
0.0
 20
0.0
 30
0.0
 40
  0.0200
 41
  0.0200
 0
VERTEX
 8
WIRE
 10
  3.4900
 20
  1.1000
 30
0.0
 42
1.0
 0
VERTEX
 8
WIRE
 10
  3.5100
 20
  1.1000
 30
0.0
 42
1.0
 0
SEQEND
 8
WIRE
 0
POLYLINE
 8
WIRE
 66
1
 10
0.0
 20
0.0
 30
0.0
 0
VERTEX
 8
WIRE
 10
  4.6000
 20
  1.3000
 30
0.0
 0
VERTEX
 8
WIRE
 10
  4.6000
 20
  1.1000
 30
0.0
 0
SEQEND
 8
WIRE
 0
POLYLINE
 8
WIRE
 66
1
 10
0.0
 20
0.0
 30
0.0
 0
VERTEX
 8
WIRE
 10
  4.6000
 20
  1.1000
 30
0.0
 0
VERTEX
 8
WIRE
 10
  4.1000
 20
  1.1000
 30
0.0
 0
SEQEND
 8
WIRE
 0
POLYLINE
 8
WIRE
 66
1
 10
0.0
 20
0.0
 30
0.0
 0
VERTEX
 8
WIRE
 10
  5.1000
 20
  1.3000
 30
0.0
 0
VERTEX
 8
WIRE
 10
  5.1000
 20
  1.1000
 30
0.0
 0
SEQEND
 8
WIRE
 0
POLYLINE
 8
WIRE
 66
1
 10
0.0
 20
0.0
 30
0.0
 0
VERTEX
 8
WIRE
 10
  5.1000
 20
  1.1000
 30
0.0
 0
VERTEX
 8
WIRE
 10
  4.6000
 20
  1.1000
 30
0.0
 0
SEQEND
 8
WIRE
 0
POLYLINE
 8
WIRE
 66
1
 70
1
 10
0.0
 20
0.0
 30
0.0
 40
  0.0200
 41
  0.0200
 0
VERTEX
 8
WIRE
 10
  5.0900
 20
  1.1000
 30
0.0
 42
1.0
 0
VERTEX
 8
WIRE
 10
  5.1100
 20
  1.1000
 30
0.0
 42
1.0
 0
SEQEND
 8
WIRE
 0
POLYLINE
 8
WIRE
 66
1
 70
1
 10
0.0
 20
0.0
 30
0.0
 40
  0.0200
 41
  0.0200
 0
VERTEX
 8
WIRE
 10
  4.5900
 20
  1.1000
 30
0.0
 42
1.0
 0
VERTEX
 8
WIRE
 10
  4.6100
 20
  1.1000
 30
0.0
 42
1.0
 0
SEQEND
 8
WIRE
 0
POLYLINE
 8
WIRE
 66
1
 10
0.0
 20
0.0
 30
0.0
 0
VERTEX
 8
WIRE
 10
  5.6000
 20
  1.3000
 30
0.0
 0
VERTEX
 8
WIRE
 10
  5.6000
 20
  1.1000
 30
0.0
 0
SEQEND
 8
WIRE
 0
POLYLINE
 8
WIRE
 66
1
 10
0.0
 20
0.0
 30
0.0
 0
VERTEX
 8
WIRE
 10
  5.6000
 20
  1.1000
 30
0.0
 0
VERTEX
 8
WIRE
 10
  5.1000
 20
  1.1000
 30
0.0
 0
SEQEND
 8
WIRE
 0
POLYLINE
 8
WIRE
 66
1
 10
0.0
 20
0.0
 30
0.0
 0
VERTEX
 8
WIRE
 10
  5.6000
 20
  1.6000
 30
0.0
 0
VERTEX
 8
WIRE
 10
  5.6000
 20
  1.8000
 30
0.0
 0
SEQEND
 8
WIRE
 0
POLYLINE
 8
WIRE
 66
1
 10
0.0
 20
0.0
 30
0.0
 0
VERTEX
 8
WIRE
 10
  6.5000
 20
  4.0000
 30
0.0
 0
VERTEX
 8
WIRE
 10
  6.5000
 20
  4.4000
 30
0.0
 0
SEQEND
 8
WIRE
 0
POLYLINE
 8
WIRE
 66
1
 10
0.0
 20
0.0
 30
0.0
 0
VERTEX
 8
WIRE
 10
  6.9000
 20
  4.0000
 30
0.0
 0
VERTEX
 8
WIRE
 10
  6.7000
 20
  4.0000
 30
0.0
 0
SEQEND
 8
WIRE
 0
POLYLINE
 8
WIRE
 66
1
 10
0.0
 20
0.0
 30
0.0
 0
VERTEX
 8
WIRE
 10
  6.9000
 20
  4.0000
 30
0.0
 0
VERTEX
 8
WIRE
 10
  6.9000
 20
  4.1000
 30
0.0
 0
SEQEND
 8
WIRE
 0
POLYLINE
 8
WIRE
 66
1
 10
0.0
 20
0.0
 30
0.0
 0
VERTEX
 8
WIRE
 10
  6.7000
 20
  3.9000
 30
0.0
 0
VERTEX
 8
WIRE
 10
  6.7000
 20
  4.0000
 30
0.0
 0
SEQEND
 8
WIRE
 0
POLYLINE
 8
WIRE
 66
1
 70
1
 10
0.0
 20
0.0
 30
0.0
 40
  0.0200
 41
  0.0200
 0
VERTEX
 8
WIRE
 10
  6.6900
 20
  4.0000
 30
0.0
 42
1.0
 0
VERTEX
 8
WIRE
 10
  6.7100
 20
  4.0000
 30
0.0
 42
1.0
 0
SEQEND
 8
WIRE
 0
POLYLINE
 8
WIRE
 66
1
 10
0.0
 20
0.0
 30
0.0
 0
VERTEX
 8
WIRE
 10
  7.6000
 20
  4.5000
 30
0.0
 0
VERTEX
 8
WIRE
 10
  6.9000
 20
  4.5000
 30
0.0
 0
SEQEND
 8
WIRE
 0
POLYLINE
 8
WIRE
 66
1
 70
1
 10
0.0
 20
0.0
 30
0.0
 40
  0.0200
 41
  0.0200
 0
VERTEX
 8
WIRE
 10
  6.8900
 20
  4.5000
 30
0.0
 42
1.0
 0
VERTEX
 8
WIRE
 10
  6.9100
 20
  4.5000
 30
0.0
 42
1.0
 0
SEQEND
 8
WIRE
 0
TEXT
 8
WIRETEXT
 10
  7.1000
 20
  4.5300
 30
0.0
 40
  0.0514
 1
EXT_VDD
 0
POLYLINE
 8
WIRE
 66
1
 10
0.0
 20
0.0
 30
0.0
 0
VERTEX
 8
WIRE
 10
  7.6000
 20
  4.1000
 30
0.0
 0
VERTEX
 8
WIRE
 10
  7.6000
 20
  4.5000
 30
0.0
 0
SEQEND
 8
WIRE
 0
POLYLINE
 8
WIRE
 66
1
 10
0.0
 20
0.0
 30
0.0
 0
VERTEX
 8
WIRE
 10
  6.9000
 20
  4.4000
 30
0.0
 0
VERTEX
 8
WIRE
 10
  6.9000
 20
  4.5000
 30
0.0
 0
SEQEND
 8
WIRE
 0
POLYLINE
 8
WIRE
 66
1
 10
0.0
 20
0.0
 30
0.0
 0
VERTEX
 8
WIRE
 10
  8.2000
 20
  4.3000
 30
0.0
 0
VERTEX
 8
WIRE
 10
  7.8000
 20
  4.3000
 30
0.0
 0
SEQEND
 8
WIRE
 0
TEXT
 8
WIRETEXT
 10
  7.8000
 20
  4.3300
 30
0.0
 40
  0.0514
 1
USB_VDD
 0
POLYLINE
 8
WIRE
 66
1
 10
0.0
 20
0.0
 30
0.0
 0
VERTEX
 8
WIRE
 10
  7.7000
 20
  4.1000
 30
0.0
 0
VERTEX
 8
WIRE
 10
  7.7000
 20
  4.5000
 30
0.0
 0
SEQEND
 8
WIRE
 0
POLYLINE
 8
WIRE
 66
1
 10
0.0
 20
0.0
 30
0.0
 0
VERTEX
 8
WIRE
 10
  8.5000
 20
  4.5000
 30
0.0
 0
VERTEX
 8
WIRE
 10
  8.5000
 20
  5.1000
 30
0.0
 0
SEQEND
 8
WIRE
 0
POLYLINE
 8
WIRE
 66
1
 70
1
 10
0.0
 20
0.0
 30
0.0
 40
  0.0200
 41
  0.0200
 0
VERTEX
 8
WIRE
 10
  8.4900
 20
  4.5000
 30
0.0
 42
1.0
 0
VERTEX
 8
WIRE
 10
  8.5100
 20
  4.5000
 30
0.0
 42
1.0
 0
SEQEND
 8
WIRE
 0
TEXT
 8
WIRETEXT
 10
  8.4700
 20
  4.6000
 30
0.0
 40
  0.0514
 50
 90.0000
 1
MCU_VDD
 0
POLYLINE
 8
WIRE
 66
1
 10
0.0
 20
0.0
 30
0.0
 0
VERTEX
 8
WIRE
 10
  8.5000
 20
  4.5000
 30
0.0
 0
VERTEX
 8
WIRE
 10
  7.7000
 20
  4.5000
 30
0.0
 0
SEQEND
 8
WIRE
 0
POLYLINE
 8
WIRE
 66
1
 10
0.0
 20
0.0
 30
0.0
 0
VERTEX
 8
WIRE
 10
  7.8000
 20
  4.1000
 30
0.0
 0
VERTEX
 8
WIRE
 10
  7.8000
 20
  4.3000
 30
0.0
 0
SEQEND
 8
WIRE
 0
POLYLINE
 8
WIRE
 66
1
 10
0.0
 20
0.0
 30
0.0
 0
VERTEX
 8
WIRE
 10
  8.5000
 20
  3.8000
 30
0.0
 0
VERTEX
 8
WIRE
 10
  8.5000
 20
  3.9000
 30
0.0
 0
SEQEND
 8
WIRE
 0
POLYLINE
 8
WIRE
 66
1
 10
0.0
 20
0.0
 30
0.0
 0
VERTEX
 8
WIRE
 10
  8.5000
 20
  3.1000
 30
0.0
 0
VERTEX
 8
WIRE
 10
  8.5000
 20
  3.3000
 30
0.0
 0
SEQEND
 8
WIRE
 0
POLYLINE
 8
WIRE
 66
1
 10
0.0
 20
0.0
 30
0.0
 0
VERTEX
 8
WIRE
 10
  6.9000
 20
  4.5000
 30
0.0
 0
VERTEX
 8
WIRE
 10
  6.5000
 20
  4.5000
 30
0.0
 0
SEQEND
 8
WIRE
 0
POLYLINE
 8
WIRE
 66
1
 10
0.0
 20
0.0
 30
0.0
 0
VERTEX
 8
WIRE
 10
  6.7000
 20
  4.0000
 30
0.0
 0
VERTEX
 8
WIRE
 10
  6.5000
 20
  4.0000
 30
0.0
 0
SEQEND
 8
WIRE
 0
POLYLINE
 8
PARTS
 66
1
 10
0.0
 20
0.0
 30
0.0
 0
VERTEX
 8
PARTS
 10
  3.2000
 20
  2.7000
 30
0.0
 0
VERTEX
 8
PARTS
 10
  3.4000
 20
  2.7000
 30
0.0
 0
SEQEND
 8
PARTS
 0
POLYLINE
 8
PARTS
 66
1
 10
0.0
 20
0.0
 30
0.0
 0
VERTEX
 8
PARTS
 10
  3.2300
 20
  2.6700
 30
0.0
 0
VERTEX
 8
PARTS
 10
  3.3700
 20
  2.6700
 30
0.0
 0
SEQEND
 8
PARTS
 0
POLYLINE
 8
PARTS
 66
1
 10
0.0
 20
0.0
 30
0.0
 0
VERTEX
 8
PARTS
 10
  3.3400
 20
  2.6400
 30
0.0
 0
VERTEX
 8
PARTS
 10
  3.2600
 20
  2.6400
 30
0.0
 0
SEQEND
 8
PARTS
 0
POLYLINE
 8
PARTS
 66
1
 10
0.0
 20
0.0
 30
0.0
 0
VERTEX
 8
PARTS
 10
  3.2900
 20
  2.6100
 30
0.0
 0
VERTEX
 8
PARTS
 10
  3.3100
 20
  2.6100
 30
0.0
 0
SEQEND
 8
PARTS
 0
POLYLINE
 8
PARTS
 66
1
 10
0.0
 20
0.0
 30
0.0
 0
VERTEX
 8
PARTS
 10
  3.2000
 20
  0.9000
 30
0.0
 0
VERTEX
 8
PARTS
 10
  3.4000
 20
  0.9000
 30
0.0
 0
SEQEND
 8
PARTS
 0
POLYLINE
 8
PARTS
 66
1
 10
0.0
 20
0.0
 30
0.0
 0
VERTEX
 8
PARTS
 10
  3.2300
 20
  0.8700
 30
0.0
 0
VERTEX
 8
PARTS
 10
  3.3700
 20
  0.8700
 30
0.0
 0
SEQEND
 8
PARTS
 0
POLYLINE
 8
PARTS
 66
1
 10
0.0
 20
0.0
 30
0.0
 0
VERTEX
 8
PARTS
 10
  3.3400
 20
  0.8400
 30
0.0
 0
VERTEX
 8
PARTS
 10
  3.2600
 20
  0.8400
 30
0.0
 0
SEQEND
 8
PARTS
 0
POLYLINE
 8
PARTS
 66
1
 10
0.0
 20
0.0
 30
0.0
 0
VERTEX
 8
PARTS
 10
  3.2900
 20
  0.8100
 30
0.0
 0
VERTEX
 8
PARTS
 10
  3.3100
 20
  0.8100
 30
0.0
 0
SEQEND
 8
PARTS
 0
POLYLINE
 8
PARTS
 66
1
 10
0.0
 20
0.0
 30
0.0
 0
VERTEX
 8
PARTS
 10
  6.6000
 20
  3.9000
 30
0.0
 0
VERTEX
 8
PARTS
 10
  6.8000
 20
  3.9000
 30
0.0
 0
SEQEND
 8
PARTS
 0
POLYLINE
 8
PARTS
 66
1
 10
0.0
 20
0.0
 30
0.0
 0
VERTEX
 8
PARTS
 10
  6.6300
 20
  3.8700
 30
0.0
 0
VERTEX
 8
PARTS
 10
  6.7700
 20
  3.8700
 30
0.0
 0
SEQEND
 8
PARTS
 0
POLYLINE
 8
PARTS
 66
1
 10
0.0
 20
0.0
 30
0.0
 0
VERTEX
 8
PARTS
 10
  6.7400
 20
  3.8400
 30
0.0
 0
VERTEX
 8
PARTS
 10
  6.6600
 20
  3.8400
 30
0.0
 0
SEQEND
 8
PARTS
 0
POLYLINE
 8
PARTS
 66
1
 10
0.0
 20
0.0
 30
0.0
 0
VERTEX
 8
PARTS
 10
  6.6900
 20
  3.8100
 30
0.0
 0
VERTEX
 8
PARTS
 10
  6.7100
 20
  3.8100
 30
0.0
 0
SEQEND
 8
PARTS
 0
POLYLINE
 8
PARTS
 66
1
 10
0.0
 20
0.0
 30
0.0
 0
VERTEX
 8
PARTS
 10
  8.4000
 20
  3.1000
 30
0.0
 0
VERTEX
 8
PARTS
 10
  8.6000
 20
  3.1000
 30
0.0
 0
SEQEND
 8
PARTS
 0
POLYLINE
 8
PARTS
 66
1
 10
0.0
 20
0.0
 30
0.0
 0
VERTEX
 8
PARTS
 10
  8.4300
 20
  3.0700
 30
0.0
 0
VERTEX
 8
PARTS
 10
  8.5700
 20
  3.0700
 30
0.0
 0
SEQEND
 8
PARTS
 0
POLYLINE
 8
PARTS
 66
1
 10
0.0
 20
0.0
 30
0.0
 0
VERTEX
 8
PARTS
 10
  8.5400
 20
  3.0400
 30
0.0
 0
VERTEX
 8
PARTS
 10
  8.4600
 20
  3.0400
 30
0.0
 0
SEQEND
 8
PARTS
 0
POLYLINE
 8
PARTS
 66
1
 10
0.0
 20
0.0
 30
0.0
 0
VERTEX
 8
PARTS
 10
  8.4900
 20
  3.0100
 30
0.0
 0
VERTEX
 8
PARTS
 10
  8.5100
 20
  3.0100
 30
0.0
 0
SEQEND
 8
PARTS
 0
TEXT
 8
COMMENTS
 10
  3.2000
 20
  6.6186
 30
0.0
 40
  0.0514
 1
Interface Header When MCU is Bypasses
 0
TEXT
 8
COMMENTS
 10
  1.8000
 20
  0.5186
 30
0.0
 40
  0.0514
 1
Power Supply Decoupling
 0
TEXT
 8
COMMENTS
 10
  6.8000
 20
  2.9186
 30
0.0
 40
  0.0514
 1
MCU Power Supply Selection
 0
ENDSEC
 0
EOF
