 0
SECTION
 2
HEADER
 9
$ACADVER
 1
AC1009
 0
ENDSEC
 0
SECTION
 2
ENTITIES
 0
POLYLINE
 8
TITLE
 66
1
 70
1
 10
0.0
 20
0.0
 30
0.0
 0
VERTEX
 8
TITLE
 10
 -0.1000
 20
  0.1000
 30
0.0
 0
VERTEX
 8
TITLE
 10
  9.6000
 20
  0.1000
 30
0.0
 0
VERTEX
 8
TITLE
 10
  9.6000
 20
  7.3000
 30
0.0
 0
VERTEX
 8
TITLE
 10
 -0.1000
 20
  7.3000
 30
0.0
 0
SEQEND
 8
TITLE
 0
POLYLINE
 8
TITLE
 66
1
 70
1
 10
0.0
 20
0.0
 30
0.0
 0
VERTEX
 8
TITLE
 10
  0.0000
 20
  0.2000
 30
0.0
 0
VERTEX
 8
TITLE
 10
  9.5000
 20
  0.2000
 30
0.0
 0
VERTEX
 8
TITLE
 10
  9.5000
 20
  7.2000
 30
0.0
 0
VERTEX
 8
TITLE
 10
  0.0000
 20
  7.2000
 30
0.0
 0
SEQEND
 8
TITLE
 0
POLYLINE
 8
TITLE
 66
1
 10
0.0
 20
0.0
 30
0.0
 0
VERTEX
 8
TITLE
 10
  2.0600
 20
  0.2000
 30
0.0
 0
VERTEX
 8
TITLE
 10
  2.0600
 20
  0.1000
 30
0.0
 0
SEQEND
 8
TITLE
 0
POLYLINE
 8
TITLE
 66
1
 10
0.0
 20
0.0
 30
0.0
 0
VERTEX
 8
TITLE
 10
  2.0600
 20
  7.2000
 30
0.0
 0
VERTEX
 8
TITLE
 10
  2.0600
 20
  7.3000
 30
0.0
 0
SEQEND
 8
TITLE
 0
POLYLINE
 8
TITLE
 66
1
 10
0.0
 20
0.0
 30
0.0
 0
VERTEX
 8
TITLE
 10
  3.9200
 20
  0.2000
 30
0.0
 0
VERTEX
 8
TITLE
 10
  3.9200
 20
  0.1000
 30
0.0
 0
SEQEND
 8
TITLE
 0
POLYLINE
 8
TITLE
 66
1
 10
0.0
 20
0.0
 30
0.0
 0
VERTEX
 8
TITLE
 10
  3.9200
 20
  7.2000
 30
0.0
 0
VERTEX
 8
TITLE
 10
  3.9200
 20
  7.3000
 30
0.0
 0
SEQEND
 8
TITLE
 0
POLYLINE
 8
TITLE
 66
1
 10
0.0
 20
0.0
 30
0.0
 0
VERTEX
 8
TITLE
 10
  5.7800
 20
  0.2000
 30
0.0
 0
VERTEX
 8
TITLE
 10
  5.7800
 20
  0.1000
 30
0.0
 0
SEQEND
 8
TITLE
 0
POLYLINE
 8
TITLE
 66
1
 10
0.0
 20
0.0
 30
0.0
 0
VERTEX
 8
TITLE
 10
  5.7800
 20
  7.2000
 30
0.0
 0
VERTEX
 8
TITLE
 10
  5.7800
 20
  7.3000
 30
0.0
 0
SEQEND
 8
TITLE
 0
POLYLINE
 8
TITLE
 66
1
 10
0.0
 20
0.0
 30
0.0
 0
VERTEX
 8
TITLE
 10
  7.6400
 20
  0.2000
 30
0.0
 0
VERTEX
 8
TITLE
 10
  7.6400
 20
  0.1000
 30
0.0
 0
SEQEND
 8
TITLE
 0
POLYLINE
 8
TITLE
 66
1
 10
0.0
 20
0.0
 30
0.0
 0
VERTEX
 8
TITLE
 10
  7.6400
 20
  7.2000
 30
0.0
 0
VERTEX
 8
TITLE
 10
  7.6400
 20
  7.3000
 30
0.0
 0
SEQEND
 8
TITLE
 0
TEXT
 8
TITLE
 10
  1.1300
 20
  0.1200
 30
0.0
 40
  0.0500
 1
5
 0
TEXT
 8
TITLE
 10
  1.1300
 20
  7.2200
 30
0.0
 40
  0.0500
 1
5
 0
TEXT
 8
TITLE
 10
  2.9900
 20
  0.1200
 30
0.0
 40
  0.0500
 1
4
 0
TEXT
 8
TITLE
 10
  2.9900
 20
  7.2200
 30
0.0
 40
  0.0500
 1
4
 0
TEXT
 8
TITLE
 10
  4.8500
 20
  0.1200
 30
0.0
 40
  0.0500
 1
3
 0
TEXT
 8
TITLE
 10
  4.8500
 20
  7.2200
 30
0.0
 40
  0.0500
 1
3
 0
TEXT
 8
TITLE
 10
  6.7100
 20
  0.1200
 30
0.0
 40
  0.0500
 1
2
 0
TEXT
 8
TITLE
 10
  6.7100
 20
  7.2200
 30
0.0
 40
  0.0500
 1
2
 0
TEXT
 8
TITLE
 10
  8.5700
 20
  0.1200
 30
0.0
 40
  0.0500
 1
1
 0
TEXT
 8
TITLE
 10
  8.5700
 20
  7.2200
 30
0.0
 40
  0.0500
 1
1
 0
POLYLINE
 8
TITLE
 66
1
 10
0.0
 20
0.0
 30
0.0
 0
VERTEX
 8
TITLE
 10
 -0.1000
 20
  5.3000
 30
0.0
 0
VERTEX
 8
TITLE
 10
  0.0000
 20
  5.3000
 30
0.0
 0
SEQEND
 8
TITLE
 0
POLYLINE
 8
TITLE
 66
1
 10
0.0
 20
0.0
 30
0.0
 0
VERTEX
 8
TITLE
 10
  9.5000
 20
  5.3000
 30
0.0
 0
VERTEX
 8
TITLE
 10
  9.6000
 20
  5.3000
 30
0.0
 0
SEQEND
 8
TITLE
 0
SOLID
 8
TITLE
 10
  0.0000
 20
  3.6000
 30
0.0
 11
 -0.0500
 21
  3.6200
 31
0.0
 12
 -0.0500
 22
  3.5800
 32
0.0
 13
 -0.0500
 23
  3.6000
 33
0.0
 0
SOLID
 8
TITLE
 10
  9.5000
 20
  3.6000
 30
0.0
 11
  9.5500
 21
  3.6200
 31
0.0
 12
  9.5500
 22
  3.5800
 32
0.0
 13
  9.5500
 23
  3.6000
 33
0.0
 0
POLYLINE
 8
TITLE
 66
1
 10
0.0
 20
0.0
 30
0.0
 0
VERTEX
 8
TITLE
 10
 -0.1000
 20
  3.6000
 30
0.0
 0
VERTEX
 8
TITLE
 10
  0.0000
 20
  3.6000
 30
0.0
 0
SEQEND
 8
TITLE
 0
POLYLINE
 8
TITLE
 66
1
 10
0.0
 20
0.0
 30
0.0
 0
VERTEX
 8
TITLE
 10
  9.5000
 20
  3.6000
 30
0.0
 0
VERTEX
 8
TITLE
 10
  9.6000
 20
  3.6000
 30
0.0
 0
SEQEND
 8
TITLE
 0
SOLID
 8
TITLE
 10
  0.0000
 20
  3.6000
 30
0.0
 11
 -0.0500
 21
  3.6200
 31
0.0
 12
 -0.0500
 22
  3.5800
 32
0.0
 13
 -0.0500
 23
  3.6000
 33
0.0
 0
SOLID
 8
TITLE
 10
  9.5000
 20
  3.6000
 30
0.0
 11
  9.5500
 21
  3.6200
 31
0.0
 12
  9.5500
 22
  3.5800
 32
0.0
 13
  9.5500
 23
  3.6000
 33
0.0
 0
POLYLINE
 8
TITLE
 66
1
 10
0.0
 20
0.0
 30
0.0
 0
VERTEX
 8
TITLE
 10
 -0.1000
 20
  1.9000
 30
0.0
 0
VERTEX
 8
TITLE
 10
  0.0000
 20
  1.9000
 30
0.0
 0
SEQEND
 8
TITLE
 0
POLYLINE
 8
TITLE
 66
1
 10
0.0
 20
0.0
 30
0.0
 0
VERTEX
 8
TITLE
 10
  9.5000
 20
  1.9000
 30
0.0
 0
VERTEX
 8
TITLE
 10
  9.6000
 20
  1.9000
 30
0.0
 0
SEQEND
 8
TITLE
 0
SOLID
 8
TITLE
 10
  0.0000
 20
  3.6000
 30
0.0
 11
 -0.0500
 21
  3.6200
 31
0.0
 12
 -0.0500
 22
  3.5800
 32
0.0
 13
 -0.0500
 23
  3.6000
 33
0.0
 0
SOLID
 8
TITLE
 10
  9.5000
 20
  3.6000
 30
0.0
 11
  9.5500
 21
  3.6200
 31
0.0
 12
  9.5500
 22
  3.5800
 32
0.0
 13
  9.5500
 23
  3.6000
 33
0.0
 0
TEXT
 8
TITLE
 10
 -0.0800
 20
  6.1500
 30
0.0
 40
  0.0500
 1
D
 0
TEXT
 8
TITLE
 10
  9.5200
 20
  6.1500
 30
0.0
 40
  0.0500
 1
D
 0
TEXT
 8
TITLE
 10
 -0.0800
 20
  4.4500
 30
0.0
 40
  0.0500
 1
C
 0
TEXT
 8
TITLE
 10
  9.5200
 20
  4.4500
 30
0.0
 40
  0.0500
 1
C
 0
TEXT
 8
TITLE
 10
 -0.0800
 20
  2.7500
 30
0.0
 40
  0.0500
 1
B
 0
TEXT
 8
TITLE
 10
  9.5200
 20
  2.7500
 30
0.0
 40
  0.0500
 1
B
 0
TEXT
 8
TITLE
 10
 -0.0800
 20
  1.0500
 30
0.0
 40
  0.0500
 1
A
 0
TEXT
 8
TITLE
 10
  9.5200
 20
  1.0500
 30
0.0
 40
  0.0500
 1
A
 0
TEXT
 8
TITLE
 10
  6.3000
 20
  0.4186
 30
0.0
 40
  0.0514
 1
<Doc>
 0
TEXT
 8
TITLE
 10
  9.3000
 20
  0.4186
 30
0.0
 40
  0.0514
 1
<RevCode>
 0
TEXT
 8
TITLE
 10
  6.3000
 20
  0.7186
 30
0.0
 40
  0.0514
 1
<Title>
 0
TEXT
 8
TITLE
 10
  6.0000
 20
  0.4186
 30
0.0
 40
  0.0514
 1
A
 0
TEXT
 8
TITLE
 10
  8.4000
 20
  0.2186
 30
0.0
 40
  0.0514
 1
1
 0
TEXT
 8
TITLE
 10
  9.0000
 20
  0.2186
 30
0.0
 40
  0.0514
 1
1
 0
TEXT
 8
TITLE
 10
  6.4200
 20
  0.2186
 30
0.0
 40
  0.0514
 1
Sunday, October 26, 2014
 0
TEXT
 8
PARTTEXT
 10
  5.9000
 20
  0.8186
 30
0.0
 40
  0.0514
 1
Title
 0
TEXT
 8
PARTTEXT
 10
  5.9000
 20
  0.5186
 30
0.0
 40
  0.0514
 1
Size
 0
TEXT
 8
PARTTEXT
 10
  6.3000
 20
  0.5186
 30
0.0
 40
  0.0514
 1
Document Number
 0
TEXT
 8
PARTTEXT
 10
  9.2000
 20
  0.5186
 30
0.0
 40
  0.0514
 1
Rev
 0
TEXT
 8
PARTTEXT
 10
  5.9000
 20
  0.2186
 30
0.0
 40
  0.0514
 1
Date:
 0
TEXT
 8
PARTTEXT
 10
  7.9000
 20
  0.2186
 30
0.0
 40
  0.0514
 1
Sheet
 0
POLYLINE
 8
TITLE
 66
1
 70
1
 10
0.0
 20
0.0
 30
0.0
 0
VERTEX
 8
TITLE
 10
  5.9000
 20
  1.1000
 30
0.0
 0
VERTEX
 8
TITLE
 10
  9.5000
 20
  1.1000
 30
0.0
 0
VERTEX
 8
TITLE
 10
  9.5000
 20
  0.9000
 30
0.0
 0
VERTEX
 8
TITLE
 10
  5.9000
 20
  0.9000
 30
0.0
 0
SEQEND
 8
TITLE
 0
POLYLINE
 8
TITLE
 66
1
 70
1
 10
0.0
 20
0.0
 30
0.0
 0
VERTEX
 8
TITLE
 10
  5.9000
 20
  0.9000
 30
0.0
 0
VERTEX
 8
TITLE
 10
  9.5000
 20
  0.9000
 30
0.0
 0
VERTEX
 8
TITLE
 10
  9.5000
 20
  0.6000
 30
0.0
 0
VERTEX
 8
TITLE
 10
  5.9000
 20
  0.6000
 30
0.0
 0
SEQEND
 8
TITLE
 0
POLYLINE
 8
TITLE
 66
1
 70
1
 10
0.0
 20
0.0
 30
0.0
 0
VERTEX
 8
TITLE
 10
  5.9000
 20
  0.6000
 30
0.0
 0
VERTEX
 8
TITLE
 10
  6.2000
 20
  0.6000
 30
0.0
 0
VERTEX
 8
TITLE
 10
  6.2000
 20
  0.3000
 30
0.0
 0
VERTEX
 8
TITLE
 10
  5.9000
 20
  0.3000
 30
0.0
 0
SEQEND
 8
TITLE
 0
POLYLINE
 8
TITLE
 66
1
 70
1
 10
0.0
 20
0.0
 30
0.0
 0
VERTEX
 8
TITLE
 10
  6.2000
 20
  0.6000
 30
0.0
 0
VERTEX
 8
TITLE
 10
  9.2000
 20
  0.6000
 30
0.0
 0
VERTEX
 8
TITLE
 10
  9.2000
 20
  0.3000
 30
0.0
 0
VERTEX
 8
TITLE
 10
  6.2000
 20
  0.3000
 30
0.0
 0
SEQEND
 8
TITLE
 0
POLYLINE
 8
TITLE
 66
1
 70
1
 10
0.0
 20
0.0
 30
0.0
 0
VERTEX
 8
TITLE
 10
  9.2000
 20
  0.6000
 30
0.0
 0
VERTEX
 8
TITLE
 10
  9.5000
 20
  0.6000
 30
0.0
 0
VERTEX
 8
TITLE
 10
  9.5000
 20
  0.3000
 30
0.0
 0
VERTEX
 8
TITLE
 10
  9.2000
 20
  0.3000
 30
0.0
 0
SEQEND
 8
TITLE
 0
POLYLINE
 8
TITLE
 66
1
 70
1
 10
0.0
 20
0.0
 30
0.0
 0
VERTEX
 8
TITLE
 10
  5.9000
 20
  0.3000
 30
0.0
 0
VERTEX
 8
TITLE
 10
  7.9000
 20
  0.3000
 30
0.0
 0
VERTEX
 8
TITLE
 10
  7.9000
 20
  0.2000
 30
0.0
 0
VERTEX
 8
TITLE
 10
  5.9000
 20
  0.2000
 30
0.0
 0
SEQEND
 8
TITLE
 0
POLYLINE
 8
TITLE
 66
1
 70
1
 10
0.0
 20
0.0
 30
0.0
 0
VERTEX
 8
TITLE
 10
  7.9000
 20
  0.3000
 30
0.0
 0
VERTEX
 8
TITLE
 10
  9.5000
 20
  0.3000
 30
0.0
 0
VERTEX
 8
TITLE
 10
  9.5000
 20
  0.2000
 30
0.0
 0
VERTEX
 8
TITLE
 10
  7.9000
 20
  0.2000
 30
0.0
 0
SEQEND
 8
TITLE
 0
TEXT
 8
PARTTEXT
 10
  8.7000
 20
  0.2186
 30
0.0
 40
  0.0514
 1
of
 0
TEXT
 8
PARTTEXT
 10
  3.4000
 20
  4.3586
 30
0.0
 40
  0.0514
 1
TP4
 0
TEXT
 8
PARTTEXT
 10
  3.4000
 20
  4.2386
 30
0.0
 40
  0.0514
 1
AGND
 0
LINE
 8
PARTS
 10
  3.5000
 20
  3.8000
 30
0.0
 11
  3.5000
 21
  4.1000
 31
0.0
 0
TEXT
 8
PARTS
 10
  3.4700
 20
  3.9800
 30
0.0
 40
  0.0500
 50
 90.0000
 1
1
 0
POLYLINE
 8
PARTS
 66
1
 70
1
 10
0.0
 20
0.0
 30
0.0
 0
VERTEX
 8
PARTS
 10
  3.4000
 20
  4.1000
 30
0.0
 0
VERTEX
 8
PARTS
 10
  3.4000
 20
  4.2000
 30
0.0
 0
VERTEX
 8
PARTS
 10
  3.6000
 20
  4.2000
 30
0.0
 0
VERTEX
 8
PARTS
 10
  3.6000
 20
  4.1000
 30
0.0
 0
SEQEND
 8
PARTS
 0
TEXT
 8
PARTTEXT
 10
  2.9000
 20
  3.1586
 30
0.0
 40
  0.0514
 1
TP8
 0
TEXT
 8
PARTTEXT
 10
  2.9000
 20
  3.0386
 30
0.0
 40
  0.0514
 1
AGND
 0
LINE
 8
PARTS
 10
  3.0000
 20
  2.6000
 30
0.0
 11
  3.0000
 21
  2.9000
 31
0.0
 0
TEXT
 8
PARTS
 10
  2.9700
 20
  2.7800
 30
0.0
 40
  0.0500
 50
 90.0000
 1
1
 0
POLYLINE
 8
PARTS
 66
1
 70
1
 10
0.0
 20
0.0
 30
0.0
 0
VERTEX
 8
PARTS
 10
  2.9000
 20
  2.9000
 30
0.0
 0
VERTEX
 8
PARTS
 10
  2.9000
 20
  3.0000
 30
0.0
 0
VERTEX
 8
PARTS
 10
  3.1000
 20
  3.0000
 30
0.0
 0
VERTEX
 8
PARTS
 10
  3.1000
 20
  2.9000
 30
0.0
 0
SEQEND
 8
PARTS
 0
TEXT
 8
PARTTEXT
 10
  1.8900
 20
  5.5186
 30
0.0
 40
  0.0514
 1
C73
 0
TEXT
 8
PARTTEXT
 10
  1.8900
 20
  5.4286
 30
0.0
 40
  0.0514
 1
0.1uF
 0
LINE
 8
PARTS
 10
  1.7000
 20
  5.7000
 30
0.0
 11
  1.7000
 21
  5.6000
 31
0.0
 0
LINE
 8
PARTS
 10
  1.7000
 20
  5.4000
 30
0.0
 11
  1.7000
 21
  5.5000
 31
0.0
 0
POLYLINE
 8
PARTS
 66
1
 10
0.0
 20
0.0
 30
0.0
 0
VERTEX
 8
PARTS
 10
  1.7000
 20
  5.6000
 30
0.0
 0
VERTEX
 8
PARTS
 10
  1.7000
 20
  5.5800
 30
0.0
 0
SEQEND
 8
PARTS
 0
POLYLINE
 8
PARTS
 66
1
 10
0.0
 20
0.0
 30
0.0
 0
VERTEX
 8
PARTS
 10
  1.6100
 20
  5.5300
 30
0.0
 0
VERTEX
 8
PARTS
 10
  1.7900
 20
  5.5300
 30
0.0
 0
SEQEND
 8
PARTS
 0
POLYLINE
 8
PARTS
 66
1
 10
0.0
 20
0.0
 30
0.0
 0
VERTEX
 8
PARTS
 10
  1.6100
 20
  5.5800
 30
0.0
 0
VERTEX
 8
PARTS
 10
  1.7900
 20
  5.5800
 30
0.0
 0
SEQEND
 8
PARTS
 0
POLYLINE
 8
PARTS
 66
1
 10
0.0
 20
0.0
 30
0.0
 0
VERTEX
 8
PARTS
 10
  1.7000
 20
  5.5000
 30
0.0
 0
VERTEX
 8
PARTS
 10
  1.7000
 20
  5.5300
 30
0.0
 0
SEQEND
 8
PARTS
 0
TEXT
 8
PARTTEXT
 10
  7.7900
 20
  3.4186
 30
0.0
 40
  0.0514
 1
C85
 0
TEXT
 8
PARTTEXT
 10
  7.7900
 20
  3.3286
 30
0.0
 40
  0.0514
 1
10uF
 0
LINE
 8
PARTS
 10
  7.6000
 20
  3.6000
 30
0.0
 11
  7.6000
 21
  3.5000
 31
0.0
 0
LINE
 8
PARTS
 10
  7.6000
 20
  3.3000
 30
0.0
 11
  7.6000
 21
  3.4000
 31
0.0
 0
POLYLINE
 8
PARTS
 66
1
 10
0.0
 20
0.0
 30
0.0
 0
VERTEX
 8
PARTS
 10
  7.6000
 20
  3.5000
 30
0.0
 0
VERTEX
 8
PARTS
 10
  7.6000
 20
  3.4800
 30
0.0
 0
SEQEND
 8
PARTS
 0
POLYLINE
 8
PARTS
 66
1
 10
0.0
 20
0.0
 30
0.0
 0
VERTEX
 8
PARTS
 10
  7.5100
 20
  3.4300
 30
0.0
 0
VERTEX
 8
PARTS
 10
  7.6900
 20
  3.4300
 30
0.0
 0
SEQEND
 8
PARTS
 0
POLYLINE
 8
PARTS
 66
1
 10
0.0
 20
0.0
 30
0.0
 0
VERTEX
 8
PARTS
 10
  7.5100
 20
  3.4800
 30
0.0
 0
VERTEX
 8
PARTS
 10
  7.6900
 20
  3.4800
 30
0.0
 0
SEQEND
 8
PARTS
 0
POLYLINE
 8
PARTS
 66
1
 10
0.0
 20
0.0
 30
0.0
 0
VERTEX
 8
PARTS
 10
  7.6000
 20
  3.4000
 30
0.0
 0
VERTEX
 8
PARTS
 10
  7.6000
 20
  3.4300
 30
0.0
 0
SEQEND
 8
PARTS
 0
TEXT
 8
PARTTEXT
 10
  3.9000
 20
  4.3586
 30
0.0
 40
  0.0514
 1
TP5
 0
TEXT
 8
PARTTEXT
 10
  3.9000
 20
  4.2386
 30
0.0
 40
  0.0514
 1
AGND
 0
LINE
 8
PARTS
 10
  4.0000
 20
  3.8000
 30
0.0
 11
  4.0000
 21
  4.1000
 31
0.0
 0
TEXT
 8
PARTS
 10
  3.9700
 20
  3.9800
 30
0.0
 40
  0.0500
 50
 90.0000
 1
1
 0
POLYLINE
 8
PARTS
 66
1
 70
1
 10
0.0
 20
0.0
 30
0.0
 0
VERTEX
 8
PARTS
 10
  3.9000
 20
  4.1000
 30
0.0
 0
VERTEX
 8
PARTS
 10
  3.9000
 20
  4.2000
 30
0.0
 0
VERTEX
 8
PARTS
 10
  4.1000
 20
  4.2000
 30
0.0
 0
VERTEX
 8
PARTS
 10
  4.1000
 20
  4.1000
 30
0.0
 0
SEQEND
 8
PARTS
 0
TEXT
 8
PARTTEXT
 10
  3.4000
 20
  3.1586
 30
0.0
 40
  0.0514
 1
TP9
 0
TEXT
 8
PARTTEXT
 10
  3.4000
 20
  3.0386
 30
0.0
 40
  0.0514
 1
AGND
 0
LINE
 8
PARTS
 10
  3.5000
 20
  2.6000
 30
0.0
 11
  3.5000
 21
  2.9000
 31
0.0
 0
TEXT
 8
PARTS
 10
  3.4700
 20
  2.7800
 30
0.0
 40
  0.0500
 50
 90.0000
 1
1
 0
POLYLINE
 8
PARTS
 66
1
 70
1
 10
0.0
 20
0.0
 30
0.0
 0
VERTEX
 8
PARTS
 10
  3.4000
 20
  2.9000
 30
0.0
 0
VERTEX
 8
PARTS
 10
  3.4000
 20
  3.0000
 30
0.0
 0
VERTEX
 8
PARTS
 10
  3.6000
 20
  3.0000
 30
0.0
 0
VERTEX
 8
PARTS
 10
  3.6000
 20
  2.9000
 30
0.0
 0
SEQEND
 8
PARTS
 0
TEXT
 8
PARTTEXT
 10
  5.8000
 20
  6.8586
 30
0.0
 40
  0.0514
 1
J83
 0
TEXT
 8
PARTTEXT
 10
  5.8000
 20
  6.7386
 30
0.0
 40
  0.0514
 1
DVDD
 0
LINE
 8
PARTS
 10
  6.0000
 20
  6.2000
 30
0.0
 11
  6.0000
 21
  6.5000
 31
0.0
 0
TEXT
 8
PARTS
 10
  5.9700
 20
  6.3800
 30
0.0
 40
  0.0500
 50
 90.0000
 1
1
 0
POLYLINE
 8
PARTS
 66
1
 70
1
 10
0.0
 20
0.0
 30
0.0
 0
VERTEX
 8
PARTS
 10
  6.1000
 20
  6.7000
 30
0.0
 0
VERTEX
 8
PARTS
 10
  6.1000
 20
  6.5000
 30
0.0
 0
VERTEX
 8
PARTS
 10
  5.9000
 20
  6.5000
 30
0.0
 0
VERTEX
 8
PARTS
 10
  5.9000
 20
  6.7000
 30
0.0
 0
SEQEND
 8
PARTS
 0
POLYLINE
 8
PARTS
 66
1
 10
0.0
 20
0.0
 30
0.0
 0
VERTEX
 8
PARTS
 10
  6.1000
 20
  6.5500
 30
0.0
 0
VERTEX
 8
PARTS
 10
  6.1000
 20
  6.5500
 30
0.0
 0
VERTEX
 8
PARTS
 10
  6.1300
 20
  6.5500
 30
0.0
 0
VERTEX
 8
PARTS
 10
  6.1300
 20
  6.6400
 30
0.0
 0
VERTEX
 8
PARTS
 10
  6.1000
 20
  6.6400
 30
0.0
 0
SEQEND
 8
PARTS
 0
POLYLINE
 8
PARTS
 66
1
 10
0.0
 20
0.0
 30
0.0
 0
VERTEX
 8
PARTS
 10
  5.9000
 20
  6.6400
 30
0.0
 0
VERTEX
 8
PARTS
 10
  5.9000
 20
  6.6400
 30
0.0
 0
VERTEX
 8
PARTS
 10
  5.8700
 20
  6.6400
 30
0.0
 0
VERTEX
 8
PARTS
 10
  5.8700
 20
  6.5500
 30
0.0
 0
VERTEX
 8
PARTS
 10
  5.9000
 20
  6.5500
 30
0.0
 0
SEQEND
 8
PARTS
 0
TEXT
 8
PARTTEXT
 10
  6.3000
 20
  3.0186
 30
0.0
 40
  0.0514
 1
SW1
 0
TEXT
 8
PARTTEXT
 10
  6.3000
 20
  2.9186
 30
0.0
 40
  0.0514
 1
SW_TC_SPST
 0
LINE
 8
PARTS
 10
  5.6000
 20
  3.2000
 30
0.0
 11
  5.6000
 21
  3.1000
 31
0.0
 0
TEXT
 8
PARTS
 10
  5.5700
 20
  3.1600
 30
0.0
 40
  0.0500
 50
 90.0000
 1
1
 0
LINE
 8
PARTS
 10
  6.1000
 20
  3.2000
 30
0.0
 11
  6.1000
 21
  3.1000
 31
0.0
 0
TEXT
 8
PARTS
 10
  6.0700
 20
  3.1600
 30
0.0
 40
  0.0500
 50
 90.0000
 1
4
 0
LINE
 8
PARTS
 10
  5.6000
 20
  2.8000
 30
0.0
 11
  5.6000
 21
  2.9000
 31
0.0
 0
TEXT
 8
PARTS
 10
  5.5700
 20
  2.7800
 30
0.0
 40
  0.0500
 50
 90.0000
 1
2
 0
LINE
 8
PARTS
 10
  6.1000
 20
  2.8000
 30
0.0
 11
  6.1000
 21
  2.9000
 31
0.0
 0
TEXT
 8
PARTS
 10
  6.0700
 20
  2.7800
 30
0.0
 40
  0.0500
 50
 90.0000
 1
3
 0
POLYLINE
 8
PARTS
 66
1
 10
0.0
 20
0.0
 30
0.0
 0
VERTEX
 8
PARTS
 10
  5.7000
 20
  3.0600
 30
0.0
 0
VERTEX
 8
PARTS
 10
  6.0000
 20
  3.0600
 30
0.0
 0
SEQEND
 8
PARTS
 0
POLYLINE
 8
PARTS
 66
1
 10
0.0
 20
0.0
 30
0.0
 0
VERTEX
 8
PARTS
 10
  6.0000
 20
  3.0600
 30
0.0
 0
VERTEX
 8
PARTS
 10
  6.0000
 20
  3.0700
 30
0.0
 0
SEQEND
 8
PARTS
 0
POLYLINE
 8
PARTS
 66
1
 10
0.0
 20
0.0
 30
0.0
 0
VERTEX
 8
PARTS
 10
  6.0000
 20
  3.0700
 30
0.0
 0
VERTEX
 8
PARTS
 10
  5.8800
 20
  3.0700
 30
0.0
 0
SEQEND
 8
PARTS
 0
POLYLINE
 8
PARTS
 66
1
 10
0.0
 20
0.0
 30
0.0
 0
VERTEX
 8
PARTS
 10
  5.8800
 20
  3.0700
 30
0.0
 0
VERTEX
 8
PARTS
 10
  5.8800
 20
  3.1000
 30
0.0
 0
SEQEND
 8
PARTS
 0
POLYLINE
 8
PARTS
 66
1
 10
0.0
 20
0.0
 30
0.0
 0
VERTEX
 8
PARTS
 10
  5.8800
 20
  3.1000
 30
0.0
 0
VERTEX
 8
PARTS
 10
  5.8200
 20
  3.1000
 30
0.0
 0
SEQEND
 8
PARTS
 0
POLYLINE
 8
PARTS
 66
1
 10
0.0
 20
0.0
 30
0.0
 0
VERTEX
 8
PARTS
 10
  5.8200
 20
  3.1000
 30
0.0
 0
VERTEX
 8
PARTS
 10
  5.8200
 20
  3.0700
 30
0.0
 0
SEQEND
 8
PARTS
 0
POLYLINE
 8
PARTS
 66
1
 10
0.0
 20
0.0
 30
0.0
 0
VERTEX
 8
PARTS
 10
  5.8200
 20
  3.0700
 30
0.0
 0
VERTEX
 8
PARTS
 10
  5.7000
 20
  3.0700
 30
0.0
 0
SEQEND
 8
PARTS
 0
POLYLINE
 8
PARTS
 66
1
 10
0.0
 20
0.0
 30
0.0
 0
VERTEX
 8
PARTS
 10
  5.7000
 20
  3.0700
 30
0.0
 0
VERTEX
 8
PARTS
 10
  5.7000
 20
  3.0600
 30
0.0
 0
SEQEND
 8
PARTS
 0
POLYLINE
 8
PARTS
 66
1
 70
1
 10
0.0
 20
0.0
 30
0.0
 0
VERTEX
 8
PARTS
 10
  5.7600
 20
  3.0000
 30
0.0
 42
  0.0985
 0
VERTEX
 8
PARTS
 10
  5.7577
 20
  3.0115
 30
0.0
 42
  0.0985
 0
VERTEX
 8
PARTS
 10
  5.7512
 20
  3.0212
 30
0.0
 42
  0.0985
 0
VERTEX
 8
PARTS
 10
  5.7415
 20
  3.0277
 30
0.0
 42
  0.0985
 0
VERTEX
 8
PARTS
 10
  5.7300
 20
  3.0300
 30
0.0
 42
  0.0985
 0
VERTEX
 8
PARTS
 10
  5.7185
 20
  3.0277
 30
0.0
 42
  0.0985
 0
VERTEX
 8
PARTS
 10
  5.7088
 20
  3.0212
 30
0.0
 42
  0.0985
 0
VERTEX
 8
PARTS
 10
  5.7023
 20
  3.0115
 30
0.0
 42
  0.0985
 0
VERTEX
 8
PARTS
 10
  5.7000
 20
  3.0000
 30
0.0
 42
  0.0985
 0
VERTEX
 8
PARTS
 10
  5.7023
 20
  2.9885
 30
0.0
 42
  0.0985
 0
VERTEX
 8
PARTS
 10
  5.7088
 20
  2.9788
 30
0.0
 42
  0.0985
 0
VERTEX
 8
PARTS
 10
  5.7185
 20
  2.9723
 30
0.0
 42
  0.0985
 0
VERTEX
 8
PARTS
 10
  5.7300
 20
  2.9700
 30
0.0
 42
  0.0985
 0
VERTEX
 8
PARTS
 10
  5.7415
 20
  2.9723
 30
0.0
 42
  0.0985
 0
VERTEX
 8
PARTS
 10
  5.7512
 20
  2.9788
 30
0.0
 42
  0.0985
 0
VERTEX
 8
PARTS
 10
  5.7577
 20
  2.9885
 30
0.0
 42
  0.0985
 0
SEQEND
 8
PARTS
 0
POLYLINE
 8
PARTS
 66
1
 70
1
 10
0.0
 20
0.0
 30
0.0
 0
VERTEX
 8
PARTS
 10
  6.0000
 20
  3.0000
 30
0.0
 42
  0.0985
 0
VERTEX
 8
PARTS
 10
  5.9977
 20
  3.0115
 30
0.0
 42
  0.0985
 0
VERTEX
 8
PARTS
 10
  5.9912
 20
  3.0212
 30
0.0
 42
  0.0985
 0
VERTEX
 8
PARTS
 10
  5.9815
 20
  3.0277
 30
0.0
 42
  0.0985
 0
VERTEX
 8
PARTS
 10
  5.9700
 20
  3.0300
 30
0.0
 42
  0.0985
 0
VERTEX
 8
PARTS
 10
  5.9585
 20
  3.0277
 30
0.0
 42
  0.0985
 0
VERTEX
 8
PARTS
 10
  5.9488
 20
  3.0212
 30
0.0
 42
  0.0985
 0
VERTEX
 8
PARTS
 10
  5.9423
 20
  3.0115
 30
0.0
 42
  0.0985
 0
VERTEX
 8
PARTS
 10
  5.9400
 20
  3.0000
 30
0.0
 42
  0.0985
 0
VERTEX
 8
PARTS
 10
  5.9423
 20
  2.9885
 30
0.0
 42
  0.0985
 0
VERTEX
 8
PARTS
 10
  5.9488
 20
  2.9788
 30
0.0
 42
  0.0985
 0
VERTEX
 8
PARTS
 10
  5.9585
 20
  2.9723
 30
0.0
 42
  0.0985
 0
VERTEX
 8
PARTS
 10
  5.9700
 20
  2.9700
 30
0.0
 42
  0.0985
 0
VERTEX
 8
PARTS
 10
  5.9815
 20
  2.9723
 30
0.0
 42
  0.0985
 0
VERTEX
 8
PARTS
 10
  5.9912
 20
  2.9788
 30
0.0
 42
  0.0985
 0
VERTEX
 8
PARTS
 10
  5.9977
 20
  2.9885
 30
0.0
 42
  0.0985
 0
SEQEND
 8
PARTS
 0
POLYLINE
 8
PARTS
 66
1
 10
0.0
 20
0.0
 30
0.0
 0
VERTEX
 8
PARTS
 10
  5.7000
 20
  3.0000
 30
0.0
 0
VERTEX
 8
PARTS
 10
  5.6000
 20
  3.0000
 30
0.0
 0
SEQEND
 8
PARTS
 0
POLYLINE
 8
PARTS
 66
1
 10
0.0
 20
0.0
 30
0.0
 0
VERTEX
 8
PARTS
 10
  5.6000
 20
  3.1000
 30
0.0
 0
VERTEX
 8
PARTS
 10
  5.6000
 20
  2.9000
 30
0.0
 0
SEQEND
 8
PARTS
 0
POLYLINE
 8
PARTS
 66
1
 10
0.0
 20
0.0
 30
0.0
 0
VERTEX
 8
PARTS
 10
  6.0000
 20
  3.0000
 30
0.0
 0
VERTEX
 8
PARTS
 10
  6.1000
 20
  3.0000
 30
0.0
 0
SEQEND
 8
PARTS
 0
POLYLINE
 8
PARTS
 66
1
 10
0.0
 20
0.0
 30
0.0
 0
VERTEX
 8
PARTS
 10
  6.1000
 20
  3.1000
 30
0.0
 0
VERTEX
 8
PARTS
 10
  6.1000
 20
  2.9000
 30
0.0
 0
SEQEND
 8
PARTS
 0
POLYLINE
 8
PARTS
 66
1
 70
1
 10
0.0
 20
0.0
 30
0.0
 0
VERTEX
 8
PARTS
 10
  6.1200
 20
  3.0000
 30
0.0
 42
  0.0985
 0
VERTEX
 8
PARTS
 10
  6.1185
 20
  3.0077
 30
0.0
 42
  0.0985
 0
VERTEX
 8
PARTS
 10
  6.1141
 20
  3.0141
 30
0.0
 42
  0.0985
 0
VERTEX
 8
PARTS
 10
  6.1077
 20
  3.0185
 30
0.0
 42
  0.0985
 0
VERTEX
 8
PARTS
 10
  6.1000
 20
  3.0200
 30
0.0
 42
  0.0985
 0
VERTEX
 8
PARTS
 10
  6.0923
 20
  3.0185
 30
0.0
 42
  0.0985
 0
VERTEX
 8
PARTS
 10
  6.0859
 20
  3.0141
 30
0.0
 42
  0.0985
 0
VERTEX
 8
PARTS
 10
  6.0815
 20
  3.0077
 30
0.0
 42
  0.0985
 0
VERTEX
 8
PARTS
 10
  6.0800
 20
  3.0000
 30
0.0
 42
  0.0985
 0
VERTEX
 8
PARTS
 10
  6.0815
 20
  2.9923
 30
0.0
 42
  0.0985
 0
VERTEX
 8
PARTS
 10
  6.0859
 20
  2.9859
 30
0.0
 42
  0.0985
 0
VERTEX
 8
PARTS
 10
  6.0923
 20
  2.9815
 30
0.0
 42
  0.0985
 0
VERTEX
 8
PARTS
 10
  6.1000
 20
  2.9800
 30
0.0
 42
  0.0985
 0
VERTEX
 8
PARTS
 10
  6.1077
 20
  2.9815
 30
0.0
 42
  0.0985
 0
VERTEX
 8
PARTS
 10
  6.1141
 20
  2.9859
 30
0.0
 42
  0.0985
 0
VERTEX
 8
PARTS
 10
  6.1185
 20
  2.9923
 30
0.0
 42
  0.0985
 0
SEQEND
 8
PARTS
 0
POLYLINE
 8
PARTS
 66
1
 70
1
 10
0.0
 20
0.0
 30
0.0
 0
VERTEX
 8
PARTS
 10
  5.6200
 20
  3.0000
 30
0.0
 42
  0.0985
 0
VERTEX
 8
PARTS
 10
  5.6185
 20
  3.0077
 30
0.0
 42
  0.0985
 0
VERTEX
 8
PARTS
 10
  5.6141
 20
  3.0141
 30
0.0
 42
  0.0985
 0
VERTEX
 8
PARTS
 10
  5.6077
 20
  3.0185
 30
0.0
 42
  0.0985
 0
VERTEX
 8
PARTS
 10
  5.6000
 20
  3.0200
 30
0.0
 42
  0.0985
 0
VERTEX
 8
PARTS
 10
  5.5923
 20
  3.0185
 30
0.0
 42
  0.0985
 0
VERTEX
 8
PARTS
 10
  5.5859
 20
  3.0141
 30
0.0
 42
  0.0985
 0
VERTEX
 8
PARTS
 10
  5.5815
 20
  3.0077
 30
0.0
 42
  0.0985
 0
VERTEX
 8
PARTS
 10
  5.5800
 20
  3.0000
 30
0.0
 42
  0.0985
 0
VERTEX
 8
PARTS
 10
  5.5815
 20
  2.9923
 30
0.0
 42
  0.0985
 0
VERTEX
 8
PARTS
 10
  5.5859
 20
  2.9859
 30
0.0
 42
  0.0985
 0
VERTEX
 8
PARTS
 10
  5.5923
 20
  2.9815
 30
0.0
 42
  0.0985
 0
VERTEX
 8
PARTS
 10
  5.6000
 20
  2.9800
 30
0.0
 42
  0.0985
 0
VERTEX
 8
PARTS
 10
  5.6077
 20
  2.9815
 30
0.0
 42
  0.0985
 0
VERTEX
 8
PARTS
 10
  5.6141
 20
  2.9859
 30
0.0
 42
  0.0985
 0
VERTEX
 8
PARTS
 10
  5.6185
 20
  2.9923
 30
0.0
 42
  0.0985
 0
SEQEND
 8
PARTS
 0
TEXT
 8
PARTTEXT
 10
  1.1900
 20
  5.5186
 30
0.0
 40
  0.0514
 1
C74
 0
TEXT
 8
PARTTEXT
 10
  1.1900
 20
  5.4286
 30
0.0
 40
  0.0514
 1
10uF
 0
LINE
 8
PARTS
 10
  1.0000
 20
  5.7000
 30
0.0
 11
  1.0000
 21
  5.6000
 31
0.0
 0
LINE
 8
PARTS
 10
  1.0000
 20
  5.4000
 30
0.0
 11
  1.0000
 21
  5.5000
 31
0.0
 0
POLYLINE
 8
PARTS
 66
1
 10
0.0
 20
0.0
 30
0.0
 0
VERTEX
 8
PARTS
 10
  1.0000
 20
  5.6000
 30
0.0
 0
VERTEX
 8
PARTS
 10
  1.0000
 20
  5.5800
 30
0.0
 0
SEQEND
 8
PARTS
 0
POLYLINE
 8
PARTS
 66
1
 10
0.0
 20
0.0
 30
0.0
 0
VERTEX
 8
PARTS
 10
  0.9100
 20
  5.5300
 30
0.0
 0
VERTEX
 8
PARTS
 10
  1.0900
 20
  5.5300
 30
0.0
 0
SEQEND
 8
PARTS
 0
POLYLINE
 8
PARTS
 66
1
 10
0.0
 20
0.0
 30
0.0
 0
VERTEX
 8
PARTS
 10
  0.9100
 20
  5.5800
 30
0.0
 0
VERTEX
 8
PARTS
 10
  1.0900
 20
  5.5800
 30
0.0
 0
SEQEND
 8
PARTS
 0
POLYLINE
 8
PARTS
 66
1
 10
0.0
 20
0.0
 30
0.0
 0
VERTEX
 8
PARTS
 10
  1.0000
 20
  5.5000
 30
0.0
 0
VERTEX
 8
PARTS
 10
  1.0000
 20
  5.5300
 30
0.0
 0
SEQEND
 8
PARTS
 0
TEXT
 8
PARTTEXT
 10
  6.8900
 20
  5.5186
 30
0.0
 40
  0.0514
 1
C77
 0
TEXT
 8
PARTTEXT
 10
  6.8900
 20
  5.4286
 30
0.0
 40
  0.0514
 1
0.22uF
 0
LINE
 8
PARTS
 10
  6.7000
 20
  5.7000
 30
0.0
 11
  6.7000
 21
  5.6000
 31
0.0
 0
LINE
 8
PARTS
 10
  6.7000
 20
  5.4000
 30
0.0
 11
  6.7000
 21
  5.5000
 31
0.0
 0
POLYLINE
 8
PARTS
 66
1
 10
0.0
 20
0.0
 30
0.0
 0
VERTEX
 8
PARTS
 10
  6.7000
 20
  5.6000
 30
0.0
 0
VERTEX
 8
PARTS
 10
  6.7000
 20
  5.5800
 30
0.0
 0
SEQEND
 8
PARTS
 0
POLYLINE
 8
PARTS
 66
1
 10
0.0
 20
0.0
 30
0.0
 0
VERTEX
 8
PARTS
 10
  6.6100
 20
  5.5300
 30
0.0
 0
VERTEX
 8
PARTS
 10
  6.7900
 20
  5.5300
 30
0.0
 0
SEQEND
 8
PARTS
 0
POLYLINE
 8
PARTS
 66
1
 10
0.0
 20
0.0
 30
0.0
 0
VERTEX
 8
PARTS
 10
  6.6100
 20
  5.5800
 30
0.0
 0
VERTEX
 8
PARTS
 10
  6.7900
 20
  5.5800
 30
0.0
 0
SEQEND
 8
PARTS
 0
POLYLINE
 8
PARTS
 66
1
 10
0.0
 20
0.0
 30
0.0
 0
VERTEX
 8
PARTS
 10
  6.7000
 20
  5.5000
 30
0.0
 0
VERTEX
 8
PARTS
 10
  6.7000
 20
  5.5300
 30
0.0
 0
SEQEND
 8
PARTS
 0
TEXT
 8
PARTTEXT
 10
  3.9000
 20
  3.1586
 30
0.0
 40
  0.0514
 1
TP10
 0
TEXT
 8
PARTTEXT
 10
  3.9000
 20
  3.0386
 30
0.0
 40
  0.0514
 1
AGND
 0
LINE
 8
PARTS
 10
  4.0000
 20
  2.6000
 30
0.0
 11
  4.0000
 21
  2.9000
 31
0.0
 0
TEXT
 8
PARTS
 10
  3.9700
 20
  2.7800
 30
0.0
 40
  0.0500
 50
 90.0000
 1
1
 0
POLYLINE
 8
PARTS
 66
1
 70
1
 10
0.0
 20
0.0
 30
0.0
 0
VERTEX
 8
PARTS
 10
  3.9000
 20
  2.9000
 30
0.0
 0
VERTEX
 8
PARTS
 10
  3.9000
 20
  3.0000
 30
0.0
 0
VERTEX
 8
PARTS
 10
  4.1000
 20
  3.0000
 30
0.0
 0
VERTEX
 8
PARTS
 10
  4.1000
 20
  2.9000
 30
0.0
 0
SEQEND
 8
PARTS
 0
TEXT
 8
PARTTEXT
 10
  0.8000
 20
  6.8586
 30
0.0
 40
  0.0514
 1
J81
 0
TEXT
 8
PARTTEXT
 10
  0.8000
 20
  6.7386
 30
0.0
 40
  0.0514
 1
VDD
 0
LINE
 8
PARTS
 10
  1.0000
 20
  6.2000
 30
0.0
 11
  1.0000
 21
  6.5000
 31
0.0
 0
TEXT
 8
PARTS
 10
  0.9700
 20
  6.3800
 30
0.0
 40
  0.0500
 50
 90.0000
 1
1
 0
POLYLINE
 8
PARTS
 66
1
 70
1
 10
0.0
 20
0.0
 30
0.0
 0
VERTEX
 8
PARTS
 10
  1.1000
 20
  6.7000
 30
0.0
 0
VERTEX
 8
PARTS
 10
  1.1000
 20
  6.5000
 30
0.0
 0
VERTEX
 8
PARTS
 10
  0.9000
 20
  6.5000
 30
0.0
 0
VERTEX
 8
PARTS
 10
  0.9000
 20
  6.7000
 30
0.0
 0
SEQEND
 8
PARTS
 0
POLYLINE
 8
PARTS
 66
1
 10
0.0
 20
0.0
 30
0.0
 0
VERTEX
 8
PARTS
 10
  1.1000
 20
  6.5500
 30
0.0
 0
VERTEX
 8
PARTS
 10
  1.1000
 20
  6.5500
 30
0.0
 0
VERTEX
 8
PARTS
 10
  1.1300
 20
  6.5500
 30
0.0
 0
VERTEX
 8
PARTS
 10
  1.1300
 20
  6.6400
 30
0.0
 0
VERTEX
 8
PARTS
 10
  1.1000
 20
  6.6400
 30
0.0
 0
SEQEND
 8
PARTS
 0
POLYLINE
 8
PARTS
 66
1
 10
0.0
 20
0.0
 30
0.0
 0
VERTEX
 8
PARTS
 10
  0.9000
 20
  6.6400
 30
0.0
 0
VERTEX
 8
PARTS
 10
  0.9000
 20
  6.6400
 30
0.0
 0
VERTEX
 8
PARTS
 10
  0.8700
 20
  6.6400
 30
0.0
 0
VERTEX
 8
PARTS
 10
  0.8700
 20
  6.5500
 30
0.0
 0
VERTEX
 8
PARTS
 10
  0.9000
 20
  6.5500
 30
0.0
 0
SEQEND
 8
PARTS
 0
TEXT
 8
PARTTEXT
 10
  4.9900
 20
  5.5186
 30
0.0
 40
  0.0514
 1
C75
 0
TEXT
 8
PARTTEXT
 10
  4.9900
 20
  5.4286
 30
0.0
 40
  0.0514
 1
0.22uF
 0
LINE
 8
PARTS
 10
  4.8000
 20
  5.7000
 30
0.0
 11
  4.8000
 21
  5.6000
 31
0.0
 0
LINE
 8
PARTS
 10
  4.8000
 20
  5.4000
 30
0.0
 11
  4.8000
 21
  5.5000
 31
0.0
 0
POLYLINE
 8
PARTS
 66
1
 10
0.0
 20
0.0
 30
0.0
 0
VERTEX
 8
PARTS
 10
  4.8000
 20
  5.6000
 30
0.0
 0
VERTEX
 8
PARTS
 10
  4.8000
 20
  5.5800
 30
0.0
 0
SEQEND
 8
PARTS
 0
POLYLINE
 8
PARTS
 66
1
 10
0.0
 20
0.0
 30
0.0
 0
VERTEX
 8
PARTS
 10
  4.7100
 20
  5.5300
 30
0.0
 0
VERTEX
 8
PARTS
 10
  4.8900
 20
  5.5300
 30
0.0
 0
SEQEND
 8
PARTS
 0
POLYLINE
 8
PARTS
 66
1
 10
0.0
 20
0.0
 30
0.0
 0
VERTEX
 8
PARTS
 10
  4.7100
 20
  5.5800
 30
0.0
 0
VERTEX
 8
PARTS
 10
  4.8900
 20
  5.5800
 30
0.0
 0
SEQEND
 8
PARTS
 0
POLYLINE
 8
PARTS
 66
1
 10
0.0
 20
0.0
 30
0.0
 0
VERTEX
 8
PARTS
 10
  4.8000
 20
  5.5000
 30
0.0
 0
VERTEX
 8
PARTS
 10
  4.8000
 20
  5.5300
 30
0.0
 0
SEQEND
 8
PARTS
 0
TEXT
 8
PARTTEXT
 10
  7.1000
 20
  3.5186
 30
0.0
 40
  0.0514
 1
R85
 0
TEXT
 8
PARTTEXT
 10
  7.1000
 20
  3.4186
 30
0.0
 40
  0.0514
 1
10K
 0
LINE
 8
PARTS
 10
  7.0000
 20
  3.7000
 30
0.0
 11
  7.0000
 21
  3.6000
 31
0.0
 0
LINE
 8
PARTS
 10
  7.0000
 20
  3.2000
 30
0.0
 11
  7.0000
 21
  3.3000
 31
0.0
 0
POLYLINE
 8
PARTS
 66
1
 10
0.0
 20
0.0
 30
0.0
 0
VERTEX
 8
PARTS
 10
  7.0000
 20
  3.6000
 30
0.0
 0
VERTEX
 8
PARTS
 10
  7.0300
 20
  3.5700
 30
0.0
 0
SEQEND
 8
PARTS
 0
POLYLINE
 8
PARTS
 66
1
 10
0.0
 20
0.0
 30
0.0
 0
VERTEX
 8
PARTS
 10
  7.0300
 20
  3.5700
 30
0.0
 0
VERTEX
 8
PARTS
 10
  6.9700
 20
  3.5100
 30
0.0
 0
SEQEND
 8
PARTS
 0
POLYLINE
 8
PARTS
 66
1
 10
0.0
 20
0.0
 30
0.0
 0
VERTEX
 8
PARTS
 10
  6.9700
 20
  3.5100
 30
0.0
 0
VERTEX
 8
PARTS
 10
  7.0300
 20
  3.4500
 30
0.0
 0
SEQEND
 8
PARTS
 0
POLYLINE
 8
PARTS
 66
1
 10
0.0
 20
0.0
 30
0.0
 0
VERTEX
 8
PARTS
 10
  7.0300
 20
  3.4500
 30
0.0
 0
VERTEX
 8
PARTS
 10
  6.9700
 20
  3.3900
 30
0.0
 0
SEQEND
 8
PARTS
 0
POLYLINE
 8
PARTS
 66
1
 10
0.0
 20
0.0
 30
0.0
 0
VERTEX
 8
PARTS
 10
  6.9700
 20
  3.3900
 30
0.0
 0
VERTEX
 8
PARTS
 10
  7.0300
 20
  3.3300
 30
0.0
 0
SEQEND
 8
PARTS
 0
POLYLINE
 8
PARTS
 66
1
 10
0.0
 20
0.0
 30
0.0
 0
VERTEX
 8
PARTS
 10
  7.0300
 20
  3.3300
 30
0.0
 0
VERTEX
 8
PARTS
 10
  7.0000
 20
  3.3000
 30
0.0
 0
SEQEND
 8
PARTS
 0
TEXT
 8
PARTTEXT
 10
  3.5000
 20
  2.0586
 30
0.0
 40
  0.0514
 1
J88
 0
TEXT
 8
PARTTEXT
 10
  3.5000
 20
  1.9386
 30
0.0
 40
  0.0514
 1
REF
 0
LINE
 8
PARTS
 10
  3.7000
 20
  1.4000
 30
0.0
 11
  3.7000
 21
  1.7000
 31
0.0
 0
TEXT
 8
PARTS
 10
  3.6700
 20
  1.5800
 30
0.0
 40
  0.0500
 50
 90.0000
 1
1
 0
POLYLINE
 8
PARTS
 66
1
 70
1
 10
0.0
 20
0.0
 30
0.0
 0
VERTEX
 8
PARTS
 10
  3.8000
 20
  1.9000
 30
0.0
 0
VERTEX
 8
PARTS
 10
  3.8000
 20
  1.7000
 30
0.0
 0
VERTEX
 8
PARTS
 10
  3.6000
 20
  1.7000
 30
0.0
 0
VERTEX
 8
PARTS
 10
  3.6000
 20
  1.9000
 30
0.0
 0
SEQEND
 8
PARTS
 0
POLYLINE
 8
PARTS
 66
1
 10
0.0
 20
0.0
 30
0.0
 0
VERTEX
 8
PARTS
 10
  3.8000
 20
  1.7500
 30
0.0
 0
VERTEX
 8
PARTS
 10
  3.8000
 20
  1.7500
 30
0.0
 0
VERTEX
 8
PARTS
 10
  3.8300
 20
  1.7500
 30
0.0
 0
VERTEX
 8
PARTS
 10
  3.8300
 20
  1.8400
 30
0.0
 0
VERTEX
 8
PARTS
 10
  3.8000
 20
  1.8400
 30
0.0
 0
SEQEND
 8
PARTS
 0
POLYLINE
 8
PARTS
 66
1
 10
0.0
 20
0.0
 30
0.0
 0
VERTEX
 8
PARTS
 10
  3.6000
 20
  1.8400
 30
0.0
 0
VERTEX
 8
PARTS
 10
  3.6000
 20
  1.8400
 30
0.0
 0
VERTEX
 8
PARTS
 10
  3.5700
 20
  1.8400
 30
0.0
 0
VERTEX
 8
PARTS
 10
  3.5700
 20
  1.7500
 30
0.0
 0
VERTEX
 8
PARTS
 10
  3.6000
 20
  1.7500
 30
0.0
 0
SEQEND
 8
PARTS
 0
TEXT
 8
PARTTEXT
 10
  4.7900
 20
  1.0186
 30
0.0
 40
  0.0514
 1
C83
 0
TEXT
 8
PARTTEXT
 10
  4.7900
 20
  0.9286
 30
0.0
 40
  0.0514
 1
4.7uF
 0
LINE
 8
PARTS
 10
  4.6000
 20
  1.2000
 30
0.0
 11
  4.6000
 21
  1.1000
 31
0.0
 0
LINE
 8
PARTS
 10
  4.6000
 20
  0.9000
 30
0.0
 11
  4.6000
 21
  1.0000
 31
0.0
 0
POLYLINE
 8
PARTS
 66
1
 10
0.0
 20
0.0
 30
0.0
 0
VERTEX
 8
PARTS
 10
  4.6000
 20
  1.1000
 30
0.0
 0
VERTEX
 8
PARTS
 10
  4.6000
 20
  1.0800
 30
0.0
 0
SEQEND
 8
PARTS
 0
POLYLINE
 8
PARTS
 66
1
 10
0.0
 20
0.0
 30
0.0
 0
VERTEX
 8
PARTS
 10
  4.5100
 20
  1.0300
 30
0.0
 0
VERTEX
 8
PARTS
 10
  4.6900
 20
  1.0300
 30
0.0
 0
SEQEND
 8
PARTS
 0
POLYLINE
 8
PARTS
 66
1
 10
0.0
 20
0.0
 30
0.0
 0
VERTEX
 8
PARTS
 10
  4.5100
 20
  1.0800
 30
0.0
 0
VERTEX
 8
PARTS
 10
  4.6900
 20
  1.0800
 30
0.0
 0
SEQEND
 8
PARTS
 0
POLYLINE
 8
PARTS
 66
1
 10
0.0
 20
0.0
 30
0.0
 0
VERTEX
 8
PARTS
 10
  4.6000
 20
  1.0000
 30
0.0
 0
VERTEX
 8
PARTS
 10
  4.6000
 20
  1.0300
 30
0.0
 0
SEQEND
 8
PARTS
 0
TEXT
 8
PARTTEXT
 10
  6.1900
 20
  5.5186
 30
0.0
 40
  0.0514
 1
C78
 0
TEXT
 8
PARTTEXT
 10
  6.1900
 20
  5.4286
 30
0.0
 40
  0.0514
 1
4.7uF
 0
LINE
 8
PARTS
 10
  6.0000
 20
  5.7000
 30
0.0
 11
  6.0000
 21
  5.6000
 31
0.0
 0
LINE
 8
PARTS
 10
  6.0000
 20
  5.4000
 30
0.0
 11
  6.0000
 21
  5.5000
 31
0.0
 0
POLYLINE
 8
PARTS
 66
1
 10
0.0
 20
0.0
 30
0.0
 0
VERTEX
 8
PARTS
 10
  6.0000
 20
  5.6000
 30
0.0
 0
VERTEX
 8
PARTS
 10
  6.0000
 20
  5.5800
 30
0.0
 0
SEQEND
 8
PARTS
 0
POLYLINE
 8
PARTS
 66
1
 10
0.0
 20
0.0
 30
0.0
 0
VERTEX
 8
PARTS
 10
  5.9100
 20
  5.5300
 30
0.0
 0
VERTEX
 8
PARTS
 10
  6.0900
 20
  5.5300
 30
0.0
 0
SEQEND
 8
PARTS
 0
POLYLINE
 8
PARTS
 66
1
 10
0.0
 20
0.0
 30
0.0
 0
VERTEX
 8
PARTS
 10
  5.9100
 20
  5.5800
 30
0.0
 0
VERTEX
 8
PARTS
 10
  6.0900
 20
  5.5800
 30
0.0
 0
SEQEND
 8
PARTS
 0
POLYLINE
 8
PARTS
 66
1
 10
0.0
 20
0.0
 30
0.0
 0
VERTEX
 8
PARTS
 10
  6.0000
 20
  5.5000
 30
0.0
 0
VERTEX
 8
PARTS
 10
  6.0000
 20
  5.5300
 30
0.0
 0
SEQEND
 8
PARTS
 0
TEXT
 8
PARTTEXT
 10
  4.2900
 20
  5.5186
 30
0.0
 40
  0.0514
 1
C76
 0
TEXT
 8
PARTTEXT
 10
  4.2900
 20
  5.4286
 30
0.0
 40
  0.0514
 1
4.7uF
 0
LINE
 8
PARTS
 10
  4.1000
 20
  5.7000
 30
0.0
 11
  4.1000
 21
  5.6000
 31
0.0
 0
LINE
 8
PARTS
 10
  4.1000
 20
  5.4000
 30
0.0
 11
  4.1000
 21
  5.5000
 31
0.0
 0
POLYLINE
 8
PARTS
 66
1
 10
0.0
 20
0.0
 30
0.0
 0
VERTEX
 8
PARTS
 10
  4.1000
 20
  5.6000
 30
0.0
 0
VERTEX
 8
PARTS
 10
  4.1000
 20
  5.5800
 30
0.0
 0
SEQEND
 8
PARTS
 0
POLYLINE
 8
PARTS
 66
1
 10
0.0
 20
0.0
 30
0.0
 0
VERTEX
 8
PARTS
 10
  4.0100
 20
  5.5300
 30
0.0
 0
VERTEX
 8
PARTS
 10
  4.1900
 20
  5.5300
 30
0.0
 0
SEQEND
 8
PARTS
 0
POLYLINE
 8
PARTS
 66
1
 10
0.0
 20
0.0
 30
0.0
 0
VERTEX
 8
PARTS
 10
  4.0100
 20
  5.5800
 30
0.0
 0
VERTEX
 8
PARTS
 10
  4.1900
 20
  5.5800
 30
0.0
 0
SEQEND
 8
PARTS
 0
POLYLINE
 8
PARTS
 66
1
 10
0.0
 20
0.0
 30
0.0
 0
VERTEX
 8
PARTS
 10
  4.1000
 20
  5.5000
 30
0.0
 0
VERTEX
 8
PARTS
 10
  4.1000
 20
  5.5300
 30
0.0
 0
SEQEND
 8
PARTS
 0
TEXT
 8
PARTTEXT
 10
  1.9000
 20
  4.3586
 30
0.0
 40
  0.0514
 1
TP1
 0
TEXT
 8
PARTTEXT
 10
  1.9000
 20
  4.2386
 30
0.0
 40
  0.0514
 1
AGND
 0
LINE
 8
PARTS
 10
  2.0000
 20
  3.8000
 30
0.0
 11
  2.0000
 21
  4.1000
 31
0.0
 0
TEXT
 8
PARTS
 10
  1.9700
 20
  3.9800
 30
0.0
 40
  0.0500
 50
 90.0000
 1
1
 0
POLYLINE
 8
PARTS
 66
1
 70
1
 10
0.0
 20
0.0
 30
0.0
 0
VERTEX
 8
PARTS
 10
  1.9000
 20
  4.1000
 30
0.0
 0
VERTEX
 8
PARTS
 10
  1.9000
 20
  4.2000
 30
0.0
 0
VERTEX
 8
PARTS
 10
  2.1000
 20
  4.2000
 30
0.0
 0
VERTEX
 8
PARTS
 10
  2.1000
 20
  4.1000
 30
0.0
 0
SEQEND
 8
PARTS
 0
TEXT
 8
PARTTEXT
 10
  4.1900
 20
  1.0186
 30
0.0
 40
  0.0514
 1
C81
 0
TEXT
 8
PARTTEXT
 10
  4.1900
 20
  0.9286
 30
0.0
 40
  0.0514
 1
0.1uF
 0
LINE
 8
PARTS
 10
  4.0000
 20
  1.2000
 30
0.0
 11
  4.0000
 21
  1.1000
 31
0.0
 0
LINE
 8
PARTS
 10
  4.0000
 20
  0.9000
 30
0.0
 11
  4.0000
 21
  1.0000
 31
0.0
 0
POLYLINE
 8
PARTS
 66
1
 10
0.0
 20
0.0
 30
0.0
 0
VERTEX
 8
PARTS
 10
  4.0000
 20
  1.1000
 30
0.0
 0
VERTEX
 8
PARTS
 10
  4.0000
 20
  1.0800
 30
0.0
 0
SEQEND
 8
PARTS
 0
POLYLINE
 8
PARTS
 66
1
 10
0.0
 20
0.0
 30
0.0
 0
VERTEX
 8
PARTS
 10
  3.9100
 20
  1.0300
 30
0.0
 0
VERTEX
 8
PARTS
 10
  4.0900
 20
  1.0300
 30
0.0
 0
SEQEND
 8
PARTS
 0
POLYLINE
 8
PARTS
 66
1
 10
0.0
 20
0.0
 30
0.0
 0
VERTEX
 8
PARTS
 10
  3.9100
 20
  1.0800
 30
0.0
 0
VERTEX
 8
PARTS
 10
  4.0900
 20
  1.0800
 30
0.0
 0
SEQEND
 8
PARTS
 0
POLYLINE
 8
PARTS
 66
1
 10
0.0
 20
0.0
 30
0.0
 0
VERTEX
 8
PARTS
 10
  4.0000
 20
  1.0000
 30
0.0
 0
VERTEX
 8
PARTS
 10
  4.0000
 20
  1.0300
 30
0.0
 0
SEQEND
 8
PARTS
 0
TEXT
 8
PARTTEXT
 10
  2.4000
 20
  4.3586
 30
0.0
 40
  0.0514
 1
TP2
 0
TEXT
 8
PARTTEXT
 10
  2.4000
 20
  4.2386
 30
0.0
 40
  0.0514
 1
AGND
 0
LINE
 8
PARTS
 10
  2.5000
 20
  3.8000
 30
0.0
 11
  2.5000
 21
  4.1000
 31
0.0
 0
TEXT
 8
PARTS
 10
  2.4700
 20
  3.9800
 30
0.0
 40
  0.0500
 50
 90.0000
 1
1
 0
POLYLINE
 8
PARTS
 66
1
 70
1
 10
0.0
 20
0.0
 30
0.0
 0
VERTEX
 8
PARTS
 10
  2.4000
 20
  4.1000
 30
0.0
 0
VERTEX
 8
PARTS
 10
  2.4000
 20
  4.2000
 30
0.0
 0
VERTEX
 8
PARTS
 10
  2.6000
 20
  4.2000
 30
0.0
 0
VERTEX
 8
PARTS
 10
  2.6000
 20
  4.1000
 30
0.0
 0
SEQEND
 8
PARTS
 0
TEXT
 8
PARTTEXT
 10
  1.9000
 20
  3.1586
 30
0.0
 40
  0.0514
 1
TP6
 0
TEXT
 8
PARTTEXT
 10
  1.9000
 20
  3.0386
 30
0.0
 40
  0.0514
 1
AGND
 0
LINE
 8
PARTS
 10
  2.0000
 20
  2.6000
 30
0.0
 11
  2.0000
 21
  2.9000
 31
0.0
 0
TEXT
 8
PARTS
 10
  1.9700
 20
  2.7800
 30
0.0
 40
  0.0500
 50
 90.0000
 1
1
 0
POLYLINE
 8
PARTS
 66
1
 70
1
 10
0.0
 20
0.0
 30
0.0
 0
VERTEX
 8
PARTS
 10
  1.9000
 20
  2.9000
 30
0.0
 0
VERTEX
 8
PARTS
 10
  1.9000
 20
  3.0000
 30
0.0
 0
VERTEX
 8
PARTS
 10
  2.1000
 20
  3.0000
 30
0.0
 0
VERTEX
 8
PARTS
 10
  2.1000
 20
  2.9000
 30
0.0
 0
SEQEND
 8
PARTS
 0
TEXT
 8
PARTTEXT
 10
  2.7000
 20
  2.0586
 30
0.0
 40
  0.0514
 1
J87
 0
TEXT
 8
PARTTEXT
 10
  2.7000
 20
  1.9386
 30
0.0
 40
  0.0514
 1
XREF
 0
LINE
 8
PARTS
 10
  2.9000
 20
  1.4000
 30
0.0
 11
  2.9000
 21
  1.7000
 31
0.0
 0
TEXT
 8
PARTS
 10
  2.8700
 20
  1.5800
 30
0.0
 40
  0.0500
 50
 90.0000
 1
1
 0
POLYLINE
 8
PARTS
 66
1
 70
1
 10
0.0
 20
0.0
 30
0.0
 0
VERTEX
 8
PARTS
 10
  3.0000
 20
  1.9000
 30
0.0
 0
VERTEX
 8
PARTS
 10
  3.0000
 20
  1.7000
 30
0.0
 0
VERTEX
 8
PARTS
 10
  2.8000
 20
  1.7000
 30
0.0
 0
VERTEX
 8
PARTS
 10
  2.8000
 20
  1.9000
 30
0.0
 0
SEQEND
 8
PARTS
 0
POLYLINE
 8
PARTS
 66
1
 10
0.0
 20
0.0
 30
0.0
 0
VERTEX
 8
PARTS
 10
  3.0000
 20
  1.7500
 30
0.0
 0
VERTEX
 8
PARTS
 10
  3.0000
 20
  1.7500
 30
0.0
 0
VERTEX
 8
PARTS
 10
  3.0300
 20
  1.7500
 30
0.0
 0
VERTEX
 8
PARTS
 10
  3.0300
 20
  1.8400
 30
0.0
 0
VERTEX
 8
PARTS
 10
  3.0000
 20
  1.8400
 30
0.0
 0
SEQEND
 8
PARTS
 0
POLYLINE
 8
PARTS
 66
1
 10
0.0
 20
0.0
 30
0.0
 0
VERTEX
 8
PARTS
 10
  2.8000
 20
  1.8400
 30
0.0
 0
VERTEX
 8
PARTS
 10
  2.8000
 20
  1.8400
 30
0.0
 0
VERTEX
 8
PARTS
 10
  2.7700
 20
  1.8400
 30
0.0
 0
VERTEX
 8
PARTS
 10
  2.7700
 20
  1.7500
 30
0.0
 0
VERTEX
 8
PARTS
 10
  2.8000
 20
  1.7500
 30
0.0
 0
SEQEND
 8
PARTS
 0
TEXT
 8
PARTTEXT
 10
  1.1000
 20
  1.3786
 30
0.0
 40
  0.0514
 1
U7
 0
LINE
 8
PARTS
 10
  1.1000
 20
  1.4000
 30
0.0
 11
  1.2000
 21
  1.4000
 31
0.0
 0
TEXT
 8
PARTS
 10
  1.2900
 20
  1.3750
 30
0.0
 40
  0.0500
 1
VIN
 0
TEXT
 8
PARTS
 10
  1.1000
 20
  1.4300
 30
0.0
 40
  0.0500
 1
1
 0
LINE
 8
PARTS
 10
  2.2000
 20
  1.4000
 30
0.0
 11
  2.1000
 21
  1.4000
 31
0.0
 0
TEXT
 8
PARTS
 10
  1.8500
 20
  1.3750
 30
0.0
 40
  0.0500
 1
VOUT
 0
TEXT
 8
PARTS
 10
  2.1600
 20
  1.4300
 30
0.0
 40
  0.0500
 1
2
 0
LINE
 8
PARTS
 10
  2.2000
 20
  1.3000
 30
0.0
 11
  2.1000
 21
  1.3000
 31
0.0
 0
TEXT
 8
PARTS
 10
  1.8900
 20
  1.2750
 30
0.0
 40
  0.0500
 1
GND
 0
TEXT
 8
PARTS
 10
  2.1600
 20
  1.3300
 30
0.0
 40
  0.0500
 1
3
 0
POLYLINE
 8
PARTS
 66
1
 10
0.0
 20
0.0
 30
0.0
 0
VERTEX
 8
PARTS
 10
  1.2500
 20
  1.5000
 30
0.0
 0
VERTEX
 8
PARTS
 10
  1.2500
 20
  1.2000
 30
0.0
 0
SEQEND
 8
PARTS
 0
POLYLINE
 8
PARTS
 66
1
 10
0.0
 20
0.0
 30
0.0
 0
VERTEX
 8
PARTS
 10
  1.2500
 20
  1.2000
 30
0.0
 0
VERTEX
 8
PARTS
 10
  2.0500
 20
  1.2000
 30
0.0
 0
SEQEND
 8
PARTS
 0
POLYLINE
 8
PARTS
 66
1
 10
0.0
 20
0.0
 30
0.0
 0
VERTEX
 8
PARTS
 10
  2.0500
 20
  1.2000
 30
0.0
 0
VERTEX
 8
PARTS
 10
  2.0500
 20
  1.5000
 30
0.0
 0
SEQEND
 8
PARTS
 0
POLYLINE
 8
PARTS
 66
1
 10
0.0
 20
0.0
 30
0.0
 0
VERTEX
 8
PARTS
 10
  2.0500
 20
  1.5000
 30
0.0
 0
VERTEX
 8
PARTS
 10
  1.2500
 20
  1.5000
 30
0.0
 0
SEQEND
 8
PARTS
 0
POLYLINE
 8
PARTS
 66
1
 10
0.0
 20
0.0
 30
0.0
 0
VERTEX
 8
PARTS
 10
  1.2000
 20
  1.4000
 30
0.0
 0
VERTEX
 8
PARTS
 10
  1.2500
 20
  1.4000
 30
0.0
 0
SEQEND
 8
PARTS
 0
POLYLINE
 8
PARTS
 66
1
 10
0.0
 20
0.0
 30
0.0
 0
VERTEX
 8
PARTS
 10
  2.0500
 20
  1.4000
 30
0.0
 0
VERTEX
 8
PARTS
 10
  2.1000
 20
  1.4000
 30
0.0
 0
SEQEND
 8
PARTS
 0
POLYLINE
 8
PARTS
 66
1
 10
0.0
 20
0.0
 30
0.0
 0
VERTEX
 8
PARTS
 10
  2.0500
 20
  1.3000
 30
0.0
 0
VERTEX
 8
PARTS
 10
  2.1000
 20
  1.3000
 30
0.0
 0
SEQEND
 8
PARTS
 0
TEXT
 8
PARTTEXT
 10
  3.9000
 20
  6.8586
 30
0.0
 40
  0.0514
 1
J82
 0
TEXT
 8
PARTTEXT
 10
  3.9000
 20
  6.7386
 30
0.0
 40
  0.0514
 1
AVDD
 0
LINE
 8
PARTS
 10
  4.1000
 20
  6.2000
 30
0.0
 11
  4.1000
 21
  6.5000
 31
0.0
 0
TEXT
 8
PARTS
 10
  4.0700
 20
  6.3800
 30
0.0
 40
  0.0500
 50
 90.0000
 1
1
 0
POLYLINE
 8
PARTS
 66
1
 70
1
 10
0.0
 20
0.0
 30
0.0
 0
VERTEX
 8
PARTS
 10
  4.2000
 20
  6.7000
 30
0.0
 0
VERTEX
 8
PARTS
 10
  4.2000
 20
  6.5000
 30
0.0
 0
VERTEX
 8
PARTS
 10
  4.0000
 20
  6.5000
 30
0.0
 0
VERTEX
 8
PARTS
 10
  4.0000
 20
  6.7000
 30
0.0
 0
SEQEND
 8
PARTS
 0
POLYLINE
 8
PARTS
 66
1
 10
0.0
 20
0.0
 30
0.0
 0
VERTEX
 8
PARTS
 10
  4.2000
 20
  6.5500
 30
0.0
 0
VERTEX
 8
PARTS
 10
  4.2000
 20
  6.5500
 30
0.0
 0
VERTEX
 8
PARTS
 10
  4.2300
 20
  6.5500
 30
0.0
 0
VERTEX
 8
PARTS
 10
  4.2300
 20
  6.6400
 30
0.0
 0
VERTEX
 8
PARTS
 10
  4.2000
 20
  6.6400
 30
0.0
 0
SEQEND
 8
PARTS
 0
POLYLINE
 8
PARTS
 66
1
 10
0.0
 20
0.0
 30
0.0
 0
VERTEX
 8
PARTS
 10
  4.0000
 20
  6.6400
 30
0.0
 0
VERTEX
 8
PARTS
 10
  4.0000
 20
  6.6400
 30
0.0
 0
VERTEX
 8
PARTS
 10
  3.9700
 20
  6.6400
 30
0.0
 0
VERTEX
 8
PARTS
 10
  3.9700
 20
  6.5500
 30
0.0
 0
VERTEX
 8
PARTS
 10
  4.0000
 20
  6.5500
 30
0.0
 0
SEQEND
 8
PARTS
 0
TEXT
 8
PARTTEXT
 10
  2.7000
 20
  6.2686
 30
0.0
 40
  0.0514
 1
J80
 0
TEXT
 8
PARTTEXT
 10
  2.7000
 20
  5.5586
 30
0.0
 40
  0.0514
 1
HEADER 2
 0
LINE
 8
PARTS
 10
  2.4000
 20
  5.9000
 30
0.0
 11
  2.7000
 21
  5.9000
 31
0.0
 0
TEXT
 8
PARTS
 10
  2.6000
 20
  5.9300
 30
0.0
 40
  0.0500
 1
1
 0
LINE
 8
PARTS
 10
  2.4000
 20
  6.0000
 30
0.0
 11
  2.7000
 21
  6.0000
 31
0.0
 0
TEXT
 8
PARTS
 10
  2.6000
 20
  6.0300
 30
0.0
 40
  0.0500
 1
2
 0
POLYLINE
 8
PARTS
 66
1
 70
1
 10
0.0
 20
0.0
 30
0.0
 0
VERTEX
 8
PARTS
 10
  3.0000
 20
  5.8000
 30
0.0
 0
VERTEX
 8
PARTS
 10
  2.7000
 20
  5.8000
 30
0.0
 0
VERTEX
 8
PARTS
 10
  2.7000
 20
  6.1000
 30
0.0
 0
VERTEX
 8
PARTS
 10
  3.0000
 20
  6.1000
 30
0.0
 0
SEQEND
 8
PARTS
 0
POLYLINE
 8
PARTS
 66
1
 10
0.0
 20
0.0
 30
0.0
 0
VERTEX
 8
PARTS
 10
  2.8000
 20
  5.8000
 30
0.0
 0
VERTEX
 8
PARTS
 10
  2.8000
 20
  5.8000
 30
0.0
 0
VERTEX
 8
PARTS
 10
  2.8000
 20
  5.7700
 30
0.0
 0
VERTEX
 8
PARTS
 10
  2.8900
 20
  5.7700
 30
0.0
 0
VERTEX
 8
PARTS
 10
  2.8900
 20
  5.8000
 30
0.0
 0
SEQEND
 8
PARTS
 0
POLYLINE
 8
PARTS
 66
1
 10
0.0
 20
0.0
 30
0.0
 0
VERTEX
 8
PARTS
 10
  2.8900
 20
  6.1000
 30
0.0
 0
VERTEX
 8
PARTS
 10
  2.8900
 20
  6.1000
 30
0.0
 0
VERTEX
 8
PARTS
 10
  2.8900
 20
  6.1300
 30
0.0
 0
VERTEX
 8
PARTS
 10
  2.8000
 20
  6.1300
 30
0.0
 0
VERTEX
 8
PARTS
 10
  2.8000
 20
  6.1000
 30
0.0
 0
SEQEND
 8
PARTS
 0
TEXT
 8
PARTTEXT
 10
  1.0900
 20
  1.0186
 30
0.0
 40
  0.0514
 1
C84
 0
TEXT
 8
PARTTEXT
 10
  1.0900
 20
  0.9286
 30
0.0
 40
  0.0514
 1
0.1uF
 0
LINE
 8
PARTS
 10
  0.9000
 20
  1.2000
 30
0.0
 11
  0.9000
 21
  1.1000
 31
0.0
 0
LINE
 8
PARTS
 10
  0.9000
 20
  0.9000
 30
0.0
 11
  0.9000
 21
  1.0000
 31
0.0
 0
POLYLINE
 8
PARTS
 66
1
 10
0.0
 20
0.0
 30
0.0
 0
VERTEX
 8
PARTS
 10
  0.9000
 20
  1.1000
 30
0.0
 0
VERTEX
 8
PARTS
 10
  0.9000
 20
  1.0800
 30
0.0
 0
SEQEND
 8
PARTS
 0
POLYLINE
 8
PARTS
 66
1
 10
0.0
 20
0.0
 30
0.0
 0
VERTEX
 8
PARTS
 10
  0.8100
 20
  1.0300
 30
0.0
 0
VERTEX
 8
PARTS
 10
  0.9900
 20
  1.0300
 30
0.0
 0
SEQEND
 8
PARTS
 0
POLYLINE
 8
PARTS
 66
1
 10
0.0
 20
0.0
 30
0.0
 0
VERTEX
 8
PARTS
 10
  0.8100
 20
  1.0800
 30
0.0
 0
VERTEX
 8
PARTS
 10
  0.9900
 20
  1.0800
 30
0.0
 0
SEQEND
 8
PARTS
 0
POLYLINE
 8
PARTS
 66
1
 10
0.0
 20
0.0
 30
0.0
 0
VERTEX
 8
PARTS
 10
  0.9000
 20
  1.0000
 30
0.0
 0
VERTEX
 8
PARTS
 10
  0.9000
 20
  1.0300
 30
0.0
 0
SEQEND
 8
PARTS
 0
TEXT
 8
PARTTEXT
 10
  2.6900
 20
  1.0186
 30
0.0
 40
  0.0514
 1
C82
 0
TEXT
 8
PARTTEXT
 10
  2.6900
 20
  0.9286
 30
0.0
 40
  0.0514
 1
0.1uF
 0
LINE
 8
PARTS
 10
  2.5000
 20
  1.2000
 30
0.0
 11
  2.5000
 21
  1.1000
 31
0.0
 0
LINE
 8
PARTS
 10
  2.5000
 20
  0.9000
 30
0.0
 11
  2.5000
 21
  1.0000
 31
0.0
 0
POLYLINE
 8
PARTS
 66
1
 10
0.0
 20
0.0
 30
0.0
 0
VERTEX
 8
PARTS
 10
  2.5000
 20
  1.1000
 30
0.0
 0
VERTEX
 8
PARTS
 10
  2.5000
 20
  1.0800
 30
0.0
 0
SEQEND
 8
PARTS
 0
POLYLINE
 8
PARTS
 66
1
 10
0.0
 20
0.0
 30
0.0
 0
VERTEX
 8
PARTS
 10
  2.4100
 20
  1.0300
 30
0.0
 0
VERTEX
 8
PARTS
 10
  2.5900
 20
  1.0300
 30
0.0
 0
SEQEND
 8
PARTS
 0
POLYLINE
 8
PARTS
 66
1
 10
0.0
 20
0.0
 30
0.0
 0
VERTEX
 8
PARTS
 10
  2.4100
 20
  1.0800
 30
0.0
 0
VERTEX
 8
PARTS
 10
  2.5900
 20
  1.0800
 30
0.0
 0
SEQEND
 8
PARTS
 0
POLYLINE
 8
PARTS
 66
1
 10
0.0
 20
0.0
 30
0.0
 0
VERTEX
 8
PARTS
 10
  2.5000
 20
  1.0000
 30
0.0
 0
VERTEX
 8
PARTS
 10
  2.5000
 20
  1.0300
 30
0.0
 0
SEQEND
 8
PARTS
 0
TEXT
 8
PARTTEXT
 10
  2.9000
 20
  4.3586
 30
0.0
 40
  0.0514
 1
TP3
 0
TEXT
 8
PARTTEXT
 10
  2.9000
 20
  4.2386
 30
0.0
 40
  0.0514
 1
AGND
 0
LINE
 8
PARTS
 10
  3.0000
 20
  3.8000
 30
0.0
 11
  3.0000
 21
  4.1000
 31
0.0
 0
TEXT
 8
PARTS
 10
  2.9700
 20
  3.9800
 30
0.0
 40
  0.0500
 50
 90.0000
 1
1
 0
POLYLINE
 8
PARTS
 66
1
 70
1
 10
0.0
 20
0.0
 30
0.0
 0
VERTEX
 8
PARTS
 10
  2.9000
 20
  4.1000
 30
0.0
 0
VERTEX
 8
PARTS
 10
  2.9000
 20
  4.2000
 30
0.0
 0
VERTEX
 8
PARTS
 10
  3.1000
 20
  4.2000
 30
0.0
 0
VERTEX
 8
PARTS
 10
  3.1000
 20
  4.1000
 30
0.0
 0
SEQEND
 8
PARTS
 0
TEXT
 8
PARTTEXT
 10
  2.4000
 20
  3.1586
 30
0.0
 40
  0.0514
 1
TP7
 0
TEXT
 8
PARTTEXT
 10
  2.4000
 20
  3.0386
 30
0.0
 40
  0.0514
 1
AGND
 0
LINE
 8
PARTS
 10
  2.5000
 20
  2.6000
 30
0.0
 11
  2.5000
 21
  2.9000
 31
0.0
 0
TEXT
 8
PARTS
 10
  2.4700
 20
  2.7800
 30
0.0
 40
  0.0500
 50
 90.0000
 1
1
 0
POLYLINE
 8
PARTS
 66
1
 70
1
 10
0.0
 20
0.0
 30
0.0
 0
VERTEX
 8
PARTS
 10
  2.4000
 20
  2.9000
 30
0.0
 0
VERTEX
 8
PARTS
 10
  2.4000
 20
  3.0000
 30
0.0
 0
VERTEX
 8
PARTS
 10
  2.6000
 20
  3.0000
 30
0.0
 0
VERTEX
 8
PARTS
 10
  2.6000
 20
  2.9000
 30
0.0
 0
SEQEND
 8
PARTS
 0
TEXT
 8
PARTTEXT
 10
  3.2000
 20
  1.6186
 30
0.0
 40
  0.0514
 1
J86
 0
TEXT
 8
PARTTEXT
 10
  3.2000
 20
  1.1186
 30
0.0
 40
  0.0514
 1
JUMPER
 0
CIRCLE
 8
PARTS
 10
  3.1700
 20
  1.4000
 30
0.0
 40
  0.0300
 0
LINE
 8
PARTS
 10
  2.9000
 20
  1.4000
 30
0.0
 11
  3.1400
 21
  1.4000
 31
0.0
 0
TEXT
 8
PARTS
 10
  3.1000
 20
  1.4300
 30
0.0
 40
  0.0500
 1
1
 0
CIRCLE
 8
PARTS
 10
  3.4300
 20
  1.4000
 30
0.0
 40
  0.0300
 0
LINE
 8
PARTS
 10
  3.7000
 20
  1.4000
 30
0.0
 11
  3.4600
 21
  1.4000
 31
0.0
 0
TEXT
 8
PARTS
 10
  3.4600
 20
  1.4300
 30
0.0
 40
  0.0500
 1
2
 0
POLYLINE
 8
WIRE
 66
1
 10
0.0
 20
0.0
 30
0.0
 0
VERTEX
 8
WIRE
 10
  2.4000
 20
  6.0000
 30
0.0
 0
VERTEX
 8
WIRE
 10
  1.7000
 20
  6.0000
 30
0.0
 0
SEQEND
 8
WIRE
 0
POLYLINE
 8
WIRE
 66
1
 70
1
 10
0.0
 20
0.0
 30
0.0
 40
  0.0200
 41
  0.0200
 0
VERTEX
 8
WIRE
 10
  1.6900
 20
  6.0000
 30
0.0
 42
1.0
 0
VERTEX
 8
WIRE
 10
  1.7100
 20
  6.0000
 30
0.0
 42
1.0
 0
SEQEND
 8
WIRE
 0
POLYLINE
 8
WIRE
 66
1
 10
0.0
 20
0.0
 30
0.0
 0
VERTEX
 8
WIRE
 10
  1.0000
 20
  6.0000
 30
0.0
 0
VERTEX
 8
WIRE
 10
  1.0000
 20
  6.2000
 30
0.0
 0
SEQEND
 8
WIRE
 0
POLYLINE
 8
WIRE
 66
1
 10
0.0
 20
0.0
 30
0.0
 0
VERTEX
 8
WIRE
 10
  1.0000
 20
  6.0000
 30
0.0
 0
VERTEX
 8
WIRE
 10
  1.0000
 20
  5.7000
 30
0.0
 0
SEQEND
 8
WIRE
 0
POLYLINE
 8
WIRE
 66
1
 10
0.0
 20
0.0
 30
0.0
 0
VERTEX
 8
WIRE
 10
  1.7000
 20
  5.7000
 30
0.0
 0
VERTEX
 8
WIRE
 10
  1.7000
 20
  6.0000
 30
0.0
 0
SEQEND
 8
WIRE
 0
POLYLINE
 8
WIRE
 66
1
 10
0.0
 20
0.0
 30
0.0
 0
VERTEX
 8
WIRE
 10
  1.7000
 20
  6.0000
 30
0.0
 0
VERTEX
 8
WIRE
 10
  1.0000
 20
  6.0000
 30
0.0
 0
SEQEND
 8
WIRE
 0
POLYLINE
 8
WIRE
 66
1
 70
1
 10
0.0
 20
0.0
 30
0.0
 40
  0.0200
 41
  0.0200
 0
VERTEX
 8
WIRE
 10
  0.9900
 20
  6.0000
 30
0.0
 42
1.0
 0
VERTEX
 8
WIRE
 10
  1.0100
 20
  6.0000
 30
0.0
 42
1.0
 0
SEQEND
 8
WIRE
 0
TEXT
 8
WIRETEXT
 10
  1.2000
 20
  6.0300
 30
0.0
 40
  0.0514
 1
VDD
 0
POLYLINE
 8
WIRE
 66
1
 10
0.0
 20
0.0
 30
0.0
 0
VERTEX
 8
WIRE
 10
  1.0000
 20
  5.4000
 30
0.0
 0
VERTEX
 8
WIRE
 10
  1.0000
 20
  5.1000
 30
0.0
 0
SEQEND
 8
WIRE
 0
POLYLINE
 8
WIRE
 66
1
 10
0.0
 20
0.0
 30
0.0
 0
VERTEX
 8
WIRE
 10
  1.0000
 20
  5.1000
 30
0.0
 0
VERTEX
 8
WIRE
 10
  1.7000
 20
  5.1000
 30
0.0
 0
SEQEND
 8
WIRE
 0
TEXT
 8
WIRETEXT
 10
  1.2000
 20
  5.1300
 30
0.0
 40
  0.0514
 1
AGND
 0
POLYLINE
 8
WIRE
 66
1
 10
0.0
 20
0.0
 30
0.0
 0
VERTEX
 8
WIRE
 10
  1.7000
 20
  5.1000
 30
0.0
 0
VERTEX
 8
WIRE
 10
  1.7000
 20
  5.4000
 30
0.0
 0
SEQEND
 8
WIRE
 0
POLYLINE
 8
WIRE
 66
1
 70
1
 10
0.0
 20
0.0
 30
0.0
 40
  0.0200
 41
  0.0200
 0
VERTEX
 8
WIRE
 10
  1.6900
 20
  5.1000
 30
0.0
 42
1.0
 0
VERTEX
 8
WIRE
 10
  1.7100
 20
  5.1000
 30
0.0
 42
1.0
 0
SEQEND
 8
WIRE
 0
POLYLINE
 8
WIRE
 66
1
 10
0.0
 20
0.0
 30
0.0
 0
VERTEX
 8
WIRE
 10
  2.4000
 20
  5.1000
 30
0.0
 0
VERTEX
 8
WIRE
 10
  2.4000
 20
  5.9000
 30
0.0
 0
SEQEND
 8
WIRE
 0
POLYLINE
 8
WIRE
 66
1
 10
0.0
 20
0.0
 30
0.0
 0
VERTEX
 8
WIRE
 10
  1.7000
 20
  4.9000
 30
0.0
 0
VERTEX
 8
WIRE
 10
  1.7000
 20
  5.1000
 30
0.0
 0
SEQEND
 8
WIRE
 0
POLYLINE
 8
WIRE
 66
1
 10
0.0
 20
0.0
 30
0.0
 0
VERTEX
 8
WIRE
 10
  2.4000
 20
  5.1000
 30
0.0
 0
VERTEX
 8
WIRE
 10
  2.2000
 20
  5.1000
 30
0.0
 0
SEQEND
 8
WIRE
 0
POLYLINE
 8
WIRE
 66
1
 70
1
 10
0.0
 20
0.0
 30
0.0
 40
  0.0200
 41
  0.0200
 0
VERTEX
 8
WIRE
 10
  2.1900
 20
  5.1000
 30
0.0
 42
1.0
 0
VERTEX
 8
WIRE
 10
  2.2100
 20
  5.1000
 30
0.0
 42
1.0
 0
SEQEND
 8
WIRE
 0
POLYLINE
 8
WIRE
 66
1
 10
0.0
 20
0.0
 30
0.0
 0
VERTEX
 8
WIRE
 10
  2.2000
 20
  5.1000
 30
0.0
 0
VERTEX
 8
WIRE
 10
  1.7000
 20
  5.1000
 30
0.0
 0
SEQEND
 8
WIRE
 0
POLYLINE
 8
WIRE
 66
1
 10
0.0
 20
0.0
 30
0.0
 0
VERTEX
 8
WIRE
 10
  4.1000
 20
  6.2000
 30
0.0
 0
VERTEX
 8
WIRE
 10
  4.1000
 20
  6.0000
 30
0.0
 0
SEQEND
 8
WIRE
 0
POLYLINE
 8
WIRE
 66
1
 10
0.0
 20
0.0
 30
0.0
 0
VERTEX
 8
WIRE
 10
  4.8000
 20
  5.7000
 30
0.0
 0
VERTEX
 8
WIRE
 10
  4.8000
 20
  6.0000
 30
0.0
 0
SEQEND
 8
WIRE
 0
POLYLINE
 8
WIRE
 66
1
 10
0.0
 20
0.0
 30
0.0
 0
VERTEX
 8
WIRE
 10
  4.1000
 20
  5.4000
 30
0.0
 0
VERTEX
 8
WIRE
 10
  4.1000
 20
  5.1000
 30
0.0
 0
SEQEND
 8
WIRE
 0
POLYLINE
 8
WIRE
 66
1
 10
0.0
 20
0.0
 30
0.0
 0
VERTEX
 8
WIRE
 10
  4.8000
 20
  5.1000
 30
0.0
 0
VERTEX
 8
WIRE
 10
  4.8000
 20
  5.4000
 30
0.0
 0
SEQEND
 8
WIRE
 0
POLYLINE
 8
WIRE
 66
1
 10
0.0
 20
0.0
 30
0.0
 0
VERTEX
 8
WIRE
 10
  6.0000
 20
  6.2000
 30
0.0
 0
VERTEX
 8
WIRE
 10
  6.0000
 20
  6.0000
 30
0.0
 0
SEQEND
 8
WIRE
 0
POLYLINE
 8
WIRE
 66
1
 10
0.0
 20
0.0
 30
0.0
 0
VERTEX
 8
WIRE
 10
  6.7000
 20
  5.7000
 30
0.0
 0
VERTEX
 8
WIRE
 10
  6.7000
 20
  6.0000
 30
0.0
 0
SEQEND
 8
WIRE
 0
POLYLINE
 8
WIRE
 66
1
 10
0.0
 20
0.0
 30
0.0
 0
VERTEX
 8
WIRE
 10
  6.0000
 20
  5.4000
 30
0.0
 0
VERTEX
 8
WIRE
 10
  6.0000
 20
  5.1000
 30
0.0
 0
SEQEND
 8
WIRE
 0
POLYLINE
 8
WIRE
 66
1
 10
0.0
 20
0.0
 30
0.0
 0
VERTEX
 8
WIRE
 10
  6.7000
 20
  5.1000
 30
0.0
 0
VERTEX
 8
WIRE
 10
  6.7000
 20
  5.4000
 30
0.0
 0
SEQEND
 8
WIRE
 0
POLYLINE
 8
WIRE
 66
1
 10
0.0
 20
0.0
 30
0.0
 0
VERTEX
 8
WIRE
 10
  4.8000
 20
  6.0000
 30
0.0
 0
VERTEX
 8
WIRE
 10
  4.1000
 20
  6.0000
 30
0.0
 0
SEQEND
 8
WIRE
 0
POLYLINE
 8
WIRE
 66
1
 70
1
 10
0.0
 20
0.0
 30
0.0
 40
  0.0200
 41
  0.0200
 0
VERTEX
 8
WIRE
 10
  4.0900
 20
  6.0000
 30
0.0
 42
1.0
 0
VERTEX
 8
WIRE
 10
  4.1100
 20
  6.0000
 30
0.0
 42
1.0
 0
SEQEND
 8
WIRE
 0
POLYLINE
 8
WIRE
 66
1
 10
0.0
 20
0.0
 30
0.0
 0
VERTEX
 8
WIRE
 10
  4.1000
 20
  6.0000
 30
0.0
 0
VERTEX
 8
WIRE
 10
  4.1000
 20
  5.7000
 30
0.0
 0
SEQEND
 8
WIRE
 0
POLYLINE
 8
WIRE
 66
1
 10
0.0
 20
0.0
 30
0.0
 0
VERTEX
 8
WIRE
 10
  4.8000
 20
  6.0000
 30
0.0
 0
VERTEX
 8
WIRE
 10
  5.1000
 20
  6.0000
 30
0.0
 0
SEQEND
 8
WIRE
 0
POLYLINE
 8
WIRE
 66
1
 70
1
 10
0.0
 20
0.0
 30
0.0
 40
  0.0200
 41
  0.0200
 0
VERTEX
 8
WIRE
 10
  4.7900
 20
  6.0000
 30
0.0
 42
1.0
 0
VERTEX
 8
WIRE
 10
  4.8100
 20
  6.0000
 30
0.0
 42
1.0
 0
SEQEND
 8
WIRE
 0
TEXT
 8
WIRETEXT
 10
  4.8000
 20
  6.0300
 30
0.0
 40
  0.0514
 1
AVDD
 0
POLYLINE
 8
WIRE
 66
1
 10
0.0
 20
0.0
 30
0.0
 0
VERTEX
 8
WIRE
 10
  4.1000
 20
  5.1000
 30
0.0
 0
VERTEX
 8
WIRE
 10
  4.4000
 20
  5.1000
 30
0.0
 0
SEQEND
 8
WIRE
 0
POLYLINE
 8
WIRE
 66
1
 10
0.0
 20
0.0
 30
0.0
 0
VERTEX
 8
WIRE
 10
  6.0000
 20
  6.0000
 30
0.0
 0
VERTEX
 8
WIRE
 10
  6.7000
 20
  6.0000
 30
0.0
 0
SEQEND
 8
WIRE
 0
POLYLINE
 8
WIRE
 66
1
 70
1
 10
0.0
 20
0.0
 30
0.0
 40
  0.0200
 41
  0.0200
 0
VERTEX
 8
WIRE
 10
  5.9900
 20
  6.0000
 30
0.0
 42
1.0
 0
VERTEX
 8
WIRE
 10
  6.0100
 20
  6.0000
 30
0.0
 42
1.0
 0
SEQEND
 8
WIRE
 0
POLYLINE
 8
WIRE
 66
1
 70
1
 10
0.0
 20
0.0
 30
0.0
 40
  0.0200
 41
  0.0200
 0
VERTEX
 8
WIRE
 10
  6.6900
 20
  6.0000
 30
0.0
 42
1.0
 0
VERTEX
 8
WIRE
 10
  6.7100
 20
  6.0000
 30
0.0
 42
1.0
 0
SEQEND
 8
WIRE
 0
TEXT
 8
WIRETEXT
 10
  6.7000
 20
  6.0300
 30
0.0
 40
  0.0514
 1
DVDD
 0
POLYLINE
 8
WIRE
 66
1
 10
0.0
 20
0.0
 30
0.0
 0
VERTEX
 8
WIRE
 10
  6.0000
 20
  6.0000
 30
0.0
 0
VERTEX
 8
WIRE
 10
  6.0000
 20
  5.7000
 30
0.0
 0
SEQEND
 8
WIRE
 0
POLYLINE
 8
WIRE
 66
1
 10
0.0
 20
0.0
 30
0.0
 0
VERTEX
 8
WIRE
 10
  6.7000
 20
  6.0000
 30
0.0
 0
VERTEX
 8
WIRE
 10
  7.0000
 20
  6.0000
 30
0.0
 0
SEQEND
 8
WIRE
 0
POLYLINE
 8
WIRE
 66
1
 10
0.0
 20
0.0
 30
0.0
 0
VERTEX
 8
WIRE
 10
  6.0000
 20
  5.1000
 30
0.0
 0
VERTEX
 8
WIRE
 10
  6.3000
 20
  5.1000
 30
0.0
 0
SEQEND
 8
WIRE
 0
POLYLINE
 8
WIRE
 66
1
 70
1
 10
0.0
 20
0.0
 30
0.0
 40
  0.0200
 41
  0.0200
 0
VERTEX
 8
WIRE
 10
  6.2900
 20
  5.1000
 30
0.0
 42
1.0
 0
VERTEX
 8
WIRE
 10
  6.3100
 20
  5.1000
 30
0.0
 42
1.0
 0
SEQEND
 8
WIRE
 0
POLYLINE
 8
WIRE
 66
1
 10
0.0
 20
0.0
 30
0.0
 0
VERTEX
 8
WIRE
 10
  6.3000
 20
  5.1000
 30
0.0
 0
VERTEX
 8
WIRE
 10
  6.3000
 20
  4.9000
 30
0.0
 0
SEQEND
 8
WIRE
 0
POLYLINE
 8
WIRE
 66
1
 10
0.0
 20
0.0
 30
0.0
 0
VERTEX
 8
WIRE
 10
  6.3000
 20
  5.1000
 30
0.0
 0
VERTEX
 8
WIRE
 10
  6.7000
 20
  5.1000
 30
0.0
 0
SEQEND
 8
WIRE
 0
POLYLINE
 8
WIRE
 66
1
 10
0.0
 20
0.0
 30
0.0
 0
VERTEX
 8
WIRE
 10
  4.4000
 20
  5.1000
 30
0.0
 0
VERTEX
 8
WIRE
 10
  4.4000
 20
  4.9000
 30
0.0
 0
SEQEND
 8
WIRE
 0
POLYLINE
 8
WIRE
 66
1
 70
1
 10
0.0
 20
0.0
 30
0.0
 40
  0.0200
 41
  0.0200
 0
VERTEX
 8
WIRE
 10
  4.3900
 20
  5.1000
 30
0.0
 42
1.0
 0
VERTEX
 8
WIRE
 10
  4.4100
 20
  5.1000
 30
0.0
 42
1.0
 0
SEQEND
 8
WIRE
 0
POLYLINE
 8
WIRE
 66
1
 10
0.0
 20
0.0
 30
0.0
 0
VERTEX
 8
WIRE
 10
  4.4000
 20
  5.1000
 30
0.0
 0
VERTEX
 8
WIRE
 10
  4.8000
 20
  5.1000
 30
0.0
 0
SEQEND
 8
WIRE
 0
POLYLINE
 8
WIRE
 66
1
 10
0.0
 20
0.0
 30
0.0
 0
VERTEX
 8
WIRE
 10
  4.6000
 20
  1.4000
 30
0.0
 0
VERTEX
 8
WIRE
 10
  4.0000
 20
  1.4000
 30
0.0
 0
SEQEND
 8
WIRE
 0
POLYLINE
 8
WIRE
 66
1
 70
1
 10
0.0
 20
0.0
 30
0.0
 40
  0.0200
 41
  0.0200
 0
VERTEX
 8
WIRE
 10
  3.9900
 20
  1.4000
 30
0.0
 42
1.0
 0
VERTEX
 8
WIRE
 10
  4.0100
 20
  1.4000
 30
0.0
 42
1.0
 0
SEQEND
 8
WIRE
 0
POLYLINE
 8
WIRE
 66
1
 10
0.0
 20
0.0
 30
0.0
 0
VERTEX
 8
WIRE
 10
  2.5000
 20
  1.2000
 30
0.0
 0
VERTEX
 8
WIRE
 10
  2.5000
 20
  1.4000
 30
0.0
 0
SEQEND
 8
WIRE
 0
POLYLINE
 8
WIRE
 66
1
 10
0.0
 20
0.0
 30
0.0
 0
VERTEX
 8
WIRE
 10
  4.0000
 20
  1.2000
 30
0.0
 0
VERTEX
 8
WIRE
 10
  4.0000
 20
  1.4000
 30
0.0
 0
SEQEND
 8
WIRE
 0
POLYLINE
 8
WIRE
 66
1
 10
0.0
 20
0.0
 30
0.0
 0
VERTEX
 8
WIRE
 10
  4.0000
 20
  1.4000
 30
0.0
 0
VERTEX
 8
WIRE
 10
  3.7000
 20
  1.4000
 30
0.0
 0
SEQEND
 8
WIRE
 0
POLYLINE
 8
WIRE
 66
1
 70
1
 10
0.0
 20
0.0
 30
0.0
 40
  0.0200
 41
  0.0200
 0
VERTEX
 8
WIRE
 10
  3.6900
 20
  1.4000
 30
0.0
 42
1.0
 0
VERTEX
 8
WIRE
 10
  3.7100
 20
  1.4000
 30
0.0
 42
1.0
 0
SEQEND
 8
WIRE
 0
POLYLINE
 8
WIRE
 66
1
 10
0.0
 20
0.0
 30
0.0
 0
VERTEX
 8
WIRE
 10
  1.9000
 20
  0.5000
 30
0.0
 0
VERTEX
 8
WIRE
 10
  1.9000
 20
  0.6000
 30
0.0
 0
SEQEND
 8
WIRE
 0
POLYLINE
 8
WIRE
 66
1
 70
1
 10
0.0
 20
0.0
 30
0.0
 40
  0.0200
 41
  0.0200
 0
VERTEX
 8
WIRE
 10
  1.8900
 20
  0.6000
 30
0.0
 42
1.0
 0
VERTEX
 8
WIRE
 10
  1.9100
 20
  0.6000
 30
0.0
 42
1.0
 0
SEQEND
 8
WIRE
 0
POLYLINE
 8
WIRE
 66
1
 10
0.0
 20
0.0
 30
0.0
 0
VERTEX
 8
WIRE
 10
  4.6000
 20
  0.6000
 30
0.0
 0
VERTEX
 8
WIRE
 10
  4.0000
 20
  0.6000
 30
0.0
 0
SEQEND
 8
WIRE
 0
POLYLINE
 8
WIRE
 66
1
 10
0.0
 20
0.0
 30
0.0
 0
VERTEX
 8
WIRE
 10
  4.0000
 20
  0.6000
 30
0.0
 0
VERTEX
 8
WIRE
 10
  4.0000
 20
  0.9000
 30
0.0
 0
SEQEND
 8
WIRE
 0
POLYLINE
 8
WIRE
 66
1
 70
1
 10
0.0
 20
0.0
 30
0.0
 40
  0.0200
 41
  0.0200
 0
VERTEX
 8
WIRE
 10
  3.9900
 20
  0.6000
 30
0.0
 42
1.0
 0
VERTEX
 8
WIRE
 10
  4.0100
 20
  0.6000
 30
0.0
 42
1.0
 0
SEQEND
 8
WIRE
 0
POLYLINE
 8
WIRE
 66
1
 10
0.0
 20
0.0
 30
0.0
 0
VERTEX
 8
WIRE
 10
  4.0000
 20
  0.6000
 30
0.0
 0
VERTEX
 8
WIRE
 10
  2.5000
 20
  0.6000
 30
0.0
 0
SEQEND
 8
WIRE
 0
POLYLINE
 8
WIRE
 66
1
 70
1
 10
0.0
 20
0.0
 30
0.0
 40
  0.0200
 41
  0.0200
 0
VERTEX
 8
WIRE
 10
  2.4900
 20
  0.6000
 30
0.0
 42
1.0
 0
VERTEX
 8
WIRE
 10
  2.5100
 20
  0.6000
 30
0.0
 42
1.0
 0
SEQEND
 8
WIRE
 0
POLYLINE
 8
WIRE
 66
1
 10
0.0
 20
0.0
 30
0.0
 0
VERTEX
 8
WIRE
 10
  2.5000
 20
  0.6000
 30
0.0
 0
VERTEX
 8
WIRE
 10
  2.5000
 20
  0.9000
 30
0.0
 0
SEQEND
 8
WIRE
 0
POLYLINE
 8
WIRE
 66
1
 10
0.0
 20
0.0
 30
0.0
 0
VERTEX
 8
WIRE
 10
  2.9000
 20
  1.4000
 30
0.0
 0
VERTEX
 8
WIRE
 10
  2.5000
 20
  1.4000
 30
0.0
 0
SEQEND
 8
WIRE
 0
POLYLINE
 8
WIRE
 66
1
 70
1
 10
0.0
 20
0.0
 30
0.0
 40
  0.0200
 41
  0.0200
 0
VERTEX
 8
WIRE
 10
  2.8900
 20
  1.4000
 30
0.0
 42
1.0
 0
VERTEX
 8
WIRE
 10
  2.9100
 20
  1.4000
 30
0.0
 42
1.0
 0
SEQEND
 8
WIRE
 0
POLYLINE
 8
WIRE
 66
1
 70
1
 10
0.0
 20
0.0
 30
0.0
 40
  0.0200
 41
  0.0200
 0
VERTEX
 8
WIRE
 10
  2.4900
 20
  1.4000
 30
0.0
 42
1.0
 0
VERTEX
 8
WIRE
 10
  2.5100
 20
  1.4000
 30
0.0
 42
1.0
 0
SEQEND
 8
WIRE
 0
POLYLINE
 8
WIRE
 66
1
 10
0.0
 20
0.0
 30
0.0
 0
VERTEX
 8
WIRE
 10
  2.5000
 20
  0.6000
 30
0.0
 0
VERTEX
 8
WIRE
 10
  2.2000
 20
  0.6000
 30
0.0
 0
SEQEND
 8
WIRE
 0
POLYLINE
 8
WIRE
 66
1
 70
1
 10
0.0
 20
0.0
 30
0.0
 40
  0.0200
 41
  0.0200
 0
VERTEX
 8
WIRE
 10
  2.1900
 20
  0.6000
 30
0.0
 42
1.0
 0
VERTEX
 8
WIRE
 10
  2.2100
 20
  0.6000
 30
0.0
 42
1.0
 0
SEQEND
 8
WIRE
 0
POLYLINE
 8
WIRE
 66
1
 10
0.0
 20
0.0
 30
0.0
 0
VERTEX
 8
WIRE
 10
  5.3000
 20
  1.4000
 30
0.0
 0
VERTEX
 8
WIRE
 10
  4.6000
 20
  1.4000
 30
0.0
 0
SEQEND
 8
WIRE
 0
POLYLINE
 8
WIRE
 66
1
 70
1
 10
0.0
 20
0.0
 30
0.0
 40
  0.0200
 41
  0.0200
 0
VERTEX
 8
WIRE
 10
  4.5900
 20
  1.4000
 30
0.0
 42
1.0
 0
VERTEX
 8
WIRE
 10
  4.6100
 20
  1.4000
 30
0.0
 42
1.0
 0
SEQEND
 8
WIRE
 0
TEXT
 8
WIRETEXT
 10
  5.0000
 20
  1.4300
 30
0.0
 40
  0.0514
 1
REF
 0
POLYLINE
 8
WIRE
 66
1
 10
0.0
 20
0.0
 30
0.0
 0
VERTEX
 8
WIRE
 10
  4.6000
 20
  1.2000
 30
0.0
 0
VERTEX
 8
WIRE
 10
  4.6000
 20
  1.4000
 30
0.0
 0
SEQEND
 8
WIRE
 0
POLYLINE
 8
WIRE
 66
1
 10
0.0
 20
0.0
 30
0.0
 0
VERTEX
 8
WIRE
 10
  5.3000
 20
  0.6000
 30
0.0
 0
VERTEX
 8
WIRE
 10
  4.6000
 20
  0.6000
 30
0.0
 0
SEQEND
 8
WIRE
 0
TEXT
 8
WIRETEXT
 10
  5.0000
 20
  0.6300
 30
0.0
 40
  0.0514
 1
AGND
 0
POLYLINE
 8
WIRE
 66
1
 10
0.0
 20
0.0
 30
0.0
 0
VERTEX
 8
WIRE
 10
  4.6000
 20
  0.6000
 30
0.0
 0
VERTEX
 8
WIRE
 10
  4.6000
 20
  0.9000
 30
0.0
 0
SEQEND
 8
WIRE
 0
POLYLINE
 8
WIRE
 66
1
 70
1
 10
0.0
 20
0.0
 30
0.0
 40
  0.0200
 41
  0.0200
 0
VERTEX
 8
WIRE
 10
  4.5900
 20
  0.6000
 30
0.0
 42
1.0
 0
VERTEX
 8
WIRE
 10
  4.6100
 20
  0.6000
 30
0.0
 42
1.0
 0
SEQEND
 8
WIRE
 0
POLYLINE
 8
WIRE
 66
1
 10
0.0
 20
0.0
 30
0.0
 0
VERTEX
 8
WIRE
 10
  2.2000
 20
  0.6000
 30
0.0
 0
VERTEX
 8
WIRE
 10
  2.2000
 20
  1.3000
 30
0.0
 0
SEQEND
 8
WIRE
 0
POLYLINE
 8
WIRE
 66
1
 10
0.0
 20
0.0
 30
0.0
 0
VERTEX
 8
WIRE
 10
  2.2000
 20
  0.6000
 30
0.0
 0
VERTEX
 8
WIRE
 10
  1.9000
 20
  0.6000
 30
0.0
 0
SEQEND
 8
WIRE
 0
POLYLINE
 8
WIRE
 66
1
 10
0.0
 20
0.0
 30
0.0
 0
VERTEX
 8
WIRE
 10
  1.1000
 20
  1.4000
 30
0.0
 0
VERTEX
 8
WIRE
 10
  0.9000
 20
  1.4000
 30
0.0
 0
SEQEND
 8
WIRE
 0
POLYLINE
 8
WIRE
 66
1
 10
0.0
 20
0.0
 30
0.0
 0
VERTEX
 8
WIRE
 10
  0.9000
 20
  1.2000
 30
0.0
 0
VERTEX
 8
WIRE
 10
  0.9000
 20
  1.4000
 30
0.0
 0
SEQEND
 8
WIRE
 0
POLYLINE
 8
WIRE
 66
1
 70
1
 10
0.0
 20
0.0
 30
0.0
 40
  0.0200
 41
  0.0200
 0
VERTEX
 8
WIRE
 10
  0.8900
 20
  1.4000
 30
0.0
 42
1.0
 0
VERTEX
 8
WIRE
 10
  0.9100
 20
  1.4000
 30
0.0
 42
1.0
 0
SEQEND
 8
WIRE
 0
POLYLINE
 8
WIRE
 66
1
 10
0.0
 20
0.0
 30
0.0
 0
VERTEX
 8
WIRE
 10
  0.9000
 20
  1.4000
 30
0.0
 0
VERTEX
 8
WIRE
 10
  0.3000
 20
  1.4000
 30
0.0
 0
SEQEND
 8
WIRE
 0
TEXT
 8
WIRETEXT
 10
  0.4000
 20
  1.4300
 30
0.0
 40
  0.0514
 1
VDD
 0
POLYLINE
 8
WIRE
 66
1
 10
0.0
 20
0.0
 30
0.0
 0
VERTEX
 8
WIRE
 10
  0.9000
 20
  0.6000
 30
0.0
 0
VERTEX
 8
WIRE
 10
  0.9000
 20
  0.9000
 30
0.0
 0
SEQEND
 8
WIRE
 0
POLYLINE
 8
WIRE
 66
1
 10
0.0
 20
0.0
 30
0.0
 0
VERTEX
 8
WIRE
 10
  1.9000
 20
  0.6000
 30
0.0
 0
VERTEX
 8
WIRE
 10
  0.9000
 20
  0.6000
 30
0.0
 0
SEQEND
 8
WIRE
 0
POLYLINE
 8
WIRE
 66
1
 10
0.0
 20
0.0
 30
0.0
 0
VERTEX
 8
WIRE
 10
  5.6000
 20
  3.2000
 30
0.0
 0
VERTEX
 8
WIRE
 10
  5.2000
 20
  3.2000
 30
0.0
 0
SEQEND
 8
WIRE
 0
POLYLINE
 8
WIRE
 66
1
 10
0.0
 20
0.0
 30
0.0
 0
VERTEX
 8
WIRE
 10
  5.2000
 20
  2.5000
 30
0.0
 0
VERTEX
 8
WIRE
 10
  5.2000
 20
  2.8000
 30
0.0
 0
SEQEND
 8
WIRE
 0
POLYLINE
 8
WIRE
 66
1
 70
1
 10
0.0
 20
0.0
 30
0.0
 40
  0.0200
 41
  0.0200
 0
VERTEX
 8
WIRE
 10
  5.1900
 20
  2.8000
 30
0.0
 42
1.0
 0
VERTEX
 8
WIRE
 10
  5.2100
 20
  2.8000
 30
0.0
 42
1.0
 0
SEQEND
 8
WIRE
 0
POLYLINE
 8
WIRE
 66
1
 10
0.0
 20
0.0
 30
0.0
 0
VERTEX
 8
WIRE
 10
  5.6000
 20
  2.8000
 30
0.0
 0
VERTEX
 8
WIRE
 10
  5.2000
 20
  2.8000
 30
0.0
 0
SEQEND
 8
WIRE
 0
POLYLINE
 8
WIRE
 66
1
 10
0.0
 20
0.0
 30
0.0
 0
VERTEX
 8
WIRE
 10
  6.6000
 20
  3.2000
 30
0.0
 0
VERTEX
 8
WIRE
 10
  6.1000
 20
  3.2000
 30
0.0
 0
SEQEND
 8
WIRE
 0
POLYLINE
 8
WIRE
 66
1
 10
0.0
 20
0.0
 30
0.0
 0
VERTEX
 8
WIRE
 10
  6.6000
 20
  2.8000
 30
0.0
 0
VERTEX
 8
WIRE
 10
  6.6000
 20
  3.0000
 30
0.0
 0
SEQEND
 8
WIRE
 0
POLYLINE
 8
WIRE
 66
1
 10
0.0
 20
0.0
 30
0.0
 0
VERTEX
 8
WIRE
 10
  6.6000
 20
  2.8000
 30
0.0
 0
VERTEX
 8
WIRE
 10
  6.1000
 20
  2.8000
 30
0.0
 0
SEQEND
 8
WIRE
 0
POLYLINE
 8
WIRE
 66
1
 10
0.0
 20
0.0
 30
0.0
 0
VERTEX
 8
WIRE
 10
  5.2000
 20
  2.8000
 30
0.0
 0
VERTEX
 8
WIRE
 10
  5.2000
 20
  3.2000
 30
0.0
 0
SEQEND
 8
WIRE
 0
POLYLINE
 8
WIRE
 66
1
 10
0.0
 20
0.0
 30
0.0
 0
VERTEX
 8
WIRE
 10
  7.0000
 20
  3.7000
 30
0.0
 0
VERTEX
 8
WIRE
 10
  7.0000
 20
  3.9000
 30
0.0
 0
SEQEND
 8
WIRE
 0
POLYLINE
 8
WIRE
 66
1
 10
0.0
 20
0.0
 30
0.0
 0
VERTEX
 8
WIRE
 10
  7.6000
 20
  3.9000
 30
0.0
 0
VERTEX
 8
WIRE
 10
  7.3000
 20
  3.9000
 30
0.0
 0
SEQEND
 8
WIRE
 0
POLYLINE
 8
WIRE
 66
1
 10
0.0
 20
0.0
 30
0.0
 0
VERTEX
 8
WIRE
 10
  7.6000
 20
  3.6000
 30
0.0
 0
VERTEX
 8
WIRE
 10
  7.6000
 20
  3.9000
 30
0.0
 0
SEQEND
 8
WIRE
 0
POLYLINE
 8
WIRE
 66
1
 10
0.0
 20
0.0
 30
0.0
 0
VERTEX
 8
WIRE
 10
  7.0000
 20
  3.0000
 30
0.0
 0
VERTEX
 8
WIRE
 10
  7.0000
 20
  3.2000
 30
0.0
 0
SEQEND
 8
WIRE
 0
POLYLINE
 8
WIRE
 66
1
 10
0.0
 20
0.0
 30
0.0
 0
VERTEX
 8
WIRE
 10
  7.6000
 20
  3.0000
 30
0.0
 0
VERTEX
 8
WIRE
 10
  7.6000
 20
  3.3000
 30
0.0
 0
SEQEND
 8
WIRE
 0
POLYLINE
 8
WIRE
 66
1
 70
1
 10
0.0
 20
0.0
 30
0.0
 40
  0.0200
 41
  0.0200
 0
VERTEX
 8
WIRE
 10
  7.5900
 20
  3.0000
 30
0.0
 42
1.0
 0
VERTEX
 8
WIRE
 10
  7.6100
 20
  3.0000
 30
0.0
 42
1.0
 0
SEQEND
 8
WIRE
 0
POLYLINE
 8
WIRE
 66
1
 10
0.0
 20
0.0
 30
0.0
 0
VERTEX
 8
WIRE
 10
  7.6000
 20
  3.0000
 30
0.0
 0
VERTEX
 8
WIRE
 10
  7.0000
 20
  3.0000
 30
0.0
 0
SEQEND
 8
WIRE
 0
POLYLINE
 8
WIRE
 66
1
 70
1
 10
0.0
 20
0.0
 30
0.0
 40
  0.0200
 41
  0.0200
 0
VERTEX
 8
WIRE
 10
  6.9900
 20
  3.0000
 30
0.0
 42
1.0
 0
VERTEX
 8
WIRE
 10
  7.0100
 20
  3.0000
 30
0.0
 42
1.0
 0
SEQEND
 8
WIRE
 0
POLYLINE
 8
WIRE
 66
1
 10
0.0
 20
0.0
 30
0.0
 0
VERTEX
 8
WIRE
 10
  6.6000
 20
  3.0000
 30
0.0
 0
VERTEX
 8
WIRE
 10
  6.6000
 20
  3.2000
 30
0.0
 0
SEQEND
 8
WIRE
 0
POLYLINE
 8
WIRE
 66
1
 10
0.0
 20
0.0
 30
0.0
 0
VERTEX
 8
WIRE
 10
  7.0000
 20
  3.0000
 30
0.0
 0
VERTEX
 8
WIRE
 10
  6.6000
 20
  3.0000
 30
0.0
 0
SEQEND
 8
WIRE
 0
POLYLINE
 8
WIRE
 66
1
 70
1
 10
0.0
 20
0.0
 30
0.0
 40
  0.0200
 41
  0.0200
 0
VERTEX
 8
WIRE
 10
  6.5900
 20
  3.0000
 30
0.0
 42
1.0
 0
VERTEX
 8
WIRE
 10
  6.6100
 20
  3.0000
 30
0.0
 42
1.0
 0
SEQEND
 8
WIRE
 0
POLYLINE
 8
WIRE
 66
1
 10
0.0
 20
0.0
 30
0.0
 0
VERTEX
 8
WIRE
 10
  8.1000
 20
  3.0000
 30
0.0
 0
VERTEX
 8
WIRE
 10
  7.6000
 20
  3.0000
 30
0.0
 0
SEQEND
 8
WIRE
 0
TEXT
 8
WIRETEXT
 10
  7.7000
 20
  3.0300
 30
0.0
 40
  0.0514
 1
RESETB
 0
POLYLINE
 8
WIRE
 66
1
 10
0.0
 20
0.0
 30
0.0
 0
VERTEX
 8
WIRE
 10
  7.3000
 20
  3.9000
 30
0.0
 0
VERTEX
 8
WIRE
 10
  7.3000
 20
  4.3000
 30
0.0
 0
SEQEND
 8
WIRE
 0
POLYLINE
 8
WIRE
 66
1
 70
1
 10
0.0
 20
0.0
 30
0.0
 40
  0.0200
 41
  0.0200
 0
VERTEX
 8
WIRE
 10
  7.2900
 20
  3.9000
 30
0.0
 42
1.0
 0
VERTEX
 8
WIRE
 10
  7.3100
 20
  3.9000
 30
0.0
 42
1.0
 0
SEQEND
 8
WIRE
 0
TEXT
 8
WIRETEXT
 10
  7.2700
 20
  4.1000
 30
0.0
 40
  0.0514
 50
 90.0000
 1
VDD
 0
POLYLINE
 8
WIRE
 66
1
 10
0.0
 20
0.0
 30
0.0
 0
VERTEX
 8
WIRE
 10
  7.3000
 20
  3.9000
 30
0.0
 0
VERTEX
 8
WIRE
 10
  7.0000
 20
  3.9000
 30
0.0
 0
SEQEND
 8
WIRE
 0
POLYLINE
 8
WIRE
 66
1
 10
0.0
 20
0.0
 30
0.0
 0
VERTEX
 8
WIRE
 10
  2.5000
 20
  3.7000
 30
0.0
 0
VERTEX
 8
WIRE
 10
  2.5000
 20
  3.8000
 30
0.0
 0
SEQEND
 8
WIRE
 0
POLYLINE
 8
WIRE
 66
1
 10
0.0
 20
0.0
 30
0.0
 0
VERTEX
 8
WIRE
 10
  3.5000
 20
  3.7000
 30
0.0
 0
VERTEX
 8
WIRE
 10
  3.0000
 20
  3.7000
 30
0.0
 0
SEQEND
 8
WIRE
 0
POLYLINE
 8
WIRE
 66
1
 70
1
 10
0.0
 20
0.0
 30
0.0
 40
  0.0200
 41
  0.0200
 0
VERTEX
 8
WIRE
 10
  3.4900
 20
  3.7000
 30
0.0
 42
1.0
 0
VERTEX
 8
WIRE
 10
  3.5100
 20
  3.7000
 30
0.0
 42
1.0
 0
SEQEND
 8
WIRE
 0
POLYLINE
 8
WIRE
 66
1
 70
1
 10
0.0
 20
0.0
 30
0.0
 40
  0.0200
 41
  0.0200
 0
VERTEX
 8
WIRE
 10
  2.9900
 20
  3.7000
 30
0.0
 42
1.0
 0
VERTEX
 8
WIRE
 10
  3.0100
 20
  3.7000
 30
0.0
 42
1.0
 0
SEQEND
 8
WIRE
 0
POLYLINE
 8
WIRE
 66
1
 10
0.0
 20
0.0
 30
0.0
 0
VERTEX
 8
WIRE
 10
  3.5000
 20
  3.7000
 30
0.0
 0
VERTEX
 8
WIRE
 10
  3.5000
 20
  3.8000
 30
0.0
 0
SEQEND
 8
WIRE
 0
POLYLINE
 8
WIRE
 66
1
 10
0.0
 20
0.0
 30
0.0
 0
VERTEX
 8
WIRE
 10
  4.0000
 20
  3.7000
 30
0.0
 0
VERTEX
 8
WIRE
 10
  4.0000
 20
  3.8000
 30
0.0
 0
SEQEND
 8
WIRE
 0
POLYLINE
 8
WIRE
 66
1
 10
0.0
 20
0.0
 30
0.0
 0
VERTEX
 8
WIRE
 10
  4.0000
 20
  3.7000
 30
0.0
 0
VERTEX
 8
WIRE
 10
  3.5000
 20
  3.7000
 30
0.0
 0
SEQEND
 8
WIRE
 0
POLYLINE
 8
WIRE
 66
1
 10
0.0
 20
0.0
 30
0.0
 0
VERTEX
 8
WIRE
 10
  3.0000
 20
  2.5000
 30
0.0
 0
VERTEX
 8
WIRE
 10
  3.0000
 20
  2.6000
 30
0.0
 0
SEQEND
 8
WIRE
 0
POLYLINE
 8
WIRE
 66
1
 10
0.0
 20
0.0
 30
0.0
 0
VERTEX
 8
WIRE
 10
  3.0000
 20
  2.5000
 30
0.0
 0
VERTEX
 8
WIRE
 10
  2.5000
 20
  2.5000
 30
0.0
 0
SEQEND
 8
WIRE
 0
POLYLINE
 8
WIRE
 66
1
 70
1
 10
0.0
 20
0.0
 30
0.0
 40
  0.0200
 41
  0.0200
 0
VERTEX
 8
WIRE
 10
  2.4900
 20
  2.5000
 30
0.0
 42
1.0
 0
VERTEX
 8
WIRE
 10
  2.5100
 20
  2.5000
 30
0.0
 42
1.0
 0
SEQEND
 8
WIRE
 0
POLYLINE
 8
WIRE
 66
1
 10
0.0
 20
0.0
 30
0.0
 0
VERTEX
 8
WIRE
 10
  3.0000
 20
  3.7000
 30
0.0
 0
VERTEX
 8
WIRE
 10
  2.5000
 20
  3.7000
 30
0.0
 0
SEQEND
 8
WIRE
 0
POLYLINE
 8
WIRE
 66
1
 70
1
 10
0.0
 20
0.0
 30
0.0
 40
  0.0200
 41
  0.0200
 0
VERTEX
 8
WIRE
 10
  2.4900
 20
  3.7000
 30
0.0
 42
1.0
 0
VERTEX
 8
WIRE
 10
  2.5100
 20
  3.7000
 30
0.0
 42
1.0
 0
SEQEND
 8
WIRE
 0
POLYLINE
 8
WIRE
 66
1
 10
0.0
 20
0.0
 30
0.0
 0
VERTEX
 8
WIRE
 10
  3.0000
 20
  3.7000
 30
0.0
 0
VERTEX
 8
WIRE
 10
  3.0000
 20
  3.8000
 30
0.0
 0
SEQEND
 8
WIRE
 0
POLYLINE
 8
WIRE
 66
1
 10
0.0
 20
0.0
 30
0.0
 0
VERTEX
 8
WIRE
 10
  2.5000
 20
  2.5000
 30
0.0
 0
VERTEX
 8
WIRE
 10
  2.5000
 20
  2.6000
 30
0.0
 0
SEQEND
 8
WIRE
 0
POLYLINE
 8
WIRE
 66
1
 10
0.0
 20
0.0
 30
0.0
 0
VERTEX
 8
WIRE
 10
  3.5000
 20
  2.5000
 30
0.0
 0
VERTEX
 8
WIRE
 10
  3.0000
 20
  2.5000
 30
0.0
 0
SEQEND
 8
WIRE
 0
POLYLINE
 8
WIRE
 66
1
 70
1
 10
0.0
 20
0.0
 30
0.0
 40
  0.0200
 41
  0.0200
 0
VERTEX
 8
WIRE
 10
  3.4900
 20
  2.5000
 30
0.0
 42
1.0
 0
VERTEX
 8
WIRE
 10
  3.5100
 20
  2.5000
 30
0.0
 42
1.0
 0
SEQEND
 8
WIRE
 0
POLYLINE
 8
WIRE
 66
1
 10
0.0
 20
0.0
 30
0.0
 0
VERTEX
 8
WIRE
 10
  3.5000
 20
  2.5000
 30
0.0
 0
VERTEX
 8
WIRE
 10
  3.5000
 20
  2.6000
 30
0.0
 0
SEQEND
 8
WIRE
 0
POLYLINE
 8
WIRE
 66
1
 10
0.0
 20
0.0
 30
0.0
 0
VERTEX
 8
WIRE
 10
  4.0000
 20
  2.5000
 30
0.0
 0
VERTEX
 8
WIRE
 10
  4.0000
 20
  2.6000
 30
0.0
 0
SEQEND
 8
WIRE
 0
POLYLINE
 8
WIRE
 66
1
 10
0.0
 20
0.0
 30
0.0
 0
VERTEX
 8
WIRE
 10
  4.0000
 20
  2.5000
 30
0.0
 0
VERTEX
 8
WIRE
 10
  3.5000
 20
  2.5000
 30
0.0
 0
SEQEND
 8
WIRE
 0
POLYLINE
 8
WIRE
 66
1
 10
0.0
 20
0.0
 30
0.0
 0
VERTEX
 8
WIRE
 10
  2.0000
 20
  2.5000
 30
0.0
 0
VERTEX
 8
WIRE
 10
  2.0000
 20
  2.6000
 30
0.0
 0
SEQEND
 8
WIRE
 0
POLYLINE
 8
WIRE
 66
1
 10
0.0
 20
0.0
 30
0.0
 0
VERTEX
 8
WIRE
 10
  2.5000
 20
  2.5000
 30
0.0
 0
VERTEX
 8
WIRE
 10
  2.0000
 20
  2.5000
 30
0.0
 0
SEQEND
 8
WIRE
 0
POLYLINE
 8
WIRE
 66
1
 10
0.0
 20
0.0
 30
0.0
 0
VERTEX
 8
WIRE
 10
  3.0000
 20
  2.4000
 30
0.0
 0
VERTEX
 8
WIRE
 10
  3.0000
 20
  2.5000
 30
0.0
 0
SEQEND
 8
WIRE
 0
POLYLINE
 8
WIRE
 66
1
 70
1
 10
0.0
 20
0.0
 30
0.0
 40
  0.0200
 41
  0.0200
 0
VERTEX
 8
WIRE
 10
  2.9900
 20
  2.5000
 30
0.0
 42
1.0
 0
VERTEX
 8
WIRE
 10
  3.0100
 20
  2.5000
 30
0.0
 42
1.0
 0
SEQEND
 8
WIRE
 0
POLYLINE
 8
WIRE
 66
1
 10
0.0
 20
0.0
 30
0.0
 0
VERTEX
 8
WIRE
 10
  2.0000
 20
  3.7000
 30
0.0
 0
VERTEX
 8
WIRE
 10
  2.0000
 20
  3.8000
 30
0.0
 0
SEQEND
 8
WIRE
 0
POLYLINE
 8
WIRE
 66
1
 10
0.0
 20
0.0
 30
0.0
 0
VERTEX
 8
WIRE
 10
  2.5000
 20
  3.7000
 30
0.0
 0
VERTEX
 8
WIRE
 10
  2.0000
 20
  3.7000
 30
0.0
 0
SEQEND
 8
WIRE
 0
POLYLINE
 8
WIRE
 66
1
 10
0.0
 20
0.0
 30
0.0
 0
VERTEX
 8
WIRE
 10
  3.0000
 20
  3.6000
 30
0.0
 0
VERTEX
 8
WIRE
 10
  3.0000
 20
  3.7000
 30
0.0
 0
SEQEND
 8
WIRE
 0
POLYLINE
 8
WIRE
 66
1
 10
0.0
 20
0.0
 30
0.0
 0
VERTEX
 8
WIRE
 10
  2.5000
 20
  1.4000
 30
0.0
 0
VERTEX
 8
WIRE
 10
  2.2000
 20
  1.4000
 30
0.0
 0
SEQEND
 8
WIRE
 0
POLYLINE
 8
PARTS
 66
1
 10
0.0
 20
0.0
 30
0.0
 0
VERTEX
 8
PARTS
 10
  1.6000
 20
  4.9000
 30
0.0
 0
VERTEX
 8
PARTS
 10
  1.8000
 20
  4.9000
 30
0.0
 0
SEQEND
 8
PARTS
 0
POLYLINE
 8
PARTS
 66
1
 10
0.0
 20
0.0
 30
0.0
 0
VERTEX
 8
PARTS
 10
  1.8000
 20
  4.9000
 30
0.0
 0
VERTEX
 8
PARTS
 10
  1.7000
 20
  4.8000
 30
0.0
 0
SEQEND
 8
PARTS
 0
POLYLINE
 8
PARTS
 66
1
 10
0.0
 20
0.0
 30
0.0
 0
VERTEX
 8
PARTS
 10
  1.7000
 20
  4.8000
 30
0.0
 0
VERTEX
 8
PARTS
 10
  1.6000
 20
  4.9000
 30
0.0
 0
SEQEND
 8
PARTS
 0
POLYLINE
 8
PARTS
 66
1
 10
0.0
 20
0.0
 30
0.0
 0
VERTEX
 8
PARTS
 10
  4.3000
 20
  4.9000
 30
0.0
 0
VERTEX
 8
PARTS
 10
  4.5000
 20
  4.9000
 30
0.0
 0
SEQEND
 8
PARTS
 0
POLYLINE
 8
PARTS
 66
1
 10
0.0
 20
0.0
 30
0.0
 0
VERTEX
 8
PARTS
 10
  4.5000
 20
  4.9000
 30
0.0
 0
VERTEX
 8
PARTS
 10
  4.4000
 20
  4.8000
 30
0.0
 0
SEQEND
 8
PARTS
 0
POLYLINE
 8
PARTS
 66
1
 10
0.0
 20
0.0
 30
0.0
 0
VERTEX
 8
PARTS
 10
  4.4000
 20
  4.8000
 30
0.0
 0
VERTEX
 8
PARTS
 10
  4.3000
 20
  4.9000
 30
0.0
 0
SEQEND
 8
PARTS
 0
POLYLINE
 8
PARTS
 66
1
 10
0.0
 20
0.0
 30
0.0
 0
VERTEX
 8
PARTS
 10
  6.2000
 20
  4.9000
 30
0.0
 0
VERTEX
 8
PARTS
 10
  6.4000
 20
  4.9000
 30
0.0
 0
SEQEND
 8
PARTS
 0
POLYLINE
 8
PARTS
 66
1
 10
0.0
 20
0.0
 30
0.0
 0
VERTEX
 8
PARTS
 10
  6.4000
 20
  4.9000
 30
0.0
 0
VERTEX
 8
PARTS
 10
  6.3000
 20
  4.8000
 30
0.0
 0
SEQEND
 8
PARTS
 0
POLYLINE
 8
PARTS
 66
1
 10
0.0
 20
0.0
 30
0.0
 0
VERTEX
 8
PARTS
 10
  6.3000
 20
  4.8000
 30
0.0
 0
VERTEX
 8
PARTS
 10
  6.2000
 20
  4.9000
 30
0.0
 0
SEQEND
 8
PARTS
 0
POLYLINE
 8
PARTS
 66
1
 10
0.0
 20
0.0
 30
0.0
 0
VERTEX
 8
PARTS
 10
  1.8000
 20
  0.5000
 30
0.0
 0
VERTEX
 8
PARTS
 10
  2.0000
 20
  0.5000
 30
0.0
 0
SEQEND
 8
PARTS
 0
POLYLINE
 8
PARTS
 66
1
 10
0.0
 20
0.0
 30
0.0
 0
VERTEX
 8
PARTS
 10
  2.0000
 20
  0.5000
 30
0.0
 0
VERTEX
 8
PARTS
 10
  1.9000
 20
  0.4000
 30
0.0
 0
SEQEND
 8
PARTS
 0
POLYLINE
 8
PARTS
 66
1
 10
0.0
 20
0.0
 30
0.0
 0
VERTEX
 8
PARTS
 10
  1.9000
 20
  0.4000
 30
0.0
 0
VERTEX
 8
PARTS
 10
  1.8000
 20
  0.5000
 30
0.0
 0
SEQEND
 8
PARTS
 0
POLYLINE
 8
PARTS
 66
1
 10
0.0
 20
0.0
 30
0.0
 0
VERTEX
 8
PARTS
 10
  5.1000
 20
  2.5000
 30
0.0
 0
VERTEX
 8
PARTS
 10
  5.3000
 20
  2.5000
 30
0.0
 0
SEQEND
 8
PARTS
 0
POLYLINE
 8
PARTS
 66
1
 10
0.0
 20
0.0
 30
0.0
 0
VERTEX
 8
PARTS
 10
  5.3000
 20
  2.5000
 30
0.0
 0
VERTEX
 8
PARTS
 10
  5.2000
 20
  2.4000
 30
0.0
 0
SEQEND
 8
PARTS
 0
POLYLINE
 8
PARTS
 66
1
 10
0.0
 20
0.0
 30
0.0
 0
VERTEX
 8
PARTS
 10
  5.2000
 20
  2.4000
 30
0.0
 0
VERTEX
 8
PARTS
 10
  5.1000
 20
  2.5000
 30
0.0
 0
SEQEND
 8
PARTS
 0
POLYLINE
 8
PARTS
 66
1
 10
0.0
 20
0.0
 30
0.0
 0
VERTEX
 8
PARTS
 10
  2.9000
 20
  2.4000
 30
0.0
 0
VERTEX
 8
PARTS
 10
  3.1000
 20
  2.4000
 30
0.0
 0
SEQEND
 8
PARTS
 0
POLYLINE
 8
PARTS
 66
1
 10
0.0
 20
0.0
 30
0.0
 0
VERTEX
 8
PARTS
 10
  3.1000
 20
  2.4000
 30
0.0
 0
VERTEX
 8
PARTS
 10
  3.0000
 20
  2.3000
 30
0.0
 0
SEQEND
 8
PARTS
 0
POLYLINE
 8
PARTS
 66
1
 10
0.0
 20
0.0
 30
0.0
 0
VERTEX
 8
PARTS
 10
  3.0000
 20
  2.3000
 30
0.0
 0
VERTEX
 8
PARTS
 10
  2.9000
 20
  2.4000
 30
0.0
 0
SEQEND
 8
PARTS
 0
POLYLINE
 8
PARTS
 66
1
 10
0.0
 20
0.0
 30
0.0
 0
VERTEX
 8
PARTS
 10
  2.9000
 20
  3.6000
 30
0.0
 0
VERTEX
 8
PARTS
 10
  3.1000
 20
  3.6000
 30
0.0
 0
SEQEND
 8
PARTS
 0
POLYLINE
 8
PARTS
 66
1
 10
0.0
 20
0.0
 30
0.0
 0
VERTEX
 8
PARTS
 10
  3.1000
 20
  3.6000
 30
0.0
 0
VERTEX
 8
PARTS
 10
  3.0000
 20
  3.5000
 30
0.0
 0
SEQEND
 8
PARTS
 0
POLYLINE
 8
PARTS
 66
1
 10
0.0
 20
0.0
 30
0.0
 0
VERTEX
 8
PARTS
 10
  3.0000
 20
  3.5000
 30
0.0
 0
VERTEX
 8
PARTS
 10
  2.9000
 20
  3.6000
 30
0.0
 0
SEQEND
 8
PARTS
 0
TEXT
 8
COMMENTS
 10
  4.4000
 20
  6.5186
 30
0.0
 40
  0.0514
 1
Analog Supply
 0
TEXT
 8
COMMENTS
 10
  6.4000
 20
  6.5186
 30
0.0
 40
  0.0514
 1
Digital Supply
 0
TEXT
 8
COMMENTS
 10
  2.5000
 20
  0.3186
 30
0.0
 40
  0.0514
 1
Reference Voltage Circuit
 0
TEXT
 8
COMMENTS
 10
  5.6000
 20
  3.5186
 30
0.0
 40
  0.0514
 1
ADE7880 RESET SWITCH
 0
TEXT
 8
COMMENTS
 10
  1.6000
 20
  6.4186
 30
0.0
 40
  0.0514
 1
DUT VDD
 0
TEXT
 8
COMMENTS
 10
  4.0000
 20
  1.7186
 30
0.0
 40
  0.0514
 1
REFERENCE DECOUPLING AND EXTERNAL REF
 0
ENDSEC
 0
EOF
