 0
SECTION
 2
HEADER
 9
$ACADVER
 1
AC1009
 0
ENDSEC
 0
SECTION
 2
ENTITIES
 0
POLYLINE
 8
TITLE
 66
1
 70
1
 10
0.0
 20
0.0
 30
0.0
 0
VERTEX
 8
TITLE
 10
 -0.1000
 20
  0.1000
 30
0.0
 0
VERTEX
 8
TITLE
 10
  9.6000
 20
  0.1000
 30
0.0
 0
VERTEX
 8
TITLE
 10
  9.6000
 20
  7.3000
 30
0.0
 0
VERTEX
 8
TITLE
 10
 -0.1000
 20
  7.3000
 30
0.0
 0
SEQEND
 8
TITLE
 0
POLYLINE
 8
TITLE
 66
1
 70
1
 10
0.0
 20
0.0
 30
0.0
 0
VERTEX
 8
TITLE
 10
  0.0000
 20
  0.2000
 30
0.0
 0
VERTEX
 8
TITLE
 10
  9.5000
 20
  0.2000
 30
0.0
 0
VERTEX
 8
TITLE
 10
  9.5000
 20
  7.2000
 30
0.0
 0
VERTEX
 8
TITLE
 10
  0.0000
 20
  7.2000
 30
0.0
 0
SEQEND
 8
TITLE
 0
POLYLINE
 8
TITLE
 66
1
 10
0.0
 20
0.0
 30
0.0
 0
VERTEX
 8
TITLE
 10
  2.0600
 20
  0.2000
 30
0.0
 0
VERTEX
 8
TITLE
 10
  2.0600
 20
  0.1000
 30
0.0
 0
SEQEND
 8
TITLE
 0
POLYLINE
 8
TITLE
 66
1
 10
0.0
 20
0.0
 30
0.0
 0
VERTEX
 8
TITLE
 10
  2.0600
 20
  7.2000
 30
0.0
 0
VERTEX
 8
TITLE
 10
  2.0600
 20
  7.3000
 30
0.0
 0
SEQEND
 8
TITLE
 0
POLYLINE
 8
TITLE
 66
1
 10
0.0
 20
0.0
 30
0.0
 0
VERTEX
 8
TITLE
 10
  3.9200
 20
  0.2000
 30
0.0
 0
VERTEX
 8
TITLE
 10
  3.9200
 20
  0.1000
 30
0.0
 0
SEQEND
 8
TITLE
 0
POLYLINE
 8
TITLE
 66
1
 10
0.0
 20
0.0
 30
0.0
 0
VERTEX
 8
TITLE
 10
  3.9200
 20
  7.2000
 30
0.0
 0
VERTEX
 8
TITLE
 10
  3.9200
 20
  7.3000
 30
0.0
 0
SEQEND
 8
TITLE
 0
POLYLINE
 8
TITLE
 66
1
 10
0.0
 20
0.0
 30
0.0
 0
VERTEX
 8
TITLE
 10
  5.7800
 20
  0.2000
 30
0.0
 0
VERTEX
 8
TITLE
 10
  5.7800
 20
  0.1000
 30
0.0
 0
SEQEND
 8
TITLE
 0
POLYLINE
 8
TITLE
 66
1
 10
0.0
 20
0.0
 30
0.0
 0
VERTEX
 8
TITLE
 10
  5.7800
 20
  7.2000
 30
0.0
 0
VERTEX
 8
TITLE
 10
  5.7800
 20
  7.3000
 30
0.0
 0
SEQEND
 8
TITLE
 0
POLYLINE
 8
TITLE
 66
1
 10
0.0
 20
0.0
 30
0.0
 0
VERTEX
 8
TITLE
 10
  7.6400
 20
  0.2000
 30
0.0
 0
VERTEX
 8
TITLE
 10
  7.6400
 20
  0.1000
 30
0.0
 0
SEQEND
 8
TITLE
 0
POLYLINE
 8
TITLE
 66
1
 10
0.0
 20
0.0
 30
0.0
 0
VERTEX
 8
TITLE
 10
  7.6400
 20
  7.2000
 30
0.0
 0
VERTEX
 8
TITLE
 10
  7.6400
 20
  7.3000
 30
0.0
 0
SEQEND
 8
TITLE
 0
TEXT
 8
TITLE
 10
  1.1300
 20
  0.1200
 30
0.0
 40
  0.0500
 1
5
 0
TEXT
 8
TITLE
 10
  1.1300
 20
  7.2200
 30
0.0
 40
  0.0500
 1
5
 0
TEXT
 8
TITLE
 10
  2.9900
 20
  0.1200
 30
0.0
 40
  0.0500
 1
4
 0
TEXT
 8
TITLE
 10
  2.9900
 20
  7.2200
 30
0.0
 40
  0.0500
 1
4
 0
TEXT
 8
TITLE
 10
  4.8500
 20
  0.1200
 30
0.0
 40
  0.0500
 1
3
 0
TEXT
 8
TITLE
 10
  4.8500
 20
  7.2200
 30
0.0
 40
  0.0500
 1
3
 0
TEXT
 8
TITLE
 10
  6.7100
 20
  0.1200
 30
0.0
 40
  0.0500
 1
2
 0
TEXT
 8
TITLE
 10
  6.7100
 20
  7.2200
 30
0.0
 40
  0.0500
 1
2
 0
TEXT
 8
TITLE
 10
  8.5700
 20
  0.1200
 30
0.0
 40
  0.0500
 1
1
 0
TEXT
 8
TITLE
 10
  8.5700
 20
  7.2200
 30
0.0
 40
  0.0500
 1
1
 0
POLYLINE
 8
TITLE
 66
1
 10
0.0
 20
0.0
 30
0.0
 0
VERTEX
 8
TITLE
 10
 -0.1000
 20
  5.3000
 30
0.0
 0
VERTEX
 8
TITLE
 10
  0.0000
 20
  5.3000
 30
0.0
 0
SEQEND
 8
TITLE
 0
POLYLINE
 8
TITLE
 66
1
 10
0.0
 20
0.0
 30
0.0
 0
VERTEX
 8
TITLE
 10
  9.5000
 20
  5.3000
 30
0.0
 0
VERTEX
 8
TITLE
 10
  9.6000
 20
  5.3000
 30
0.0
 0
SEQEND
 8
TITLE
 0
SOLID
 8
TITLE
 10
  0.0000
 20
  3.6000
 30
0.0
 11
 -0.0500
 21
  3.6200
 31
0.0
 12
 -0.0500
 22
  3.5800
 32
0.0
 13
 -0.0500
 23
  3.6000
 33
0.0
 0
SOLID
 8
TITLE
 10
  9.5000
 20
  3.6000
 30
0.0
 11
  9.5500
 21
  3.6200
 31
0.0
 12
  9.5500
 22
  3.5800
 32
0.0
 13
  9.5500
 23
  3.6000
 33
0.0
 0
POLYLINE
 8
TITLE
 66
1
 10
0.0
 20
0.0
 30
0.0
 0
VERTEX
 8
TITLE
 10
 -0.1000
 20
  3.6000
 30
0.0
 0
VERTEX
 8
TITLE
 10
  0.0000
 20
  3.6000
 30
0.0
 0
SEQEND
 8
TITLE
 0
POLYLINE
 8
TITLE
 66
1
 10
0.0
 20
0.0
 30
0.0
 0
VERTEX
 8
TITLE
 10
  9.5000
 20
  3.6000
 30
0.0
 0
VERTEX
 8
TITLE
 10
  9.6000
 20
  3.6000
 30
0.0
 0
SEQEND
 8
TITLE
 0
SOLID
 8
TITLE
 10
  0.0000
 20
  3.6000
 30
0.0
 11
 -0.0500
 21
  3.6200
 31
0.0
 12
 -0.0500
 22
  3.5800
 32
0.0
 13
 -0.0500
 23
  3.6000
 33
0.0
 0
SOLID
 8
TITLE
 10
  9.5000
 20
  3.6000
 30
0.0
 11
  9.5500
 21
  3.6200
 31
0.0
 12
  9.5500
 22
  3.5800
 32
0.0
 13
  9.5500
 23
  3.6000
 33
0.0
 0
POLYLINE
 8
TITLE
 66
1
 10
0.0
 20
0.0
 30
0.0
 0
VERTEX
 8
TITLE
 10
 -0.1000
 20
  1.9000
 30
0.0
 0
VERTEX
 8
TITLE
 10
  0.0000
 20
  1.9000
 30
0.0
 0
SEQEND
 8
TITLE
 0
POLYLINE
 8
TITLE
 66
1
 10
0.0
 20
0.0
 30
0.0
 0
VERTEX
 8
TITLE
 10
  9.5000
 20
  1.9000
 30
0.0
 0
VERTEX
 8
TITLE
 10
  9.6000
 20
  1.9000
 30
0.0
 0
SEQEND
 8
TITLE
 0
SOLID
 8
TITLE
 10
  0.0000
 20
  3.6000
 30
0.0
 11
 -0.0500
 21
  3.6200
 31
0.0
 12
 -0.0500
 22
  3.5800
 32
0.0
 13
 -0.0500
 23
  3.6000
 33
0.0
 0
SOLID
 8
TITLE
 10
  9.5000
 20
  3.6000
 30
0.0
 11
  9.5500
 21
  3.6200
 31
0.0
 12
  9.5500
 22
  3.5800
 32
0.0
 13
  9.5500
 23
  3.6000
 33
0.0
 0
TEXT
 8
TITLE
 10
 -0.0800
 20
  6.1500
 30
0.0
 40
  0.0500
 1
D
 0
TEXT
 8
TITLE
 10
  9.5200
 20
  6.1500
 30
0.0
 40
  0.0500
 1
D
 0
TEXT
 8
TITLE
 10
 -0.0800
 20
  4.4500
 30
0.0
 40
  0.0500
 1
C
 0
TEXT
 8
TITLE
 10
  9.5200
 20
  4.4500
 30
0.0
 40
  0.0500
 1
C
 0
TEXT
 8
TITLE
 10
 -0.0800
 20
  2.7500
 30
0.0
 40
  0.0500
 1
B
 0
TEXT
 8
TITLE
 10
  9.5200
 20
  2.7500
 30
0.0
 40
  0.0500
 1
B
 0
TEXT
 8
TITLE
 10
 -0.0800
 20
  1.0500
 30
0.0
 40
  0.0500
 1
A
 0
TEXT
 8
TITLE
 10
  9.5200
 20
  1.0500
 30
0.0
 40
  0.0500
 1
A
 0
TEXT
 8
TITLE
 10
  6.3000
 20
  0.4186
 30
0.0
 40
  0.0514
 1
<Doc>
 0
TEXT
 8
TITLE
 10
  9.3000
 20
  0.4186
 30
0.0
 40
  0.0514
 1
<RevCode>
 0
TEXT
 8
TITLE
 10
  6.3000
 20
  0.7186
 30
0.0
 40
  0.0514
 1
<Title>
 0
TEXT
 8
TITLE
 10
  6.0000
 20
  0.4186
 30
0.0
 40
  0.0514
 1
A
 0
TEXT
 8
TITLE
 10
  8.4000
 20
  0.2186
 30
0.0
 40
  0.0514
 1
1
 0
TEXT
 8
TITLE
 10
  9.0000
 20
  0.2186
 30
0.0
 40
  0.0514
 1
1
 0
TEXT
 8
TITLE
 10
  6.4200
 20
  0.2186
 30
0.0
 40
  0.0514
 1
Saturday, October 18, 2014
 0
TEXT
 8
PARTTEXT
 10
  5.9000
 20
  0.8186
 30
0.0
 40
  0.0514
 1
Title
 0
TEXT
 8
PARTTEXT
 10
  5.9000
 20
  0.5186
 30
0.0
 40
  0.0514
 1
Size
 0
TEXT
 8
PARTTEXT
 10
  6.3000
 20
  0.5186
 30
0.0
 40
  0.0514
 1
Document Number
 0
TEXT
 8
PARTTEXT
 10
  9.2000
 20
  0.5186
 30
0.0
 40
  0.0514
 1
Rev
 0
TEXT
 8
PARTTEXT
 10
  5.9000
 20
  0.2186
 30
0.0
 40
  0.0514
 1
Date:
 0
TEXT
 8
PARTTEXT
 10
  7.9000
 20
  0.2186
 30
0.0
 40
  0.0514
 1
Sheet
 0
POLYLINE
 8
TITLE
 66
1
 70
1
 10
0.0
 20
0.0
 30
0.0
 0
VERTEX
 8
TITLE
 10
  5.9000
 20
  1.1000
 30
0.0
 0
VERTEX
 8
TITLE
 10
  9.5000
 20
  1.1000
 30
0.0
 0
VERTEX
 8
TITLE
 10
  9.5000
 20
  0.9000
 30
0.0
 0
VERTEX
 8
TITLE
 10
  5.9000
 20
  0.9000
 30
0.0
 0
SEQEND
 8
TITLE
 0
POLYLINE
 8
TITLE
 66
1
 70
1
 10
0.0
 20
0.0
 30
0.0
 0
VERTEX
 8
TITLE
 10
  5.9000
 20
  0.9000
 30
0.0
 0
VERTEX
 8
TITLE
 10
  9.5000
 20
  0.9000
 30
0.0
 0
VERTEX
 8
TITLE
 10
  9.5000
 20
  0.6000
 30
0.0
 0
VERTEX
 8
TITLE
 10
  5.9000
 20
  0.6000
 30
0.0
 0
SEQEND
 8
TITLE
 0
POLYLINE
 8
TITLE
 66
1
 70
1
 10
0.0
 20
0.0
 30
0.0
 0
VERTEX
 8
TITLE
 10
  5.9000
 20
  0.6000
 30
0.0
 0
VERTEX
 8
TITLE
 10
  6.2000
 20
  0.6000
 30
0.0
 0
VERTEX
 8
TITLE
 10
  6.2000
 20
  0.3000
 30
0.0
 0
VERTEX
 8
TITLE
 10
  5.9000
 20
  0.3000
 30
0.0
 0
SEQEND
 8
TITLE
 0
POLYLINE
 8
TITLE
 66
1
 70
1
 10
0.0
 20
0.0
 30
0.0
 0
VERTEX
 8
TITLE
 10
  6.2000
 20
  0.6000
 30
0.0
 0
VERTEX
 8
TITLE
 10
  9.2000
 20
  0.6000
 30
0.0
 0
VERTEX
 8
TITLE
 10
  9.2000
 20
  0.3000
 30
0.0
 0
VERTEX
 8
TITLE
 10
  6.2000
 20
  0.3000
 30
0.0
 0
SEQEND
 8
TITLE
 0
POLYLINE
 8
TITLE
 66
1
 70
1
 10
0.0
 20
0.0
 30
0.0
 0
VERTEX
 8
TITLE
 10
  9.2000
 20
  0.6000
 30
0.0
 0
VERTEX
 8
TITLE
 10
  9.5000
 20
  0.6000
 30
0.0
 0
VERTEX
 8
TITLE
 10
  9.5000
 20
  0.3000
 30
0.0
 0
VERTEX
 8
TITLE
 10
  9.2000
 20
  0.3000
 30
0.0
 0
SEQEND
 8
TITLE
 0
POLYLINE
 8
TITLE
 66
1
 70
1
 10
0.0
 20
0.0
 30
0.0
 0
VERTEX
 8
TITLE
 10
  5.9000
 20
  0.3000
 30
0.0
 0
VERTEX
 8
TITLE
 10
  7.9000
 20
  0.3000
 30
0.0
 0
VERTEX
 8
TITLE
 10
  7.9000
 20
  0.2000
 30
0.0
 0
VERTEX
 8
TITLE
 10
  5.9000
 20
  0.2000
 30
0.0
 0
SEQEND
 8
TITLE
 0
POLYLINE
 8
TITLE
 66
1
 70
1
 10
0.0
 20
0.0
 30
0.0
 0
VERTEX
 8
TITLE
 10
  7.9000
 20
  0.3000
 30
0.0
 0
VERTEX
 8
TITLE
 10
  9.5000
 20
  0.3000
 30
0.0
 0
VERTEX
 8
TITLE
 10
  9.5000
 20
  0.2000
 30
0.0
 0
VERTEX
 8
TITLE
 10
  7.9000
 20
  0.2000
 30
0.0
 0
SEQEND
 8
TITLE
 0
TEXT
 8
PARTTEXT
 10
  8.7000
 20
  0.2186
 30
0.0
 40
  0.0514
 1
of
 0
TEXT
 8
PARTTEXT
 10
  2.9000
 20
  2.9686
 30
0.0
 40
  0.0514
 1
R77
 0
TEXT
 8
PARTTEXT
 10
  2.9000
 20
  2.5586
 30
0.0
 40
  0.0514
 1
1MEG
 0
LINE
 8
PARTS
 10
  2.8000
 20
  2.8000
 30
0.0
 11
  2.9000
 21
  2.8000
 31
0.0
 0
LINE
 8
PARTS
 10
  3.3000
 20
  2.8000
 30
0.0
 11
  3.2000
 21
  2.8000
 31
0.0
 0
POLYLINE
 8
PARTS
 66
1
 10
0.0
 20
0.0
 30
0.0
 0
VERTEX
 8
PARTS
 10
  2.9000
 20
  2.8000
 30
0.0
 0
VERTEX
 8
PARTS
 10
  2.9300
 20
  2.8300
 30
0.0
 0
SEQEND
 8
PARTS
 0
POLYLINE
 8
PARTS
 66
1
 10
0.0
 20
0.0
 30
0.0
 0
VERTEX
 8
PARTS
 10
  2.9300
 20
  2.8300
 30
0.0
 0
VERTEX
 8
PARTS
 10
  2.9900
 20
  2.7700
 30
0.0
 0
SEQEND
 8
PARTS
 0
POLYLINE
 8
PARTS
 66
1
 10
0.0
 20
0.0
 30
0.0
 0
VERTEX
 8
PARTS
 10
  2.9900
 20
  2.7700
 30
0.0
 0
VERTEX
 8
PARTS
 10
  3.0500
 20
  2.8300
 30
0.0
 0
SEQEND
 8
PARTS
 0
POLYLINE
 8
PARTS
 66
1
 10
0.0
 20
0.0
 30
0.0
 0
VERTEX
 8
PARTS
 10
  3.0500
 20
  2.8300
 30
0.0
 0
VERTEX
 8
PARTS
 10
  3.1100
 20
  2.7700
 30
0.0
 0
SEQEND
 8
PARTS
 0
POLYLINE
 8
PARTS
 66
1
 10
0.0
 20
0.0
 30
0.0
 0
VERTEX
 8
PARTS
 10
  3.1100
 20
  2.7700
 30
0.0
 0
VERTEX
 8
PARTS
 10
  3.1700
 20
  2.8300
 30
0.0
 0
SEQEND
 8
PARTS
 0
POLYLINE
 8
PARTS
 66
1
 10
0.0
 20
0.0
 30
0.0
 0
VERTEX
 8
PARTS
 10
  3.1700
 20
  2.8300
 30
0.0
 0
VERTEX
 8
PARTS
 10
  3.2000
 20
  2.8000
 30
0.0
 0
SEQEND
 8
PARTS
 0
TEXT
 8
PARTTEXT
 10
  4.7000
 20
  6.8686
 30
0.0
 40
  0.0514
 1
J73
 0
TEXT
 8
PARTTEXT
 10
  4.7000
 20
  6.3586
 30
0.0
 40
  0.0514
 1
JUMPER1
 0
LINE
 8
PARTS
 10
  5.4000
 20
  6.6000
 30
0.0
 11
  5.1000
 21
  6.6000
 31
0.0
 0
TEXT
 8
PARTS
 10
  5.1600
 20
  6.6300
 30
0.0
 40
  0.0500
 1
1
 0
LINE
 8
PARTS
 10
  4.4000
 20
  6.6000
 30
0.0
 11
  4.7000
 21
  6.6000
 31
0.0
 0
TEXT
 8
PARTS
 10
  4.6000
 20
  6.6300
 30
0.0
 40
  0.0500
 1
2
 0
POLYLINE
 8
PARTS
 66
1
 10
0.0
 20
0.0
 30
0.0
 0
VERTEX
 8
PARTS
 10
  5.0000
 20
  6.6000
 30
0.0
 42
  1.0000
 0
VERTEX
 8
PARTS
 10
  4.8000
 20
  6.6000
 30
0.0
 0
SEQEND
 8
PARTS
 0
POLYLINE
 8
PARTS
 66
1
 70
1
 10
0.0
 20
0.0
 30
0.0
 0
VERTEX
 8
PARTS
 10
  4.8100
 20
  6.6000
 30
0.0
 42
  0.0985
 0
VERTEX
 8
PARTS
 10
  4.8092
 20
  6.6038
 30
0.0
 42
  0.0985
 0
VERTEX
 8
PARTS
 10
  4.8071
 20
  6.6071
 30
0.0
 42
  0.0985
 0
VERTEX
 8
PARTS
 10
  4.8038
 20
  6.6092
 30
0.0
 42
  0.0985
 0
VERTEX
 8
PARTS
 10
  4.8000
 20
  6.6100
 30
0.0
 42
  0.0985
 0
VERTEX
 8
PARTS
 10
  4.7962
 20
  6.6092
 30
0.0
 42
  0.0985
 0
VERTEX
 8
PARTS
 10
  4.7929
 20
  6.6071
 30
0.0
 42
  0.0985
 0
VERTEX
 8
PARTS
 10
  4.7908
 20
  6.6038
 30
0.0
 42
  0.0985
 0
VERTEX
 8
PARTS
 10
  4.7900
 20
  6.6000
 30
0.0
 42
  0.0985
 0
VERTEX
 8
PARTS
 10
  4.7908
 20
  6.5962
 30
0.0
 42
  0.0985
 0
VERTEX
 8
PARTS
 10
  4.7929
 20
  6.5929
 30
0.0
 42
  0.0985
 0
VERTEX
 8
PARTS
 10
  4.7962
 20
  6.5908
 30
0.0
 42
  0.0985
 0
VERTEX
 8
PARTS
 10
  4.8000
 20
  6.5900
 30
0.0
 42
  0.0985
 0
VERTEX
 8
PARTS
 10
  4.8038
 20
  6.5908
 30
0.0
 42
  0.0985
 0
VERTEX
 8
PARTS
 10
  4.8071
 20
  6.5929
 30
0.0
 42
  0.0985
 0
VERTEX
 8
PARTS
 10
  4.8092
 20
  6.5962
 30
0.0
 42
  0.0985
 0
SEQEND
 8
PARTS
 0
POLYLINE
 8
PARTS
 66
1
 70
1
 10
0.0
 20
0.0
 30
0.0
 0
VERTEX
 8
PARTS
 10
  5.0100
 20
  6.6000
 30
0.0
 42
  0.0985
 0
VERTEX
 8
PARTS
 10
  5.0092
 20
  6.6038
 30
0.0
 42
  0.0985
 0
VERTEX
 8
PARTS
 10
  5.0071
 20
  6.6071
 30
0.0
 42
  0.0985
 0
VERTEX
 8
PARTS
 10
  5.0038
 20
  6.6092
 30
0.0
 42
  0.0985
 0
VERTEX
 8
PARTS
 10
  5.0000
 20
  6.6100
 30
0.0
 42
  0.0985
 0
VERTEX
 8
PARTS
 10
  4.9962
 20
  6.6092
 30
0.0
 42
  0.0985
 0
VERTEX
 8
PARTS
 10
  4.9929
 20
  6.6071
 30
0.0
 42
  0.0985
 0
VERTEX
 8
PARTS
 10
  4.9908
 20
  6.6038
 30
0.0
 42
  0.0985
 0
VERTEX
 8
PARTS
 10
  4.9900
 20
  6.6000
 30
0.0
 42
  0.0985
 0
VERTEX
 8
PARTS
 10
  4.9908
 20
  6.5962
 30
0.0
 42
  0.0985
 0
VERTEX
 8
PARTS
 10
  4.9929
 20
  6.5929
 30
0.0
 42
  0.0985
 0
VERTEX
 8
PARTS
 10
  4.9962
 20
  6.5908
 30
0.0
 42
  0.0985
 0
VERTEX
 8
PARTS
 10
  5.0000
 20
  6.5900
 30
0.0
 42
  0.0985
 0
VERTEX
 8
PARTS
 10
  5.0038
 20
  6.5908
 30
0.0
 42
  0.0985
 0
VERTEX
 8
PARTS
 10
  5.0071
 20
  6.5929
 30
0.0
 42
  0.0985
 0
VERTEX
 8
PARTS
 10
  5.0092
 20
  6.5962
 30
0.0
 42
  0.0985
 0
SEQEND
 8
PARTS
 0
POLYLINE
 8
PARTS
 66
1
 10
0.0
 20
0.0
 30
0.0
 0
VERTEX
 8
PARTS
 10
  4.7000
 20
  6.6000
 30
0.0
 0
VERTEX
 8
PARTS
 10
  4.8000
 20
  6.6000
 30
0.0
 0
SEQEND
 8
PARTS
 0
POLYLINE
 8
PARTS
 66
1
 10
0.0
 20
0.0
 30
0.0
 0
VERTEX
 8
PARTS
 10
  5.0000
 20
  6.6000
 30
0.0
 0
VERTEX
 8
PARTS
 10
  5.1000
 20
  6.6000
 30
0.0
 0
SEQEND
 8
PARTS
 0
POLYLINE
 8
PARTS
 66
1
 70
1
 10
0.0
 20
0.0
 30
0.0
 0
VERTEX
 8
PARTS
 10
  5.1000
 20
  6.5000
 30
0.0
 0
VERTEX
 8
PARTS
 10
  4.7000
 20
  6.5000
 30
0.0
 0
VERTEX
 8
PARTS
 10
  4.7000
 20
  6.8000
 30
0.0
 0
VERTEX
 8
PARTS
 10
  5.1000
 20
  6.8000
 30
0.0
 0
SEQEND
 8
PARTS
 0
TEXT
 8
PARTTEXT
 10
  5.6900
 20
  5.6186
 30
0.0
 40
  0.0514
 1
C69
 0
TEXT
 8
PARTTEXT
 10
  5.6900
 20
  5.5286
 30
0.0
 40
  0.0514
 1
220pF
 0
LINE
 8
PARTS
 10
  5.5000
 20
  5.8000
 30
0.0
 11
  5.5000
 21
  5.7000
 31
0.0
 0
LINE
 8
PARTS
 10
  5.5000
 20
  5.5000
 30
0.0
 11
  5.5000
 21
  5.6000
 31
0.0
 0
POLYLINE
 8
PARTS
 66
1
 10
0.0
 20
0.0
 30
0.0
 0
VERTEX
 8
PARTS
 10
  5.5000
 20
  5.7000
 30
0.0
 0
VERTEX
 8
PARTS
 10
  5.5000
 20
  5.6800
 30
0.0
 0
SEQEND
 8
PARTS
 0
POLYLINE
 8
PARTS
 66
1
 10
0.0
 20
0.0
 30
0.0
 0
VERTEX
 8
PARTS
 10
  5.4100
 20
  5.6300
 30
0.0
 0
VERTEX
 8
PARTS
 10
  5.5900
 20
  5.6300
 30
0.0
 0
SEQEND
 8
PARTS
 0
POLYLINE
 8
PARTS
 66
1
 10
0.0
 20
0.0
 30
0.0
 0
VERTEX
 8
PARTS
 10
  5.4100
 20
  5.6800
 30
0.0
 0
VERTEX
 8
PARTS
 10
  5.5900
 20
  5.6800
 30
0.0
 0
SEQEND
 8
PARTS
 0
POLYLINE
 8
PARTS
 66
1
 10
0.0
 20
0.0
 30
0.0
 0
VERTEX
 8
PARTS
 10
  5.5000
 20
  5.6000
 30
0.0
 0
VERTEX
 8
PARTS
 10
  5.5000
 20
  5.6300
 30
0.0
 0
SEQEND
 8
PARTS
 0
TEXT
 8
PARTTEXT
 10
  3.2000
 20
  5.6186
 30
0.0
 40
  0.0514
 1
R79
 0
TEXT
 8
PARTTEXT
 10
  3.2000
 20
  5.5186
 30
0.0
 40
  0.0514
 1
TBD1206
 0
LINE
 8
PARTS
 10
  3.1000
 20
  5.8000
 30
0.0
 11
  3.1000
 21
  5.7000
 31
0.0
 0
LINE
 8
PARTS
 10
  3.1000
 20
  5.3000
 30
0.0
 11
  3.1000
 21
  5.4000
 31
0.0
 0
POLYLINE
 8
PARTS
 66
1
 10
0.0
 20
0.0
 30
0.0
 0
VERTEX
 8
PARTS
 10
  3.1000
 20
  5.7000
 30
0.0
 0
VERTEX
 8
PARTS
 10
  3.1300
 20
  5.6700
 30
0.0
 0
SEQEND
 8
PARTS
 0
POLYLINE
 8
PARTS
 66
1
 10
0.0
 20
0.0
 30
0.0
 0
VERTEX
 8
PARTS
 10
  3.1300
 20
  5.6700
 30
0.0
 0
VERTEX
 8
PARTS
 10
  3.0700
 20
  5.6100
 30
0.0
 0
SEQEND
 8
PARTS
 0
POLYLINE
 8
PARTS
 66
1
 10
0.0
 20
0.0
 30
0.0
 0
VERTEX
 8
PARTS
 10
  3.0700
 20
  5.6100
 30
0.0
 0
VERTEX
 8
PARTS
 10
  3.1300
 20
  5.5500
 30
0.0
 0
SEQEND
 8
PARTS
 0
POLYLINE
 8
PARTS
 66
1
 10
0.0
 20
0.0
 30
0.0
 0
VERTEX
 8
PARTS
 10
  3.1300
 20
  5.5500
 30
0.0
 0
VERTEX
 8
PARTS
 10
  3.0700
 20
  5.4900
 30
0.0
 0
SEQEND
 8
PARTS
 0
POLYLINE
 8
PARTS
 66
1
 10
0.0
 20
0.0
 30
0.0
 0
VERTEX
 8
PARTS
 10
  3.0700
 20
  5.4900
 30
0.0
 0
VERTEX
 8
PARTS
 10
  3.1300
 20
  5.4300
 30
0.0
 0
SEQEND
 8
PARTS
 0
POLYLINE
 8
PARTS
 66
1
 10
0.0
 20
0.0
 30
0.0
 0
VERTEX
 8
PARTS
 10
  3.1300
 20
  5.4300
 30
0.0
 0
VERTEX
 8
PARTS
 10
  3.1000
 20
  5.4000
 30
0.0
 0
SEQEND
 8
PARTS
 0
TEXT
 8
PARTTEXT
 10
  2.4000
 20
  3.9686
 30
0.0
 40
  0.0514
 1
L12
 0
TEXT
 8
PARTTEXT
 10
  2.4000
 20
  3.6586
 30
0.0
 40
  0.0514
 1
1500
 0
LINE
 8
PARTS
 10
  2.3000
 20
  3.8000
 30
0.0
 11
  2.4000
 21
  3.8000
 31
0.0
 0
LINE
 8
PARTS
 10
  2.9000
 20
  3.8000
 30
0.0
 11
  2.8000
 21
  3.8000
 31
0.0
 0
POLYLINE
 8
PARTS
 66
1
 10
0.0
 20
0.0
 30
0.0
 0
VERTEX
 8
PARTS
 10
  2.4500
 20
  3.8500
 30
0.0
 42
  0.4142
 0
VERTEX
 8
PARTS
 10
  2.4000
 20
  3.8000
 30
0.0
 0
SEQEND
 8
PARTS
 0
POLYLINE
 8
PARTS
 66
1
 10
0.0
 20
0.0
 30
0.0
 0
VERTEX
 8
PARTS
 10
  2.5000
 20
  3.8000
 30
0.0
 42
  0.4142
 0
VERTEX
 8
PARTS
 10
  2.4500
 20
  3.8500
 30
0.0
 0
SEQEND
 8
PARTS
 0
POLYLINE
 8
PARTS
 66
1
 10
0.0
 20
0.0
 30
0.0
 0
VERTEX
 8
PARTS
 10
  2.5500
 20
  3.8500
 30
0.0
 42
  0.4142
 0
VERTEX
 8
PARTS
 10
  2.5000
 20
  3.8000
 30
0.0
 0
SEQEND
 8
PARTS
 0
POLYLINE
 8
PARTS
 66
1
 10
0.0
 20
0.0
 30
0.0
 0
VERTEX
 8
PARTS
 10
  2.6000
 20
  3.8000
 30
0.0
 42
  0.4142
 0
VERTEX
 8
PARTS
 10
  2.5500
 20
  3.8500
 30
0.0
 0
SEQEND
 8
PARTS
 0
POLYLINE
 8
PARTS
 66
1
 10
0.0
 20
0.0
 30
0.0
 0
VERTEX
 8
PARTS
 10
  2.6500
 20
  3.8500
 30
0.0
 42
  0.4142
 0
VERTEX
 8
PARTS
 10
  2.6000
 20
  3.8000
 30
0.0
 0
SEQEND
 8
PARTS
 0
POLYLINE
 8
PARTS
 66
1
 10
0.0
 20
0.0
 30
0.0
 0
VERTEX
 8
PARTS
 10
  2.7000
 20
  3.8000
 30
0.0
 42
  0.4142
 0
VERTEX
 8
PARTS
 10
  2.6500
 20
  3.8500
 30
0.0
 0
SEQEND
 8
PARTS
 0
POLYLINE
 8
PARTS
 66
1
 10
0.0
 20
0.0
 30
0.0
 0
VERTEX
 8
PARTS
 10
  2.7500
 20
  3.8500
 30
0.0
 42
  0.4142
 0
VERTEX
 8
PARTS
 10
  2.7000
 20
  3.8000
 30
0.0
 0
SEQEND
 8
PARTS
 0
POLYLINE
 8
PARTS
 66
1
 10
0.0
 20
0.0
 30
0.0
 0
VERTEX
 8
PARTS
 10
  2.8000
 20
  3.8000
 30
0.0
 42
  0.4142
 0
VERTEX
 8
PARTS
 10
  2.7500
 20
  3.8500
 30
0.0
 0
SEQEND
 8
PARTS
 0
TEXT
 8
PARTTEXT
 10
  3.4000
 20
  3.5686
 30
0.0
 40
  0.0514
 1
J71
 0
TEXT
 8
PARTTEXT
 10
  3.4000
 20
  3.0586
 30
0.0
 40
  0.0514
 1
JUMPER1
 0
LINE
 8
PARTS
 10
  3.1000
 20
  3.4000
 30
0.0
 11
  3.4000
 21
  3.4000
 31
0.0
 0
TEXT
 8
PARTS
 10
  3.3000
 20
  3.4300
 30
0.0
 40
  0.0500
 1
1
 0
LINE
 8
PARTS
 10
  4.1000
 20
  3.4000
 30
0.0
 11
  3.8000
 21
  3.4000
 31
0.0
 0
TEXT
 8
PARTS
 10
  3.8600
 20
  3.4300
 30
0.0
 40
  0.0500
 1
2
 0
POLYLINE
 8
PARTS
 66
1
 10
0.0
 20
0.0
 30
0.0
 0
VERTEX
 8
PARTS
 10
  3.5000
 20
  3.4000
 30
0.0
 42
 -1.0000
 0
VERTEX
 8
PARTS
 10
  3.7000
 20
  3.4000
 30
0.0
 0
SEQEND
 8
PARTS
 0
POLYLINE
 8
PARTS
 66
1
 70
1
 10
0.0
 20
0.0
 30
0.0
 0
VERTEX
 8
PARTS
 10
  3.7100
 20
  3.4000
 30
0.0
 42
  0.0985
 0
VERTEX
 8
PARTS
 10
  3.7092
 20
  3.4038
 30
0.0
 42
  0.0985
 0
VERTEX
 8
PARTS
 10
  3.7071
 20
  3.4071
 30
0.0
 42
  0.0985
 0
VERTEX
 8
PARTS
 10
  3.7038
 20
  3.4092
 30
0.0
 42
  0.0985
 0
VERTEX
 8
PARTS
 10
  3.7000
 20
  3.4100
 30
0.0
 42
  0.0985
 0
VERTEX
 8
PARTS
 10
  3.6962
 20
  3.4092
 30
0.0
 42
  0.0985
 0
VERTEX
 8
PARTS
 10
  3.6929
 20
  3.4071
 30
0.0
 42
  0.0985
 0
VERTEX
 8
PARTS
 10
  3.6908
 20
  3.4038
 30
0.0
 42
  0.0985
 0
VERTEX
 8
PARTS
 10
  3.6900
 20
  3.4000
 30
0.0
 42
  0.0985
 0
VERTEX
 8
PARTS
 10
  3.6908
 20
  3.3962
 30
0.0
 42
  0.0985
 0
VERTEX
 8
PARTS
 10
  3.6929
 20
  3.3929
 30
0.0
 42
  0.0985
 0
VERTEX
 8
PARTS
 10
  3.6962
 20
  3.3908
 30
0.0
 42
  0.0985
 0
VERTEX
 8
PARTS
 10
  3.7000
 20
  3.3900
 30
0.0
 42
  0.0985
 0
VERTEX
 8
PARTS
 10
  3.7038
 20
  3.3908
 30
0.0
 42
  0.0985
 0
VERTEX
 8
PARTS
 10
  3.7071
 20
  3.3929
 30
0.0
 42
  0.0985
 0
VERTEX
 8
PARTS
 10
  3.7092
 20
  3.3962
 30
0.0
 42
  0.0985
 0
SEQEND
 8
PARTS
 0
POLYLINE
 8
PARTS
 66
1
 70
1
 10
0.0
 20
0.0
 30
0.0
 0
VERTEX
 8
PARTS
 10
  3.5100
 20
  3.4000
 30
0.0
 42
  0.0985
 0
VERTEX
 8
PARTS
 10
  3.5092
 20
  3.4038
 30
0.0
 42
  0.0985
 0
VERTEX
 8
PARTS
 10
  3.5071
 20
  3.4071
 30
0.0
 42
  0.0985
 0
VERTEX
 8
PARTS
 10
  3.5038
 20
  3.4092
 30
0.0
 42
  0.0985
 0
VERTEX
 8
PARTS
 10
  3.5000
 20
  3.4100
 30
0.0
 42
  0.0985
 0
VERTEX
 8
PARTS
 10
  3.4962
 20
  3.4092
 30
0.0
 42
  0.0985
 0
VERTEX
 8
PARTS
 10
  3.4929
 20
  3.4071
 30
0.0
 42
  0.0985
 0
VERTEX
 8
PARTS
 10
  3.4908
 20
  3.4038
 30
0.0
 42
  0.0985
 0
VERTEX
 8
PARTS
 10
  3.4900
 20
  3.4000
 30
0.0
 42
  0.0985
 0
VERTEX
 8
PARTS
 10
  3.4908
 20
  3.3962
 30
0.0
 42
  0.0985
 0
VERTEX
 8
PARTS
 10
  3.4929
 20
  3.3929
 30
0.0
 42
  0.0985
 0
VERTEX
 8
PARTS
 10
  3.4962
 20
  3.3908
 30
0.0
 42
  0.0985
 0
VERTEX
 8
PARTS
 10
  3.5000
 20
  3.3900
 30
0.0
 42
  0.0985
 0
VERTEX
 8
PARTS
 10
  3.5038
 20
  3.3908
 30
0.0
 42
  0.0985
 0
VERTEX
 8
PARTS
 10
  3.5071
 20
  3.3929
 30
0.0
 42
  0.0985
 0
VERTEX
 8
PARTS
 10
  3.5092
 20
  3.3962
 30
0.0
 42
  0.0985
 0
SEQEND
 8
PARTS
 0
POLYLINE
 8
PARTS
 66
1
 10
0.0
 20
0.0
 30
0.0
 0
VERTEX
 8
PARTS
 10
  3.8000
 20
  3.4000
 30
0.0
 0
VERTEX
 8
PARTS
 10
  3.7000
 20
  3.4000
 30
0.0
 0
SEQEND
 8
PARTS
 0
POLYLINE
 8
PARTS
 66
1
 10
0.0
 20
0.0
 30
0.0
 0
VERTEX
 8
PARTS
 10
  3.5000
 20
  3.4000
 30
0.0
 0
VERTEX
 8
PARTS
 10
  3.4000
 20
  3.4000
 30
0.0
 0
SEQEND
 8
PARTS
 0
POLYLINE
 8
PARTS
 66
1
 70
1
 10
0.0
 20
0.0
 30
0.0
 0
VERTEX
 8
PARTS
 10
  3.4000
 20
  3.5000
 30
0.0
 0
VERTEX
 8
PARTS
 10
  3.8000
 20
  3.5000
 30
0.0
 0
VERTEX
 8
PARTS
 10
  3.8000
 20
  3.2000
 30
0.0
 0
VERTEX
 8
PARTS
 10
  3.4000
 20
  3.2000
 30
0.0
 0
SEQEND
 8
PARTS
 0
TEXT
 8
PARTTEXT
 10
  0.6000
 20
  2.7186
 30
0.0
 40
  0.0514
 1
J66
 0
TEXT
 8
PARTTEXT
 10
  0.6000
 20
  1.9186
 30
0.0
 40
  0.0514
 1
HEADER 2
 0
LINE
 8
PARTS
 10
  1.2000
 20
  2.4000
 30
0.0
 11
  0.9000
 21
  2.4000
 31
0.0
 0
TEXT
 8
PARTS
 10
  0.9600
 20
  2.4300
 30
0.0
 40
  0.0500
 1
1
 0
LINE
 8
PARTS
 10
  1.2000
 20
  2.3000
 30
0.0
 11
  0.9000
 21
  2.3000
 31
0.0
 0
TEXT
 8
PARTS
 10
  0.9600
 20
  2.3300
 30
0.0
 40
  0.0500
 1
2
 0
POLYLINE
 8
PARTS
 66
1
 70
1
 10
0.0
 20
0.0
 30
0.0
 0
VERTEX
 8
PARTS
 10
  0.6000
 20
  2.5000
 30
0.0
 0
VERTEX
 8
PARTS
 10
  0.9000
 20
  2.5000
 30
0.0
 0
VERTEX
 8
PARTS
 10
  0.9000
 20
  2.2000
 30
0.0
 0
VERTEX
 8
PARTS
 10
  0.6000
 20
  2.2000
 30
0.0
 0
SEQEND
 8
PARTS
 0
POLYLINE
 8
PARTS
 66
1
 10
0.0
 20
0.0
 30
0.0
 0
VERTEX
 8
PARTS
 10
  0.8000
 20
  2.5000
 30
0.0
 0
VERTEX
 8
PARTS
 10
  0.8000
 20
  2.5000
 30
0.0
 0
VERTEX
 8
PARTS
 10
  0.8000
 20
  2.5300
 30
0.0
 0
VERTEX
 8
PARTS
 10
  0.7100
 20
  2.5300
 30
0.0
 0
VERTEX
 8
PARTS
 10
  0.7100
 20
  2.5000
 30
0.0
 0
SEQEND
 8
PARTS
 0
POLYLINE
 8
PARTS
 66
1
 10
0.0
 20
0.0
 30
0.0
 0
VERTEX
 8
PARTS
 10
  0.7100
 20
  2.2000
 30
0.0
 0
VERTEX
 8
PARTS
 10
  0.7100
 20
  2.2000
 30
0.0
 0
VERTEX
 8
PARTS
 10
  0.7100
 20
  2.1700
 30
0.0
 0
VERTEX
 8
PARTS
 10
  0.8000
 20
  2.1700
 30
0.0
 0
VERTEX
 8
PARTS
 10
  0.8000
 20
  2.2000
 30
0.0
 0
SEQEND
 8
PARTS
 0
TEXT
 8
PARTTEXT
 10
  3.5000
 20
  6.8686
 30
0.0
 40
  0.0514
 1
J74
 0
TEXT
 8
PARTTEXT
 10
  3.5000
 20
  6.3586
 30
0.0
 40
  0.0514
 1
JUMPER1
 0
LINE
 8
PARTS
 10
  4.2000
 20
  6.6000
 30
0.0
 11
  3.9000
 21
  6.6000
 31
0.0
 0
TEXT
 8
PARTS
 10
  3.9600
 20
  6.6300
 30
0.0
 40
  0.0500
 1
1
 0
LINE
 8
PARTS
 10
  3.2000
 20
  6.6000
 30
0.0
 11
  3.5000
 21
  6.6000
 31
0.0
 0
TEXT
 8
PARTS
 10
  3.4000
 20
  6.6300
 30
0.0
 40
  0.0500
 1
2
 0
POLYLINE
 8
PARTS
 66
1
 10
0.0
 20
0.0
 30
0.0
 0
VERTEX
 8
PARTS
 10
  3.8000
 20
  6.6000
 30
0.0
 42
  1.0000
 0
VERTEX
 8
PARTS
 10
  3.6000
 20
  6.6000
 30
0.0
 0
SEQEND
 8
PARTS
 0
POLYLINE
 8
PARTS
 66
1
 70
1
 10
0.0
 20
0.0
 30
0.0
 0
VERTEX
 8
PARTS
 10
  3.6100
 20
  6.6000
 30
0.0
 42
  0.0985
 0
VERTEX
 8
PARTS
 10
  3.6092
 20
  6.6038
 30
0.0
 42
  0.0985
 0
VERTEX
 8
PARTS
 10
  3.6071
 20
  6.6071
 30
0.0
 42
  0.0985
 0
VERTEX
 8
PARTS
 10
  3.6038
 20
  6.6092
 30
0.0
 42
  0.0985
 0
VERTEX
 8
PARTS
 10
  3.6000
 20
  6.6100
 30
0.0
 42
  0.0985
 0
VERTEX
 8
PARTS
 10
  3.5962
 20
  6.6092
 30
0.0
 42
  0.0985
 0
VERTEX
 8
PARTS
 10
  3.5929
 20
  6.6071
 30
0.0
 42
  0.0985
 0
VERTEX
 8
PARTS
 10
  3.5908
 20
  6.6038
 30
0.0
 42
  0.0985
 0
VERTEX
 8
PARTS
 10
  3.5900
 20
  6.6000
 30
0.0
 42
  0.0985
 0
VERTEX
 8
PARTS
 10
  3.5908
 20
  6.5962
 30
0.0
 42
  0.0985
 0
VERTEX
 8
PARTS
 10
  3.5929
 20
  6.5929
 30
0.0
 42
  0.0985
 0
VERTEX
 8
PARTS
 10
  3.5962
 20
  6.5908
 30
0.0
 42
  0.0985
 0
VERTEX
 8
PARTS
 10
  3.6000
 20
  6.5900
 30
0.0
 42
  0.0985
 0
VERTEX
 8
PARTS
 10
  3.6038
 20
  6.5908
 30
0.0
 42
  0.0985
 0
VERTEX
 8
PARTS
 10
  3.6071
 20
  6.5929
 30
0.0
 42
  0.0985
 0
VERTEX
 8
PARTS
 10
  3.6092
 20
  6.5962
 30
0.0
 42
  0.0985
 0
SEQEND
 8
PARTS
 0
POLYLINE
 8
PARTS
 66
1
 70
1
 10
0.0
 20
0.0
 30
0.0
 0
VERTEX
 8
PARTS
 10
  3.8100
 20
  6.6000
 30
0.0
 42
  0.0985
 0
VERTEX
 8
PARTS
 10
  3.8092
 20
  6.6038
 30
0.0
 42
  0.0985
 0
VERTEX
 8
PARTS
 10
  3.8071
 20
  6.6071
 30
0.0
 42
  0.0985
 0
VERTEX
 8
PARTS
 10
  3.8038
 20
  6.6092
 30
0.0
 42
  0.0985
 0
VERTEX
 8
PARTS
 10
  3.8000
 20
  6.6100
 30
0.0
 42
  0.0985
 0
VERTEX
 8
PARTS
 10
  3.7962
 20
  6.6092
 30
0.0
 42
  0.0985
 0
VERTEX
 8
PARTS
 10
  3.7929
 20
  6.6071
 30
0.0
 42
  0.0985
 0
VERTEX
 8
PARTS
 10
  3.7908
 20
  6.6038
 30
0.0
 42
  0.0985
 0
VERTEX
 8
PARTS
 10
  3.7900
 20
  6.6000
 30
0.0
 42
  0.0985
 0
VERTEX
 8
PARTS
 10
  3.7908
 20
  6.5962
 30
0.0
 42
  0.0985
 0
VERTEX
 8
PARTS
 10
  3.7929
 20
  6.5929
 30
0.0
 42
  0.0985
 0
VERTEX
 8
PARTS
 10
  3.7962
 20
  6.5908
 30
0.0
 42
  0.0985
 0
VERTEX
 8
PARTS
 10
  3.8000
 20
  6.5900
 30
0.0
 42
  0.0985
 0
VERTEX
 8
PARTS
 10
  3.8038
 20
  6.5908
 30
0.0
 42
  0.0985
 0
VERTEX
 8
PARTS
 10
  3.8071
 20
  6.5929
 30
0.0
 42
  0.0985
 0
VERTEX
 8
PARTS
 10
  3.8092
 20
  6.5962
 30
0.0
 42
  0.0985
 0
SEQEND
 8
PARTS
 0
POLYLINE
 8
PARTS
 66
1
 10
0.0
 20
0.0
 30
0.0
 0
VERTEX
 8
PARTS
 10
  3.5000
 20
  6.6000
 30
0.0
 0
VERTEX
 8
PARTS
 10
  3.6000
 20
  6.6000
 30
0.0
 0
SEQEND
 8
PARTS
 0
POLYLINE
 8
PARTS
 66
1
 10
0.0
 20
0.0
 30
0.0
 0
VERTEX
 8
PARTS
 10
  3.8000
 20
  6.6000
 30
0.0
 0
VERTEX
 8
PARTS
 10
  3.9000
 20
  6.6000
 30
0.0
 0
SEQEND
 8
PARTS
 0
POLYLINE
 8
PARTS
 66
1
 70
1
 10
0.0
 20
0.0
 30
0.0
 0
VERTEX
 8
PARTS
 10
  3.9000
 20
  6.5000
 30
0.0
 0
VERTEX
 8
PARTS
 10
  3.5000
 20
  6.5000
 30
0.0
 0
VERTEX
 8
PARTS
 10
  3.5000
 20
  6.8000
 30
0.0
 0
VERTEX
 8
PARTS
 10
  3.9000
 20
  6.8000
 30
0.0
 0
SEQEND
 8
PARTS
 0
TEXT
 8
PARTTEXT
 10
  5.6900
 20
  4.4186
 30
0.0
 40
  0.0514
 1
C70
 0
TEXT
 8
PARTTEXT
 10
  5.6900
 20
  4.3286
 30
0.0
 40
  0.0514
 1
220pF
 0
LINE
 8
PARTS
 10
  5.5000
 20
  4.6000
 30
0.0
 11
  5.5000
 21
  4.5000
 31
0.0
 0
LINE
 8
PARTS
 10
  5.5000
 20
  4.3000
 30
0.0
 11
  5.5000
 21
  4.4000
 31
0.0
 0
POLYLINE
 8
PARTS
 66
1
 10
0.0
 20
0.0
 30
0.0
 0
VERTEX
 8
PARTS
 10
  5.5000
 20
  4.5000
 30
0.0
 0
VERTEX
 8
PARTS
 10
  5.5000
 20
  4.4800
 30
0.0
 0
SEQEND
 8
PARTS
 0
POLYLINE
 8
PARTS
 66
1
 10
0.0
 20
0.0
 30
0.0
 0
VERTEX
 8
PARTS
 10
  5.4100
 20
  4.4300
 30
0.0
 0
VERTEX
 8
PARTS
 10
  5.5900
 20
  4.4300
 30
0.0
 0
SEQEND
 8
PARTS
 0
POLYLINE
 8
PARTS
 66
1
 10
0.0
 20
0.0
 30
0.0
 0
VERTEX
 8
PARTS
 10
  5.4100
 20
  4.4800
 30
0.0
 0
VERTEX
 8
PARTS
 10
  5.5900
 20
  4.4800
 30
0.0
 0
SEQEND
 8
PARTS
 0
POLYLINE
 8
PARTS
 66
1
 10
0.0
 20
0.0
 30
0.0
 0
VERTEX
 8
PARTS
 10
  5.5000
 20
  4.4000
 30
0.0
 0
VERTEX
 8
PARTS
 10
  5.5000
 20
  4.4300
 30
0.0
 0
SEQEND
 8
PARTS
 0
TEXT
 8
PARTTEXT
 10
  3.2000
 20
  4.4186
 30
0.0
 40
  0.0514
 1
R80
 0
TEXT
 8
PARTTEXT
 10
  3.2000
 20
  4.3186
 30
0.0
 40
  0.0514
 1
TBD1206
 0
LINE
 8
PARTS
 10
  3.1000
 20
  4.6000
 30
0.0
 11
  3.1000
 21
  4.5000
 31
0.0
 0
LINE
 8
PARTS
 10
  3.1000
 20
  4.1000
 30
0.0
 11
  3.1000
 21
  4.2000
 31
0.0
 0
POLYLINE
 8
PARTS
 66
1
 10
0.0
 20
0.0
 30
0.0
 0
VERTEX
 8
PARTS
 10
  3.1000
 20
  4.5000
 30
0.0
 0
VERTEX
 8
PARTS
 10
  3.1300
 20
  4.4700
 30
0.0
 0
SEQEND
 8
PARTS
 0
POLYLINE
 8
PARTS
 66
1
 10
0.0
 20
0.0
 30
0.0
 0
VERTEX
 8
PARTS
 10
  3.1300
 20
  4.4700
 30
0.0
 0
VERTEX
 8
PARTS
 10
  3.0700
 20
  4.4100
 30
0.0
 0
SEQEND
 8
PARTS
 0
POLYLINE
 8
PARTS
 66
1
 10
0.0
 20
0.0
 30
0.0
 0
VERTEX
 8
PARTS
 10
  3.0700
 20
  4.4100
 30
0.0
 0
VERTEX
 8
PARTS
 10
  3.1300
 20
  4.3500
 30
0.0
 0
SEQEND
 8
PARTS
 0
POLYLINE
 8
PARTS
 66
1
 10
0.0
 20
0.0
 30
0.0
 0
VERTEX
 8
PARTS
 10
  3.1300
 20
  4.3500
 30
0.0
 0
VERTEX
 8
PARTS
 10
  3.0700
 20
  4.2900
 30
0.0
 0
SEQEND
 8
PARTS
 0
POLYLINE
 8
PARTS
 66
1
 10
0.0
 20
0.0
 30
0.0
 0
VERTEX
 8
PARTS
 10
  3.0700
 20
  4.2900
 30
0.0
 0
VERTEX
 8
PARTS
 10
  3.1300
 20
  4.2300
 30
0.0
 0
SEQEND
 8
PARTS
 0
POLYLINE
 8
PARTS
 66
1
 10
0.0
 20
0.0
 30
0.0
 0
VERTEX
 8
PARTS
 10
  3.1300
 20
  4.2300
 30
0.0
 0
VERTEX
 8
PARTS
 10
  3.1000
 20
  4.2000
 30
0.0
 0
SEQEND
 8
PARTS
 0
TEXT
 8
PARTTEXT
 10
  0.5000
 20
  5.2186
 30
0.0
 40
  0.0514
 1
J77
 0
TEXT
 8
PARTTEXT
 10
  0.5000
 20
  4.4186
 30
0.0
 40
  0.0514
 1
HEADER 2
 0
LINE
 8
PARTS
 10
  1.1000
 20
  4.9000
 30
0.0
 11
  0.8000
 21
  4.9000
 31
0.0
 0
TEXT
 8
PARTS
 10
  0.8600
 20
  4.9300
 30
0.0
 40
  0.0500
 1
1
 0
LINE
 8
PARTS
 10
  1.1000
 20
  4.8000
 30
0.0
 11
  0.8000
 21
  4.8000
 31
0.0
 0
TEXT
 8
PARTS
 10
  0.8600
 20
  4.8300
 30
0.0
 40
  0.0500
 1
2
 0
POLYLINE
 8
PARTS
 66
1
 70
1
 10
0.0
 20
0.0
 30
0.0
 0
VERTEX
 8
PARTS
 10
  0.5000
 20
  5.0000
 30
0.0
 0
VERTEX
 8
PARTS
 10
  0.8000
 20
  5.0000
 30
0.0
 0
VERTEX
 8
PARTS
 10
  0.8000
 20
  4.7000
 30
0.0
 0
VERTEX
 8
PARTS
 10
  0.5000
 20
  4.7000
 30
0.0
 0
SEQEND
 8
PARTS
 0
POLYLINE
 8
PARTS
 66
1
 10
0.0
 20
0.0
 30
0.0
 0
VERTEX
 8
PARTS
 10
  0.7000
 20
  5.0000
 30
0.0
 0
VERTEX
 8
PARTS
 10
  0.7000
 20
  5.0000
 30
0.0
 0
VERTEX
 8
PARTS
 10
  0.7000
 20
  5.0300
 30
0.0
 0
VERTEX
 8
PARTS
 10
  0.6100
 20
  5.0300
 30
0.0
 0
VERTEX
 8
PARTS
 10
  0.6100
 20
  5.0000
 30
0.0
 0
SEQEND
 8
PARTS
 0
POLYLINE
 8
PARTS
 66
1
 10
0.0
 20
0.0
 30
0.0
 0
VERTEX
 8
PARTS
 10
  0.6100
 20
  4.7000
 30
0.0
 0
VERTEX
 8
PARTS
 10
  0.6100
 20
  4.7000
 30
0.0
 0
VERTEX
 8
PARTS
 10
  0.6100
 20
  4.6700
 30
0.0
 0
VERTEX
 8
PARTS
 10
  0.7000
 20
  4.6700
 30
0.0
 0
VERTEX
 8
PARTS
 10
  0.7000
 20
  4.7000
 30
0.0
 0
SEQEND
 8
PARTS
 0
TEXT
 8
PARTTEXT
 10
  1.7000
 20
  2.5686
 30
0.0
 40
  0.0514
 1
L10
 0
TEXT
 8
PARTTEXT
 10
  1.7000
 20
  2.2586
 30
0.0
 40
  0.0514
 1
1500
 0
LINE
 8
PARTS
 10
  1.6000
 20
  2.4000
 30
0.0
 11
  1.7000
 21
  2.4000
 31
0.0
 0
LINE
 8
PARTS
 10
  2.2000
 20
  2.4000
 30
0.0
 11
  2.1000
 21
  2.4000
 31
0.0
 0
POLYLINE
 8
PARTS
 66
1
 10
0.0
 20
0.0
 30
0.0
 0
VERTEX
 8
PARTS
 10
  1.7500
 20
  2.4500
 30
0.0
 42
  0.4142
 0
VERTEX
 8
PARTS
 10
  1.7000
 20
  2.4000
 30
0.0
 0
SEQEND
 8
PARTS
 0
POLYLINE
 8
PARTS
 66
1
 10
0.0
 20
0.0
 30
0.0
 0
VERTEX
 8
PARTS
 10
  1.8000
 20
  2.4000
 30
0.0
 42
  0.4142
 0
VERTEX
 8
PARTS
 10
  1.7500
 20
  2.4500
 30
0.0
 0
SEQEND
 8
PARTS
 0
POLYLINE
 8
PARTS
 66
1
 10
0.0
 20
0.0
 30
0.0
 0
VERTEX
 8
PARTS
 10
  1.8500
 20
  2.4500
 30
0.0
 42
  0.4142
 0
VERTEX
 8
PARTS
 10
  1.8000
 20
  2.4000
 30
0.0
 0
SEQEND
 8
PARTS
 0
POLYLINE
 8
PARTS
 66
1
 10
0.0
 20
0.0
 30
0.0
 0
VERTEX
 8
PARTS
 10
  1.9000
 20
  2.4000
 30
0.0
 42
  0.4142
 0
VERTEX
 8
PARTS
 10
  1.8500
 20
  2.4500
 30
0.0
 0
SEQEND
 8
PARTS
 0
POLYLINE
 8
PARTS
 66
1
 10
0.0
 20
0.0
 30
0.0
 0
VERTEX
 8
PARTS
 10
  1.9500
 20
  2.4500
 30
0.0
 42
  0.4142
 0
VERTEX
 8
PARTS
 10
  1.9000
 20
  2.4000
 30
0.0
 0
SEQEND
 8
PARTS
 0
POLYLINE
 8
PARTS
 66
1
 10
0.0
 20
0.0
 30
0.0
 0
VERTEX
 8
PARTS
 10
  2.0000
 20
  2.4000
 30
0.0
 42
  0.4142
 0
VERTEX
 8
PARTS
 10
  1.9500
 20
  2.4500
 30
0.0
 0
SEQEND
 8
PARTS
 0
POLYLINE
 8
PARTS
 66
1
 10
0.0
 20
0.0
 30
0.0
 0
VERTEX
 8
PARTS
 10
  2.0500
 20
  2.4500
 30
0.0
 42
  0.4142
 0
VERTEX
 8
PARTS
 10
  2.0000
 20
  2.4000
 30
0.0
 0
SEQEND
 8
PARTS
 0
POLYLINE
 8
PARTS
 66
1
 10
0.0
 20
0.0
 30
0.0
 0
VERTEX
 8
PARTS
 10
  2.1000
 20
  2.4000
 30
0.0
 42
  0.4142
 0
VERTEX
 8
PARTS
 10
  2.0500
 20
  2.4500
 30
0.0
 0
SEQEND
 8
PARTS
 0
TEXT
 8
PARTTEXT
 10
  5.0000
 20
  3.5686
 30
0.0
 40
  0.0514
 1
J72
 0
TEXT
 8
PARTTEXT
 10
  5.0000
 20
  3.0586
 30
0.0
 40
  0.0514
 1
JUMPER1
 0
LINE
 8
PARTS
 10
  4.7000
 20
  3.4000
 30
0.0
 11
  5.0000
 21
  3.4000
 31
0.0
 0
TEXT
 8
PARTS
 10
  4.9000
 20
  3.4300
 30
0.0
 40
  0.0500
 1
1
 0
LINE
 8
PARTS
 10
  5.7000
 20
  3.4000
 30
0.0
 11
  5.4000
 21
  3.4000
 31
0.0
 0
TEXT
 8
PARTS
 10
  5.4600
 20
  3.4300
 30
0.0
 40
  0.0500
 1
2
 0
POLYLINE
 8
PARTS
 66
1
 10
0.0
 20
0.0
 30
0.0
 0
VERTEX
 8
PARTS
 10
  5.1000
 20
  3.4000
 30
0.0
 42
 -1.0000
 0
VERTEX
 8
PARTS
 10
  5.3000
 20
  3.4000
 30
0.0
 0
SEQEND
 8
PARTS
 0
POLYLINE
 8
PARTS
 66
1
 70
1
 10
0.0
 20
0.0
 30
0.0
 0
VERTEX
 8
PARTS
 10
  5.3100
 20
  3.4000
 30
0.0
 42
  0.0985
 0
VERTEX
 8
PARTS
 10
  5.3092
 20
  3.4038
 30
0.0
 42
  0.0985
 0
VERTEX
 8
PARTS
 10
  5.3071
 20
  3.4071
 30
0.0
 42
  0.0985
 0
VERTEX
 8
PARTS
 10
  5.3038
 20
  3.4092
 30
0.0
 42
  0.0985
 0
VERTEX
 8
PARTS
 10
  5.3000
 20
  3.4100
 30
0.0
 42
  0.0985
 0
VERTEX
 8
PARTS
 10
  5.2962
 20
  3.4092
 30
0.0
 42
  0.0985
 0
VERTEX
 8
PARTS
 10
  5.2929
 20
  3.4071
 30
0.0
 42
  0.0985
 0
VERTEX
 8
PARTS
 10
  5.2908
 20
  3.4038
 30
0.0
 42
  0.0985
 0
VERTEX
 8
PARTS
 10
  5.2900
 20
  3.4000
 30
0.0
 42
  0.0985
 0
VERTEX
 8
PARTS
 10
  5.2908
 20
  3.3962
 30
0.0
 42
  0.0985
 0
VERTEX
 8
PARTS
 10
  5.2929
 20
  3.3929
 30
0.0
 42
  0.0985
 0
VERTEX
 8
PARTS
 10
  5.2962
 20
  3.3908
 30
0.0
 42
  0.0985
 0
VERTEX
 8
PARTS
 10
  5.3000
 20
  3.3900
 30
0.0
 42
  0.0985
 0
VERTEX
 8
PARTS
 10
  5.3038
 20
  3.3908
 30
0.0
 42
  0.0985
 0
VERTEX
 8
PARTS
 10
  5.3071
 20
  3.3929
 30
0.0
 42
  0.0985
 0
VERTEX
 8
PARTS
 10
  5.3092
 20
  3.3962
 30
0.0
 42
  0.0985
 0
SEQEND
 8
PARTS
 0
POLYLINE
 8
PARTS
 66
1
 70
1
 10
0.0
 20
0.0
 30
0.0
 0
VERTEX
 8
PARTS
 10
  5.1100
 20
  3.4000
 30
0.0
 42
  0.0985
 0
VERTEX
 8
PARTS
 10
  5.1092
 20
  3.4038
 30
0.0
 42
  0.0985
 0
VERTEX
 8
PARTS
 10
  5.1071
 20
  3.4071
 30
0.0
 42
  0.0985
 0
VERTEX
 8
PARTS
 10
  5.1038
 20
  3.4092
 30
0.0
 42
  0.0985
 0
VERTEX
 8
PARTS
 10
  5.1000
 20
  3.4100
 30
0.0
 42
  0.0985
 0
VERTEX
 8
PARTS
 10
  5.0962
 20
  3.4092
 30
0.0
 42
  0.0985
 0
VERTEX
 8
PARTS
 10
  5.0929
 20
  3.4071
 30
0.0
 42
  0.0985
 0
VERTEX
 8
PARTS
 10
  5.0908
 20
  3.4038
 30
0.0
 42
  0.0985
 0
VERTEX
 8
PARTS
 10
  5.0900
 20
  3.4000
 30
0.0
 42
  0.0985
 0
VERTEX
 8
PARTS
 10
  5.0908
 20
  3.3962
 30
0.0
 42
  0.0985
 0
VERTEX
 8
PARTS
 10
  5.0929
 20
  3.3929
 30
0.0
 42
  0.0985
 0
VERTEX
 8
PARTS
 10
  5.0962
 20
  3.3908
 30
0.0
 42
  0.0985
 0
VERTEX
 8
PARTS
 10
  5.1000
 20
  3.3900
 30
0.0
 42
  0.0985
 0
VERTEX
 8
PARTS
 10
  5.1038
 20
  3.3908
 30
0.0
 42
  0.0985
 0
VERTEX
 8
PARTS
 10
  5.1071
 20
  3.3929
 30
0.0
 42
  0.0985
 0
VERTEX
 8
PARTS
 10
  5.1092
 20
  3.3962
 30
0.0
 42
  0.0985
 0
SEQEND
 8
PARTS
 0
POLYLINE
 8
PARTS
 66
1
 10
0.0
 20
0.0
 30
0.0
 0
VERTEX
 8
PARTS
 10
  5.4000
 20
  3.4000
 30
0.0
 0
VERTEX
 8
PARTS
 10
  5.3000
 20
  3.4000
 30
0.0
 0
SEQEND
 8
PARTS
 0
POLYLINE
 8
PARTS
 66
1
 10
0.0
 20
0.0
 30
0.0
 0
VERTEX
 8
PARTS
 10
  5.1000
 20
  3.4000
 30
0.0
 0
VERTEX
 8
PARTS
 10
  5.0000
 20
  3.4000
 30
0.0
 0
SEQEND
 8
PARTS
 0
POLYLINE
 8
PARTS
 66
1
 70
1
 10
0.0
 20
0.0
 30
0.0
 0
VERTEX
 8
PARTS
 10
  5.0000
 20
  3.5000
 30
0.0
 0
VERTEX
 8
PARTS
 10
  5.4000
 20
  3.5000
 30
0.0
 0
VERTEX
 8
PARTS
 10
  5.4000
 20
  3.2000
 30
0.0
 0
VERTEX
 8
PARTS
 10
  5.0000
 20
  3.2000
 30
0.0
 0
SEQEND
 8
PARTS
 0
TEXT
 8
PARTTEXT
 10
  4.5900
 20
  5.6186
 30
0.0
 40
  0.0514
 1
C71
 0
TEXT
 8
PARTTEXT
 10
  4.5900
 20
  5.5286
 30
0.0
 40
  0.0514
 1
220pF
 0
LINE
 8
PARTS
 10
  4.4000
 20
  5.8000
 30
0.0
 11
  4.4000
 21
  5.7000
 31
0.0
 0
LINE
 8
PARTS
 10
  4.4000
 20
  5.5000
 30
0.0
 11
  4.4000
 21
  5.6000
 31
0.0
 0
POLYLINE
 8
PARTS
 66
1
 10
0.0
 20
0.0
 30
0.0
 0
VERTEX
 8
PARTS
 10
  4.4000
 20
  5.7000
 30
0.0
 0
VERTEX
 8
PARTS
 10
  4.4000
 20
  5.6800
 30
0.0
 0
SEQEND
 8
PARTS
 0
POLYLINE
 8
PARTS
 66
1
 10
0.0
 20
0.0
 30
0.0
 0
VERTEX
 8
PARTS
 10
  4.3100
 20
  5.6300
 30
0.0
 0
VERTEX
 8
PARTS
 10
  4.4900
 20
  5.6300
 30
0.0
 0
SEQEND
 8
PARTS
 0
POLYLINE
 8
PARTS
 66
1
 10
0.0
 20
0.0
 30
0.0
 0
VERTEX
 8
PARTS
 10
  4.3100
 20
  5.6800
 30
0.0
 0
VERTEX
 8
PARTS
 10
  4.4900
 20
  5.6800
 30
0.0
 0
SEQEND
 8
PARTS
 0
POLYLINE
 8
PARTS
 66
1
 10
0.0
 20
0.0
 30
0.0
 0
VERTEX
 8
PARTS
 10
  4.4000
 20
  5.6000
 30
0.0
 0
VERTEX
 8
PARTS
 10
  4.4000
 20
  5.6300
 30
0.0
 0
SEQEND
 8
PARTS
 0
TEXT
 8
PARTTEXT
 10
  4.9000
 20
  0.3586
 30
0.0
 40
  0.0514
 1
J69
 0
TEXT
 8
PARTTEXT
 10
  4.9000
 20
  0.2386
 30
0.0
 40
  0.0514
 1
HEADER 3
 0
LINE
 8
PARTS
 10
  5.1000
 20
  1.1000
 30
0.0
 11
  5.1000
 21
  0.8000
 31
0.0
 0
TEXT
 8
PARTS
 10
  5.0700
 20
  0.8600
 30
0.0
 40
  0.0500
 50
 90.0000
 1
1
 0
LINE
 8
PARTS
 10
  5.2000
 20
  1.1000
 30
0.0
 11
  5.2000
 21
  0.8000
 31
0.0
 0
TEXT
 8
PARTS
 10
  5.1700
 20
  0.8600
 30
0.0
 40
  0.0500
 50
 90.0000
 1
2
 0
LINE
 8
PARTS
 10
  5.3000
 20
  1.1000
 30
0.0
 11
  5.3000
 21
  0.8000
 31
0.0
 0
TEXT
 8
PARTS
 10
  5.2700
 20
  0.8600
 30
0.0
 40
  0.0500
 50
 90.0000
 1
3
 0
POLYLINE
 8
PARTS
 66
1
 70
1
 10
0.0
 20
0.0
 30
0.0
 0
VERTEX
 8
PARTS
 10
  5.0000
 20
  0.5000
 30
0.0
 0
VERTEX
 8
PARTS
 10
  5.0000
 20
  0.8000
 30
0.0
 0
VERTEX
 8
PARTS
 10
  5.4000
 20
  0.8000
 30
0.0
 0
VERTEX
 8
PARTS
 10
  5.4000
 20
  0.5000
 30
0.0
 0
SEQEND
 8
PARTS
 0
POLYLINE
 8
PARTS
 66
1
 10
0.0
 20
0.0
 30
0.0
 0
VERTEX
 8
PARTS
 10
  5.0000
 20
  0.7000
 30
0.0
 0
VERTEX
 8
PARTS
 10
  5.0000
 20
  0.7100
 30
0.0
 0
VERTEX
 8
PARTS
 10
  4.9500
 20
  0.7100
 30
0.0
 0
VERTEX
 8
PARTS
 10
  4.9500
 20
  0.5900
 30
0.0
 0
VERTEX
 8
PARTS
 10
  5.0000
 20
  0.5900
 30
0.0
 0
SEQEND
 8
PARTS
 0
POLYLINE
 8
PARTS
 66
1
 10
0.0
 20
0.0
 30
0.0
 0
VERTEX
 8
PARTS
 10
  5.4000
 20
  0.6000
 30
0.0
 0
VERTEX
 8
PARTS
 10
  5.4000
 20
  0.5900
 30
0.0
 0
VERTEX
 8
PARTS
 10
  5.4500
 20
  0.5900
 30
0.0
 0
VERTEX
 8
PARTS
 10
  5.4500
 20
  0.7100
 30
0.0
 0
VERTEX
 8
PARTS
 10
  5.4000
 20
  0.7100
 30
0.0
 0
SEQEND
 8
PARTS
 0
TEXT
 8
PARTTEXT
 10
  3.7000
 20
  6.1686
 30
0.0
 40
  0.0514
 1
R81
 0
TEXT
 8
PARTTEXT
 10
  3.7000
 20
  5.7586
 30
0.0
 40
  0.0514
 1
100
 0
LINE
 8
PARTS
 10
  3.6000
 20
  6.0000
 30
0.0
 11
  3.7000
 21
  6.0000
 31
0.0
 0
LINE
 8
PARTS
 10
  4.1000
 20
  6.0000
 30
0.0
 11
  4.0000
 21
  6.0000
 31
0.0
 0
POLYLINE
 8
PARTS
 66
1
 10
0.0
 20
0.0
 30
0.0
 0
VERTEX
 8
PARTS
 10
  3.7000
 20
  6.0000
 30
0.0
 0
VERTEX
 8
PARTS
 10
  3.7300
 20
  6.0300
 30
0.0
 0
SEQEND
 8
PARTS
 0
POLYLINE
 8
PARTS
 66
1
 10
0.0
 20
0.0
 30
0.0
 0
VERTEX
 8
PARTS
 10
  3.7300
 20
  6.0300
 30
0.0
 0
VERTEX
 8
PARTS
 10
  3.7900
 20
  5.9700
 30
0.0
 0
SEQEND
 8
PARTS
 0
POLYLINE
 8
PARTS
 66
1
 10
0.0
 20
0.0
 30
0.0
 0
VERTEX
 8
PARTS
 10
  3.7900
 20
  5.9700
 30
0.0
 0
VERTEX
 8
PARTS
 10
  3.8500
 20
  6.0300
 30
0.0
 0
SEQEND
 8
PARTS
 0
POLYLINE
 8
PARTS
 66
1
 10
0.0
 20
0.0
 30
0.0
 0
VERTEX
 8
PARTS
 10
  3.8500
 20
  6.0300
 30
0.0
 0
VERTEX
 8
PARTS
 10
  3.9100
 20
  5.9700
 30
0.0
 0
SEQEND
 8
PARTS
 0
POLYLINE
 8
PARTS
 66
1
 10
0.0
 20
0.0
 30
0.0
 0
VERTEX
 8
PARTS
 10
  3.9100
 20
  5.9700
 30
0.0
 0
VERTEX
 8
PARTS
 10
  3.9700
 20
  6.0300
 30
0.0
 0
SEQEND
 8
PARTS
 0
POLYLINE
 8
PARTS
 66
1
 10
0.0
 20
0.0
 30
0.0
 0
VERTEX
 8
PARTS
 10
  3.9700
 20
  6.0300
 30
0.0
 0
VERTEX
 8
PARTS
 10
  4.0000
 20
  6.0000
 30
0.0
 0
SEQEND
 8
PARTS
 0
TEXT
 8
PARTTEXT
 10
  2.1600
 20
  5.6186
 30
0.0
 40
  0.0514
 1
J78
 0
TEXT
 8
PARTTEXT
 10
  2.1600
 20
  5.4986
 30
0.0
 40
  0.0514
 1
JUMPER1
 0
LINE
 8
PARTS
 10
  1.9000
 20
  5.0000
 30
0.0
 11
  1.9000
 21
  5.3000
 31
0.0
 0
TEXT
 8
PARTS
 10
  1.8700
 20
  5.1800
 30
0.0
 40
  0.0500
 50
 90.0000
 1
1
 0
LINE
 8
PARTS
 10
  1.9000
 20
  6.0000
 30
0.0
 11
  1.9000
 21
  5.7000
 31
0.0
 0
TEXT
 8
PARTS
 10
  1.8700
 20
  5.7600
 30
0.0
 40
  0.0500
 50
 90.0000
 1
2
 0
POLYLINE
 8
PARTS
 66
1
 10
0.0
 20
0.0
 30
0.0
 0
VERTEX
 8
PARTS
 10
  1.9000
 20
  5.4000
 30
0.0
 42
  1.0000
 0
VERTEX
 8
PARTS
 10
  1.9000
 20
  5.6000
 30
0.0
 0
SEQEND
 8
PARTS
 0
POLYLINE
 8
PARTS
 66
1
 70
1
 10
0.0
 20
0.0
 30
0.0
 0
VERTEX
 8
PARTS
 10
  1.9100
 20
  5.6000
 30
0.0
 42
  0.0985
 0
VERTEX
 8
PARTS
 10
  1.9092
 20
  5.6038
 30
0.0
 42
  0.0985
 0
VERTEX
 8
PARTS
 10
  1.9071
 20
  5.6071
 30
0.0
 42
  0.0985
 0
VERTEX
 8
PARTS
 10
  1.9038
 20
  5.6092
 30
0.0
 42
  0.0985
 0
VERTEX
 8
PARTS
 10
  1.9000
 20
  5.6100
 30
0.0
 42
  0.0985
 0
VERTEX
 8
PARTS
 10
  1.8962
 20
  5.6092
 30
0.0
 42
  0.0985
 0
VERTEX
 8
PARTS
 10
  1.8929
 20
  5.6071
 30
0.0
 42
  0.0985
 0
VERTEX
 8
PARTS
 10
  1.8908
 20
  5.6038
 30
0.0
 42
  0.0985
 0
VERTEX
 8
PARTS
 10
  1.8900
 20
  5.6000
 30
0.0
 42
  0.0985
 0
VERTEX
 8
PARTS
 10
  1.8908
 20
  5.5962
 30
0.0
 42
  0.0985
 0
VERTEX
 8
PARTS
 10
  1.8929
 20
  5.5929
 30
0.0
 42
  0.0985
 0
VERTEX
 8
PARTS
 10
  1.8962
 20
  5.5908
 30
0.0
 42
  0.0985
 0
VERTEX
 8
PARTS
 10
  1.9000
 20
  5.5900
 30
0.0
 42
  0.0985
 0
VERTEX
 8
PARTS
 10
  1.9038
 20
  5.5908
 30
0.0
 42
  0.0985
 0
VERTEX
 8
PARTS
 10
  1.9071
 20
  5.5929
 30
0.0
 42
  0.0985
 0
VERTEX
 8
PARTS
 10
  1.9092
 20
  5.5962
 30
0.0
 42
  0.0985
 0
SEQEND
 8
PARTS
 0
POLYLINE
 8
PARTS
 66
1
 70
1
 10
0.0
 20
0.0
 30
0.0
 0
VERTEX
 8
PARTS
 10
  1.9100
 20
  5.4000
 30
0.0
 42
  0.0985
 0
VERTEX
 8
PARTS
 10
  1.9092
 20
  5.4038
 30
0.0
 42
  0.0985
 0
VERTEX
 8
PARTS
 10
  1.9071
 20
  5.4071
 30
0.0
 42
  0.0985
 0
VERTEX
 8
PARTS
 10
  1.9038
 20
  5.4092
 30
0.0
 42
  0.0985
 0
VERTEX
 8
PARTS
 10
  1.9000
 20
  5.4100
 30
0.0
 42
  0.0985
 0
VERTEX
 8
PARTS
 10
  1.8962
 20
  5.4092
 30
0.0
 42
  0.0985
 0
VERTEX
 8
PARTS
 10
  1.8929
 20
  5.4071
 30
0.0
 42
  0.0985
 0
VERTEX
 8
PARTS
 10
  1.8908
 20
  5.4038
 30
0.0
 42
  0.0985
 0
VERTEX
 8
PARTS
 10
  1.8900
 20
  5.4000
 30
0.0
 42
  0.0985
 0
VERTEX
 8
PARTS
 10
  1.8908
 20
  5.3962
 30
0.0
 42
  0.0985
 0
VERTEX
 8
PARTS
 10
  1.8929
 20
  5.3929
 30
0.0
 42
  0.0985
 0
VERTEX
 8
PARTS
 10
  1.8962
 20
  5.3908
 30
0.0
 42
  0.0985
 0
VERTEX
 8
PARTS
 10
  1.9000
 20
  5.3900
 30
0.0
 42
  0.0985
 0
VERTEX
 8
PARTS
 10
  1.9038
 20
  5.3908
 30
0.0
 42
  0.0985
 0
VERTEX
 8
PARTS
 10
  1.9071
 20
  5.3929
 30
0.0
 42
  0.0985
 0
VERTEX
 8
PARTS
 10
  1.9092
 20
  5.3962
 30
0.0
 42
  0.0985
 0
SEQEND
 8
PARTS
 0
POLYLINE
 8
PARTS
 66
1
 10
0.0
 20
0.0
 30
0.0
 0
VERTEX
 8
PARTS
 10
  1.9000
 20
  5.7000
 30
0.0
 0
VERTEX
 8
PARTS
 10
  1.9000
 20
  5.6000
 30
0.0
 0
SEQEND
 8
PARTS
 0
POLYLINE
 8
PARTS
 66
1
 10
0.0
 20
0.0
 30
0.0
 0
VERTEX
 8
PARTS
 10
  1.9000
 20
  5.4000
 30
0.0
 0
VERTEX
 8
PARTS
 10
  1.9000
 20
  5.3000
 30
0.0
 0
SEQEND
 8
PARTS
 0
POLYLINE
 8
PARTS
 66
1
 70
1
 10
0.0
 20
0.0
 30
0.0
 0
VERTEX
 8
PARTS
 10
  1.8000
 20
  5.3000
 30
0.0
 0
VERTEX
 8
PARTS
 10
  1.8000
 20
  5.7000
 30
0.0
 0
VERTEX
 8
PARTS
 10
  2.1000
 20
  5.7000
 30
0.0
 0
VERTEX
 8
PARTS
 10
  2.1000
 20
  5.3000
 30
0.0
 0
SEQEND
 8
PARTS
 0
TEXT
 8
PARTTEXT
 10
  2.6000
 20
  2.5686
 30
0.0
 40
  0.0514
 1
R76
 0
TEXT
 8
PARTTEXT
 10
  2.6000
 20
  2.1586
 30
0.0
 40
  0.0514
 1
1k
 0
LINE
 8
PARTS
 10
  2.5000
 20
  2.4000
 30
0.0
 11
  2.6000
 21
  2.4000
 31
0.0
 0
LINE
 8
PARTS
 10
  3.0000
 20
  2.4000
 30
0.0
 11
  2.9000
 21
  2.4000
 31
0.0
 0
POLYLINE
 8
PARTS
 66
1
 10
0.0
 20
0.0
 30
0.0
 0
VERTEX
 8
PARTS
 10
  2.6000
 20
  2.4000
 30
0.0
 0
VERTEX
 8
PARTS
 10
  2.6300
 20
  2.4300
 30
0.0
 0
SEQEND
 8
PARTS
 0
POLYLINE
 8
PARTS
 66
1
 10
0.0
 20
0.0
 30
0.0
 0
VERTEX
 8
PARTS
 10
  2.6300
 20
  2.4300
 30
0.0
 0
VERTEX
 8
PARTS
 10
  2.6900
 20
  2.3700
 30
0.0
 0
SEQEND
 8
PARTS
 0
POLYLINE
 8
PARTS
 66
1
 10
0.0
 20
0.0
 30
0.0
 0
VERTEX
 8
PARTS
 10
  2.6900
 20
  2.3700
 30
0.0
 0
VERTEX
 8
PARTS
 10
  2.7500
 20
  2.4300
 30
0.0
 0
SEQEND
 8
PARTS
 0
POLYLINE
 8
PARTS
 66
1
 10
0.0
 20
0.0
 30
0.0
 0
VERTEX
 8
PARTS
 10
  2.7500
 20
  2.4300
 30
0.0
 0
VERTEX
 8
PARTS
 10
  2.8100
 20
  2.3700
 30
0.0
 0
SEQEND
 8
PARTS
 0
POLYLINE
 8
PARTS
 66
1
 10
0.0
 20
0.0
 30
0.0
 0
VERTEX
 8
PARTS
 10
  2.8100
 20
  2.3700
 30
0.0
 0
VERTEX
 8
PARTS
 10
  2.8700
 20
  2.4300
 30
0.0
 0
SEQEND
 8
PARTS
 0
POLYLINE
 8
PARTS
 66
1
 10
0.0
 20
0.0
 30
0.0
 0
VERTEX
 8
PARTS
 10
  2.8700
 20
  2.4300
 30
0.0
 0
VERTEX
 8
PARTS
 10
  2.9000
 20
  2.4000
 30
0.0
 0
SEQEND
 8
PARTS
 0
TEXT
 8
PARTTEXT
 10
  5.7000
 20
  6.6586
 30
0.0
 40
  0.0514
 1
J75
 0
TEXT
 8
PARTTEXT
 10
  5.7000
 20
  6.5386
 30
0.0
 40
  0.0514
 1
ICP
 0
LINE
 8
PARTS
 10
  5.9000
 20
  6.0000
 30
0.0
 11
  5.9000
 21
  6.3000
 31
0.0
 0
TEXT
 8
PARTS
 10
  5.8700
 20
  6.1800
 30
0.0
 40
  0.0500
 50
 90.0000
 1
1
 0
POLYLINE
 8
PARTS
 66
1
 70
1
 10
0.0
 20
0.0
 30
0.0
 0
VERTEX
 8
PARTS
 10
  6.0000
 20
  6.5000
 30
0.0
 0
VERTEX
 8
PARTS
 10
  6.0000
 20
  6.3000
 30
0.0
 0
VERTEX
 8
PARTS
 10
  5.8000
 20
  6.3000
 30
0.0
 0
VERTEX
 8
PARTS
 10
  5.8000
 20
  6.5000
 30
0.0
 0
SEQEND
 8
PARTS
 0
POLYLINE
 8
PARTS
 66
1
 10
0.0
 20
0.0
 30
0.0
 0
VERTEX
 8
PARTS
 10
  6.0000
 20
  6.3500
 30
0.0
 0
VERTEX
 8
PARTS
 10
  6.0000
 20
  6.3500
 30
0.0
 0
VERTEX
 8
PARTS
 10
  6.0300
 20
  6.3500
 30
0.0
 0
VERTEX
 8
PARTS
 10
  6.0300
 20
  6.4400
 30
0.0
 0
VERTEX
 8
PARTS
 10
  6.0000
 20
  6.4400
 30
0.0
 0
SEQEND
 8
PARTS
 0
POLYLINE
 8
PARTS
 66
1
 10
0.0
 20
0.0
 30
0.0
 0
VERTEX
 8
PARTS
 10
  5.8000
 20
  6.4400
 30
0.0
 0
VERTEX
 8
PARTS
 10
  5.8000
 20
  6.4400
 30
0.0
 0
VERTEX
 8
PARTS
 10
  5.7700
 20
  6.4400
 30
0.0
 0
VERTEX
 8
PARTS
 10
  5.7700
 20
  6.3500
 30
0.0
 0
VERTEX
 8
PARTS
 10
  5.8000
 20
  6.3500
 30
0.0
 0
SEQEND
 8
PARTS
 0
TEXT
 8
PARTTEXT
 10
  4.5900
 20
  4.4186
 30
0.0
 40
  0.0514
 1
C72
 0
TEXT
 8
PARTTEXT
 10
  4.5900
 20
  4.3286
 30
0.0
 40
  0.0514
 1
220pF
 0
LINE
 8
PARTS
 10
  4.4000
 20
  4.6000
 30
0.0
 11
  4.4000
 21
  4.5000
 31
0.0
 0
LINE
 8
PARTS
 10
  4.4000
 20
  4.3000
 30
0.0
 11
  4.4000
 21
  4.4000
 31
0.0
 0
POLYLINE
 8
PARTS
 66
1
 10
0.0
 20
0.0
 30
0.0
 0
VERTEX
 8
PARTS
 10
  4.4000
 20
  4.5000
 30
0.0
 0
VERTEX
 8
PARTS
 10
  4.4000
 20
  4.4800
 30
0.0
 0
SEQEND
 8
PARTS
 0
POLYLINE
 8
PARTS
 66
1
 10
0.0
 20
0.0
 30
0.0
 0
VERTEX
 8
PARTS
 10
  4.3100
 20
  4.4300
 30
0.0
 0
VERTEX
 8
PARTS
 10
  4.4900
 20
  4.4300
 30
0.0
 0
SEQEND
 8
PARTS
 0
POLYLINE
 8
PARTS
 66
1
 10
0.0
 20
0.0
 30
0.0
 0
VERTEX
 8
PARTS
 10
  4.3100
 20
  4.4800
 30
0.0
 0
VERTEX
 8
PARTS
 10
  4.4900
 20
  4.4800
 30
0.0
 0
SEQEND
 8
PARTS
 0
POLYLINE
 8
PARTS
 66
1
 10
0.0
 20
0.0
 30
0.0
 0
VERTEX
 8
PARTS
 10
  4.4000
 20
  4.4000
 30
0.0
 0
VERTEX
 8
PARTS
 10
  4.4000
 20
  4.4300
 30
0.0
 0
SEQEND
 8
PARTS
 0
TEXT
 8
PARTTEXT
 10
  3.6000
 20
  3.9686
 30
0.0
 40
  0.0514
 1
R82
 0
TEXT
 8
PARTTEXT
 10
  3.6000
 20
  3.5586
 30
0.0
 40
  0.0514
 1
100
 0
LINE
 8
PARTS
 10
  3.5000
 20
  3.8000
 30
0.0
 11
  3.6000
 21
  3.8000
 31
0.0
 0
LINE
 8
PARTS
 10
  4.0000
 20
  3.8000
 30
0.0
 11
  3.9000
 21
  3.8000
 31
0.0
 0
POLYLINE
 8
PARTS
 66
1
 10
0.0
 20
0.0
 30
0.0
 0
VERTEX
 8
PARTS
 10
  3.6000
 20
  3.8000
 30
0.0
 0
VERTEX
 8
PARTS
 10
  3.6300
 20
  3.8300
 30
0.0
 0
SEQEND
 8
PARTS
 0
POLYLINE
 8
PARTS
 66
1
 10
0.0
 20
0.0
 30
0.0
 0
VERTEX
 8
PARTS
 10
  3.6300
 20
  3.8300
 30
0.0
 0
VERTEX
 8
PARTS
 10
  3.6900
 20
  3.7700
 30
0.0
 0
SEQEND
 8
PARTS
 0
POLYLINE
 8
PARTS
 66
1
 10
0.0
 20
0.0
 30
0.0
 0
VERTEX
 8
PARTS
 10
  3.6900
 20
  3.7700
 30
0.0
 0
VERTEX
 8
PARTS
 10
  3.7500
 20
  3.8300
 30
0.0
 0
SEQEND
 8
PARTS
 0
POLYLINE
 8
PARTS
 66
1
 10
0.0
 20
0.0
 30
0.0
 0
VERTEX
 8
PARTS
 10
  3.7500
 20
  3.8300
 30
0.0
 0
VERTEX
 8
PARTS
 10
  3.8100
 20
  3.7700
 30
0.0
 0
SEQEND
 8
PARTS
 0
POLYLINE
 8
PARTS
 66
1
 10
0.0
 20
0.0
 30
0.0
 0
VERTEX
 8
PARTS
 10
  3.8100
 20
  3.7700
 30
0.0
 0
VERTEX
 8
PARTS
 10
  3.8700
 20
  3.8300
 30
0.0
 0
SEQEND
 8
PARTS
 0
POLYLINE
 8
PARTS
 66
1
 10
0.0
 20
0.0
 30
0.0
 0
VERTEX
 8
PARTS
 10
  3.8700
 20
  3.8300
 30
0.0
 0
VERTEX
 8
PARTS
 10
  3.9000
 20
  3.8000
 30
0.0
 0
SEQEND
 8
PARTS
 0
TEXT
 8
PARTTEXT
 10
  2.1600
 20
  4.4186
 30
0.0
 40
  0.0514
 1
J79
 0
TEXT
 8
PARTTEXT
 10
  2.1600
 20
  4.2986
 30
0.0
 40
  0.0514
 1
JUMPER1
 0
LINE
 8
PARTS
 10
  1.9000
 20
  3.8000
 30
0.0
 11
  1.9000
 21
  4.1000
 31
0.0
 0
TEXT
 8
PARTS
 10
  1.8700
 20
  3.9800
 30
0.0
 40
  0.0500
 50
 90.0000
 1
1
 0
LINE
 8
PARTS
 10
  1.9000
 20
  4.8000
 30
0.0
 11
  1.9000
 21
  4.5000
 31
0.0
 0
TEXT
 8
PARTS
 10
  1.8700
 20
  4.5600
 30
0.0
 40
  0.0500
 50
 90.0000
 1
2
 0
POLYLINE
 8
PARTS
 66
1
 10
0.0
 20
0.0
 30
0.0
 0
VERTEX
 8
PARTS
 10
  1.9000
 20
  4.2000
 30
0.0
 42
  1.0000
 0
VERTEX
 8
PARTS
 10
  1.9000
 20
  4.4000
 30
0.0
 0
SEQEND
 8
PARTS
 0
POLYLINE
 8
PARTS
 66
1
 70
1
 10
0.0
 20
0.0
 30
0.0
 0
VERTEX
 8
PARTS
 10
  1.9100
 20
  4.4000
 30
0.0
 42
  0.0985
 0
VERTEX
 8
PARTS
 10
  1.9092
 20
  4.4038
 30
0.0
 42
  0.0985
 0
VERTEX
 8
PARTS
 10
  1.9071
 20
  4.4071
 30
0.0
 42
  0.0985
 0
VERTEX
 8
PARTS
 10
  1.9038
 20
  4.4092
 30
0.0
 42
  0.0985
 0
VERTEX
 8
PARTS
 10
  1.9000
 20
  4.4100
 30
0.0
 42
  0.0985
 0
VERTEX
 8
PARTS
 10
  1.8962
 20
  4.4092
 30
0.0
 42
  0.0985
 0
VERTEX
 8
PARTS
 10
  1.8929
 20
  4.4071
 30
0.0
 42
  0.0985
 0
VERTEX
 8
PARTS
 10
  1.8908
 20
  4.4038
 30
0.0
 42
  0.0985
 0
VERTEX
 8
PARTS
 10
  1.8900
 20
  4.4000
 30
0.0
 42
  0.0985
 0
VERTEX
 8
PARTS
 10
  1.8908
 20
  4.3962
 30
0.0
 42
  0.0985
 0
VERTEX
 8
PARTS
 10
  1.8929
 20
  4.3929
 30
0.0
 42
  0.0985
 0
VERTEX
 8
PARTS
 10
  1.8962
 20
  4.3908
 30
0.0
 42
  0.0985
 0
VERTEX
 8
PARTS
 10
  1.9000
 20
  4.3900
 30
0.0
 42
  0.0985
 0
VERTEX
 8
PARTS
 10
  1.9038
 20
  4.3908
 30
0.0
 42
  0.0985
 0
VERTEX
 8
PARTS
 10
  1.9071
 20
  4.3929
 30
0.0
 42
  0.0985
 0
VERTEX
 8
PARTS
 10
  1.9092
 20
  4.3962
 30
0.0
 42
  0.0985
 0
SEQEND
 8
PARTS
 0
POLYLINE
 8
PARTS
 66
1
 70
1
 10
0.0
 20
0.0
 30
0.0
 0
VERTEX
 8
PARTS
 10
  1.9100
 20
  4.2000
 30
0.0
 42
  0.0985
 0
VERTEX
 8
PARTS
 10
  1.9092
 20
  4.2038
 30
0.0
 42
  0.0985
 0
VERTEX
 8
PARTS
 10
  1.9071
 20
  4.2071
 30
0.0
 42
  0.0985
 0
VERTEX
 8
PARTS
 10
  1.9038
 20
  4.2092
 30
0.0
 42
  0.0985
 0
VERTEX
 8
PARTS
 10
  1.9000
 20
  4.2100
 30
0.0
 42
  0.0985
 0
VERTEX
 8
PARTS
 10
  1.8962
 20
  4.2092
 30
0.0
 42
  0.0985
 0
VERTEX
 8
PARTS
 10
  1.8929
 20
  4.2071
 30
0.0
 42
  0.0985
 0
VERTEX
 8
PARTS
 10
  1.8908
 20
  4.2038
 30
0.0
 42
  0.0985
 0
VERTEX
 8
PARTS
 10
  1.8900
 20
  4.2000
 30
0.0
 42
  0.0985
 0
VERTEX
 8
PARTS
 10
  1.8908
 20
  4.1962
 30
0.0
 42
  0.0985
 0
VERTEX
 8
PARTS
 10
  1.8929
 20
  4.1929
 30
0.0
 42
  0.0985
 0
VERTEX
 8
PARTS
 10
  1.8962
 20
  4.1908
 30
0.0
 42
  0.0985
 0
VERTEX
 8
PARTS
 10
  1.9000
 20
  4.1900
 30
0.0
 42
  0.0985
 0
VERTEX
 8
PARTS
 10
  1.9038
 20
  4.1908
 30
0.0
 42
  0.0985
 0
VERTEX
 8
PARTS
 10
  1.9071
 20
  4.1929
 30
0.0
 42
  0.0985
 0
VERTEX
 8
PARTS
 10
  1.9092
 20
  4.1962
 30
0.0
 42
  0.0985
 0
SEQEND
 8
PARTS
 0
POLYLINE
 8
PARTS
 66
1
 10
0.0
 20
0.0
 30
0.0
 0
VERTEX
 8
PARTS
 10
  1.9000
 20
  4.5000
 30
0.0
 0
VERTEX
 8
PARTS
 10
  1.9000
 20
  4.4000
 30
0.0
 0
SEQEND
 8
PARTS
 0
POLYLINE
 8
PARTS
 66
1
 10
0.0
 20
0.0
 30
0.0
 0
VERTEX
 8
PARTS
 10
  1.9000
 20
  4.2000
 30
0.0
 0
VERTEX
 8
PARTS
 10
  1.9000
 20
  4.1000
 30
0.0
 0
SEQEND
 8
PARTS
 0
POLYLINE
 8
PARTS
 66
1
 70
1
 10
0.0
 20
0.0
 30
0.0
 0
VERTEX
 8
PARTS
 10
  1.8000
 20
  4.1000
 30
0.0
 0
VERTEX
 8
PARTS
 10
  1.8000
 20
  4.5000
 30
0.0
 0
VERTEX
 8
PARTS
 10
  2.1000
 20
  4.5000
 30
0.0
 0
VERTEX
 8
PARTS
 10
  2.1000
 20
  4.1000
 30
0.0
 0
SEQEND
 8
PARTS
 0
TEXT
 8
PARTTEXT
 10
  3.0000
 20
  1.0586
 30
0.0
 40
  0.0514
 1
J67
 0
TEXT
 8
PARTTEXT
 10
  3.0000
 20
  0.9386
 30
0.0
 40
  0.0514
 1
HEADER 3
 0
LINE
 8
PARTS
 10
  3.2000
 20
  1.8000
 30
0.0
 11
  3.2000
 21
  1.5000
 31
0.0
 0
TEXT
 8
PARTS
 10
  3.1700
 20
  1.5600
 30
0.0
 40
  0.0500
 50
 90.0000
 1
1
 0
LINE
 8
PARTS
 10
  3.3000
 20
  1.8000
 30
0.0
 11
  3.3000
 21
  1.5000
 31
0.0
 0
TEXT
 8
PARTS
 10
  3.2700
 20
  1.5600
 30
0.0
 40
  0.0500
 50
 90.0000
 1
2
 0
LINE
 8
PARTS
 10
  3.4000
 20
  1.8000
 30
0.0
 11
  3.4000
 21
  1.5000
 31
0.0
 0
TEXT
 8
PARTS
 10
  3.3700
 20
  1.5600
 30
0.0
 40
  0.0500
 50
 90.0000
 1
3
 0
POLYLINE
 8
PARTS
 66
1
 70
1
 10
0.0
 20
0.0
 30
0.0
 0
VERTEX
 8
PARTS
 10
  3.1000
 20
  1.2000
 30
0.0
 0
VERTEX
 8
PARTS
 10
  3.1000
 20
  1.5000
 30
0.0
 0
VERTEX
 8
PARTS
 10
  3.5000
 20
  1.5000
 30
0.0
 0
VERTEX
 8
PARTS
 10
  3.5000
 20
  1.2000
 30
0.0
 0
SEQEND
 8
PARTS
 0
POLYLINE
 8
PARTS
 66
1
 10
0.0
 20
0.0
 30
0.0
 0
VERTEX
 8
PARTS
 10
  3.1000
 20
  1.4000
 30
0.0
 0
VERTEX
 8
PARTS
 10
  3.1000
 20
  1.4100
 30
0.0
 0
VERTEX
 8
PARTS
 10
  3.0500
 20
  1.4100
 30
0.0
 0
VERTEX
 8
PARTS
 10
  3.0500
 20
  1.2900
 30
0.0
 0
VERTEX
 8
PARTS
 10
  3.1000
 20
  1.2900
 30
0.0
 0
SEQEND
 8
PARTS
 0
POLYLINE
 8
PARTS
 66
1
 10
0.0
 20
0.0
 30
0.0
 0
VERTEX
 8
PARTS
 10
  3.5000
 20
  1.3000
 30
0.0
 0
VERTEX
 8
PARTS
 10
  3.5000
 20
  1.2900
 30
0.0
 0
VERTEX
 8
PARTS
 10
  3.5500
 20
  1.2900
 30
0.0
 0
VERTEX
 8
PARTS
 10
  3.5500
 20
  1.4100
 30
0.0
 0
VERTEX
 8
PARTS
 10
  3.5000
 20
  1.4100
 30
0.0
 0
SEQEND
 8
PARTS
 0
TEXT
 8
PARTTEXT
 10
  4.8700
 20
  1.6186
 30
0.0
 40
  0.0514
 1
R78
 0
TEXT
 8
PARTTEXT
 10
  4.9400
 20
  1.4986
 30
0.0
 40
  0.0514
 1
1k
 0
LINE
 8
PARTS
 10
  5.2000
 20
  1.3000
 30
0.0
 11
  5.2000
 21
  1.4000
 31
0.0
 0
LINE
 8
PARTS
 10
  5.2000
 20
  1.8000
 30
0.0
 11
  5.2000
 21
  1.7000
 31
0.0
 0
POLYLINE
 8
PARTS
 66
1
 10
0.0
 20
0.0
 30
0.0
 0
VERTEX
 8
PARTS
 10
  5.2000
 20
  1.4000
 30
0.0
 0
VERTEX
 8
PARTS
 10
  5.2300
 20
  1.4300
 30
0.0
 0
SEQEND
 8
PARTS
 0
POLYLINE
 8
PARTS
 66
1
 10
0.0
 20
0.0
 30
0.0
 0
VERTEX
 8
PARTS
 10
  5.2300
 20
  1.4300
 30
0.0
 0
VERTEX
 8
PARTS
 10
  5.1700
 20
  1.4900
 30
0.0
 0
SEQEND
 8
PARTS
 0
POLYLINE
 8
PARTS
 66
1
 10
0.0
 20
0.0
 30
0.0
 0
VERTEX
 8
PARTS
 10
  5.1700
 20
  1.4900
 30
0.0
 0
VERTEX
 8
PARTS
 10
  5.2300
 20
  1.5500
 30
0.0
 0
SEQEND
 8
PARTS
 0
POLYLINE
 8
PARTS
 66
1
 10
0.0
 20
0.0
 30
0.0
 0
VERTEX
 8
PARTS
 10
  5.2300
 20
  1.5500
 30
0.0
 0
VERTEX
 8
PARTS
 10
  5.1700
 20
  1.6100
 30
0.0
 0
SEQEND
 8
PARTS
 0
POLYLINE
 8
PARTS
 66
1
 10
0.0
 20
0.0
 30
0.0
 0
VERTEX
 8
PARTS
 10
  5.1700
 20
  1.6100
 30
0.0
 0
VERTEX
 8
PARTS
 10
  5.2300
 20
  1.6700
 30
0.0
 0
SEQEND
 8
PARTS
 0
POLYLINE
 8
PARTS
 66
1
 10
0.0
 20
0.0
 30
0.0
 0
VERTEX
 8
PARTS
 10
  5.2300
 20
  1.6700
 30
0.0
 0
VERTEX
 8
PARTS
 10
  5.2000
 20
  1.7000
 30
0.0
 0
SEQEND
 8
PARTS
 0
TEXT
 8
PARTTEXT
 10
  4.8000
 20
  3.9686
 30
0.0
 40
  0.0514
 1
R83
 0
TEXT
 8
PARTTEXT
 10
  4.8000
 20
  3.5586
 30
0.0
 40
  0.0514
 1
1k
 0
LINE
 8
PARTS
 10
  4.7000
 20
  3.8000
 30
0.0
 11
  4.8000
 21
  3.8000
 31
0.0
 0
LINE
 8
PARTS
 10
  5.2000
 20
  3.8000
 30
0.0
 11
  5.1000
 21
  3.8000
 31
0.0
 0
POLYLINE
 8
PARTS
 66
1
 10
0.0
 20
0.0
 30
0.0
 0
VERTEX
 8
PARTS
 10
  4.8000
 20
  3.8000
 30
0.0
 0
VERTEX
 8
PARTS
 10
  4.8300
 20
  3.8300
 30
0.0
 0
SEQEND
 8
PARTS
 0
POLYLINE
 8
PARTS
 66
1
 10
0.0
 20
0.0
 30
0.0
 0
VERTEX
 8
PARTS
 10
  4.8300
 20
  3.8300
 30
0.0
 0
VERTEX
 8
PARTS
 10
  4.8900
 20
  3.7700
 30
0.0
 0
SEQEND
 8
PARTS
 0
POLYLINE
 8
PARTS
 66
1
 10
0.0
 20
0.0
 30
0.0
 0
VERTEX
 8
PARTS
 10
  4.8900
 20
  3.7700
 30
0.0
 0
VERTEX
 8
PARTS
 10
  4.9500
 20
  3.8300
 30
0.0
 0
SEQEND
 8
PARTS
 0
POLYLINE
 8
PARTS
 66
1
 10
0.0
 20
0.0
 30
0.0
 0
VERTEX
 8
PARTS
 10
  4.9500
 20
  3.8300
 30
0.0
 0
VERTEX
 8
PARTS
 10
  5.0100
 20
  3.7700
 30
0.0
 0
SEQEND
 8
PARTS
 0
POLYLINE
 8
PARTS
 66
1
 10
0.0
 20
0.0
 30
0.0
 0
VERTEX
 8
PARTS
 10
  5.0100
 20
  3.7700
 30
0.0
 0
VERTEX
 8
PARTS
 10
  5.0700
 20
  3.8300
 30
0.0
 0
SEQEND
 8
PARTS
 0
POLYLINE
 8
PARTS
 66
1
 10
0.0
 20
0.0
 30
0.0
 0
VERTEX
 8
PARTS
 10
  5.0700
 20
  3.8300
 30
0.0
 0
VERTEX
 8
PARTS
 10
  5.1000
 20
  3.8000
 30
0.0
 0
SEQEND
 8
PARTS
 0
TEXT
 8
PARTTEXT
 10
  5.7000
 20
  3.1586
 30
0.0
 40
  0.0514
 1
J76
 0
TEXT
 8
PARTTEXT
 10
  5.7000
 20
  3.0386
 30
0.0
 40
  0.0514
 1
ICN
 0
LINE
 8
PARTS
 10
  5.9000
 20
  3.8000
 30
0.0
 11
  5.9000
 21
  3.5000
 31
0.0
 0
TEXT
 8
PARTS
 10
  5.8700
 20
  3.5600
 30
0.0
 40
  0.0500
 50
 90.0000
 1
1
 0
POLYLINE
 8
PARTS
 66
1
 70
1
 10
0.0
 20
0.0
 30
0.0
 0
VERTEX
 8
PARTS
 10
  5.8000
 20
  3.3000
 30
0.0
 0
VERTEX
 8
PARTS
 10
  5.8000
 20
  3.5000
 30
0.0
 0
VERTEX
 8
PARTS
 10
  6.0000
 20
  3.5000
 30
0.0
 0
VERTEX
 8
PARTS
 10
  6.0000
 20
  3.3000
 30
0.0
 0
SEQEND
 8
PARTS
 0
POLYLINE
 8
PARTS
 66
1
 10
0.0
 20
0.0
 30
0.0
 0
VERTEX
 8
PARTS
 10
  5.8000
 20
  3.4500
 30
0.0
 0
VERTEX
 8
PARTS
 10
  5.8000
 20
  3.4500
 30
0.0
 0
VERTEX
 8
PARTS
 10
  5.7700
 20
  3.4500
 30
0.0
 0
VERTEX
 8
PARTS
 10
  5.7700
 20
  3.3600
 30
0.0
 0
VERTEX
 8
PARTS
 10
  5.8000
 20
  3.3600
 30
0.0
 0
SEQEND
 8
PARTS
 0
POLYLINE
 8
PARTS
 66
1
 10
0.0
 20
0.0
 30
0.0
 0
VERTEX
 8
PARTS
 10
  6.0000
 20
  3.3600
 30
0.0
 0
VERTEX
 8
PARTS
 10
  6.0000
 20
  3.3600
 30
0.0
 0
VERTEX
 8
PARTS
 10
  6.0300
 20
  3.3600
 30
0.0
 0
VERTEX
 8
PARTS
 10
  6.0300
 20
  3.4500
 30
0.0
 0
VERTEX
 8
PARTS
 10
  6.0000
 20
  3.4500
 30
0.0
 0
SEQEND
 8
PARTS
 0
TEXT
 8
PARTTEXT
 10
  5.5900
 20
  1.9186
 30
0.0
 40
  0.0514
 1
C68
 0
TEXT
 8
PARTTEXT
 10
  5.5900
 20
  1.8286
 30
0.0
 40
  0.0514
 1
220pF
 0
LINE
 8
PARTS
 10
  5.4000
 20
  2.1000
 30
0.0
 11
  5.4000
 21
  2.0000
 31
0.0
 0
LINE
 8
PARTS
 10
  5.4000
 20
  1.8000
 30
0.0
 11
  5.4000
 21
  1.9000
 31
0.0
 0
POLYLINE
 8
PARTS
 66
1
 10
0.0
 20
0.0
 30
0.0
 0
VERTEX
 8
PARTS
 10
  5.4000
 20
  2.0000
 30
0.0
 0
VERTEX
 8
PARTS
 10
  5.4000
 20
  1.9800
 30
0.0
 0
SEQEND
 8
PARTS
 0
POLYLINE
 8
PARTS
 66
1
 10
0.0
 20
0.0
 30
0.0
 0
VERTEX
 8
PARTS
 10
  5.3100
 20
  1.9300
 30
0.0
 0
VERTEX
 8
PARTS
 10
  5.4900
 20
  1.9300
 30
0.0
 0
SEQEND
 8
PARTS
 0
POLYLINE
 8
PARTS
 66
1
 10
0.0
 20
0.0
 30
0.0
 0
VERTEX
 8
PARTS
 10
  5.3100
 20
  1.9800
 30
0.0
 0
VERTEX
 8
PARTS
 10
  5.4900
 20
  1.9800
 30
0.0
 0
SEQEND
 8
PARTS
 0
POLYLINE
 8
PARTS
 66
1
 10
0.0
 20
0.0
 30
0.0
 0
VERTEX
 8
PARTS
 10
  5.4000
 20
  1.9000
 30
0.0
 0
VERTEX
 8
PARTS
 10
  5.4000
 20
  1.9300
 30
0.0
 0
SEQEND
 8
PARTS
 0
TEXT
 8
PARTTEXT
 10
  4.8000
 20
  6.1686
 30
0.0
 40
  0.0514
 1
R84
 0
TEXT
 8
PARTTEXT
 10
  4.8000
 20
  5.7586
 30
0.0
 40
  0.0514
 1
1k
 0
LINE
 8
PARTS
 10
  4.7000
 20
  6.0000
 30
0.0
 11
  4.8000
 21
  6.0000
 31
0.0
 0
LINE
 8
PARTS
 10
  5.2000
 20
  6.0000
 30
0.0
 11
  5.1000
 21
  6.0000
 31
0.0
 0
POLYLINE
 8
PARTS
 66
1
 10
0.0
 20
0.0
 30
0.0
 0
VERTEX
 8
PARTS
 10
  4.8000
 20
  6.0000
 30
0.0
 0
VERTEX
 8
PARTS
 10
  4.8300
 20
  6.0300
 30
0.0
 0
SEQEND
 8
PARTS
 0
POLYLINE
 8
PARTS
 66
1
 10
0.0
 20
0.0
 30
0.0
 0
VERTEX
 8
PARTS
 10
  4.8300
 20
  6.0300
 30
0.0
 0
VERTEX
 8
PARTS
 10
  4.8900
 20
  5.9700
 30
0.0
 0
SEQEND
 8
PARTS
 0
POLYLINE
 8
PARTS
 66
1
 10
0.0
 20
0.0
 30
0.0
 0
VERTEX
 8
PARTS
 10
  4.8900
 20
  5.9700
 30
0.0
 0
VERTEX
 8
PARTS
 10
  4.9500
 20
  6.0300
 30
0.0
 0
SEQEND
 8
PARTS
 0
POLYLINE
 8
PARTS
 66
1
 10
0.0
 20
0.0
 30
0.0
 0
VERTEX
 8
PARTS
 10
  4.9500
 20
  6.0300
 30
0.0
 0
VERTEX
 8
PARTS
 10
  5.0100
 20
  5.9700
 30
0.0
 0
SEQEND
 8
PARTS
 0
POLYLINE
 8
PARTS
 66
1
 10
0.0
 20
0.0
 30
0.0
 0
VERTEX
 8
PARTS
 10
  5.0100
 20
  5.9700
 30
0.0
 0
VERTEX
 8
PARTS
 10
  5.0700
 20
  6.0300
 30
0.0
 0
SEQEND
 8
PARTS
 0
POLYLINE
 8
PARTS
 66
1
 10
0.0
 20
0.0
 30
0.0
 0
VERTEX
 8
PARTS
 10
  5.0700
 20
  6.0300
 30
0.0
 0
VERTEX
 8
PARTS
 10
  5.1000
 20
  6.0000
 30
0.0
 0
SEQEND
 8
PARTS
 0
TEXT
 8
PARTTEXT
 10
  4.2000
 20
  3.1586
 30
0.0
 40
  0.0514
 1
J68
 0
TEXT
 8
PARTTEXT
 10
  4.2000
 20
  3.0386
 30
0.0
 40
  0.0514
 1
VCP
 0
LINE
 8
PARTS
 10
  4.4000
 20
  2.5000
 30
0.0
 11
  4.4000
 21
  2.8000
 31
0.0
 0
TEXT
 8
PARTS
 10
  4.3700
 20
  2.6800
 30
0.0
 40
  0.0500
 50
 90.0000
 1
1
 0
POLYLINE
 8
PARTS
 66
1
 70
1
 10
0.0
 20
0.0
 30
0.0
 0
VERTEX
 8
PARTS
 10
  4.5000
 20
  3.0000
 30
0.0
 0
VERTEX
 8
PARTS
 10
  4.5000
 20
  2.8000
 30
0.0
 0
VERTEX
 8
PARTS
 10
  4.3000
 20
  2.8000
 30
0.0
 0
VERTEX
 8
PARTS
 10
  4.3000
 20
  3.0000
 30
0.0
 0
SEQEND
 8
PARTS
 0
POLYLINE
 8
PARTS
 66
1
 10
0.0
 20
0.0
 30
0.0
 0
VERTEX
 8
PARTS
 10
  4.5000
 20
  2.8500
 30
0.0
 0
VERTEX
 8
PARTS
 10
  4.5000
 20
  2.8500
 30
0.0
 0
VERTEX
 8
PARTS
 10
  4.5300
 20
  2.8500
 30
0.0
 0
VERTEX
 8
PARTS
 10
  4.5300
 20
  2.9400
 30
0.0
 0
VERTEX
 8
PARTS
 10
  4.5000
 20
  2.9400
 30
0.0
 0
SEQEND
 8
PARTS
 0
POLYLINE
 8
PARTS
 66
1
 10
0.0
 20
0.0
 30
0.0
 0
VERTEX
 8
PARTS
 10
  4.3000
 20
  2.9400
 30
0.0
 0
VERTEX
 8
PARTS
 10
  4.3000
 20
  2.9400
 30
0.0
 0
VERTEX
 8
PARTS
 10
  4.2700
 20
  2.9400
 30
0.0
 0
VERTEX
 8
PARTS
 10
  4.2700
 20
  2.8500
 30
0.0
 0
VERTEX
 8
PARTS
 10
  4.3000
 20
  2.8500
 30
0.0
 0
SEQEND
 8
PARTS
 0
TEXT
 8
PARTTEXT
 10
  2.4000
 20
  6.1686
 30
0.0
 40
  0.0514
 1
L11
 0
TEXT
 8
PARTTEXT
 10
  2.4000
 20
  5.8586
 30
0.0
 40
  0.0514
 1
1500
 0
LINE
 8
PARTS
 10
  2.3000
 20
  6.0000
 30
0.0
 11
  2.4000
 21
  6.0000
 31
0.0
 0
LINE
 8
PARTS
 10
  2.9000
 20
  6.0000
 30
0.0
 11
  2.8000
 21
  6.0000
 31
0.0
 0
POLYLINE
 8
PARTS
 66
1
 10
0.0
 20
0.0
 30
0.0
 0
VERTEX
 8
PARTS
 10
  2.4500
 20
  6.0500
 30
0.0
 42
  0.4142
 0
VERTEX
 8
PARTS
 10
  2.4000
 20
  6.0000
 30
0.0
 0
SEQEND
 8
PARTS
 0
POLYLINE
 8
PARTS
 66
1
 10
0.0
 20
0.0
 30
0.0
 0
VERTEX
 8
PARTS
 10
  2.5000
 20
  6.0000
 30
0.0
 42
  0.4142
 0
VERTEX
 8
PARTS
 10
  2.4500
 20
  6.0500
 30
0.0
 0
SEQEND
 8
PARTS
 0
POLYLINE
 8
PARTS
 66
1
 10
0.0
 20
0.0
 30
0.0
 0
VERTEX
 8
PARTS
 10
  2.5500
 20
  6.0500
 30
0.0
 42
  0.4142
 0
VERTEX
 8
PARTS
 10
  2.5000
 20
  6.0000
 30
0.0
 0
SEQEND
 8
PARTS
 0
POLYLINE
 8
PARTS
 66
1
 10
0.0
 20
0.0
 30
0.0
 0
VERTEX
 8
PARTS
 10
  2.6000
 20
  6.0000
 30
0.0
 42
  0.4142
 0
VERTEX
 8
PARTS
 10
  2.5500
 20
  6.0500
 30
0.0
 0
SEQEND
 8
PARTS
 0
POLYLINE
 8
PARTS
 66
1
 10
0.0
 20
0.0
 30
0.0
 0
VERTEX
 8
PARTS
 10
  2.6500
 20
  6.0500
 30
0.0
 42
  0.4142
 0
VERTEX
 8
PARTS
 10
  2.6000
 20
  6.0000
 30
0.0
 0
SEQEND
 8
PARTS
 0
POLYLINE
 8
PARTS
 66
1
 10
0.0
 20
0.0
 30
0.0
 0
VERTEX
 8
PARTS
 10
  2.7000
 20
  6.0000
 30
0.0
 42
  0.4142
 0
VERTEX
 8
PARTS
 10
  2.6500
 20
  6.0500
 30
0.0
 0
SEQEND
 8
PARTS
 0
POLYLINE
 8
PARTS
 66
1
 10
0.0
 20
0.0
 30
0.0
 0
VERTEX
 8
PARTS
 10
  2.7500
 20
  6.0500
 30
0.0
 42
  0.4142
 0
VERTEX
 8
PARTS
 10
  2.7000
 20
  6.0000
 30
0.0
 0
SEQEND
 8
PARTS
 0
POLYLINE
 8
PARTS
 66
1
 10
0.0
 20
0.0
 30
0.0
 0
VERTEX
 8
PARTS
 10
  2.8000
 20
  6.0000
 30
0.0
 42
  0.4142
 0
VERTEX
 8
PARTS
 10
  2.7500
 20
  6.0500
 30
0.0
 0
SEQEND
 8
PARTS
 0
TEXT
 8
PARTTEXT
 10
  4.5000
 20
  2.2686
 30
0.0
 40
  0.0514
 1
J70
 0
TEXT
 8
PARTTEXT
 10
  4.5000
 20
  1.7586
 30
0.0
 40
  0.0514
 1
JUMPER1
 0
LINE
 8
PARTS
 10
  5.2000
 20
  2.0000
 30
0.0
 11
  4.9000
 21
  2.0000
 31
0.0
 0
TEXT
 8
PARTS
 10
  4.9600
 20
  2.0300
 30
0.0
 40
  0.0500
 1
1
 0
LINE
 8
PARTS
 10
  4.2000
 20
  2.0000
 30
0.0
 11
  4.5000
 21
  2.0000
 31
0.0
 0
TEXT
 8
PARTS
 10
  4.4000
 20
  2.0300
 30
0.0
 40
  0.0500
 1
2
 0
POLYLINE
 8
PARTS
 66
1
 10
0.0
 20
0.0
 30
0.0
 0
VERTEX
 8
PARTS
 10
  4.8000
 20
  2.0000
 30
0.0
 42
  1.0000
 0
VERTEX
 8
PARTS
 10
  4.6000
 20
  2.0000
 30
0.0
 0
SEQEND
 8
PARTS
 0
POLYLINE
 8
PARTS
 66
1
 70
1
 10
0.0
 20
0.0
 30
0.0
 0
VERTEX
 8
PARTS
 10
  4.6100
 20
  2.0000
 30
0.0
 42
  0.0985
 0
VERTEX
 8
PARTS
 10
  4.6092
 20
  2.0038
 30
0.0
 42
  0.0985
 0
VERTEX
 8
PARTS
 10
  4.6071
 20
  2.0071
 30
0.0
 42
  0.0985
 0
VERTEX
 8
PARTS
 10
  4.6038
 20
  2.0092
 30
0.0
 42
  0.0985
 0
VERTEX
 8
PARTS
 10
  4.6000
 20
  2.0100
 30
0.0
 42
  0.0985
 0
VERTEX
 8
PARTS
 10
  4.5962
 20
  2.0092
 30
0.0
 42
  0.0985
 0
VERTEX
 8
PARTS
 10
  4.5929
 20
  2.0071
 30
0.0
 42
  0.0985
 0
VERTEX
 8
PARTS
 10
  4.5908
 20
  2.0038
 30
0.0
 42
  0.0985
 0
VERTEX
 8
PARTS
 10
  4.5900
 20
  2.0000
 30
0.0
 42
  0.0985
 0
VERTEX
 8
PARTS
 10
  4.5908
 20
  1.9962
 30
0.0
 42
  0.0985
 0
VERTEX
 8
PARTS
 10
  4.5929
 20
  1.9929
 30
0.0
 42
  0.0985
 0
VERTEX
 8
PARTS
 10
  4.5962
 20
  1.9908
 30
0.0
 42
  0.0985
 0
VERTEX
 8
PARTS
 10
  4.6000
 20
  1.9900
 30
0.0
 42
  0.0985
 0
VERTEX
 8
PARTS
 10
  4.6038
 20
  1.9908
 30
0.0
 42
  0.0985
 0
VERTEX
 8
PARTS
 10
  4.6071
 20
  1.9929
 30
0.0
 42
  0.0985
 0
VERTEX
 8
PARTS
 10
  4.6092
 20
  1.9962
 30
0.0
 42
  0.0985
 0
SEQEND
 8
PARTS
 0
POLYLINE
 8
PARTS
 66
1
 70
1
 10
0.0
 20
0.0
 30
0.0
 0
VERTEX
 8
PARTS
 10
  4.8100
 20
  2.0000
 30
0.0
 42
  0.0985
 0
VERTEX
 8
PARTS
 10
  4.8092
 20
  2.0038
 30
0.0
 42
  0.0985
 0
VERTEX
 8
PARTS
 10
  4.8071
 20
  2.0071
 30
0.0
 42
  0.0985
 0
VERTEX
 8
PARTS
 10
  4.8038
 20
  2.0092
 30
0.0
 42
  0.0985
 0
VERTEX
 8
PARTS
 10
  4.8000
 20
  2.0100
 30
0.0
 42
  0.0985
 0
VERTEX
 8
PARTS
 10
  4.7962
 20
  2.0092
 30
0.0
 42
  0.0985
 0
VERTEX
 8
PARTS
 10
  4.7929
 20
  2.0071
 30
0.0
 42
  0.0985
 0
VERTEX
 8
PARTS
 10
  4.7908
 20
  2.0038
 30
0.0
 42
  0.0985
 0
VERTEX
 8
PARTS
 10
  4.7900
 20
  2.0000
 30
0.0
 42
  0.0985
 0
VERTEX
 8
PARTS
 10
  4.7908
 20
  1.9962
 30
0.0
 42
  0.0985
 0
VERTEX
 8
PARTS
 10
  4.7929
 20
  1.9929
 30
0.0
 42
  0.0985
 0
VERTEX
 8
PARTS
 10
  4.7962
 20
  1.9908
 30
0.0
 42
  0.0985
 0
VERTEX
 8
PARTS
 10
  4.8000
 20
  1.9900
 30
0.0
 42
  0.0985
 0
VERTEX
 8
PARTS
 10
  4.8038
 20
  1.9908
 30
0.0
 42
  0.0985
 0
VERTEX
 8
PARTS
 10
  4.8071
 20
  1.9929
 30
0.0
 42
  0.0985
 0
VERTEX
 8
PARTS
 10
  4.8092
 20
  1.9962
 30
0.0
 42
  0.0985
 0
SEQEND
 8
PARTS
 0
POLYLINE
 8
PARTS
 66
1
 10
0.0
 20
0.0
 30
0.0
 0
VERTEX
 8
PARTS
 10
  4.5000
 20
  2.0000
 30
0.0
 0
VERTEX
 8
PARTS
 10
  4.6000
 20
  2.0000
 30
0.0
 0
SEQEND
 8
PARTS
 0
POLYLINE
 8
PARTS
 66
1
 10
0.0
 20
0.0
 30
0.0
 0
VERTEX
 8
PARTS
 10
  4.8000
 20
  2.0000
 30
0.0
 0
VERTEX
 8
PARTS
 10
  4.9000
 20
  2.0000
 30
0.0
 0
SEQEND
 8
PARTS
 0
POLYLINE
 8
PARTS
 66
1
 70
1
 10
0.0
 20
0.0
 30
0.0
 0
VERTEX
 8
PARTS
 10
  4.9000
 20
  1.9000
 30
0.0
 0
VERTEX
 8
PARTS
 10
  4.5000
 20
  1.9000
 30
0.0
 0
VERTEX
 8
PARTS
 10
  4.5000
 20
  2.2000
 30
0.0
 0
VERTEX
 8
PARTS
 10
  4.9000
 20
  2.2000
 30
0.0
 0
SEQEND
 8
PARTS
 0
POLYLINE
 8
WIRE
 66
1
 10
0.0
 20
0.0
 30
0.0
 0
VERTEX
 8
WIRE
 10
  3.8000
 20
  2.0000
 30
0.0
 0
VERTEX
 8
WIRE
 10
  3.4000
 20
  2.0000
 30
0.0
 0
SEQEND
 8
WIRE
 0
POLYLINE
 8
WIRE
 66
1
 10
0.0
 20
0.0
 30
0.0
 0
VERTEX
 8
WIRE
 10
  1.6000
 20
  2.4000
 30
0.0
 0
VERTEX
 8
WIRE
 10
  1.2000
 20
  2.4000
 30
0.0
 0
SEQEND
 8
WIRE
 0
TEXT
 8
WIRETEXT
 10
  1.2000
 20
  2.4300
 30
0.0
 40
  0.0514
 1
VCP_IN
 0
POLYLINE
 8
WIRE
 66
1
 10
0.0
 20
0.0
 30
0.0
 0
VERTEX
 8
WIRE
 10
  2.5000
 20
  2.4000
 30
0.0
 0
VERTEX
 8
WIRE
 10
  2.3000
 20
  2.4000
 30
0.0
 0
SEQEND
 8
WIRE
 0
POLYLINE
 8
WIRE
 66
1
 70
1
 10
0.0
 20
0.0
 30
0.0
 40
  0.0200
 41
  0.0200
 0
VERTEX
 8
WIRE
 10
  2.2900
 20
  2.4000
 30
0.0
 42
1.0
 0
VERTEX
 8
WIRE
 10
  2.3100
 20
  2.4000
 30
0.0
 42
1.0
 0
SEQEND
 8
WIRE
 0
POLYLINE
 8
WIRE
 66
1
 10
0.0
 20
0.0
 30
0.0
 0
VERTEX
 8
WIRE
 10
  5.4000
 20
  2.4000
 30
0.0
 0
VERTEX
 8
WIRE
 10
  4.4000
 20
  2.4000
 30
0.0
 0
SEQEND
 8
WIRE
 0
POLYLINE
 8
WIRE
 66
1
 10
0.0
 20
0.0
 30
0.0
 0
VERTEX
 8
WIRE
 10
  3.8000
 20
  1.6000
 30
0.0
 0
VERTEX
 8
WIRE
 10
  3.8000
 20
  2.0000
 30
0.0
 0
SEQEND
 8
WIRE
 0
TEXT
 8
WIRETEXT
 10
  3.8300
 20
  1.9100
 30
0.0
 40
  0.0514
 50
270.0000
 1
AGND
 0
POLYLINE
 8
WIRE
 66
1
 10
0.0
 20
0.0
 30
0.0
 0
VERTEX
 8
WIRE
 10
  3.3000
 20
  1.8000
 30
0.0
 0
VERTEX
 8
WIRE
 10
  3.3000
 20
  2.4000
 30
0.0
 0
SEQEND
 8
WIRE
 0
POLYLINE
 8
WIRE
 66
1
 10
0.0
 20
0.0
 30
0.0
 0
VERTEX
 8
WIRE
 10
  3.4000
 20
  1.8000
 30
0.0
 0
VERTEX
 8
WIRE
 10
  3.4000
 20
  2.0000
 30
0.0
 0
SEQEND
 8
WIRE
 0
POLYLINE
 8
WIRE
 66
1
 10
0.0
 20
0.0
 30
0.0
 0
VERTEX
 8
WIRE
 10
  1.4000
 20
  2.3000
 30
0.0
 0
VERTEX
 8
WIRE
 10
  1.2000
 20
  2.3000
 30
0.0
 0
SEQEND
 8
WIRE
 0
TEXT
 8
WIRETEXT
 10
  1.4300
 20
  2.3000
 30
0.0
 40
  0.0514
 50
270.0000
 1
AGND
 0
POLYLINE
 8
WIRE
 66
1
 10
0.0
 20
0.0
 30
0.0
 0
VERTEX
 8
WIRE
 10
  1.4000
 20
  2.0000
 30
0.0
 0
VERTEX
 8
WIRE
 10
  1.4000
 20
  2.3000
 30
0.0
 0
SEQEND
 8
WIRE
 0
POLYLINE
 8
WIRE
 66
1
 10
0.0
 20
0.0
 30
0.0
 0
VERTEX
 8
WIRE
 10
  5.4000
 20
  2.1000
 30
0.0
 0
VERTEX
 8
WIRE
 10
  5.4000
 20
  2.4000
 30
0.0
 0
SEQEND
 8
WIRE
 0
POLYLINE
 8
WIRE
 66
1
 70
1
 10
0.0
 20
0.0
 30
0.0
 40
  0.0200
 41
  0.0200
 0
VERTEX
 8
WIRE
 10
  5.3900
 20
  2.4000
 30
0.0
 42
1.0
 0
VERTEX
 8
WIRE
 10
  5.4100
 20
  2.4000
 30
0.0
 42
1.0
 0
SEQEND
 8
WIRE
 0
POLYLINE
 8
WIRE
 66
1
 10
0.0
 20
0.0
 30
0.0
 0
VERTEX
 8
WIRE
 10
  2.3000
 20
  2.4000
 30
0.0
 0
VERTEX
 8
WIRE
 10
  2.3000
 20
  2.8000
 30
0.0
 0
SEQEND
 8
WIRE
 0
POLYLINE
 8
WIRE
 66
1
 10
0.0
 20
0.0
 30
0.0
 0
VERTEX
 8
WIRE
 10
  2.3000
 20
  2.4000
 30
0.0
 0
VERTEX
 8
WIRE
 10
  2.2000
 20
  2.4000
 30
0.0
 0
SEQEND
 8
WIRE
 0
POLYLINE
 8
WIRE
 66
1
 10
0.0
 20
0.0
 30
0.0
 0
VERTEX
 8
WIRE
 10
  3.2000
 20
  1.8000
 30
0.0
 0
VERTEX
 8
WIRE
 10
  3.2000
 20
  2.4000
 30
0.0
 0
SEQEND
 8
WIRE
 0
POLYLINE
 8
WIRE
 66
1
 10
0.0
 20
0.0
 30
0.0
 0
VERTEX
 8
WIRE
 10
  3.2000
 20
  2.4000
 30
0.0
 0
VERTEX
 8
WIRE
 10
  3.0000
 20
  2.4000
 30
0.0
 0
SEQEND
 8
WIRE
 0
POLYLINE
 8
WIRE
 66
1
 10
0.0
 20
0.0
 30
0.0
 0
VERTEX
 8
WIRE
 10
  2.8000
 20
  2.8000
 30
0.0
 0
VERTEX
 8
WIRE
 10
  2.3000
 20
  2.8000
 30
0.0
 0
SEQEND
 8
WIRE
 0
POLYLINE
 8
WIRE
 66
1
 10
0.0
 20
0.0
 30
0.0
 0
VERTEX
 8
WIRE
 10
  3.6000
 20
  2.4000
 30
0.0
 0
VERTEX
 8
WIRE
 10
  3.6000
 20
  2.8000
 30
0.0
 0
SEQEND
 8
WIRE
 0
POLYLINE
 8
WIRE
 66
1
 10
0.0
 20
0.0
 30
0.0
 0
VERTEX
 8
WIRE
 10
  3.6000
 20
  2.4000
 30
0.0
 0
VERTEX
 8
WIRE
 10
  3.3000
 20
  2.4000
 30
0.0
 0
SEQEND
 8
WIRE
 0
POLYLINE
 8
WIRE
 66
1
 10
0.0
 20
0.0
 30
0.0
 0
VERTEX
 8
WIRE
 10
  3.3000
 20
  2.8000
 30
0.0
 0
VERTEX
 8
WIRE
 10
  3.6000
 20
  2.8000
 30
0.0
 0
SEQEND
 8
WIRE
 0
POLYLINE
 8
WIRE
 66
1
 10
0.0
 20
0.0
 30
0.0
 0
VERTEX
 8
WIRE
 10
  4.2000
 20
  2.4000
 30
0.0
 0
VERTEX
 8
WIRE
 10
  3.6000
 20
  2.4000
 30
0.0
 0
SEQEND
 8
WIRE
 0
POLYLINE
 8
WIRE
 66
1
 70
1
 10
0.0
 20
0.0
 30
0.0
 40
  0.0200
 41
  0.0200
 0
VERTEX
 8
WIRE
 10
  3.5900
 20
  2.4000
 30
0.0
 42
1.0
 0
VERTEX
 8
WIRE
 10
  3.6100
 20
  2.4000
 30
0.0
 42
1.0
 0
SEQEND
 8
WIRE
 0
POLYLINE
 8
WIRE
 66
1
 10
0.0
 20
0.0
 30
0.0
 0
VERTEX
 8
WIRE
 10
  4.4000
 20
  2.4000
 30
0.0
 0
VERTEX
 8
WIRE
 10
  4.2000
 20
  2.4000
 30
0.0
 0
SEQEND
 8
WIRE
 0
POLYLINE
 8
WIRE
 66
1
 70
1
 10
0.0
 20
0.0
 30
0.0
 40
  0.0200
 41
  0.0200
 0
VERTEX
 8
WIRE
 10
  4.3900
 20
  2.4000
 30
0.0
 42
1.0
 0
VERTEX
 8
WIRE
 10
  4.4100
 20
  2.4000
 30
0.0
 42
1.0
 0
SEQEND
 8
WIRE
 0
POLYLINE
 8
WIRE
 66
1
 10
0.0
 20
0.0
 30
0.0
 0
VERTEX
 8
WIRE
 10
  4.2000
 20
  2.0000
 30
0.0
 0
VERTEX
 8
WIRE
 10
  4.2000
 20
  2.4000
 30
0.0
 0
SEQEND
 8
WIRE
 0
POLYLINE
 8
WIRE
 66
1
 70
1
 10
0.0
 20
0.0
 30
0.0
 40
  0.0200
 41
  0.0200
 0
VERTEX
 8
WIRE
 10
  4.1900
 20
  2.4000
 30
0.0
 42
1.0
 0
VERTEX
 8
WIRE
 10
  4.2100
 20
  2.4000
 30
0.0
 42
1.0
 0
SEQEND
 8
WIRE
 0
POLYLINE
 8
WIRE
 66
1
 10
0.0
 20
0.0
 30
0.0
 0
VERTEX
 8
WIRE
 10
  5.2000
 20
  1.8000
 30
0.0
 0
VERTEX
 8
WIRE
 10
  5.2000
 20
  2.0000
 30
0.0
 0
SEQEND
 8
WIRE
 0
POLYLINE
 8
WIRE
 66
1
 10
0.0
 20
0.0
 30
0.0
 0
VERTEX
 8
WIRE
 10
  4.4000
 20
  2.4000
 30
0.0
 0
VERTEX
 8
WIRE
 10
  4.4000
 20
  2.5000
 30
0.0
 0
SEQEND
 8
WIRE
 0
POLYLINE
 8
WIRE
 66
1
 10
0.0
 20
0.0
 30
0.0
 0
VERTEX
 8
WIRE
 10
  5.4000
 20
  1.3000
 30
0.0
 0
VERTEX
 8
WIRE
 10
  5.4000
 20
  1.8000
 30
0.0
 0
SEQEND
 8
WIRE
 0
POLYLINE
 8
WIRE
 66
1
 70
1
 10
0.0
 20
0.0
 30
0.0
 40
  0.0200
 41
  0.0200
 0
VERTEX
 8
WIRE
 10
  5.3900
 20
  1.8000
 30
0.0
 42
1.0
 0
VERTEX
 8
WIRE
 10
  5.4100
 20
  1.8000
 30
0.0
 42
1.0
 0
SEQEND
 8
WIRE
 0
POLYLINE
 8
WIRE
 66
1
 10
0.0
 20
0.0
 30
0.0
 0
VERTEX
 8
WIRE
 10
  5.2000
 20
  1.1000
 30
0.0
 0
VERTEX
 8
WIRE
 10
  5.2000
 20
  1.3000
 30
0.0
 0
SEQEND
 8
WIRE
 0
POLYLINE
 8
WIRE
 66
1
 10
0.0
 20
0.0
 30
0.0
 0
VERTEX
 8
WIRE
 10
  5.4000
 20
  1.8000
 30
0.0
 0
VERTEX
 8
WIRE
 10
  5.4000
 20
  1.9000
 30
0.0
 0
SEQEND
 8
WIRE
 0
POLYLINE
 8
WIRE
 66
1
 10
0.0
 20
0.0
 30
0.0
 0
VERTEX
 8
WIRE
 10
  5.5000
 20
  3.8000
 30
0.0
 0
VERTEX
 8
WIRE
 10
  5.2000
 20
  3.8000
 30
0.0
 0
SEQEND
 8
WIRE
 0
POLYLINE
 8
WIRE
 66
1
 10
0.0
 20
0.0
 30
0.0
 0
VERTEX
 8
WIRE
 10
  5.4000
 20
  1.3000
 30
0.0
 0
VERTEX
 8
WIRE
 10
  5.2000
 20
  1.3000
 30
0.0
 0
SEQEND
 8
WIRE
 0
POLYLINE
 8
WIRE
 66
1
 70
1
 10
0.0
 20
0.0
 30
0.0
 40
  0.0200
 41
  0.0200
 0
VERTEX
 8
WIRE
 10
  5.1900
 20
  1.3000
 30
0.0
 42
1.0
 0
VERTEX
 8
WIRE
 10
  5.2100
 20
  1.3000
 30
0.0
 42
1.0
 0
SEQEND
 8
WIRE
 0
POLYLINE
 8
WIRE
 66
1
 10
0.0
 20
0.0
 30
0.0
 0
VERTEX
 8
WIRE
 10
  5.9000
 20
  1.2000
 30
0.0
 0
VERTEX
 8
WIRE
 10
  5.3000
 20
  1.2000
 30
0.0
 0
SEQEND
 8
WIRE
 0
TEXT
 8
WIRETEXT
 10
  5.6000
 20
  1.2300
 30
0.0
 40
  0.0514
 1
VN
 0
POLYLINE
 8
WIRE
 66
1
 10
0.0
 20
0.0
 30
0.0
 0
VERTEX
 8
WIRE
 10
  4.7000
 20
  3.8000
 30
0.0
 0
VERTEX
 8
WIRE
 10
  4.4000
 20
  3.8000
 30
0.0
 0
SEQEND
 8
WIRE
 0
POLYLINE
 8
WIRE
 66
1
 70
1
 10
0.0
 20
0.0
 30
0.0
 40
  0.0200
 41
  0.0200
 0
VERTEX
 8
WIRE
 10
  4.3900
 20
  3.8000
 30
0.0
 42
1.0
 0
VERTEX
 8
WIRE
 10
  4.4100
 20
  3.8000
 30
0.0
 42
1.0
 0
SEQEND
 8
WIRE
 0
POLYLINE
 8
WIRE
 66
1
 10
0.0
 20
0.0
 30
0.0
 0
VERTEX
 8
WIRE
 10
  5.5000
 20
  4.6000
 30
0.0
 0
VERTEX
 8
WIRE
 10
  5.5000
 20
  5.0000
 30
0.0
 0
SEQEND
 8
WIRE
 0
POLYLINE
 8
WIRE
 66
1
 70
1
 10
0.0
 20
0.0
 30
0.0
 40
  0.0200
 41
  0.0200
 0
VERTEX
 8
WIRE
 10
  5.4900
 20
  5.0000
 30
0.0
 42
1.0
 0
VERTEX
 8
WIRE
 10
  5.5100
 20
  5.0000
 30
0.0
 42
1.0
 0
SEQEND
 8
WIRE
 0
POLYLINE
 8
WIRE
 66
1
 10
0.0
 20
0.0
 30
0.0
 0
VERTEX
 8
WIRE
 10
  4.4000
 20
  3.8000
 30
0.0
 0
VERTEX
 8
WIRE
 10
  4.0000
 20
  3.8000
 30
0.0
 0
SEQEND
 8
WIRE
 0
POLYLINE
 8
WIRE
 66
1
 10
0.0
 20
0.0
 30
0.0
 0
VERTEX
 8
WIRE
 10
  5.7000
 20
  3.4000
 30
0.0
 0
VERTEX
 8
WIRE
 10
  5.7000
 20
  3.8000
 30
0.0
 0
SEQEND
 8
WIRE
 0
POLYLINE
 8
WIRE
 66
1
 70
1
 10
0.0
 20
0.0
 30
0.0
 40
  0.0200
 41
  0.0200
 0
VERTEX
 8
WIRE
 10
  5.6900
 20
  3.8000
 30
0.0
 42
1.0
 0
VERTEX
 8
WIRE
 10
  5.7100
 20
  3.8000
 30
0.0
 42
1.0
 0
SEQEND
 8
WIRE
 0
POLYLINE
 8
WIRE
 66
1
 10
0.0
 20
0.0
 30
0.0
 0
VERTEX
 8
WIRE
 10
  6.5000
 20
  3.8000
 30
0.0
 0
VERTEX
 8
WIRE
 10
  5.9000
 20
  3.8000
 30
0.0
 0
SEQEND
 8
WIRE
 0
POLYLINE
 8
WIRE
 66
1
 70
1
 10
0.0
 20
0.0
 30
0.0
 40
  0.0200
 41
  0.0200
 0
VERTEX
 8
WIRE
 10
  5.8900
 20
  3.8000
 30
0.0
 42
1.0
 0
VERTEX
 8
WIRE
 10
  5.9100
 20
  3.8000
 30
0.0
 42
1.0
 0
SEQEND
 8
WIRE
 0
TEXT
 8
WIRETEXT
 10
  6.3000
 20
  3.8300
 30
0.0
 40
  0.0514
 1
ICN
 0
POLYLINE
 8
WIRE
 66
1
 10
0.0
 20
0.0
 30
0.0
 0
VERTEX
 8
WIRE
 10
  3.5000
 20
  3.8000
 30
0.0
 0
VERTEX
 8
WIRE
 10
  3.1000
 20
  3.8000
 30
0.0
 0
SEQEND
 8
WIRE
 0
POLYLINE
 8
WIRE
 66
1
 10
0.0
 20
0.0
 30
0.0
 0
VERTEX
 8
WIRE
 10
  3.1000
 20
  4.6000
 30
0.0
 0
VERTEX
 8
WIRE
 10
  3.1000
 20
  4.9000
 30
0.0
 0
SEQEND
 8
WIRE
 0
POLYLINE
 8
WIRE
 66
1
 10
0.0
 20
0.0
 30
0.0
 0
VERTEX
 8
WIRE
 10
  1.9000
 20
  4.9000
 30
0.0
 0
VERTEX
 8
WIRE
 10
  1.9000
 20
  5.0000
 30
0.0
 0
SEQEND
 8
WIRE
 0
POLYLINE
 8
WIRE
 66
1
 10
0.0
 20
0.0
 30
0.0
 0
VERTEX
 8
WIRE
 10
  4.4000
 20
  3.8000
 30
0.0
 0
VERTEX
 8
WIRE
 10
  4.4000
 20
  4.3000
 30
0.0
 0
SEQEND
 8
WIRE
 0
POLYLINE
 8
WIRE
 66
1
 10
0.0
 20
0.0
 30
0.0
 0
VERTEX
 8
WIRE
 10
  3.1000
 20
  4.9000
 30
0.0
 0
VERTEX
 8
WIRE
 10
  3.1000
 20
  5.3000
 30
0.0
 0
SEQEND
 8
WIRE
 0
POLYLINE
 8
WIRE
 66
1
 10
0.0
 20
0.0
 30
0.0
 0
VERTEX
 8
WIRE
 10
  3.1000
 20
  3.4000
 30
0.0
 0
VERTEX
 8
WIRE
 10
  3.1000
 20
  3.8000
 30
0.0
 0
SEQEND
 8
WIRE
 0
POLYLINE
 8
WIRE
 66
1
 70
1
 10
0.0
 20
0.0
 30
0.0
 40
  0.0200
 41
  0.0200
 0
VERTEX
 8
WIRE
 10
  3.0900
 20
  3.8000
 30
0.0
 42
1.0
 0
VERTEX
 8
WIRE
 10
  3.1100
 20
  3.8000
 30
0.0
 42
1.0
 0
SEQEND
 8
WIRE
 0
POLYLINE
 8
WIRE
 66
1
 10
0.0
 20
0.0
 30
0.0
 0
VERTEX
 8
WIRE
 10
  5.9000
 20
  5.0000
 30
0.0
 0
VERTEX
 8
WIRE
 10
  5.5000
 20
  5.0000
 30
0.0
 0
SEQEND
 8
WIRE
 0
TEXT
 8
WIRETEXT
 10
  5.6000
 20
  5.0300
 30
0.0
 40
  0.0514
 1
AGND
 0
POLYLINE
 8
WIRE
 66
1
 10
0.0
 20
0.0
 30
0.0
 0
VERTEX
 8
WIRE
 10
  5.9000
 20
  4.8000
 30
0.0
 0
VERTEX
 8
WIRE
 10
  5.9000
 20
  5.0000
 30
0.0
 0
SEQEND
 8
WIRE
 0
POLYLINE
 8
WIRE
 66
1
 10
0.0
 20
0.0
 30
0.0
 0
VERTEX
 8
WIRE
 10
  3.1000
 20
  4.9000
 30
0.0
 0
VERTEX
 8
WIRE
 10
  1.9000
 20
  4.9000
 30
0.0
 0
SEQEND
 8
WIRE
 0
POLYLINE
 8
WIRE
 66
1
 70
1
 10
0.0
 20
0.0
 30
0.0
 40
  0.0200
 41
  0.0200
 0
VERTEX
 8
WIRE
 10
  3.0900
 20
  4.9000
 30
0.0
 42
1.0
 0
VERTEX
 8
WIRE
 10
  3.1100
 20
  4.9000
 30
0.0
 42
1.0
 0
SEQEND
 8
WIRE
 0
POLYLINE
 8
WIRE
 66
1
 70
1
 10
0.0
 20
0.0
 30
0.0
 40
  0.0200
 41
  0.0200
 0
VERTEX
 8
WIRE
 10
  1.8900
 20
  4.9000
 30
0.0
 42
1.0
 0
VERTEX
 8
WIRE
 10
  1.9100
 20
  4.9000
 30
0.0
 42
1.0
 0
SEQEND
 8
WIRE
 0
POLYLINE
 8
WIRE
 66
1
 10
0.0
 20
0.0
 30
0.0
 0
VERTEX
 8
WIRE
 10
  4.8000
 20
  5.0000
 30
0.0
 0
VERTEX
 8
WIRE
 10
  4.4000
 20
  5.0000
 30
0.0
 0
SEQEND
 8
WIRE
 0
POLYLINE
 8
WIRE
 66
1
 70
1
 10
0.0
 20
0.0
 30
0.0
 40
  0.0200
 41
  0.0200
 0
VERTEX
 8
WIRE
 10
  4.3900
 20
  5.0000
 30
0.0
 42
1.0
 0
VERTEX
 8
WIRE
 10
  4.4100
 20
  5.0000
 30
0.0
 42
1.0
 0
SEQEND
 8
WIRE
 0
TEXT
 8
WIRETEXT
 10
  4.5000
 20
  5.0300
 30
0.0
 40
  0.0514
 1
AGND
 0
POLYLINE
 8
WIRE
 66
1
 10
0.0
 20
0.0
 30
0.0
 0
VERTEX
 8
WIRE
 10
  3.5000
 20
  4.8000
 30
0.0
 0
VERTEX
 8
WIRE
 10
  3.5000
 20
  4.9000
 30
0.0
 0
SEQEND
 8
WIRE
 0
POLYLINE
 8
WIRE
 66
1
 10
0.0
 20
0.0
 30
0.0
 0
VERTEX
 8
WIRE
 10
  3.5000
 20
  4.9000
 30
0.0
 0
VERTEX
 8
WIRE
 10
  3.1000
 20
  4.9000
 30
0.0
 0
SEQEND
 8
WIRE
 0
TEXT
 8
WIRETEXT
 10
  3.2000
 20
  4.9300
 30
0.0
 40
  0.0514
 1
AGND
 0
POLYLINE
 8
WIRE
 66
1
 10
0.0
 20
0.0
 30
0.0
 0
VERTEX
 8
WIRE
 10
  4.8000
 20
  4.8000
 30
0.0
 0
VERTEX
 8
WIRE
 10
  4.8000
 20
  5.0000
 30
0.0
 0
SEQEND
 8
WIRE
 0
POLYLINE
 8
WIRE
 66
1
 10
0.0
 20
0.0
 30
0.0
 0
VERTEX
 8
WIRE
 10
  4.4000
 20
  3.4000
 30
0.0
 0
VERTEX
 8
WIRE
 10
  4.1000
 20
  3.4000
 30
0.0
 0
SEQEND
 8
WIRE
 0
POLYLINE
 8
WIRE
 66
1
 10
0.0
 20
0.0
 30
0.0
 0
VERTEX
 8
WIRE
 10
  4.4000
 20
  3.4000
 30
0.0
 0
VERTEX
 8
WIRE
 10
  4.4000
 20
  3.8000
 30
0.0
 0
SEQEND
 8
WIRE
 0
POLYLINE
 8
WIRE
 66
1
 70
1
 10
0.0
 20
0.0
 30
0.0
 40
  0.0200
 41
  0.0200
 0
VERTEX
 8
WIRE
 10
  4.3900
 20
  3.4000
 30
0.0
 42
1.0
 0
VERTEX
 8
WIRE
 10
  4.4100
 20
  3.4000
 30
0.0
 42
1.0
 0
SEQEND
 8
WIRE
 0
POLYLINE
 8
WIRE
 66
1
 10
0.0
 20
0.0
 30
0.0
 0
VERTEX
 8
WIRE
 10
  4.7000
 20
  3.4000
 30
0.0
 0
VERTEX
 8
WIRE
 10
  4.4000
 20
  3.4000
 30
0.0
 0
SEQEND
 8
WIRE
 0
POLYLINE
 8
WIRE
 66
1
 10
0.0
 20
0.0
 30
0.0
 0
VERTEX
 8
WIRE
 10
  3.1000
 20
  3.8000
 30
0.0
 0
VERTEX
 8
WIRE
 10
  2.9000
 20
  3.8000
 30
0.0
 0
SEQEND
 8
WIRE
 0
POLYLINE
 8
WIRE
 66
1
 10
0.0
 20
0.0
 30
0.0
 0
VERTEX
 8
WIRE
 10
  3.1000
 20
  3.8000
 30
0.0
 0
VERTEX
 8
WIRE
 10
  3.1000
 20
  4.1000
 30
0.0
 0
SEQEND
 8
WIRE
 0
POLYLINE
 8
WIRE
 66
1
 10
0.0
 20
0.0
 30
0.0
 0
VERTEX
 8
WIRE
 10
  5.7000
 20
  3.8000
 30
0.0
 0
VERTEX
 8
WIRE
 10
  5.5000
 20
  3.8000
 30
0.0
 0
SEQEND
 8
WIRE
 0
POLYLINE
 8
WIRE
 66
1
 10
0.0
 20
0.0
 30
0.0
 0
VERTEX
 8
WIRE
 10
  5.5000
 20
  3.8000
 30
0.0
 0
VERTEX
 8
WIRE
 10
  5.5000
 20
  4.3000
 30
0.0
 0
SEQEND
 8
WIRE
 0
POLYLINE
 8
WIRE
 66
1
 70
1
 10
0.0
 20
0.0
 30
0.0
 40
  0.0200
 41
  0.0200
 0
VERTEX
 8
WIRE
 10
  5.4900
 20
  3.8000
 30
0.0
 42
1.0
 0
VERTEX
 8
WIRE
 10
  5.5100
 20
  3.8000
 30
0.0
 42
1.0
 0
SEQEND
 8
WIRE
 0
POLYLINE
 8
WIRE
 66
1
 10
0.0
 20
0.0
 30
0.0
 0
VERTEX
 8
WIRE
 10
  3.1000
 20
  6.0000
 30
0.0
 0
VERTEX
 8
WIRE
 10
  3.1000
 20
  6.6000
 30
0.0
 0
SEQEND
 8
WIRE
 0
POLYLINE
 8
WIRE
 66
1
 10
0.0
 20
0.0
 30
0.0
 0
VERTEX
 8
WIRE
 10
  4.4000
 20
  5.0000
 30
0.0
 0
VERTEX
 8
WIRE
 10
  4.4000
 20
  5.5000
 30
0.0
 0
SEQEND
 8
WIRE
 0
POLYLINE
 8
WIRE
 66
1
 10
0.0
 20
0.0
 30
0.0
 0
VERTEX
 8
WIRE
 10
  5.5000
 20
  5.0000
 30
0.0
 0
VERTEX
 8
WIRE
 10
  5.5000
 20
  5.5000
 30
0.0
 0
SEQEND
 8
WIRE
 0
POLYLINE
 8
WIRE
 66
1
 10
0.0
 20
0.0
 30
0.0
 0
VERTEX
 8
WIRE
 10
  5.5000
 20
  6.0000
 30
0.0
 0
VERTEX
 8
WIRE
 10
  5.2000
 20
  6.0000
 30
0.0
 0
SEQEND
 8
WIRE
 0
POLYLINE
 8
WIRE
 66
1
 10
0.0
 20
0.0
 30
0.0
 0
VERTEX
 8
WIRE
 10
  1.9000
 20
  6.0000
 30
0.0
 0
VERTEX
 8
WIRE
 10
  1.4000
 20
  6.0000
 30
0.0
 0
SEQEND
 8
WIRE
 0
POLYLINE
 8
WIRE
 66
1
 10
0.0
 20
0.0
 30
0.0
 0
VERTEX
 8
WIRE
 10
  1.9000
 20
  3.8000
 30
0.0
 0
VERTEX
 8
WIRE
 10
  1.4000
 20
  3.8000
 30
0.0
 0
SEQEND
 8
WIRE
 0
POLYLINE
 8
WIRE
 66
1
 10
0.0
 20
0.0
 30
0.0
 0
VERTEX
 8
WIRE
 10
  5.5000
 20
  6.0000
 30
0.0
 0
VERTEX
 8
WIRE
 10
  5.5000
 20
  6.6000
 30
0.0
 0
SEQEND
 8
WIRE
 0
POLYLINE
 8
WIRE
 66
1
 10
0.0
 20
0.0
 30
0.0
 0
VERTEX
 8
WIRE
 10
  4.4000
 20
  6.6000
 30
0.0
 0
VERTEX
 8
WIRE
 10
  4.2000
 20
  6.6000
 30
0.0
 0
SEQEND
 8
WIRE
 0
POLYLINE
 8
WIRE
 66
1
 10
0.0
 20
0.0
 30
0.0
 0
VERTEX
 8
WIRE
 10
  4.4000
 20
  6.0000
 30
0.0
 0
VERTEX
 8
WIRE
 10
  4.4000
 20
  6.6000
 30
0.0
 0
SEQEND
 8
WIRE
 0
POLYLINE
 8
WIRE
 66
1
 70
1
 10
0.0
 20
0.0
 30
0.0
 40
  0.0200
 41
  0.0200
 0
VERTEX
 8
WIRE
 10
  4.3900
 20
  6.0000
 30
0.0
 42
1.0
 0
VERTEX
 8
WIRE
 10
  4.4100
 20
  6.0000
 30
0.0
 42
1.0
 0
SEQEND
 8
WIRE
 0
POLYLINE
 8
WIRE
 66
1
 70
1
 10
0.0
 20
0.0
 30
0.0
 40
  0.0200
 41
  0.0200
 0
VERTEX
 8
WIRE
 10
  4.3900
 20
  6.6000
 30
0.0
 42
1.0
 0
VERTEX
 8
WIRE
 10
  4.4100
 20
  6.6000
 30
0.0
 42
1.0
 0
SEQEND
 8
WIRE
 0
POLYLINE
 8
WIRE
 66
1
 10
0.0
 20
0.0
 30
0.0
 0
VERTEX
 8
WIRE
 10
  5.5000
 20
  6.6000
 30
0.0
 0
VERTEX
 8
WIRE
 10
  5.4000
 20
  6.6000
 30
0.0
 0
SEQEND
 8
WIRE
 0
POLYLINE
 8
WIRE
 66
1
 10
0.0
 20
0.0
 30
0.0
 0
VERTEX
 8
WIRE
 10
  4.4000
 20
  6.0000
 30
0.0
 0
VERTEX
 8
WIRE
 10
  4.1000
 20
  6.0000
 30
0.0
 0
SEQEND
 8
WIRE
 0
POLYLINE
 8
WIRE
 66
1
 10
0.0
 20
0.0
 30
0.0
 0
VERTEX
 8
WIRE
 10
  3.2000
 20
  6.6000
 30
0.0
 0
VERTEX
 8
WIRE
 10
  3.1000
 20
  6.6000
 30
0.0
 0
SEQEND
 8
WIRE
 0
POLYLINE
 8
WIRE
 66
1
 10
0.0
 20
0.0
 30
0.0
 0
VERTEX
 8
WIRE
 10
  5.9000
 20
  6.0000
 30
0.0
 0
VERTEX
 8
WIRE
 10
  5.5000
 20
  6.0000
 30
0.0
 0
SEQEND
 8
WIRE
 0
POLYLINE
 8
WIRE
 66
1
 70
1
 10
0.0
 20
0.0
 30
0.0
 40
  0.0200
 41
  0.0200
 0
VERTEX
 8
WIRE
 10
  5.4900
 20
  6.0000
 30
0.0
 42
1.0
 0
VERTEX
 8
WIRE
 10
  5.5100
 20
  6.0000
 30
0.0
 42
1.0
 0
SEQEND
 8
WIRE
 0
POLYLINE
 8
WIRE
 66
1
 10
0.0
 20
0.0
 30
0.0
 0
VERTEX
 8
WIRE
 10
  5.1000
 20
  1.1000
 30
0.0
 0
VERTEX
 8
WIRE
 10
  4.6000
 20
  1.1000
 30
0.0
 0
SEQEND
 8
WIRE
 0
POLYLINE
 8
WIRE
 66
1
 10
0.0
 20
0.0
 30
0.0
 0
VERTEX
 8
WIRE
 10
  3.1000
 20
  6.0000
 30
0.0
 0
VERTEX
 8
WIRE
 10
  2.9000
 20
  6.0000
 30
0.0
 0
SEQEND
 8
WIRE
 0
POLYLINE
 8
WIRE
 66
1
 10
0.0
 20
0.0
 30
0.0
 0
VERTEX
 8
WIRE
 10
  1.9000
 20
  4.8000
 30
0.0
 0
VERTEX
 8
WIRE
 10
  1.9000
 20
  4.9000
 30
0.0
 0
SEQEND
 8
WIRE
 0
POLYLINE
 8
WIRE
 66
1
 10
0.0
 20
0.0
 30
0.0
 0
VERTEX
 8
WIRE
 10
  5.9000
 20
  3.8000
 30
0.0
 0
VERTEX
 8
WIRE
 10
  5.7000
 20
  3.8000
 30
0.0
 0
SEQEND
 8
WIRE
 0
POLYLINE
 8
WIRE
 66
1
 10
0.0
 20
0.0
 30
0.0
 0
VERTEX
 8
WIRE
 10
  2.3000
 20
  6.0000
 30
0.0
 0
VERTEX
 8
WIRE
 10
  1.9000
 20
  6.0000
 30
0.0
 0
SEQEND
 8
WIRE
 0
POLYLINE
 8
WIRE
 66
1
 70
1
 10
0.0
 20
0.0
 30
0.0
 40
  0.0200
 41
  0.0200
 0
VERTEX
 8
WIRE
 10
  1.8900
 20
  6.0000
 30
0.0
 42
1.0
 0
VERTEX
 8
WIRE
 10
  1.9100
 20
  6.0000
 30
0.0
 42
1.0
 0
SEQEND
 8
WIRE
 0
POLYLINE
 8
WIRE
 66
1
 10
0.0
 20
0.0
 30
0.0
 0
VERTEX
 8
WIRE
 10
  1.4000
 20
  4.9000
 30
0.0
 0
VERTEX
 8
WIRE
 10
  1.4000
 20
  6.0000
 30
0.0
 0
SEQEND
 8
WIRE
 0
TEXT
 8
WIRETEXT
 10
  1.4000
 20
  6.0300
 30
0.0
 40
  0.0514
 1
ICP_IN
 0
POLYLINE
 8
WIRE
 66
1
 10
0.0
 20
0.0
 30
0.0
 0
VERTEX
 8
WIRE
 10
  2.3000
 20
  3.8000
 30
0.0
 0
VERTEX
 8
WIRE
 10
  1.9000
 20
  3.8000
 30
0.0
 0
SEQEND
 8
WIRE
 0
POLYLINE
 8
WIRE
 66
1
 70
1
 10
0.0
 20
0.0
 30
0.0
 40
  0.0200
 41
  0.0200
 0
VERTEX
 8
WIRE
 10
  1.8900
 20
  3.8000
 30
0.0
 42
1.0
 0
VERTEX
 8
WIRE
 10
  1.9100
 20
  3.8000
 30
0.0
 42
1.0
 0
SEQEND
 8
WIRE
 0
POLYLINE
 8
WIRE
 66
1
 10
0.0
 20
0.0
 30
0.0
 0
VERTEX
 8
WIRE
 10
  1.4000
 20
  3.8000
 30
0.0
 0
VERTEX
 8
WIRE
 10
  1.4000
 20
  4.8000
 30
0.0
 0
SEQEND
 8
WIRE
 0
TEXT
 8
WIRETEXT
 10
  1.4000
 20
  3.8300
 30
0.0
 40
  0.0514
 1
ICN_IN
 0
POLYLINE
 8
WIRE
 66
1
 10
0.0
 20
0.0
 30
0.0
 0
VERTEX
 8
WIRE
 10
  1.4000
 20
  4.8000
 30
0.0
 0
VERTEX
 8
WIRE
 10
  1.1000
 20
  4.8000
 30
0.0
 0
SEQEND
 8
WIRE
 0
POLYLINE
 8
WIRE
 66
1
 10
0.0
 20
0.0
 30
0.0
 0
VERTEX
 8
WIRE
 10
  1.4000
 20
  4.9000
 30
0.0
 0
VERTEX
 8
WIRE
 10
  1.1000
 20
  4.9000
 30
0.0
 0
SEQEND
 8
WIRE
 0
POLYLINE
 8
WIRE
 66
1
 10
0.0
 20
0.0
 30
0.0
 0
VERTEX
 8
WIRE
 10
  4.7000
 20
  6.0000
 30
0.0
 0
VERTEX
 8
WIRE
 10
  4.4000
 20
  6.0000
 30
0.0
 0
SEQEND
 8
WIRE
 0
POLYLINE
 8
WIRE
 66
1
 70
1
 10
0.0
 20
0.0
 30
0.0
 40
  0.0200
 41
  0.0200
 0
VERTEX
 8
WIRE
 10
  4.3900
 20
  6.0000
 30
0.0
 42
1.0
 0
VERTEX
 8
WIRE
 10
  4.4100
 20
  6.0000
 30
0.0
 42
1.0
 0
SEQEND
 8
WIRE
 0
POLYLINE
 8
WIRE
 66
1
 10
0.0
 20
0.0
 30
0.0
 0
VERTEX
 8
WIRE
 10
  6.5000
 20
  6.0000
 30
0.0
 0
VERTEX
 8
WIRE
 10
  5.9000
 20
  6.0000
 30
0.0
 0
SEQEND
 8
WIRE
 0
POLYLINE
 8
WIRE
 66
1
 70
1
 10
0.0
 20
0.0
 30
0.0
 40
  0.0200
 41
  0.0200
 0
VERTEX
 8
WIRE
 10
  5.8900
 20
  6.0000
 30
0.0
 42
1.0
 0
VERTEX
 8
WIRE
 10
  5.9100
 20
  6.0000
 30
0.0
 42
1.0
 0
SEQEND
 8
WIRE
 0
TEXT
 8
WIRETEXT
 10
  6.3000
 20
  6.0300
 30
0.0
 40
  0.0514
 1
ICP
 0
POLYLINE
 8
WIRE
 66
1
 10
0.0
 20
0.0
 30
0.0
 0
VERTEX
 8
WIRE
 10
  3.1000
 20
  5.8000
 30
0.0
 0
VERTEX
 8
WIRE
 10
  3.1000
 20
  6.0000
 30
0.0
 0
SEQEND
 8
WIRE
 0
POLYLINE
 8
WIRE
 66
1
 10
0.0
 20
0.0
 30
0.0
 0
VERTEX
 8
WIRE
 10
  5.5000
 20
  5.8000
 30
0.0
 0
VERTEX
 8
WIRE
 10
  5.5000
 20
  6.0000
 30
0.0
 0
SEQEND
 8
WIRE
 0
POLYLINE
 8
WIRE
 66
1
 10
0.0
 20
0.0
 30
0.0
 0
VERTEX
 8
WIRE
 10
  4.4000
 20
  5.8000
 30
0.0
 0
VERTEX
 8
WIRE
 10
  4.4000
 20
  6.0000
 30
0.0
 0
SEQEND
 8
WIRE
 0
POLYLINE
 8
WIRE
 66
1
 10
0.0
 20
0.0
 30
0.0
 0
VERTEX
 8
WIRE
 10
  4.4000
 20
  4.6000
 30
0.0
 0
VERTEX
 8
WIRE
 10
  4.4000
 20
  5.0000
 30
0.0
 0
SEQEND
 8
WIRE
 0
POLYLINE
 8
WIRE
 66
1
 10
0.0
 20
0.0
 30
0.0
 0
VERTEX
 8
WIRE
 10
  3.6000
 20
  6.0000
 30
0.0
 0
VERTEX
 8
WIRE
 10
  3.1000
 20
  6.0000
 30
0.0
 0
SEQEND
 8
WIRE
 0
POLYLINE
 8
WIRE
 66
1
 70
1
 10
0.0
 20
0.0
 30
0.0
 40
  0.0200
 41
  0.0200
 0
VERTEX
 8
WIRE
 10
  3.0900
 20
  6.0000
 30
0.0
 42
1.0
 0
VERTEX
 8
WIRE
 10
  3.1100
 20
  6.0000
 30
0.0
 42
1.0
 0
SEQEND
 8
WIRE
 0
POLYLINE
 8
WIRE
 66
1
 10
0.0
 20
0.0
 30
0.0
 0
VERTEX
 8
WIRE
 10
  5.8000
 20
  2.4000
 30
0.0
 0
VERTEX
 8
WIRE
 10
  5.4000
 20
  2.4000
 30
0.0
 0
SEQEND
 8
WIRE
 0
TEXT
 8
WIRETEXT
 10
  5.6000
 20
  2.4300
 30
0.0
 40
  0.0514
 1
VCP
 0
POLYLINE
 8
WIRE
 66
1
 10
0.0
 20
0.0
 30
0.0
 0
VERTEX
 8
WIRE
 10
  4.6000
 20
  0.9000
 30
0.0
 0
VERTEX
 8
WIRE
 10
  4.6000
 20
  1.1000
 30
0.0
 0
SEQEND
 8
WIRE
 0
TEXT
 8
WIRETEXT
 10
  4.6000
 20
  1.1300
 30
0.0
 40
  0.0514
 1
AGND
 0
POLYLINE
 8
WIRE
 66
1
 10
0.0
 20
0.0
 30
0.0
 0
VERTEX
 8
WIRE
 10
  5.3000
 20
  1.2000
 30
0.0
 0
VERTEX
 8
WIRE
 10
  5.3000
 20
  1.1000
 30
0.0
 0
SEQEND
 8
WIRE
 0
POLYLINE
 8
PARTS
 66
1
 10
0.0
 20
0.0
 30
0.0
 0
VERTEX
 8
PARTS
 10
  3.7000
 20
  1.6000
 30
0.0
 0
VERTEX
 8
PARTS
 10
  3.9000
 20
  1.6000
 30
0.0
 0
SEQEND
 8
PARTS
 0
POLYLINE
 8
PARTS
 66
1
 10
0.0
 20
0.0
 30
0.0
 0
VERTEX
 8
PARTS
 10
  3.9000
 20
  1.6000
 30
0.0
 0
VERTEX
 8
PARTS
 10
  3.8000
 20
  1.5000
 30
0.0
 0
SEQEND
 8
PARTS
 0
POLYLINE
 8
PARTS
 66
1
 10
0.0
 20
0.0
 30
0.0
 0
VERTEX
 8
PARTS
 10
  3.8000
 20
  1.5000
 30
0.0
 0
VERTEX
 8
PARTS
 10
  3.7000
 20
  1.6000
 30
0.0
 0
SEQEND
 8
PARTS
 0
POLYLINE
 8
PARTS
 66
1
 10
0.0
 20
0.0
 30
0.0
 0
VERTEX
 8
PARTS
 10
  1.3000
 20
  2.0000
 30
0.0
 0
VERTEX
 8
PARTS
 10
  1.5000
 20
  2.0000
 30
0.0
 0
SEQEND
 8
PARTS
 0
POLYLINE
 8
PARTS
 66
1
 10
0.0
 20
0.0
 30
0.0
 0
VERTEX
 8
PARTS
 10
  1.5000
 20
  2.0000
 30
0.0
 0
VERTEX
 8
PARTS
 10
  1.4000
 20
  1.9000
 30
0.0
 0
SEQEND
 8
PARTS
 0
POLYLINE
 8
PARTS
 66
1
 10
0.0
 20
0.0
 30
0.0
 0
VERTEX
 8
PARTS
 10
  1.4000
 20
  1.9000
 30
0.0
 0
VERTEX
 8
PARTS
 10
  1.3000
 20
  2.0000
 30
0.0
 0
SEQEND
 8
PARTS
 0
POLYLINE
 8
PARTS
 66
1
 10
0.0
 20
0.0
 30
0.0
 0
VERTEX
 8
PARTS
 10
  3.4000
 20
  4.8000
 30
0.0
 0
VERTEX
 8
PARTS
 10
  3.6000
 20
  4.8000
 30
0.0
 0
SEQEND
 8
PARTS
 0
POLYLINE
 8
PARTS
 66
1
 10
0.0
 20
0.0
 30
0.0
 0
VERTEX
 8
PARTS
 10
  3.6000
 20
  4.8000
 30
0.0
 0
VERTEX
 8
PARTS
 10
  3.5000
 20
  4.7000
 30
0.0
 0
SEQEND
 8
PARTS
 0
POLYLINE
 8
PARTS
 66
1
 10
0.0
 20
0.0
 30
0.0
 0
VERTEX
 8
PARTS
 10
  3.5000
 20
  4.7000
 30
0.0
 0
VERTEX
 8
PARTS
 10
  3.4000
 20
  4.8000
 30
0.0
 0
SEQEND
 8
PARTS
 0
POLYLINE
 8
PARTS
 66
1
 10
0.0
 20
0.0
 30
0.0
 0
VERTEX
 8
PARTS
 10
  4.7000
 20
  4.8000
 30
0.0
 0
VERTEX
 8
PARTS
 10
  4.9000
 20
  4.8000
 30
0.0
 0
SEQEND
 8
PARTS
 0
POLYLINE
 8
PARTS
 66
1
 10
0.0
 20
0.0
 30
0.0
 0
VERTEX
 8
PARTS
 10
  4.9000
 20
  4.8000
 30
0.0
 0
VERTEX
 8
PARTS
 10
  4.8000
 20
  4.7000
 30
0.0
 0
SEQEND
 8
PARTS
 0
POLYLINE
 8
PARTS
 66
1
 10
0.0
 20
0.0
 30
0.0
 0
VERTEX
 8
PARTS
 10
  4.8000
 20
  4.7000
 30
0.0
 0
VERTEX
 8
PARTS
 10
  4.7000
 20
  4.8000
 30
0.0
 0
SEQEND
 8
PARTS
 0
POLYLINE
 8
PARTS
 66
1
 10
0.0
 20
0.0
 30
0.0
 0
VERTEX
 8
PARTS
 10
  5.8000
 20
  4.8000
 30
0.0
 0
VERTEX
 8
PARTS
 10
  6.0000
 20
  4.8000
 30
0.0
 0
SEQEND
 8
PARTS
 0
POLYLINE
 8
PARTS
 66
1
 10
0.0
 20
0.0
 30
0.0
 0
VERTEX
 8
PARTS
 10
  6.0000
 20
  4.8000
 30
0.0
 0
VERTEX
 8
PARTS
 10
  5.9000
 20
  4.7000
 30
0.0
 0
SEQEND
 8
PARTS
 0
POLYLINE
 8
PARTS
 66
1
 10
0.0
 20
0.0
 30
0.0
 0
VERTEX
 8
PARTS
 10
  5.9000
 20
  4.7000
 30
0.0
 0
VERTEX
 8
PARTS
 10
  5.8000
 20
  4.8000
 30
0.0
 0
SEQEND
 8
PARTS
 0
POLYLINE
 8
PARTS
 66
1
 10
0.0
 20
0.0
 30
0.0
 0
VERTEX
 8
PARTS
 10
  4.5000
 20
  0.9000
 30
0.0
 0
VERTEX
 8
PARTS
 10
  4.7000
 20
  0.9000
 30
0.0
 0
SEQEND
 8
PARTS
 0
POLYLINE
 8
PARTS
 66
1
 10
0.0
 20
0.0
 30
0.0
 0
VERTEX
 8
PARTS
 10
  4.7000
 20
  0.9000
 30
0.0
 0
VERTEX
 8
PARTS
 10
  4.6000
 20
  0.8000
 30
0.0
 0
SEQEND
 8
PARTS
 0
POLYLINE
 8
PARTS
 66
1
 10
0.0
 20
0.0
 30
0.0
 0
VERTEX
 8
PARTS
 10
  4.6000
 20
  0.8000
 30
0.0
 0
VERTEX
 8
PARTS
 10
  4.5000
 20
  0.9000
 30
0.0
 0
SEQEND
 8
PARTS
 0
TEXT
 8
COMMENTS
 10
  0.1000
 20
  2.9186
 30
0.0
 40
  0.0514
 1
PHASE C VOLTAGE
 0
TEXT
 8
COMMENTS
 10
  5.8000
 20
  1.6186
 30
0.0
 40
  0.0514
 1
PHASE C Voltage
 0
TEXT
 8
COMMENTS
 10
  0.2000
 20
  5.4186
 30
0.0
 40
  0.0514
 1
PHASE C CURRENT
 0
TEXT
 8
COMMENTS
 10
  6.8000
 20
  5.1186
 30
0.0
 40
  0.0514
 1
PHASE C CURRENT
 0
ENDSEC
 0
EOF
