 0
SECTION
 2
HEADER
 9
$ACADVER
 1
AC1009
 0
ENDSEC
 0
SECTION
 2
ENTITIES
 0
POLYLINE
 8
TITLE
 66
1
 70
1
 10
0.0
 20
0.0
 30
0.0
 0
VERTEX
 8
TITLE
 10
 -0.1000
 20
  0.1000
 30
0.0
 0
VERTEX
 8
TITLE
 10
  9.6000
 20
  0.1000
 30
0.0
 0
VERTEX
 8
TITLE
 10
  9.6000
 20
  7.3000
 30
0.0
 0
VERTEX
 8
TITLE
 10
 -0.1000
 20
  7.3000
 30
0.0
 0
SEQEND
 8
TITLE
 0
POLYLINE
 8
TITLE
 66
1
 70
1
 10
0.0
 20
0.0
 30
0.0
 0
VERTEX
 8
TITLE
 10
  0.0000
 20
  0.2000
 30
0.0
 0
VERTEX
 8
TITLE
 10
  9.5000
 20
  0.2000
 30
0.0
 0
VERTEX
 8
TITLE
 10
  9.5000
 20
  7.2000
 30
0.0
 0
VERTEX
 8
TITLE
 10
  0.0000
 20
  7.2000
 30
0.0
 0
SEQEND
 8
TITLE
 0
POLYLINE
 8
TITLE
 66
1
 10
0.0
 20
0.0
 30
0.0
 0
VERTEX
 8
TITLE
 10
  2.0600
 20
  0.2000
 30
0.0
 0
VERTEX
 8
TITLE
 10
  2.0600
 20
  0.1000
 30
0.0
 0
SEQEND
 8
TITLE
 0
POLYLINE
 8
TITLE
 66
1
 10
0.0
 20
0.0
 30
0.0
 0
VERTEX
 8
TITLE
 10
  2.0600
 20
  7.2000
 30
0.0
 0
VERTEX
 8
TITLE
 10
  2.0600
 20
  7.3000
 30
0.0
 0
SEQEND
 8
TITLE
 0
POLYLINE
 8
TITLE
 66
1
 10
0.0
 20
0.0
 30
0.0
 0
VERTEX
 8
TITLE
 10
  3.9200
 20
  0.2000
 30
0.0
 0
VERTEX
 8
TITLE
 10
  3.9200
 20
  0.1000
 30
0.0
 0
SEQEND
 8
TITLE
 0
POLYLINE
 8
TITLE
 66
1
 10
0.0
 20
0.0
 30
0.0
 0
VERTEX
 8
TITLE
 10
  3.9200
 20
  7.2000
 30
0.0
 0
VERTEX
 8
TITLE
 10
  3.9200
 20
  7.3000
 30
0.0
 0
SEQEND
 8
TITLE
 0
POLYLINE
 8
TITLE
 66
1
 10
0.0
 20
0.0
 30
0.0
 0
VERTEX
 8
TITLE
 10
  5.7800
 20
  0.2000
 30
0.0
 0
VERTEX
 8
TITLE
 10
  5.7800
 20
  0.1000
 30
0.0
 0
SEQEND
 8
TITLE
 0
POLYLINE
 8
TITLE
 66
1
 10
0.0
 20
0.0
 30
0.0
 0
VERTEX
 8
TITLE
 10
  5.7800
 20
  7.2000
 30
0.0
 0
VERTEX
 8
TITLE
 10
  5.7800
 20
  7.3000
 30
0.0
 0
SEQEND
 8
TITLE
 0
POLYLINE
 8
TITLE
 66
1
 10
0.0
 20
0.0
 30
0.0
 0
VERTEX
 8
TITLE
 10
  7.6400
 20
  0.2000
 30
0.0
 0
VERTEX
 8
TITLE
 10
  7.6400
 20
  0.1000
 30
0.0
 0
SEQEND
 8
TITLE
 0
POLYLINE
 8
TITLE
 66
1
 10
0.0
 20
0.0
 30
0.0
 0
VERTEX
 8
TITLE
 10
  7.6400
 20
  7.2000
 30
0.0
 0
VERTEX
 8
TITLE
 10
  7.6400
 20
  7.3000
 30
0.0
 0
SEQEND
 8
TITLE
 0
TEXT
 8
TITLE
 10
  1.1300
 20
  0.1200
 30
0.0
 40
  0.0500
 1
5
 0
TEXT
 8
TITLE
 10
  1.1300
 20
  7.2200
 30
0.0
 40
  0.0500
 1
5
 0
TEXT
 8
TITLE
 10
  2.9900
 20
  0.1200
 30
0.0
 40
  0.0500
 1
4
 0
TEXT
 8
TITLE
 10
  2.9900
 20
  7.2200
 30
0.0
 40
  0.0500
 1
4
 0
TEXT
 8
TITLE
 10
  4.8500
 20
  0.1200
 30
0.0
 40
  0.0500
 1
3
 0
TEXT
 8
TITLE
 10
  4.8500
 20
  7.2200
 30
0.0
 40
  0.0500
 1
3
 0
TEXT
 8
TITLE
 10
  6.7100
 20
  0.1200
 30
0.0
 40
  0.0500
 1
2
 0
TEXT
 8
TITLE
 10
  6.7100
 20
  7.2200
 30
0.0
 40
  0.0500
 1
2
 0
TEXT
 8
TITLE
 10
  8.5700
 20
  0.1200
 30
0.0
 40
  0.0500
 1
1
 0
TEXT
 8
TITLE
 10
  8.5700
 20
  7.2200
 30
0.0
 40
  0.0500
 1
1
 0
POLYLINE
 8
TITLE
 66
1
 10
0.0
 20
0.0
 30
0.0
 0
VERTEX
 8
TITLE
 10
 -0.1000
 20
  5.3000
 30
0.0
 0
VERTEX
 8
TITLE
 10
  0.0000
 20
  5.3000
 30
0.0
 0
SEQEND
 8
TITLE
 0
POLYLINE
 8
TITLE
 66
1
 10
0.0
 20
0.0
 30
0.0
 0
VERTEX
 8
TITLE
 10
  9.5000
 20
  5.3000
 30
0.0
 0
VERTEX
 8
TITLE
 10
  9.6000
 20
  5.3000
 30
0.0
 0
SEQEND
 8
TITLE
 0
SOLID
 8
TITLE
 10
  0.0000
 20
  3.6000
 30
0.0
 11
 -0.0500
 21
  3.6200
 31
0.0
 12
 -0.0500
 22
  3.5800
 32
0.0
 13
 -0.0500
 23
  3.6000
 33
0.0
 0
SOLID
 8
TITLE
 10
  9.5000
 20
  3.6000
 30
0.0
 11
  9.5500
 21
  3.6200
 31
0.0
 12
  9.5500
 22
  3.5800
 32
0.0
 13
  9.5500
 23
  3.6000
 33
0.0
 0
POLYLINE
 8
TITLE
 66
1
 10
0.0
 20
0.0
 30
0.0
 0
VERTEX
 8
TITLE
 10
 -0.1000
 20
  3.6000
 30
0.0
 0
VERTEX
 8
TITLE
 10
  0.0000
 20
  3.6000
 30
0.0
 0
SEQEND
 8
TITLE
 0
POLYLINE
 8
TITLE
 66
1
 10
0.0
 20
0.0
 30
0.0
 0
VERTEX
 8
TITLE
 10
  9.5000
 20
  3.6000
 30
0.0
 0
VERTEX
 8
TITLE
 10
  9.6000
 20
  3.6000
 30
0.0
 0
SEQEND
 8
TITLE
 0
SOLID
 8
TITLE
 10
  0.0000
 20
  3.6000
 30
0.0
 11
 -0.0500
 21
  3.6200
 31
0.0
 12
 -0.0500
 22
  3.5800
 32
0.0
 13
 -0.0500
 23
  3.6000
 33
0.0
 0
SOLID
 8
TITLE
 10
  9.5000
 20
  3.6000
 30
0.0
 11
  9.5500
 21
  3.6200
 31
0.0
 12
  9.5500
 22
  3.5800
 32
0.0
 13
  9.5500
 23
  3.6000
 33
0.0
 0
POLYLINE
 8
TITLE
 66
1
 10
0.0
 20
0.0
 30
0.0
 0
VERTEX
 8
TITLE
 10
 -0.1000
 20
  1.9000
 30
0.0
 0
VERTEX
 8
TITLE
 10
  0.0000
 20
  1.9000
 30
0.0
 0
SEQEND
 8
TITLE
 0
POLYLINE
 8
TITLE
 66
1
 10
0.0
 20
0.0
 30
0.0
 0
VERTEX
 8
TITLE
 10
  9.5000
 20
  1.9000
 30
0.0
 0
VERTEX
 8
TITLE
 10
  9.6000
 20
  1.9000
 30
0.0
 0
SEQEND
 8
TITLE
 0
SOLID
 8
TITLE
 10
  0.0000
 20
  3.6000
 30
0.0
 11
 -0.0500
 21
  3.6200
 31
0.0
 12
 -0.0500
 22
  3.5800
 32
0.0
 13
 -0.0500
 23
  3.6000
 33
0.0
 0
SOLID
 8
TITLE
 10
  9.5000
 20
  3.6000
 30
0.0
 11
  9.5500
 21
  3.6200
 31
0.0
 12
  9.5500
 22
  3.5800
 32
0.0
 13
  9.5500
 23
  3.6000
 33
0.0
 0
TEXT
 8
TITLE
 10
 -0.0800
 20
  6.1500
 30
0.0
 40
  0.0500
 1
D
 0
TEXT
 8
TITLE
 10
  9.5200
 20
  6.1500
 30
0.0
 40
  0.0500
 1
D
 0
TEXT
 8
TITLE
 10
 -0.0800
 20
  4.4500
 30
0.0
 40
  0.0500
 1
C
 0
TEXT
 8
TITLE
 10
  9.5200
 20
  4.4500
 30
0.0
 40
  0.0500
 1
C
 0
TEXT
 8
TITLE
 10
 -0.0800
 20
  2.7500
 30
0.0
 40
  0.0500
 1
B
 0
TEXT
 8
TITLE
 10
  9.5200
 20
  2.7500
 30
0.0
 40
  0.0500
 1
B
 0
TEXT
 8
TITLE
 10
 -0.0800
 20
  1.0500
 30
0.0
 40
  0.0500
 1
A
 0
TEXT
 8
TITLE
 10
  9.5200
 20
  1.0500
 30
0.0
 40
  0.0500
 1
A
 0
TEXT
 8
TITLE
 10
  6.3000
 20
  0.4186
 30
0.0
 40
  0.0514
 1
<Doc>
 0
TEXT
 8
TITLE
 10
  9.3000
 20
  0.4186
 30
0.0
 40
  0.0514
 1
<RevCode>
 0
TEXT
 8
TITLE
 10
  6.3000
 20
  0.7186
 30
0.0
 40
  0.0514
 1
<Title>
 0
TEXT
 8
TITLE
 10
  6.0000
 20
  0.4186
 30
0.0
 40
  0.0514
 1
A
 0
TEXT
 8
TITLE
 10
  8.4000
 20
  0.2186
 30
0.0
 40
  0.0514
 1
1
 0
TEXT
 8
TITLE
 10
  9.0000
 20
  0.2186
 30
0.0
 40
  0.0514
 1
1
 0
TEXT
 8
TITLE
 10
  6.4200
 20
  0.2186
 30
0.0
 40
  0.0514
 1
Sunday, October 26, 2014
 0
TEXT
 8
PARTTEXT
 10
  5.9000
 20
  0.8186
 30
0.0
 40
  0.0514
 1
Title
 0
TEXT
 8
PARTTEXT
 10
  5.9000
 20
  0.5186
 30
0.0
 40
  0.0514
 1
Size
 0
TEXT
 8
PARTTEXT
 10
  6.3000
 20
  0.5186
 30
0.0
 40
  0.0514
 1
Document Number
 0
TEXT
 8
PARTTEXT
 10
  9.2000
 20
  0.5186
 30
0.0
 40
  0.0514
 1
Rev
 0
TEXT
 8
PARTTEXT
 10
  5.9000
 20
  0.2186
 30
0.0
 40
  0.0514
 1
Date:
 0
TEXT
 8
PARTTEXT
 10
  7.9000
 20
  0.2186
 30
0.0
 40
  0.0514
 1
Sheet
 0
POLYLINE
 8
TITLE
 66
1
 70
1
 10
0.0
 20
0.0
 30
0.0
 0
VERTEX
 8
TITLE
 10
  5.9000
 20
  1.1000
 30
0.0
 0
VERTEX
 8
TITLE
 10
  9.5000
 20
  1.1000
 30
0.0
 0
VERTEX
 8
TITLE
 10
  9.5000
 20
  0.9000
 30
0.0
 0
VERTEX
 8
TITLE
 10
  5.9000
 20
  0.9000
 30
0.0
 0
SEQEND
 8
TITLE
 0
POLYLINE
 8
TITLE
 66
1
 70
1
 10
0.0
 20
0.0
 30
0.0
 0
VERTEX
 8
TITLE
 10
  5.9000
 20
  0.9000
 30
0.0
 0
VERTEX
 8
TITLE
 10
  9.5000
 20
  0.9000
 30
0.0
 0
VERTEX
 8
TITLE
 10
  9.5000
 20
  0.6000
 30
0.0
 0
VERTEX
 8
TITLE
 10
  5.9000
 20
  0.6000
 30
0.0
 0
SEQEND
 8
TITLE
 0
POLYLINE
 8
TITLE
 66
1
 70
1
 10
0.0
 20
0.0
 30
0.0
 0
VERTEX
 8
TITLE
 10
  5.9000
 20
  0.6000
 30
0.0
 0
VERTEX
 8
TITLE
 10
  6.2000
 20
  0.6000
 30
0.0
 0
VERTEX
 8
TITLE
 10
  6.2000
 20
  0.3000
 30
0.0
 0
VERTEX
 8
TITLE
 10
  5.9000
 20
  0.3000
 30
0.0
 0
SEQEND
 8
TITLE
 0
POLYLINE
 8
TITLE
 66
1
 70
1
 10
0.0
 20
0.0
 30
0.0
 0
VERTEX
 8
TITLE
 10
  6.2000
 20
  0.6000
 30
0.0
 0
VERTEX
 8
TITLE
 10
  9.2000
 20
  0.6000
 30
0.0
 0
VERTEX
 8
TITLE
 10
  9.2000
 20
  0.3000
 30
0.0
 0
VERTEX
 8
TITLE
 10
  6.2000
 20
  0.3000
 30
0.0
 0
SEQEND
 8
TITLE
 0
POLYLINE
 8
TITLE
 66
1
 70
1
 10
0.0
 20
0.0
 30
0.0
 0
VERTEX
 8
TITLE
 10
  9.2000
 20
  0.6000
 30
0.0
 0
VERTEX
 8
TITLE
 10
  9.5000
 20
  0.6000
 30
0.0
 0
VERTEX
 8
TITLE
 10
  9.5000
 20
  0.3000
 30
0.0
 0
VERTEX
 8
TITLE
 10
  9.2000
 20
  0.3000
 30
0.0
 0
SEQEND
 8
TITLE
 0
POLYLINE
 8
TITLE
 66
1
 70
1
 10
0.0
 20
0.0
 30
0.0
 0
VERTEX
 8
TITLE
 10
  5.9000
 20
  0.3000
 30
0.0
 0
VERTEX
 8
TITLE
 10
  7.9000
 20
  0.3000
 30
0.0
 0
VERTEX
 8
TITLE
 10
  7.9000
 20
  0.2000
 30
0.0
 0
VERTEX
 8
TITLE
 10
  5.9000
 20
  0.2000
 30
0.0
 0
SEQEND
 8
TITLE
 0
POLYLINE
 8
TITLE
 66
1
 70
1
 10
0.0
 20
0.0
 30
0.0
 0
VERTEX
 8
TITLE
 10
  7.9000
 20
  0.3000
 30
0.0
 0
VERTEX
 8
TITLE
 10
  9.5000
 20
  0.3000
 30
0.0
 0
VERTEX
 8
TITLE
 10
  9.5000
 20
  0.2000
 30
0.0
 0
VERTEX
 8
TITLE
 10
  7.9000
 20
  0.2000
 30
0.0
 0
SEQEND
 8
TITLE
 0
TEXT
 8
PARTTEXT
 10
  8.7000
 20
  0.2186
 30
0.0
 40
  0.0514
 1
of
 0
TEXT
 8
PARTTEXT
 10
  0.6000
 20
  5.4186
 30
0.0
 40
  0.0514
 1
J5
 0
TEXT
 8
PARTTEXT
 10
  0.6000
 20
  1.6186
 30
0.0
 40
  0.0514
 1
HEADER 32
 0
LINE
 8
PARTS
 10
  1.2000
 20
  5.1000
 30
0.0
 11
  0.9000
 21
  5.1000
 31
0.0
 0
TEXT
 8
PARTS
 10
  0.9600
 20
  5.1300
 30
0.0
 40
  0.0500
 1
1
 0
LINE
 8
PARTS
 10
  1.2000
 20
  5.0000
 30
0.0
 11
  0.9000
 21
  5.0000
 31
0.0
 0
TEXT
 8
PARTS
 10
  0.9600
 20
  5.0300
 30
0.0
 40
  0.0500
 1
2
 0
LINE
 8
PARTS
 10
  1.2000
 20
  4.9000
 30
0.0
 11
  0.9000
 21
  4.9000
 31
0.0
 0
TEXT
 8
PARTS
 10
  0.9600
 20
  4.9300
 30
0.0
 40
  0.0500
 1
3
 0
LINE
 8
PARTS
 10
  1.2000
 20
  4.8000
 30
0.0
 11
  0.9000
 21
  4.8000
 31
0.0
 0
TEXT
 8
PARTS
 10
  0.9600
 20
  4.8300
 30
0.0
 40
  0.0500
 1
4
 0
LINE
 8
PARTS
 10
  1.2000
 20
  4.7000
 30
0.0
 11
  0.9000
 21
  4.7000
 31
0.0
 0
TEXT
 8
PARTS
 10
  0.9600
 20
  4.7300
 30
0.0
 40
  0.0500
 1
5
 0
LINE
 8
PARTS
 10
  1.2000
 20
  4.6000
 30
0.0
 11
  0.9000
 21
  4.6000
 31
0.0
 0
TEXT
 8
PARTS
 10
  0.9600
 20
  4.6300
 30
0.0
 40
  0.0500
 1
6
 0
LINE
 8
PARTS
 10
  1.2000
 20
  4.5000
 30
0.0
 11
  0.9000
 21
  4.5000
 31
0.0
 0
TEXT
 8
PARTS
 10
  0.9600
 20
  4.5300
 30
0.0
 40
  0.0500
 1
7
 0
LINE
 8
PARTS
 10
  1.2000
 20
  4.4000
 30
0.0
 11
  0.9000
 21
  4.4000
 31
0.0
 0
TEXT
 8
PARTS
 10
  0.9600
 20
  4.4300
 30
0.0
 40
  0.0500
 1
8
 0
LINE
 8
PARTS
 10
  1.2000
 20
  4.3000
 30
0.0
 11
  0.9000
 21
  4.3000
 31
0.0
 0
TEXT
 8
PARTS
 10
  0.9600
 20
  4.3300
 30
0.0
 40
  0.0500
 1
9
 0
LINE
 8
PARTS
 10
  1.2000
 20
  4.2000
 30
0.0
 11
  0.9000
 21
  4.2000
 31
0.0
 0
TEXT
 8
PARTS
 10
  0.9600
 20
  4.2300
 30
0.0
 40
  0.0500
 1
10
 0
LINE
 8
PARTS
 10
  1.2000
 20
  4.1000
 30
0.0
 11
  0.9000
 21
  4.1000
 31
0.0
 0
TEXT
 8
PARTS
 10
  0.9600
 20
  4.1300
 30
0.0
 40
  0.0500
 1
11
 0
LINE
 8
PARTS
 10
  1.2000
 20
  4.0000
 30
0.0
 11
  0.9000
 21
  4.0000
 31
0.0
 0
TEXT
 8
PARTS
 10
  0.9600
 20
  4.0300
 30
0.0
 40
  0.0500
 1
12
 0
LINE
 8
PARTS
 10
  1.2000
 20
  3.9000
 30
0.0
 11
  0.9000
 21
  3.9000
 31
0.0
 0
TEXT
 8
PARTS
 10
  0.9600
 20
  3.9300
 30
0.0
 40
  0.0500
 1
13
 0
LINE
 8
PARTS
 10
  1.2000
 20
  3.8000
 30
0.0
 11
  0.9000
 21
  3.8000
 31
0.0
 0
TEXT
 8
PARTS
 10
  0.9600
 20
  3.8300
 30
0.0
 40
  0.0500
 1
14
 0
LINE
 8
PARTS
 10
  1.2000
 20
  3.7000
 30
0.0
 11
  0.9000
 21
  3.7000
 31
0.0
 0
TEXT
 8
PARTS
 10
  0.9600
 20
  3.7300
 30
0.0
 40
  0.0500
 1
15
 0
LINE
 8
PARTS
 10
  1.2000
 20
  3.6000
 30
0.0
 11
  0.9000
 21
  3.6000
 31
0.0
 0
TEXT
 8
PARTS
 10
  0.9600
 20
  3.6300
 30
0.0
 40
  0.0500
 1
16
 0
LINE
 8
PARTS
 10
  1.2000
 20
  3.5000
 30
0.0
 11
  0.9000
 21
  3.5000
 31
0.0
 0
TEXT
 8
PARTS
 10
  0.9600
 20
  3.5300
 30
0.0
 40
  0.0500
 1
17
 0
LINE
 8
PARTS
 10
  1.2000
 20
  3.4000
 30
0.0
 11
  0.9000
 21
  3.4000
 31
0.0
 0
TEXT
 8
PARTS
 10
  0.9600
 20
  3.4300
 30
0.0
 40
  0.0500
 1
18
 0
LINE
 8
PARTS
 10
  1.2000
 20
  3.3000
 30
0.0
 11
  0.9000
 21
  3.3000
 31
0.0
 0
TEXT
 8
PARTS
 10
  0.9600
 20
  3.3300
 30
0.0
 40
  0.0500
 1
19
 0
LINE
 8
PARTS
 10
  1.2000
 20
  3.2000
 30
0.0
 11
  0.9000
 21
  3.2000
 31
0.0
 0
TEXT
 8
PARTS
 10
  0.9600
 20
  3.2300
 30
0.0
 40
  0.0500
 1
20
 0
LINE
 8
PARTS
 10
  1.2000
 20
  3.1000
 30
0.0
 11
  0.9000
 21
  3.1000
 31
0.0
 0
TEXT
 8
PARTS
 10
  0.9600
 20
  3.1300
 30
0.0
 40
  0.0500
 1
21
 0
LINE
 8
PARTS
 10
  1.2000
 20
  3.0000
 30
0.0
 11
  0.9000
 21
  3.0000
 31
0.0
 0
TEXT
 8
PARTS
 10
  0.9600
 20
  3.0300
 30
0.0
 40
  0.0500
 1
22
 0
LINE
 8
PARTS
 10
  1.2000
 20
  2.9000
 30
0.0
 11
  0.9000
 21
  2.9000
 31
0.0
 0
TEXT
 8
PARTS
 10
  0.9600
 20
  2.9300
 30
0.0
 40
  0.0500
 1
23
 0
LINE
 8
PARTS
 10
  1.2000
 20
  2.8000
 30
0.0
 11
  0.9000
 21
  2.8000
 31
0.0
 0
TEXT
 8
PARTS
 10
  0.9600
 20
  2.8300
 30
0.0
 40
  0.0500
 1
24
 0
LINE
 8
PARTS
 10
  1.2000
 20
  2.7000
 30
0.0
 11
  0.9000
 21
  2.7000
 31
0.0
 0
TEXT
 8
PARTS
 10
  0.9600
 20
  2.7300
 30
0.0
 40
  0.0500
 1
25
 0
LINE
 8
PARTS
 10
  1.2000
 20
  2.6000
 30
0.0
 11
  0.9000
 21
  2.6000
 31
0.0
 0
TEXT
 8
PARTS
 10
  0.9600
 20
  2.6300
 30
0.0
 40
  0.0500
 1
26
 0
LINE
 8
PARTS
 10
  1.2000
 20
  2.5000
 30
0.0
 11
  0.9000
 21
  2.5000
 31
0.0
 0
TEXT
 8
PARTS
 10
  0.9600
 20
  2.5300
 30
0.0
 40
  0.0500
 1
27
 0
LINE
 8
PARTS
 10
  1.2000
 20
  2.4000
 30
0.0
 11
  0.9000
 21
  2.4000
 31
0.0
 0
TEXT
 8
PARTS
 10
  0.9600
 20
  2.4300
 30
0.0
 40
  0.0500
 1
28
 0
LINE
 8
PARTS
 10
  1.2000
 20
  2.3000
 30
0.0
 11
  0.9000
 21
  2.3000
 31
0.0
 0
TEXT
 8
PARTS
 10
  0.9600
 20
  2.3300
 30
0.0
 40
  0.0500
 1
29
 0
LINE
 8
PARTS
 10
  1.2000
 20
  2.2000
 30
0.0
 11
  0.9000
 21
  2.2000
 31
0.0
 0
TEXT
 8
PARTS
 10
  0.9600
 20
  2.2300
 30
0.0
 40
  0.0500
 1
30
 0
LINE
 8
PARTS
 10
  1.2000
 20
  2.1000
 30
0.0
 11
  0.9000
 21
  2.1000
 31
0.0
 0
TEXT
 8
PARTS
 10
  0.9600
 20
  2.1300
 30
0.0
 40
  0.0500
 1
31
 0
LINE
 8
PARTS
 10
  1.2000
 20
  2.0000
 30
0.0
 11
  0.9000
 21
  2.0000
 31
0.0
 0
TEXT
 8
PARTS
 10
  0.9600
 20
  2.0300
 30
0.0
 40
  0.0500
 1
32
 0
POLYLINE
 8
PARTS
 66
1
 70
1
 10
0.0
 20
0.0
 30
0.0
 0
VERTEX
 8
PARTS
 10
  0.6000
 20
  5.2000
 30
0.0
 0
VERTEX
 8
PARTS
 10
  0.9000
 20
  5.2000
 30
0.0
 0
VERTEX
 8
PARTS
 10
  0.9000
 20
  1.9000
 30
0.0
 0
VERTEX
 8
PARTS
 10
  0.6000
 20
  1.9000
 30
0.0
 0
SEQEND
 8
PARTS
 0
POLYLINE
 8
PARTS
 66
1
 10
0.0
 20
0.0
 30
0.0
 0
VERTEX
 8
PARTS
 10
  0.8000
 20
  5.2000
 30
0.0
 0
VERTEX
 8
PARTS
 10
  0.8100
 20
  5.2000
 30
0.0
 0
VERTEX
 8
PARTS
 10
  0.8100
 20
  5.2500
 30
0.0
 0
VERTEX
 8
PARTS
 10
  0.6900
 20
  5.2500
 30
0.0
 0
VERTEX
 8
PARTS
 10
  0.6900
 20
  5.2000
 30
0.0
 0
SEQEND
 8
PARTS
 0
POLYLINE
 8
PARTS
 66
1
 10
0.0
 20
0.0
 30
0.0
 0
VERTEX
 8
PARTS
 10
  0.7000
 20
  1.9000
 30
0.0
 0
VERTEX
 8
PARTS
 10
  0.6900
 20
  1.9000
 30
0.0
 0
VERTEX
 8
PARTS
 10
  0.6900
 20
  1.8500
 30
0.0
 0
VERTEX
 8
PARTS
 10
  0.8100
 20
  1.8500
 30
0.0
 0
VERTEX
 8
PARTS
 10
  0.8100
 20
  1.9000
 30
0.0
 0
SEQEND
 8
PARTS
 0
TEXT
 8
PARTTEXT
 10
  3.4000
 20
  2.3586
 30
0.0
 40
  0.0514
 1
TP11
 0
TEXT
 8
PARTTEXT
 10
  3.4000
 20
  2.2386
 30
0.0
 40
  0.0514
 1
EXT_CLK
 0
LINE
 8
PARTS
 10
  3.5000
 20
  2.9000
 30
0.0
 11
  3.5000
 21
  2.6000
 31
0.0
 0
TEXT
 8
PARTS
 10
  3.4700
 20
  2.6600
 30
0.0
 40
  0.0500
 50
 90.0000
 1
1
 0
POLYLINE
 8
PARTS
 66
1
 70
1
 10
0.0
 20
0.0
 30
0.0
 0
VERTEX
 8
PARTS
 10
  3.6000
 20
  2.6000
 30
0.0
 0
VERTEX
 8
PARTS
 10
  3.6000
 20
  2.5000
 30
0.0
 0
VERTEX
 8
PARTS
 10
  3.4000
 20
  2.5000
 30
0.0
 0
VERTEX
 8
PARTS
 10
  3.4000
 20
  2.6000
 30
0.0
 0
SEQEND
 8
PARTS
 0
TEXT
 8
PARTTEXT
 10
  4.0000
 20
  5.2686
 30
0.0
 40
  0.0514
 1
C29
 0
TEXT
 8
PARTTEXT
 10
  4.0000
 20
  4.8586
 30
0.0
 40
  0.0514
 1
20PF
 0
LINE
 8
PARTS
 10
  4.2000
 20
  5.1000
 30
0.0
 11
  4.1000
 21
  5.1000
 31
0.0
 0
LINE
 8
PARTS
 10
  3.9000
 20
  5.1000
 30
0.0
 11
  4.0000
 21
  5.1000
 31
0.0
 0
POLYLINE
 8
PARTS
 66
1
 10
0.0
 20
0.0
 30
0.0
 0
VERTEX
 8
PARTS
 10
  4.1000
 20
  5.1000
 30
0.0
 0
VERTEX
 8
PARTS
 10
  4.0800
 20
  5.1000
 30
0.0
 0
SEQEND
 8
PARTS
 0
POLYLINE
 8
PARTS
 66
1
 10
0.0
 20
0.0
 30
0.0
 0
VERTEX
 8
PARTS
 10
  4.0300
 20
  5.1900
 30
0.0
 0
VERTEX
 8
PARTS
 10
  4.0300
 20
  5.0100
 30
0.0
 0
SEQEND
 8
PARTS
 0
POLYLINE
 8
PARTS
 66
1
 10
0.0
 20
0.0
 30
0.0
 0
VERTEX
 8
PARTS
 10
  4.0800
 20
  5.1900
 30
0.0
 0
VERTEX
 8
PARTS
 10
  4.0800
 20
  5.0100
 30
0.0
 0
SEQEND
 8
PARTS
 0
POLYLINE
 8
PARTS
 66
1
 10
0.0
 20
0.0
 30
0.0
 0
VERTEX
 8
PARTS
 10
  4.0000
 20
  5.1000
 30
0.0
 0
VERTEX
 8
PARTS
 10
  4.0300
 20
  5.1000
 30
0.0
 0
SEQEND
 8
PARTS
 0
TEXT
 8
PARTTEXT
 10
  4.3000
 20
  3.9686
 30
0.0
 40
  0.0514
 1
J6
 0
TEXT
 8
PARTTEXT
 10
  4.3000
 20
  3.1586
 30
0.0
 40
  0.0514
 1
HEADER 3
 0
LINE
 8
PARTS
 10
  4.0000
 20
  3.5000
 30
0.0
 11
  4.3000
 21
  3.5000
 31
0.0
 0
TEXT
 8
PARTS
 10
  4.2000
 20
  3.5300
 30
0.0
 40
  0.0500
 1
1
 0
LINE
 8
PARTS
 10
  4.0000
 20
  3.6000
 30
0.0
 11
  4.3000
 21
  3.6000
 31
0.0
 0
TEXT
 8
PARTS
 10
  4.2000
 20
  3.6300
 30
0.0
 40
  0.0500
 1
2
 0
LINE
 8
PARTS
 10
  4.0000
 20
  3.7000
 30
0.0
 11
  4.3000
 21
  3.7000
 31
0.0
 0
TEXT
 8
PARTS
 10
  4.2000
 20
  3.7300
 30
0.0
 40
  0.0500
 1
3
 0
POLYLINE
 8
PARTS
 66
1
 70
1
 10
0.0
 20
0.0
 30
0.0
 0
VERTEX
 8
PARTS
 10
  4.6000
 20
  3.4000
 30
0.0
 0
VERTEX
 8
PARTS
 10
  4.3000
 20
  3.4000
 30
0.0
 0
VERTEX
 8
PARTS
 10
  4.3000
 20
  3.8000
 30
0.0
 0
VERTEX
 8
PARTS
 10
  4.6000
 20
  3.8000
 30
0.0
 0
SEQEND
 8
PARTS
 0
POLYLINE
 8
PARTS
 66
1
 10
0.0
 20
0.0
 30
0.0
 0
VERTEX
 8
PARTS
 10
  4.4000
 20
  3.4000
 30
0.0
 0
VERTEX
 8
PARTS
 10
  4.3900
 20
  3.4000
 30
0.0
 0
VERTEX
 8
PARTS
 10
  4.3900
 20
  3.3500
 30
0.0
 0
VERTEX
 8
PARTS
 10
  4.5100
 20
  3.3500
 30
0.0
 0
VERTEX
 8
PARTS
 10
  4.5100
 20
  3.4000
 30
0.0
 0
SEQEND
 8
PARTS
 0
POLYLINE
 8
PARTS
 66
1
 10
0.0
 20
0.0
 30
0.0
 0
VERTEX
 8
PARTS
 10
  4.5000
 20
  3.8000
 30
0.0
 0
VERTEX
 8
PARTS
 10
  4.5100
 20
  3.8000
 30
0.0
 0
VERTEX
 8
PARTS
 10
  4.5100
 20
  3.8500
 30
0.0
 0
VERTEX
 8
PARTS
 10
  4.3900
 20
  3.8500
 30
0.0
 0
VERTEX
 8
PARTS
 10
  4.3900
 20
  3.8000
 30
0.0
 0
SEQEND
 8
PARTS
 0
TEXT
 8
PARTTEXT
 10
  4.7600
 20
  1.9186
 30
0.0
 40
  0.0514
 1
C31
 0
TEXT
 8
PARTTEXT
 10
  4.7600
 20
  1.7986
 30
0.0
 40
  0.0514
 1
TBD0805
 0
LINE
 8
PARTS
 10
  4.6000
 20
  2.1000
 30
0.0
 11
  4.6000
 21
  2.0000
 31
0.0
 0
LINE
 8
PARTS
 10
  4.6000
 20
  1.8000
 30
0.0
 11
  4.6000
 21
  1.9000
 31
0.0
 0
POLYLINE
 8
PARTS
 66
1
 10
0.0
 20
0.0
 30
0.0
 0
VERTEX
 8
PARTS
 10
  4.6000
 20
  2.0000
 30
0.0
 0
VERTEX
 8
PARTS
 10
  4.6000
 20
  1.9800
 30
0.0
 0
SEQEND
 8
PARTS
 0
POLYLINE
 8
PARTS
 66
1
 10
0.0
 20
0.0
 30
0.0
 0
VERTEX
 8
PARTS
 10
  4.5100
 20
  1.9300
 30
0.0
 0
VERTEX
 8
PARTS
 10
  4.6900
 20
  1.9300
 30
0.0
 0
SEQEND
 8
PARTS
 0
POLYLINE
 8
PARTS
 66
1
 10
0.0
 20
0.0
 30
0.0
 0
VERTEX
 8
PARTS
 10
  4.5100
 20
  1.9800
 30
0.0
 0
VERTEX
 8
PARTS
 10
  4.6900
 20
  1.9800
 30
0.0
 0
SEQEND
 8
PARTS
 0
POLYLINE
 8
PARTS
 66
1
 10
0.0
 20
0.0
 30
0.0
 0
VERTEX
 8
PARTS
 10
  4.6000
 20
  1.9000
 30
0.0
 0
VERTEX
 8
PARTS
 10
  4.6000
 20
  1.9300
 30
0.0
 0
SEQEND
 8
PARTS
 0
TEXT
 8
PARTTEXT
 10
  4.7000
 20
  2.7186
 30
0.0
 40
  0.0514
 1
R35
 0
TEXT
 8
PARTTEXT
 10
  4.7000
 20
  2.6186
 30
0.0
 40
  0.0514
 1
TBD0805
 0
LINE
 8
PARTS
 10
  4.6000
 20
  2.9000
 30
0.0
 11
  4.6000
 21
  2.8000
 31
0.0
 0
LINE
 8
PARTS
 10
  4.6000
 20
  2.4000
 30
0.0
 11
  4.6000
 21
  2.5000
 31
0.0
 0
POLYLINE
 8
PARTS
 66
1
 10
0.0
 20
0.0
 30
0.0
 0
VERTEX
 8
PARTS
 10
  4.6000
 20
  2.8000
 30
0.0
 0
VERTEX
 8
PARTS
 10
  4.6300
 20
  2.7700
 30
0.0
 0
SEQEND
 8
PARTS
 0
POLYLINE
 8
PARTS
 66
1
 10
0.0
 20
0.0
 30
0.0
 0
VERTEX
 8
PARTS
 10
  4.6300
 20
  2.7700
 30
0.0
 0
VERTEX
 8
PARTS
 10
  4.5700
 20
  2.7100
 30
0.0
 0
SEQEND
 8
PARTS
 0
POLYLINE
 8
PARTS
 66
1
 10
0.0
 20
0.0
 30
0.0
 0
VERTEX
 8
PARTS
 10
  4.5700
 20
  2.7100
 30
0.0
 0
VERTEX
 8
PARTS
 10
  4.6300
 20
  2.6500
 30
0.0
 0
SEQEND
 8
PARTS
 0
POLYLINE
 8
PARTS
 66
1
 10
0.0
 20
0.0
 30
0.0
 0
VERTEX
 8
PARTS
 10
  4.6300
 20
  2.6500
 30
0.0
 0
VERTEX
 8
PARTS
 10
  4.5700
 20
  2.5900
 30
0.0
 0
SEQEND
 8
PARTS
 0
POLYLINE
 8
PARTS
 66
1
 10
0.0
 20
0.0
 30
0.0
 0
VERTEX
 8
PARTS
 10
  4.5700
 20
  2.5900
 30
0.0
 0
VERTEX
 8
PARTS
 10
  4.6300
 20
  2.5300
 30
0.0
 0
SEQEND
 8
PARTS
 0
POLYLINE
 8
PARTS
 66
1
 10
0.0
 20
0.0
 30
0.0
 0
VERTEX
 8
PARTS
 10
  4.6300
 20
  2.5300
 30
0.0
 0
VERTEX
 8
PARTS
 10
  4.6000
 20
  2.5000
 30
0.0
 0
SEQEND
 8
PARTS
 0
TEXT
 8
PARTTEXT
 10
  3.6600
 20
  4.7186
 30
0.0
 40
  0.0514
 1
Y1
 0
TEXT
 8
PARTTEXT
 10
  3.6600
 20
  4.5986
 30
0.0
 40
  0.0514
 1
16.384MHz
 0
LINE
 8
PARTS
 10
  3.5000
 20
  4.5000
 30
0.0
 11
  3.5000
 21
  4.6000
 31
0.0
 0
LINE
 8
PARTS
 10
  3.5000
 20
  4.9000
 30
0.0
 11
  3.5000
 21
  4.8000
 31
0.0
 0
POLYLINE
 8
PARTS
 66
1
 10
0.0
 20
0.0
 30
0.0
 0
VERTEX
 8
PARTS
 10
  3.4500
 20
  4.6000
 30
0.0
 0
VERTEX
 8
PARTS
 10
  3.5500
 20
  4.6000
 30
0.0
 0
SEQEND
 8
PARTS
 0
POLYLINE
 8
PARTS
 66
1
 10
0.0
 20
0.0
 30
0.0
 0
VERTEX
 8
PARTS
 10
  3.4000
 20
  4.6400
 30
0.0
 0
VERTEX
 8
PARTS
 10
  3.6000
 20
  4.6400
 30
0.0
 0
SEQEND
 8
PARTS
 0
POLYLINE
 8
PARTS
 66
1
 10
0.0
 20
0.0
 30
0.0
 0
VERTEX
 8
PARTS
 10
  3.6000
 20
  4.6400
 30
0.0
 0
VERTEX
 8
PARTS
 10
  3.6000
 20
  4.7600
 30
0.0
 0
SEQEND
 8
PARTS
 0
POLYLINE
 8
PARTS
 66
1
 10
0.0
 20
0.0
 30
0.0
 0
VERTEX
 8
PARTS
 10
  3.6000
 20
  4.7600
 30
0.0
 0
VERTEX
 8
PARTS
 10
  3.4000
 20
  4.7600
 30
0.0
 0
SEQEND
 8
PARTS
 0
POLYLINE
 8
PARTS
 66
1
 10
0.0
 20
0.0
 30
0.0
 0
VERTEX
 8
PARTS
 10
  3.4000
 20
  4.7600
 30
0.0
 0
VERTEX
 8
PARTS
 10
  3.4000
 20
  4.6400
 30
0.0
 0
SEQEND
 8
PARTS
 0
POLYLINE
 8
PARTS
 66
1
 10
0.0
 20
0.0
 30
0.0
 0
VERTEX
 8
PARTS
 10
  3.4500
 20
  4.8000
 30
0.0
 0
VERTEX
 8
PARTS
 10
  3.5500
 20
  4.8000
 30
0.0
 0
SEQEND
 8
PARTS
 0
TEXT
 8
PARTTEXT
 10
  3.9000
 20
  2.3586
 30
0.0
 40
  0.0514
 1
TP12
 0
TEXT
 8
PARTTEXT
 10
  3.9000
 20
  2.2386
 30
0.0
 40
  0.0514
 1
EXT_CLK
 0
LINE
 8
PARTS
 10
  4.0000
 20
  2.9000
 30
0.0
 11
  4.0000
 21
  2.6000
 31
0.0
 0
TEXT
 8
PARTS
 10
  3.9700
 20
  2.6600
 30
0.0
 40
  0.0500
 50
 90.0000
 1
1
 0
POLYLINE
 8
PARTS
 66
1
 70
1
 10
0.0
 20
0.0
 30
0.0
 0
VERTEX
 8
PARTS
 10
  4.1000
 20
  2.6000
 30
0.0
 0
VERTEX
 8
PARTS
 10
  4.1000
 20
  2.5000
 30
0.0
 0
VERTEX
 8
PARTS
 10
  3.9000
 20
  2.5000
 30
0.0
 0
VERTEX
 8
PARTS
 10
  3.9000
 20
  2.6000
 30
0.0
 0
SEQEND
 8
PARTS
 0
TEXT
 8
PARTTEXT
 10
  4.0000
 20
  4.4686
 30
0.0
 40
  0.0514
 1
C30
 0
TEXT
 8
PARTTEXT
 10
  4.0000
 20
  4.0586
 30
0.0
 40
  0.0514
 1
20PF
 0
LINE
 8
PARTS
 10
  4.2000
 20
  4.3000
 30
0.0
 11
  4.1000
 21
  4.3000
 31
0.0
 0
LINE
 8
PARTS
 10
  3.9000
 20
  4.3000
 30
0.0
 11
  4.0000
 21
  4.3000
 31
0.0
 0
POLYLINE
 8
PARTS
 66
1
 10
0.0
 20
0.0
 30
0.0
 0
VERTEX
 8
PARTS
 10
  4.1000
 20
  4.3000
 30
0.0
 0
VERTEX
 8
PARTS
 10
  4.0800
 20
  4.3000
 30
0.0
 0
SEQEND
 8
PARTS
 0
POLYLINE
 8
PARTS
 66
1
 10
0.0
 20
0.0
 30
0.0
 0
VERTEX
 8
PARTS
 10
  4.0300
 20
  4.3900
 30
0.0
 0
VERTEX
 8
PARTS
 10
  4.0300
 20
  4.2100
 30
0.0
 0
SEQEND
 8
PARTS
 0
POLYLINE
 8
PARTS
 66
1
 10
0.0
 20
0.0
 30
0.0
 0
VERTEX
 8
PARTS
 10
  4.0800
 20
  4.3900
 30
0.0
 0
VERTEX
 8
PARTS
 10
  4.0800
 20
  4.2100
 30
0.0
 0
SEQEND
 8
PARTS
 0
POLYLINE
 8
PARTS
 66
1
 10
0.0
 20
0.0
 30
0.0
 0
VERTEX
 8
PARTS
 10
  4.0000
 20
  4.3000
 30
0.0
 0
VERTEX
 8
PARTS
 10
  4.0300
 20
  4.3000
 30
0.0
 0
SEQEND
 8
PARTS
 0
POLYLINE
 8
WIRE
 66
1
 10
0.0
 20
0.0
 30
0.0
 0
VERTEX
 8
WIRE
 10
  1.8000
 20
  5.1000
 30
0.0
 0
VERTEX
 8
WIRE
 10
  1.2000
 20
  5.1000
 30
0.0
 0
SEQEND
 8
WIRE
 0
TEXT
 8
WIRETEXT
 10
  1.3000
 20
  5.1300
 30
0.0
 40
  0.0514
 1
MOSI/SDA
 0
POLYLINE
 8
WIRE
 66
1
 10
0.0
 20
0.0
 30
0.0
 0
VERTEX
 8
WIRE
 10
  1.8000
 20
  4.9000
 30
0.0
 0
VERTEX
 8
WIRE
 10
  1.2000
 20
  4.9000
 30
0.0
 0
SEQEND
 8
WIRE
 0
TEXT
 8
WIRETEXT
 10
  1.3000
 20
  4.9300
 30
0.0
 40
  0.0514
 1
SCLK/SCL
 0
POLYLINE
 8
WIRE
 66
1
 10
0.0
 20
0.0
 30
0.0
 0
VERTEX
 8
WIRE
 10
  1.8000
 20
  4.7000
 30
0.0
 0
VERTEX
 8
WIRE
 10
  1.2000
 20
  4.7000
 30
0.0
 0
SEQEND
 8
WIRE
 0
TEXT
 8
WIRETEXT
 10
  1.3000
 20
  4.7300
 30
0.0
 40
  0.0514
 1
~SS/HSA
 0
POLYLINE
 8
WIRE
 66
1
 10
0.0
 20
0.0
 30
0.0
 0
VERTEX
 8
WIRE
 10
  1.8000
 20
  4.5000
 30
0.0
 0
VERTEX
 8
WIRE
 10
  1.2000
 20
  4.5000
 30
0.0
 0
SEQEND
 8
WIRE
 0
TEXT
 8
WIRETEXT
 10
  1.3000
 20
  4.5300
 30
0.0
 40
  0.0514
 1
MISO/HSD
 0
POLYLINE
 8
WIRE
 66
1
 10
0.0
 20
0.0
 30
0.0
 0
VERTEX
 8
WIRE
 10
  1.8000
 20
  4.3000
 30
0.0
 0
VERTEX
 8
WIRE
 10
  1.2000
 20
  4.3000
 30
0.0
 0
SEQEND
 8
WIRE
 0
TEXT
 8
WIRETEXT
 10
  1.3000
 20
  4.3300
 30
0.0
 40
  0.0514
 1
CF3/HSCLK
 0
POLYLINE
 8
WIRE
 66
1
 10
0.0
 20
0.0
 30
0.0
 0
VERTEX
 8
WIRE
 10
  1.8000
 20
  4.1000
 30
0.0
 0
VERTEX
 8
WIRE
 10
  1.2000
 20
  4.1000
 30
0.0
 0
SEQEND
 8
WIRE
 0
TEXT
 8
WIRETEXT
 10
  1.3000
 20
  4.1300
 30
0.0
 40
  0.0514
 1
CF2/HREADY
 0
POLYLINE
 8
WIRE
 66
1
 10
0.0
 20
0.0
 30
0.0
 0
VERTEX
 8
WIRE
 10
  1.8000
 20
  3.9000
 30
0.0
 0
VERTEX
 8
WIRE
 10
  1.2000
 20
  3.9000
 30
0.0
 0
SEQEND
 8
WIRE
 0
TEXT
 8
WIRETEXT
 10
  1.4000
 20
  3.9300
 30
0.0
 40
  0.0514
 1
CF1
 0
POLYLINE
 8
WIRE
 66
1
 10
0.0
 20
0.0
 30
0.0
 0
VERTEX
 8
WIRE
 10
  1.8000
 20
  3.7000
 30
0.0
 0
VERTEX
 8
WIRE
 10
  1.2000
 20
  3.7000
 30
0.0
 0
SEQEND
 8
WIRE
 0
TEXT
 8
WIRETEXT
 10
  1.3000
 20
  3.7300
 30
0.0
 40
  0.0514
 1
~IRQ1
 0
POLYLINE
 8
WIRE
 66
1
 10
0.0
 20
0.0
 30
0.0
 0
VERTEX
 8
WIRE
 10
  1.8000
 20
  3.5000
 30
0.0
 0
VERTEX
 8
WIRE
 10
  1.2000
 20
  3.5000
 30
0.0
 0
SEQEND
 8
WIRE
 0
TEXT
 8
WIRETEXT
 10
  1.3000
 20
  3.5300
 30
0.0
 40
  0.0514
 1
~IRQ0
 0
POLYLINE
 8
WIRE
 66
1
 10
0.0
 20
0.0
 30
0.0
 0
VERTEX
 8
WIRE
 10
  1.8000
 20
  3.3000
 30
0.0
 0
VERTEX
 8
WIRE
 10
  1.2000
 20
  3.3000
 30
0.0
 0
SEQEND
 8
WIRE
 0
TEXT
 8
WIRETEXT
 10
  1.3000
 20
  3.3300
 30
0.0
 40
  0.0514
 1
~RESET
 0
POLYLINE
 8
WIRE
 66
1
 10
0.0
 20
0.0
 30
0.0
 0
VERTEX
 8
WIRE
 10
  1.8000
 20
  3.1000
 30
0.0
 0
VERTEX
 8
WIRE
 10
  1.2000
 20
  3.1000
 30
0.0
 0
SEQEND
 8
WIRE
 0
TEXT
 8
WIRETEXT
 10
  1.4000
 20
  3.1300
 30
0.0
 40
  0.0514
 1
PM1
 0
POLYLINE
 8
WIRE
 66
1
 10
0.0
 20
0.0
 30
0.0
 0
VERTEX
 8
WIRE
 10
  1.8000
 20
  2.9000
 30
0.0
 0
VERTEX
 8
WIRE
 10
  1.2000
 20
  2.9000
 30
0.0
 0
SEQEND
 8
WIRE
 0
TEXT
 8
WIRETEXT
 10
  1.4000
 20
  2.9300
 30
0.0
 40
  0.0514
 1
PM0
 0
POLYLINE
 8
WIRE
 66
1
 10
0.0
 20
0.0
 30
0.0
 0
VERTEX
 8
WIRE
 10
  1.8000
 20
  2.7000
 30
0.0
 0
VERTEX
 8
WIRE
 10
  1.2000
 20
  2.7000
 30
0.0
 0
SEQEND
 8
WIRE
 0
TEXT
 8
WIRETEXT
 10
  1.3000
 20
  2.7300
 30
0.0
 40
  0.0514
 1
EXT_CLKIN
 0
POLYLINE
 8
WIRE
 66
1
 10
0.0
 20
0.0
 30
0.0
 0
VERTEX
 8
WIRE
 10
  1.8000
 20
  2.5000
 30
0.0
 0
VERTEX
 8
WIRE
 10
  1.2000
 20
  2.5000
 30
0.0
 0
SEQEND
 8
WIRE
 0
TEXT
 8
WIRETEXT
 10
  1.3000
 20
  2.5300
 30
0.0
 40
  0.0514
 1
CLKOUT
 0
POLYLINE
 8
WIRE
 66
1
 10
0.0
 20
0.0
 30
0.0
 0
VERTEX
 8
WIRE
 10
  2.1000
 20
  2.3000
 30
0.0
 0
VERTEX
 8
WIRE
 10
  1.2000
 20
  2.3000
 30
0.0
 0
SEQEND
 8
WIRE
 0
POLYLINE
 8
WIRE
 66
1
 70
1
 10
0.0
 20
0.0
 30
0.0
 40
  0.0200
 41
  0.0200
 0
VERTEX
 8
WIRE
 10
  2.0900
 20
  2.3000
 30
0.0
 42
1.0
 0
VERTEX
 8
WIRE
 10
  2.1100
 20
  2.3000
 30
0.0
 42
1.0
 0
SEQEND
 8
WIRE
 0
POLYLINE
 8
WIRE
 66
1
 10
0.0
 20
0.0
 30
0.0
 0
VERTEX
 8
WIRE
 10
  2.1000
 20
  2.1000
 30
0.0
 0
VERTEX
 8
WIRE
 10
  1.2000
 20
  2.1000
 30
0.0
 0
SEQEND
 8
WIRE
 0
POLYLINE
 8
WIRE
 66
1
 10
0.0
 20
0.0
 30
0.0
 0
VERTEX
 8
WIRE
 10
  2.1000
 20
  2.4000
 30
0.0
 0
VERTEX
 8
WIRE
 10
  1.2000
 20
  2.4000
 30
0.0
 0
SEQEND
 8
WIRE
 0
POLYLINE
 8
WIRE
 66
1
 70
1
 10
0.0
 20
0.0
 30
0.0
 40
  0.0200
 41
  0.0200
 0
VERTEX
 8
WIRE
 10
  2.0900
 20
  2.4000
 30
0.0
 42
1.0
 0
VERTEX
 8
WIRE
 10
  2.1100
 20
  2.4000
 30
0.0
 42
1.0
 0
SEQEND
 8
WIRE
 0
POLYLINE
 8
WIRE
 66
1
 10
0.0
 20
0.0
 30
0.0
 0
VERTEX
 8
WIRE
 10
  2.1000
 20
  2.3000
 30
0.0
 0
VERTEX
 8
WIRE
 10
  2.1000
 20
  2.4000
 30
0.0
 0
SEQEND
 8
WIRE
 0
POLYLINE
 8
WIRE
 66
1
 10
0.0
 20
0.0
 30
0.0
 0
VERTEX
 8
WIRE
 10
  2.1000
 20
  2.2000
 30
0.0
 0
VERTEX
 8
WIRE
 10
  1.2000
 20
  2.2000
 30
0.0
 0
SEQEND
 8
WIRE
 0
POLYLINE
 8
WIRE
 66
1
 70
1
 10
0.0
 20
0.0
 30
0.0
 40
  0.0200
 41
  0.0200
 0
VERTEX
 8
WIRE
 10
  2.0900
 20
  2.2000
 30
0.0
 42
1.0
 0
VERTEX
 8
WIRE
 10
  2.1100
 20
  2.2000
 30
0.0
 42
1.0
 0
SEQEND
 8
WIRE
 0
POLYLINE
 8
WIRE
 66
1
 10
0.0
 20
0.0
 30
0.0
 0
VERTEX
 8
WIRE
 10
  2.1000
 20
  2.1000
 30
0.0
 0
VERTEX
 8
WIRE
 10
  2.1000
 20
  2.2000
 30
0.0
 0
SEQEND
 8
WIRE
 0
POLYLINE
 8
WIRE
 66
1
 10
0.0
 20
0.0
 30
0.0
 0
VERTEX
 8
WIRE
 10
  2.1000
 20
  2.0000
 30
0.0
 0
VERTEX
 8
WIRE
 10
  1.2000
 20
  2.0000
 30
0.0
 0
SEQEND
 8
WIRE
 0
POLYLINE
 8
WIRE
 66
1
 10
0.0
 20
0.0
 30
0.0
 0
VERTEX
 8
WIRE
 10
  2.1000
 20
  1.8000
 30
0.0
 0
VERTEX
 8
WIRE
 10
  2.1000
 20
  2.0000
 30
0.0
 0
SEQEND
 8
WIRE
 0
POLYLINE
 8
WIRE
 66
1
 70
1
 10
0.0
 20
0.0
 30
0.0
 40
  0.0200
 41
  0.0200
 0
VERTEX
 8
WIRE
 10
  2.0900
 20
  2.0000
 30
0.0
 42
1.0
 0
VERTEX
 8
WIRE
 10
  2.1100
 20
  2.0000
 30
0.0
 42
1.0
 0
SEQEND
 8
WIRE
 0
POLYLINE
 8
WIRE
 66
1
 10
0.0
 20
0.0
 30
0.0
 0
VERTEX
 8
WIRE
 10
  2.1000
 20
  2.6000
 30
0.0
 0
VERTEX
 8
WIRE
 10
  1.2000
 20
  2.6000
 30
0.0
 0
SEQEND
 8
WIRE
 0
POLYLINE
 8
WIRE
 66
1
 10
0.0
 20
0.0
 30
0.0
 0
VERTEX
 8
WIRE
 10
  2.1000
 20
  2.8000
 30
0.0
 0
VERTEX
 8
WIRE
 10
  1.2000
 20
  2.8000
 30
0.0
 0
SEQEND
 8
WIRE
 0
POLYLINE
 8
WIRE
 66
1
 70
1
 10
0.0
 20
0.0
 30
0.0
 40
  0.0200
 41
  0.0200
 0
VERTEX
 8
WIRE
 10
  2.0900
 20
  2.8000
 30
0.0
 42
1.0
 0
VERTEX
 8
WIRE
 10
  2.1100
 20
  2.8000
 30
0.0
 42
1.0
 0
SEQEND
 8
WIRE
 0
POLYLINE
 8
WIRE
 66
1
 10
0.0
 20
0.0
 30
0.0
 0
VERTEX
 8
WIRE
 10
  2.1000
 20
  2.6000
 30
0.0
 0
VERTEX
 8
WIRE
 10
  2.1000
 20
  2.8000
 30
0.0
 0
SEQEND
 8
WIRE
 0
POLYLINE
 8
WIRE
 66
1
 70
1
 10
0.0
 20
0.0
 30
0.0
 40
  0.0200
 41
  0.0200
 0
VERTEX
 8
WIRE
 10
  2.0900
 20
  2.6000
 30
0.0
 42
1.0
 0
VERTEX
 8
WIRE
 10
  2.1100
 20
  2.6000
 30
0.0
 42
1.0
 0
SEQEND
 8
WIRE
 0
POLYLINE
 8
WIRE
 66
1
 10
0.0
 20
0.0
 30
0.0
 0
VERTEX
 8
WIRE
 10
  2.1000
 20
  3.0000
 30
0.0
 0
VERTEX
 8
WIRE
 10
  1.2000
 20
  3.0000
 30
0.0
 0
SEQEND
 8
WIRE
 0
POLYLINE
 8
WIRE
 66
1
 10
0.0
 20
0.0
 30
0.0
 0
VERTEX
 8
WIRE
 10
  2.1000
 20
  3.2000
 30
0.0
 0
VERTEX
 8
WIRE
 10
  1.2000
 20
  3.2000
 30
0.0
 0
SEQEND
 8
WIRE
 0
POLYLINE
 8
WIRE
 66
1
 70
1
 10
0.0
 20
0.0
 30
0.0
 40
  0.0200
 41
  0.0200
 0
VERTEX
 8
WIRE
 10
  2.0900
 20
  3.2000
 30
0.0
 42
1.0
 0
VERTEX
 8
WIRE
 10
  2.1100
 20
  3.2000
 30
0.0
 42
1.0
 0
SEQEND
 8
WIRE
 0
POLYLINE
 8
WIRE
 66
1
 10
0.0
 20
0.0
 30
0.0
 0
VERTEX
 8
WIRE
 10
  2.1000
 20
  3.0000
 30
0.0
 0
VERTEX
 8
WIRE
 10
  2.1000
 20
  3.2000
 30
0.0
 0
SEQEND
 8
WIRE
 0
POLYLINE
 8
WIRE
 66
1
 70
1
 10
0.0
 20
0.0
 30
0.0
 40
  0.0200
 41
  0.0200
 0
VERTEX
 8
WIRE
 10
  2.0900
 20
  3.0000
 30
0.0
 42
1.0
 0
VERTEX
 8
WIRE
 10
  2.1100
 20
  3.0000
 30
0.0
 42
1.0
 0
SEQEND
 8
WIRE
 0
POLYLINE
 8
WIRE
 66
1
 10
0.0
 20
0.0
 30
0.0
 0
VERTEX
 8
WIRE
 10
  2.1000
 20
  3.4000
 30
0.0
 0
VERTEX
 8
WIRE
 10
  1.2000
 20
  3.4000
 30
0.0
 0
SEQEND
 8
WIRE
 0
POLYLINE
 8
WIRE
 66
1
 10
0.0
 20
0.0
 30
0.0
 0
VERTEX
 8
WIRE
 10
  2.1000
 20
  3.6000
 30
0.0
 0
VERTEX
 8
WIRE
 10
  1.2000
 20
  3.6000
 30
0.0
 0
SEQEND
 8
WIRE
 0
POLYLINE
 8
WIRE
 66
1
 10
0.0
 20
0.0
 30
0.0
 0
VERTEX
 8
WIRE
 10
  2.1000
 20
  3.8000
 30
0.0
 0
VERTEX
 8
WIRE
 10
  1.2000
 20
  3.8000
 30
0.0
 0
SEQEND
 8
WIRE
 0
POLYLINE
 8
WIRE
 66
1
 10
0.0
 20
0.0
 30
0.0
 0
VERTEX
 8
WIRE
 10
  2.1000
 20
  4.0000
 30
0.0
 0
VERTEX
 8
WIRE
 10
  1.2000
 20
  4.0000
 30
0.0
 0
SEQEND
 8
WIRE
 0
POLYLINE
 8
WIRE
 66
1
 10
0.0
 20
0.0
 30
0.0
 0
VERTEX
 8
WIRE
 10
  2.1000
 20
  4.2000
 30
0.0
 0
VERTEX
 8
WIRE
 10
  1.2000
 20
  4.2000
 30
0.0
 0
SEQEND
 8
WIRE
 0
POLYLINE
 8
WIRE
 66
1
 10
0.0
 20
0.0
 30
0.0
 0
VERTEX
 8
WIRE
 10
  2.1000
 20
  4.4000
 30
0.0
 0
VERTEX
 8
WIRE
 10
  1.2000
 20
  4.4000
 30
0.0
 0
SEQEND
 8
WIRE
 0
POLYLINE
 8
WIRE
 66
1
 70
1
 10
0.0
 20
0.0
 30
0.0
 40
  0.0200
 41
  0.0200
 0
VERTEX
 8
WIRE
 10
  2.0900
 20
  4.4000
 30
0.0
 42
1.0
 0
VERTEX
 8
WIRE
 10
  2.1100
 20
  4.4000
 30
0.0
 42
1.0
 0
SEQEND
 8
WIRE
 0
POLYLINE
 8
WIRE
 66
1
 10
0.0
 20
0.0
 30
0.0
 0
VERTEX
 8
WIRE
 10
  2.1000
 20
  4.6000
 30
0.0
 0
VERTEX
 8
WIRE
 10
  1.2000
 20
  4.6000
 30
0.0
 0
SEQEND
 8
WIRE
 0
POLYLINE
 8
WIRE
 66
1
 10
0.0
 20
0.0
 30
0.0
 0
VERTEX
 8
WIRE
 10
  2.1000
 20
  4.8000
 30
0.0
 0
VERTEX
 8
WIRE
 10
  1.2000
 20
  4.8000
 30
0.0
 0
SEQEND
 8
WIRE
 0
POLYLINE
 8
WIRE
 66
1
 70
1
 10
0.0
 20
0.0
 30
0.0
 40
  0.0200
 41
  0.0200
 0
VERTEX
 8
WIRE
 10
  2.0900
 20
  4.8000
 30
0.0
 42
1.0
 0
VERTEX
 8
WIRE
 10
  2.1100
 20
  4.8000
 30
0.0
 42
1.0
 0
SEQEND
 8
WIRE
 0
POLYLINE
 8
WIRE
 66
1
 10
0.0
 20
0.0
 30
0.0
 0
VERTEX
 8
WIRE
 10
  2.1000
 20
  5.0000
 30
0.0
 0
VERTEX
 8
WIRE
 10
  1.2000
 20
  5.0000
 30
0.0
 0
SEQEND
 8
WIRE
 0
POLYLINE
 8
WIRE
 66
1
 10
0.0
 20
0.0
 30
0.0
 0
VERTEX
 8
WIRE
 10
  2.1000
 20
  3.4000
 30
0.0
 0
VERTEX
 8
WIRE
 10
  2.1000
 20
  3.6000
 30
0.0
 0
SEQEND
 8
WIRE
 0
POLYLINE
 8
WIRE
 66
1
 70
1
 10
0.0
 20
0.0
 30
0.0
 40
  0.0200
 41
  0.0200
 0
VERTEX
 8
WIRE
 10
  2.0900
 20
  3.4000
 30
0.0
 42
1.0
 0
VERTEX
 8
WIRE
 10
  2.1100
 20
  3.4000
 30
0.0
 42
1.0
 0
SEQEND
 8
WIRE
 0
POLYLINE
 8
WIRE
 66
1
 70
1
 10
0.0
 20
0.0
 30
0.0
 40
  0.0200
 41
  0.0200
 0
VERTEX
 8
WIRE
 10
  2.0900
 20
  3.6000
 30
0.0
 42
1.0
 0
VERTEX
 8
WIRE
 10
  2.1100
 20
  3.6000
 30
0.0
 42
1.0
 0
SEQEND
 8
WIRE
 0
POLYLINE
 8
WIRE
 66
1
 10
0.0
 20
0.0
 30
0.0
 0
VERTEX
 8
WIRE
 10
  3.9000
 20
  5.1000
 30
0.0
 0
VERTEX
 8
WIRE
 10
  3.5000
 20
  5.1000
 30
0.0
 0
SEQEND
 8
WIRE
 0
POLYLINE
 8
WIRE
 66
1
 70
1
 10
0.0
 20
0.0
 30
0.0
 40
  0.0200
 41
  0.0200
 0
VERTEX
 8
WIRE
 10
  3.4900
 20
  5.1000
 30
0.0
 42
1.0
 0
VERTEX
 8
WIRE
 10
  3.5100
 20
  5.1000
 30
0.0
 42
1.0
 0
SEQEND
 8
WIRE
 0
POLYLINE
 8
WIRE
 66
1
 10
0.0
 20
0.0
 30
0.0
 0
VERTEX
 8
WIRE
 10
  3.5000
 20
  4.9000
 30
0.0
 0
VERTEX
 8
WIRE
 10
  3.5000
 20
  5.1000
 30
0.0
 0
SEQEND
 8
WIRE
 0
POLYLINE
 8
WIRE
 66
1
 10
0.0
 20
0.0
 30
0.0
 0
VERTEX
 8
WIRE
 10
  3.9000
 20
  4.3000
 30
0.0
 0
VERTEX
 8
WIRE
 10
  3.5000
 20
  4.3000
 30
0.0
 0
SEQEND
 8
WIRE
 0
POLYLINE
 8
WIRE
 66
1
 10
0.0
 20
0.0
 30
0.0
 0
VERTEX
 8
WIRE
 10
  4.6000
 20
  4.3000
 30
0.0
 0
VERTEX
 8
WIRE
 10
  4.2000
 20
  4.3000
 30
0.0
 0
SEQEND
 8
WIRE
 0
POLYLINE
 8
WIRE
 66
1
 10
0.0
 20
0.0
 30
0.0
 0
VERTEX
 8
WIRE
 10
  4.6000
 20
  4.1000
 30
0.0
 0
VERTEX
 8
WIRE
 10
  4.6000
 20
  4.3000
 30
0.0
 0
SEQEND
 8
WIRE
 0
POLYLINE
 8
WIRE
 66
1
 10
0.0
 20
0.0
 30
0.0
 0
VERTEX
 8
WIRE
 10
  4.6000
 20
  5.1000
 30
0.0
 0
VERTEX
 8
WIRE
 10
  4.2000
 20
  5.1000
 30
0.0
 0
SEQEND
 8
WIRE
 0
POLYLINE
 8
WIRE
 66
1
 10
0.0
 20
0.0
 30
0.0
 0
VERTEX
 8
WIRE
 10
  4.6000
 20
  4.9000
 30
0.0
 0
VERTEX
 8
WIRE
 10
  4.6000
 20
  5.1000
 30
0.0
 0
SEQEND
 8
WIRE
 0
POLYLINE
 8
WIRE
 66
1
 10
0.0
 20
0.0
 30
0.0
 0
VERTEX
 8
WIRE
 10
  3.5000
 20
  5.1000
 30
0.0
 0
VERTEX
 8
WIRE
 10
  3.5000
 20
  5.4000
 30
0.0
 0
SEQEND
 8
WIRE
 0
POLYLINE
 8
WIRE
 66
1
 10
0.0
 20
0.0
 30
0.0
 0
VERTEX
 8
WIRE
 10
  3.5000
 20
  3.7000
 30
0.0
 0
VERTEX
 8
WIRE
 10
  3.5000
 20
  4.3000
 30
0.0
 0
SEQEND
 8
WIRE
 0
POLYLINE
 8
WIRE
 66
1
 70
1
 10
0.0
 20
0.0
 30
0.0
 40
  0.0200
 41
  0.0200
 0
VERTEX
 8
WIRE
 10
  3.4900
 20
  4.3000
 30
0.0
 42
1.0
 0
VERTEX
 8
WIRE
 10
  3.5100
 20
  4.3000
 30
0.0
 42
1.0
 0
SEQEND
 8
WIRE
 0
POLYLINE
 8
WIRE
 66
1
 10
0.0
 20
0.0
 30
0.0
 0
VERTEX
 8
WIRE
 10
  3.5000
 20
  5.1000
 30
0.0
 0
VERTEX
 8
WIRE
 10
  3.1000
 20
  5.1000
 30
0.0
 0
SEQEND
 8
WIRE
 0
TEXT
 8
WIRETEXT
 10
  3.1000
 20
  5.1300
 30
0.0
 40
  0.0514
 1
CLKOUT
 0
POLYLINE
 8
WIRE
 66
1
 10
0.0
 20
0.0
 30
0.0
 0
VERTEX
 8
WIRE
 10
  4.0000
 20
  3.7000
 30
0.0
 0
VERTEX
 8
WIRE
 10
  3.5000
 20
  3.7000
 30
0.0
 0
SEQEND
 8
WIRE
 0
POLYLINE
 8
WIRE
 66
1
 10
0.0
 20
0.0
 30
0.0
 0
VERTEX
 8
WIRE
 10
  4.0000
 20
  3.6000
 30
0.0
 0
VERTEX
 8
WIRE
 10
  3.1000
 20
  3.6000
 30
0.0
 0
SEQEND
 8
WIRE
 0
TEXT
 8
WIRETEXT
 10
  3.1000
 20
  3.6300
 30
0.0
 40
  0.0514
 1
CLKIN
 0
POLYLINE
 8
WIRE
 66
1
 10
0.0
 20
0.0
 30
0.0
 0
VERTEX
 8
WIRE
 10
  4.0000
 20
  3.5000
 30
0.0
 0
VERTEX
 8
WIRE
 10
  3.5000
 20
  3.5000
 30
0.0
 0
SEQEND
 8
WIRE
 0
POLYLINE
 8
WIRE
 66
1
 10
0.0
 20
0.0
 30
0.0
 0
VERTEX
 8
WIRE
 10
  3.5000
 20
  3.0000
 30
0.0
 0
VERTEX
 8
WIRE
 10
  3.5000
 20
  3.5000
 30
0.0
 0
SEQEND
 8
WIRE
 0
TEXT
 8
WIRETEXT
 10
  3.5000
 20
  3.4100
 30
0.0
 40
  0.0514
 1
EXT_CLKIN
 0
POLYLINE
 8
WIRE
 66
1
 10
0.0
 20
0.0
 30
0.0
 0
VERTEX
 8
WIRE
 10
  3.5000
 20
  4.3000
 30
0.0
 0
VERTEX
 8
WIRE
 10
  3.5000
 20
  4.5000
 30
0.0
 0
SEQEND
 8
WIRE
 0
POLYLINE
 8
WIRE
 66
1
 10
0.0
 20
0.0
 30
0.0
 0
VERTEX
 8
WIRE
 10
  4.6000
 20
  2.1000
 30
0.0
 0
VERTEX
 8
WIRE
 10
  4.6000
 20
  2.4000
 30
0.0
 0
SEQEND
 8
WIRE
 0
POLYLINE
 8
WIRE
 66
1
 10
0.0
 20
0.0
 30
0.0
 0
VERTEX
 8
WIRE
 10
  4.6000
 20
  3.0000
 30
0.0
 0
VERTEX
 8
WIRE
 10
  3.5000
 20
  3.0000
 30
0.0
 0
SEQEND
 8
WIRE
 0
POLYLINE
 8
WIRE
 66
1
 70
1
 10
0.0
 20
0.0
 30
0.0
 40
  0.0200
 41
  0.0200
 0
VERTEX
 8
WIRE
 10
  3.4900
 20
  3.0000
 30
0.0
 42
1.0
 0
VERTEX
 8
WIRE
 10
  3.5100
 20
  3.0000
 30
0.0
 42
1.0
 0
SEQEND
 8
WIRE
 0
POLYLINE
 8
WIRE
 66
1
 10
0.0
 20
0.0
 30
0.0
 0
VERTEX
 8
WIRE
 10
  4.6000
 20
  1.6000
 30
0.0
 0
VERTEX
 8
WIRE
 10
  4.6000
 20
  1.8000
 30
0.0
 0
SEQEND
 8
WIRE
 0
POLYLINE
 8
WIRE
 66
1
 10
0.0
 20
0.0
 30
0.0
 0
VERTEX
 8
WIRE
 10
  4.6000
 20
  2.9000
 30
0.0
 0
VERTEX
 8
WIRE
 10
  4.6000
 20
  3.0000
 30
0.0
 0
SEQEND
 8
WIRE
 0
POLYLINE
 8
WIRE
 66
1
 10
0.0
 20
0.0
 30
0.0
 0
VERTEX
 8
WIRE
 10
  4.0000
 20
  2.9000
 30
0.0
 0
VERTEX
 8
WIRE
 10
  3.5000
 20
  2.9000
 30
0.0
 0
SEQEND
 8
WIRE
 0
POLYLINE
 8
WIRE
 66
1
 70
1
 10
0.0
 20
0.0
 30
0.0
 40
  0.0200
 41
  0.0200
 0
VERTEX
 8
WIRE
 10
  3.4900
 20
  2.9000
 30
0.0
 42
1.0
 0
VERTEX
 8
WIRE
 10
  3.5100
 20
  2.9000
 30
0.0
 42
1.0
 0
SEQEND
 8
WIRE
 0
POLYLINE
 8
WIRE
 66
1
 10
0.0
 20
0.0
 30
0.0
 0
VERTEX
 8
WIRE
 10
  3.5000
 20
  2.9000
 30
0.0
 0
VERTEX
 8
WIRE
 10
  2.9000
 20
  2.9000
 30
0.0
 0
SEQEND
 8
WIRE
 0
TEXT
 8
WIRETEXT
 10
  2.9000
 20
  2.9300
 30
0.0
 40
  0.0514
 1
EXT_CLKIN
 0
POLYLINE
 8
WIRE
 66
1
 10
0.0
 20
0.0
 30
0.0
 0
VERTEX
 8
WIRE
 10
  3.5000
 20
  2.9000
 30
0.0
 0
VERTEX
 8
WIRE
 10
  3.5000
 20
  3.0000
 30
0.0
 0
SEQEND
 8
WIRE
 0
POLYLINE
 8
WIRE
 66
1
 10
0.0
 20
0.0
 30
0.0
 0
VERTEX
 8
WIRE
 10
  2.1000
 20
  4.2000
 30
0.0
 0
VERTEX
 8
WIRE
 10
  2.1000
 20
  4.4000
 30
0.0
 0
SEQEND
 8
WIRE
 0
POLYLINE
 8
WIRE
 66
1
 10
0.0
 20
0.0
 30
0.0
 0
VERTEX
 8
WIRE
 10
  2.1000
 20
  4.0000
 30
0.0
 0
VERTEX
 8
WIRE
 10
  2.1000
 20
  4.2000
 30
0.0
 0
SEQEND
 8
WIRE
 0
POLYLINE
 8
WIRE
 66
1
 70
1
 10
0.0
 20
0.0
 30
0.0
 40
  0.0200
 41
  0.0200
 0
VERTEX
 8
WIRE
 10
  2.0900
 20
  4.2000
 30
0.0
 42
1.0
 0
VERTEX
 8
WIRE
 10
  2.1100
 20
  4.2000
 30
0.0
 42
1.0
 0
SEQEND
 8
WIRE
 0
POLYLINE
 8
WIRE
 66
1
 10
0.0
 20
0.0
 30
0.0
 0
VERTEX
 8
WIRE
 10
  2.1000
 20
  2.2000
 30
0.0
 0
VERTEX
 8
WIRE
 10
  2.1000
 20
  2.3000
 30
0.0
 0
SEQEND
 8
WIRE
 0
POLYLINE
 8
WIRE
 66
1
 10
0.0
 20
0.0
 30
0.0
 0
VERTEX
 8
WIRE
 10
  2.1000
 20
  4.6000
 30
0.0
 0
VERTEX
 8
WIRE
 10
  2.1000
 20
  4.8000
 30
0.0
 0
SEQEND
 8
WIRE
 0
POLYLINE
 8
WIRE
 66
1
 10
0.0
 20
0.0
 30
0.0
 0
VERTEX
 8
WIRE
 10
  2.1000
 20
  4.4000
 30
0.0
 0
VERTEX
 8
WIRE
 10
  2.1000
 20
  4.6000
 30
0.0
 0
SEQEND
 8
WIRE
 0
POLYLINE
 8
WIRE
 66
1
 70
1
 10
0.0
 20
0.0
 30
0.0
 40
  0.0200
 41
  0.0200
 0
VERTEX
 8
WIRE
 10
  2.0900
 20
  4.6000
 30
0.0
 42
1.0
 0
VERTEX
 8
WIRE
 10
  2.1100
 20
  4.6000
 30
0.0
 42
1.0
 0
SEQEND
 8
WIRE
 0
POLYLINE
 8
WIRE
 66
1
 10
0.0
 20
0.0
 30
0.0
 0
VERTEX
 8
WIRE
 10
  2.1000
 20
  3.8000
 30
0.0
 0
VERTEX
 8
WIRE
 10
  2.1000
 20
  4.0000
 30
0.0
 0
SEQEND
 8
WIRE
 0
POLYLINE
 8
WIRE
 66
1
 70
1
 10
0.0
 20
0.0
 30
0.0
 40
  0.0200
 41
  0.0200
 0
VERTEX
 8
WIRE
 10
  2.0900
 20
  4.0000
 30
0.0
 42
1.0
 0
VERTEX
 8
WIRE
 10
  2.1100
 20
  4.0000
 30
0.0
 42
1.0
 0
SEQEND
 8
WIRE
 0
POLYLINE
 8
WIRE
 66
1
 10
0.0
 20
0.0
 30
0.0
 0
VERTEX
 8
WIRE
 10
  2.1000
 20
  3.6000
 30
0.0
 0
VERTEX
 8
WIRE
 10
  2.1000
 20
  3.8000
 30
0.0
 0
SEQEND
 8
WIRE
 0
POLYLINE
 8
WIRE
 66
1
 70
1
 10
0.0
 20
0.0
 30
0.0
 40
  0.0200
 41
  0.0200
 0
VERTEX
 8
WIRE
 10
  2.0900
 20
  3.8000
 30
0.0
 42
1.0
 0
VERTEX
 8
WIRE
 10
  2.1100
 20
  3.8000
 30
0.0
 42
1.0
 0
SEQEND
 8
WIRE
 0
POLYLINE
 8
WIRE
 66
1
 10
0.0
 20
0.0
 30
0.0
 0
VERTEX
 8
WIRE
 10
  2.1000
 20
  4.8000
 30
0.0
 0
VERTEX
 8
WIRE
 10
  2.1000
 20
  5.0000
 30
0.0
 0
SEQEND
 8
WIRE
 0
POLYLINE
 8
WIRE
 66
1
 10
0.0
 20
0.0
 30
0.0
 0
VERTEX
 8
WIRE
 10
  2.1000
 20
  2.8000
 30
0.0
 0
VERTEX
 8
WIRE
 10
  2.1000
 20
  3.0000
 30
0.0
 0
SEQEND
 8
WIRE
 0
POLYLINE
 8
WIRE
 66
1
 10
0.0
 20
0.0
 30
0.0
 0
VERTEX
 8
WIRE
 10
  2.1000
 20
  2.0000
 30
0.0
 0
VERTEX
 8
WIRE
 10
  2.1000
 20
  2.1000
 30
0.0
 0
SEQEND
 8
WIRE
 0
POLYLINE
 8
WIRE
 66
1
 70
1
 10
0.0
 20
0.0
 30
0.0
 40
  0.0200
 41
  0.0200
 0
VERTEX
 8
WIRE
 10
  2.0900
 20
  2.1000
 30
0.0
 42
1.0
 0
VERTEX
 8
WIRE
 10
  2.1100
 20
  2.1000
 30
0.0
 42
1.0
 0
SEQEND
 8
WIRE
 0
POLYLINE
 8
WIRE
 66
1
 10
0.0
 20
0.0
 30
0.0
 0
VERTEX
 8
WIRE
 10
  2.1000
 20
  2.4000
 30
0.0
 0
VERTEX
 8
WIRE
 10
  2.1000
 20
  2.6000
 30
0.0
 0
SEQEND
 8
WIRE
 0
POLYLINE
 8
WIRE
 66
1
 10
0.0
 20
0.0
 30
0.0
 0
VERTEX
 8
WIRE
 10
  2.1000
 20
  3.2000
 30
0.0
 0
VERTEX
 8
WIRE
 10
  2.1000
 20
  3.4000
 30
0.0
 0
SEQEND
 8
WIRE
 0
POLYLINE
 8
PARTS
 66
1
 10
0.0
 20
0.0
 30
0.0
 0
VERTEX
 8
PARTS
 10
  2.0000
 20
  1.8000
 30
0.0
 0
VERTEX
 8
PARTS
 10
  2.2000
 20
  1.8000
 30
0.0
 0
SEQEND
 8
PARTS
 0
POLYLINE
 8
PARTS
 66
1
 10
0.0
 20
0.0
 30
0.0
 0
VERTEX
 8
PARTS
 10
  2.2000
 20
  1.8000
 30
0.0
 0
VERTEX
 8
PARTS
 10
  2.1000
 20
  1.7000
 30
0.0
 0
SEQEND
 8
PARTS
 0
POLYLINE
 8
PARTS
 66
1
 10
0.0
 20
0.0
 30
0.0
 0
VERTEX
 8
PARTS
 10
  2.1000
 20
  1.7000
 30
0.0
 0
VERTEX
 8
PARTS
 10
  2.0000
 20
  1.8000
 30
0.0
 0
SEQEND
 8
PARTS
 0
POLYLINE
 8
PARTS
 66
1
 10
0.0
 20
0.0
 30
0.0
 0
VERTEX
 8
PARTS
 10
  4.5000
 20
  4.9000
 30
0.0
 0
VERTEX
 8
PARTS
 10
  4.7000
 20
  4.9000
 30
0.0
 0
SEQEND
 8
PARTS
 0
POLYLINE
 8
PARTS
 66
1
 10
0.0
 20
0.0
 30
0.0
 0
VERTEX
 8
PARTS
 10
  4.7000
 20
  4.9000
 30
0.0
 0
VERTEX
 8
PARTS
 10
  4.6000
 20
  4.8000
 30
0.0
 0
SEQEND
 8
PARTS
 0
POLYLINE
 8
PARTS
 66
1
 10
0.0
 20
0.0
 30
0.0
 0
VERTEX
 8
PARTS
 10
  4.6000
 20
  4.8000
 30
0.0
 0
VERTEX
 8
PARTS
 10
  4.5000
 20
  4.9000
 30
0.0
 0
SEQEND
 8
PARTS
 0
POLYLINE
 8
PARTS
 66
1
 10
0.0
 20
0.0
 30
0.0
 0
VERTEX
 8
PARTS
 10
  4.5000
 20
  4.1000
 30
0.0
 0
VERTEX
 8
PARTS
 10
  4.7000
 20
  4.1000
 30
0.0
 0
SEQEND
 8
PARTS
 0
POLYLINE
 8
PARTS
 66
1
 10
0.0
 20
0.0
 30
0.0
 0
VERTEX
 8
PARTS
 10
  4.7000
 20
  4.1000
 30
0.0
 0
VERTEX
 8
PARTS
 10
  4.6000
 20
  4.0000
 30
0.0
 0
SEQEND
 8
PARTS
 0
POLYLINE
 8
PARTS
 66
1
 10
0.0
 20
0.0
 30
0.0
 0
VERTEX
 8
PARTS
 10
  4.6000
 20
  4.0000
 30
0.0
 0
VERTEX
 8
PARTS
 10
  4.5000
 20
  4.1000
 30
0.0
 0
SEQEND
 8
PARTS
 0
POLYLINE
 8
PARTS
 66
1
 10
0.0
 20
0.0
 30
0.0
 0
VERTEX
 8
PARTS
 10
  4.5000
 20
  1.6000
 30
0.0
 0
VERTEX
 8
PARTS
 10
  4.7000
 20
  1.6000
 30
0.0
 0
SEQEND
 8
PARTS
 0
POLYLINE
 8
PARTS
 66
1
 10
0.0
 20
0.0
 30
0.0
 0
VERTEX
 8
PARTS
 10
  4.7000
 20
  1.6000
 30
0.0
 0
VERTEX
 8
PARTS
 10
  4.6000
 20
  1.5000
 30
0.0
 0
SEQEND
 8
PARTS
 0
POLYLINE
 8
PARTS
 66
1
 10
0.0
 20
0.0
 30
0.0
 0
VERTEX
 8
PARTS
 10
  4.6000
 20
  1.5000
 30
0.0
 0
VERTEX
 8
PARTS
 10
  4.5000
 20
  1.6000
 30
0.0
 0
SEQEND
 8
PARTS
 0
ENDSEC
 0
EOF
